<svg width="52" height="60" viewBox="0 0 52 60" fill="none" xmlns="http://www.w3.org/2000/svg">
<g clip-path="url(#clip0_129_2179)">
<path d="M25.8508 0.186523L0 15.1049V44.9418L25.8275 59.8602L51.655 44.9418V15.1049L25.8508 0.186523Z" fill="white"/>
<path d="M51.6783 15.1049L43.5897 10.4429L35.8042 14.9184L43.8928 19.6037L51.6783 15.1049Z" fill="#957EBA"/>
<path d="M7.78555 19.6038L33.6131 4.68536L25.8508 0.186523L0 15.1049L7.78555 19.6038Z" fill="#957EBA"/>
<path d="M17.7622 34.6853L25.8508 39.3706L33.9394 34.6853L25.8508 30.0233L17.7622 34.6853Z" fill="#957EBA"/>
<path d="M43.8928 19.6037V40.4429L25.8508 50.8624L7.78555 40.4429V19.6037L0 15.1049V44.9417L25.8508 59.8601L51.6783 44.9417V15.1049L43.8928 19.6037Z" fill="#957EBA"/>
<path d="M25.8508 20.676L17.7622 25.3613V34.6854L25.8508 30.0233L33.9394 34.6854V25.3613L25.8508 20.676Z" fill="#957EBA"/>
<path d="M43.8928 19.6038L33.9394 25.3613V34.6853L25.8508 39.3707V50.8625L43.8928 40.4429V19.6038Z" fill="#E0DED8"/>
<path d="M7.78552 19.6038L17.7622 25.3613V34.6853L25.8508 39.3707V50.8625L7.78552 40.4429V19.6038Z" fill="#D5D2CA"/>
<path d="M33.613 4.6853L43.5897 10.4429L35.8042 14.9184L43.8927 19.6037L33.9394 25.3613L25.8508 20.676L17.7622 25.3613L7.78552 19.6037L33.613 4.6853Z" fill="white"/>
</g>
<defs>
<clipPath id="clip0_129_2179">
<rect width="51.6783" height="60" fill="white"/>
</clipPath>
</defs>
</svg>
