<svg width="60" height="60" viewBox="0 0 60 60" fill="none" xmlns="http://www.w3.org/2000/svg">
<path d="M59.766 32.7705C59.4147 30.2982 58.5584 27.9536 57.2202 25.8027C56.053 23.9254 54.5555 22.2559 52.768 20.8368L52.7728 20.8324L34 6.41376C33.9844 6.40017 33.9683 6.38751 33.9577 6.38013C33.3334 5.902 32.4884 5.63892 31.579 5.63892C30.6686 5.63892 29.7905 5.90259 29.1078 6.38153C28.3738 6.89423 27.9543 7.5745 27.925 8.29872C27.8981 8.97419 28.2204 9.62423 28.8348 10.1311C30.043 11.0843 31.2487 12.0584 32.4557 13.0336C33.6272 13.9804 34.8344 14.9556 36.0356 15.9049L13.0419 15.8893C10.4124 15.8893 8.62185 17.1241 8.25353 19.1914C8.0917 20.0969 8.37728 21.0925 9.01572 21.8551C9.69307 22.6636 10.6765 23.1095 11.7847 23.1095L13.5376 23.1105C15.9592 23.1105 18.3914 23.1047 20.8204 23.0988L23.1367 23.0934L2.26807 38.5326L2.18521 38.5931C1.01955 39.4868 0.256425 40.7393 0.0917766 42.0296C-0.0330281 43.0072 0.195019 43.9005 0.751542 44.614C1.41482 45.4644 2.45041 45.9322 3.66775 45.9322C4.86365 45.9322 6.08393 45.479 7.10533 44.6539L18.3748 35.4313C18.3266 35.8816 18.2681 36.5423 18.2748 37.0219C18.2875 37.7811 18.5312 39.3045 18.9171 40.5413C19.7145 43.0833 21.0576 45.4088 22.9089 47.4512C24.8352 49.5759 27.1813 51.2607 29.8815 52.4576C32.7364 53.7201 35.805 54.361 39.003 54.361H39.0326C42.2407 54.3533 45.3192 53.7022 48.1832 52.4253C50.8879 51.2143 53.2329 49.5227 55.152 47.3981C57.001 45.3454 58.3421 43.016 59.1379 40.4762C59.5312 39.2198 59.7846 37.9192 59.8899 36.6086C59.9882 35.3396 59.9459 34.0482 59.766 32.7705ZM39.2369 44.9532C32.189 44.9532 26.4737 39.8407 26.4737 33.5336C26.4737 27.2272 32.1891 22.1147 39.2369 22.1147C46.2846 22.1147 51.9994 27.2272 51.9994 33.5336C51.9995 39.8407 46.2846 44.9532 39.2369 44.9532ZM46.5969 32.5302C46.7008 34.4127 45.9489 36.1604 44.6287 37.4543C43.2856 38.7724 41.369 39.6003 39.2261 39.6003C37.0838 39.6003 35.1671 38.7724 33.8235 37.4543C32.5037 36.1604 31.7534 34.4128 31.8566 32.5317C31.958 30.7032 32.8499 29.0892 34.1933 27.9464C35.5144 26.8227 37.2884 26.137 39.226 26.137C41.164 26.137 42.9374 26.8228 44.2586 27.9464C45.6024 29.0892 46.4946 30.7022 46.5969 32.5302Z" fill="#957EBA"/>
</svg>
