<svg width="60" height="60" viewBox="0 0 60 60" fill="none" xmlns="http://www.w3.org/2000/svg">
<path d="M15.3206 9.37312C14.2669 9.52874 13.0013 10.0237 12.1031 10.6387C11.5163 11.0269 10.7588 11.7562 10.3219 12.3281C9.83439 12.9712 9.24001 14.2087 9.00563 15.0581L8.80688 15.765V45.2531L9.00563 45.96C9.23813 46.8094 9.83251 48.0469 10.3219 48.69C11.2406 49.8919 12.6563 50.9044 14.0775 51.3637C15.2513 51.7387 14.6644 51.7237 29.9888 51.7237C45.3206 51.7237 44.7338 51.7387 45.9 51.3562C47.3288 50.8969 48.7425 49.8919 49.6556 48.69C50.1431 48.0394 50.745 46.8019 50.9775 45.96L51.1688 45.2531V15.765L50.97 15.0581C50.7375 14.2106 50.1431 12.9712 49.6556 12.3281C49.2169 11.7544 48.4613 11.0269 47.8744 10.6387C47.2444 10.2075 46.2188 9.74062 45.4275 9.52124L44.7338 9.32999L30.2363 9.32249C22.2656 9.31499 15.5475 9.33749 15.3225 9.37124L15.3206 9.37312ZM35.0794 17.1731C37.3144 17.5406 38.8406 18.2756 39.8381 19.4644C40.2619 19.9669 40.7569 20.9644 40.9631 21.7069C41.0906 22.1944 41.1113 22.47 41.1188 23.6869C41.1263 24.9675 41.1113 25.1569 40.9631 25.6594C40.5319 27.1594 39.5906 28.3106 38.07 29.2031L37.5469 29.5069L37.9219 29.6269C38.4938 29.8181 39.45 30.3131 39.9375 30.6806C41.1544 31.5994 42.0019 33.0281 42.3413 34.7325C42.5044 35.5819 42.5044 37.3987 42.3338 38.1769C41.6625 41.2387 39.2925 43.3669 35.7281 44.0812C34.3631 44.3569 34.0106 44.3719 26.6831 44.3719H19.5206V16.9969L26.9325 17.025C33.5663 17.0456 34.4138 17.0606 35.0794 17.1731ZM25.6031 24.8944V28.1194L29.0194 28.0912C32.2238 28.0556 32.4638 28.0481 32.9794 27.9075C34.5919 27.4687 35.2913 26.5425 35.2913 24.8456C35.2913 23.5444 34.8319 22.7025 33.8344 22.2075C32.9513 21.7687 31.995 21.6769 28.2413 21.6694H25.6031V24.8944ZM25.6031 35.955V39.7106L29.3363 39.6825C33.5306 39.6544 33.6713 39.6394 34.7044 39.1387C35.8931 38.5594 36.4219 37.6106 36.4219 36.0619C36.4219 34.0687 35.6306 32.9644 33.8063 32.4131C33.2906 32.25 33.1913 32.25 29.4431 32.2219L25.6031 32.2012V35.955Z" fill="#957EBA"/>
</svg>
