<svg width="60" height="60" viewBox="0 0 60 60" fill="none" xmlns="http://www.w3.org/2000/svg">
<path d="M56.6146 0.0587158L51.6236 54.1189L29.9997 59.9413L8.3754 54.1189L3.38544 0.0587158H56.6146ZM46.5574 11.051H29.9802H13.1093L13.9161 17.5793H29.9802H30.8825L29.9802 17.9549L14.5033 24.4009L15.0165 30.7821L29.9802 30.8306L38.0003 30.8561L37.4869 39.3646L29.9801 41.4781V41.4714L29.9186 41.4885L22.6689 39.6584L22.229 34.3767H22.2049H15.4805H15.4568L16.337 44.5729L29.9803 48.6075V48.6002L30.0049 48.6075L43.5751 44.6463L45.3354 24.4009H29.9803H29.9425L29.9803 24.3845L45.8979 17.5793L46.5574 11.051Z" fill="#957EBA"/>
</svg>
