<svg width="60" height="60" viewBox="0 0 60 60" fill="none" xmlns="http://www.w3.org/2000/svg">
<path fill-rule="evenodd" clip-rule="evenodd" d="M21.6675 23.5417C18.1005 23.5417 15.2092 26.4327 15.2092 29.9995C15.2092 33.5665 18.1007 36.458 21.6675 36.458H28.1258V30.1297C28.1253 30.0865 28.125 30.043 28.125 29.9995C28.125 29.9562 28.1253 29.9127 28.1258 29.8695V23.5417H21.6675ZM28.1258 19.7917H21.6675C18.1007 19.7917 15.2092 16.9002 15.2092 13.3333C15.2092 9.7665 18.1007 6.875 21.6675 6.875H28.1258V19.7917ZM31.8758 6.875V19.7916L38.3325 19.7913C41.8993 19.7913 44.7918 16.9001 44.7918 13.3333C44.7918 9.7665 41.9003 6.875 38.3333 6.875H31.8758ZM38.3328 23.5413C34.8008 23.5416 31.931 26.3772 31.8758 29.896V30.103C31.931 33.6222 34.801 36.458 38.3333 36.458C41.9003 36.458 44.7918 33.5665 44.7918 29.9995C44.7918 26.4327 41.8995 23.5413 38.3328 23.5413ZM21.6675 40.208C18.1008 40.208 15.2088 43.1 15.2088 46.667C15.2088 50.234 18.1002 53.1255 21.6671 53.1255C25.234 53.1255 28.1255 50.234 28.1255 46.667L28.1258 40.208H21.6675Z" fill="#957EBA"/>
</svg>
