<svg width="68" height="68" viewBox="0 0 68 68" fill="none" xmlns="http://www.w3.org/2000/svg">
<g clip-path="url(#clip0_129_2142)" filter="url(#filter0_d_129_2142)">
<path d="M63.9639 57.5004C63.9639 58.8547 50.5435 59.9526 33.9884 59.9526C17.4332 59.9526 4.01282 58.8547 4.01282 57.5004C4.01282 56.1459 19.7558 55.0483 33.9884 55.0483C50.9305 55.0483 63.9639 56.1459 63.9639 57.5004Z" fill="#1A4658"/>
<path d="M62.1085 39.8067C61.1808 39.8067 60.1814 39.5182 59.4675 37.3065C58.7537 35.0949 57.6834 32.835 57.6834 32.835C58.8254 32.835 59.4675 32.4983 59.4675 32.4983C58.6824 32.2578 56.9695 31.4406 55.8278 30.4308C54.6859 29.4211 51.7595 27.7863 51.7595 27.7863V24.5169C51.7595 22.305 53.8651 20.5743 53.8651 20.5743C52.4378 20.5743 51.7595 21.4396 51.7595 21.4396V16.7758C51.7595 12.16 55.2209 10.0927 55.2209 10.0927C54.1503 10.0447 53.4367 10.3811 53.4367 10.3811C53.9363 6.96751 55.4888 5.95772 55.4888 5.95772C49.7792 4.94794 46.5942 7.20782 46.5942 7.20782C45.9519 5.14044 48.4633 3.93794 48.4633 3.93794C45.5372 3.50523 43.1172 4.08221 43.1172 4.08221C43.1172 1.05316 44.9046 0.0428467 44.9046 0.0428467C35.9833 0.0428467 30.9179 4.56188 30.9179 4.56188C30.5612 2.63855 31.3468 0.954062 31.3468 0.954062C22.7112 3.40624 20.4279 8.83659 20.4279 8.83659C19.8571 7.92316 19.7858 5.84934 19.7858 5.84934C19.7858 5.84934 16.2171 9.87614 15.5748 12.6647C14.9325 15.4535 16.1457 23.459 16.1457 23.459C16.1457 23.459 15.575 22.9784 14.3616 22.8822C14.3616 22.8822 15.6462 23.8439 15.6462 26.0075C15.6462 26.0075 15.1465 25.719 14.2902 25.8632C14.2902 25.8632 15.6461 26.6805 15.789 28.0749C15.789 28.0749 14.2188 28.7961 13.3623 29.5174C13.3623 29.5174 12.0061 29.5654 11.2926 29.7097C11.2926 29.7097 12.4346 30.1424 12.6488 30.5271C12.6488 30.5271 9.29423 32.835 7.58134 34.7101C7.58134 34.7101 9.08024 34.0851 10.1507 34.2774C10.1507 34.2774 7.79533 36.2006 7.01032 39.3739C7.01032 39.3739 8.1522 38.9894 8.65178 39.1817C8.65178 39.1817 7.22431 41.201 7.15303 43.3166L5.58301 43.9417L6.79632 44.5187C6.79632 44.5187 5.86844 47.115 5.65429 48.6055C5.65429 48.6055 6.36786 48.1248 6.93888 47.9805C6.93888 47.9805 7.72405 49.2305 8.79465 50.1922C9.86525 51.1538 12.292 51.9712 13.7194 51.9712L16.4021 51.9007C16.0694 52.868 15.413 53.6882 14.0294 53.7312L13.8759 53.8972C13.8469 53.8957 13.8184 53.8949 13.7905 53.8945C13.7631 54.1769 12.917 54.2277 12.6843 54.4234C11.977 55.0179 11.4376 55.8347 11.0784 56.563C10.8152 57.0967 10.9396 57.0966 10.7573 57.6449C10.6976 57.8243 10.4212 58.0159 10.3291 58.1977C11.0997 58.0233 13.2354 57.9068 14.3604 57.8512L14.3794 58.522C14.3794 58.522 14.5648 58.6382 14.872 58.7224C14.8827 58.721 14.8929 58.719 14.9057 58.7198C15.0101 58.7255 15.1108 58.7358 15.2093 58.7523C16.8975 58.6505 18.0729 58.8424 20.0295 58.7329C20.4102 58.7024 20.7672 58.6664 21.1004 58.5385C21.1952 58.3478 21.2079 58.3361 21.2526 58.0898C21.2621 58.0459 21.2621 58.0007 21.2778 57.9472C21.3085 57.9437 21.3383 57.9408 21.3682 57.9378C21.3796 57.9349 21.3978 57.9323 21.438 57.9313C21.4463 57.9296 21.4534 57.927 21.4628 57.9264C21.4938 57.9245 21.5247 57.9228 21.5557 57.921C21.577 57.9157 21.5974 57.9142 21.6157 57.9176C21.9699 57.8962 22.5384 57.8761 22.8925 57.8631C24.0434 57.8618 25.5577 57.9511 25.5577 57.9511C25.6514 57.082 25.745 55.7335 27.8327 51.8028L28.3501 51.5865C28.3501 51.5865 34.762 53.1086 40.7114 51.525C41.1821 52.3057 42.7055 54.9296 42.945 56.5837C43.1497 56.7775 43.127 57.0235 43.1339 57.2842C43.1397 57.5048 43.1673 57.7255 43.1761 57.9454C43.3901 57.9258 44.1625 57.862 45.1377 57.8631C45.4918 57.8761 46.0603 57.8962 46.4145 57.9176C46.433 57.9142 46.4532 57.9157 46.4745 57.921C46.5055 57.9228 46.5364 57.9245 46.5674 57.9264C46.5768 57.927 46.5838 57.9296 46.5923 57.9313C46.6324 57.9323 46.6506 57.9349 46.6622 57.9378C46.6919 57.9408 46.7217 57.9437 46.7524 57.9472C46.7681 58.0007 46.7681 58.0459 46.7778 58.0898C46.8223 58.3361 46.835 58.3478 46.9297 58.5385C46.9603 58.5503 46.9912 58.5604 47.0222 58.5707C48.0874 58.4797 49.167 58.463 50.239 58.4972C51.0821 58.5241 51.9108 58.6307 52.7407 58.7324C52.7408 58.7377 52.7414 58.7431 52.7414 58.7485C52.8251 58.7545 52.9069 58.7585 52.9885 58.7621C53.4337 58.8157 53.8802 58.8656 54.3295 58.8983C54.3381 58.5197 54.335 58.1886 54.3232 57.8978C55.2171 57.9266 56.5109 58.0465 57.0538 58.0998C57.269 58.1345 57.4438 58.156 57.6273 58.1826C57.6522 58.1875 57.6785 58.1926 57.7012 58.1977C57.7003 58.1963 57.6994 58.1947 57.6984 58.1933C57.8826 58.2212 58.0813 58.2564 58.3435 58.3179C58.3036 57.9926 58.3072 57.9994 58.2433 57.5916C58.1941 57.2762 57.8584 56.318 57.2303 55.9228C57.2303 55.9228 57.9146 56.122 58.1236 56.2014C57.449 55.5857 57.121 54.7054 55.0015 54.0985C55.0015 54.0985 55.3886 53.9755 55.7425 53.9445C55.3727 53.7909 55.0902 53.7306 54.7158 53.7488C54.843 53.5054 55.4027 52.8915 55.8724 52.8127C55.8724 52.8127 55.5842 52.6777 55.1128 52.7821C54.9376 52.8439 54.7677 52.9103 54.6022 52.9888C54.5397 53.0186 54.4485 52.9878 54.4301 52.9417C54.2819 52.5725 54.1855 52.1974 54.0981 51.8207C58.3691 51.7165 58.9681 50.2404 58.9681 50.2404C59.325 50.4328 59.3248 50.8654 59.3248 50.8654C61.1803 49.2306 60.9663 47.5958 60.9663 47.5958C61.3946 47.6439 61.7515 47.8363 61.7515 47.8363C61.9656 45.3361 60.8237 41.0568 60.8237 41.0568C61.3948 41.2491 61.7515 41.0088 61.7515 41.0088C61.1092 40.8165 61.0379 40.3356 61.0379 40.3356C61.9658 40.3837 62.1085 39.8067 62.1085 39.8067Z" fill="#957EBA"/>
<path d="M21.2778 57.9472C21.2778 57.9472 21.4451 56.7312 20.8565 55.8538C20.8565 55.8538 21.9713 55.9047 22.1586 57.8881C22.1586 57.8881 21.3779 57.9492 21.2778 57.9472Z" fill="#C3B0E3"/>
<path d="M15.6818 53.8464L15.6887 53.8091C15.6928 53.8276 15.6922 53.8418 15.6818 53.8464Z" fill="#C3B0E3"/>
<path d="M16.7256 57.853C16.7192 57.8518 16.7156 57.8512 16.7156 57.8512C16.7156 57.8512 16.7201 57.8428 16.7286 57.8284L16.7256 57.853Z" fill="#C3B0E3"/>
<path d="M30.9182 4.56188C30.5615 2.63855 31.3471 0.954062 31.3471 0.954062C22.7114 3.40624 20.4279 8.83659 20.4279 8.83659C19.8571 7.92316 19.7858 5.84934 19.7858 5.84934C19.7858 5.84934 16.2171 9.87614 15.5748 12.6647C14.9325 15.4535 16.1457 23.459 16.1457 23.459C16.1457 23.459 15.575 22.9784 14.3616 22.8822C14.3616 22.8822 15.6462 23.8439 15.6462 26.0075C15.6462 26.0075 15.1465 25.719 14.2902 25.8632C14.2902 25.8632 15.6461 26.6805 15.789 28.0749C15.789 28.0749 14.2188 28.7961 13.3623 29.5174C13.3623 29.5174 12.0061 29.5654 11.2926 29.7097C11.2926 29.7097 12.4346 30.1424 12.6488 30.5271C12.6488 30.5271 9.29423 32.835 7.58134 34.7101C7.58134 34.7101 9.08024 34.0851 10.1507 34.2774C10.1507 34.2774 7.79533 36.2006 7.01032 39.3739C7.01032 39.3739 8.1522 38.9894 8.65178 39.1817C8.65178 39.1817 7.22431 41.201 7.15303 43.3166L5.58301 43.9417L6.79632 44.5187C6.79632 44.5187 5.86844 47.115 5.65429 48.6055C5.65429 48.6055 6.36786 48.1248 6.93888 47.9805C6.93888 47.9805 7.72405 49.2305 8.79465 50.1922C9.86525 51.1538 12.292 51.9712 13.7194 51.9712L13.9 51.9546C13.8204 52.2861 13.7308 52.6163 13.6001 52.9417C13.5816 52.9878 13.4906 53.0186 13.428 52.9888C13.2627 52.9103 13.0927 52.8439 12.9174 52.7821C12.4462 52.6777 12.1578 52.8127 12.1578 52.8127C12.6274 52.8915 13.1872 53.5054 13.3145 53.7488C12.94 53.7306 12.6575 53.7909 12.2877 53.9445C12.6417 53.9755 13.0286 54.0985 13.0286 54.0985C10.9094 54.7054 10.5812 55.5857 9.90677 56.2014C10.1156 56.122 10.7999 55.9228 10.7999 55.9228C10.1718 56.318 9.83627 57.2762 9.78692 57.5916C9.72316 57.9994 9.72661 57.9926 9.68682 58.3179C10.2486 58.1863 10.5216 58.1733 10.9764 58.0998C11.6792 58.0309 13.6432 57.8495 14.3646 57.8999L14.2509 58.8347C14.2509 58.8347 14.2653 58.8347 14.2863 58.8344C14.6566 58.7628 14.9584 58.7724 15.2888 58.7485C15.2936 58.4908 15.3137 58.2334 15.345 57.9768C15.3229 57.5382 15.4037 57.1387 15.5367 56.6934C15.5411 56.6784 15.5466 56.6628 15.5512 56.6478C15.8132 56.0399 16.269 55.6939 16.565 55.481C16.6633 55.4103 16.7486 55.3266 16.8216 55.2408C16.9984 55.0824 17.182 54.8761 17.3237 54.6156C17.6172 54.0762 17.4914 52.8912 16.9017 51.7347C17.5235 52.3372 18.0898 52.866 18.3583 53.0469L18.3404 51.5745C18.3404 51.5745 19.4823 52.3433 20.5044 52.924C20.9964 53.2135 21.6033 53.59 22.0343 53.7399C22.0655 53.7531 22.0935 53.6133 22.1278 53.8244H22.1275C22.1319 53.8244 22.1361 53.7826 22.1405 53.7843C22.7194 54.0031 23.3148 54.1768 23.8722 54.4198C23.9319 54.4458 23.9928 54.4583 24.0514 54.4856C24.3094 54.6053 24.7636 54.7382 25.1717 54.8831L25.5577 57.954C25.9056 54.7265 28.6355 51.636 28.6355 51.636L28.5356 51.6154C27.6909 51.4394 21.5103 49.9989 17.8587 44.8554C17.6183 44.5167 19.2148 45.2399 19.2148 45.2399C17.7159 42.7877 17.1448 38.8451 17.1448 38.8451C17.6444 39.1336 18.1442 39.1816 18.1442 39.1816C17.0736 37.1621 16.6454 34.6619 16.6454 32.4021C16.36 20.2376 23.0331 17.449 23.0331 17.449C21.8913 17.1605 20.6779 17.1845 20.6779 17.1845C21.9984 15.045 26.3873 12.0639 26.3873 12.0639C25.2097 12.1121 20.6063 12.9533 20.6063 12.9533C24.4247 6.24605 28.2788 4.4671 28.2788 4.4671C27.9934 6.07772 28.9213 7.78469 28.9213 7.78469C37.2002 0.884934 43.8519 1.20683 43.8519 1.20683C44.3452 0.514707 44.9056 0.0428467 44.9056 0.0428467C35.9842 0.0428467 30.9182 4.56188 30.9182 4.56188Z" fill="#C3B0E3"/>
<path d="M54.3199 57.9092C54.3199 57.9092 54.2394 56.1661 53.6508 55.2887C53.6508 55.2887 55.1853 55.9258 55.1765 57.9391C55.1765 57.9391 54.42 57.9112 54.3199 57.9092Z" fill="#C3B0E3"/>
<path d="M14.3959 48.9446C15.4067 42.2755 15.6818 29.2288 15.6818 29.2288C13.4872 32.1496 11.7209 37.4506 11.7209 37.4506L12.149 38.6045L11.1856 38.3161C9.63699 41.9367 10.6847 46.7833 11.0317 48.1487C12.0168 48.674 13.1901 48.8512 14.3959 48.9446Z" fill="#957EBA"/>
<path d="M12.3257 48.8004C12.6395 49.8678 12.9651 50.8958 13.3266 51.956C13.5944 51.9831 13.8955 51.9695 13.8955 51.9695C14.1411 51.3247 14.1818 50.3267 14.3728 49.0991C13.6691 49.0436 12.9787 48.9594 12.3257 48.8004Z" fill="#957EBA"/>
<path d="M45.8671 54.5475C45.8096 54.5587 45.7659 54.5413 45.7423 54.5149C45.6312 54.5295 45.5463 54.543 45.4891 54.553L45.4893 54.5527C46.9617 53.8309 47.0971 53.0675 47.0971 53.0675C46.1203 53.3642 45.0834 53.475 44.5789 53.514C47.9823 51.5267 48.5479 47.8363 48.5479 47.8363C47.1539 48.9891 45.1756 49.9633 43.6468 50.6172L43.6501 50.6128C43.6501 50.6128 42.6257 50.9986 41.6792 51.2991C41.6377 51.2949 41.596 51.3024 41.5648 51.335C41.0786 51.4868 40.6252 51.6106 40.3581 51.6406C40.3581 51.6406 41.1464 52.6212 41.4755 53.1499L41.411 53.1852C41.411 53.1852 42.5513 55.001 42.9664 56.76C43.0103 57.0572 43.0442 57.3176 43.0678 57.5166C43.0877 57.7739 43.1148 57.9512 43.1148 57.9512C44.6226 57.8009 46.7524 57.9473 46.7524 57.9473C46.7422 58.1128 46.8771 58.51 46.9019 58.582C47.6179 58.517 48.3403 58.4886 49.063 58.4843C49.0532 56.7795 48.942 53.9467 45.8671 54.5475Z" fill="#C3B0E3"/>
<path d="M14.3168 49.459C11.9524 49.1896 9.80664 47.3589 9.80664 47.3589C11.5307 48.594 13.6769 48.7593 13.6769 48.7593C13.9601 47.3489 12.2297 44.1207 12.2297 44.1207C13.5113 45.1959 14.2123 46.4396 14.5957 47.4575L14.3168 49.459Z" fill="#957EBA"/>
<path d="M19.683 46.9617C19.683 46.9617 21.5431 49.1704 23.1757 50.126C24.9376 51.1572 26.5747 52.6142 27.2706 53.4976C27.2706 53.4976 28.1538 52.1155 28.6355 51.6346C28.6355 51.6346 23.4166 50.6038 19.683 46.9617Z" fill="#957EBA"/>
<path d="M43.9617 51.2695C44.2204 51.0243 44.5166 50.7964 44.7989 50.5637C45.2618 50.1819 45.7907 49.8113 46.1794 49.3958C45.5086 49.7339 44.7616 50.0269 43.9981 50.3364C41.7818 51.3481 40.2378 51.6345 40.2378 51.6345C40.7195 52.1155 41.6028 53.4976 41.6028 53.4976C42.0239 52.9629 42.791 52.2182 43.7208 51.4847C43.7988 51.4117 43.8856 51.3418 43.9617 51.2695Z" fill="#957EBA"/>
<path d="M18.9774 14.0699C18.7745 14.0799 18.125 14.0909 18.125 14.0909C12.2407 14.3677 7.91533 11.2957 7.91533 11.2957C7.91533 11.2957 7.52869 13.6936 10.0849 15.7948C12.6419 17.8961 17.8232 18.2557 17.8232 18.2557C17.9916 18.7471 17.6269 19.8429 17.6269 19.8429C17.6269 19.8429 19.1419 18.7138 19.5267 16.5746C19.7967 15.0755 19.1031 14.0638 18.9774 14.0699Z" fill="#545352"/>
<path d="M18.9774 14.0699C18.7822 14.0774 18.1251 14.0909 18.1251 14.0909C12.2407 14.3677 7.91534 11.2957 7.91534 11.2957C7.91534 11.2957 10.6036 16.5368 19.5815 16.1226C19.5815 16.1226 19.8297 15.1532 18.9774 14.0699Z" fill="#6E7979"/>
<path d="M48.3571 14.0699C48.5598 14.0799 49.2093 14.0909 49.2093 14.0909C55.0938 14.3677 59.419 11.2957 59.419 11.2957C59.419 11.2957 59.8056 13.6936 57.2496 15.7948C54.6925 17.8961 49.5112 18.2557 49.5112 18.2557C49.3429 18.7471 49.7076 19.8429 49.7076 19.8429C49.7076 19.8429 48.1924 18.7138 47.8077 16.5746C47.5376 15.0755 48.2314 14.0638 48.3571 14.0699Z" fill="#545352"/>
<path d="M48.357 14.0699C48.5521 14.0774 49.2092 14.0909 49.2092 14.0909C55.0938 14.3677 59.419 11.2957 59.419 11.2957C59.419 11.2957 56.7307 16.5368 47.753 16.1226C47.753 16.1226 47.5046 15.1532 48.357 14.0699Z" fill="#6E7979"/>
<path d="M15.906 31.8251C15.906 31.8251 11.6762 42.0664 15.906 48.6295V31.8251Z" fill="#C3B0E3"/>
<path d="M58.0224 48.0251C55.9347 49.0983 53.7627 49.1663 53.7627 49.1663C53.6659 47.7642 55.941 44.6989 55.941 44.6989C55.4232 44.9048 55.0072 45.1538 54.6649 45.4271L54.65 44.3984L56.2914 43.485L54.9713 42.7637L56.6483 38.22L55.0426 38.9412C55.0426 38.9412 54.5431 32.4745 54.8998 29.6858C54.8998 29.6858 52.8658 28.3153 51.8666 27.7625C51.8666 27.7625 52.0554 29.7535 52.2708 32.9349C53.1824 35.4869 54.5981 40.7682 52.837 45.413C52.8573 46.3546 52.8724 47.3107 52.8805 48.276C52.8805 48.276 53.7581 50.3303 54.0434 51.7727C54.0434 51.7727 54.3288 51.8268 54.7571 51.7788L54.7249 49.5698C56.93 49.1211 58.0224 48.0251 58.0224 48.0251Z" fill="#C3B0E3"/>
<path d="M38.2346 28.1944C38.2346 29.2867 39.2729 30.1722 40.5543 30.1722C41.8354 30.1722 42.874 29.2867 42.874 28.1944C42.874 27.1019 41.8354 26.2164 40.5543 26.2164C39.2729 26.2164 38.2346 27.1019 38.2346 28.1944Z" fill="#C3B0E3"/>
<path d="M38.3062 27.6662C38.3062 28.7416 39.3286 29.6134 40.5901 29.6134C41.8515 29.6134 42.874 28.7416 42.874 27.6662C42.874 26.5906 41.8515 25.7189 40.5901 25.7189C39.3286 25.7189 38.3062 26.5906 38.3062 27.6662Z" fill="white"/>
<path d="M39.9837 26.6621C39.9655 26.7099 39.953 26.7597 39.953 26.8126C39.953 27.0869 40.2184 27.309 40.5455 27.309C40.8362 27.309 41.077 27.1333 41.1271 26.9019C41.3137 27.0667 41.4287 27.2887 41.4287 27.5339C41.4287 28.0418 40.9374 28.4534 40.3315 28.4534C39.7255 28.4534 39.2341 28.0418 39.2341 27.5339C39.2341 27.1278 39.5482 26.7841 39.9837 26.6621Z" fill="#474746"/>
<path d="M27.1008 28.1944C27.1008 29.2867 28.1393 30.1722 29.4206 30.1722C30.7016 30.1722 31.7402 29.2867 31.7402 28.1944C31.7402 27.1019 30.7016 26.2164 29.4206 26.2164C28.1393 26.2164 27.1008 27.1019 27.1008 28.1944Z" fill="#C3B0E3"/>
<path d="M27.1724 27.6662C27.1724 28.7416 28.1949 29.6134 29.4563 29.6134C30.7177 29.6134 31.7402 28.7416 31.7402 27.6662C31.7402 26.5906 30.7177 25.7189 29.4563 25.7189C28.1949 25.7189 27.1724 26.5906 27.1724 27.6662Z" fill="white"/>
<path d="M29.2782 26.6621C29.26 26.7099 29.2475 26.7597 29.2475 26.8126C29.2475 27.0869 29.5127 27.309 29.8399 27.309C30.1305 27.309 30.3715 27.1333 30.4216 26.9019C30.6082 27.0667 30.7232 27.2887 30.7232 27.5339C30.7232 28.0418 30.2318 28.4534 29.6258 28.4534C29.0198 28.4534 28.5286 28.0418 28.5286 27.5339C28.5286 27.1278 28.8427 26.7841 29.2782 26.6621Z" fill="#474746"/>
<path d="M46.5924 29.7463C46.4469 30.0413 45.9526 30.1198 44.5444 30.3032L44.4486 30.3156C43.0689 30.4941 40.6021 30.4708 39.2511 30.3378C39.1928 30.3322 39.1366 30.3264 39.083 30.3204C37.8309 30.1777 37.6883 30.0685 37.2855 29.6312C36.8696 29.1787 36.6139 27.85 36.5668 27.5879L36.5644 27.5747C36.5145 27.2978 36.4897 27.1591 37.0178 26.9998C37.7281 26.7853 40.8807 26.4856 42.1725 26.4464C43.1923 26.4161 45.3542 26.5117 46.3427 26.609C46.4976 26.6244 46.6125 26.6385 46.6834 26.6511C46.7972 26.6715 47.2159 26.8087 47.1946 27.1087C47.1669 27.504 46.7892 29.3473 46.5924 29.7463ZM32.8429 27.5747L32.8404 27.5879C32.7934 27.85 32.5377 29.1787 32.1218 29.6312C31.719 30.0685 31.5764 30.1777 30.3241 30.3204C30.2707 30.3264 30.2145 30.3322 30.156 30.3378C28.8052 30.4708 26.3384 30.4941 24.9586 30.3156L24.8629 30.3032C23.4547 30.1198 22.9604 30.0413 22.8149 29.7463C22.6181 29.3473 22.2404 27.504 22.2127 27.1087C22.1912 26.8087 22.6101 26.6715 22.7239 26.6511C22.7947 26.6385 22.9095 26.6244 23.0644 26.609C24.0531 26.5117 26.2148 26.4161 27.2348 26.4464C28.5266 26.4856 31.6791 26.7853 32.3893 26.9998C32.9176 27.1591 32.8928 27.2978 32.8429 27.5747ZM48.4007 25.8195C47.3663 25.7177 45.561 25.6022 43.3939 25.6767C40.5739 25.7744 38.1576 26.0382 36.7142 26.1956C36.2834 26.2427 35.9449 26.2799 35.6865 26.3029L35.4047 26.3286C35.0881 26.358 34.8805 26.3765 34.7037 26.3824C34.5268 26.3765 34.3191 26.358 34.0026 26.3286L33.7206 26.3029C33.4624 26.2799 33.1239 26.2427 32.6929 26.1956C31.2497 26.0382 28.8334 25.7744 26.0134 25.6767C23.8463 25.6022 22.041 25.7177 21.0066 25.8195C21.0066 25.8195 19.9028 25.9142 18.9587 26.1832L19.1387 26.9915C19.1387 26.9915 20.1362 26.8315 21.1104 26.7439C21.2915 27.8837 21.6439 29.3484 21.6439 29.3484L21.6495 29.3938C21.6763 29.4676 21.7012 29.5393 21.7281 29.6175C21.9288 30.1934 22.1281 30.532 22.9299 30.735C23.7172 30.9353 25.5804 31.1208 27.4593 31.186C28.158 31.2104 28.951 31.1814 29.7531 31.1027C30.9426 30.9857 32.0185 30.77 32.4296 30.5652C33.0277 30.2674 33.3476 29.518 33.5594 29.0222L33.6229 28.876C33.6977 28.7069 33.7628 28.5294 33.8256 28.3572C33.916 28.11 34.0092 27.8545 34.0889 27.7663C34.1033 27.7509 34.1704 27.6976 34.4318 27.6717C34.5127 27.6639 34.6037 27.6597 34.7037 27.6588C34.8036 27.6597 34.8945 27.6639 34.9755 27.6717C35.2368 27.6976 35.304 27.7509 35.3184 27.7663C35.398 27.8545 35.4913 28.11 35.5816 28.3572C35.6445 28.5294 35.7096 28.7069 35.7844 28.876L35.8477 29.0222C36.0595 29.518 36.3796 30.2674 36.9777 30.5652C37.3888 30.77 38.4645 30.9857 39.654 31.1027C40.4561 31.1814 41.2493 31.2104 41.9478 31.186C43.8269 31.1208 45.6899 30.9353 46.4774 30.735C47.2791 30.532 47.4783 30.1934 47.6792 29.6175C47.7061 29.5393 47.731 29.4676 47.7576 29.3938L47.7633 29.3484C47.7633 29.3484 48.1156 27.8837 48.2967 26.7439C49.2711 26.8315 50.2686 26.9915 50.2686 26.9915L50.4486 26.1832C49.5045 25.9142 48.4007 25.8195 48.4007 25.8195Z" fill="#545352"/>
<path d="M30.1365 23.7726C30.1365 23.7726 27.5565 22.9437 26.0798 24.4829C26.0798 24.4829 25.9274 22.9522 28.0109 22.7813C30.0946 22.61 30.1365 23.7726 30.1365 23.7726Z" fill="#957EBA"/>
<path d="M29.1688 21.5235C29.1688 21.5235 26.7771 20.7631 25.6874 22.2245C25.6874 22.2245 25.3315 20.9477 27.0382 20.6395C28.7452 20.3313 29.1688 21.5235 29.1688 21.5235Z" fill="#957EBA"/>
<path d="M39.3784 24.711C39.3784 24.711 41.382 24.0672 42.5289 25.2628C42.5289 25.2628 42.6473 24.0741 41.0292 23.9411C39.4108 23.8081 39.3784 24.711 39.3784 24.711Z" fill="#957EBA"/>
<path d="M40.8032 22.582C40.8032 22.582 42.8306 22.3609 43.1778 23.6093C43.1778 23.6093 43.8508 22.708 42.6754 22.2308C41.4998 21.7535 40.8032 22.582 40.8032 22.582Z" fill="#957EBA"/>
<path d="M29.9571 35.8982C29.9571 35.8982 31.3727 35.2572 32.2083 35.169C32.2083 35.169 32.3906 36.3784 33.2209 36.9743C33.2209 36.9743 35.0129 35.8861 36.785 35.8088C36.785 35.8088 37.2425 36.472 37.9852 36.7179L37.981 36.7256C38.249 36.8383 38.5774 36.9523 38.8954 36.9999C38.8954 36.9999 39.9124 36.5852 40.2068 35.8279C40.2068 35.8279 40.3047 37.4267 38.815 38.2981C38.815 38.2981 37.6791 37.9246 36.8607 37.3268C36.6149 37.1656 36.3594 36.978 36.2353 36.8255C36.2353 36.8255 33.6072 38.0781 33.5112 38.7923C33.5112 38.7923 31.6141 37.5463 30.9672 36.5862C30.9672 36.5862 29.7011 36.8554 29.3499 37.0289C29.3499 37.0289 28.3322 35.9077 28.1256 34.8959C28.1256 34.8959 29.3494 35.6833 29.9571 35.8982Z" fill="#957EBA"/>
<path d="M34.7342 32.7559C34.6293 32.7408 37.3999 32.885 40.1204 32.8199C40.1204 32.8199 40.2658 32.4703 40.4745 32.2782C40.4745 32.2782 40.429 32.8667 40.6734 32.9871C40.6734 32.9871 39.3121 33.3481 37.9391 33.3455C37.9391 33.3455 39.4352 33.1773 39.937 33.0034C39.937 33.0034 37.2069 33.1057 34.7342 32.7559Z" fill="#545352"/>
</g>
<defs>
<filter id="filter0_d_129_2142" x="0" y="0" width="68" height="68" filterUnits="userSpaceOnUse" color-interpolation-filters="sRGB">
<feFlood flood-opacity="0" result="BackgroundImageFix"/>
<feColorMatrix in="SourceAlpha" type="matrix" values="0 0 0 0 0 0 0 0 0 0 0 0 0 0 0 0 0 0 127 0" result="hardAlpha"/>
<feOffset dy="4"/>
<feGaussianBlur stdDeviation="2"/>
<feComposite in2="hardAlpha" operator="out"/>
<feColorMatrix type="matrix" values="0 0 0 0 0 0 0 0 0 0 0 0 0 0 0 0 0 0 0.25 0"/>
<feBlend mode="normal" in2="BackgroundImageFix" result="effect1_dropShadow_129_2142"/>
<feBlend mode="normal" in="SourceGraphic" in2="effect1_dropShadow_129_2142" result="shape"/>
</filter>
<clipPath id="clip0_129_2142">
<rect width="60" height="60" fill="white" transform="translate(4)"/>
</clipPath>
</defs>
</svg>
