<svg width="60" height="60" viewBox="0 0 60 60" fill="none" xmlns="http://www.w3.org/2000/svg">
<path d="M10.6914 14.5418C10.6914 14.5418 11.716 18.4938 11.8621 19.8114C12.0088 21.1286 9.22754 24.0559 9.22754 25.5198C9.22754 26.9836 9.81229 29.6182 13.0329 30.9358C16.2535 32.2532 16.6921 35.6195 16.6921 37.6692C16.6921 39.7183 15.5214 43.6699 15.5214 43.6699C15.5214 43.6699 14.7898 53.4768 18.7415 55.2332C22.6931 56.9894 21.8152 56.9894 22.6931 56.9894C23.5711 56.9894 30.0118 59.6247 33.8171 58.6C37.6228 57.5754 38.6468 56.4046 38.6468 56.4046C38.6468 56.4046 42.4528 56.697 43.6236 53.3301C44.795 49.964 45.5264 42.9384 45.0872 39.7179C44.6481 36.4973 44.0628 32.2533 46.6972 30.7893C49.3325 29.3255 52.1132 27.5696 51.674 26.1056C51.2348 24.6417 48.8935 22.5924 48.8935 22.5924C48.8935 22.5924 48.3078 18.9335 48.7467 18.0552C49.1855 17.177 51.8205 14.9808 50.3566 13.3711C48.8937 11.7611 46.2582 11.7611 46.2582 11.7611L42.892 12.0535C42.892 12.0535 37.1836 6.93078 29.7187 7.22351C22.2541 7.51624 17.5698 12.0535 17.5698 12.0535C17.5698 12.0535 15.0818 11.1753 12.8861 12.0535C10.6903 12.9321 10.2526 12.0533 10.6914 14.5418Z" fill="#957EBA"/>
<path d="M24.0658 36.3347C24.0658 36.3347 21.1673 40.7668 19.0411 43.912C18.7122 44.3985 21.1673 44.4323 21.1673 44.4323L24.0658 36.3347Z" fill="#957EBA"/>
<path d="M25.4459 27.1459C25.4459 27.1459 24.5722 29.3258 24.0935 30.4814C23.574 31.7377 21.5931 32.3626 21.5931 32.3626C21.5931 32.3626 22.6199 31.2856 22.6199 28.5573C22.6199 27.4126 24.0977 26.9575 24.0977 26.9575L25.4459 27.1459Z" fill="#957EBA"/>
<path d="M24.5632 28.3785C24.5632 28.3785 22.7731 30.5095 19.4493 29.316C16.1247 28.1229 15.7839 23.8605 15.7839 22.6671C15.7839 21.4737 22.0917 23.8605 22.9444 24.3721C23.797 24.8836 25.4155 26.9292 24.5632 28.3785Z" fill="#957EBA"/>
<path d="M12.0075 5.60802C12.0075 5.60802 15.0759 5.01094 17.1215 6.63071C19.1679 8.25012 19.7638 9.5291 19.7638 9.5291L16.3158 12.2623C16.3158 12.2623 14.6498 11.4898 14.1383 9.27334C13.6269 7.05704 13.9679 6.03435 12.0075 5.60802Z" fill="#957EBA"/>
<path d="M23.6683 22.2232C22.3471 20.3479 20.1699 19.5299 18.4316 19.3943C15.4675 19.1625 14.0602 20.2104 14.0602 20.2104C14.0602 20.2104 18.9147 20.4159 20.3139 22.2536C22.9187 25.6739 26.7187 25.9518 27.3263 25.2006C26.6236 25.2356 25.8506 24.8875 25.0234 24.1052C24.5065 23.6158 24.0875 22.8185 23.6683 22.2232Z" fill="#957EBA"/>
<path d="M15.4733 28.8543C15.4733 28.8543 10.0872 27.0027 11.1109 25.1277C12.1336 23.2521 11.3195 22.2303 11.3195 22.2303C11.3195 22.2303 8.312 24.4754 9.07839 26.8619C9.54937 28.3268 10.3395 29.3874 14.6784 31.4208C16.7595 35.2863 15.1081 42.2442 15.207 42.2769C15.3719 42.3318 18.129 40.9142 17.9408 34.4046C17.8834 32.4056 17.7236 29.6767 15.4733 28.8543Z" fill="#957EBA"/>
<path d="M22.5314 8.94348C20.273 10.0908 17.179 11.6886 17.179 11.6886L18.3967 12.2979C18.2805 12.4861 18.2244 12.5984 18.2244 12.5984L19.4743 13.1668C19.4743 13.1668 22.5254 15.377 24.3948 16.798C23.7715 14.8787 21.9419 11.8635 21.9419 11.8635C21.9419 11.8635 21.4234 10.4781 22.5314 8.94348Z" fill="#957EBA"/>
<path d="M30.0341 55.7129C23.0925 55.7129 20.7411 52.1888 20.7411 52.1888L21.826 54.8306C22.2361 55.9735 26.6105 59.5298 30.0236 59.5298" fill="#957EBA"/>
<path d="M21.5018 49.8076C21.5018 49.8076 22.1405 53.7108 24.6978 53.7108C26.8709 53.7108 27.5112 50.4138 27.5112 49.7324L21.5018 49.8076Z" fill="#957EBA"/>
<path d="M17.2462 43.921C17.4734 43.2955 18.2689 40.7668 18.5245 38.4655C18.8308 35.7093 18.7191 31.678 18.7191 31.678C18.7191 31.678 18.0369 34.3204 17.4401 34.7475C16.8438 35.1734 15.7354 38.0713 15.7354 38.0713C15.7354 38.0713 15.1417 42.3857 14.8591 43.8358C15.6411 43.9924 16.2994 43.5316 17.2462 43.921Z" fill="#957EBA"/>
<path d="M11.0707 26.8196C11.0707 26.8196 12.5194 26.3077 12.9461 23.1543C13.3721 20.0001 12.4342 17.2725 12.4342 17.2725C12.4342 17.2725 12.5194 21.6197 12.0082 22.4724C11.4964 23.3245 11.0707 23.5802 10.4737 24.6887C9.8766 25.7973 10.7293 26.4785 11.0707 26.8196Z" fill="#957EBA"/>
<path d="M12.8005 6.35398L12.5048 6.16663C11.6326 6.1961 12.8005 6.35398 12.8005 6.35398Z" fill="#957EBA"/>
<path d="M23.7106 8.0097C23.7106 8.0097 22.3471 7.78252 21.6648 6.75983C20.9826 5.73678 19.0508 3.69068 15.9711 3.66782C12.8916 3.64478 9.84479 4.48637 9.84479 4.48637L12.5044 6.16686C12.7857 6.15775 13.2776 6.1615 14.0909 6.18865C17.4287 6.29956 17.9425 9.60107 17.9425 9.60107L29.7058 7.9813" fill="#957EBA"/>
<path d="M24.8474 26.2445C24.8474 26.2445 23.256 27.8359 20.8122 27.324C18.3683 26.8128 16.8906 25.733 16.777 23.8575C16.6634 21.9821 17.2889 21.2434 17.2889 21.2434C17.2889 21.2434 20.0163 22.0964 21.3241 23.2331C22.6311 24.3693 23.597 26.1879 24.8474 26.2445Z" fill="white"/>
<path d="M22.9215 25.676C22.9215 25.676 21.5415 26.3064 19.9988 25.793C17.9795 25.1194 17.8451 23.0194 17.8451 23.0194C17.8451 23.0194 16.6063 26.6547 20.0794 27.3545C22.8651 27.9157 24.5125 26.3014 24.5125 26.3014L22.9215 25.676Z" fill="#C9C9C9"/>
<path d="M23.9023 7.23849C23.7538 4.12077 26.3097 1.63763 27.1952 1.53189C27.2441 2.0602 27.1459 4.12094 28.0312 4.75463C28.289 3.07146 29.1606 1.21576 32.6023 0C31.8652 1.95501 32.5039 3.59263 32.808 4.3517C35.1583 2.21845 36.7418 2.57101 36.7418 2.57101C36.7418 2.57101 35.1088 5.38886 35.7475 7.23777C31.0295 6.86788 23.9253 7.73912 23.9023 7.23849Z" fill="#463014"/>
<path d="M13.9 11.9874C12.7743 11.0535 13.6134 10.1867 13.5244 9.12564C13.476 8.56107 13.4314 8.02829 13.2453 7.73449C12.2094 6.09865 9.76552 5.6023 9.74105 5.59713L8.59406 5.37244L9.3533 4.48424C9.45171 4.36922 12.5698 1.3942 17.395 2.95199C20.7702 4.04059 23.2689 7.73199 23.362 7.88112L21.6695 8.67698C21.6497 8.64555 19.6743 5.1758 16.7786 4.24205C14.4378 3.48673 12.2805 4.20526 11.3564 4.67624C12.3387 5.06846 13.623 5.7827 14.3969 7.00453C14.762 7.5816 14.8236 8.30817 14.8831 9.01169C14.9615 9.94311 15.0349 10.8224 15.7204 11.3918L13.9 11.9874Z" fill="#463014"/>
<path d="M10.8934 25.6209C10.8934 25.6209 12.3117 23.8622 12.7317 20.4399C12.8968 19.092 12.6037 16.4333 12.1347 15.4104C12.2199 17.925 11.5806 20.4399 11.5806 20.4399C11.5806 20.4399 11.1497 25.1093 10.8934 25.6209Z" fill="#463014"/>
<path d="M18.3721 10.2112C18.3714 10.2075 17.917 8.22193 16.6573 7.2196C14.8804 5.80612 12.7107 6.55805 12.6898 6.56465L12.3748 5.59144C12.4798 5.55732 14.9597 4.77593 17.2451 6.38248C19.5443 7.99814 19.8202 9.46269 19.8442 9.62451L18.3721 10.2112Z" fill="#463014"/>
<path d="M15.348 24.3596C15.348 24.3596 14.6039 23.2944 14.7377 22.1229C14.8043 21.5444 15.0724 20.9505 15.5511 20.7398C16.4405 20.349 16.8347 21.3572 16.8347 21.3572C16.8347 21.3572 15.5829 21.6662 15.348 24.3596Z" fill="#463014"/>
<path d="M23.5179 25.9831C23.549 26.0411 23.5648 26.0736 23.5648 26.0736C23.5648 26.0736 21.2441 27.8154 18.8656 26.0479C17.5925 25.1009 17.7127 22.7585 18.1028 21.7651C19.1171 21.995 19.9774 22.4094 20.6965 22.8932C19.7877 22.0821 18.9922 21.4851 18.9944 21.4713L17.9615 21.1789L15.954 20.4906C15.9282 20.6437 15.196 24.0759 17.3096 26.4146C18.2464 27.4515 22.6382 29.7738 24.7235 25.803L23.5179 25.9831Z" fill="#463014"/>
<path d="M23.3005 26.2383C24.6072 28.2271 27.9041 27.0906 27.8473 24.9881C27.8473 24.9881 25.6444 26.2038 23.6981 23.9654C22.5618 22.6585 18.9208 19.0552 13.9831 20.2527C17.393 21.0025 21.9072 24.1179 23.3005 26.2383Z" fill="#463014"/>
<path d="M13.5217 31.8511C13.8361 32.0327 14.9447 33.1808 14.9454 34.8979C14.9454 35.759 14.8597 40.0846 14.4335 42.7272C15.0745 43.1437 15.521 43.2323 16.1594 43.6569C16.4789 40.5963 16.7081 36.1605 16.6012 34.3698C16.4791 32.3285 15.3862 30.9586 14.3726 30.3744C14.0552 30.1919 13.7236 30.0124 13.3896 29.8318C11.6535 28.8938 9.85839 27.9234 9.85839 26.2665C9.85839 24.9703 10.3622 24.5649 10.8957 24.1352L10.9532 24.0886C11.3072 23.8026 11.7078 23.4783 11.9452 22.9457C12.5928 21.4895 12.6987 17.7803 11.9452 16.8387C11.5696 16.3695 10.5632 14.7917 10.8525 13.7315C10.9627 13.3268 11.2176 13.0269 11.6325 12.8143C12.0715 12.5895 12.6646 12.4755 13.3948 12.4755C14.829 12.4755 16.4196 12.912 17.2403 13.1719C20.1728 14.1014 23.7113 16.7811 24.7256 17.5804C24.7547 17.6027 24.7719 17.6158 24.7749 17.6179L25.424 18.0692L25.018 17.39C24.993 17.3477 22.4222 13.1205 17.8254 11.5705C16.9311 11.269 15.1742 10.7631 13.4476 10.7631C12.4196 10.7631 11.5473 10.9426 10.8566 11.2962C10.0148 11.7268 9.44474 12.4139 9.20791 13.2825C8.62744 15.4116 10.518 17.7822 10.5825 17.858C10.8028 18.2514 10.8963 21.1096 10.3871 22.2536C10.317 22.4115 10.125 22.5667 9.88196 22.7628C9.80588 22.8244 9.72068 22.8884 9.63049 22.9568C8.91214 23.499 7.82587 24.3183 7.82587 26.2066C7.82587 28.7905 10.4446 30.1915 12.5491 31.318C12.8943 31.5037 13.2238 31.6795 13.5217 31.8511Z" fill="#463014"/>
<path d="M13.9 11.9874C12.7743 11.0535 13.6134 10.1867 13.5244 9.12564C13.476 8.56107 13.4314 8.02829 13.2453 7.73449C12.2094 6.09865 9.76552 5.6023 9.74105 5.59713L8.59406 5.37244L9.3533 4.48424C9.45171 4.36922 12.5698 1.3942 17.395 2.95199C20.7702 4.04059 23.2689 7.73199 23.362 7.88112L21.6695 8.67698C21.6497 8.64555 19.6743 5.1758 16.7786 4.24205C14.4378 3.48673 12.2805 4.20526 11.3564 4.67624C12.3387 5.06846 13.623 5.7827 14.3969 7.00453C14.762 7.5816 14.8236 8.30817 14.8831 9.01169C14.9615 9.94311 15.0349 10.8224 15.7204 11.3918L13.9 11.9874Z" fill="#463014"/>
<path d="M13.8634 12.1787L13.7907 12.1185C12.9559 11.4257 13.104 10.7432 13.2474 10.0829C13.3126 9.77822 13.3814 9.46316 13.3535 9.14006C13.308 8.59675 13.2642 8.08415 13.1006 7.82536C12.1142 6.26792 9.73033 5.7689 9.70676 5.76408L8.27417 5.48313L9.22381 4.37293C9.24114 4.35221 11.2431 2.3313 14.6337 2.3313C15.558 2.3313 16.505 2.48508 17.4471 2.78942C20.9699 3.92535 23.4831 7.75266 23.5068 7.79053L23.6084 7.95306L21.6065 8.89466L21.5261 8.76714C21.3107 8.39993 19.4125 5.26952 16.7272 4.40329C16.0676 4.19039 15.3728 4.08287 14.6625 4.08287C13.376 4.08287 12.3328 4.43348 11.7777 4.66888C12.7054 5.08663 13.8304 5.7898 14.5423 6.91251C14.9293 7.52405 14.992 8.27151 15.0535 8.99361C15.1288 9.89163 15.2001 10.7361 15.83 11.259L16.0678 11.4562L13.8634 12.1787Z" fill="#463014"/>
<path d="M18.3721 10.2112C18.3714 10.2075 17.917 8.22193 16.6573 7.2196C14.8804 5.80612 12.7107 6.55805 12.6898 6.56465L12.3748 5.59144C12.4798 5.55732 14.9597 4.77593 17.2451 6.38248C19.5443 7.99814 19.8202 9.46269 19.8442 9.62451L18.3721 10.2112Z" fill="#463014"/>
<path d="M18.25 10.4434L18.2057 10.248C18.201 10.2289 17.7554 8.31121 16.5507 7.35336C15.8642 6.80665 15.0362 6.5291 14.0912 6.5291C13.3535 6.5291 12.8054 6.7052 12.7456 6.72592L12.5827 6.78004L12.1601 5.48176L12.3221 5.42943C12.3948 5.40639 13.0529 5.20117 13.984 5.20117C15.2123 5.20117 16.3736 5.5616 17.3437 6.24279C19.7004 7.89899 19.9882 9.43053 20.0128 9.59949L20.0335 9.73309L18.25 10.4434ZM14.0913 6.18868C15.1008 6.18868 16.0255 6.49909 16.7635 7.08599C17.8331 7.93793 18.3362 9.44196 18.4884 9.98117L19.6479 9.51912C19.5429 9.10976 19.0807 7.88113 17.1475 6.52213C16.2225 5.87201 15.1585 5.54266 13.9842 5.54266C13.3398 5.54266 12.8392 5.64518 12.5918 5.70769L12.8009 6.35406C13.0435 6.28887 13.5102 6.18868 14.0913 6.18868Z" fill="#463014"/>
<path d="M24.591 52.7745C24.0873 52.7745 23.5733 52.5918 23.217 52.2833C22.9442 52.0483 22.0219 51.2011 21.6152 50.1633C21.4634 49.7752 21.4975 49.4647 21.7178 49.2413C21.8696 49.0882 22.1846 48.9052 22.8242 48.9052L23.2793 48.9045C23.8215 48.9039 24.7346 48.9039 25.5149 48.9039H26.2631C26.7496 48.9039 27.0984 49.0091 27.299 49.2142C27.5565 49.4789 27.474 49.8155 27.402 49.9927C27.2766 50.3031 26.7578 51.3133 25.8794 52.2524C25.5649 52.5889 25.1071 52.7745 24.591 52.7745Z" fill="#463014"/>
<path d="M25.1189 26.3553L23.3004 26.2383C23.3004 26.2383 23.7653 27.0577 24.0664 28.1176C24.4065 29.3164 23.7554 31.0683 23.7554 31.0683C23.7554 31.0683 26.1802 28.3231 25.1189 26.3553Z" fill="#463014"/>
<path d="M22.8488 57.5763C16.3764 57.0789 14.0992 50.9629 14.0992 49.6891L15.7895 49.6898L14.9443 49.6891H15.7895C15.7979 50.2397 17.518 55.4714 22.9783 55.8913L22.8488 57.5763Z" fill="#463014"/>
<path d="M21.0299 46.6187C20.9288 46.0341 20.9183 45.4797 21.0417 44.935C20.5498 44.5653 19.6672 44.4279 19.0049 44.2132C18.4634 43.8705 15.6922 44.5645 13.6816 42.1314C11.1626 39.0846 11.6927 37.2655 11.6927 37.2655C11.0468 37.9831 10.4208 37.7097 9.43635 41.0557C8.45045 44.4024 9.89911 46.7355 12.5991 49.0777C13.8747 50.1842 15.6779 50.64 17.2289 50.8145C16.7093 50.2927 18.1164 50.2406 19.0862 49.8777C19.0088 49.0947 19.1383 48.3345 19.7222 47.7224C20.0742 47.3535 20.5272 47.1329 20.9971 46.9571C21.0233 46.8964 21.0455 46.8403 21.0705 46.7821C21.0549 46.7289 21.0398 46.6751 21.0299 46.6187Z" fill="white"/>
<path d="M19.0732 49.8573C19.0171 49.693 18.9748 49.5254 18.9331 49.3568C18.8883 49.1727 18.6651 48.651 18.9403 49.2466C18.8696 49.0941 18.8233 48.9369 18.7892 48.7785C14.4166 48.773 10.6125 45.7708 11.3474 39.4591C10.775 38.6991 9.97344 40.9915 9.97344 40.9915C9.97344 40.9915 7.78446 47.3477 13.438 49.8112C15.3218 50.6328 16.9865 51.2216 17.3793 50.9839C18.1975 51.1502 18.936 50.5797 19.213 50.2047C19.161 50.0895 19.1137 49.9741 19.0732 49.8573Z" fill="#C9C9C9"/>
<path d="M20.9512 45.7035C20.9579 45.1707 21.0667 44.6547 21.3243 44.1405C21.3423 44.1052 21.3632 44.0712 21.3825 44.0368C19.6999 44.0223 17.762 43.8612 16.1119 43.2007C14.2981 42.4752 12.0293 39.9932 11.6394 37.0769C11.6394 37.0769 8.22361 39.7128 9.22737 45.3545C10.1695 50.6523 14.6027 52.3794 19.6586 52.6716C19.6613 52.6373 19.0899 51.4571 19.2705 50.7346C16.3996 50.9432 13.1892 49.8341 11.6394 47.284C10.2206 44.95 10.6185 40.9651 11.2017 40.3813C12.6241 44.8694 17.7422 45.7817 20.9512 45.7035Z" fill="#463014"/>
<path d="M21.4809 42.4904C20.5711 45.1604 18.7127 47.3211 18.7127 47.3211C18.7127 47.3211 21.2691 47.2049 21.4102 46.7524C21.5147 46.419 23.7185 41.26 24.5643 35.2166C23.7686 36.5238 21.5588 42.2618 21.4809 42.4904Z" fill="#463014"/>
<path d="M35.9641 36.3347C35.9641 36.3347 38.862 40.7668 40.9888 43.912C41.3178 44.3985 38.862 44.4323 38.862 44.4323L35.9641 36.3347Z" fill="#957EBA"/>
<path d="M34.5837 27.1459C34.5837 27.1459 35.4576 29.3258 35.9355 30.4814C36.4551 31.7377 38.4358 32.3626 38.4358 32.3626C38.4358 32.3626 37.4092 31.2856 37.4092 28.5573C37.4092 27.4126 35.9316 26.9575 35.9316 26.9575L34.5837 27.1459Z" fill="#957EBA"/>
<path d="M35.4662 28.3785C35.4662 28.3785 37.2563 30.5095 40.581 29.316C43.9058 28.1226 44.2464 23.8605 44.2464 22.6671C44.2464 21.4737 37.9386 23.8605 37.0859 24.3721C36.2333 24.8836 34.614 26.9292 35.4662 28.3785Z" fill="#957EBA"/>
<path d="M48.0223 5.60802C48.0223 5.60802 44.9539 5.01094 42.9076 6.63071C40.862 8.25012 40.2651 9.5291 40.2651 9.5291L43.7133 12.2621C43.7133 12.2621 45.38 11.4896 45.8915 9.27316C46.4027 7.05704 46.0619 6.03435 48.0223 5.60802Z" fill="#957EBA"/>
<path d="M36.3615 22.2232C37.6826 20.3479 39.8591 19.5299 41.5982 19.3943C44.5625 19.1625 45.969 20.2104 45.969 20.2104C45.969 20.2104 41.1145 20.4159 39.7152 22.2536C37.1102 25.6739 33.3115 25.9518 32.7039 25.2006C33.4063 25.2356 34.1797 24.8875 35.0064 24.1052C35.5231 23.6158 35.9423 22.8185 36.3615 22.2232Z" fill="#957EBA"/>
<path d="M44.5565 28.8543C44.5565 28.8543 49.9419 27.0027 48.9191 25.1277C47.8964 23.2521 48.7097 22.2303 48.7097 22.2303C48.7097 22.2303 51.718 24.4754 50.9509 26.8619C50.4799 28.3268 49.6898 29.3874 45.3509 31.4208C43.2698 35.2863 44.9212 42.2442 44.8228 42.2769C44.6577 42.3318 41.901 40.9142 42.0892 34.4046C42.1464 32.4056 42.3062 29.6767 44.5565 28.8543Z" fill="#957EBA"/>
<path d="M37.4985 8.94348C39.7563 10.0908 42.8508 11.6886 42.8508 11.6886L41.6332 12.2979C41.7495 12.4861 41.8057 12.5984 41.8057 12.5984L40.5559 13.1668C40.5559 13.1668 37.5046 15.377 35.6351 16.798C36.2577 14.8787 38.0874 11.8635 38.0874 11.8635C38.0874 11.8635 38.6068 10.4781 37.4985 8.94348Z" fill="#957EBA"/>
<path d="M29.996 55.7129C36.9366 55.7129 39.2879 52.1888 39.2879 52.1888L38.2038 54.8306C37.7937 55.9735 33.419 59.5298 30.0066 59.5298" fill="#957EBA"/>
<path d="M38.528 49.8076C38.528 49.8076 37.8886 53.7108 35.3321 53.7108C33.1593 53.7108 32.5189 50.4138 32.5189 49.7324L38.528 49.8076Z" fill="#957EBA"/>
<path d="M42.7836 43.921C42.5564 43.2955 41.7609 40.7668 41.5046 38.4655C41.1983 35.7093 41.3106 31.678 41.3106 31.678C41.3106 31.678 41.9927 34.3204 42.5887 34.7475C43.186 35.1734 44.2937 38.0713 44.2937 38.0713C44.2937 38.0713 44.8874 42.3857 45.1699 43.8358C44.3882 43.9924 43.7306 43.5316 42.7836 43.921Z" fill="#957EBA"/>
<path d="M48.9596 26.8196C48.9596 26.8196 47.5102 26.3077 47.0842 23.1543C46.6583 20.0001 47.5959 17.2725 47.5959 17.2725C47.5959 17.2725 47.5102 21.6197 48.0219 22.4724C48.5338 23.3248 48.9596 23.5802 49.5565 24.6887C50.1527 25.7971 49.3004 26.4785 48.9596 26.8196Z" fill="#957EBA"/>
<path d="M47.2291 6.35398L47.5254 6.16663C48.3977 6.1961 47.2291 6.35398 47.2291 6.35398Z" fill="#957EBA"/>
<path d="M36.3187 8.0097C36.3187 8.0097 37.6828 7.78252 38.3644 6.75983C39.0465 5.73678 40.979 3.69068 44.0589 3.66782C47.1384 3.64478 50.1852 4.48637 50.1852 4.48637L47.5254 6.16686C47.2441 6.15775 46.7522 6.1615 45.9381 6.18865C42.6009 6.29956 42.0871 9.60107 42.0871 9.60107L30.3242 7.9813" fill="#957EBA"/>
<path d="M35.1824 26.2445C35.1824 26.2445 36.7737 27.8359 39.2171 27.324C41.6611 26.8128 43.1387 25.733 43.2524 23.8575C43.3659 21.9821 42.7411 21.2434 42.7411 21.2434C42.7411 21.2434 40.0129 22.0964 38.7059 23.2331C37.3989 24.3697 36.433 26.1879 35.1824 26.2445Z" fill="white"/>
<path d="M37.1077 25.676C37.1077 25.676 38.4883 26.3064 40.0304 25.793C42.0503 25.1194 42.1847 23.0194 42.1847 23.0194C42.1847 23.0194 43.4228 26.6547 39.9497 27.3545C37.1645 27.9157 35.5167 26.3014 35.5167 26.3014L37.1077 25.676Z" fill="#C9C9C9"/>
<path d="M46.1296 11.9874C47.2554 11.0535 46.417 10.1867 46.5059 9.12564C46.5534 8.56107 46.5981 8.02829 46.7844 7.73449C47.8205 6.09865 50.2641 5.6023 50.2893 5.59713L51.4365 5.37244L50.6771 4.48424C50.5787 4.36922 47.4606 1.3942 42.6347 2.95199C39.2599 4.04059 36.7613 7.73199 36.6684 7.88112L38.3601 8.67698C38.3807 8.64555 40.3562 5.1758 43.2519 4.24205C45.5926 3.48673 47.7499 4.20526 48.6735 4.67624C47.6917 5.06846 46.4068 5.7827 45.6329 7.00453C45.2679 7.5816 45.2068 8.30817 45.1475 9.01169C45.0691 9.94311 44.9949 10.8224 44.3093 11.3918L46.1296 11.9874Z" fill="#463014"/>
<path d="M49.1357 25.6209C49.1357 25.6209 47.7181 23.8622 47.298 20.4399C47.133 19.092 47.4256 16.4333 47.8944 15.4104C47.8092 17.925 48.449 20.4399 48.449 20.4399C48.449 20.4399 48.8801 25.1093 49.1357 25.6209Z" fill="#463014"/>
<path d="M41.6577 10.2112C41.6584 10.2075 42.1128 8.22193 43.3727 7.2196C45.1494 5.80612 47.3193 6.55805 47.3395 6.56465L47.6554 5.59144C47.5501 5.55732 45.0705 4.77593 42.7844 6.38248C40.4852 7.99814 40.21 9.46269 40.1853 9.62451L41.6577 10.2112Z" fill="#463014"/>
<path d="M44.6818 24.3596C44.6818 24.3596 45.4259 23.2944 45.2914 22.1229C45.2255 21.5444 44.9574 20.9505 44.4788 20.7398C43.5893 20.349 43.1949 21.3572 43.1949 21.3572C43.1949 21.3572 44.447 21.6662 44.6818 24.3596Z" fill="#463014"/>
<path d="M36.5121 25.9831C36.481 26.0411 36.4649 26.0736 36.4649 26.0736C36.4649 26.0736 38.785 27.8154 41.1635 26.0479C42.4375 25.1009 42.3171 22.7585 41.9263 21.7651C40.9125 21.995 40.0524 22.4094 39.333 22.8932C40.2419 22.0822 41.0374 21.4851 41.0345 21.4713L42.0681 21.179L44.0755 20.491C44.1012 20.644 44.8333 24.0763 42.719 26.4149C41.7823 27.4519 37.3905 29.7741 35.3058 25.8034L36.5121 25.9831Z" fill="#463014"/>
<path d="M36.7288 26.2383C35.4221 28.2271 32.1261 27.0906 32.1831 24.9881C32.1831 24.9881 34.3853 26.2038 36.3316 23.9654C37.4678 22.6585 41.1096 19.0552 46.0471 20.2527C42.6374 21.0025 38.1228 24.1179 36.7288 26.2383Z" fill="#463014"/>
<path d="M46.5086 31.8511C46.1941 32.0327 45.0849 33.1808 45.0849 34.8979C45.0842 35.759 45.1701 40.0846 45.5968 42.7272C44.9556 43.1437 44.5091 43.2323 43.8708 43.6569C43.5513 40.5963 43.3214 36.1605 43.4289 34.3698C43.5509 32.3285 44.6434 30.9586 45.6568 30.3744C45.9742 30.1919 46.306 30.0124 46.6408 29.8318C48.3768 28.8938 50.1719 27.9234 50.1719 26.2665C50.1719 24.9703 49.6676 24.5649 49.1341 24.1352L49.0773 24.0886C48.7233 23.8026 48.322 23.4783 48.0853 22.9457C47.4375 21.4895 47.3312 17.7803 48.0846 16.8387C48.4602 16.3695 49.4673 14.7917 49.178 13.7315C49.0671 13.3268 48.8121 13.0269 48.3973 12.8143C47.9581 12.5895 47.3659 12.4755 46.635 12.4755C45.2017 12.4755 43.6102 12.912 42.7902 13.1719C39.8577 14.1014 36.3192 16.7811 35.3042 17.5804C35.2752 17.6027 35.2585 17.6158 35.2552 17.6179L34.6058 18.0692L35.0118 17.39C35.0375 17.3477 37.6078 13.1205 42.2044 11.5705C43.0988 11.269 44.8556 10.7631 46.5823 10.7631C47.6104 10.7631 48.4818 10.9426 49.1732 11.2962C50.0151 11.7268 50.5849 12.4139 50.8221 13.2825C51.4025 15.4116 49.5118 17.7822 49.4473 17.858C49.2269 18.2514 49.1337 21.1096 49.6422 22.2536C49.7122 22.4115 49.9042 22.5667 50.1478 22.7628C50.2239 22.8244 50.3084 22.8884 50.3993 22.9568C51.1178 23.499 52.2036 24.3183 52.2036 26.2066C52.2036 28.7905 49.5849 30.1915 47.4811 31.318C47.1355 31.5037 46.8056 31.6795 46.5086 31.8511Z" fill="#463014"/>
<path d="M43.3846 11.6835C42.9681 10.978 41.9029 9.61576 39.4478 8.41875C36.708 7.08332 33.5371 6.40552 30.0216 6.40391V6.4032H30.0148H30.008V6.40355C26.492 6.40534 23.3205 7.08315 20.5815 8.41839C18.1264 9.61558 17.0615 10.9776 16.6447 11.6831L16.4659 11.9198L18.5682 12.3877L18.6349 12.3036L18.67 12.2264C18.7025 12.0875 18.9844 11.3373 21.3284 10.1943C23.8342 8.97207 26.7569 8.35249 30.0145 8.35142C33.2724 8.35249 36.1938 8.97207 38.6995 10.1943C41.0437 11.3373 41.3264 12.0875 41.3585 12.2264L41.3936 12.3036L41.4595 12.3877L43.5625 11.9198L43.3846 11.6835Z" fill="#463014"/>
<path d="M46.1296 11.9874C47.2554 11.0535 46.417 10.1867 46.5059 9.12564C46.5534 8.56107 46.5981 8.02829 46.7844 7.73449C47.8205 6.09865 50.2641 5.6023 50.2893 5.59713L51.4365 5.37244L50.6771 4.48424C50.5787 4.36922 47.4606 1.3942 42.6347 2.95199C39.2599 4.04059 36.7613 7.73199 36.6684 7.88112L38.3601 8.67698C38.3807 8.64555 40.3562 5.1758 43.2519 4.24205C45.5926 3.48673 47.7499 4.20526 48.6735 4.67624C47.6917 5.06846 46.4068 5.7827 45.6329 7.00453C45.2679 7.5816 45.2068 8.30817 45.1475 9.01169C45.0691 9.94311 44.9949 10.8224 44.3093 11.3918L46.1296 11.9874Z" fill="#463014"/>
<path d="M43.9629 11.4569L44.1998 11.2597C44.8302 10.7368 44.901 9.89213 44.977 8.99428C45.0381 8.27183 45.1012 7.52437 45.4882 6.91318C46.1994 5.79083 47.3253 5.08749 48.2528 4.66937C47.6975 4.43415 46.6541 4.08355 45.3675 4.08355C44.6568 4.08355 43.9633 4.19107 43.3035 4.40397C40.6175 5.2702 38.7195 8.4006 38.5046 8.76781L38.424 8.89516L36.4221 7.95373L36.5239 7.7912C36.5474 7.75334 39.0599 3.92602 42.5828 2.7901C43.525 2.48575 44.4718 2.33215 45.3969 2.33215C48.7874 2.33215 50.7896 4.35342 50.8067 4.37378L51.7563 5.48399L50.3236 5.76493C50.2998 5.76976 47.9162 6.26842 46.929 7.82621C46.7654 8.08519 46.7225 8.59725 46.6761 9.14092C46.6491 9.46419 46.717 9.77925 46.7831 10.0838C46.9263 10.7441 47.0742 11.4271 46.2391 12.1193L46.1666 12.1795L43.9629 11.4569Z" fill="#463014"/>
<path d="M41.6577 10.2112C41.6584 10.2075 42.1128 8.22193 43.3727 7.2196C45.1494 5.80612 47.3193 6.55805 47.3395 6.56465L47.6554 5.59144C47.5501 5.55732 45.0705 4.77593 42.7844 6.38248C40.4852 7.99814 40.21 9.46269 40.1853 9.62451L41.6577 10.2112Z" fill="#463014"/>
<path d="M39.9974 9.73309L40.0172 9.59949C40.0422 9.43053 40.3301 7.89935 42.6864 6.24279C43.6559 5.5616 44.8176 5.20117 46.0458 5.20117C46.9774 5.20117 47.6356 5.40603 47.7085 5.42943L47.8703 5.48176L47.4479 6.78004L47.2848 6.72592C47.2239 6.70538 46.6759 6.5291 45.9387 6.5291C44.9938 6.5291 44.1664 6.80629 43.4798 7.35336C42.2749 8.31157 41.829 10.2291 41.8249 10.248L41.7806 10.443L39.9974 9.73309ZM47.2291 6.35407L47.4389 5.70769C47.1914 5.64483 46.6902 5.54266 46.0458 5.54266C44.8717 5.54266 43.8074 5.87237 42.8829 6.52213C40.949 7.88149 40.4868 9.10976 40.3819 9.51912L41.5423 9.98117C41.6941 9.4416 42.1967 7.93757 43.2669 7.08599C44.0054 6.49909 44.929 6.18868 45.9385 6.18868C46.5189 6.18868 46.9865 6.28887 47.2291 6.35407Z" fill="#463014"/>
<path d="M34.1511 52.2524C33.2729 51.3135 32.7534 50.3031 32.6278 49.9927C32.556 49.8159 32.4742 49.4789 32.7318 49.2142C32.9325 49.0091 33.2804 48.9039 33.767 48.9039H34.5157C35.296 48.9039 36.2085 48.9039 36.7511 48.9045L37.2062 48.9052C37.8454 48.9052 38.1603 49.0881 38.3119 49.2413C38.5323 49.4644 38.5668 49.7748 38.415 50.1633C38.0083 51.2013 37.0858 52.0484 36.8131 52.2833C36.4559 52.5918 35.9431 52.7745 35.4394 52.7745C34.9231 52.7745 34.4657 52.5889 34.1511 52.2524Z" fill="#463014"/>
<path d="M34.9113 26.3553L36.7288 26.2383C36.7288 26.2383 36.2646 27.0577 35.9634 28.1176C35.6234 29.3164 36.2744 31.0683 36.2744 31.0683C36.2744 31.0683 33.8495 28.3231 34.9113 26.3553Z" fill="#463014"/>
<path d="M30.0152 19.8628C28.8562 19.8628 27.345 19.831 26.2112 19.0162C26.2112 19.0162 27.6958 21.6187 30.0132 21.6187L30.0152 21.2893L30.0171 21.6187C32.3347 21.6187 33.8191 19.0162 33.8191 19.0162C32.6853 19.831 31.1731 19.8628 30.0152 19.8628Z" fill="#957EBA"/>
<path d="M33.2063 19.8503C32.0438 20.5539 31.0055 20.7977 30.0152 20.8193C29.0246 20.7977 27.9868 20.5539 26.824 19.8503C26.824 19.8503 28.517 21.9163 30.0066 21.9322V21.9334C30.0093 21.9334 30.012 21.9327 30.015 21.9327C30.0177 21.9327 30.0203 21.9334 30.0234 21.9334V21.9322C31.5126 21.9163 33.2063 19.8503 33.2063 19.8503Z" fill="#463014"/>
<path d="M37.1811 57.5762L37.0515 55.8911C42.5105 55.4712 44.2306 50.2395 44.2396 49.6888H45.9299C45.9306 50.9625 43.6527 57.0788 37.1811 57.5762Z" fill="#463014"/>
<path d="M38.9997 46.6187C39.1014 46.0341 39.1112 45.4797 38.9879 44.935C39.4805 44.5653 40.3625 44.4279 41.0247 44.2132C41.5663 43.8705 44.3382 44.5645 46.3488 42.1314C48.8678 39.0846 48.337 37.2655 48.337 37.2655C48.9834 37.9831 49.6088 37.7097 50.594 41.0557C51.5799 44.4024 50.1305 46.7355 47.4306 49.0777C46.1552 50.1842 44.3518 50.64 42.8008 50.8145C43.3203 50.2927 41.9133 50.2406 40.944 49.8777C41.0215 49.0947 40.8913 48.3345 40.3076 47.7224C39.9563 47.3535 39.5027 47.1329 39.0331 46.9571C39.0067 46.8964 38.984 46.8403 38.9597 46.7821C38.9753 46.7289 38.9899 46.6751 38.9997 46.6187Z" fill="white"/>
<path d="M40.956 49.8573C41.0128 49.693 41.0544 49.5254 41.096 49.3568C41.1415 49.1727 41.3648 48.651 41.0892 49.2466C41.1599 49.0941 41.2062 48.9369 41.2403 48.7785C45.6129 48.773 49.417 45.7708 48.6813 39.4591C49.2538 38.6991 50.0559 40.9915 50.0559 40.9915C50.0559 40.9915 52.245 47.3477 46.5915 49.8112C44.7077 50.6328 43.0431 51.2216 42.6502 50.9839C41.8313 51.1502 41.0928 50.5797 40.8165 50.2047C40.8681 50.0895 40.9165 49.9741 40.956 49.8573Z" fill="#C9C9C9"/>
<path d="M39.078 45.7035C39.0719 45.1707 38.9624 44.6547 38.7056 44.1405C38.6873 44.1052 38.6664 44.0712 38.6473 44.0368C40.3298 44.0223 42.2678 43.8612 43.918 43.2007C45.7315 42.4752 48.0003 39.9932 48.3904 37.0769C48.3904 37.0769 51.8062 39.7128 50.8025 45.3545C49.8596 50.6523 45.427 52.3794 40.3712 52.6716C40.3686 52.6373 40.9401 51.4571 40.7593 50.7346C43.6295 50.9432 46.8399 49.8341 48.3906 47.284C49.8085 44.95 49.4108 40.9651 48.8276 40.3813C47.4058 44.8694 42.2871 45.7817 39.078 45.7035Z" fill="#463014"/>
<path d="M41.1195 47.0322C40.5155 46.3793 39.4049 45.6009 36.8443 45.6009C36.8443 45.6009 31.9895 45.5981 30.0237 45.5968H30.0153H30.0069C28.0414 45.5982 23.1853 45.6009 23.1853 45.6009C20.6254 45.6009 19.5148 46.3794 18.9104 47.0322C18.0301 47.9826 17.892 49.3046 18.5011 50.9571C20.1194 55.3554 22.3936 59.8239 30.0066 59.8302V59.8309C30.0094 59.8309 30.0119 59.8302 30.015 59.8302C30.0177 59.8302 30.0203 59.8309 30.0234 59.8309V59.8302C37.6357 59.8236 39.9099 55.3554 41.5287 50.9571C42.1378 49.3046 41.9994 47.9826 41.1195 47.0322ZM39.9343 50.6486C39.1633 52.8573 37.0911 58.2033 30.0148 58.2125C22.9376 58.2033 20.8661 52.8574 20.0951 50.6486C19.6684 49.4232 19.7009 48.5164 20.1949 47.9531C20.5323 47.5681 21.3075 47.1085 23.074 47.1085L24.9196 47.1078C26.2811 47.1065 27.9905 47.1051 30.015 47.1044C32.0387 47.1051 33.7491 47.1065 35.1102 47.1078L36.955 47.1085C38.7221 47.1085 39.4971 47.5679 39.8347 47.9531C40.3281 48.517 40.361 49.4232 39.9343 50.6486Z" fill="#463014"/>
<path d="M38.5485 42.4904C39.4583 45.1604 41.3165 47.3211 41.3165 47.3211C41.3165 47.3211 38.7604 47.2049 38.6191 46.7524C38.5153 46.419 36.3113 41.26 35.4655 35.2166C36.2606 36.5238 38.4705 42.2618 38.5485 42.4904Z" fill="#463014"/>
</svg>
