<svg width="60" height="56" viewBox="0 0 60 56" fill="none" xmlns="http://www.w3.org/2000/svg">
<g clip-path="url(#clip0_128_2032)">
<path d="M3.59918 0.0545654L8.40434 49.8141L29.9675 55.3404L51.5904 49.8063L56.4008 0.0545654H3.59918ZM46.3774 11.8632L46.0766 14.957L45.9444 16.329H45.9225H30H29.9769H20.6489L21.253 22.5783H29.9769H30H43.5613H45.3427L45.1813 24.217L43.628 40.2841L43.5285 41.3145L30 44.7761V44.7774L29.9697 44.7851L16.429 41.3146L15.5029 31.7324H18.5612H22.1385L22.6091 36.5996L29.9708 38.435L29.9769 38.4335V38.4329L37.3499 36.5961L38.1165 28.681H30H29.9769H15.2075L13.583 11.8632L13.4247 10.2261H29.977H30H46.5356L46.3774 11.8632Z" fill="#957EBA"/>
</g>
<defs>
<clipPath id="clip0_128_2032">
<rect width="60" height="55.3943" fill="white"/>
</clipPath>
</defs>
</svg>
