<svg width="68" height="68" viewBox="0 0 68 68" fill="none" xmlns="http://www.w3.org/2000/svg">
<g clip-path="url(#clip0_129_2047)" filter="url(#filter0_d_129_2047)">
<path d="M53.9609 0.0585938H14.0391C8.5498 0.0585938 4.05859 4.5498 4.05859 10.0391V49.961C4.05859 55.4503 8.5498 59.9415 14.0391 59.9415H53.961C59.4503 59.9415 63.9415 55.4503 63.9415 49.961V10.0391C63.9414 4.5498 59.4502 0.0585938 53.9609 0.0585938ZM32.7495 30.5302C30.6711 32.6086 27.4045 33.5846 23.714 33.5846C22.7383 33.5846 21.8475 33.5419 21.1687 33.4146V44.1894H15.9938V15.98C17.8602 15.6408 20.448 15.386 23.9684 15.386C27.7866 15.386 30.5863 16.192 32.4105 17.7193C34.1073 19.1194 35.2101 21.3675 35.2101 24.04C35.21 26.755 34.3616 29.003 32.7495 30.5302ZM43.6071 44.614C41.1043 44.614 38.8561 44.02 37.3289 43.1714L38.347 39.3961C39.5346 40.1173 41.7831 40.881 43.6496 40.881C45.94 40.881 46.9585 39.9477 46.9585 38.5901C46.9585 37.1905 46.1102 36.4691 43.5647 35.5784C39.5345 34.1783 37.8382 31.9726 37.8805 29.5546C37.8805 25.9064 40.8923 23.0644 45.6857 23.0644C47.9766 23.0644 49.9703 23.6584 51.1578 24.2944L50.1398 27.985C49.2489 27.4761 47.5943 26.7973 45.7704 26.7973C43.9039 26.7973 42.8859 27.6881 42.8859 28.9605C42.8859 30.2759 43.8616 30.9123 46.4917 31.8455C50.2246 33.2027 51.9639 35.1116 52.0063 38.1662C52.0062 41.8991 49.0795 44.614 43.6071 44.614ZM29.9922 24.252C29.9922 27.6033 27.6164 29.5121 23.714 29.5121C22.6536 29.5121 21.8051 29.4697 21.1687 29.3002V19.6282C21.7204 19.5011 22.7384 19.3738 24.1809 19.3738C27.7866 19.3738 29.9922 21.0707 29.9922 24.252Z" fill="#957EBA"/>
</g>
<defs>
<filter id="filter0_d_129_2047" x="0" y="0" width="68" height="68" filterUnits="userSpaceOnUse" color-interpolation-filters="sRGB">
<feFlood flood-opacity="0" result="BackgroundImageFix"/>
<feColorMatrix in="SourceAlpha" type="matrix" values="0 0 0 0 0 0 0 0 0 0 0 0 0 0 0 0 0 0 127 0" result="hardAlpha"/>
<feOffset dy="4"/>
<feGaussianBlur stdDeviation="2"/>
<feComposite in2="hardAlpha" operator="out"/>
<feColorMatrix type="matrix" values="0 0 0 0 0 0 0 0 0 0 0 0 0 0 0 0 0 0 0.25 0"/>
<feBlend mode="normal" in2="BackgroundImageFix" result="effect1_dropShadow_129_2047"/>
<feBlend mode="normal" in="SourceGraphic" in2="effect1_dropShadow_129_2047" result="shape"/>
</filter>
<clipPath id="clip0_129_2047">
<rect width="60" height="60" fill="white" transform="translate(4)"/>
</clipPath>
</defs>
</svg>
