<svg width="68" height="68" viewBox="0 0 68 68" fill="none" xmlns="http://www.w3.org/2000/svg">
<g clip-path="url(#clip0_129_2052)" filter="url(#filter0_d_129_2052)">
<path d="M4 30V60H64V0H4V30ZM52.3487 27.6075C53.8731 27.9881 55.0338 28.6725 56.1081 29.775C56.6556 30.36 57.475 31.4344 57.5444 31.6987C57.5631 31.7775 54.9569 33.525 53.3744 34.5019C53.3162 34.5412 53.0819 34.2975 52.8269 33.915C52.0563 32.7919 51.2444 32.3044 50.005 32.2162C48.1881 32.0981 47.0163 33.0469 47.0256 34.6388C47.0163 35.0288 47.1044 35.4206 47.2788 35.7619C47.68 36.5925 48.4319 37.0894 50.755 38.0963C55.0525 39.9412 56.8881 41.1619 58.03 42.8906C59.3088 44.8237 59.5919 47.91 58.7331 50.2144C57.7769 52.7044 55.4125 54.4031 52.0919 54.96C51.0662 55.1456 48.625 55.1156 47.5206 54.9112C45.1094 54.4819 42.8237 53.2894 41.4175 51.7275C40.8606 51.1219 39.7862 49.53 39.8556 49.4231C39.8856 49.3837 40.1294 49.2281 40.4031 49.0706C40.6769 48.9131 41.6819 48.3281 42.6306 47.7806L44.3594 46.7756L44.7213 47.3119C45.2294 48.0825 46.3319 49.1381 46.9975 49.4887C48.9119 50.505 51.5388 50.3588 52.8381 49.1963C53.365 48.7575 53.6594 48.0825 53.62 47.4C53.62 46.7063 53.5319 46.395 53.17 45.8756C52.7013 45.2119 51.7544 44.6456 49.0487 43.4738C45.9531 42.135 44.6144 41.3156 43.405 39.9975C42.6438 39.1275 42.0775 38.1037 41.755 36.9994C41.53 36.15 41.4719 34.02 41.6481 33.1706C42.2838 30.1725 44.5488 28.0931 47.8 27.4781C48.8556 27.2738 51.3156 27.3506 52.3506 27.6056L52.3487 27.6075ZM38.2675 30.1181L38.2862 32.5688H30.4731V54.7669H24.9456V32.5688H17.1438V30.1669C17.1438 28.8281 17.1737 27.7162 17.2113 27.6862C17.2413 27.6469 21.9869 27.6281 27.7488 27.6375L38.2375 27.6675L38.2675 30.1181Z" fill="#957EBA"/>
</g>
<defs>
<filter id="filter0_d_129_2052" x="0" y="0" width="68" height="68" filterUnits="userSpaceOnUse" color-interpolation-filters="sRGB">
<feFlood flood-opacity="0" result="BackgroundImageFix"/>
<feColorMatrix in="SourceAlpha" type="matrix" values="0 0 0 0 0 0 0 0 0 0 0 0 0 0 0 0 0 0 127 0" result="hardAlpha"/>
<feOffset dy="4"/>
<feGaussianBlur stdDeviation="2"/>
<feComposite in2="hardAlpha" operator="out"/>
<feColorMatrix type="matrix" values="0 0 0 0 0 0 0 0 0 0 0 0 0 0 0 0 0 0 0.25 0"/>
<feBlend mode="normal" in2="BackgroundImageFix" result="effect1_dropShadow_129_2052"/>
<feBlend mode="normal" in="SourceGraphic" in2="effect1_dropShadow_129_2052" result="shape"/>
</filter>
<clipPath id="clip0_129_2052">
<rect width="60" height="60" fill="white" transform="translate(4)"/>
</clipPath>
</defs>
</svg>
