<svg width="60" height="60" viewBox="0 0 60 60" fill="none" xmlns="http://www.w3.org/2000/svg">
<path d="M48.6375 46.9893L38.5463 30.0018L48.6375 13.0068L53.5088 29.9981L48.6357 46.9856L48.6375 46.9893ZM26.1488 45.3581L13.4588 32.7637H33.6319L43.7194 49.7531L26.1469 45.3618L26.1488 45.3581ZM26.1488 14.6418L43.7194 10.2506L33.6338 27.2399H13.4569L26.1488 14.6418ZM58.1175 24.2193L51.9638 1.88245L28.9931 7.86932L25.5956 13.7043L18.6956 13.6537L1.8844 30.0018L18.6975 46.3518L25.5938 46.2974L29.0006 52.1325L51.9619 58.1174L58.1175 35.7899L54.6225 30.0018L58.1175 24.2193Z" fill="#957EBA"/>
</svg>
