<?xml version="1.0" encoding="UTF-8"?>
<svg id="Layer_2" data-name="Layer 2" xmlns="http://www.w3.org/2000/svg" xmlns:xlink="http://www.w3.org/1999/xlink" viewBox="0 0 388.3 388.95">
  <defs>
    <style>
      .cls-1 {
        fill: url(#linear-gradient-8);
        opacity: .37;
      }

      .cls-1, .cls-2, .cls-3, .cls-4, .cls-5, .cls-6, .cls-7, .cls-8, .cls-9, .cls-10, .cls-11 {
        stroke-width: 0px;
      }

      .cls-2 {
        fill: url(#linear-gradient-7);
      }

      .cls-2, .cls-3, .cls-4 {
        mix-blend-mode: multiply;
      }

      .cls-3 {
        fill: url(#linear-gradient-5);
      }

      .cls-4 {
        fill: url(#linear-gradient-9);
      }

      .cls-12 {
        filter: url(#luminosity-noclip-3);
      }

      .cls-13 {
        filter: url(#luminosity-noclip-5);
      }

      .cls-14 {
        mask: url(#mask);
      }

      .cls-5 {
        fill: url(#linear-gradient);
      }

      .cls-15 {
        filter: url(#luminosity-noclip);
      }

      .cls-6 {
        fill: #ff71b2;
        opacity: .14;
      }

      .cls-7 {
        fill: url(#linear-gradient-4);
      }

      .cls-8 {
        fill: url(#linear-gradient-2);
      }

      .cls-9 {
        fill: url(#linear-gradient-3);
      }

      .cls-10 {
        fill: url(#linear-gradient-6);
        opacity: .47;
      }

      .cls-11 {
        fill: url(#linear-gradient-10);
        opacity: .69;
      }

      .cls-16 {
        mask: url(#mask-3);
      }

      .cls-17 {
        mask: url(#mask-2);
      }

      .cls-18 {
        mask: url(#mask-5);
      }

      .cls-19 {
        mask: url(#mask-4);
      }

      .cls-20 {
        mask: url(#mask-1);
      }
    </style>
    <linearGradient id="linear-gradient" x1="35.78" y1="32.65" x2="362.74" y2="363.26" gradientUnits="userSpaceOnUse">
      <stop offset=".11" stop-color="#efff67"/>
      <stop offset=".46" stop-color="#ff5ea7"/>
      <stop offset="1" stop-color="#c21e43"/>
    </linearGradient>
    <linearGradient id="linear-gradient-2" x1="72.23" y1="100.8" x2="277.67" y2="309.06" gradientUnits="userSpaceOnUse">
      <stop offset=".06" stop-color="#efb374"/>
      <stop offset=".44" stop-color="#eb4786"/>
      <stop offset="1" stop-color="#bd1e63"/>
    </linearGradient>
    <linearGradient id="linear-gradient-3" x1="57.8" y1="114.67" x2="263.53" y2="323.23" xlink:href="#linear-gradient-2"/>
    <linearGradient id="linear-gradient-4" x1="83.19" y1="89.46" x2="288.96" y2="298.06" xlink:href="#linear-gradient-2"/>
    <filter id="luminosity-noclip" x="90.73" y="37.4" width="258.57" height="275.2" color-interpolation-filters="sRGB" filterUnits="userSpaceOnUse">
      <feFlood flood-color="#fff" result="bg"/>
      <feBlend in="SourceGraphic" in2="bg"/>
    </filter>
    <filter id="luminosity-noclip-2" x="90.73" y="-8182.32" width="258.57" height="32766" color-interpolation-filters="sRGB" filterUnits="userSpaceOnUse">
      <feFlood flood-color="#fff" result="bg"/>
      <feBlend in="SourceGraphic" in2="bg"/>
    </filter>
    <mask id="mask-1" x="90.73" y="-8182.32" width="258.57" height="32766" maskUnits="userSpaceOnUse"/>
    <linearGradient id="linear-gradient-5" x1="90.73" y1="175" x2="349.3" y2="175" gradientUnits="userSpaceOnUse">
      <stop offset="0" stop-color="#fff"/>
      <stop offset="1" stop-color="#000"/>
    </linearGradient>
    <mask id="mask" x="90.73" y="37.4" width="258.57" height="275.2" maskUnits="userSpaceOnUse">
      <g class="cls-15">
        <g class="cls-20">
          <path class="cls-3" d="M349.3,192.73c0,46.32-20.19,87.87-52.26,116.35-1.35,1.19-2.73,2.38-4.12,3.53,25.22-47.15,60.33-141.13-2.3-196.84-20.55-18.24-51.66-23.83-78.46-17.77-18.01,4.04-33.69,14.87-50.67,22.21-16.94,7.38-37.69,10.91-53.17.79-11.72-7.69-17.97-22.21-17.58-36.24.08-2.97.4-5.83.91-8.61,26.64-23.52,61.4-37.99,99.56-38.7.95-.04,1.94-.04,2.93-.04,1.5,0,2.93,0,4.35.12,13.9.32,27.28,2.5,39.98,6.34,2.89.83,5.74,1.74,8.55,2.82,59.66,21.69,102.26,78.87,102.26,146.05Z"/>
        </g>
      </g>
    </mask>
    <linearGradient id="linear-gradient-6" x1="90.73" y1="175" x2="349.3" y2="175" gradientUnits="userSpaceOnUse">
      <stop offset="0" stop-color="#ffffae"/>
      <stop offset="1" stop-color="#9cffff"/>
    </linearGradient>
    <filter id="luminosity-noclip-3" x="39" y="123.81" width="258.04" height="224.33" color-interpolation-filters="sRGB" filterUnits="userSpaceOnUse">
      <feFlood flood-color="#fff" result="bg"/>
      <feBlend in="SourceGraphic" in2="bg"/>
    </filter>
    <filter id="luminosity-noclip-4" x="39" y="-8182.32" width="258.04" height="32766" color-interpolation-filters="sRGB" filterUnits="userSpaceOnUse">
      <feFlood flood-color="#fff" result="bg"/>
      <feBlend in="SourceGraphic" in2="bg"/>
    </filter>
    <mask id="mask-3" x="39" y="-8182.32" width="258.04" height="32766" maskUnits="userSpaceOnUse"/>
    <linearGradient id="linear-gradient-7" x1="39" y1="235.97" x2="297.04" y2="235.97" gradientUnits="userSpaceOnUse">
      <stop offset="0" stop-color="#999"/>
      <stop offset="1" stop-color="#fff"/>
    </linearGradient>
    <mask id="mask-2" x="39" y="123.81" width="258.04" height="224.33" maskUnits="userSpaceOnUse">
      <g class="cls-12">
        <g class="cls-16">
          <path class="cls-2" d="M297.04,309.07c-27.4,24.31-63.42,39.06-102.89,39.06-12.79,0-25.26-1.55-37.13-4.52-31.04-7.57-58.51-24.63-79.02-47.82-3.84-4.32-7.44-8.8-10.69-13.52-1.23-1.78-2.49-3.53-3.64-5.35-.71-1.07-1.39-2.1-2.02-3.21-1.27-2.1-2.49-4.24-3.68-6.42-4.43-8.09-8.19-16.65-11.12-25.62-3.92-11.9-6.49-24.43-7.4-37.43-.32-3.77-.44-7.65-.44-11.5,0-24.74,5.78-48.14,16.07-68.92-1.35,8.01-3.01,16.06-3.13,23.67-.48,29.34,7.72,58.73,23.24,83.63,28.31,45.44,79.77,73.48,132.74,81.05,29.65,4.24,59.7,2.62,89.11-3.09Z"/>
        </g>
      </g>
    </mask>
    <linearGradient id="linear-gradient-8" x1="39" y1="235.97" x2="297.04" y2="235.97" gradientUnits="userSpaceOnUse">
      <stop offset="0" stop-color="#e9256d"/>
      <stop offset="1" stop-color="#562343"/>
    </linearGradient>
    <filter id="luminosity-noclip-5" x="110.23" y="152.44" width="83.92" height="84.06" color-interpolation-filters="sRGB" filterUnits="userSpaceOnUse">
      <feFlood flood-color="#fff" result="bg"/>
      <feBlend in="SourceGraphic" in2="bg"/>
    </filter>
    <filter id="luminosity-noclip-6" x="110.23" y="-8182.32" width="83.92" height="32766" color-interpolation-filters="sRGB" filterUnits="userSpaceOnUse">
      <feFlood flood-color="#fff" result="bg"/>
      <feBlend in="SourceGraphic" in2="bg"/>
    </filter>
    <mask id="mask-5" x="110.23" y="-8182.32" width="83.92" height="32766" maskUnits="userSpaceOnUse"/>
    <linearGradient id="linear-gradient-9" x1="120.82" y1="162.76" x2="175.53" y2="218.07" xlink:href="#linear-gradient-5"/>
    <mask id="mask-4" x="110.23" y="152.44" width="83.92" height="84.06" maskUnits="userSpaceOnUse">
      <g class="cls-13">
        <g class="cls-18">
          <ellipse class="cls-4" cx="152.19" cy="194.47" rx="41.96" ry="42.03"/>
        </g>
      </g>
    </mask>
    <linearGradient id="linear-gradient-10" x1="120.82" y1="162.76" x2="175.53" y2="218.07" gradientUnits="userSpaceOnUse">
      <stop offset="0" stop-color="#ffc"/>
      <stop offset="1" stop-color="#ff7f9c"/>
    </linearGradient>
  </defs>
  <g id="_ÎÓÈ_1" data-name="—ÎÓÈ_1">
    <g>
      <ellipse class="cls-6" cx="194.15" cy="192.77" rx="178.81" ry="179.11"/>
      <ellipse class="cls-6" cx="194.15" cy="194.47" rx="194.15" ry="194.47"/>
      <g>
        <path class="cls-5" d="M349.3,192.73c0,46.32-20.19,87.87-52.26,116.35-1.35,1.19-2.73,2.38-4.12,3.53-26.84,22.21-61.24,35.53-98.77,35.53-12.79,0-25.26-1.55-37.13-4.52-31.04-7.57-58.51-24.63-79.02-47.82-3.84-4.32-7.44-8.8-10.69-13.52-1.23-1.78-2.49-3.53-3.64-5.35-.71-1.07-1.39-2.1-2.02-3.21-1.27-2.1-2.49-4.24-3.68-6.42-4.43-8.09-8.19-16.65-11.12-25.62-3.92-11.9-6.49-24.43-7.4-37.43-.32-3.77-.44-7.65-.44-11.5,0-24.74,5.78-48.14,16.07-68.92,9.03-18.2,21.5-34.38,36.58-47.66,26.64-23.52,61.4-37.99,99.56-38.7.95-.04,1.94-.04,2.93-.04,1.5,0,2.93,0,4.35.12,13.9.32,27.28,2.5,39.98,6.34,2.89.83,5.74,1.74,8.55,2.82,59.66,21.69,102.26,78.87,102.26,146.05Z"/>
        <path class="cls-8" d="M157.02,343.63c-31.06-7.58-58.52-24.64-79.01-47.84,19.05,6.93,39.86,10.26,61.39,9.08,85.99-4.57,152.02-78.16,147.45-164.23-.26-4.44-.65-8.76-1.3-13.07,5.28,14.64,8.55,30.32,9.46,46.66,4.44,84.43-56.17,157.17-137.99,169.39Z"/>
        <path class="cls-9" d="M130.07,181.88c-19.77,29.08-53.82,49.8-67.98,55.68-4.89,2.03-10.05,3.86-15.27,4.12-3.91-11.89-6.46-24.44-7.37-37.45.59.33,1.24.52,1.96.65,27.21,3.92,85.6-43.72,100.34-98.03,2.74-9.93.2-17.97-4.37-22.15-3.39-3.07-7.95-5.13-12.46-4.97-23.13.82-39.15,27.32-44.89,46.33-1.5,4.97-2.67,10.13-1.89,15.23.78,5.03,3.91,10.06,8.74,11.7,3.26,1.11,7.11.2,9.53-2.03-4.63,6.34-13.64,9.61-21.14,6.93-2.02-.72-3.91-1.76-5.28-3.33-2.48-2.68-3.26-6.47-3.52-10.13-.98-17.12,8.57-32.98,19.05-46.53,10.9-14.08,23.48-22.66,38.95-28.3,8.05-2.93,17.55-3.4,24.99.85,6.07,3.53,9.98,10.2,11.42,17.12,1.44,6.93,3.72,43.33-30.79,94.3Z"/>
        <path class="cls-7" d="M255.73,102.02c0,99.66-80.64,180.44-180.14,180.44-2.81,0-5.55-.07-8.29-.2-2.02-2.81-3.91-5.62-5.68-8.56,84.36-11.5,149.34-84.04,149.34-171.68,0-22.81-4.37-44.57-12.46-64.5,17.03.39,33.34,3.59,48.54,9.15,5.68,17.45,8.68,36.07,8.68,55.35Z"/>
        <g class="cls-14">
          <path class="cls-10" d="M349.3,192.73c0,46.32-20.19,87.87-52.26,116.35-1.35,1.19-2.73,2.38-4.12,3.53,25.22-47.15,60.33-141.13-2.3-196.84-20.55-18.24-51.66-23.83-78.46-17.77-18.01,4.04-33.69,14.87-50.67,22.21-16.94,7.38-37.69,10.91-53.17.79-11.72-7.69-17.97-22.21-17.58-36.24.08-2.97.4-5.83.91-8.61,26.64-23.52,61.4-37.99,99.56-38.7.95-.04,1.94-.04,2.93-.04,1.5,0,2.93,0,4.35.12,13.9.32,27.28,2.5,39.98,6.34,2.89.83,5.74,1.74,8.55,2.82,59.66,21.69,102.26,78.87,102.26,146.05Z"/>
        </g>
        <g class="cls-17">
          <path class="cls-1" d="M297.04,309.07c-27.4,24.31-63.42,39.06-102.89,39.06-12.79,0-25.26-1.55-37.13-4.52-31.04-7.57-58.51-24.63-79.02-47.82-3.84-4.32-7.44-8.8-10.69-13.52-1.23-1.78-2.49-3.53-3.64-5.35-.71-1.07-1.39-2.1-2.02-3.21-1.27-2.1-2.49-4.24-3.68-6.42-4.43-8.09-8.19-16.65-11.12-25.62-3.92-11.9-6.49-24.43-7.4-37.43-.32-3.77-.44-7.65-.44-11.5,0-24.74,5.78-48.14,16.07-68.92-1.35,8.01-3.01,16.06-3.13,23.67-.48,29.34,7.72,58.73,23.24,83.63,28.31,45.44,79.77,73.48,132.74,81.05,29.65,4.24,59.7,2.62,89.11-3.09Z"/>
        </g>
        <g class="cls-19">
          <ellipse class="cls-11" cx="152.19" cy="194.47" rx="41.96" ry="42.03"/>
        </g>
      </g>
    </g>
  </g>
</svg>