<?xml version="1.0" encoding="UTF-8"?>
<svg id="Layer_2" data-name="Layer 2" xmlns="http://www.w3.org/2000/svg" xmlns:xlink="http://www.w3.org/1999/xlink" viewBox="0 0 426.68 394.7">
  <defs>
    <style>
      .cls-1 {
        fill: none;
      }

      .cls-1, .cls-2, .cls-3, .cls-4, .cls-5, .cls-6, .cls-7, .cls-8, .cls-9, .cls-10, .cls-11, .cls-12, .cls-13, .cls-14, .cls-15, .cls-16, .cls-17, .cls-18, .cls-19, .cls-20, .cls-21, .cls-22, .cls-23, .cls-24, .cls-25, .cls-26, .cls-27, .cls-28, .cls-29, .cls-30, .cls-31, .cls-32, .cls-33, .cls-34, .cls-35 {
        stroke-width: 0px;
      }

      .cls-2 {
        fill: url(#linear-gradient);
      }

      .cls-3 {
        fill: #00fafc;
        opacity: .12;
      }

      .cls-4 {
        fill: url(#linear-gradient-33);
      }

      .cls-5 {
        fill: url(#linear-gradient-29);
      }

      .cls-6 {
        fill: url(#linear-gradient-32);
      }

      .cls-7 {
        fill: url(#linear-gradient-30);
      }

      .cls-8 {
        fill: url(#linear-gradient-31);
      }

      .cls-9 {
        fill: url(#linear-gradient-28);
      }

      .cls-10 {
        fill: url(#linear-gradient-25);
      }

      .cls-11 {
        fill: url(#linear-gradient-11);
      }

      .cls-12 {
        fill: url(#linear-gradient-12);
      }

      .cls-13 {
        fill: url(#linear-gradient-13);
      }

      .cls-14 {
        fill: url(#linear-gradient-10);
      }

      .cls-15 {
        fill: url(#linear-gradient-17);
      }

      .cls-16 {
        fill: url(#linear-gradient-16);
      }

      .cls-17 {
        fill: url(#linear-gradient-19);
      }

      .cls-18 {
        fill: url(#linear-gradient-15);
      }

      .cls-19 {
        fill: url(#linear-gradient-23);
      }

      .cls-20 {
        fill: url(#linear-gradient-21);
      }

      .cls-21 {
        fill: url(#linear-gradient-18);
      }

      .cls-22 {
        fill: url(#linear-gradient-14);
      }

      .cls-23 {
        fill: url(#linear-gradient-22);
      }

      .cls-24 {
        fill: url(#linear-gradient-20);
      }

      .cls-25 {
        fill: url(#linear-gradient-27);
      }

      .cls-26 {
        fill: url(#linear-gradient-24);
      }

      .cls-27 {
        fill: url(#linear-gradient-26);
      }

      .cls-28 {
        fill: url(#linear-gradient-4);
      }

      .cls-29 {
        fill: url(#linear-gradient-2);
      }

      .cls-30 {
        fill: url(#linear-gradient-3);
      }

      .cls-31 {
        fill: url(#linear-gradient-8);
      }

      .cls-32 {
        fill: url(#linear-gradient-9);
      }

      .cls-33 {
        fill: url(#linear-gradient-7);
      }

      .cls-34 {
        fill: url(#linear-gradient-5);
      }

      .cls-35 {
        fill: url(#linear-gradient-6);
      }
    </style>
    <linearGradient id="linear-gradient" x1="313.13" y1="72.15" x2="132.08" y2="333.4" gradientUnits="userSpaceOnUse">
      <stop offset=".08" stop-color="#8ff"/>
      <stop offset=".56" stop-color="#18c5e0"/>
      <stop offset="1" stop-color="#437dff"/>
    </linearGradient>
    <linearGradient id="linear-gradient-2" x1="230.98" y1="51.48" x2="87.16" y2="130.52" gradientUnits="userSpaceOnUse">
      <stop offset=".03" stop-color="#00ace5"/>
      <stop offset=".5" stop-color="#0087bc"/>
      <stop offset="1" stop-color="#474fb0"/>
    </linearGradient>
    <linearGradient id="linear-gradient-3" x1="230.52" y1="36.84" x2="81.94" y2="118.47" gradientUnits="userSpaceOnUse">
      <stop offset=".03" stop-color="#5effbb"/>
      <stop offset=".21" stop-color="#33c9e2"/>
      <stop offset=".84" stop-color="#007cd6"/>
    </linearGradient>
    <linearGradient id="linear-gradient-4" x1="234.42" y1="123.52" x2="60.84" y2="175.34" gradientUnits="userSpaceOnUse">
      <stop offset="0" stop-color="#0087bc"/>
      <stop offset="1" stop-color="#474fb0"/>
    </linearGradient>
    <linearGradient id="linear-gradient-5" x1="341.12" y1="100.37" x2="66.44" y2="238.15" xlink:href="#linear-gradient-2"/>
    <linearGradient id="linear-gradient-6" x1="306.59" y1="72.38" x2="49.62" y2="200.65" xlink:href="#linear-gradient-3"/>
    <linearGradient id="linear-gradient-7" x1="318.97" y1="118.28" x2="194.69" y2="309.69" gradientUnits="userSpaceOnUse">
      <stop offset=".02" stop-color="#00ce89"/>
      <stop offset=".2" stop-color="#09bbfd"/>
      <stop offset="1" stop-color="#0046bb"/>
    </linearGradient>
    <linearGradient id="linear-gradient-8" x1="357.08" y1="115.5" x2="71.17" y2="261.91" xlink:href="#linear-gradient-7"/>
    <linearGradient id="linear-gradient-9" x1="393.24" y1="150.23" x2="75.81" y2="299.22" xlink:href="#linear-gradient-3"/>
    <linearGradient id="linear-gradient-10" x1="348.46" y1="297.16" x2="208.53" y2="363.39" xlink:href="#linear-gradient-4"/>
    <linearGradient id="linear-gradient-11" x1="345.88" y1="308.43" x2="224.96" y2="367.16" gradientUnits="userSpaceOnUse">
      <stop offset="0" stop-color="#33eaff"/>
      <stop offset="1" stop-color="#007cb3"/>
    </linearGradient>
    <linearGradient id="linear-gradient-12" x1="386.99" y1="221.22" x2="138.8" y2="346.17" xlink:href="#linear-gradient-7"/>
    <linearGradient id="linear-gradient-13" x1="385.39" y1="237.71" x2="154.47" y2="359.79" xlink:href="#linear-gradient-3"/>
    <linearGradient id="linear-gradient-14" x1="348.03" y1="297.24" x2="208.1" y2="363.46" xlink:href="#linear-gradient-4"/>
    <linearGradient id="linear-gradient-15" x1="345.45" y1="308.51" x2="224.52" y2="367.24" xlink:href="#linear-gradient-3"/>
    <linearGradient id="linear-gradient-16" x1="-438.35" y1="-315.02" x2="-407.41" y2="-340.13" gradientTransform="translate(-450.91 329.93) rotate(116.24)" xlink:href="#linear-gradient-3"/>
    <linearGradient id="linear-gradient-17" x1="-495.78" y1="-317.06" x2="-488.19" y2="-323.22" gradientTransform="translate(-450.91 329.93) rotate(116.24)" xlink:href="#linear-gradient-3"/>
    <linearGradient id="linear-gradient-18" x1="-639.19" y1="-562.38" x2="-631.6" y2="-568.54" gradientTransform="translate(-450.91 329.93) rotate(116.24)" xlink:href="#linear-gradient-3"/>
    <linearGradient id="linear-gradient-19" x1="-589.04" y1="-601.77" x2="-581.45" y2="-607.92" gradientTransform="translate(-450.91 329.93) rotate(116.24)" xlink:href="#linear-gradient-3"/>
    <linearGradient id="linear-gradient-20" x1="-642.54" y1="-655.66" x2="-634.95" y2="-661.82" gradientTransform="translate(-450.91 329.93) rotate(116.24)" xlink:href="#linear-gradient-3"/>
    <linearGradient id="linear-gradient-21" x1="-623.91" y1="-608.11" x2="-620.12" y2="-611.18" gradientTransform="translate(-450.91 329.93) rotate(116.24)" xlink:href="#linear-gradient-3"/>
    <linearGradient id="linear-gradient-22" x1="-608.9" y1="-657.06" x2="-605.11" y2="-660.14" gradientTransform="translate(-450.91 329.93) rotate(116.24)" xlink:href="#linear-gradient-3"/>
    <linearGradient id="linear-gradient-23" x1="-555.77" y1="-658.87" x2="-551.98" y2="-661.94" gradientTransform="translate(-450.91 329.93) rotate(116.24)" xlink:href="#linear-gradient-3"/>
    <linearGradient id="linear-gradient-24" x1="-627.96" y1="-527.7" x2="-624.17" y2="-530.77" gradientTransform="translate(-450.91 329.93) rotate(116.24)" xlink:href="#linear-gradient-3"/>
    <linearGradient id="linear-gradient-25" x1="-508.74" y1="-711.3" x2="-504.95" y2="-714.37" gradientTransform="translate(-450.91 329.93) rotate(116.24)" xlink:href="#linear-gradient-3"/>
    <linearGradient id="linear-gradient-26" x1="-302.38" y1="521.97" x2="-294.8" y2="515.81" gradientTransform="translate(-208.93 -141.38) rotate(-59.48)" xlink:href="#linear-gradient-3"/>
    <linearGradient id="linear-gradient-27" x1="-252.24" y1="482.58" x2="-244.65" y2="476.42" gradientTransform="translate(-208.93 -141.38) rotate(-59.48)" xlink:href="#linear-gradient-3"/>
    <linearGradient id="linear-gradient-28" x1="-305.73" y1="428.68" x2="-298.14" y2="422.52" gradientTransform="translate(-208.93 -141.38) rotate(-59.48)" xlink:href="#linear-gradient-3"/>
    <linearGradient id="linear-gradient-29" x1="-287.1" y1="476.24" x2="-283.32" y2="473.17" gradientTransform="translate(-208.93 -141.38) rotate(-59.48)" xlink:href="#linear-gradient-3"/>
    <linearGradient id="linear-gradient-30" x1="-272.09" y1="427.28" x2="-268.31" y2="424.2" gradientTransform="translate(-208.93 -141.38) rotate(-59.48)" xlink:href="#linear-gradient-3"/>
    <linearGradient id="linear-gradient-31" x1="-218.96" y1="425.47" x2="-215.18" y2="422.39" gradientTransform="translate(-208.93 -141.38) rotate(-59.48)" xlink:href="#linear-gradient-3"/>
    <linearGradient id="linear-gradient-32" x1="-291.16" y1="556.66" x2="-287.37" y2="553.59" gradientTransform="translate(-208.93 -141.38) rotate(-59.48)" xlink:href="#linear-gradient-3"/>
    <linearGradient id="linear-gradient-33" x1="-171.93" y1="373.03" x2="-168.15" y2="369.95" gradientTransform="translate(-208.93 -141.38) rotate(-59.48)" xlink:href="#linear-gradient-3"/>
  </defs>
  <g id="_ÎÓÈ_1" data-name="—ÎÓÈ_1">
    <g>
      <g>
        <ellipse class="cls-3" cx="220.14" cy="206.34" rx="188.04" ry="188.36"/>
        <ellipse class="cls-2" cx="220.14" cy="206.34" rx="145.31" ry="145.55"/>
        <path class="cls-29" d="M154.15,96.38c-34.87,17.74-65.28,21.34-66.93,21.18l14.18,4.85s35-5.84,66.19-23.18c33.78-18.78,49.63-38.42,49.63-38.42l3.85-12.81c-1.33,1.73-17.87,23.32-66.93,48.37Z"/>
        <path class="cls-30" d="M218.96,47.93c-54.7,0-103.05,27.55-131.74,69.63,1.65.16,32.05-3.44,66.93-21.18,49.06-25.04,65.59-46.64,66.93-48.37-.71-.08-1.41-.08-2.12-.08Z"/>
        <path class="cls-28" d="M221.91,117.3s-41.46,29.91-97.65,41.37c-28.68,5.89-47.41,5.49-54.94,4.95l10.03,6.52s48.64,1.59,103.73-24.3c24.34-13.75,40.93-27.86,42.5-29.24l-3.68.71Z"/>
        <path class="cls-34" d="M211.04,175.11c-69.98,36.97-145.56,47.76-148.77,48.39l14.16,4.54s81.45-17.04,135.98-46.52c80.1-43.3,110.41-78.15,110.41-78.15l3.38-11.82s-38.45,42.98-115.17,83.56Z"/>
        <path class="cls-35" d="M235.07,52.93c-.78,1.73-14.89,29.83-57.52,54.09-51.49,29.36-92.4,25.75-94.51,25.51-5.56,9.73-10.27,20.17-13.71,31.09,7.52.55,26.25.94,54.94-4.95,56.19-11.46,97.65-41.37,97.65-41.37l3.68-.71c-1.57,1.38-18.16,15.49-42.5,29.24-15.71,8.87-34.62,17.6-54.91,22.65-38.24,9.42-55.8,10.2-62.69,9.89-2.43,10.91-3.68,22.29-3.68,33.83,0,3.85.16,7.61.47,11.3,3.21-.63,78.79-11.42,148.77-48.39,76.72-40.58,115.17-83.56,115.17-83.56-24.84-21.67-56.43-35.72-91.14-38.62Z"/>
        <path class="cls-33" d="M370.9,152l-14.28,4.3s-32.19,29.19-83.65,58.54c-39.07,22.28-98.09,43.19-124.27,51.98,2.18-.1,61.35-3.36,143.65-52.3,63.14-37.55,78.55-62.51,78.55-62.51Z"/>
        <path class="cls-31" d="M342.83,108.98l-10.67,4.64s-45.81,45.8-107.97,78.76c-62.15,32.96-145.16,48.83-145.16,48.83l-13.26,7.77c2.94-.3,88.47-10.94,163.29-51.36,84.45-45.62,113.76-88.64,113.76-88.64Z"/>
        <path class="cls-32" d="M370.9,152s-15.41,24.96-78.55,62.51c-82.31,48.95-141.47,52.2-143.65,52.3-.04,0-.21.01-.21.01,0,0,49.1-16.06,117.5-53.73,48.36-26.63,99.45-73.7,99.45-73.7-6.19-10.95-13.96-21.31-22.62-30.4,0,0-29.31,43.01-113.76,88.64-74.83,40.43-160.36,51.06-163.29,51.36,6.49,28.39,19.98,53.23,40.46,73.21,3.17-.6,59.7-.45,152.84-44.08,87.17-40.83,122.15-87.24,122.15-87.24-1.93-13.64-4.83-26.66-10.32-38.88Z"/>
        <path class="cls-1" d="M340.95,294.72l-7.59,9.22c5.3-5.6,7.59-9.22,7.59-9.22Z"/>
        <path class="cls-14" d="M333.36,303.94l7.59-9.22-4.12-2.84s-25.63,18.84-60.27,35.28c-34.64,16.44-59.67,24.63-59.67,24.63v5.4s28.74-.52,65.66-18.05c26.63-12.64,42.48-26.4,50.82-35.2Z"/>
        <path class="cls-11" d="M333.36,303.94c-8.34,8.81-24.19,22.56-50.82,35.2-36.92,17.53-65.66,18.05-65.66,18.05,0,0,38.42,8.47,74.39-6.31,39.15-16.09,49.68-56.16,49.68-56.16,0,0-2.28,3.62-7.59,9.22Z"/>
        <path class="cls-12" d="M378.36,216.7l-13.79,5.69c-13.59,11.96-40.16,38.74-99.13,67.73-54.4,26.75-98.99,34.9-121.97,39.87l-7-4.65-8.65,13.81s66.34.1,143.38-37.67c76.1-37.31,104.73-82.35,107.16-84.78Z"/>
        <path class="cls-13" d="M271.2,301.49c-77.04,37.77-143.38,37.67-143.38,37.67,16.3,11.46,32.2,17.03,52.26,21.66,0,0,48.9-8.24,103.1-34.59,56.97-27.69,81.38-58.66,85.46-62.58,5.56-14.76,8.85-30.54,9.72-46.94-2.43,2.43-31.06,47.47-107.16,84.78Z"/>
        <path class="cls-1" d="M340.51,294.8l-7.59,9.22c5.3-5.6,7.59-9.22,7.59-9.22Z"/>
        <path class="cls-22" d="M332.93,304.02l7.59-9.22-4.12-2.84s-25.63,18.84-60.27,35.28c-34.64,16.44-59.67,24.63-59.67,24.63v5.4s28.74-.52,65.66-18.05c26.63-12.64,42.48-26.4,50.82-35.2Z"/>
        <path class="cls-18" d="M332.93,304.02c-8.34,8.81-24.19,22.56-50.82,35.2-36.92,17.53-65.66,18.05-65.66,18.05,0,0,38.42,8.47,74.39-6.31,39.15-16.09,49.68-56.16,49.68-56.16,0,0-2.28,3.61-7.59,9.22Z"/>
      </g>
      <ellipse class="cls-16" cx="29.63" cy="94.33" rx="17.83" ry="17.86"/>
      <path class="cls-15" d="M51.77,33.81c-2.17-1.07-3.06-3.69-1.99-5.86,1.07-2.17,3.69-3.06,5.85-1.99,2.17,1.07,3.06,3.69,1.99,5.86-1.07,2.17-3.69,3.06-5.85,1.99Z"/>
      <path class="cls-21" d="M335.22,13.63c-2.17-1.07-3.06-3.69-1.99-5.86,1.07-2.17,3.69-3.06,5.85-1.99,2.17,1.07,3.06,3.69,1.99,5.86-1.07,2.17-3.69,3.06-5.85,1.99Z"/>
      <path class="cls-17" d="M348.38,76.02c-2.17-1.07-3.06-3.69-1.99-5.86s3.69-3.06,5.85-1.99,3.06,3.69,1.99,5.86c-1.07,2.17-3.69,3.06-5.85,1.99Z"/>
      <path class="cls-24" d="M420.38,51.86c-2.17-1.07-3.06-3.69-1.99-5.86,1.07-2.17,3.69-3.06,5.85-1.99s3.06,3.69,1.99,5.86c-1.07,2.17-3.69,3.06-5.85,1.99Z"/>
      <path class="cls-20" d="M369.94,43.33c-1.08-.53-1.53-1.84-.99-2.93s1.84-1.53,2.92-.99c1.08.53,1.53,1.84.99,2.93-.53,1.08-1.84,1.53-2.92.99Z"/>
      <path class="cls-23" d="M407.22,78.43c-1.08-.53-1.53-1.84-.99-2.93.53-1.08,1.84-1.53,2.92-.99,1.08.53,1.53,1.84.99,2.93s-1.84,1.53-2.92.99Z"/>
      <path class="cls-19" d="M385.35,126.89c-1.08-.53-1.53-1.84-.99-2.93s1.84-1.53,2.92-.99,1.53,1.84.99,2.93-1.84,1.53-2.92.99Z"/>
      <path class="cls-26" d="M299.6,4.15c-1.08-.53-1.53-1.84-.99-2.93.53-1.08,1.84-1.53,2.92-.99s1.53,1.84.99,2.93c-.53,1.08-1.84,1.53-2.92.99Z"/>
      <path class="cls-10" d="M411.58,192.26c-1.08-.53-1.53-1.84-.99-2.93.53-1.08,1.84-1.53,2.92-.99,1.08.53,1.53,1.84.99,2.93-.53,1.08-1.84,1.53-2.92.99Z"/>
      <path class="cls-27" d="M88.66,375.87c2.08,1.23,2.77,3.91,1.55,6-1.23,2.08-3.91,2.78-5.99,1.55s-2.77-3.91-1.55-6c1.23-2.08,3.91-2.78,5.99-1.55Z"/>
      <path class="cls-25" d="M80.19,312.66c2.08,1.23,2.77,3.91,1.55,6-1.23,2.08-3.91,2.78-5.99,1.55-2.08-1.23-2.77-3.91-1.55-6s3.91-2.78,5.99-1.55Z"/>
      <path class="cls-9" d="M6.59,331.37c2.08,1.23,2.77,3.91,1.55,6-1.23,2.08-3.91,2.78-5.99,1.55s-2.77-3.91-1.55-6c1.23-2.08,3.91-2.78,5.99-1.55Z"/>
      <path class="cls-5" d="M56.26,343.65c1.04.61,1.38,1.95.77,2.99-.61,1.04-1.95,1.39-2.99.77-1.04-.61-1.38-1.95-.77-2.99.61-1.04,1.95-1.39,2.99-.77Z"/>
      <path class="cls-7" d="M21.7,305.85c1.04.61,1.38,1.95.77,2.99-.61,1.04-1.95,1.39-2.99.77-1.04-.61-1.38-1.95-.77-2.99.61-1.04,1.95-1.39,2.99-.77Z"/>
      <path class="cls-8" d="M47.13,259.17c1.04.61,1.38,1.95.77,2.99-.61,1.04-1.95,1.39-2.99.77-1.04-.61-1.38-1.95-.77-2.99.61-1.04,1.95-1.39,2.99-.77Z"/>
      <path class="cls-6" d="M123.47,387.99c1.04.61,1.38,1.95.77,2.99s-1.95,1.39-2.99.77c-1.04-.61-1.38-1.95-.77-2.99s1.95-1.39,2.99-.77Z"/>
      <path class="cls-4" d="M25.84,192.02c1.04.61,1.38,1.95.77,2.99-.61,1.04-1.95,1.39-2.99.77-1.04-.61-1.38-1.95-.77-2.99.61-1.04,1.95-1.39,2.99-.77Z"/>
    </g>
  </g>
</svg>