<?xml version="1.0" encoding="UTF-8"?>
<svg id="Layer_2" data-name="Layer 2" xmlns="http://www.w3.org/2000/svg" xmlns:xlink="http://www.w3.org/1999/xlink" viewBox="0 0 428.4 358.13">
  <defs>
    <style>
      .cls-1 {
        fill: url(#linear-gradient-11);
      }

      .cls-1, .cls-2, .cls-3, .cls-4, .cls-5, .cls-6, .cls-7, .cls-8, .cls-9, .cls-10, .cls-11, .cls-12, .cls-13, .cls-14, .cls-15, .cls-16, .cls-17, .cls-18, .cls-19, .cls-20 {
        stroke-width: 0px;
      }

      .cls-1, .cls-11 {
        opacity: .48;
      }

      .cls-2 {
        fill: url(#linear-gradient-15);
        mix-blend-mode: multiply;
      }

      .cls-21 {
        mask: url(#mask);
      }

      .cls-3 {
        opacity: .78;
      }

      .cls-3, .cls-7 {
        fill: #f3ffae;
      }

      .cls-4 {
        fill: url(#linear-gradient);
      }

      .cls-22 {
        filter: url(#luminosity-noclip);
      }

      .cls-5 {
        fill: url(#linear-gradient-17);
      }

      .cls-6 {
        fill: #aee175;
        opacity: .77;
      }

      .cls-7 {
        opacity: .87;
      }

      .cls-8 {
        fill: url(#linear-gradient-16);
        opacity: .47;
      }

      .cls-9 {
        fill: url(#linear-gradient-5);
      }

      .cls-9, .cls-10, .cls-17, .cls-18, .cls-19, .cls-20 {
        opacity: .62;
      }

      .cls-10 {
        fill: url(#linear-gradient-9);
      }

      .cls-11 {
        fill: url(#linear-gradient-6);
      }

      .cls-12 {
        fill: url(#linear-gradient-4);
      }

      .cls-13 {
        fill: url(#linear-gradient-2);
      }

      .cls-14 {
        fill: url(#linear-gradient-3);
      }

      .cls-15 {
        fill: url(#linear-gradient-8);
      }

      .cls-16 {
        fill: url(#linear-gradient-7);
      }

      .cls-17 {
        fill: url(#linear-gradient-14);
      }

      .cls-18 {
        fill: url(#linear-gradient-13);
      }

      .cls-19 {
        fill: url(#linear-gradient-12);
      }

      .cls-20 {
        fill: url(#linear-gradient-10);
      }

      .cls-23 {
        mask: url(#mask-1);
      }
    </style>
    <linearGradient id="linear-gradient" x1="256.23" y1="16.53" x2="289.24" y2="16.53" gradientUnits="userSpaceOnUse">
      <stop offset=".03" stop-color="#efff69"/>
      <stop offset=".69" stop-color="#b5dc7d"/>
      <stop offset=".99" stop-color="#38997a"/>
    </linearGradient>
    <linearGradient id="linear-gradient-2" x1="309.93" y1="38.53" x2="323.76" y2="38.53" xlink:href="#linear-gradient"/>
    <linearGradient id="linear-gradient-3" x1="103.22" y1="100.37" x2="349.14" y2="349.04" gradientUnits="userSpaceOnUse">
      <stop offset="0" stop-color="#f5fc64"/>
      <stop offset="1" stop-color="#0063ed"/>
    </linearGradient>
    <linearGradient id="linear-gradient-4" x1="103.27" y1="100.53" x2="349.07" y2="349.07" gradientUnits="userSpaceOnUse">
      <stop offset="0" stop-color="#d1d94f"/>
      <stop offset="1" stop-color="#00577c"/>
    </linearGradient>
    <linearGradient id="linear-gradient-5" x1="457.3" y1="36.08" x2="37.78" y2="327.99" xlink:href="#linear-gradient-4"/>
    <linearGradient id="linear-gradient-6" x1="252.57" y1="466.91" x2="313.93" y2="173.25" gradientUnits="userSpaceOnUse">
      <stop offset="0" stop-color="#48724b"/>
      <stop offset=".9" stop-color="#004131"/>
    </linearGradient>
    <linearGradient id="linear-gradient-7" x1="141.69" y1="157.47" x2="366.95" y2="99.27" xlink:href="#linear-gradient-4"/>
    <linearGradient id="linear-gradient-8" x1="83.53" y1="164.73" x2="293.59" y2="198.62" xlink:href="#linear-gradient-4"/>
    <linearGradient id="linear-gradient-9" x1="39.68" y1="151.41" x2="165.04" y2="320.04" gradientUnits="userSpaceOnUse">
      <stop offset="0" stop-color="#debe36"/>
      <stop offset="1" stop-color="#0052bb"/>
    </linearGradient>
    <linearGradient id="linear-gradient-10" x1="304.76" y1="60.24" x2="223.62" y2="136.36" xlink:href="#linear-gradient-4"/>
    <linearGradient id="linear-gradient-11" x1="-39.93" y1="296.86" x2="213.27" y2="296.86" gradientUnits="userSpaceOnUse">
      <stop offset="0" stop-color="#48b34b"/>
      <stop offset="1" stop-color="#00483b"/>
    </linearGradient>
    <linearGradient id="linear-gradient-12" x1="234.27" y1="64.9" x2="161.64" y2="187.02" gradientUnits="userSpaceOnUse">
      <stop offset="0" stop-color="#ebd836"/>
      <stop offset="1" stop-color="#5ea459"/>
    </linearGradient>
    <linearGradient id="linear-gradient-13" x1="129.46" y1="48.71" x2="100.96" y2="230.06" xlink:href="#linear-gradient-12"/>
    <linearGradient id="linear-gradient-14" x1="139.73" y1="88.38" x2="232.27" y2="88.38" xlink:href="#linear-gradient-12"/>
    <filter id="luminosity-noclip" x="53.59" y="63.07" width="303.3" height="292.39" color-interpolation-filters="sRGB" filterUnits="userSpaceOnUse">
      <feFlood flood-color="#fff" result="bg"/>
      <feBlend in="SourceGraphic" in2="bg"/>
    </filter>
    <filter id="luminosity-noclip-2" x="53.59" y="-7770.32" width="303.3" height="32766" color-interpolation-filters="sRGB" filterUnits="userSpaceOnUse">
      <feFlood flood-color="#fff" result="bg"/>
      <feBlend in="SourceGraphic" in2="bg"/>
    </filter>
    <mask id="mask-1" x="53.59" y="-7770.32" width="303.3" height="32766" maskUnits="userSpaceOnUse"/>
    <linearGradient id="linear-gradient-15" x1="53.59" y1="209.26" x2="356.88" y2="209.26" gradientUnits="userSpaceOnUse">
      <stop offset="0" stop-color="#fff"/>
      <stop offset="1" stop-color="#000"/>
    </linearGradient>
    <mask id="mask" x="53.59" y="63.07" width="303.3" height="292.39" maskUnits="userSpaceOnUse">
      <g class="cls-22">
        <g class="cls-23">
          <path class="cls-2" d="M356.88,203.55c0,83.87-67.84,151.9-151.65,151.9-51.6,0-97.12-25.81-124.48-65.22-17.14-24.59-27.17-54.43-27.17-86.68,0-63.38,38.8-117.73,93.92-140.48,12.8,4.81,23.93,14.15,30.68,28.03,9.95,20.33,7.07,46.25-7.07,63.89-8.86,11.06-21.27,18.57-33.49,25.73-12.22,7.16-24.79,14.31-34.16,24.95-40.52,45.82,14.05,106.51,58.04,121.91,20.26,7.08,42.47,9.7,63.82,7.7,18.03-1.72,40.75-6.92,55.59-17.44,61.32-43.44,70.89-104.2,68.9-160.27,4.61,14.51,7.07,29.95,7.07,45.98Z"/>
        </g>
      </g>
    </mask>
    <linearGradient id="linear-gradient-16" x1="53.59" y1="209.26" x2="356.88" y2="209.26" gradientUnits="userSpaceOnUse">
      <stop offset="0" stop-color="#ffffef"/>
      <stop offset="1" stop-color="#ffffb0"/>
    </linearGradient>
    <linearGradient id="linear-gradient-17" x1="-14.86" y1="206.62" x2="419.53" y2="206.62" gradientTransform="translate(7.12 8.87) rotate(-1.44)" xlink:href="#linear-gradient"/>
  </defs>
  <g id="_ÎÓÈ_1" data-name="—ÎÓÈ_1">
    <g>
      <ellipse class="cls-4" cx="272.73" cy="16.53" rx="16.5" ry="16.53"/>
      <ellipse class="cls-13" cx="316.85" cy="38.53" rx="6.91" ry="6.92"/>
      <g>
        <path class="cls-14" d="M356.88,203.55c0,83.87-67.84,151.9-151.65,151.9-51.6,0-97.12-25.81-124.48-65.22-17.14-24.59-27.17-54.43-27.17-86.68,0-63.38,38.8-117.73,93.92-140.48,17.8-7.35,37.28-11.42,57.73-11.42,55.98,0,104.85,30.34,131.12,75.58,5.54,9.5,10.07,19.67,13.47,30.34,4.61,14.51,7.07,29.95,7.07,45.98Z"/>
        <path class="cls-12" d="M289.25,161.93c-5.66,34.29-7.27,70.88-28.97,99.61-19.87,26.32-56.72,34.71-87.7,25.6-19.23-5.66-36.28-14.62-53.59-24.62-3.25-1.88-44.91-22.48-60.4-20.31,17.07,65.16,76.26,113.24,146.67,113.24,83.75,0,151.64-68,151.64-151.89,0-39.37-14.96-75.24-39.48-102.22-15.41,13.42-23.7,33.54-28.16,60.6Z"/>
        <path class="cls-9" d="M158.78,264.1c14.64,2.45,29.87,2.17,43.31-.05,23.52-3.88,43.15-21.75,53.68-43.17,17.49-35.57,2.05-82.7,34.23-111.11-12.66,11.18-21.8,19.95-25.36,37-3.54,16.92-8.57,33.85-18.2,48.18-9.64,14.34-24.46,25.9-41.55,28.32-18.6,2.64-36.37-5.38-54.16-9.34-13.53-3.01-38.52-5.85-42.2,13.31-1.41,7.33,3.28,14.54,9,19.32,11.27,9.43,25.94,14.98,41.26,17.54Z"/>
        <path class="cls-11" d="M322.74,178.89c-11.9.14-20.32,10.36-24.34,21.93-4.41,12.72-7.65,25.83-12.41,38.42-8.16,21.6-20.99,38.77-42.25,48.48,4.33-1.98,10.07-1.93,14.67-3.88,4.78-2.03,8.94-4.81,13.13-7.76,8.66-6.09,14.07-13.87,20.55-22.13,3.52-4.49,7.69-8.86,13.14-10.56,5.45-1.69,12.38.25,14.58,5.52.7,1.69.88,3.55.92,5.39.39,14.88-7.33,28.42-17.67,38.63-11.74,11.59-26.73,19.2-41.46,26.62,15.99-4.44,31.24-11.53,44.95-20.89,10.36-7.08,19.98-15.6,26.58-26.28,13.09-21.19,21.12-54.3,11.31-78.24-3.59-8.77-11.97-15.37-21.7-15.25Z"/>
        <path class="cls-16" d="M299.42,84.29c-1.66,1.21-3.25,2.49-4.78,3.83-3.89,3.26-7.33,6.71-10.01,9.58-8.61,9.33-15.11,20.57-18.81,32.77-6.06,20.18-11.41,49.95-36.48,54.04-16.13,2.62-35.2-8.18-32.78-26.38,1.02-7.47,5.1-14.18,9.69-20.06,4.65-5.94,9.95-11.37,13.96-17.69,4.66-7.22,7.53-15.39,12.5-22.36,6.76-9.52,16.96-16.1,27.8-20.31,2.81-1.09,5.61-2.04,8.48-2.87,4.02-1.21,8.03-2.17,12.12-3.07.7.38,1.4.83,2.1,1.28-3.19,1.15-6.38,2.36-9.57,3.71-7.33,3.07-14.41,6.71-20.98,11.18-1.08.7-2.1,1.47-3.19,2.24-13.2,9.97-23.72,24.72-25.12,41.26-.32,4.6,0,9.39,2.3,13.41,2.23,3.96,6.7,6.96,11.22,6.45,9.37-1.02,13.52-12.65,17.09-19.87,4.66-9.26,8.61-19.04,14.73-27.47,5.42-7.54,12.56-13.86,20.6-18.52,2.1-1.21,4.21-2.3,6.44-3.26l2.68,2.11Z"/>
        <path class="cls-15" d="M150.97,185.56c-.6.86-1.78,1.51-3.77,1.8-2.43.35-4.99-.22-7.31.57-4.86,1.65-5.94,8.67-3.16,12.99,2.77,4.32,7.92,6.42,12.85,7.83,7.09,2.03,14.41,3.15,21.7,4.27,9.29,1.43,18.75,2.85,28.04,1.47,13.5-2.02,25.46-9.8,35.9-18.62-10.71,5.86-20.02,11.48-31.94,14.08-8.78,1.91-20.54,1.51-28.7-2.26-8.16-3.77-14.08-13.61-10.76-21.98.68-1.72,1.75-3.34,3.25-4.41,4.22-3.01,10.18-.89,14.34,2.2,4.04,3,7.43,6.82,11.54,9.71,11.75,8.25,29.14,7.18,39.81-2.43-3.36,3.03-17.08,1.24-21.09.19-6.56-1.7-12.7-6.36-17.6-10.89-12.14-11.21-21.24-26.36-36-34.5-5.91-3.26-14.72-6.81-21.57-5.2-7.13,1.67-10.69,8.13-8.26,15.07,1.81,5.18,6.02,9.1,10.08,12.8,2.69,2.45,5.39,4.91,8.08,7.36,2.49,2.27,6.5,7.2,4.59,9.95Z"/>
        <path class="cls-10" d="M111.17,253.05c-7.52-7.22-17.79-7.35-27.04-10.8-5.67-2.11-11.35-4.34-17.09-6.58v-.06c-3.57-1.34-7.21-2.75-10.84-4.15-1.72-9.13-2.61-18.52-2.61-28.17,0-21.78,4.59-42.48,12.88-61.19,1.08-.51,2.3-.77,3.51-.83,4.34-.06,8.04,3,10.08,6.96.83,1.53,1.4,3.13,1.66,4.79,1.02,5.94-.51,12.01-1.34,18.01-.83,6-.64,12.65,3.19,17.31,1.59,1.98,3.83,3.51,5.04,5.81.64,1.41.89,2.94,1.08,4.47.83,6.52.57,13.16,1.91,19.55,1.34,6.45,4.66,12.97,10.52,15.9-6.31-1.34-11.1-6.52-14.67-11.94-2.55-3.9-4.78-8.18-7.59-11.94-3.7-4.85-6.89-3.58-7.59,2.68-.13.7-.13,1.47-.19,2.17-.13,8.82,4.85,17.63,12.56,21.97,3.12,1.79,6.7,2.87,10.08,4.28,6.19,2.68,11.86,6.71,16.45,11.75Z"/>
        <path class="cls-20" d="M289.09,76.76c-3.25.32-6.44,1.41-9.5,2.81-3.06,1.34-5.99,3-8.8,4.73-7.27,4.22-14.67,8.56-20.66,14.56-5.93,6-10.39,13.99-10.39,22.48,0,1.6.26,3.26,1.28,4.47,1.66,1.92,4.85,1.72,6.89.32,2.1-1.47,3.38-3.77,4.59-6,6.95-12.78,15.37-25.55,27.93-32.96,2.23-1.28,4.53-2.43,6.82-3.51,2.17-1.09,4.27-2.17,6.25-3.51.06-.06.19-.13.26-.19l-4.65-3.19Z"/>
        <path class="cls-1" d="M226.66,328.75c-3.38,3.96-8.16,6.45-13.07,8.05-23.53,7.86-49.17-3.38-63.83-22.23-12.44-15.97-23.34-32.58-41.39-42.93-10.2-5.88-22.26-9.07-33.86-7.28-.89.13-1.79.32-2.68.51-1.47.32-3.06.83-4.46,1.6-1.21-2.36-2.23-4.79-3.12-7.28.13-.38.38-.77.64-1.09,1.66-1.92,3.89-2.94,6.44-3.39,4.78-.89,10.52.26,14.67.83,8.42,1.09,16.64,6.52,23.66,11.05,15.37,9.9,29.14,22.36,45.79,30.15,13.71,6.45,29.08,9.39,44.19,8.5,5.61-.38,11.29-1.21,16.84-.32,5.55.96,11.1,4.02,13.2,9.26,1.85,4.85.32,10.54-3,14.56Z"/>
        <path class="cls-19" d="M209.13,104.78c-3.48-1.27-7.55.23-10.55,2.51-5.57,4.23-8.91,10.81-10.93,17.52-3.74,12.45-3.46,26.07.79,38.35-1.11-13.43,7.91-21.01,15.75-30.31,4.57-5.42,11.02-12.61,10.37-20.21-.27-3.1-1.94-6.21-4.74-7.57-.23-.11-.46-.21-.69-.29Z"/>
        <path class="cls-18" d="M152.69,60.79c-7.46,5.49-13.97,12.14-19.13,19.74-2.61,3.77-4.78,7.66-6.63,11.75-5.61,12.2-7.91,25.49-7.72,39.16,0,2.75.32,5.43.7,8.18,2.1,13.48,7.78,27.08,5.36,40.43-3,16.03-22,21.53-29.78,5.56-4.4-9.01-6.06-19.16-6.31-29.13-.25-9.84.89-19.67,3.25-29.19,4.21-17.31,12.44-33.6,24.04-47.14,11.03-7.98,23.21-14.56,36.22-19.35Z"/>
        <path class="cls-17" d="M223.85,52.55c-6.95,2.68-13.46,6.71-18.81,11.94-1.4,1.28-2.68,2.62-3.89,4.09-4.27,5.11-7.72,10.99-12.82,15.2-5.04,4.28-12.63,6.64-18.3,3.32-4.02-2.36-6.31-7.03-6.5-11.62-.06-.83-.06-1.73.06-2.56.26-3.77,1.59-7.35,3.32-10.73,1.15-2.24,2.55-4.47,3.76-6.77-3.7.83-7.33,1.85-10.97,2.94-1.53,4.53-3.57,9.01-6.06,13.6-1.21,2.24-2.49,4.41-3.76,6.64-5.29,9.2-10.46,18.78-10.14,29.57.13,3.19.76,6.45,2.42,9.13,2.93,4.66,8.74,7.03,14.22,6.9,5.48-.06,10.78-2.3,15.5-5.11,18.37-10.92,30.93-28.94,42.53-46.37,1.85-2.87,3.95-5.69,6.25-8.37,3.44-4.09,7.33-7.79,11.61-10.54l-8.42-1.28Z"/>
        <g class="cls-21">
          <path class="cls-8" d="M356.88,203.55c0,83.87-67.84,151.9-151.65,151.9-51.6,0-97.12-25.81-124.48-65.22-17.14-24.59-27.17-54.43-27.17-86.68,0-63.38,38.8-117.73,93.92-140.48,12.8,4.81,23.93,14.15,30.68,28.03,9.95,20.33,7.07,46.25-7.07,63.89-8.86,11.06-21.27,18.57-33.49,25.73-12.22,7.16-24.79,14.31-34.16,24.95-40.52,45.82,14.05,106.51,58.04,121.91,20.26,7.08,42.47,9.7,63.82,7.7,18.03-1.72,40.75-6.92,55.59-17.44,61.32-43.44,70.89-104.2,68.9-160.27,4.61,14.51,7.07,29.95,7.07,45.98Z"/>
        </g>
        <path class="cls-5" d="M380.82,86.71c2.7.95,4.37,3.76,4.84,6.6,1.45,8.85-6.1,16.69-14.04,20.83-7.94,4.13-17.06,6.38-23.7,12.4-8.03,7.29-10.81,18.54-15.35,28.39-7.03,15.23-19.16,28.05-33.97,35.89-14.48,7.67-31.09,10.57-45.61,18.17-15.08,7.9-27.15,20.46-38.47,33.19-11.13,12.51-19.98,18.89-36.44,20.56-18.5,1.89-38.5,3.96-56.65,8.11-22.03,5.03-41.91,16.6-62.27,26.43-4.79,2.31-9.76,4.57-15.07,4.84-5.31.27-11.07-1.9-13.61-6.58-4.55-8.38,3.12-17.96,10.16-24.38,4.35-3.97,8.71-7.95,13.06-11.92-23.77,8.97-43.4,28.37-52.69,52.05-1.19,3.04-1.81,7.33,1.08,8.85,1.5.79,3.32.4,5,.17,11.49-1.54,23.36,7.46,25.01,18.95.89,6.2-.24,13.92,4.96,17.41,9.23,6.2,23.56-8.96,29.4-15.1,9.47-9.97,15.24-19.07,30.02-21.47,13.05-2.12,26.3.86,39.37,2.88,13.06,2.02,27.03,2.97,38.94-2.79,14.5-7.01,22.85-22.35,35.06-32.87,17.29-14.89,40.96-19.13,63.04-24.83,22.08-5.71,45.56-14.95,56.54-34.97,8.88-16.19,7.83-36.66,17.74-52.24,7.82-12.3,20.97-19.3,33.18-26.45,9.04-5.3,28.97-13.94,30.13-25.63.56-5.65-2.18-11.25-1.58-16.89.57-5.33,4.01-9.89,7.67-13.81,3.66-3.92,7.74-7.61,10.12-12.41,2.38-4.81,2.6-11.2-1.13-15.04-4.66-4.81-12.59-3.41-18.95-1.32-8.37,2.75-16.57,6.1-25.2,7.87-12.88,2.64-25.46-1.62-38.39,1.22-13.58,2.99-15.94,11.9-22.85,21.71,10.92-10.26,51.25-11.11,60.68-7.79Z"/>
        <path class="cls-3" d="M191.9,278.11c-2.77-1.18-6.46,1.96-8.33,3.57-7.13,6.13-13.11,11.12-22.34,13.64-11.34,3.09-23.65.85-34.91,4.24-3.05.92-10.93,5.76-6.45,9.02,3.02,2.19,10.22,2.36,13.87,3.01,5.33.94,10.73,1.58,16.15,1.56,10.98-.03,22.33-2.96,30.57-10.23,4.65-4.12,8.86-10.21,11.63-15.72,1.1-2.19,3.01-5.69,1.23-7.96-.43-.55-.91-.91-1.42-1.13Z"/>
        <path class="cls-7" d="M301.03,238.11c-.7-.79-1.83-1.55-3.47-2.26-5.95-2.58-15.2-.16-21.11,1.63-6.46,1.96-16.52,5.84-20.63,11.59-4.78,6.68,5.36,7.34,9.23,6.53,6.78-1.42,13.56-2.85,20.34-4.27,4.95-1.04,20.51-7.75,15.64-13.21Z"/>
        <path class="cls-7" d="M321.94,209.49c-1.26-.23-2.87-.15-4.9.33-5.59,1.35-9.98,5.28-12.08,10.62-1.17,2.96-3.89,10.71-.4,13.02,5.6,3.7,15.27-7.39,17.95-11.02,3.6-4.86,4.96-11.93-.57-12.95Z"/>
        <path class="cls-6" d="M398.16,111.31c-2.29,1.01-4.71,4.84-6.49,7.36-2.54,3.6-5.6,6.07-9.39,8.54-3.16,2.06-6.32,4.12-9.48,6.18-7.01,4.57-15.53,14.46-1.67,11.77,5.99-1.16,12.26-4.43,17.52-7.48,4.1-2.38,8.14-5.06,11.03-8.81,2.89-3.76,4.47-8.8,3.1-13.34-1.25-4.15-2.9-4.97-4.62-4.22Z"/>
      </g>
    </g>
  </g>
</svg>