<?xml version="1.0" encoding="UTF-8"?>
<svg id="Layer_2" data-name="Layer 2" xmlns="http://www.w3.org/2000/svg" xmlns:xlink="http://www.w3.org/1999/xlink" viewBox="0 0 362.17 359.58">
  <defs>
    <style>
      .cls-1 {
        fill: url(#linear-gradient-7);
      }

      .cls-1, .cls-2 {
        mix-blend-mode: multiply;
      }

      .cls-1, .cls-2, .cls-3, .cls-4, .cls-5, .cls-6, .cls-7, .cls-8, .cls-9, .cls-10, .cls-11 {
        stroke-width: 0px;
      }

      .cls-2 {
        fill: url(#linear-gradient-9);
      }

      .cls-12 {
        filter: url(#luminosity-noclip-3);
      }

      .cls-13 {
        mask: url(#mask);
      }

      .cls-3 {
        fill: url(#linear-gradient);
      }

      .cls-14 {
        filter: url(#luminosity-noclip);
      }

      .cls-4 {
        fill: url(#linear-gradient-10);
      }

      .cls-5 {
        fill: url(#linear-gradient-8);
        opacity: .57;
      }

      .cls-6 {
        fill: #78fffb;
        opacity: .15;
      }

      .cls-7 {
        fill: url(#linear-gradient-4);
      }

      .cls-8 {
        fill: url(#linear-gradient-2);
      }

      .cls-9 {
        fill: url(#linear-gradient-3);
      }

      .cls-10 {
        fill: url(#linear-gradient-5);
      }

      .cls-11 {
        fill: url(#linear-gradient-6);
      }

      .cls-15 {
        mask: url(#mask-3);
      }

      .cls-16 {
        mask: url(#mask-2);
      }

      .cls-17 {
        mask: url(#mask-1);
      }
    </style>
    <linearGradient id="linear-gradient" x1="57.78" y1="269.88" x2="315.1" y2="82.4" gradientUnits="userSpaceOnUse">
      <stop offset=".15" stop-color="#59ff8e"/>
      <stop offset=".59" stop-color="#00b7c7"/>
      <stop offset=".95" stop-color="#0057f9"/>
    </linearGradient>
    <linearGradient id="linear-gradient-2" x1="8.15" y1="192.66" x2="224.6" y2="34.59" gradientUnits="userSpaceOnUse">
      <stop offset=".02" stop-color="#59f377"/>
      <stop offset=".51" stop-color="#00abaf"/>
      <stop offset=".95" stop-color="#0057d6"/>
    </linearGradient>
    <linearGradient id="linear-gradient-3" x1="42.01" y1="239.17" x2="258.5" y2="81.07" xlink:href="#linear-gradient-2"/>
    <linearGradient id="linear-gradient-4" x1="88.37" y1="302.73" x2="304.86" y2="144.63" xlink:href="#linear-gradient-2"/>
    <linearGradient id="linear-gradient-5" x1="-16.12" y1="159.37" x2="200.35" y2="1.28" xlink:href="#linear-gradient-2"/>
    <linearGradient id="linear-gradient-6" x1="129.65" y1="359.34" x2="346.09" y2="201.28" xlink:href="#linear-gradient-2"/>
    <filter id="luminosity-noclip" x="99.06" y="27.88" width="234.06" height="273.39" color-interpolation-filters="sRGB" filterUnits="userSpaceOnUse">
      <feFlood flood-color="#fff" result="bg"/>
      <feBlend in="SourceGraphic" in2="bg"/>
    </filter>
    <filter id="luminosity-noclip-2" x="99.06" y="-8587.9" width="234.06" height="32766" color-interpolation-filters="sRGB" filterUnits="userSpaceOnUse">
      <feFlood flood-color="#fff" result="bg"/>
      <feBlend in="SourceGraphic" in2="bg"/>
    </filter>
    <mask id="mask-1" x="99.06" y="-8587.9" width="234.06" height="32766" maskUnits="userSpaceOnUse"/>
    <linearGradient id="linear-gradient-7" x1="99.06" y1="164.58" x2="333.12" y2="164.58" gradientUnits="userSpaceOnUse">
      <stop offset="0" stop-color="#fff"/>
      <stop offset="1" stop-color="#000"/>
    </linearGradient>
    <mask id="mask" x="99.06" y="27.88" width="234.06" height="273.39" maskUnits="userSpaceOnUse">
      <g class="cls-14">
        <g class="cls-17">
          <path class="cls-1" d="M333.12,180.2c-.07,33.3-11.02,66.79-33.47,94.76-4,5.01-8.3,9.72-12.82,14.06-1.47,1.44-2.94,2.83-4.48,4.2-3.2,2.83-6.47,5.56-9.85,8.06,22.67-36.25,60.95-99.66,32.15-157.03-15.87-31.65-49.6-40.92-76.53-38.49-16.83,1.51-32.84,7.54-49.19,11.92-16.31,4.38-33.84,7.07-49.93,1.91-34.06-10.86-35.27-44.82-22.34-71.94,13.08-7.47,27.04-12.84,41.48-16.05h.04c8.52-1.91,17.19-3.09,25.9-3.53h.04c24.14-1.18,48.68,3.39,71.31,13.95,10.87,5.08,21.27,11.56,31.01,19.36.18.15.4.29.55.44,5.88,4.78,11.28,9.86,16.28,15.31,8.23,8.98,15.25,18.8,20.94,29.18,6.72,12.18,11.68,25.1,14.81,38.38,2.76,11.63,4.11,23.59,4.11,35.51Z"/>
        </g>
      </g>
    </mask>
    <linearGradient id="linear-gradient-8" x1="99.06" y1="164.58" x2="333.12" y2="164.58" gradientUnits="userSpaceOnUse">
      <stop offset="0" stop-color="#fff"/>
      <stop offset="1" stop-color="#9cffff"/>
    </linearGradient>
    <filter id="luminosity-noclip-3" x="51.49" y="137.68" width="71.66" height="110.55" color-interpolation-filters="sRGB" filterUnits="userSpaceOnUse">
      <feFlood flood-color="#fff" result="bg"/>
      <feBlend in="SourceGraphic" in2="bg"/>
    </filter>
    <filter id="luminosity-noclip-4" x="51.49" y="-8587.9" width="71.66" height="32766" color-interpolation-filters="sRGB" filterUnits="userSpaceOnUse">
      <feFlood flood-color="#fff" result="bg"/>
      <feBlend in="SourceGraphic" in2="bg"/>
    </filter>
    <mask id="mask-3" x="51.49" y="-8587.9" width="71.66" height="32766" maskUnits="userSpaceOnUse"/>
    <linearGradient id="linear-gradient-9" x1="58.61" y1="109.72" x2="107.17" y2="250.48" xlink:href="#linear-gradient-7"/>
    <mask id="mask-2" x="51.49" y="137.68" width="71.66" height="110.55" maskUnits="userSpaceOnUse">
      <g class="cls-12">
        <g class="cls-15">
          <ellipse class="cls-2" cx="87.32" cy="192.95" rx="35.83" ry="55.27"/>
        </g>
      </g>
    </mask>
    <linearGradient id="linear-gradient-10" x1="58.61" y1="109.72" x2="107.17" y2="250.48" xlink:href="#linear-gradient-8"/>
  </defs>
  <g id="_ÎÓÈ_1" data-name="—ÎÓÈ_1">
    <g>
      <path class="cls-6" d="M105.42,324.93c-18.95-11.32-43.51-13.93-58.2-30.42-18.74-21.03-12.66-53.97-22.46-80.39-4.8-12.95-13.4-24.14-19.18-36.69-5.78-12.55-8.43-27.98-1.21-39.75,6.97-11.36,20.27-15.85,29.44-24.85,10.89-10.68,17.31-25.38,22.73-39.38,7.78-20.12,15.76-42.07,33.84-53.79,28.21-18.29,66.18-3.14,98.87-10.94,14.87-3.55,29.93-11.94,44.53-7.41,17.98,5.56,25.66,27.87,42.58,36.11,10.4,5.07,23.11,4.17,33.04,10.11,9.06,5.43,14.16,15.63,17.27,25.73,3.11,10.11,4.75,20.73,9.24,30.31,8.88,18.92,28.9,34.85,25.96,55.55-.82,5.76-3.44,11.09-4.92,16.71-5.1,19.37,3.29,41.99-7.38,58.93-6.06,9.62-17.2,15.23-23,25.01-8.71,14.69-3.03,34.32-10.33,49.76-5.91,12.48-19.18,19.75-32.32,23.93-13.15,4.17-27.07,6.13-39.5,12.1-12.72,6.1-25.33,16.58-39.08,13.45-11.22-2.55-19.03-13.69-30.3-16-12.14-2.5-23.08,6.62-34.93,3.74-12.72-3.1-23.71-15.29-34.7-21.81Z"/>
      <path class="cls-6" d="M274.77,312.19c-17.66,12.08-29.98,32.64-50.44,38.86-26.11,7.93-52.54-10.85-79.74-13-13.33-1.05-26.66,1.96-40.03,1.93-13.37-.03-28-3.98-35.39-15.15-7.13-10.78-5.65-24.32-9.81-36.07-4.93-13.95-15.22-25.59-25.31-36.08-14.49-15.06-30.51-31.03-33.42-51.74-4.55-32.31,24.23-59.58,30.71-91.56,2.95-14.55,1.73-31.23,11.65-42.25,12.22-13.57,34.93-11.24,49.07-22.78,8.69-7.1,13.08-18.66,22.35-24.98,8.46-5.77,19.49-6.1,29.64-4.72,10.14,1.38,20.14,4.27,30.37,4.22,20.23-.11,42.38-11.25,59.36-.22,4.72,3.07,8.33,7.56,12.67,11.15,14.93,12.39,38.2,14.23,48.73,30.54,5.98,9.26,6.36,21.36,12.58,30.46,9.35,13.66,28.9,16.66,39.47,29.39,8.55,10.29,9.52,24.95,7.83,38.23-1.7,13.28-5.66,26.34-5.49,39.73.17,13.69,4.23,29.07-4.13,39.91-6.82,8.84-19.78,11.18-26.41,20.16-7.14,9.67-3.6,23.03-10.96,32.29-7.9,9.94-23.09,14.66-33.29,21.67Z"/>
      <path class="cls-3" d="M333.12,180.2c-.07,33.3-11.02,66.79-33.47,94.76-4,5.01-8.3,9.72-12.82,14.06-1.47,1.44-2.94,2.83-4.48,4.2-3.2,2.83-6.47,5.56-9.85,8.06-20.61,15.6-44.56,25.32-69.33,28.85h-.04c-27.11,3.9-55.29.51-81.19-10.56h-.04c-12.42-5.34-24.36-12.4-35.45-21.34-3.89-3.16-7.64-6.48-11.17-9.94-14.48-14.17-25.53-30.69-33.14-48.47v-.04c-3.23-7.54-5.84-15.24-7.79-23.15-5.73-23.04-6.06-47.25-.77-70.58,2.17-9.53,5.22-18.92,9.3-28.01,4.41-9.97,10.03-19.65,16.79-28.78,1.14-1.55,2.35-3.09,3.56-4.64,8.93-11.11,19.1-20.64,30.13-28.52,2.79-1.99,5.66-3.94,8.56-5.67,1.58-.96,3.16-1.91,4.74-2.8,13.08-7.47,27.04-12.84,41.48-16.05h.04c8.52-1.91,17.19-3.09,25.9-3.53h.04c24.14-1.18,48.68,3.39,71.31,13.95,10.87,5.08,21.27,11.56,31.01,19.36.18.15.4.29.55.44,5.88,4.78,11.28,9.86,16.28,15.31,8.23,8.98,15.25,18.8,20.94,29.18,6.72,12.18,11.68,25.1,14.81,38.38,2.76,11.63,4.11,23.59,4.11,35.51Z"/>
      <path class="cls-8" d="M276.98,61.82c-2.85,3.05-7.22,4.45-11.37,5.35-18.92,4.25-40.14,2.56-55.95,13.79-18.59,13.24-24,40.72-44.12,51.53-14.06,7.59-37.35,6.07-52.25.36-11.21-4.32-45.06-17.33-70.43-14.8,4.44-9.99,10.04-19.66,16.81-28.78,16.62,1.91,32.14,9.31,38.19,12.46,13.67,7.14,30.52,10.51,44.48,3.96,21.61-10.16,29.12-39.95,51.31-48.84,16.07-6.42,37-.49,49.56-12.4.81-.78,1.52-1.59,2.2-2.43,10.85,5.06,21.25,11.52,31,19.34.19.16.39.29.55.45Z"/>
      <path class="cls-9" d="M314.21,106.31c-2.98.78-5.86,1.88-8.62,3.28-23.91,12.2-29.74,43.13-44.28,63.47-20.02,28.04-57.44,42.38-91.03,34.92-24.36-5.42-46.88-17.52-71.79-19.08-29.84-1.91-51.93,12.27-64.14,27.74-5.73-23.04-6.06-47.25-.75-70.61,2.75-.91,5.6-1.62,8.46-2.17,11.63-2.27,23.65-2.4,35.31-.39,19.28,3.34,37,12.33,55.23,19.37,18.24,7.04,38.23,12.23,57.21,7.63,40.36-9.8,42.47-54.81,71.89-77.23,9.46-7.2,20.21-12.49,31.55-16.13,8.23,8.99,15.26,18.82,20.96,29.2Z"/>
      <path class="cls-7" d="M333.12,180.2c-6.61,2.86-12.67,6.91-17.69,12.04-16.85,17.13-21.12,42.93-34.47,62.89-4.54,6.78-10.33,13.01-17.85,16.13-5.25,2.21-11.05,2.76-16.72,2.4-13.96-.88-27.05-6.91-40.72-9.9-13.67-3.02-29.74-2.21-39.23,8.11-6.19,6.75-8.62,16.58-15.65,22.45-7.22,6.04-17.72,6.39-26.86,4.19-9.17-2.21-17.62-6.65-26.63-9.31-7.13-2.11-15.06-3.02-22.03-.91-14.48-14.18-25.56-30.7-33.14-48.48v-.03c2.75-2.69,5.86-4.96,9.49-6.49,15.45-6.55,33.24,2.53,45.32,14.25,5.15,5,10.33,10.84,17.4,12.2,7.94,1.56,15.74-3.02,21.9-8.27s11.79-11.49,19.37-14.34c14.38-5.45,34.27,2.04,48.75,4.87,15.68,3.08,32.27-1.1,45.81-9.57,13.54-8.47,24.26-20.96,32.49-34.66,4.96-8.27,9.1-17.04,14.58-24.99,5.67-8.27,17.98-19.73,31.75-28.07,2.75,11.62,4.11,23.56,4.11,35.5Z"/>
      <path class="cls-10" d="M174.06,28.08c-.97,1.23-1.94,2.5-2.82,3.8-7.65,11-13.44,23.88-24.3,31.7-10.85,7.82-26.05,9.12-38.06,3.28-5.67-2.76-10.53-6.88-15.52-10.74,2.79-2.01,5.64-3.93,8.55-5.68,3.17,1.65,6.45,2.99,9.98,3.47,11.69,1.65,22.64-6.26,30.42-15.19,2.01-2.3,3.95-4.71,5.83-7.14h.03c8.52-1.91,17.17-3.08,25.88-3.5Z"/>
      <path class="cls-11" d="M286.83,289.03c-1.46,1.43-2.95,2.82-4.47,4.19-23.42,3.8-46,12.88-65.41,26.58-4.7,3.31-9.2,6.88-13.8,10.32h-.03c-27.11,3.93-55.27.52-81.18-10.55,5.54-2.69,12.38-3.28,18.66-2.69,9.36.88,18.63,3.73,28.02,3.12,24.78-1.59,42.34-26.09,66.44-31.96,9.62-2.34,19.66-1.56,29.54-.78,7.39.58,14.8,1.2,22.22,1.78Z"/>
      <g class="cls-13">
        <path class="cls-5" d="M333.12,180.2c-.07,33.3-11.02,66.79-33.47,94.76-4,5.01-8.3,9.72-12.82,14.06-1.47,1.44-2.94,2.83-4.48,4.2-3.2,2.83-6.47,5.56-9.85,8.06,22.67-36.25,60.95-99.66,32.15-157.03-15.87-31.65-49.6-40.92-76.53-38.49-16.83,1.51-32.84,7.54-49.19,11.92-16.31,4.38-33.84,7.07-49.93,1.91-34.06-10.86-35.27-44.82-22.34-71.94,13.08-7.47,27.04-12.84,41.48-16.05h.04c8.52-1.91,17.19-3.09,25.9-3.53h.04c24.14-1.18,48.68,3.39,71.31,13.95,10.87,5.08,21.27,11.56,31.01,19.36.18.15.4.29.55.44,5.88,4.78,11.28,9.86,16.28,15.31,8.23,8.98,15.25,18.8,20.94,29.18,6.72,12.18,11.68,25.1,14.81,38.38,2.76,11.63,4.11,23.59,4.11,35.51Z"/>
      </g>
      <g class="cls-16">
        <ellipse class="cls-4" cx="87.32" cy="192.95" rx="35.83" ry="55.27"/>
      </g>
    </g>
  </g>
</svg>