<?xml version="1.0" encoding="UTF-8"?>
<svg xmlns="http://www.w3.org/2000/svg" viewBox="0 0 1920.18 169.5">
  <defs>
    <style>
      .cls-1 {
        opacity: .2;
      }

      .cls-2 {
        opacity: .35;
      }

      .cls-3 {
        fill: #fff;
        stroke-width: 0px;
      }
    </style>
  </defs>
  <g id="Layer_4" data-name="Layer 4">
    <g class="cls-1">
      <path class="cls-3" d="M1909.97,168.64c-188.98-.37-425.25-.37-949.83-.37s-836.05,0-949.83.37C-79.03,168.93,435.6,0,960.18,0s1039.14,168.81,949.79,168.64Z"/>
    </g>
  </g>
  <g id="Layer_3" data-name="Layer 3">
    <g class="cls-2">
      <path class="cls-3" d="M1909.83,169.05c-188.98-.37-425.25-.37-949.83-.37s-836.05,0-949.83.37c-89.34.29,425.25-122.05,949.83-122.05s1039.18,122.23,949.83,122.05Z"/>
    </g>
  </g>
  <g id="Layer_1" data-name="Layer 1">
    <path class="cls-3" d="M1910.01,169.5c-188.98-.23-425.25-.23-949.83-.23s-836.05,0-949.83.23c-89.34.18,425.25-74.5,949.83-74.5s1039.18,74.61,949.83,74.5Z"/>
  </g>
</svg>