<?xml version="1.0" encoding="UTF-8"?>
<svg id="_ëÎÓÈ_1" data-name="ëÎÓÈ 1" xmlns="http://www.w3.org/2000/svg" viewBox="0 0 860 175.74">
  <defs>
    <style>
      .cls-1 {
        stroke-width: 0px;
      }
    </style>
  </defs>
  <path class="cls-1" d="M857.92,173.59s-3.35-.21-9.62-.59c-.32-.02-.64-.03-.97-.05-.07-.12-.15-.25-.23-.39-.37-.62-.84-1.38-1.23-2.45-.51-1.36-.73-2.36-.96-3.42-.05-.21-.09-.42-.14-.63-.29-1.29-.18-2.67-.13-2.9.01-.06.03-.1.05-.15.05-.15.11-.3.05-.72-.07-.54.03-1.68.12-1.92.09-.24.13-.4.08-.71-.03-.17,0-.37.02-.53.01-.1.03-.19.03-.27,0-.07.03-.12.07-.17.05-.07.11-.15.08-.31-.05-.23.11-1.6.25-1.85.09-.14.1-.17.08-.24,0-.04-.02-.11.01-.31.06-.42.26-1.21.28-1.29.12-.21.07-.54.06-.59.07-1.02.45-2.01.45-2.02,0,0,0-.02,0-.03.04.06.06.12.06.13,0,0,0,0,0,.01.16.35.16,1.53.16,1.55,0,.02,0,.04.03.05.02.01.04.01.05,0,.23-.12.34-.62.39-.91.18.59,0,1.6,0,1.61,0,.02,0,.04.02.05.02.01.04.02.06,0,.25-.1.38-.43.44-.63.16.63-.32,2.04-.32,2.06,0,.02,0,.05.02.06.02.01.05.01.07,0,.44-.31.61-.67.68-.91.12.77-.34,2.45-.34,2.47,0,.02,0,.05.02.06.02.01.04.01.06,0,.5-.34.63-.94.65-1.35.14.94-.25,2.73-.25,2.75,0,.02,0,.04.02.05.01,0,.02.01.04.01,0,0,.01,0,.02,0,1.15-.47,1.19-2.21,1.17-2.81.21.4.3,1.21.3,1.22,0,.03.02.05.05.05.03,0,.05-.02.06-.04.33-1.27.21-2.45.17-2.78.3.16.67.93.79,1.24,0,.02.03.04.06.03.03,0,.04-.02.05-.05.09-1.06-.38-1.94-.56-2.23.46.13,1.05.96,1.06.97.01.02.04.03.06.02.02,0,.04-.03.04-.05,0-.72-.71-1.85-.95-2.21.27.12.62.56.74.74.01.02.04.03.06.02.02,0,.04-.03.04-.05,0-.71-.92-1.9-1.21-2.26.26.06.51.26.51.26.02.01.04.02.06,0,.02-.01.03-.04.02-.06-.14-.57-.99-1.44-1.35-1.79.56.22,1.29,1.11,1.38,1.21,0,.07-.09.14-.13.17-.01,0-.02.02-.03.04s0,.03.02.05c.05.05.13.08.22.08.06,0,.11-.01.15-.02.08.26-.02.42-.03.43-.01.02-.01.04,0,.06s.03.03.05.03c.12,0,.22-.03.27-.06.09.29.02.86.02.87,0,.02,0,.05.03.06.02.01.05,0,.06-.01.13-.13.22-.41.27-.6.1.4.03,1.07.03,1.08,0,.03.01.05.04.06.02,0,.05,0,.07-.02.63-1.02.34-1.8.06-2.55-.15-.42-.31-.86-.31-1.33,0-.91.18-.96.22-.96.03,0,.07.03.08.03,0,0,.01,0,.02.01.74.29.75,1.77.75,1.79,0,.02.01.04.03.05.02,0,.04,0,.06-.01.24-.24.37-.75.42-.98.27.39.16,1.12.16,1.13,0,.02,0,.05.03.06.02.01.05,0,.06-.01.17-.17.27-.48.32-.69.23.86-.22,1.64-.23,1.65-.01.02,0,.04,0,.06s.04.03.06.02c.62-.15.91-.68,1.02-.96.07.54-.15,1.43-.16,1.44,0,.02,0,.04.02.05.01.01.04.02.06.01.32-.11.57-.4.69-.56.07.71-.31,1.55-.31,1.56,0,.02,0,.05.01.06.02.02.04.02.06,0,.44-.25.7-.74.82-1.04,0,.79-.42,1.78-.42,1.79,0,.02,0,.05.01.06.02.02.04.02.06,0,1.59-.95,1.12-3.66,1.11-3.69-.9-4.08-5.13-4.39-6.41-4.39-.06,0-.12,0-.17,0,.33-.11.64-.17.93-.17.51,0,.77.18.78.18.02.02.05.01.07,0,.08-.08.07-.17.04-.24.34.05.57.36.57.36.01.02.04.03.06.02.02,0,.04-.03.04-.05,0-.13-.08-.24-.16-.32.39.07.8.35.8.35.02.02.05.01.07,0,.02-.02.02-.05,0-.07-.78-.88-1.68-1.33-2.68-1.33-.51,0-1.01.12-1.46.3-.1-.02-.21-.03-.32-.03-.38,0-.78.09-1.07.17.38-.29.75-.32.78-.33.02,0,.04-.02.05-.04,0-.02,0-.04-.01-.06l-.2-.19c.14-.11.36-.13.53-.13.23,0,.43.04.43.04.02,0,.03,0,.05-.01.01-.01.02-.03.02-.04,0-.19-.36-.45-.57-.58,0,0,.02,0,.03,0,.44,0,1.27.37,1.28.37.02,0,.04,0,.05,0,.02-.01.03-.03.03-.05,0-.28-.41-.58-.59-.69.05-.02.11-.03.18-.03.33,0,.79.18.8.18.02,0,.04,0,.05,0s.02-.03.02-.05c0-.32-.18-.5-.31-.58.06,0,.14-.01.23-.01.36,0,.79.08.79.08.02,0,.05,0,.06-.03.01-.02,0-.05,0-.06-.22-.22-.57-.39-.74-.47.19-.1.43-.15.71-.15.32,0,.58.07.58.07.03,0,.06,0,.07-.04,0-.03,0-.06-.03-.07-.69-.29-1.41-.44-2.12-.44-2.2,0-3.83,1.41-4.16,1.72-.02-.04-.05-.07-.1-.07-.07,0-.12.06-.17.13-.03.03-.08.09-.09.1,0,0-.05-.04-.07-.36-.06-.87-.46-.96-.6-.97-.41-.87-1.16-1-1.58-1-.15,0-.24.02-.25.02-.03,0-.05.03-.05.05,0,.03.02.05.05.05.45.08.57.44.61.62-.24-.12-.49-.17-.73-.17-.35,0-.57.11-.58.12-.02.01-.03.04-.03.07,0,.03.03.04.06.04.37-.04.78.36.99.59-.06-.02-.13-.02-.19-.02-.25,0-.43.11-.44.11-.02.01-.03.04-.03.06s.03.04.05.04c.31,0,.62.42.76.63-.09-.02-.18-.03-.27-.03-.25,0-.39.09-.39.09-.02.01-.03.04-.02.06,0,.02.03.04.05.04.28,0,.47.23.66.56,0,0,0,0,0,0-.08-.04-.24-.14-.36-.24-1.38-1.08-3.41-1.23-3.44-1.23-1.18,0-2.16.16-3.02.41v-3.97h-2.06c-.48-1.79-2.56-1.88-2.56-1.88,0,0-1.93.39-2.85-1.21-.91-1.59-1.98-1.3-1.98-1.3,0,0-4.02.62-4.49.16-.47-.47-3.26-.74-4.34-.3-1.09.43-5.58.94-8.4.29-.99-.23-2.24-.3-3.44-.29,1.12-.93,5.93-3.16,6.32-3.34.41-.19,1.55-.91.64-2.23-.92-1.32-1.65-3.55-1.65-4.54s1.04-1.16,1.04-1.16c6.64-2.52,5.81-8.39,5.71-8.66-.1-.27-.1-.4.1-.29.2.12.79,0,.62-.42-.16-.42.66-.14.83.16.17.3.69-.04.95.1.26.14.24.14.49.05.26-.09.91.47,1.13.76.22.29.59.27.74.2.15-.07-.1.11-.28-.29-.18-.4,0-.77.22-.31.21.47.39.28.68.57.29.29.26-.29.15-.47-.11-.18-.29-.47,0-.26.28.21.7.79.66,1.19-.04.4.65,1.48.65,1.48-.14,1.32.4,2.67.52,2.89.12.23.14.57.14.57.5,1.79,1.24.81,1.47,2.19.23,1.39,2.2,1.81,2.48,2.42.28.61,1.66.83,1.94,1.26.28.43,1.03.64,1.21.71.17.07.48,0,.61.26.13.26.21.37.39.41.18.04.25.02.41.18.16.16.48.13.4.06-.07-.07.05-.16.22-.07.17.09.24-.07.2-.11-.04-.04-.11-.11.08-.17.19-.05.19-.18.12-.18s-.15-.05-.03-.18c.12-.12-.15-.22-.31-.22s-.46.04-.46-.31.05-.46-.18-.63c-.23-.17-.42-.34-.29-.36.14-.03.22-.14.16-.26-.07-.13-.51-.11-.29-.19.21-.08.56-.03.56-.03,0-.12-.12-.23-.57-.28-.45-.05-.67-.35-.75-.44-.09-.09.14-.19.58-.01.44.18.57,0,.57,0,0,0-.2.01-.32-.26-.12-.27-.94-.68-.94-.68.09-.21.13-.35,0-.49-.13-.13-.04.06-.14-.49-.11-.54-.79-.85-1.19-.92-.39-.07-.72-.33-.87-.48-.15-.15-.12-.32-.03-.41.09-.09.26,0,.32.24.07.24.24.38.24.38.09,0,.11-.37-.14-.62-.25-.25-.3-.4-.3-.84s-.07-.51-.27-.85c-.2-.34-.51-.12-.3-.85.2-.73.02-1.49-.06-1.7-.09-.2-.16-.49-.16-1.03s-.05-.58-.24-.91c-.18-.33-.12-.79-.12-.79.19-1.48-.65-2.15-.65-2.15-.49-.49-1.07-1.19-1.07-1.19-3.58-4.21-8.19-.06-8.19-.06,0,0-2,2.06-3.64-.14-1.63-2.2-5.81-3.32-5.81-3.32.5-.69,0-1.09-.58-1.95-.58-.86-.63-1.37-.63-1.37,0-.45-.34-.94-.34-.94,0-.52-.22-.86-.22-.86-.03-.43-.31-.93-.31-.93-.16-.36.03-.34.03-.34.3.15.42-.06.42-.06,0-.25-1.29-1.45-1.29-1.45-.14-.08-.07-.37-.07-.37,0-.46-.21-.78-.21-.78-.12-.25-.06-.46-.06-.46,0-.42-.16-.4-.16-.4,2.83-4.41,1.76-6.18,1.76-6.18,0-1.07-.57-1.27-.57-1.27-.21-.21-.42-.53-.37-.72.05-.19.03-.2-.11-.61-.14-.42.07-.59.07-.59.11.11.26-.41.26-.41.69,0,.71-.51.71-.51,0-.39.31-.52.31-.52.29.05.29-.83.29-.83.22-.14.07-.76.07-.76,0-.31-.02-1.01-.39-1.2-.37-.19-.46-.34-.59-.71-.13-.37-.54.1-.58-.24-.03-.34-.46.36-.5.06-.04-.3-.24-.24-.37-.37-.13-.13-.28.06-.38-.04-.1-.1-.16.18-.33.11-.18-.07-.11.16-.3.16s-.29.64-.23.77c.06.13.05.25-.23.43-.28.18-.53.58-.53.74s-.32.5-.61.67c-.3.17.05.41.1.47.06.06.34.09.02.23-.32.14.13.18-.33.64-.45.46.29.8.42.8s.23.19.23.27-.05.24.04.33c.09.09.13.3-.5.44-.63.14-.49.73-.49,1.03s-.01.39-.53.64c-.52.26-.46.83-.37.92.09.09.29.07-.31.29-.6.21-1.34.99-1.45.89-.11-.11-.33.09-.44-.26-.12-.34-.14-.3-.3-.59-.16-.29-.26-1.22-.26-1.22.35-.21-.78-1.65-.78-2.21s-.19.03-.36-1.12c-.16-1.15.09-1.56.09-1.56,3.27-2.85,5.41-7.18,5.41-7.18-.07-.66-.38-.33-.38-.33-.54.54-2.35,1.3-3.18,1.17-.83-.13-1.85,0-1.85,0-3.78.67-1.77,5-1.77,5,0,0,.26.84-.12.84s-.49.59-.49.65.02.39-.19.32c-.21-.07-.46.31-.5.58-.04.27.38.39.38.39-.11.11-.09.27-.09.27.1.42.47.3.47.3.09-.14.21-.04.21-.04,0,.24.47.63.47.63-.12.12.06.45.06.45-.1.1,0,.42,0,.42-.19.19,0,1.57,0,1.57-.19-.41-.6-.73-.6-.73-.16-1.13-.87-1.37-.87-1.37-.26,0-.64-.53-.64-.53-1.23-1.89-2.1-1.16-2.36-1.75-.26-.59-.74-.59-.74-.59l-.66-1.4c0-.69-.33-1.02-.33-1.02-.44.44-.4,1.98-.4,1.98-.43-.43-.64-1.62-.64-1.62-.41.56-.39,1.99-.39,1.99-.46-.12-.56.03-1.16.34-.6.31-.1.31-1.2.54-1.1.23-.29.39-1.25.87-.96.49-.89.93-.89.93,0,0,.2.74-.76.74s-1.94.52-2.17.74c-.23.23-.31.45-.85.45s-.54.18-.54.18c-.12.34-.41.4-.41.4-.81.63-.05,1.03-.05,1.34s-.23-.09-.32.74c-.1.82.93.7.93.7,0,0-.11.11.04.26.15.15.73-.12.97-.26.24-.14.09-.27.19-.54.11-.27.43-.17.98,0,.55.17-.13.26-.51.33-.38.08-.17.32-.17.57s.02.25-.36.63c-.03.03-.05.05-.07.07,0,0-.29-.08-.45.08-.16.16-1.05-.12-1.05.78,0,0-.02.11.06.24,0,0-.37.53-.02.89.35.35.59.12.59.12,0,0,.1.35.52.57.42.21.58.24.58.24,0,0,.34.15.58.61.22.43.99,1.43,1.96,2.16-.67,1.44-.92,2.54-1.2,2.73-.6.39-.85,1.79-.85,1.79,0,0,.07.73-.52,1.76-.58,1.03-.31,2.43-.31,2.43-.66.19-3.53-.17-4.21-.39-.68-.22-.97-.19-1.2.04-.23.23-.54.29-.54.29-.67.17-1.27,1.06-1.55,1.69-.27.63-1.53,2.29-2.62,2.75-1.09.46-1.12,1.26-1.12,1.26,0,0,.19.86-.44,2.15-.63,1.29-.37,1.59-.37,1.59.15.15.43.99.52,1.63.09.64.5.89.5.89.35-.22,1.76-2.19,1.81-2.97.05-.78-.42-.83-.42-.83,0,0-.49,0-.26-.62.24-.62.59.1.59.1.27.15.53-.46.53-.46.09-.96,1.27-2.51,2.03-3.28.77-.76,1.12-1.33,1.59-1.33s.53-.3,1.03-.3,1.19.43,1.19.43c0,0-.17.12-.89.12s-.73.24-.73.24c0,0-.19.6-.93,1.02-.74.42-.57,1.22-.57,1.22,0,0-.24,3.13-.86,4.34-.61,1.22-.26,1.46-.26,1.46,0,0,.5.39.7,1.47.2,1.09.69,1.72.69,1.72,0,0,.6.13.94.79.34.66.93.71.93.71,0,0,.49-2.49.16-3.06-.33-.57-.42-.49-.89-.49s-.53-.65-.45-.57c.08.08.51.3.51,0s.13.03-.11-1.43c-.24-1.46.17-1.75.47-3.01.3-1.26,1.07-1.7,1.07-1.7.37-.37,1.26-.13,1.26-.13.69.36,2.86.83,3.75.83s.92.19.92.19c1.08.94,4.11,1.2,4.29,1.24s-.11.22-.55.66-1.21.18-1.21.18c-.94-.44-1.23-.27-1.23-.27-.11.52,1.28,1.5,1.28,1.5l-.02.17c-.16-.06-.28.03-.28.03-.34.34,1.22,1.31,1.22,1.31,0,0-.38.25-.17.45.2.2.75.39,1.05.19.3-.19-.13-.33.27-.33s1.94.12,2.05.22c.11.11-.01.38-.01.38l1.23.38c.16-.16.31-.12.46-.57.15-.45.44-.77.44-.77.22-.23.29-.75.29-.75.39-.25.42-.64.42-.64,1.82.94,6.46.39,6.92.28.46-.11,1.17.14,1.17.14l.46,2.12c-.4,0-.14.34-.14.34.36.36.4,1.35.4,1.35.3,1.27,1.22.69,1.45.34.23-.34-.45-1.24-.45-1.24,0-.39-.17-.49-.17-.49-.28-.43-.3-1.08-.3-1.08,0,0,.73.01.94,1.71.21,1.7,2.1,4.38,2.47,5.02.37.64.11-.02.45,1.09.34,1.12-3.95,3.07-5.65,3.52-1.7.45-2.73,1.49-2.73,1.49-.51.38-.78,1.14-.92,1.64-1.51-.06-3.24-.03-4.52.26-2.82.65-7.31.14-8.4-.29-1.09-.43-3.88-.16-4.34.3-.47.46-4.49-.16-4.49-.16,0,0-.41-.11-.94.19-13.42-1.65-35.3-6.24-47.24-19v-.35c0-.38-.19-.69-.43-.69s-.44.31-.44.69v.35c-15.65,16.73-46.6,17.86-54.45,17.87v-9.95l.23-.55-.23-.18v-2.26l.36-.46h.15l.38-.6v-.31l-1.35-.84v-.31l-.84-.64-5.39-25.94h-.28c.22,0,.39-.18.39-.39,0-.19-.13-.34-.3-.38,0,0,0,0,0,0h0s-.03-5.43-.03-5.43c.02-.02.03-.04.03-.07,0-.05-.04-.09-.09-.09s-.09.04-.09.09c0,.03.01.05.03.07v.44s-.89.69-.89.69l-.13.31h.37l.65-.45-.03,4.44s0,0,0,.01c-.18.04-.31.2-.31.38,0,.2.15.37.35.39h-.24l-5.39,25.94-.84.64v.31l-1.35.84v.31l.38.6h.15l.36.46v2.26l-.23.18.23.55v4.33c-.33-.16-.83-.51-.83-1.14h-.15v-.28h-.16v-.54s-1.2-.16-1.2-.96h-.09v-.35h.17v-.29h-.73v-3.12h.72s.09-.04.09-.09c0-.05-.04-.09-.09-.09h-.72v-.81s-.04-.09-.09-.09-.09.04-.09.09v.81h-.72s-.09.04-.09.09c0,.05.04.09.09.09h.72v3.12h-.73v.29h.17v.35h-.1c0,.8-1.19.95-1.19.95v.54h-.16v.28h-.15c0,.93-1.11,1.26-1.11,1.26v-5.57h.15v-.49h.09v-.83h.11v-.5h-.24v-.87h.3v-.59h.18v-.35h.23v-.47h-1.18v-.66l-.17-.18v-2.01h.12v-.26h.11v-.36h-.38v-.56h-1.26v.45h-7.54v-6.13h.12v-1.02h-.12v-7.16h.1v-.48h.1v-.42h-.24v-1.85h.14v-.85h.29v-.68h.18v-.5h-.86v-.61h.16v-.54h-2.02v.12h-.32v-.26l-.5-2.85v-.43h-.13v-6.96h.25v-.44h-1.6l-4.51-23.85h-.04c.12-.09.19-.23.19-.38,0-.21-.13-.38-.32-.45v-2.98h1.49s.21,0,.21-.18-.21-.18-.21-.18h-1.49v-1.47s0-.23-.16-.23-.16.22-.16.23v1.47h-1.49s-.21,0-.21.18.21.18.21.18h1.49v2.98c-.18.07-.32.24-.32.45,0,.16.08.3.19.38h-.05l-4.51,23.85h-1.6v.44h.25v6.96h-.13v.43l-.5,2.85v.26h-.32v-.12h-2.02v.54h.16v.61h-.86v.5h.18v.68h.29v.85h.14v1.85h-.24v.42h.1v.48h.1v7.16h-.12v1.02h.12v6.13h-7.54v-.45h-1.26v.56h-.38v.36h.11v.26h.12v2.01l-.17.18v.66h-1.18v.47h.23v.35h.18v.59h.3v.87h-.24v.5h.11v.83h.09v.49h.15v5.57s-1.11-.32-1.11-1.26h-.15v-.28h-.16v-.54s-1.19-.15-1.19-.95h-.1v-.35h.17v-.29h-.73v-3.12h.72s.09-.04.09-.09c0-.05-.04-.09-.09-.09h-.72v-.81s-.04-.09-.09-.09-.09.04-.09.09v.81h-.72s-.09.04-.09.09c0,.05.04.09.09.09h.72v3.12h-.73v.29h.17v.35h-.09c0,.8-1.2.96-1.2.96v.54h-.16v.28h-.15c0,.63-.5.98-.83,1.14v-4.33l.23-.55-.23-.18v-2.26l.36-.46h.15l.38-.6v-.31l-1.35-.84v-.31l-.84-.64-5.39-25.94h-.24c.2-.02.35-.19.35-.39,0-.19-.13-.34-.31-.38,0,0,0,0,0-.01l-.03-4.44.65.45h.37l-.13-.31-.89-.69v-.44s.03-.04.03-.07c0-.05-.04-.09-.09-.09s-.09.04-.09.09c0,.03.01.05.03.07l-.03,5.43h0s0,0,0,.01c-.18.04-.3.2-.3.38,0,.22.18.39.39.39h-.28l-.3,1.46v-15.29h-2.51v-10.53l-2.94-1.98v-1.98l-14.54-9.98-11.3,7.76h-2.22l-17.84-11.92v-4.04h-2.38v-1.38h-1.51v-1.51h-4.26v-1.01h-9.63v1.01h-4.26v1.51h-1.51v1.38h-2.38v4.04l-17.84,11.92h-5.04v6.93h4.85l18.03-12.1v.99l-17.78,11.93h-5.1v3.79h4.85l18.03-12.1v.99l-17.78,11.94h-5.1v3.79h4.85l18.03-12.1v.99l-17.78,11.93h-5.1v3.79h4.85l18.03-12.1v.99l-17.78,11.94h-5.1v3.79h4.85l18.03-12.1v.99l-17.78,11.93h-5.1v3.79h4.85l18.03-12.1v.99l-17.78,11.93h-5.1v3.79h4.85l18.03-12.1v.99l-17.78,11.93h-5.1v3.79h4.85l18.03-12.1v.99l-17.78,11.94h-5.1v3.79h4.85l18.03-12.1v.99l-17.78,11.94h-5.1v3.79h4.85l18.03-12.1v.99l-17.78,11.94h-5.1v3.79h4.85l18.03-12.1v.99l-17.78,11.93h-5.1v3.79h4.85l18.03-12.1v.99l-17.78,11.94h-5.1v3.79h4.85l18.03-12.1v.99l-17.78,11.94h-5.1v3.79h4.85l18.03-12.1v.99l-17.78,11.94h-5.1v3.79h4.85l18.03-12.1v.99l-17.78,11.94h-5.1v3.79h.14l-1.01.07V28.51h-7.04v-5.91h-6.8v-5.91h-4.79V7.32h-9.58v9.37h-4.79v5.91h-6.8v5.91h-7.04v94.99c-1.33-.77-2.71-1.47-4.14-2.1V1.32c0-.09-.07-.17-.17-.17h-.16v-.5c0-.09-.07-.17-.17-.17h-.14V.17c0-.09-.07-.17-.17-.17h-.28c-.09,0-.17.07-.17.17v.3h-.17c-.09,0-.17.07-.17.17v.52h-.14s0,0,0,0h0s-1.32,0-1.32,0v-.39c0-.09-.07-.17-.17-.17h-1.49c-.09,0-.17.07-.17.17v.39h-1.16v-.39c0-.09-.07-.17-.17-.17h-1.49c-.09,0-.17.07-.17.17v.39h-1.16v-.39c0-.09-.07-.17-.17-.17h-1.49c-.09,0-.17.07-.17.17v.39h-1.16v-.39c0-.09-.07-.17-.17-.17h-1.49c-.09,0-.17.07-.17.17v.39h-1.16v-.39c0-.09-.07-.17-.17-.17h-1.49c-.09,0-.17.07-.17.17v.39h-1.16v-.39c0-.09-.07-.17-.17-.17h-1.49c-.09,0-.17.07-.17.17v.39h-1.16v-.39c0-.09-.07-.17-.17-.17h-1.49c-.09,0-.17.07-.17.17v.39h-1.16v-.39c0-.09-.07-.17-.17-.17h-1.49c-.09,0-.17.07-.17.17v.39h-1.16v-.39c0-.09-.07-.17-.17-.17h-1.49c-.09,0-.17.07-.17.17v.39h-1.16v-.39c0-.09-.07-.17-.17-.17h-1.49c-.09,0-.17.07-.17.17v.39h-1.16v-.39c0-.09-.07-.17-.17-.17h-1.49c-.09,0-.17.07-.17.17v.39h-1.32s0,0,0,0h-.14v-.52c0-.09-.07-.17-.17-.17h-.17V.17c0-.09-.07-.17-.17-.17h-.28c-.09,0-.17.07-.17.17v.32h-.14c-.09,0-.17.07-.17.17v.5h-.16c-.09,0-.17.07-.17.17v118.01c-2.36.66-4.6,1.48-6.72,2.46V35.16h2.44v-11.35h2.15l.71-.85h-18.58V3.15c0-.05-.03-.09-.08-.11l-.43-.12-.04-.45s-.03-.05-.06-.06c-.03,0-.06.02-.07.06l-.04.45-.43.12s-.08.06-.08.11v19.81h-18.58l.71.85h2.15v11.35h2.44v78.93h-3.54v-2.7h-.18v-.19h.05v-.08h-.08v-6.39h.04v-.08h-.05v-.32s.04-.06.04-.21c0,0,.27-.31.14-.38h-.2v-.41l.53-1.32v-.25h-.57v-1h.05v-.35h-3.85v-1.85h.06v-.13h-.06v-.66h.1v-.32h-.26v-1.14h-.11s-.03-.05-.07-.08c-.04-.04.03-.18.03-.18,0,0,.11-.58-.45-.58s-.45.58-.45.58c0,0,.06.14.03.18-.08.08-.09.13-.09.13v.06h-.71v-1.13s.09-.06.09-.18c0,0,.06-.06.06-.2,0,0,0-.09-.16-.11l-.22-.33v-3.81s.04-.03.04-.14c0,0,.08-.09.08-.22s.1-.18.1-.18c0,0,.15-.11-.1-.19v-.35s.05-.08-.02-.13v-.3s.44-.12.44-.44v-.15l.19-.44s-.13-.46-1.59-.76v-1.02h-.09v-.64l.06-.06v-.89h-.08v.08l-.29-.14-2.39-2.87h.1v-.18h-.18s.04-.16-.07-.23c0,0,.03-.19-.11-.19s-.11.19-.11.19c-.11.07-.07.23-.07.23h-.18v.18h.1l-2.39,2.87-.29.14v-.08h-.08v.89l.06.06v.64h-.09v1.02c-1.46.29-1.59.76-1.59.76l.19.44v.15c0,.32.44.44.44.44v.3c-.07.05-.03.13-.03.13v.35c-.25.08-.1.19-.1.19,0,0,.1.05.1.18s.08.22.08.22c0,.11.04.14.04.14v3.81s-.23.33-.23.33c-.16.02-.16.11-.16.11,0,.14.06.2.06.2,0,.13.09.18.09.18v1.13h-.71v-.06s-.02-.06-.09-.13c-.04-.04.03-.18.03-.18,0,0,.11-.58-.45-.58s-.45.58-.45.58c0,0,.06.14.03.18-.03.03-.06.06-.07.08h-.11v1.14h-.26v.32h.1v.66h-.06v.13h.06v1.85h-3.85v.35h.05v1h-.57v.25l.53,1.32v.41h-.2c-.14.08.14.38.14.38,0,.15.04.21.04.21v.32h-.05v.08h.04v6.39h-.08v.08h.05v.19h-.18v2.7h-2.42v-58.7l-1.6-1.19h-2.94v-8.89l-1.65-1.25h-3.36v-14.09l-1.94-1.56h-4.1v-1.16h-25.5v1.16h-4.1l-1.94,1.56v14.09h-3.36l-1.65,1.25v8.89h-2.94l-1.6,1.19v91.58h-5.88l-1.55,1.19V26.21h-14.56l-27.8,23.83v115.37c-1.51.03-3.01.06-4.51.09V55.64h-1.73v109.9c-.35,0-.7.01-1.04.02V55.64h-1.14v-4.11h3.92v-1.26h-45.66v1.26h3.92v4.11h-1.14v38.68h-1.04v-38.68h-1.73v38.68h-1.26v-2.45h-5.95v2.45h-19.96v-3.82h-6.41v3.85h-3.57v-1.58h-.69v23.39c-9.82-2.16-20.85-3.61-32.77-3.61-46.53,0-79.6,22.08-79.6,22.08-13.07,2.12-12.2,4.37-12.2,4.37,0,0,.49,1.67,3.13,8.91.1.26.17.52.24.79-.38.16-.66.34-.79.43-.02-.02-.04-.03-.07-.03-.05,0-.08.03-.12.07,0,0-.01.01-.02.02,0-.03,0-.07,0-.16.01-.24-.03-.41-.13-.51-.05-.05-.11-.08-.15-.09-.22-.64-.82-.67-.94-.67-.02,0-.03,0-.03,0-.03,0-.05.02-.06.05,0,.03.01.06.04.06.19.06.25.2.27.3-.18-.1-.35-.12-.46-.12-.14,0-.23.03-.24.04-.03.01-.04.04-.04.07,0,.03.03.05.06.05.16,0,.32.17.44.31-.03,0-.06,0-.09,0-.11,0-.2.04-.2.04-.03.01-.04.04-.04.06,0,.03.03.05.05.05.12.02.25.18.32.32-.05-.01-.1-.02-.15-.02-.1,0-.16.03-.17.03-.02.01-.04.04-.03.06,0,.03.03.05.05.05.13.02.21.13.29.3,0,0,0,0,0,0,0,0-.01.01-.02.02-.69-.45-1.6-.86-1.61-.87-.9-.41-1.81-.62-2.69-.62-1.27,0-2.14.43-2.45.62-.03.02-.04.05-.02.08.02.03.05.04.08.03.12-.06.29-.09.5-.09.15,0,.3.02.4.03-.13.14-.11.35-.11.37,0,.03.02.05.05.05.03,0,.05,0,.06-.03.09-.16.37-.21.56-.23-.15.14-.16.32-.14.41,0,.02.02.04.05.05.02,0,.05,0,.06-.03.12-.21.48-.27.71-.29-.07.06-.12.12-.15.2-.05.14,0,.26,0,.26,0,.02.03.03.05.03.02,0,.04,0,.05-.02.18-.23.45-.29.62-.3-.21.24-.18.51-.18.52,0,.02.02.05.04.05.02,0,.05,0,.06-.02.14-.18.29-.27.46-.27.08,0,.14.02.19.04-.15.17-.1.35-.05.42.01.02.04.03.06.02.02,0,.04-.03.04-.05.01-.15.22-.26.39-.31-.11.24,0,.44,0,.45.01.02.03.03.05.03.02,0,.04-.01.05-.03.15-.31.35-.34.48-.33-.1.15-.05.33-.05.33,0,.03.03.04.06.04.03,0,.05-.02.06-.05.04-.17.27-.25.45-.28-.04.1-.01.19.02.23.01.02.04.03.06.02.02,0,.04-.03.04-.05,0-.06.14-.07.19-.07.04,0,.07,0,.1,0-.02.07,0,.14.03.18,0,.01.02.02.04.03-.24-.01-.47-.02-.69-.02-3.66,0-4.01,1.81-4.02,1.89,0,.03.01.06.04.07.03,0,.06,0,.07-.03.25-.46.71-.58.92-.6-.08.22,0,.6.02.65,0,.03.03.04.06.05.03,0,.06-.03.06-.06,0,0,0-.01,0-.02,0-.34.3-.54.5-.64-.15.34.08.65.08.65.01.02.03.02.05.02.03,0,.06-.03.06-.06,0,0,0-.01,0-.02-.01-.39.27-.58.45-.66-.16.38.04.63.05.64.02.02.04.03.07.02.02,0,.04-.03.04-.05.02-.39.3-.58.48-.67-.14.32.06.63.06.64.01.02.04.03.06.03.02,0,.04-.02.05-.05.08-.37.42-.58.56-.6-.1.24.11.55.12.56.01.02.04.03.06.02.02,0,.04-.03.05-.05.03-.26.26-.44.4-.52,0,.12.08.22.13.25.02.01.04.02.06,0,.02,0,.03-.03.04-.05.02-.17.13-.39.94-.4.07,0,.12,0,.14.01-.06.06-.27.16-.49.25-5.24,2.21-4.72,5.24-4.72,5.27,0,.03.03.05.06.05h0s.06-.03.06-.06c0,0,0-.01,0-.02-.02-.48.23-.85.38-1.02.02.49.38.68.4.69,0,0,.02,0,.03,0,.03,0,.06-.03.06-.06,0-.02,0-.04-.02-.05-.19-.24-.08-.77.02-1.03.04.38.4.66.42.67.01,0,.02.01.04.01.03,0,.06-.03.06-.06,0-.02,0-.03-.02-.04-.15-.29-.07-.62.01-.84.07.37.37.58.39.59.01,0,.02,0,.04.01.03,0,.06-.03.06-.06,0-.02,0-.03-.02-.04-.21-.37-.02-.77.11-.97.03.51.36.75.38.76.01,0,.02.01.03.01.04,0,.06-.03.06-.06,0-.01,0-.03-.01-.04-.21-.46-.08-.85.02-1.06.06.4.4.63.41.64.01,0,.02,0,.03,0,.03,0,.06-.03.06-.06,0-.02,0-.03-.02-.04-.26-.43-.08-.73.05-.86.04.37.4.49.4.49,0,0,.01,0,.02,0,.03,0,.06-.03.06-.06,0-.01,0-.03-.01-.04-.15-.33-.02-.52.08-.62.03.28.23.41.41.47-.04.06-.09.13-.14.19-.85,1.14-1.27,2.06-1.27,2.07-.25.47-.75,1.41-.92,1.58-.17.17-.53.9-.88,1.64-.07.14-.13.27-.17.35-.2.4-1.11,2.63-1.48,3.76-.12.39-.25.97-.39,1.59-.07.34-.17.77-.27,1.16-.15.16-.31.32-.44.49.02-.16.05-.33.09-.49.08-.37.15-.69.01-.82-.06-.07-.08-.69-.11-1.23-.03-.83-.07-1.78-.23-2.23-.28-.8-.6-2.38-.6-2.65,0-.15-.15-.5-.33-.9-.17-.38-.35-.77-.39-1.01-.09-.47-.77-2.26-1.08-2.67-.3-.41-1.37-2.33-1.48-2.68-.12-.38-1.08-2.05-1.44-2.41-.17-.17-.54-.76-.9-1.4.18-.12.36-.29.42-.51.13.17.32.55-.01.99-.02.02-.02.05,0,.07s.04.03.06.03c0,0,.55-.13.67-.62.12.26.25.78-.3,1.17-.02.02-.03.04-.02.07,0,.03.03.04.06.04,0,0,.75-.02.83-.69.14.14.39.48.06,1.02-.01.02-.01.05,0,.07.01.02.04.03.06.02,0,0,.57-.13.65-.7.18.2.5.72-.02,1.39-.02.02-.02.05,0,.08s.05.03.07.02c.03-.01.6-.32.71-.96.14.31.34.98-.09,1.7-.01.02-.01.05,0,.07s.05.02.07.01c.03-.01.59-.32.67-1.14.17.31.47,1.01.05,1.59-.02.02-.02.05,0,.07.02.02.05.03.07.01.02-.01.55-.3.67-.9.11.32.24.92-.08,1.38-.02.02-.01.05,0,.08.02.02.05.02.08.01.03-.02.69-.43.72-1.05.06.17.13.51.14.86,0,.27-.04.64-.24.85-.02.02-.02.05,0,.08.02.02.05.03.07.02,0,0,.6-.25.68-1.01.19.25.58.89.46,1.68,0,.03.02.06.05.07.03,0,.06-.01.07-.04.01-.05.32-1.12-.3-2.71-.56-1.46-2.05-3.64-5.92-5.75-.37-.19-.69-.4-.72-.48.01,0,.04-.01.12-.01.04,0,.1,0,.16,0,.92.1,1.35.34,1.35.75,0,.02.01.04.03.05.02.01.04.01.06,0,.09-.05.22-.19.22-.39.19.14.57.46.57.89,0,.03.02.05.04.06.02,0,.05,0,.07-.02.01-.02.36-.44.24-.8,0-.01,0-.02,0-.03,0,0,0,0,.01,0,.17,0,.74.41.8,1.01,0,.02.02.04.04.05.02,0,.05,0,.06-.02,0,0,.37-.47.15-.98.26.14.73.49.7,1.13,0,.02.01.05.04.06.02.01.05,0,.07-.01.02-.02.36-.36.14-.98.25.13.76.48.66,1.14,0,.03,0,.05.03.06.02.01.05,0,.07-.01,0,0,.41-.46.18-1.01.28.16.79.53.73,1.11,0,.03.02.06.05.07.03,0,.06,0,.07-.04.03-.08.23-.67.11-.99.29.06,1.01.28,1.34,1.06,0,.02.03.04.06.04.04,0,.06-.03.06-.06,0,0,0-.02,0-.02-.01-.13-.14-.92-1.05-1.71-.89-.78-2.74-1.71-6.51-1.71,0,0-.04,0-.09,0-.21,0-.27-.03-.28-.04,0,0,0-.04.15-.13.38-.24.73-.21,1.05.11.01.01.03.02.05.02.02,0,.03,0,.04-.02.04-.05.1-.16.06-.27.02,0,.03,0,.05,0,.11,0,.45.01.45.17,0,.03.02.05.04.06.02,0,.05,0,.07-.02.05-.06.11-.2.03-.36.23.06.67.2.7.52,0,.03.02.05.05.05.03,0,.05-.01.06-.04,0-.01.1-.29-.05-.52.02,0,.03,0,.05,0,.22,0,.52.1.69.58,0,.02.03.04.05.04.02,0,.04,0,.06-.03,0-.01.21-.32.05-.71.22.09.61.29.61.57,0,.03.02.05.04.06s.05,0,.07-.02c0,0,.24-.29-.03-.63.06-.02.15-.04.26-.04.3,0,.55.16.74.49.01.02.04.03.06.03.02,0,.04-.02.05-.05,0-.02.08-.43-.23-.83.24.03.7.15.96.56.01.02.03.03.05.03.02,0,.04-.01.05-.03,0,0,.1-.16.05-.37-.03-.13-.12-.26-.26-.37.35.05.96.18,1.13.56.01.02.03.04.06.04.02,0,.05-.02.05-.04,0,0,.11-.36-.2-.67.29.05.78.17.9.46.01.02.04.04.06.04.03,0,.05-.02.05-.05,0-.02.07-.36-.13-.58.08,0,.19-.01.31-.01.33,0,.79.04,1.1.23.01,0,.02,0,.03,0,.03,0,.06-.03.06-.06,0-.02-.01-.05-.04-.06-.43-.31-1.98-1.29-4.35-1.29-1.05,0-2.13.19-3.23.56-.01,0-1.45.49-2.54,1.07,0-.02,0-.04-.02-.06,0,0-.02-.01-.03-.01.15-.27.29-.44.51-.45.03,0,.05-.02.06-.04,0-.03,0-.05-.03-.07,0,0-.11-.07-.32-.07-.07,0-.14,0-.21.02.13-.2.37-.49.59-.5.03,0,.05-.02.06-.05,0-.03,0-.05-.03-.07,0,0-.16-.08-.36-.08-.05,0-.09,0-.14.01.18-.2.49-.49.77-.47,0,0,0,0,0,0,.03,0,.06-.03.06-.06,0-.03-.02-.05-.05-.06-.04-.02-.21-.09-.45-.09-.21,0-.41.05-.61.15.03-.15.13-.42.48-.49.03,0,.05-.03.05-.06,0-.03-.02-.05-.05-.06,0,0-.07-.01-.18-.01-.28,0-.98.08-1.33.86-.12.01-.45.1-.49.82,0,.19-.03.26-.04.28-.02-.01-.05-.05-.06-.07-.05-.06-.1-.11-.16-.11-.04,0-.07.02-.09.05-.31-.27-1.62-1.34-3.38-1.34-.62,0-1.24.13-1.84.4-.03.01-.04.05-.03.07.01.03.04.05.07.04.16-.04.35-.06.51-.06.2,0,.37.03.51.09-.15.07-.41.21-.58.39-.02.02-.02.05,0,.07.01.02.04.04.06.03,0,0,.39-.08.69-.08.05,0,.08,0,.12,0-.1.08-.22.23-.22.48,0,.02.01.04.03.05.02.01.04.01.06,0,0,0,.4-.16.67-.16.04,0,.07,0,.1.01-.13.09-.35.27-.43.45-1.01-.22-1.98-.34-2.89-.34-2.21,0-4,.67-5.32,1.99-.02.02-.02.06,0,.08.02.02.05.03.08.02.06-.03,1.41-.82,2.34-.84-.24.1-.57.3-.68.65,0,.03,0,.05.02.07.02.01.05.01.07,0,.01-.01.28-.25,1.36-.33-.07.12-.16.34-.16.69,0,.02.02.05.04.06.02,0,.05,0,.07-.01,0,0,.49-.52,1.02-.59-.04.08-.08.21-.08.39,0,.02.01.04.03.05.02.01.04,0,.06,0,0,0,.32-.24.77-.24.06,0,.13,0,.19.01-.17.1-.41.28-.41.46,0,.02.01.04.03.05s.04.01.06,0c0,0,.71-.32,1.33-.32.05,0,.1,0,.15,0-.19.07-.35.16-.35.26,0,.02,0,.03.02.04.01.01.03.02.04.02,0,0,.35-.02.8-.02.79,0,1.37.05,1.68.14-.6.13-2.47.57-4.36,1.44-3.03,1.41-4.74,3.3-4.94,5.47,0,.03.01.05.04.06.03,0,.05,0,.07-.02.29-.39,1.07-1.34,1.5-1.54-.14.23-.39.73-.27,1.21,0,.02.03.04.05.04.02,0,.05,0,.06-.03.01-.02.96-1.58,1.76-2.02-.21.28-.54.79-.42,1.17,0,.02.03.04.05.04.02,0,.05,0,.06-.03.31-.47,1.16-1.62,1.66-1.87-.11.21-.27.6-.12.96,0,.02.03.04.05.04.02,0,.05-.01.06-.03,0-.01.48-.99,1.02-1.26-.04.16-.08.42.09.59.01.01.03.02.05.02.02,0,.04-.02.04-.03.12-.23.46-.8.77-.91-.06.15-.14.41.02.56.01.01.03.02.05.02.02,0,.03-.01.04-.02.19-.26.73-.94,1.01-.94.03,0,.06,0,.08.03.05.05.08.1.07.15,0,.1-.16.21-.29.3-.08.05-.15.1-.2.16,0,0-.02.02-.04.04-.96.92-4.08,4.19-3.94,7.62,0,0,.05.85-.3,1.73-.01.02,0,.05.02.07.02.02.05.02.07,0,.04-.03.98-.75,1.14-1.87.09.12.24.28.52.45.01,0,.02,0,.03,0,.04,0,.06-.03.06-.06,0-.01,0-.03-.01-.04-.12-.33-.36-1.15-.17-1.53.06.17.19.46.46.52,0,0,.01,0,.02,0,.04,0,.06-.03.06-.06,0,0,0-.02,0-.02-.03-.27-.07-.91.06-1.21.05.15.16.38.41.47,0,0,.01,0,.02,0,.03,0,.06-.03.06-.06,0-.01,0-.02,0-.03-.09-.36-.23-1.24-.06-1.6.1.32.41,1.11.82,1.11h0s.06-.03.06-.06c0-.01,0-.02,0-.03-.1-.38-.28-1.34-.08-1.73.07.23.25.68.59.68h0s.06-.03.06-.06c0-.01,0-.02,0-.03-.06-.28-.15-.96-.03-1.25.09.18.3.54.61.54h0s.06-.03.06-.06c0-.01,0-.02-.01-.03-.04-.12-.28-.93.07-1.29.08-.08.11-.09.12-.09.02.01.04.12.06.19.04.21.1.5.39.58,0,0,.01,0,.02,0,.04,0,.06-.03.06-.06,0,0,0-.02,0-.02-.01-.17-.11-1.7,1.14-2.09.15-.05.26-.07.34-.07.05,0,.07.01.07.02.03.06-.14.32-.27.51-.3.45-.68,1.01-.47,1.42.01.02.04.04.06.03.03,0,.05-.02.05-.05,0,0,.09-.47.44-.56-.26.35-.95,1.38-.55,1.92-.21.39-.31.77-.31,1.1,0,.03.02.05.04.06.02,0,.05,0,.07-.02.18-.21.49-.53.7-.65-.25.41-.94,1.56-.94,2.07,0,.02.02.05.04.06.02,0,.05,0,.07-.01,0,0,.43-.45.8-.54-.24.38-1,1.64-.84,2.41,0,.02.02.04.05.05.02,0,.05,0,.06-.02.17-.23.65-.82.95-.87-.19.38-.95,1.97-.72,2.93,0,.02.03.04.05.05.03,0,.05,0,.06-.03.24-.45.67-1.14.91-1.25,0,.45,0,2.66,1.12,3.78.01.01.03.02.04.02,0,0,0,0,.01,0,.02,0,.04-.02.04-.04,0-.02.67-1.76.11-3.75.22.17.7.43,1.67.62,0,0,0,0,.01,0h0s.06-.03.06-.06c0-.02-.01-.04-.03-.05-.11-.11-1.17-1.18-1.48-1.92.21.13.62.34,1.11.34.12,0,.24-.01.35-.04.02,0,.04-.02.05-.04,0-.02,0-.04-.02-.06-.01-.01-1.4-1.36-1.52-2.42.3.26,1.16.96,1.66.96h0s.06-.03.06-.06c0-.02,0-.04-.02-.05-.11-.14-1.29-1.69-1.43-2.49.21.18.71.52,1.38.59,0,0,0,0,0,0,.03,0,.06-.03.06-.06,0-.02-.01-.04-.03-.05-.11-.11-1.23-1.27-1.38-2.07.24.23.84.7,1.61.7h0s.06-.03.06-.06c0-.02-.01-.04-.03-.05-.11-.1-1.31-1.12-1.56-1.95.26.22.87.66,1.52.76,0,0,0,0,0,0,.04,0,.06-.03.06-.06,0-.02-.01-.04-.03-.05-.1-.11-1.1-1.16-1.32-1.82.2.22.59.55,1.1.55h0s.06-.03.06-.06c0-.02-.01-.04-.03-.05-.29-.35-1-1.29-.88-1.66.04-.12.16-.22.31-.29.02.32.12.71.53.85.12.04.23.06.32.06.12,0,.18-.04.22-.06.02.03.05.11.09.19.08.17.13.37.18.57.1.4.21.86.62,1.38.59.76.97,1.48,1.11,2.08.1.42.14.47.26.52.03.01.06.03.11.07.18.18.64.95.86,1.73.22.77.56,1.58,1.07,2.52.46.84.84,1.94.84,2.44,0,.27.1.52.19.77.09.22.17.43.17.64,0,.18.05.67.1,1.23.08.79.17,1.78.17,2.3,0,.32.04.6.07.88.06.51.12,1-.07,1.53-.29.82-.64,3.26-.64,4.23,0,.76-.14,2.04-.49,2.69-4.5.27-8.34.51-11.45.68-6.28.4-9.62.62-9.62.62-.6.04-1.08.51-1.12,1.12h860c-.04-1.14-.93-2.08-2.08-2.15ZM832.39,122.5c.06.12,0,.27-.18.05-.18-.23-.44-.28-.44-.28.15-.15.55.12.62.24ZM824.61,112.64c-.27-.27-.25-.5-.25-.5.22.12.25.5.25.5ZM822.86,112.32c.07.18.19.16.25.16s.39.03.42.32c.03.29.17.56.17.56-.94-.27-.85-1.03-.85-1.03ZM781.01,95.49c-.15-.22.13-.45.13-.45.07-.07.22,0,.32,0s.03.23-.05.31c-.08.08.09.22.09.36s-.35,0-.5-.22ZM781.65,94.84c-.08.08-.38,0-.38,0,0,0-.25.05-.13-.37.12-.41.69-.33.69-.33,0,0,0,.19.06.36.06.17-.15.25-.23.33ZM782.21,95.22c-.06.14-.26,0-.31-.17-.06-.18.16-.27.16-.27.28,0,.22.3.15.44ZM785.77,98.33c-.18.31-.34.61-.48.9-.35-.31-1.28-1.14-1.46-1.43-.21-.35-.57-.88-.89-1.14.07.05.66.43,1.4.86.58.34,1.03.62,1.43.8h0ZM786.04,114.62s1.27.08,1.71.47c0,0-1.46-.11-1.71-.47ZM789.63,94.26c-1.78,1.16-2.93,2.55-3.72,3.84-.86-.32-2.88-1.4-2.96-1.8-.09-.43-.47-.53-.47-.63s-.22-.24-.22-.24c.14-.15.17-.31.17-.57s-.13-.11-.29-.27c-.17-.17-.09-.25-.09-.38s.34-.11.38-.1h0s.02,0,.02,0c0,0-.18-.14.77.16.95.3,1.2-.12,1.2-.12,0,0,.47-1.1,1.18-.94.71.15,1.95-.43,1.95-.43,0,0,.97-.88,2.06-.17,1.09.71,0,1.65,0,1.65ZM798.9,93.23s.04.1.08.23c-.03-.07-.06-.15-.08-.23ZM800.86,101.46c-.11.49-.24.29-.24.29-.34-2.3-.94-2.49-.94-2.49v-.25c.09.09.6.07.6.07.04.19.56.28.56.28-.1.96.1,1.62.14,1.72-.01,0-.04.06-.11.37ZM801.53,96c-.11.11-.08.16.01.32.09.16,0,.34,0,.34-.26.26-1.76.25-1.76.25-.09-.3-.4-.6-.4-.6,0-.59-.29-1.17-.29-1.17.1-.43-.08-.78-.08-.78.07-.38.02-.69-.03-.9.36.82,1.3.54,1.3.54.37-.2,1.03-.15,1.03-.15-.05.22.25.56.25.56-.14.28.1.5.1.5-.2.31-.14,1.07-.14,1.07ZM807.16,106.11c-.4.06-.21-.17-.21-.17.27-.27.37-.68.37-.68.05.34.6.76.6.76-.27-.05-.37.03-.76.09ZM32.32,150.05c-.07,0-.15-.01-.15-.01-.19-.02-.38-.03-.57-.04.01,0,.02,0,.03-.01.23-.19.45-.19.68,0,.04.03.07.06.08.07-.01,0-.04,0-.07,0ZM13.24,142.69c-.15-.04-.28-.07-.4-.1.23-.09.55-.21.77-.22-.12.08-.28.21-.37.32ZM18.16,146.61s.02.02.03.03c.04.06.06.12.07.2-.04-.08-.07-.16-.1-.24ZM18.72,147.79c-.07-.13-.14-.26-.2-.38.08-.06.16-.15.21-.28.03.17.05.41-.01.66ZM223.4,55.64v110.21c-.35,0-.69.02-1.04.02V55.64h1.04ZM219.42,55.64h1.04v109.66c-.33-.33-.68-.67-1.04-1.03V55.64ZM216.48,55.64h1.04v106.67c-.35-.38-.7-.76-1.04-1.16V55.64ZM213.54,55.64h1.04v82.25c-.26-.18-.59-.39-1.04-.6V55.64ZM213.54,144.25c.44-1.24.79-2.21,1.04-2.96v17.45c-.37-.53-.72-1.07-1.04-1.62v-12.86ZM210.6,55.64h1.04v80.9c-.32-.11-.66-.21-1.04-.32V55.64ZM207.66,55.64h1.04v80.08c-.33-.08-.68-.16-1.04-.24V55.64ZM204.72,55.64h1.04v79.45c-.34-.06-.68-.13-1.04-.19V55.64ZM201.78,55.64h1.04v78.78c-.23-.14-.58-.36-1.04-.65V55.64ZM198.84,55.64h1.04v77c-.32-.19-.67-.38-1.04-.59V55.64ZM31.35,153c.04.15.14.26.25.33-.05.1-.11.21-.17.32-.21-.24-.15-.5-.07-.66ZM28.32,163.23c.02-.21.04-.4.07-.5.1-.37.69-2.21,1.04-2.88.21-.4.31-.78.39-1.12.06-.26.12-.48.21-.66.07-.13.13-.29.2-.47.16-.4.36-.91.7-1.25.2-.2.48-.78.8-1.44.44-.93,1-2.08,1.34-2.08.59,0,.8-.01.8-.29,0-.04.01-.1.02-.16,0-.03.01-.06.02-.08.05.04.08.09.09.14.05.22-.4.75-.7,1.04-.02.02-.02.04-.02.06,0,.02.03.04.05.04.3.03.55-.11.71-.24-.21.36-.73.85-.96,1.04-.02.02-.03.04-.02.07,0,.02.03.04.06.04.41-.02.8-.24,1.02-.37-.27.54-1.13,1.13-1.14,1.13-.02.01-.03.04-.02.06,0,.02.03.04.05.05.48.05.88-.18,1.09-.33-.2.54-1.03,1.22-1.04,1.23-.02.02-.03.04-.02.07s.03.04.06.04c.42,0,.75-.17.93-.28-.19.55-1.09,1.51-1.1,1.52-.02.02-.02.04-.01.06,0,.02.03.04.05.04.07,0,.15-.01.23-.04-1.4,2.25-3.26,4.29-4.95,6,.02-.16.04-.31.05-.45ZM225.3,165.82V55.64h1.04v110.15c-.35,0-.69.02-1.04.02ZM228.24,165.75V55.64h1.04v110.08c-.35,0-.7.01-1.04.02ZM231.18,165.69V55.64h1.04v110.02c-.35,0-.7.02-1.04.02ZM234.12,165.63V55.64h1.04v109.96c-.35,0-.69.02-1.04.02ZM842.06,155.27c.1.54.44,1.11.56,1.31-.21-.08-.49-.16-.83-.2.09-.47.19-.87.27-1.11ZM841.02,156.19c0,.06,0,.11,0,.17-.04,0-.07,0-.11,0,.04-.07.07-.13.1-.18ZM840.51,149.45c.19,0,.32.14.37.21-.16.08-.27.17-.37.26v-.47ZM840.51,150.33s0,0,0,0c.11,0,.2.03.27.06-.09.05-.18.1-.27.16v-.23ZM840.51,157.44c.09.04.18.09.19.17,0,.02.02.04.04.05.02,0,.05,0,.06-.02.04-.05.07-.17-.02-.29.03,0,.06-.02.1-.02.11,0,.21.06.3.18.01.02.04.03.06.02.01,0,.02-.02.02-.03.07.2.14.36.19.47-.25-.1-.57-.17-.95-.21v-.32ZM840.55,161.16s.05.02.07,0c.01,0,.23-.16.26-.48.09.15.18.39.05.62-.01.02,0,.05,0,.07.02.02.05.02.07,0,0,0,.19-.13.26-.36.05.14.09.34-.01.52-.01.02,0,.05.01.07.02.02.05.02.07,0,.01,0,.23-.17.28-.41.06.19.11.49,0,.64-.02.02-.02.05,0,.07.02.02.05.03.07.01.01,0,.24-.13.27-.44.1.13.25.36.23.67,0,.03.02.05.05.06.03,0,.06-.02.06-.04.01-.07.24-1.49-1.78-2.83v-.36s.01,0,.02,0c.05-.08.11-.24.06-.41.12.06.28.19.29.43,0,.02.02.04.04.05.02,0,.05,0,.06-.02,0,0,.14-.17.05-.41.12.06.28.19.27.43,0,.02.01.05.04.05.02,0,.05,0,.06-.02.06-.08.13-.25.07-.42.13.07.3.2.3.41,0,.03.02.05.05.06.03,0,.05-.01.06-.04.01-.05.06-.28.02-.43.15.02.43.11.59.4,0,.02.03.03.05.03,0,0,0,0,0,0,.03,0,.06-.02.06-.06,0,0,0-.02,0-.03-.02-.1-.18-.6-.92-.94-.01-.33,0-.67.05-1,.13.02.26.06.31.16.01.02.03.03.06.03.02,0,.04-.02.05-.04.01-.06,0-.17-.07-.26.14.02.28.06.33.15.01.02.04.03.06.03.02,0,.04-.02.04-.05,0,0,.01-.14-.06-.24.07,0,.15-.02.25-.02.14,0,.25.02.33.06,0,0,.02,0,.02,0h0s.06-.02.06-.06c0-.02-.02-.05-.04-.05-.06-.04-.16-.08-.27-.13,0,0,.01-.01.01-.02-.14-1.06.13-2.11.2-2.36.43.2.57,1.27.57,1.28,0,.02.01.03.03.04.02,0,.03,0,.05,0,.48-.24.75-2.34.78-2.66.18-.18.34-.32.48-.45-.21.75-.35,1.62-.45,2.25-.07.44-.13.79-.17.88-.05.1-.09.17-.12.22-.08.14-.11.2-.11.41,0,.36-.05,1.45-.22,1.8-.18.39-.19.82-.19,1.2,0,.36-.22,1.87-.44,2.34-.12.26-.11.53-.09.82.01.27.02.56-.07.85-.12.37-.14,1.25-.15,1.95,0,.45-.02.87-.05.98-.05.16.01.26.07.36.07.13.15.26.06.54-.16.52-.07,1.36.09,1.9.15.48-.03,1.39-.33,1.69s-.28.73-.27,1.35c0,.12,0,.26,0,.4,0,.09-.02.18-.04.26-.62-.04-1.25-.07-1.91-.11v-12.02s.03-.07.04-.11c.07.15.13.39,0,.67-.01.02,0,.05.01.07ZM771.36,134.87c1.25.19,2.43.36,3.58.5-.05.07-.09.12-.14.2-.92,1.59-2.85,1.21-2.85,1.21,0,0-.25.02-.6.1v-2.02ZM766.35,134c1.61.31,3.18.58,4.68.82v2.17c-.62.22-1.37.69-1.63,1.67h-2.06v2.22l-.98-1.44v-5.44ZM766.35,140.57l.98,1.44v1.39h-.98v-2.83ZM766.03,133.94v5.02l-4-5.87c1.36.31,2.69.59,4,.85ZM761.35,133.22l4.68,6.87v3.31h-2.86v2.61c-.61-.01-1.21-.03-1.82-.04v-12.75ZM756.35,131.63c1.41.4,2.82.77,4.21,1.11l-4.21,5.92v-7.04ZM756.35,139.77l4.68-6.58v12.76c-1.56-.03-3.12-.07-4.68-.1v-6.09ZM751.34,130.06c1.56.54,3.12,1.03,4.68,1.48v7.59l-4.68,6.58v-15.64ZM756.02,140.23v5.63c-1.32-.03-2.63-.05-3.95-.08l3.95-5.55ZM745.9,127.98c1.68.71,3.39,1.37,5.11,1.97v15.55l-5.11-10.07v-7.45ZM745.9,136.75l4.57,9c-1.53-.03-3.05-.06-4.57-.08v-8.92ZM745.58,127.84v6.94l-4.64-9.14c1.51.79,3.06,1.52,4.64,2.2ZM740.3,125.71l5.18,10.2-5.18,9.3v-19.49ZM745.58,136.26v9.41c-1.74-.03-3.47-.06-5.19-.08l5.19-9.33ZM734.48,121.72c1.65,1.17,3.39,2.25,5.19,3.25l-5.19,9.83v-13.08ZM739.98,125.68v19.56l-5.41-9.31,5.41-10.25ZM734.48,136.29l5.4,9.29c-1.81-.03-3.61-.05-5.4-.08v-9.21ZM728.6,116.7c1.68,1.74,3.55,3.33,5.55,4.79v13.96s-5.55-3.83-5.55-3.83v-14.91ZM727.46,145.4l-5.11-9.69,5.39-3.73v13.42c-.09,0-.18,0-.28,0ZM734.15,136.71v8.78c-1.54-.02-3.08-.04-4.61-.06l4.61-8.72ZM728.6,131.99l5.39,3.73-5.12,9.7c-.09,0-.18,0-.27,0v-13.43ZM722.19,121.47c1.99-1.43,3.85-3.01,5.55-4.77v14.91l-5.53,3.83v-.03s-.01-13.94-.01-13.94ZM722.19,136.71l4.59,8.69c-1.54-.02-3.07-.04-4.59-.05v-8.64ZM721.86,121.71v13.09l-5.22-9.88c1.81-.97,3.55-2.03,5.22-3.21ZM716.37,125.69l5.41,10.24-5.41,9.3v-19.54ZM721.86,136.29v9.05c-1.76-.02-3.5-.04-5.23-.05l5.23-9ZM710.76,127.66c1.59-.65,3.15-1.35,4.69-2.13l-4.69,9.09v-6.96ZM716.04,125.7v19.52l-5.23-9.39,5.23-10.13ZM710.76,136.26l5.02,9.02c-1.69-.02-3.37-.03-5.02-.05v-8.97ZM705.32,129.62c1.71-.54,3.42-1.15,5.11-1.83v7.46l-5.11,9.91v-15.55ZM710.44,136.56v8.67c-1.5-.01-2.99-.02-4.45-.04l4.45-8.63ZM700.32,131.05c1.55-.39,3.12-.83,4.68-1.32v15.46s-.08,0-.11,0l-4.57-6.58v-7.56ZM700.32,139.73l3.79,5.45c-1.28,0-2.54-.02-3.79-.03v-5.43ZM699.99,131.13v7.01l-4.21-6.06c1.39-.28,2.79-.6,4.21-.95ZM695.32,132.52l4.68,6.74v5.89c-1.59,0-3.15-.02-4.68-.03v-12.6ZM690.31,133.04c1.3-.19,2.63-.42,3.99-.67l-3.99,5.57v-4.9ZM690.31,139.04l4.68-6.53v12.62c-1.59,0-3.15-.02-4.68-.02v-6.06ZM685.31,133.68c1.49-.16,3.05-.35,4.68-.59v5.31l-4.68,6.54v-11.25ZM689.99,139.5v5.6c-1.36,0-2.7-.01-4-.02l4-5.59ZM680.3,134.11c1.44-.09,3-.22,4.68-.4v11.29l-4.68-5.55v-5.34ZM680.3,140.49l3.87,4.59c-1.33,0-2.62,0-3.87-.01v-4.58ZM679.98,134.13v4.94l-4.01-4.75c1.16-.03,2.51-.09,4.01-.18ZM675.3,134.55l4.68,5.55v4.97c-1.62,0-3.18,0-4.68,0v-10.51ZM673.28,134.35c.29,0,.62,0,.98,0l-.98,1.13v-1.13ZM673.28,136.51l1.69-1.96v10.51c-.57,0-1.12,0-1.68,0v-8.01h.1v-.28h-.12v-.25ZM633.69,103.86v.5h-.48c-.02-.08-.04-.16-.04-.25s.01-.17.04-.25h.48ZM633.28,103.68c.09-.18.23-.32.41-.41v.41h-.41ZM633.69,104.54v.41c-.18-.09-.32-.23-.41-.41h.41ZM634.03,119.59v1.02c-.9.04-1.62.77-1.66,1.66h-.38s-.09.04-.09.09.04.09.09.09h.38c.05.93.81,1.66,1.75,1.66s1.75-.78,1.75-1.75-.74-1.7-1.66-1.75v-1.02c1.49.05,2.68,1.27,2.68,2.77s-1.24,2.77-2.77,2.77-2.77-1.24-2.77-2.77,1.19-2.72,2.68-2.77ZM634.37,103.86v.5h-.5v-.5h.5ZM633.87,103.68v-.48c.08-.02.17-.04.25-.04s.17.02.25.04v.48h-.5ZM634.37,104.54v.48c-.08.02-.16.04-.25.04s-.17-.02-.25-.04v-.48h.5ZM635.03,103.86c.02.08.04.16.04.25s-.02.17-.04.25h-.48v-.5h.48ZM634.55,103.68v-.41c.18.09.32.24.41.41h-.41ZM634.96,104.54c-.09.18-.23.32-.41.41v-.41h.41ZM633.08,149.2v2.16h-2.31v-2.15c.78,0,1.55,0,2.31,0ZM630.8,145.06c.06-.36.29-.98,1.13-.98s1.07.61,1.13.97c-.74,0-1.49,0-2.25,0ZM634.12,159.31c3.22,0,3.5,3.78,3.5,3.78h-7s.28-3.78,3.5-3.78ZM634.03,130.04v.72h-.53v-.72h.53ZM633.52,129.86c.04-.15.17-.41.51-.45v.45h-.51ZM634.03,130.93v.66h-.53v-.66h.53ZM634.03,131.78v.66h-.53v-.66h.53ZM634.03,132.62v.65c-.17,0-.35-.01-.53-.02v-.63h.53ZM634.74,130.04v.72h-.53v-.72h.53ZM634.21,129.86v-.45c.34.04.46.3.51.45h-.51ZM634.74,130.93v.66h-.53v-.66h.53ZM634.74,131.78v.66h-.53v-.66h.53ZM634.74,132.62v.66h-.26c-.09,0-.18,0-.27,0v-.66h.53ZM637.47,149.19v2.16h-2.31v-2.16c.79,0,1.56,0,2.31,0ZM635.27,145.06v-.27c.12-.33.4-.7,1.05-.7.83,0,1.06.6,1.13.96-.71,0-1.43,0-2.18,0ZM636.8,133.32v-3.37s.08-.63.71-.63.71.63.71.63v3.36c-.34,0-.82.01-1.42,0ZM631.45,129.95v3.22c-.46-.02-.93-.05-1.42-.08v-3.13s.08-.63.71-.63.71.63.71.63ZM630.62,164.63h7v.8c-2.33-.05-4.66-.09-7-.14v-.66ZM659.36,165.89c-.06,0-.11,0-.16,0-1.08-.02-2.18-.05-3.26-.07v-1.06h3.43v1.14ZM666.22,160.7v.84h-.31v-.84h.31ZM665.91,160.52v-.84h.31v.84h-.31ZM666.22,161.71v.83h-.31v-.83h.31ZM666.71,160.7v.84h-.31v-.84h.31ZM666.4,160.52v-.84h.31v.84h-.31ZM666.71,161.71v.83h-.31v-.83h.31ZM670.02,126.55c0-.05.03-1.23.79-1.23s.79,1.17.79,1.23v4.24s-.02.04-.04.04h-1.5s-.04-.02-.04-.04v-4.24ZM667.9,145.05c-.69,0-1.35,0-1.99,0l1.39-1.61c.49.45.6,1.06.6,1.06v.55ZM665.29,144.75v-1.28c.24-.23.56-.42,1.02-.47.15.02.29.05.41.1l-1.43,1.65ZM664.84,126.17s.04-1.47,1.46-1.47,1.46,1.47,1.46,1.47v5.28h-2.93v-5.28ZM664.96,143.87v.88l-.24-.28c.02-.08.09-.32.24-.59ZM664.71,149.19c1,0,2.06,0,3.19,0v.52h-3.19v-.52ZM661.06,126.55s.02-1.18.75-1.18.75,1.18.75,1.18v4.24h-1.5v-4.24ZM659.36,163.95h-3.43s.15-1.96,1.71-1.96c1.45,0,1.71,1.96,1.71,1.96ZM659.24,149.2v3.05h-3.19v-3.04c.69,0,1.78,0,3.19,0ZM656.09,145.07c.1-.34.46-1.25,1.56-1.37,1.09.12,1.45,1.01,1.56,1.36-1.38,0-2.42,0-3.12.01ZM656.26,129.9c2.39,0,3.04,2.62,3.04,2.62h-6.07s.65-2.62,3.04-2.62ZM647.53,126.86c.34.04.47.3.51.45h-.51v-.45ZM647.53,127.49h.53v.72h-.53v-.72ZM647.53,128.39h.53v.66h-.53v-.66ZM647.53,129.23h.53v.66h-.53v-.66ZM647.53,130.07h.53v.66h-.53v-.66ZM647.53,130.92h.53v.66h-.53v-.66ZM647.53,131.76h.53v.75h-.53v-.75ZM647.35,126.86v.45h-.51c.04-.15.17-.41.51-.45ZM646.82,127.49h.53v.72h-.53v-.72ZM646.82,128.39h.53v.66h-.53v-.66ZM646.82,129.23h.53v.66h-.53v-.66ZM646.82,130.07h.53v.66h-.53v-.66ZM646.82,130.92h.53v.66h-.53v-.66ZM646.82,131.76h.53v.75h-.53v-.75ZM635.52,107.71s.04-1.53,1.46-1.53,1.46,1.53,1.46,1.53v6.56h-2.93v-6.56ZM632.99,82.73s.16-1.06,1.13-1.06,1.13,1.06,1.13,1.06v5.9h-2.26v-5.9ZM629.8,107.71s.05-1.53,1.46-1.53,1.46,1.53,1.46,1.53v6.56h-2.93v-6.56ZM620.89,127.03c.34.04.46.3.51.45h-.51v-.45ZM620.89,127.66h.53v.73h-.53v-.73ZM620.89,128.56h.53v.66h-.53v-.66ZM620.89,129.4h.53v.66h-.53v-.66ZM620.89,130.24h.53v.66h-.53v-.66ZM620.89,131.09h.53v.66h-.53v-.66ZM620.89,131.93h.53v.29c-.18-.02-.35-.05-.53-.07v-.21ZM620.71,127.03v.45h-.51c.04-.15.17-.41.51-.45ZM620.18,127.66h.53v.73h-.53v-.73ZM620.18,128.56h.53v.66h-.53v-.66ZM620.18,129.4h.53v.66h-.53v-.66ZM620.18,130.24h.53v.66h-.53v-.66ZM620.18,131.09h.53v.66h-.53v-.66ZM620.18,131.93h.53v.19c-.18-.03-.35-.05-.53-.08v-.11ZM611.99,129.9c1.07,0,1.78.52,2.25,1.1-1.17-.24-2.35-.5-3.54-.79.36-.18.78-.3,1.28-.3ZM610.24,131.13c1.42.35,2.82.67,4.21.95l-.3.44h-3.91v-1.39ZM610.24,143.79c.11-.03.22-.07.35-.08,1.17.13,1.51,1.15,1.58,1.43-.65,0-1.28,0-1.93.01v-1.36ZM612.19,149.28v2.97h-3.19v-2.95c1.08,0,2.14-.01,3.19-.02ZM609.01,145.16c.05-.19.26-.87.9-1.23v1.22c-.3,0-.6,0-.9,0ZM609.73,131c.06.02.12.03.18.05v1.47h-.97s.2-.8.78-1.52ZM610.6,161.99c1.57,0,1.71,1.96,1.71,1.96h-3.43s.27-1.96,1.71-1.96ZM612.31,164.75v.2c-1.14-.02-2.28-.04-3.43-.06v-.14h3.43ZM601.85,160.7v.84h-.31v-.84h.31ZM601.54,160.52v-.83h.31v.83h-.31ZM601.85,161.71v.84h-.31v-.84h.31ZM602.34,160.7v.84h-.31v-.84h.31ZM602.03,160.52v-.83h.31v.83h-.31ZM602.34,161.71v.84h-.31v-.84h.31ZM605.69,126.55s.02-1.18.75-1.18.75,1.18.75,1.18v2.72c-.5-.14-1-.29-1.5-.45v-2.27ZM605.69,129.86c.5.15,1,.3,1.5.44v.48h-1.5v-.93ZM601.35,124.82c.17-.07.35-.12.59-.12,1.42,0,1.46,1.47,1.46,1.47v1.9c-.69-.23-1.37-.48-2.05-.74v-2.52ZM601.35,128.38c.68.25,1.36.5,2.05.73v2.34h-2.05v-3.07ZM601.35,143.17c.17-.08.36-.15.59-.17,1.36.15,1.6,1.51,1.6,1.51v.69c-.72,0-1.45.01-2.18.02v-2.05ZM601.35,149.35c.73,0,1.46-.01,2.18-.02v.37h-2.18v-.36ZM550.01,158.11v-.99l9.66,6.48v.59c-.2,0-.41,0-.61,0l-9.05-6.07ZM563.89,74.13v.99l-13.88-9.32v-.99l13.88,9.32ZM550.01,61.19v-.99l13.88,9.32v.99l-13.88-9.32ZM561.97,77.45h-.59v.6l-11.37-7.63v-.99l11.96,8.03ZM561.38,81.67v.99l-11.37-7.63v-.99l11.37,7.63ZM561.38,86.29v.99l-11.37-7.63v-.99l11.37,7.63ZM561.38,90.9v.99l-11.37-7.63v-.99l11.37,7.63ZM561.38,95.52v.99l-11.37-7.63v-.99l11.37,7.63ZM561.38,100.13v.99l-11.37-7.63v-.99l11.37,7.63ZM561.38,104.75v.99l-11.37-7.63v-.99l11.37,7.63ZM561.38,109.37v.99l-11.37-7.63v-.99l11.37,7.63ZM561.38,113.98v.99l-11.37-7.63v-.99l11.37,7.63ZM561.38,118.6v.99l-11.37-7.63v-.99l11.37,7.63ZM561.38,123.21v.99l-11.37-7.63v-.99l11.37,7.63ZM561.38,127.83v.28c-.23.09-.45.17-.68.25l-10.69-7.18v-.99l11.37,7.63ZM553.17,150.01l8.21,5.51v.99l-9.64-6.47c.48,0,.96-.02,1.43-.03ZM550.01,144.27v-.99l3.86,2.59c-.48,0-.96.02-1.43.03l-2.43-1.63ZM553.89,136.65v.99l-1.39-.93-1.35-1.9,2.74,1.84ZM552.4,132.02c.35-.1.7-.18,1.06-.28l.43.29v.99l-1.49-1ZM558.9,135.39v.99l-4.68-3.14v-.99l4.68,3.14ZM557.19,130.62c.33-.11.66-.22.99-.33l.72.48v.99l-1.71-1.15ZM558.9,140.01v.99l-4.68-3.14v-.99l4.68,3.14ZM558.9,144.63v.99l-.11-.08-1.35-1.9,1.46.98ZM555.93,142.64l1.35,1.9-3.06-2.05v-.99l1.71,1.15ZM558.42,149.91c.48,0,.96-.02,1.44-.03l1.52,1.02v.99l-2.96-1.99ZM559.22,141.22v-.99l2,1.34-.38.74-1.62-1.09ZM560.55,145.74c-.26,0-.52,0-.78.01l.2-.4.58.39ZM559.47,145.01l-.25.49v-.65l.25.17ZM561.34,142.65l.03-.06v.09l-.03-.02ZM559.22,136.61v-.99l2.15,1.44v.99l-2.15-1.45ZM559.22,131.99v-.99l2.15,1.44v.99l-2.15-1.44ZM557.13,129.6c-.33.11-.67.21-1,.32l-6.13-4.11v-.99l7.13,4.78ZM552.36,131.01c-.35.1-.71.19-1.06.28l-1.3-.87v-.99l2.36,1.58ZM550.99,135.7l-.99-.66v-.73l.99,1.39ZM553.89,141.27v.99l-3.89-2.61v-.99l3.89,2.61ZM550.01,136.27h-.79v-.82h.79v.82ZM550.01,140.06v.83h-.79v-.83h.79ZM550.01,144.68v.83h-.79v-.83h.79ZM550.01,150.08v.04h-1.76c.59-.01,1.17-.03,1.76-.04ZM550.01,152.51l11.37,7.63v.99l-11.37-7.63v-.99ZM550.01,55.58l15.39,10.33-.74.5-14.65-9.83v-.99ZM547.62,56.98h2.38v.83h-2.38v-.83ZM547.62,61.6h2.38v.82h-2.38v-.82ZM547.62,66.21h2.38v.83h-2.38v-.83ZM547.62,70.83h2.38v.83h-2.38v-.83ZM547.62,75.45h2.38v.82h-2.38v-.82ZM547.62,80.06h2.38v.83h-2.38v-.83ZM547.62,84.68h2.38v.83h-2.38v-.83ZM547.62,89.29h2.38v.82h-2.38v-.82ZM547.62,93.91h2.38v.83h-2.38v-.83ZM547.62,98.52h2.38v.82h-2.38v-.82ZM547.62,103.14h2.38v.83h-2.38v-.83ZM547.62,107.75h2.38v.83h-2.38v-.83ZM547.62,112.37h2.38v.82h-2.38v-.82ZM547.62,116.98h2.38v.83h-2.38v-.83ZM547.62,121.6h2.38v.82h-2.38v-.82ZM547.62,126.21h2.38v.83h-2.38v-.83ZM547.62,130.83h2.38v.79s-.1.02-.15.04h-2.24v-.83ZM547.62,135.45h1.27v.82h-1.27v-.82ZM547.62,140.06h1.27v.83h-1.27v-.83ZM547.62,144.68h1.27v.83h-1.27v-.83ZM547.62,153.91h2.38v.83h-2.38v-.83ZM547.62,158.52h2.38v.82h-2.38v-.82ZM533.87,47.13h6.32v10.66h-6.32v-10.66ZM516.61,144.65l-.56-.61,2.81-1.89v.99l-2.25,1.51ZM518.86,146.76v.04s-.04,0-.06,0l.06-.04ZM514.18,141.66v-.99l4.68-3.14v.99l-4.68,3.14ZM516.04,145.03l-1.86,1.25v-.99l1.29-.87.56.61ZM514.18,137.05v-.02h.03s-.03.02-.03.02ZM515.94,135.87l-1.66.12,9.78-6.56v.99l-8.12,5.45ZM526.44,130.83v.83h-2.38v-.83h2.38ZM524.06,127.04v-.83h2.38v.83h-2.38ZM524.06,154.73v-.83h2.38v.83h-2.38ZM526.44,158.52v.82h-2.38v-.82h2.38ZM524.06,135.04l-.47.32c-.41.01-.65.02-.68.02l-.92.07,2.08-1.39v.99ZM524.19,145.5v-.83h2.25v.83h-2.25ZM524.19,140.89v-.83h.72l-.68.83h-.04ZM525.09,140.89l.68-.83h.67v.83h-1.35ZM525.97,136.27c.15,0,.32-.02.48-.03v.03h-.48ZM521.91,136.48l-2.72,1.83v-.99l1.07-.72,1.65-.12ZM519.19,146.54l.93-.63-.71.86c-.08,0-.15,0-.23,0v-.25ZM519.19,142.92v-.99l4.68-3.14v.99l-4.68,3.14ZM522.02,144.64l1.85-1.24v.99l-3.51,2.35s-.05,0-.07,0l1.72-2.1ZM524.06,152.51v.99l-15.27,10.25c-.49,0-.98,0-1.47,0l16.74-11.23ZM524.06,157.12v.99l-8.46,5.68c-.49,0-.98,0-1.47,0l9.92-6.66ZM524.06,56.98h2.38v.83h-2.38v-.83ZM524.06,61.6h2.38v.82h-2.38v-.82ZM524.06,66.21h2.38v.83h-2.38v-.83ZM524.06,70.83h2.38v.83h-2.38v-.83ZM524.06,75.45h2.38v.82h-2.38v-.82ZM524.06,80.06h2.38v.83h-2.38v-.83ZM524.06,84.68h2.38v.83h-2.38v-.83ZM524.06,89.29h2.38v.82h-2.38v-.82ZM524.06,93.91h2.38v.83h-2.38v-.83ZM524.06,98.52h2.38v.82h-2.38v-.82ZM524.06,103.14h2.38v.83h-2.38v-.83ZM524.06,107.75h2.38v.83h-2.38v-.83ZM524.06,112.37h2.38v.82h-2.38v-.82ZM524.06,116.98h2.38v.83h-2.38v-.83ZM524.06,121.6h2.38v.82h-2.38v-.82ZM524.06,124.81v.99l-15.82,10.61-1.65.12,17.47-11.72ZM512.86,141.56l.56.61-4.24,2.85v-.99l3.68-2.47ZM509.18,140.4v-.99l1.05-.71.56.61-1.62,1.08ZM513.86,145.51v.99l-.76.51c-.53.02-1.04.04-1.57.06l2.33-1.56ZM513.43,141.18l.43-.29v.76l-.43-.47ZM511.37,138.94l-.56-.61,1.75-1.18,1.3-.09v.21l-2.49,1.67ZM508.85,139.63v.99l-2.58,1.73h-1.61l.72-.83h.64l2.83-1.9ZM506.52,137.58l-.24.16h-2.01l2.25-.16ZM504.18,141.53h.32l-.32.36v-.36ZM504.18,146.14h1.85l2.83-1.9v.99l-2.58,1.73h-2.1v-.83ZM506.54,151.41l-.27.18h-3.83c1.35-.06,2.72-.12,4.1-.18ZM500.31,138.02l.87-.06v3.57h2.67v.74l-.08.09h-2.59v2.96l-.87.99v-8.28ZM500.31,147.32l1.03-1.18h2.51v.83h-2.67v.54c-.29.01-.58.03-.87.04v-.22ZM453.47,142.43v1.91c-.39-.51-.79-1.01-1.2-1.5.4-.14.8-.27,1.2-.41ZM449.33,138.94v-6.12c.63-.39,1.27-.76,1.92-1.12-.46,2.49-1.11,4.93-1.92,7.26v-.02ZM449.78,144.22c.32.16.6.43.75.62.38.45.56.77.67,1.03-.44-.57-.92-1.12-1.42-1.65ZM450.74,147.73c-.32.55-.69.95-.99,1.22-.07-.12-.14-.23-.22-.34.4-.29.8-.58,1.2-.88ZM449.33,144.86s0,0,0,0c0,0,0,0,0,0h0ZM447.45,134.03h-.01s0,0,.01,0h0ZM446.3,3.24h1.16v5.26h-1.16V3.24ZM446.3,10.18h1.16v1.72h-1.16v-1.72ZM446.3,13.57h1.16v1.72h-1.16v-1.72ZM446.3,16.97h1.16v1.72h-1.16v-1.72ZM446.3,20.36h1.16v1.72h-1.16v-1.72ZM446.3,23.75h1.16v1.72h-1.16v-1.72ZM446.3,27.14h1.16v1.72h-1.16v-1.72ZM446.3,30.54h1.16v1.72h-1.16v-1.72ZM446.3,33.93h1.16v1.72h-1.16v-1.72ZM446.3,37.32h1.16v1.72h-1.16v-1.72ZM446.3,40.71h1.16v1.72h-1.16v-1.72ZM446.3,44.11h1.16v1.72h-1.16v-1.72ZM446.3,47.5h1.16v1.72h-1.16v-1.72ZM446.3,50.89h1.16v1.72h-1.16v-1.72ZM446.3,54.28h1.16v1.72h-1.16v-1.72ZM446.3,57.68h1.16v1.72h-1.16v-1.72ZM446.3,61.07h1.16v1.72h-1.16v-1.72ZM446.3,64.46h1.16v1.72h-1.16v-1.72ZM446.3,67.86h1.16v1.72h-1.16v-1.72ZM446.3,71.25h1.16v1.72h-1.16v-1.72ZM446.3,74.64h1.16v1.72h-1.16v-1.72ZM446.3,78.03h1.16v1.72h-1.16v-1.72ZM446.3,81.43h1.16v1.72h-1.16v-1.72ZM446.3,84.82h1.16v1.72h-1.16v-1.72ZM446.3,88.21h1.16v1.72h-1.16v-1.72ZM446.3,91.6h1.16v1.72h-1.16v-1.72ZM446.3,95h1.16v1.72h-1.16v-1.72ZM446.3,98.39h1.16v1.72h-1.16v-1.72ZM446.3,101.78h1.16v1.72h-1.16v-1.72ZM446.3,105.17h1.16v1.72h-1.16v-1.72ZM446.3,108.57h1.16v1.72h-1.16v-1.72ZM446.3,111.96h1.16v1.72h-1.16v-1.72ZM446.3,115.35h1.16v1.72h-1.16v-1.72ZM446.3,118.75h1.16v1.72h-.45c-.23-.09-.47-.17-.71-.25v-1.46ZM446.3,135.71h1.16v1.72h-1.16v-1.72ZM446.3,142.63s.08-.09.12-.14h.36c.09.07.18.15.27.22-.06.06-.12.11-.17.18-.32.35-.51.77-.58,1.21v-1.46ZM446.3,145.89h.04c.22.22.45.45.66.68,0,0,0,0,0,0,.13.19.29.38.45.58v.45h-1.16v-1.72ZM446.3,149.28h1.16v1.72h-1.16v-1.72ZM446.3,152.67h1.16v1.72h-1.16v-1.72ZM446.3,156.06h1.16v1.72h-1.16v-1.72ZM446.3,159.46h1.16v1.72h-1.16v-1.72ZM447.45,162.85v.69c-.39,0-.77,0-1.16,0v-.69h1.16ZM444.48,136.32s-.06-.04-.09-.05c.03-.02.06-.04.09-.07v.12ZM443.32,3.24h1.16v5.26h-1.16V3.24ZM443.32,10.18h1.16v1.72h-1.16v-1.72ZM443.32,13.57h1.16v1.72h-1.16v-1.72ZM443.32,16.97h1.16v1.72h-1.16v-1.72ZM443.32,20.36h1.16v1.72h-1.16v-1.72ZM443.32,23.75h1.16v1.72h-1.16v-1.72ZM443.32,27.14h1.16v1.72h-1.16v-1.72ZM443.32,30.54h1.16v1.72h-1.16v-1.72ZM443.32,33.93h1.16v1.72h-1.16v-1.72ZM443.32,37.32h1.16v1.72h-1.16v-1.72ZM443.32,40.71h1.16v1.72h-1.16v-1.72ZM443.32,44.11h1.16v1.72h-1.16v-1.72ZM443.32,47.5h1.16v1.72h-1.16v-1.72ZM443.32,50.89h1.16v1.72h-1.16v-1.72ZM443.32,54.28h1.16v1.72h-1.16v-1.72ZM443.32,57.68h1.16v1.72h-1.16v-1.72ZM443.32,61.07h1.16v1.72h-1.16v-1.72ZM443.32,64.46h1.16v1.72h-1.16v-1.72ZM443.32,67.86h1.16v1.72h-1.16v-1.72ZM443.32,71.25h1.16v1.72h-1.16v-1.72ZM443.32,74.64h1.16v1.72h-1.16v-1.72ZM443.32,78.03h1.16v1.72h-1.16v-1.72ZM443.32,81.43h1.16v1.72h-1.16v-1.72ZM443.32,84.82h1.16v1.72h-1.16v-1.72ZM443.32,88.21h1.16v1.72h-1.16v-1.72ZM443.32,91.6h1.16v1.72h-1.16v-1.72ZM443.32,95h1.16v1.72h-1.16v-1.72ZM443.32,98.39h1.16v1.72h-1.16v-1.72ZM443.32,101.78h1.16v1.72h-1.16v-1.72ZM443.32,105.17h1.16v1.72h-1.16v-1.72ZM443.32,108.57h1.16v1.72h-1.16v-1.72ZM443.32,111.96h1.16v1.72h-1.16v-1.72ZM443.32,115.35h1.16v1.72h-1.16v-1.72ZM443.32,118.75h1.16v.86c-.38-.12-.77-.24-1.16-.35v-.51ZM443.32,140.49s.05-.07.07-.1c0,.17,0,.31,0,.43h-.07v-.33ZM443.32,143.36c.39.27.77.55,1.14.85h-1.14v-.85ZM443.32,145.89h1.16v1.72h-1.16v-1.72ZM443.32,149.28h1.16v1.72h-1.16v-1.72ZM443.32,152.67h1.16v1.72h-1.16v-1.72ZM443.32,156.06h1.16v1.72h-1.16v-1.72ZM443.32,159.46h1.16v1.72h-1.16v-1.72ZM444.48,162.85v.68c-.39,0-.77,0-1.16,0v-.68h1.16ZM441.5,118.79c-.06-.02-.13-.03-.19-.05h.19v.05ZM440.34,3.24h1.16v5.26h-1.16V3.24ZM440.34,10.18h1.16v1.72h-1.16v-1.72ZM440.34,13.57h1.16v1.72h-1.16v-1.72ZM440.34,16.97h1.16v1.72h-1.16v-1.72ZM440.34,20.36h1.16v1.72h-1.16v-1.72ZM440.34,23.75h1.16v1.72h-1.16v-1.72ZM440.34,27.14h1.16v1.72h-1.16v-1.72ZM440.34,30.54h1.16v1.72h-1.16v-1.72ZM440.34,33.93h1.16v1.72h-1.16v-1.72ZM440.34,37.32h1.16v1.72h-1.16v-1.72ZM440.34,40.71h1.16v1.72h-1.16v-1.72ZM440.34,44.11h1.16v1.72h-1.16v-1.72ZM440.34,47.5h1.16v1.72h-1.16v-1.72ZM440.34,50.89h1.16v1.72h-1.16v-1.72ZM440.34,54.28h1.16v1.72h-1.16v-1.72ZM440.34,57.68h1.16v1.72h-1.16v-1.72ZM440.34,61.07h1.16v1.72h-1.16v-1.72ZM440.34,64.46h1.16v1.72h-1.16v-1.72ZM440.34,67.86h1.16v1.72h-1.16v-1.72ZM440.34,71.25h1.16v1.72h-1.16v-1.72ZM440.34,74.64h1.16v1.72h-1.16v-1.72ZM440.34,78.03h1.16v1.72h-1.16v-1.72ZM440.34,81.43h1.16v1.72h-1.16v-1.72ZM440.34,84.82h1.16v1.72h-1.16v-1.72ZM440.34,88.21h1.16v1.72h-1.16v-1.72ZM440.34,91.6h1.16v1.72h-1.16v-1.72ZM440.34,95h1.16v1.72h-1.16v-1.72ZM440.34,98.39h1.16v1.72h-1.16v-1.72ZM440.34,101.78h1.16v1.72h-1.16v-1.72ZM440.34,105.17h1.16v1.72h-1.16v-1.72ZM440.34,108.57h1.16v1.72h-1.16v-1.72ZM440.34,111.96h1.16v1.72h-1.16v-1.72ZM440.34,115.35h1.16v1.72h-1.16v-1.72ZM440.34,132.32h.03c0,.57,0,1.15-.02,1.72h-.02v-1.72ZM440.34,139.95c.33-.2.63-.48.87-.85h.12c.05.03.11.05.16.08v.62c-.19.34-.38.68-.58,1.02h-.39c-.06-.03-.13-.06-.2-.09v-.77ZM440.34,142.49h1.16v1.72h-1.16v-1.72ZM440.34,145.89h1.16v1.72h-1.16v-1.72ZM440.34,149.28h1.16v1.72h-1.16v-1.72ZM440.34,152.67h1.16v1.72h-1.16v-1.72ZM440.34,156.06h1.16v1.72h-1.16v-1.72ZM440.34,159.46h1.16v1.72h-1.16v-1.72ZM441.5,162.85v.68c-.39,0-.77,0-1.16,0v-.68h1.16ZM437.81,136.67c.18-.2.42-.33.71-.34v.62c-.24-.09-.47-.19-.71-.28ZM438.21,137.02c-.17-.06-.35-.12-.53-.17,0,0,0-.01.01-.02.17.06.35.13.52.19ZM437.36,3.24h1.16v5.26h-1.16V3.24ZM437.36,10.18h1.16v1.72h-1.16v-1.72ZM437.36,13.57h1.16v1.72h-1.16v-1.72ZM437.36,16.97h1.16v1.72h-1.16v-1.72ZM437.36,20.36h1.16v1.72h-1.16v-1.72ZM437.36,23.75h1.16v1.72h-1.16v-1.72ZM437.36,27.14h1.16v1.72h-1.16v-1.72ZM437.36,30.54h1.16v1.72h-1.16v-1.72ZM437.36,33.93h1.16v1.72h-1.16v-1.72ZM437.36,37.32h1.16v1.72h-1.16v-1.72ZM437.36,40.71h1.16v1.72h-1.16v-1.72ZM437.36,44.11h1.16v1.72h-1.16v-1.72ZM437.36,47.5h1.16v1.72h-1.16v-1.72ZM437.36,50.89h1.16v1.72h-1.16v-1.72ZM437.36,54.28h1.16v1.72h-1.16v-1.72ZM437.36,57.68h1.16v1.72h-1.16v-1.72ZM437.36,61.07h1.16v1.72h-1.16v-1.72ZM437.36,64.46h1.16v1.72h-1.16v-1.72ZM437.36,67.86h1.16v1.72h-1.16v-1.72ZM437.36,71.25h1.16v1.72h-1.16v-1.72ZM437.36,74.64h1.16v1.72h-1.16v-1.72ZM437.36,78.03h1.16v1.72h-1.16v-1.72ZM437.36,81.43h1.16v1.72h-1.16v-1.72ZM437.36,84.82h1.16v1.72h-1.16v-1.72ZM437.36,88.21h1.16v1.72h-1.16v-1.72ZM437.36,91.6h1.16v1.72h-1.16v-1.72ZM437.36,95h1.16v1.72h-1.16v-1.72ZM437.36,98.39h1.16v1.72h-1.16v-1.72ZM437.36,101.78h1.16v1.72h-1.16v-1.72ZM437.36,105.17h1.16v1.72h-1.16v-1.72ZM437.36,108.57h1.16v1.72h-1.16v-1.72ZM437.36,111.96h1.16v1.72h-1.16v-1.72ZM437.36,115.35h1.16v1.72h-1.16v-1.72ZM437.36,128.99s.03-.04.05-.06h1.11v1.72h-1.16v-1.65ZM437.36,132.32h1.16v1.23c-.3-.1-.6-.21-.9-.31-.09-.03-.18-.05-.26-.08v-.85ZM437.36,140.3c.39.14.78.29,1.16.45v.07h-1.16v-.52ZM437.36,142.49h1.16v1.72h-1.16v-1.72ZM437.36,145.89h1.16v1.72h-1.16v-1.72ZM437.36,149.28h1.16v1.72h-1.16v-1.72ZM437.36,152.67h1.16v1.72h-1.16v-1.72ZM437.36,156.06h1.16v1.72h-1.16v-1.72ZM437.36,159.46h1.16v1.72h-1.16v-1.72ZM438.52,162.85v.68c-.39,0-.77,0-1.16,0v-.68h1.16ZM435,136.12s.07-.06.1-.09c.15.04.29.08.43.12v.1c-.18-.04-.36-.09-.53-.13ZM435.42,137c-.02.14-.02.28-.01.42h-.73s0-.09,0-.13c0-.15-.03-.32-.09-.49.28.06.55.13.83.19ZM434.81,132.48c.04-.06.08-.11.11-.16h.62v.34c-.24-.06-.49-.13-.73-.18ZM434.38,3.24h1.16v5.26h-1.16V3.24ZM434.38,10.18h1.16v1.72h-1.16v-1.72ZM434.38,13.57h1.16v1.72h-1.16v-1.72ZM434.38,16.97h1.16v1.72h-1.16v-1.72ZM434.38,20.36h1.16v1.72h-1.16v-1.72ZM434.38,23.75h1.16v1.72h-1.16v-1.72ZM434.38,27.14h1.16v1.72h-1.16v-1.72ZM434.38,30.54h1.16v1.72h-1.16v-1.72ZM434.38,33.93h1.16v1.72h-1.16v-1.72ZM434.38,37.32h1.16v1.72h-1.16v-1.72ZM434.38,40.71h1.16v1.72h-1.16v-1.72ZM434.38,44.11h1.16v1.72h-1.16v-1.72ZM434.38,47.5h1.16v1.72h-1.16v-1.72ZM434.38,50.89h1.16v1.72h-1.16v-1.72ZM434.38,54.28h1.16v1.72h-1.16v-1.72ZM434.38,57.68h1.16v1.72h-1.16v-1.72ZM434.38,61.07h1.16v1.72h-1.16v-1.72ZM434.38,64.46h1.16v1.72h-1.16v-1.72ZM434.38,67.86h1.16v1.72h-1.16v-1.72ZM434.38,71.25h1.16v1.72h-1.16v-1.72ZM434.38,74.64h1.16v1.72h-1.16v-1.72ZM434.38,78.03h1.16v1.72h-1.16v-1.72ZM434.38,81.43h1.16v1.72h-1.16v-1.72ZM434.38,84.82h1.16v1.72h-1.16v-1.72ZM434.38,88.21h1.16v1.72h-1.16v-1.72ZM434.38,91.6h1.16v1.72h-1.16v-1.72ZM434.38,95h1.16v1.72h-1.16v-1.72ZM434.38,98.39h1.16v1.72h-1.16v-1.72ZM434.38,101.78h1.16v1.72h-1.16v-1.72ZM434.38,105.17h1.16v1.72h-1.16v-1.72ZM434.38,108.57h1.16v1.72h-1.16v-1.72ZM434.38,111.96h1.16v1.72h-1.16v-1.72ZM434.38,115.35h1.16v1.72h-1.16v-1.72ZM434.38,139.4c.39.09.78.2,1.16.31v1.11h-1.16v-1.42ZM434.38,142.49h1.16v1.72h-1.16v-1.72ZM434.38,145.89h1.16v1.72h-1.16v-1.72ZM434.38,149.28h1.16v1.72h-1.16v-1.72ZM434.38,152.67h1.16v1.72h-1.16v-1.72ZM434.38,156.06h1.16v1.72h-1.16v-1.72ZM434.38,159.46h1.16v1.72h-1.16v-1.72ZM435.54,162.85v.68c-.39,0-.77,0-1.16,0v-.67h1.16ZM432.56,137.42h-.43c.05-.27.09-.53.14-.8,0,0,.02,0,.03,0,.11.02.19.05.26.09v.71ZM431.4,3.24h1.16v5.26h-1.16V3.24ZM431.4,10.18h1.16v1.72h-1.16v-1.72ZM431.4,13.57h1.16v1.72h-1.16v-1.72ZM431.4,16.97h1.16v1.72h-1.16v-1.72ZM431.4,20.36h1.16v1.72h-1.16v-1.72ZM431.4,23.75h1.16v1.72h-1.16v-1.72ZM431.4,27.14h1.16v1.72h-1.16v-1.72ZM431.4,30.54h1.16v1.72h-1.16v-1.72ZM431.4,33.93h1.16v1.72h-1.16v-1.72ZM431.4,37.32h1.16v1.72h-1.16v-1.72ZM431.4,40.71h1.16v1.72h-1.16v-1.72ZM431.4,44.11h1.16v1.72h-1.16v-1.72ZM431.4,47.5h1.16v1.72h-1.16v-1.72ZM431.4,50.89h1.16v1.72h-1.16v-1.72ZM431.4,54.28h1.16v1.72h-1.16v-1.72ZM431.4,57.68h1.16v1.72h-1.16v-1.72ZM431.4,61.07h1.16v1.72h-1.16v-1.72ZM431.4,64.46h1.16v1.72h-1.16v-1.72ZM431.4,67.86h1.16v1.72h-1.16v-1.72ZM431.4,71.25h1.16v1.72h-1.16v-1.72ZM431.4,74.64h1.16v1.72h-1.16v-1.72ZM431.4,78.03h1.16v1.72h-1.16v-1.72ZM431.4,81.43h1.16v1.72h-1.16v-1.72ZM431.4,84.82h1.16v1.72h-1.16v-1.72ZM431.4,88.21h1.16v1.72h-1.16v-1.72ZM431.4,91.6h1.16v1.72h-1.16v-1.72ZM431.4,95h1.16v1.72h-1.16v-1.72ZM431.4,98.39h1.16v1.72h-1.16v-1.72ZM431.4,101.78h1.16v1.72h-1.16v-1.72ZM431.4,105.17h1.16v1.72h-1.16v-1.72ZM431.4,108.57h1.16v1.72h-1.16v-1.72ZM431.4,111.96h1.16v1.72h-1.16v-1.72ZM431.4,115.35h1.16v1.72h-1.16v-1.72ZM431.4,139.1h1.16v1.72h-1.16v-1.72ZM431.4,142.49h1.16v1.72h-1.16v-1.72ZM431.4,145.89h1.16v1.72h-1.16v-1.72ZM431.4,149.28h1.16v1.72h-1.16v-1.72ZM431.4,152.67h1.16v1.72h-1.16v-1.72ZM431.4,156.06h1.16v1.72h-1.16v-1.72ZM431.4,159.46h1.16v1.72h-1.16v-1.72ZM432.56,162.85v.67c-.39,0-.77,0-1.16,0v-.67h1.16ZM428.42,3.24h1.16v5.26h-1.16V3.24ZM428.42,10.18h1.16v1.72h-1.16v-1.72ZM428.42,13.57h1.16v1.72h-1.16v-1.72ZM428.42,16.97h1.16v1.72h-1.16v-1.72ZM428.42,20.36h1.16v1.72h-1.16v-1.72ZM428.42,23.75h1.16v1.72h-1.16v-1.72ZM428.42,27.14h1.16v1.72h-1.16v-1.72ZM428.42,30.54h1.16v1.72h-1.16v-1.72ZM428.42,33.93h1.16v1.72h-1.16v-1.72ZM428.42,37.32h1.16v1.72h-1.16v-1.72ZM428.42,40.71h1.16v1.72h-1.16v-1.72ZM428.42,44.11h1.16v1.72h-1.16v-1.72ZM428.42,47.5h1.16v1.72h-1.16v-1.72ZM428.42,50.89h1.16v1.72h-1.16v-1.72ZM428.42,54.28h1.16v1.72h-1.16v-1.72ZM428.42,57.68h1.16v1.72h-1.16v-1.72ZM428.42,61.07h1.16v1.72h-1.16v-1.72ZM428.42,64.46h1.16v1.72h-1.16v-1.72ZM428.42,67.86h1.16v1.72h-1.16v-1.72ZM428.42,71.25h1.16v1.72h-1.16v-1.72ZM428.42,74.64h1.16v1.72h-1.16v-1.72ZM428.42,78.03h1.16v1.72h-1.16v-1.72ZM428.42,81.43h1.16v1.72h-1.16v-1.72ZM428.42,84.82h1.16v1.72h-1.16v-1.72ZM428.42,88.21h1.16v1.72h-1.16v-1.72ZM428.42,91.6h1.16v1.72h-1.16v-1.72ZM428.42,95h1.16v1.72h-1.16v-1.72ZM428.42,98.39h1.16v1.72h-1.16v-1.72ZM428.42,101.78h1.16v1.72h-1.16v-1.72ZM428.42,105.17h1.16v1.72h-1.16v-1.72ZM428.42,108.57h1.16v1.72h-1.16v-1.72ZM428.42,111.96h1.16v1.72h-1.16v-1.72ZM428.42,115.35h1.16v1.72h-1.16v-1.72ZM428.42,126.36c.12.3.24.59.36.89h-.36v-.89ZM428.42,128.92h.98c.06.17.12.33.18.5v1.21h-1.16v-1.72ZM428.42,136.53c0-.16.01-.31.02-.47.38.01.76.04,1.14.07v1.3h-1.16v-.9ZM428.42,139.1h1.16v1.72h-1.16v-1.72ZM428.42,142.49h1.16v1.72h-1.16v-1.72ZM428.42,145.89h1.16v1.72h-1.16v-1.72ZM428.42,149.28h1.16v1.72h-1.16v-1.72ZM428.42,152.67h1.16v1.72h-1.16v-1.72ZM428.42,156.06h1.16v1.72h-1.16v-1.72ZM428.42,159.46h1.16v1.72h-1.16v-1.72ZM429.58,162.85v.67s-.04,0-.06,0c-.37,0-.73,0-1.1,0v-.67h1.16ZM426.6,127.25h-.55c.18-.45.36-.9.55-1.35v1.35ZM425.44,3.24h1.16v5.26h-1.16V3.24ZM425.44,10.18h1.16v1.72h-1.16v-1.72ZM425.44,13.57h1.16v1.72h-1.16v-1.72ZM425.44,16.97h1.16v1.72h-1.16v-1.72ZM425.44,20.36h1.16v1.72h-1.16v-1.72ZM425.44,23.75h1.16v1.72h-1.16v-1.72ZM425.44,27.14h1.16v1.72h-1.16v-1.72ZM425.44,30.54h1.16v1.72h-1.16v-1.72ZM425.44,33.93h1.16v1.72h-1.16v-1.72ZM425.44,37.32h1.16v1.72h-1.16v-1.72ZM425.44,40.71h1.16v1.72h-1.16v-1.72ZM425.44,44.11h1.16v1.72h-1.16v-1.72ZM425.44,47.5h1.16v1.72h-1.16v-1.72ZM425.44,50.89h1.16v1.72h-1.16v-1.72ZM425.44,54.28h1.16v1.72h-1.16v-1.72ZM425.44,57.68h1.16v1.72h-1.16v-1.72ZM425.44,61.07h1.16v1.72h-1.16v-1.72ZM425.44,64.46h1.16v1.72h-1.16v-1.72ZM425.44,67.86h1.16v1.72h-1.16v-1.72ZM425.44,71.25h1.16v1.72h-1.16v-1.72ZM425.44,74.64h1.16v1.72h-1.16v-1.72ZM425.44,78.03h1.16v1.72h-1.16v-1.72ZM425.44,81.43h1.16v1.72h-1.16v-1.72ZM425.44,84.82h1.16v1.72h-1.16v-1.72ZM425.44,88.21h1.16v1.72h-1.16v-1.72ZM425.44,91.6h1.16v1.72h-1.16v-1.72ZM425.44,95h1.16v1.72h-1.16v-1.72ZM425.44,98.39h1.16v1.72h-1.16v-1.72ZM425.44,101.78h1.16v1.72h-1.16v-1.72ZM425.44,105.17h1.16v1.72h-1.16v-1.72ZM425.44,108.57h1.16v1.72h-1.16v-1.72ZM425.44,111.96h1.16v1.72h-1.16v-1.72ZM425.44,115.35h1.16v1.72h-1.16v-1.72ZM425.44,128.92h1.16v1.72h-1.16v-1.72ZM425.44,136.11c.34-.02.68-.05,1.03-.06.02.46.03.91.05,1.37h-1.08v-1.31ZM425.44,139.1h1.16v1.72h-1.16v-1.72ZM425.44,142.49h1.16v1.72h-1.16v-1.72ZM425.44,145.89h1.16v1.72h-1.16v-1.72ZM425.44,149.28h1.16v1.72h-1.16v-1.72ZM425.44,152.67h1.16v1.72h-1.16v-1.72ZM425.44,156.06h1.16v1.72h-1.16v-1.72ZM425.44,159.46h1.16v1.72h-1.16v-1.72ZM426.6,162.85v.68c-.39,0-.77,0-1.16,0v-.68h1.16ZM422.47,3.24h1.16v5.26h-1.16V3.24ZM422.47,10.18h1.16v1.72h-1.16v-1.72ZM422.47,13.57h1.16v1.72h-1.16v-1.72ZM422.47,16.97h1.16v1.72h-1.16v-1.72ZM422.47,20.36h1.16v1.72h-1.16v-1.72ZM422.47,23.75h1.16v1.72h-1.16v-1.72ZM422.47,27.14h1.16v1.72h-1.16v-1.72ZM422.47,30.54h1.16v1.72h-1.16v-1.72ZM422.47,33.93h1.16v1.72h-1.16v-1.72ZM422.47,37.32h1.16v1.72h-1.16v-1.72ZM422.47,40.71h1.16v1.72h-1.16v-1.72ZM422.47,44.11h1.16v1.72h-1.16v-1.72ZM422.47,47.5h1.16v1.72h-1.16v-1.72ZM422.47,50.89h1.16v1.72h-1.16v-1.72ZM422.47,54.28h1.16v1.72h-1.16v-1.72ZM422.47,57.68h1.16v1.72h-1.16v-1.72ZM422.47,61.07h1.16v1.72h-1.16v-1.72ZM422.47,64.46h1.16v1.72h-1.16v-1.72ZM422.47,67.86h1.16v1.72h-1.16v-1.72ZM422.47,71.25h1.16v1.72h-1.16v-1.72ZM422.47,74.64h1.16v1.72h-1.16v-1.72ZM422.47,78.03h1.16v1.72h-1.16v-1.72ZM422.47,81.43h1.16v1.72h-1.16v-1.72ZM422.47,84.82h1.16v1.72h-1.16v-1.72ZM422.47,88.21h1.16v1.72h-1.16v-1.72ZM422.47,91.6h1.16v1.72h-1.16v-1.72ZM422.47,95h1.16v1.72h-1.16v-1.72ZM422.47,98.39h1.16v1.72h-1.16v-1.72ZM422.47,101.78h1.16v1.72h-1.16v-1.72ZM422.47,105.17h1.16v1.72h-1.16v-1.72ZM422.47,108.57h1.16v1.72h-1.16v-1.72ZM422.47,111.96h1.16v1.72h-1.16v-1.72ZM422.47,115.35h1.16v1.72h-1.16v-1.72ZM422.47,136.61c.41.07.43.16.44.21.03.17-.27.25-.44.29v-.5ZM422.47,139.1h1.16v1.72h-1.16v-1.72ZM422.47,142.49h1.16v1.72h-1.16v-1.72ZM422.47,145.89h1.16v1.72h-1.16v-1.72ZM422.47,149.28h1.16v1.72h-1.16v-1.72ZM422.47,152.67h1.16v1.72h-1.16v-1.72ZM422.47,156.06h1.16v1.72h-1.16v-1.72ZM422.47,159.46h1.16v1.72h-1.16v-1.72ZM423.62,162.85v.69c-.39,0-.77,0-1.16,0v-.69h1.16ZM420.64,137.42h-.77c-.06-.16-.11-.31-.16-.47.31-.07.63-.13.94-.19v.66ZM419.49,3.24h1.16v5.26h-1.16V3.24ZM419.49,10.18h1.16v1.72h-1.16v-1.72ZM419.49,13.57h1.16v1.72h-1.16v-1.72ZM419.49,16.97h1.16v1.72h-1.16v-1.72ZM419.49,20.36h1.16v1.72h-1.16v-1.72ZM419.49,23.75h1.16v1.72h-1.16v-1.72ZM419.49,27.14h1.16v1.72h-1.16v-1.72ZM419.49,30.54h1.16v1.72h-1.16v-1.72ZM419.49,33.93h1.16v1.72h-1.16v-1.72ZM419.49,37.32h1.16v1.72h-1.16v-1.72ZM419.49,40.71h1.16v1.72h-1.16v-1.72ZM419.49,44.11h1.16v1.72h-1.16v-1.72ZM419.49,47.5h1.16v1.72h-1.16v-1.72ZM419.49,50.89h1.16v1.72h-1.16v-1.72ZM419.49,54.28h1.16v1.72h-1.16v-1.72ZM419.49,57.68h1.16v1.72h-1.16v-1.72ZM419.49,61.07h1.16v1.72h-1.16v-1.72ZM419.49,64.46h1.16v1.72h-1.16v-1.72ZM419.49,67.86h1.16v1.72h-1.16v-1.72ZM419.49,71.25h1.16v1.72h-1.16v-1.72ZM419.49,74.64h1.16v1.72h-1.16v-1.72ZM419.49,78.03h1.16v1.72h-1.16v-1.72ZM419.49,81.43h1.16v1.72h-1.16v-1.72ZM419.49,84.82h1.16v1.72h-1.16v-1.72ZM419.49,88.21h1.16v1.72h-1.16v-1.72ZM419.49,91.6h1.16v1.72h-1.16v-1.72ZM419.49,95h1.16v1.72h-1.16v-1.72ZM419.49,98.39h1.16v1.72h-1.16v-1.72ZM419.49,101.78h1.16v1.72h-1.16v-1.72ZM419.49,105.17h1.16v1.72h-1.16v-1.72ZM419.49,108.57h1.16v1.72h-1.16v-1.72ZM419.49,111.96h1.16v1.72h-1.16v-1.72ZM419.49,115.35h1.16v1.72h-1.16v-1.72ZM419.49,132.32h.43s.07.1.1.14c-.18.04-.35.09-.53.13v-.27ZM419.49,136.11c.27-.07.54-.15.81-.22.04.04.08.08.13.12-.32.07-.63.14-.94.21v-.12ZM419.49,139.65c.38-.11.77-.21,1.16-.3v1.47h-1.16v-1.16ZM419.49,142.49h1.16v1.72h-1.16v-1.72ZM419.49,145.89h1.16v1.72h-1.16v-1.72ZM419.49,149.28h1.16v1.72h-1.16v-1.72ZM419.49,152.67h1.16v1.72h-1.16v-1.72ZM419.49,156.06h1.16v1.72h-1.16v-1.72ZM419.49,159.46h1.16v1.72h-1.16v-1.72ZM420.64,162.85v.7c-.39,0-.77,0-1.16,0v-.7h1.16ZM416.51,3.24h1.16v5.26h-1.16V3.24ZM416.51,10.18h1.16v1.72h-1.16v-1.72ZM416.51,13.57h1.16v1.72h-1.16v-1.72ZM416.51,16.97h1.16v1.72h-1.16v-1.72ZM416.51,20.36h1.16v1.72h-1.16v-1.72ZM416.51,23.75h1.16v1.72h-1.16v-1.72ZM416.51,27.14h1.16v1.72h-1.16v-1.72ZM416.51,30.54h1.16v1.72h-1.16v-1.72ZM416.51,33.93h1.16v1.72h-1.16v-1.72ZM416.51,37.32h1.16v1.72h-1.16v-1.72ZM416.51,40.71h1.16v1.72h-1.16v-1.72ZM416.51,44.11h1.16v1.72h-1.16v-1.72ZM416.51,47.5h1.16v1.72h-1.16v-1.72ZM416.51,50.89h1.16v1.72h-1.16v-1.72ZM416.51,54.28h1.16v1.72h-1.16v-1.72ZM416.51,57.68h1.16v1.72h-1.16v-1.72ZM416.51,61.07h1.16v1.72h-1.16v-1.72ZM416.51,64.46h1.16v1.72h-1.16v-1.72ZM416.51,67.86h1.16v1.72h-1.16v-1.72ZM416.51,71.25h1.16v1.72h-1.16v-1.72ZM416.51,74.64h1.16v1.72h-1.16v-1.72ZM416.51,78.03h1.16v1.72h-1.16v-1.72ZM416.51,81.43h1.16v1.72h-1.16v-1.72ZM416.51,84.82h1.16v1.72h-1.16v-1.72ZM416.51,88.21h1.16v1.72h-1.16v-1.72ZM416.51,91.6h1.16v1.72h-1.16v-1.72ZM416.51,95h1.16v1.72h-1.16v-1.72ZM416.51,98.39h1.16v1.72h-1.16v-1.72ZM416.51,101.78h1.16v1.72h-1.16v-1.72ZM416.51,105.17h1.16v1.72h-1.16v-1.72ZM416.51,108.57h1.16v1.72h-1.16v-1.72ZM416.51,111.96h1.16v1.72h-1.16v-1.72ZM416.51,115.35h1.16v1.72h-1.16v-1.72ZM416.51,128.92h.93c.07.09.15.19.23.28v1.44h-1.16v-1.72ZM416.51,132.32h1.16v.76c-.15.05-.31.09-.46.14-.23.07-.46.16-.69.24v-1.13ZM416.51,140.67c.38-.16.77-.31,1.16-.45v.59h-1.16v-.15ZM416.51,142.49h1.16v1.72h-1.16v-1.72ZM416.51,145.89h1.16v1.72h-1.16v-1.72ZM416.51,149.28h1.16v1.72h-1.16v-1.72ZM416.51,152.67h1.16v1.72h-1.16v-1.72ZM416.51,156.06h1.16v1.72h-1.16v-1.72ZM416.51,159.46h1.16v1.72h-1.16v-1.72ZM417.67,162.85v.71c-.39,0-.77,0-1.16,0v-.71h1.16ZM414.69,132.32v1.72h-.22c-.01-.57-.02-1.14-.01-1.72h.23ZM414.5,130.64c.02-.57.06-1.14.11-1.72h.08v1.72h-.18ZM413.53,3.24h1.16v5.26h-1.16V3.24ZM413.53,10.18h1.16v1.72h-1.16v-1.72ZM413.53,13.57h1.16v1.72h-1.16v-1.72ZM413.53,16.97h1.16v1.72h-1.16v-1.72ZM413.53,20.36h1.16v1.72h-1.16v-1.72ZM413.53,23.75h1.16v1.72h-1.16v-1.72ZM413.53,27.14h1.16v1.72h-1.16v-1.72ZM413.53,30.54h1.16v1.72h-1.16v-1.72ZM413.53,33.93h1.16v1.72h-1.16v-1.72ZM413.53,37.32h1.16v1.72h-1.16v-1.72ZM413.53,40.71h1.16v1.72h-1.16v-1.72ZM413.53,44.11h1.16v1.72h-1.16v-1.72ZM413.53,47.5h1.16v1.72h-1.16v-1.72ZM413.53,50.89h1.16v1.72h-1.16v-1.72ZM413.53,54.28h1.16v1.72h-1.16v-1.72ZM413.53,57.68h1.16v1.72h-1.16v-1.72ZM413.53,61.07h1.16v1.72h-1.16v-1.72ZM413.53,64.46h1.16v1.72h-1.16v-1.72ZM413.53,67.86h1.16v1.72h-1.16v-1.72ZM413.53,71.25h1.16v1.72h-1.16v-1.72ZM413.53,74.64h1.16v1.72h-1.16v-1.72ZM413.53,78.03h1.16v1.72h-1.16v-1.72ZM413.53,81.43h1.16v1.72h-1.16v-1.72ZM413.53,84.82h1.16v1.72h-1.16v-1.72ZM413.53,88.21h1.16v1.72h-1.16v-1.72ZM413.53,91.6h1.16v1.72h-1.16v-1.72ZM413.53,95h1.16v1.72h-1.16v-1.72ZM413.53,98.39h1.16v1.72h-1.16v-1.72ZM413.53,101.78h1.16v1.72h-1.16v-1.72ZM413.53,105.17h1.16v1.72h-1.16v-1.72ZM413.53,108.57h1.16v1.72h-1.16v-1.72ZM413.53,111.96h1.16v1.72h-1.16v-1.72ZM413.53,115.35h1.16v1.72h-1.16v-1.72ZM413.53,118.75h.41c-.14.03-.27.07-.41.1v-.1ZM413.53,139.59c.19.41.37.82.57,1.23h-.57v-1.23ZM413.53,142.49h1.16v1.72h-1.16v-1.72ZM413.53,145.89h1.16v1.72h-1.16v-1.72ZM413.53,149.28h1.16v1.72h-1.16v-1.72ZM413.53,152.67h1.16v1.72h-1.16v-1.72ZM413.53,156.06h1.16v1.72h-1.16v-1.72ZM413.53,159.46h1.16v1.72h-1.16v-1.72ZM414.69,162.85v.72c-.39,0-.77,0-1.16,0v-.72h1.16ZM410.71,141.63c.24-.17.37-.26.78.08.06.05.11.09.16.13v.55c-.1.06-.19.13-.29.19-.23-.31-.46-.63-.68-.94,0,0,.02-.01.03-.02ZM407.33,143.18c.38-.33.77-.65,1.17-.96.43.51.87,1.03,1.3,1.54-.16.13-.32.26-.48.4-.65-.34-1.32-.67-1.99-.97ZM407.78,145.61c-.34.35-.66.71-.97,1.08-.08-.14-.16-.28-.24-.43.25-.29.51-.57.77-.84.15.06.29.13.44.19ZM409.76,140.39c-.1-.13-.19-.27-.29-.4.06-.05.13-.1.2-.15.53-.37.67-.17.73-.08.04.06.06.12.05.18-.24.14-.47.29-.69.44ZM404.93,132.44c1.93,1.15,3.78,2.41,5.51,3.79-.83.49-1.65,1.02-2.43,1.59-.78.56-1.55,1.17-2.27,1.8-.29-.79-.55-1.6-.8-2.42v-4.76ZM406.07,144.8c-.08.09-.16.17-.24.26-.05-.1-.1-.2-.15-.3.03-.03.05-.06.08-.08.1.04.21.08.31.12ZM404.93,147.41c.2.34.38.68.59,1.01h0c-.07.11-.15.22-.22.33-.11-.09-.23-.21-.37-.35v-.99ZM390.97,21.95l-.31-.22.31-.3v.52ZM390.67,20.88l.31-.3v.52l-.31-.22ZM390.67,20.04l.31-.3v.52l-.31-.22ZM390.67,19.19l.31-.3v.52l-.31-.22ZM390.67,18.35l.31-.3v.52l-.31-.22ZM390.67,17.5l.31-.3v.52l-.31-.22ZM390.67,16.66l.31-.3v.52l-.31-.22ZM390.67,15.81l.31-.3v.52l-.31-.22ZM390.67,14.97l.31-.3v.52l-.31-.22ZM390.67,14.12l.31-.3v.52l-.31-.22ZM390.67,13.28l.31-.3v.52l-.31-.22ZM390.67,12.43l.31-.3v.52l-.31-.22ZM390.67,11.59l.31-.3v.52l-.31-.22ZM390.67,10.74l.31-.3v.52l-.31-.22ZM390.67,9.9l.31-.3v.52l-.31-.22ZM390.67,9.05l.31-.3v.52l-.31-.22ZM390.67,8.21l.31-.3v.52l-.31-.22ZM390.67,7.36l.31-.3v.52l-.31-.22ZM390.67,6.52l.31-.3v.52l-.31-.22ZM390.67,5.67l.31-.3v.52l-.31-.22ZM390.67,4.83l.31-.3v.52l-.31-.22ZM390.67,3.98l.31-.3v.52l-.31-.22ZM391.12,4.2v-.52l.31.3-.31.22ZM391.44,4.16v.46l-.27-.26.27-.19ZM391.43,4.83l-.31.22v-.52l.31.3ZM391.44,5.01v.46l-.27-.26.27-.19ZM391.43,5.67l-.31.22v-.52l.31.3ZM391.44,5.85v.46l-.27-.26.27-.19ZM391.43,6.52l-.31.22v-.52l.31.3ZM391.44,6.7v.46l-.27-.26.27-.19ZM391.43,7.36l-.31.22v-.52l.31.3ZM391.44,7.54v.46l-.27-.26.27-.19ZM391.43,8.21l-.31.22v-.52l.31.3ZM391.44,8.39v.46l-.27-.26.27-.19ZM391.43,9.05l-.31.22v-.52l.31.3ZM391.44,9.23v.46l-.27-.26.27-.19ZM391.43,9.9l-.31.22v-.52l.31.3ZM391.44,10.08v.46l-.27-.26.27-.19ZM391.43,10.74l-.31.22v-.52l.31.3ZM391.44,10.92v.46l-.27-.26.27-.19ZM391.43,11.59l-.31.22v-.52l.31.3ZM391.44,11.77v.46l-.27-.26.27-.19ZM391.43,12.43l-.31.22v-.52l.31.3ZM391.44,12.61v.46l-.27-.26.27-.19ZM391.43,13.28l-.31.22v-.52l.31.3ZM391.44,13.46v.46l-.27-.26.27-.19ZM391.43,14.12l-.31.22v-.52l.31.3ZM391.44,14.3v.46l-.27-.26.27-.19ZM391.43,14.97l-.31.22v-.52l.31.3ZM391.44,15.15v.46l-.27-.26.27-.19ZM391.43,15.81l-.31.22v-.52l.31.3ZM391.44,15.99v.46l-.27-.26.27-.19ZM391.43,16.66l-.31.22v-.52l.31.3ZM391.44,16.84v.46l-.27-.26.27-.19ZM391.43,17.5l-.31.22v-.52l.31.3ZM391.44,17.68v.46l-.27-.26.27-.19ZM391.43,18.35l-.31.22v-.52l.31.3ZM391.44,18.53v.46l-.27-.26.27-.19ZM391.43,19.19l-.31.22v-.52l.31.3ZM391.44,19.37v.46l-.27-.26.27-.19ZM391.43,20.04l-.31.22v-.52l.31.3ZM391.44,20.22v.46l-.27-.26.27-.19ZM391.43,20.88l-.31.22v-.52l.31.3ZM391.44,21.06v.46l-.27-.26.27-.19ZM391.43,21.73l-.31.22v-.52l.31.3ZM391.44,21.91v.46l-.27-.26.27-.19ZM391.44,22.57v.39h-.31v-.69l.31.31ZM391.44,3.78l-.27-.26.27-.19v.46ZM391.34,3.2l-.22.15v-.21s0,0,0,0l.22.06ZM390.97,3.14s0,0,0,0v.21l-.22-.15.22-.06ZM390.66,3.32l.27.19-.27.26v-.46ZM390.66,4.16l.27.19-.27.26v-.46ZM390.66,5.01l.27.19-.27.26v-.46ZM390.66,5.85l.27.19-.27.26v-.46ZM390.66,6.7l.27.19-.27.26v-.46ZM390.66,7.54l.27.19-.27.26v-.46ZM390.66,8.39l.27.19-.27.26v-.46ZM390.66,9.23l.27.19-.27.26v-.46ZM390.66,10.08l.27.19-.27.26v-.46ZM390.66,10.92l.27.19-.27.26v-.46ZM390.66,11.77l.27.19-.27.26v-.46ZM390.66,12.61l.27.19-.27.26v-.46ZM390.66,13.46l.27.19-.27.26v-.46ZM390.66,14.3l.27.19-.27.26v-.46ZM390.66,15.15l.27.19-.27.26v-.46ZM390.66,15.99l.27.19-.27.26v-.46ZM390.66,16.84l.27.19-.27.26v-.46ZM390.66,17.68l.27.19-.27.26v-.46ZM390.66,18.53l.27.19-.27.26v-.46ZM390.66,19.37l.27.19-.27.26v-.46ZM390.66,20.22l.27.19-.27.26v-.46ZM390.66,21.06l.27.19-.27.26v-.46ZM390.66,21.91l.27.19-.27.26v-.46ZM390.66,22.57l.31-.31v.69h-.31v-.39ZM404.93,149.41c.14.11.25.18.28.2,0,0,0,0,0,0,.06.03.13.05.19.05.02,0,.04,0,.06,0,.01,0,.03,0,.04,0,.02,0,.03,0,.04-.01.02,0,.03-.02.05-.03.03-.01.05-.03.07-.06.01-.01.02-.02.03-.04,0-.01.02-.02.03-.04,1.48-2.42,3.5-4.51,5.92-6.19v20.28c-2.24,0-4.48.02-6.72.02v-14.19ZM449.33,163.54v-13.83s.01.02.02.03h0s.03.04.04.05c0,0,0,0,0,0,.01.02.03.03.05.04.01,0,.03.02.04.02.01,0,.02.01.04.01.01,0,.03,0,.04.01.03,0,.06,0,.09,0,.02,0,.03,0,.05,0,.02,0,.03,0,.05,0,.02,0,.03,0,.05-.02.01,0,.03-.01.04-.02.01,0,.02-.01.04-.02,0,0,.01,0,.02-.01.31-.23,1.16-.93,1.73-2.17.69,1.03,1.3,2.09,1.85,3.16v12.75c-1.38,0-2.76,0-4.14,0ZM500.31,163.7v-12.01c.29-.01.58-.03.87-.04v3.73h4.85l6.26-4.2c.52-.02,1.04-.04,1.57-.06l-7.58,5.09h-5.1v3.79h4.85l13.53-9.08c.52-.02,1.04-.03,1.55-.05l-14.84,9.96h-5.1v2.89c-.29,0-.58,0-.87,0ZM673.32,166.22v-12.52h.09v-.29h-.11v-4.22c13.09.01,32.09.08,53.09.34v1.22c0,.19.1.34.22.34h.11l-.49,16.62c-.73-.02-1.45-.05-2.19-.07-15.92-.5-32.91-.98-50.72-1.42ZM730.11,167.84l-.49-16.74h.11c.12,0,.22-.15.22-.34v-1.18c10.78.14,22.03.32,33.22.57v18.85c-10.37-.39-21.41-.78-33.06-1.16Z"/>
</svg>