<?xml version="1.0" encoding="UTF-8"?>
<svg id="Layer_1" data-name="Layer 1" xmlns="http://www.w3.org/2000/svg" viewBox="0 0 1417.32 850.39">
  <defs>
    <style>
      .cls-1, .cls-2, .cls-3, .cls-4, .cls-5, .cls-6 {
        stroke-width: 0px;
      }

      .cls-2 {
        fill: #6d6e71;
      }

      .cls-3 {
        fill: #d1d3d4;
      }

      .cls-4 {
        fill: #dcddde;
      }

      .cls-5 {
        fill: #a7a9ac;
      }

      .cls-6 {
        fill: #fff;
      }
    </style>
  </defs>
  <rect class="cls-6" width="1417.32" height="850.39"/>
  <path class="cls-4" d="M1417.32,530.14H0v13.7h64.14v8.05H0v1.52h.61v4.77h-.61v.93h23.02c7.98,0,15.51.32,22.13.89,6.62.57,12.33,1.38,16.67,2.35,2.89.65,5.16,1.36,6.68,2.1l.68.33.68-.33c1.52-.74,3.79-1.46,6.68-2.1,2.89-.65,6.39-1.22,10.37-1.71,7.95-.96,17.79-1.53,28.43-1.53h8.86v40.16h8.12l1.33,2.68h16.79v7.69h-.01l3.38,2.14v14.44h-.01l3.22,2.04v7.83h1.63v14.14h-.01l3.38,2.14,3.38-2.14h-.01v-5.2h2.22v-.74h3.19v.74h2.42v-.74h3.19v.74h2.42v-.74h3.19v.74h2.42v-.74h3.19v.74h2.42v-.74h3.19v.74h2.22v5.2h-.01l3.38,2.14,3.38-2.14h-.01v-14.14h1.63v-7.83l2.01-1.27v9.74h3.27v3.23h2.69v2.74h4.07v5.34h60.4v2.25h4.94v3.09h2.32v-3.09h.87v6.18h1.45v-6.18h13.65v-2.25h12.91v28.04h24.12v5.76h7.83v2.12h13.16v-2.12h9.4v-5.76h13.16v-56.23h4.34v1.35h4.07v.86h2.29v20.77h8.3v3.03h6.74v2.2h-6.74v3.03h11.12v7.27h23.18v-7.27h11.12v-3.03h-6.74v-2.2h6.74v-3.03h8.3v-33.01l1.36,1.58h28.18v21.34h5.8v13.52h50.32v11.79h8.89v6.21h6.81v6.06h9.27v6.21h34.06v-6.21h9.27v-6.06h6.81v-6.21h8.89v-46.65h23.83v12.81h4.7v1.87h10.65v20h3.29v-20h13.94v-1.87h4.3v57.95h21.97v2.78h3.41v2.61h7.4v-2.61h3.64v1.31h5.99v-1.31h5.99v5.34h4.23v-5.34h5.17v-2.78h5.64v-26.39h32.34v4.7h20.68v-1.97h8.15v-2.73h9.4v4.7h11.59v2.88h13.47v-7.57h2.51v-46.38h76.81v14.05h5.79l4.7,5.3h57.33l4.7-5.3h5.79v-32.52h9.27v1.63h12.05v8.79l2.13,1.62v13.33l.94.72v9.39l1.25-3.02,1.27,7.25,1.27-7.25,1.25,3.02v-5.77h.49v.75h6v-.75h.94v.75h5.52l.58,2.8h0v2.64h-1.02v.21h1.02v1.27h.58v-1.27h1.02v-.21h-1.02v-2.64h0l.57-2.8h5.7v-.75h.94v.75h6v-.75h.32v5.77l1.25-3.02,1.27,7.25,1.27-7.25,1.25,3.02v-9.73l.49-.37v-13.33l2.12-1.62v-3.36h44.83v.54h-.71v2.42h.71v1.95h-.71v2.42h.71v1.95h-.71v2.42h.71v1.95h-.71v2.41h.71v.74c0,.33.22.65.62.95h1.79v.88c.93.32,2.1.61,3.46.85v-1.5c1.25.28,2.67.5,4.21.66v1.37c1.01.09,2.08.15,3.19.18v25.17h.66v-1.12s.04,0,.07,0c1.88-.05,7.87-2.23,9.26-3.03,1.94-1.12,9.73-1.39,9.09-1.96-1.56-1.39.04-1.79-1.21-3.59-.12-.17-4.75.45-6.66.96-1.04.28-2.89,1.43-4.01,1.64-1.06.2-4.29.02-5.25.53-.32.17-.82.19-1.28.24v-20.14c.57.02,1.14.03,1.72.03.71,0,1.42-.01,2.1-.04v1.32c1.2-.04,2.36-.1,3.46-.19v-1.37c1.54-.16,2.96-.38,4.21-.66v1.5c1.36-.24,2.53-.53,3.46-.85v-.88h1.79c.4-.3.61-.62.61-.95v-1.55h4.6v-1.76h4.21v1.76h3.89v-1.76h4.21v1.76h3.89v-1.76h4.21v1.76h3.89v-1.76h4.21v1.76h5.04v-21.96h2.63v7.88h11.86l12.94,6.25,5.99-2.9v64.21h-7.96v2.93h7.96v1.3h-7.96v4.44h-6.87v2.49h12.32v2.17h10.91v2.28h5.24v-2.28h4.47v1.52h4.36v-1.52h8.83v21.35h5.02v-21.35h9.49v1.52h3.71v-1.52h4.47v2.28h5.23v-2.28h10.91v-2.17h12.32v-2.49h-6.87v-4.44h-7.96v-1.3h7.96v-2.93h-7.96v-55.33h20.93v-5.3h32.56v-6.57h28.1v-49.58c.45-.16.87-.34,1.25-.55,1.02.3,2.12.55,3.24.77.59,1.42,1.76,2.71,4.46,3.59,2.71.9,6.12.57,8.99-.06.23.09.47.18.73.26,2.61.83,6.5.87,9.04-.06,3.19-1.17,4.08-2.87,3.34-4.7.85-.21,1.58-.52,2.02-.94,1.45-1.38,1.94-3.1.28-4.41h22.46v-13.7ZM60.45,553.42h7.5l-7.5,5.96v-5.96ZM2.3,553.42h7.09l-7.09,3.53v-3.53ZM10.3,558.18H2.17l8.13-4.05v4.05ZM11.99,558.18v-4.03l7.81,4.03h-7.81ZM19.99,557.09l-7.13-3.68h7.13v3.68ZM21.68,553.42h7.66l-7.66,3.72v-3.72ZM29.69,558.26c-2.18-.05-4.41-.07-6.67-.07h-1.11l7.78-3.78v3.85ZM31.37,558.3v-3.8l7.4,4.11c-2.39-.13-4.86-.24-7.4-.31ZM39.38,557.71l-7.73-4.29h7.73v4.29ZM41.06,553.42h7.26l-7.26,4.25v-4.25ZM49.07,559.42c-2.44-.25-5.02-.47-7.71-.65l7.71-4.51v5.16ZM51.91,559.74c-.38-.05-.77-.09-1.16-.14v-5.03l7.67,6.1c-2.01-.34-4.19-.66-6.52-.94ZM58.76,559.38l-7.5-5.96h7.5v5.96ZM68.45,563.19c-1.58-.61-3.54-1.17-5.83-1.69-.7-.16-1.42-.31-2.18-.45v-.1l8.01-6.37v8.61ZM66.85,551.89v-8.05h3.55v8.05h-.26v-.22l-.28.22h-3.01ZM78.15,561c-.84.16-1.65.33-2.42.5-2.17.49-4.05,1.02-5.59,1.59v-8.53l8.01,6.33v.1ZM78.15,559.34l-7.49-5.93h7.49v5.93ZM87.84,559.58c-2.77.31-5.34.66-7.67,1.06l7.67-6.07v5.01ZM79.83,559.34v-5.93h7.49l-7.49,5.93ZM73.11,551.89v-8.05h51.08v8.05h-34.67v-.21l-.27.21h-16.14ZM92.87,559.08c-1.14.1-2.26.2-3.34.31v-5.38l7.71,4.74c-1.49.1-2.95.21-4.37.33ZM97.53,557.62l-6.83-4.2h6.83v4.2ZM99.22,553.42h6.83l-6.83,4.2v-4.2ZM107.22,558.29c-2.56.07-5.05.17-7.46.31l7.46-4.59v4.28ZM115.34,558.18c-2.18,0-4.32.02-6.43.07v-4.34l7.83,4.27h-1.4ZM116.91,557.05l-6.66-3.63h6.66v3.63ZM118.6,553.42h5.59v.79l-5.59,2.88v-3.68ZM118.8,558.18l5.39-2.78v2.78h-5.39ZM1040.52,616.44v1.97h-.74v-1.97h.74ZM1032.82,616.44v1.97h-.74v-1.97h.74ZM1030.05,616.44h.95v2.16h-.95v-2.16ZM1034.75,620.85h-3.84v-1.72h3.84v1.72ZM1034.85,618.6h-.95v-2.16h.95v2.16ZM1036.67,620.1h-.74v-3.66h.74v3.66ZM1037.75,616.44h.95v2.16h-.95v-2.16ZM1041.69,620.85h-3.84v-1.72h3.84v1.72ZM1041.6,618.6v-.63l.13.63h-.13ZM1048.63,620.85h-3.84v-1.72h3.84v1.72ZM1044.58,618.6l.3-1.47v1.47h-.3ZM1045.96,618.41v-1.97h.74v1.97h-.74ZM1048.73,618.6h-.95v-2.16h.95v2.16ZM1050.55,620.1h-.74v-3.66h.74v3.66ZM1055.57,620.85h-3.84v-1.72h3.84v1.72ZM1051.63,618.6v-2.16h.95v2.16h-.95ZM1053.66,618.41v-1.97h.74v1.97h-.74ZM1056.43,618.6h-.95v-2.16h.95v2.16ZM1124.39,637.41s0,.01,0,.02c0,.28.17.51.3.78.17.35.12.72.08,1.08-.07.74-1.13,2.34-1.06,2.41-.09,0-.19.02-.28.02-.02,0-.04,0-.07,0v-4.21s.74-.07,1.03-.11Z"/>
  <polygon class="cls-3" points="1009.19 405.36 1009.19 402 1041.11 402 1041.11 390.77 1116.21 390.77 1116.21 405.36 1130.3 405.36 1130.3 390.77 1172.54 390.77 1172.54 405.36 1198.83 405.36 1198.83 503.04 990.41 503.04 990.41 405.36 1009.19 405.36"/>
  <polygon class="cls-3" points="842.27 271.2 842.27 255.54 828.8 255.54 828.8 261.49 817.21 261.49 817.21 271.2 807.81 271.2 807.81 265.56 799.67 265.56 799.67 261.49 778.99 261.49 778.99 271.2 742.64 271.2 742.64 503.04 844.78 503.04 844.78 271.2 842.27 271.2"/>
  <polygon class="cls-3" points="994.12 338.09 989.42 327.13 932.08 327.13 927.39 338.09 921.59 338.09 921.59 503.04 999.92 503.04 999.92 338.09 994.12 338.09"/>
  <polygon class="cls-5" points="949.22 405.36 949.22 399.2 946.84 399.2 946.84 394.83 943.23 394.83 943.23 386.49 935.29 367.17 844.22 367.17 836.27 386.49 836.27 394.83 832.67 394.83 832.67 399.2 830.29 399.2 830.29 405.36 832.67 405.36 832.67 408.97 830.29 408.97 830.29 415.12 832.67 415.12 832.67 418.74 830.29 418.74 830.29 424.89 832.67 424.89 832.67 428.51 830.29 428.51 830.29 434.66 832.67 434.66 832.67 438.27 830.29 438.27 830.29 444.43 832.67 444.43 832.67 448.04 830.29 448.04 830.29 454.2 832.67 454.2 832.67 457.81 830.29 457.81 830.29 463.97 832.67 463.97 832.67 467.58 830.29 467.58 830.29 473.74 832.67 473.74 832.67 477.35 830.29 477.35 830.29 483.5 832.67 483.5 832.67 487.12 830.29 487.12 830.29 493.27 832.67 493.27 832.67 496.89 830.29 496.89 830.29 503.04 949.22 503.04 949.22 496.89 946.84 496.89 946.84 493.27 949.22 493.27 949.22 487.12 946.84 487.12 946.84 483.5 949.22 483.5 949.22 477.35 946.84 477.35 946.84 473.74 949.22 473.74 949.22 467.58 946.84 467.58 946.84 463.97 949.22 463.97 949.22 457.81 946.84 457.81 946.84 454.2 949.22 454.2 949.22 448.04 946.84 448.04 946.84 444.43 949.22 444.43 949.22 438.27 946.84 438.27 946.84 434.66 949.22 434.66 949.22 428.51 946.84 428.51 946.84 424.89 949.22 424.89 949.22 418.74 946.84 418.74 946.84 415.12 949.22 415.12 949.22 408.97 946.84 408.97 946.84 405.36 949.22 405.36"/>
  <polygon class="cls-3" points="1333.4 387.57 1333.4 373.98 1300.84 373.98 1300.84 363.01 1274.96 363.01 1274.96 392.79 1266.49 392.79 1266.49 503.04 1274.96 503.04 1282.99 503.04 1296.82 503.04 1300.84 503.04 1329.38 503.04 1333.4 503.04 1361.5 503.04 1361.5 387.57 1333.4 387.57"/>
  <polygon class="cls-3" points="232.02 388.1 230.69 382.55 133.64 382.55 132.31 388.1 124.19 388.1 124.19 503.04 240.14 503.04 240.14 388.1 232.02 388.1"/>
  <polygon class="cls-3" points="651.63 369.45 648.96 363.01 454.17 363.01 451.49 369.45 435.2 369.45 435.2 503.04 667.93 503.04 667.93 369.45 651.63 369.45"/>
  <polygon class="cls-3" points="678.9 336.5 678.9 332.62 664.96 332.62 664.96 291.25 661.67 291.25 661.67 332.62 651.01 332.62 651.01 336.5 646.31 336.5 646.31 503.04 708.66 503.04 708.66 336.5 678.9 336.5"/>
  <polygon class="cls-2" points="985.79 474.83 985.79 464.29 931.64 439.78 847.86 439.78 793.71 464.29 793.71 474.83 796.57 474.83 796.57 479.68 793.71 479.68 793.71 503.04 985.79 503.04 985.79 479.68 982.94 479.68 982.94 474.83 985.79 474.83"/>
  <polygon class="cls-3" points="366.92 229.22 366.92 217.31 357.52 217.31 357.52 212.93 344.36 212.93 344.36 217.31 336.53 217.31 336.53 229.22 312.4 229.22 312.4 503.04 380.08 503.04 380.08 229.22 366.92 229.22"/>
  <polygon class="cls-5" points="741.01 216.61 741.01 210.85 735.84 210.85 735.84 199.81 731.61 199.81 731.61 210.85 725.62 210.85 725.62 208.15 719.62 208.15 719.62 210.85 715.98 210.85 715.98 205.45 708.58 205.45 708.58 210.85 705.17 210.85 705.17 216.61 683.2 216.61 683.2 503.04 746.65 503.04 746.65 216.61 741.01 216.61"/>
  <polygon class="cls-2" points="794.65 353.81 794.65 339.52 797.6 339.52 797.6 333.61 759.19 333.61 759.19 294.21 756.72 294.21 756.72 333.61 726.18 333.61 726.18 339.52 745.15 339.52 745.15 345.43 710.92 345.43 710.92 353.81 694.66 353.81 694.66 503.04 814.84 503.04 814.84 353.81 794.65 353.81"/>
  <polygon class="cls-5" points="323.98 310.61 323.98 303.93 321.3 303.93 321.3 298.27 317.23 298.27 317.23 287.23 299.49 287.23 299.49 282.58 285.84 282.58 285.84 269.8 284.39 269.8 284.39 282.58 283.52 282.58 283.52 276.19 281.2 276.19 281.2 282.58 276.26 282.58 276.26 287.23 215.86 287.23 215.86 298.27 211.79 298.27 211.79 303.93 209.11 303.93 209.11 310.61 205.84 310.61 205.84 503.04 327.25 503.04 327.25 310.61 323.98 310.61"/>
  <polygon class="cls-3" points="613.59 266.5 613.59 253.66 606.78 253.66 606.78 241.12 597.51 241.12 597.51 228.28 563.44 228.28 563.44 241.12 554.17 241.12 554.17 253.66 547.36 253.66 547.36 266.5 538.46 266.5 538.46 503.04 622.49 503.04 622.49 266.5 613.59 266.5"/>
  <polygon class="cls-3" points="444.51 297.99 444.51 291.72 437.77 291.72 437.77 287.18 444.51 287.18 444.51 280.91 433.39 280.91 433.39 265.88 410.2 265.88 410.2 280.91 399.08 280.91 399.08 287.18 405.82 287.18 405.82 291.72 399.08 291.72 399.08 297.99 390.78 297.99 390.78 503.04 452.81 503.04 452.81 297.99 444.51 297.99"/>
  <polygon class="cls-2" points="403.24 345.55 403.24 342.75 400.19 342.75 400.19 340.97 388.49 340.97 388.49 342.75 384.42 342.75 384.42 345.55 362.79 345.55 362.79 503.04 418.77 503.04 418.77 345.55 403.24 345.55"/>
  <polygon class="cls-5" points="554.81 318.87 549.88 290.9 488.14 290.9 488.14 318.87 482.35 318.87 482.35 503.04 565.57 503.04 565.57 318.87 554.81 318.87"/>
  <path class="cls-2" d="M683.54,441.19v-6.46h0v-3.07h-3.61v1.07l-70.85-15.98v-26.37c.34.06.68.11.91.36.78.84,3.47.99,4.33,1.31.9.34,2.94,1.61,3.79,2.07,1.56.84,4.71,2.05,4.8,1.77,1.01-2.97-.71-4.16.55-6.45.52-.95-5.37-.86-6.95-2.7-1.1-1.29-5.84-4.8-7.44-4.98v-2.15h-2.21v37.14l-33.56,7.57v-2.95h-7.45v4.63l-29.83,6.73v-1.07h-3.61v9.53h-11.56v-3.59h-4.14v-6.9h-7.46v10.49h-22.63v61.85h242.71v-61.85h-45.79ZM609.24,382.63c-.06.11.8,2.75.86,3.97.03.6.07,1.19-.07,1.78-.1.44-.24.83-.24,1.29,0,.01,0,.03,0,.04-.17-.06-.52-.13-.7-.17v-6.94c.05,0,.1.01.15.02Z"/>
  <polygon class="cls-2" points="210.41 432.43 210.41 366.65 210.42 366.65 207.04 362.22 207.04 362.22 207.04 332.35 207.05 332.35 203.83 328.12 203.83 311.92 202.2 311.92 202.2 282.68 202.21 282.68 198.83 278.25 195.46 282.68 195.47 282.68 195.47 293.44 193.25 293.44 193.25 294.98 190.06 294.98 190.06 293.44 187.63 293.44 187.63 294.98 184.44 294.98 184.44 293.44 182.02 293.44 182.02 294.98 178.82 294.98 178.82 293.44 176.4 293.44 176.4 294.98 173.21 294.98 173.21 293.44 170.78 293.44 170.78 294.98 167.59 294.98 167.59 293.44 165.37 293.44 165.37 282.68 165.39 282.68 162.01 278.25 158.63 282.68 158.64 282.68 158.64 311.92 157.01 311.92 157.01 328.12 153.79 332.35 153.8 332.35 153.8 362.22 153.8 362.22 150.42 366.65 150.43 366.65 150.43 432.43 147.47 436.31 147.48 436.31 147.48 503.04 213.36 503.04 213.36 436.31 213.37 436.31 210.41 432.43"/>
  <path class="cls-1" d="M880.14,493.12c-12.34-7.29-19.82-15.11-20.27-21.55-.17-2.42,1.81-7.09,5.54-13.03h-7.7c-9.3-16.88-51.86-35.42-102.97-35.42s-93.67,18.55-102.96,35.42h-7.7c3.74,5.94,5.71,10.61,5.54,13.03-.45,6.43-7.93,14.26-20.27,21.55h-9.61v9.92h270v-9.92h-9.61Z"/>
  <polygon class="cls-5" points="1279.9 397.66 1279.9 248.54 1287.86 248.54 1287.86 242.49 1279.9 242.49 1279.9 239.79 1287.86 239.79 1287.86 230.6 1294.73 230.6 1294.73 225.44 1287.86 225.44 1282.41 225.44 1282.41 220.96 1271.5 220.96 1271.5 216.25 1266.27 216.25 1266.27 220.96 1261.8 220.96 1261.8 217.82 1258.09 217.82 1258.09 220.96 1248.6 220.96 1248.6 176.79 1243.59 176.79 1243.59 220.96 1234.75 220.96 1234.75 217.82 1230.39 217.82 1230.39 220.96 1225.92 220.96 1225.92 216.25 1220.68 216.25 1220.68 220.96 1209.78 220.96 1209.78 225.44 1204.33 225.44 1197.46 225.44 1197.46 230.6 1204.33 230.6 1204.33 239.79 1212.29 239.79 1212.29 242.49 1204.33 242.49 1204.33 248.54 1212.29 248.54 1212.29 391.83 1197.12 391.83 1197.12 503.04 1212.29 503.04 1222.42 503.04 1274.33 503.04 1279.9 503.04 1303.12 503.04 1303.12 397.66 1279.9 397.66"/>
  <path class="cls-2" d="M1250.21,454.45v-20.87h-3.35v-26.05h.94v-2.89h-1.32v-13.64h.37l-.37-2.1v-.58h-.1l-2.16-12.15h-.7l-2.16,12.15h-22.13l-12.94-12.94-12.94,12.94h-11.86v16.31h-2.63v-45.43h-5.04v3.64h-4.21v-3.64h-3.89v3.64h-4.21v-3.64h-3.89v3.64h-4.21v-3.64h-3.89v3.64h-4.21v-3.64h-4.6v-3.2c0-.68-.22-1.35-.61-1.97h-1.79v-1.81c-.93-.67-2.1-1.26-3.46-1.76v3.11c-1.25-.58-2.67-1.04-4.21-1.37v-2.83c-1.1-.19-2.26-.33-3.46-.4v2.73c-.69-.05-1.39-.08-2.1-.08-.58,0-1.15.02-1.72.06v-41.67c.46.09.96.13,1.28.49.96,1.05,4.18.7,5.25,1.1,1.12.42,2.97,2.81,4.01,3.39,1.92,1.06,6.55,2.33,6.66,1.99,1.25-3.73-.35-4.55,1.21-7.43.64-1.19-7.15-1.75-9.09-4.06-1.38-1.65-7.38-6.17-9.26-6.27-.02,0-.04,0-.07,0v-2.31h-.66v52.08c-1.1.08-2.17.2-3.19.38v2.83c-1.54.33-2.96.8-4.21,1.37v-3.11c-1.36.49-2.53,1.09-3.46,1.76v1.81h-1.79c-.4.63-.62,1.29-.62,1.97v1.53h-.71v5h.71v4.04h-.71v5h.71v4.03h-.71v5h.71v4.03h-.71v5h.71v35h-.71v5h.71v34.64h-2.2v38.77h149.97v-48.59h-7.02ZM1123.37,300.25s.04,0,.07.01c.09,0,.19.02.28.04-.08.14.98,3.45,1.06,4.99.03.75.08,1.5-.08,2.23-.12.56-.29,1.04-.3,1.62,0,.02,0,.03,0,.05-.29-.1-.98-.24-1.03-.24v-8.7Z"/>
  <path class="cls-2" d="M1133.04,503.04v-76.53h-65.75v-7.27l-2.67-2.92v-32.51l-2.12-3.34v-27.59l-.49-.77v-20.14l-1.25,6.24-1.27-15-1.27,15-1.25-6.24v11.95h-.32v-1.55h-6v1.55h-.94v-1.55h-5.7l-.57-5.8h0v-5.45h1.02v-.44h-1.02v-2.63h-.58v2.63h-1.02v.44h1.02v5.45h0l-.58,5.8h-5.52v1.55h-.94v-1.55h-6v1.55h-.49v-11.95l-1.25,6.24-1.27-15-1.27,15-1.25-6.24v19.42l-.94,1.48v27.59l-2.13,3.34v32.51l-2.66,2.92v33.38l-1.75,1.92v48.49h116.22ZM1054.4,352.58h-.74v-4.08h.74v4.08ZM1056.43,352.58h-.95v-4.48h.95v4.48ZM1051.73,343.45h3.84v3.57h-3.84v-3.57ZM1051.63,348.1h.95v4.48h-.95v-4.48ZM1049.81,345h.74v7.58h-.74v-7.58ZM1046.7,352.58h-.74v-4.08h.74v4.08ZM1048.73,352.58h-.95v-4.48h.95v4.48ZM1044.79,343.45h3.84v3.57h-3.84v-3.57ZM1044.88,348.1v3.05l-.3-3.05h.3ZM1040.52,352.58h-.74v-4.08h.74v4.08ZM1041.6,349.42v-1.31h.13l-.13,1.31ZM1037.85,343.45h3.84v3.57h-3.84v-3.57ZM1037.75,348.1h.95v4.48h-.95v-4.48ZM1035.93,345h.74v7.58h-.74v-7.58ZM1032.82,352.58h-.74v-4.08h.74v4.08ZM1034.85,352.58h-.95v-4.48h.95v4.48ZM1030.91,343.45h3.84v3.57h-3.84v-3.57ZM1030.05,348.1h.95v4.48h-.95v-4.48Z"/>
  <path class="cls-1" d="M1138.44,496.78v-5.46h-1.08v-33.47h.35v-1.08h.58v-.58h-.93v-2.36h.35v-.54h.35v-.77h-.69v-4.02h.35v-2.52h1.09v-.68h.78v-1.9h-.25v-1.39c-.77,0-1.4.62-1.4,1.39h-.42c-.06-.54-.34-.94-.67-.94s-.61.41-.67.94h-.17v-1.16h-.4l-9.15-1.86v-.63h-.43v-.26h-.32v-1.39h.14v-.25h.21v-.31h.12v-.93h-.12v-1.23c-.51,0-.92.41-.92.92,0,.11.02.21.06.31h-.25l-.13-.04s0,0,0,0c0-.26-.21-.46-.46-.46-.16,0-.29.08-.38.2l-4.06-1.34v-.47h-.32c.02-.12.03-.23,0-.35-.02-.05-.06-.1-.09-.15-.07-.12-.07-.25-.07-.38,0-.32.05-.67-.02-.99.13-.17.29-.33.37-.54.12-.3.07-.6.06-.91,0-.04-.03-.12-.06-.12s-.08.06-.09.09c-.13.33-.26.64-.45.94,0-.02,0-.04,0-.06.03-.08.03-.17,0-.28-.04-.09-.11-.13-.2-.14-.08,0-.16.04-.2.14-.04.1-.04.19,0,.28,0,.02,0,.04,0,.06-.18-.29-.32-.61-.45-.94-.01-.04-.07-.09-.09-.09s-.05.08-.05.12c0,.31-.05.61.06.91.08.21.24.37.37.54-.07.32,0,.67-.02.99,0,.14,0,.26-.07.38-.03.05-.07.1-.09.15-.04.12-.03.24,0,.35h-.32v.47l-4.06,1.34c-.08-.12-.22-.2-.38-.2-.26,0-.46.21-.46.46,0,0,0,0,0,0l-.13.04h-.25c.04-.1.06-.2.06-.31,0-.51-.41-.92-.92-.92v1.23h-.12v.93h.12v.31h.21v.25h.14v1.39h-.32v.26h-.43v.63l-4.04.82h-79.31l-4.04-.82v-.63h-.43v-.26h-.32v-1.39h.14v-.25h.21v-.31h.12v-.93h-.12v-1.23c-.51,0-.92.41-.92.92,0,.11.02.21.06.31h-.25l-.13-.04s0,0,0,0c0-.26-.21-.46-.46-.46-.16,0-.29.08-.38.2l-4.06-1.34v-.47h-.32c.02-.12.03-.23,0-.35-.02-.05-.06-.1-.09-.15-.07-.12-.07-.25-.07-.38-.01-.32.05-.67-.02-.99.13-.17.29-.33.37-.54.12-.3.07-.6.07-.91,0-.04-.03-.12-.06-.12s-.08.06-.09.09c-.12.33-.26.64-.45.94,0-.02,0-.04,0-.06.03-.08.03-.17,0-.28-.04-.09-.11-.13-.2-.14-.08,0-.16.04-.2.14-.04.1-.04.19,0,.28,0,.02,0,.04,0,.06-.18-.29-.32-.61-.45-.94-.01-.04-.06-.09-.09-.09s-.05.08-.06.12c0,.31-.05.61.06.91.08.21.24.37.37.54-.07.32,0,.67-.02.99,0,.14,0,.26-.07.38-.03.05-.07.1-.09.15-.04.12-.03.24,0,.35h-.32v.47l-4.06,1.34c-.08-.12-.22-.2-.38-.2-.26,0-.46.21-.46.46,0,0,0,0,0,0l-.13.04h-.25c.04-.1.06-.2.06-.31,0-.51-.41-.92-.92-.92v1.23h-.12v.93h.12v.31h.21v.25h.14v1.39h-.32v.26h-.43v.63l-9.15,1.86h-.4v1.16h-.17c-.06-.54-.34-.94-.67-.94s-.61.41-.67.94h-.42c0-.77-.63-1.39-1.4-1.39v1.39h-.25v1.9h.78v.68h1.08v2.52h.35v4.02h-.69v.77h.35v.54h.35v2.36h-.93v.58h.58v1.08h.35v33.47h-1.08v5.46h-1.59v6.27h144.33v-6.27h-1.59Z"/>
  <path class="cls-1" d="M1344.9,503.04v-99.09c.08-1.01.03-2.01-.15-3-2.48-14.01-29.59-20.93-60.56-15.44-30.96,5.48-52.47,20.51-51.81,35.21,0,.16.02.62.02.62v16.8h-8.19v-6.41h-36.17v71.33h156.86Z"/>
  <path class="cls-5" d="M333.67,482.97h-1.85v-9.86h1.85v-1.93h-24.26c-10.64,0-20.48-1.18-28.43-3.17-2.66-.67-5.12-1.42-7.31-2.25l-.85-.33c-.77-.31-1.5-.62-2.2-.95-2.89-1.34-5.16-2.82-6.68-4.36l-.68-.69-.68.69c-1.52,1.53-3.79,3.02-6.68,4.36-.8.37-1.64.73-2.53,1.08l-.38.15c-3.87,1.47-8.53,2.71-13.76,3.64-6.62,1.17-14.15,1.83-22.13,1.83h-101.76c-10.64,0-20.48-1.18-28.43-3.17-3.98-.99-7.48-2.19-10.37-3.53-2.89-1.34-5.16-2.82-6.68-4.36l-.68-.69-.68.69c-1.52,1.53-3.79,3.02-6.68,4.36-4.33,2.01-10.05,3.69-16.67,4.86-6.62,1.17-14.15,1.83-22.13,1.83H0v1.93h.61v9.86h-.61v3.15h64.14v16.92h2.71v-16.92h3.01l.28.46v-.46h.26v16.92h2.71v-16.92h16.14l.27.44v-.44h169.8v16.92h2.71v-16.92h3.55v16.92h2.71v-16.92h65.38v-3.15ZM2.3,482.97v-7.31l7.09,7.31H2.3ZM10.3,481.49l-8.13-8.38h8.13v8.38ZM11.99,473.11h7.81l-7.81,8.33v-8.33ZM19.99,482.97h-7.13l7.13-7.61v7.61ZM21.68,482.97v-7.7l7.66,7.7h-7.66ZM29.69,480.93l-7.78-7.82h1.11c2.26,0,4.49-.05,6.67-.16v7.97ZM31.37,472.86c2.54-.15,5.01-.37,7.4-.64l-7.4,8.5v-7.85ZM39.38,482.97h-7.73l7.73-8.88v8.88ZM41.06,482.97v-8.79l7.26,8.79h-7.26ZM49.07,481.23l-7.71-9.34c2.69-.37,5.27-.83,7.71-1.35v10.68ZM50.76,470.16c.39-.09.78-.18,1.16-.28,2.33-.58,4.51-1.23,6.52-1.95l-7.67,12.62v-10.4ZM58.76,482.97h-7.5l7.5-12.34v12.34ZM60.45,482.97v-12.34l7.5,12.34h-7.5ZM68.45,480.56l-8.01-13.17v-.21c.75-.3,1.48-.62,2.18-.94,2.29-1.06,4.25-2.22,5.83-3.49v17.82ZM78.15,482.97h-7.49l7.49-12.26v12.26ZM78.15,467.48l-8.01,13.1v-17.64c1.53,1.19,3.41,2.29,5.59,3.3.77.36,1.58.7,2.42,1.03v.21ZM79.83,482.97v-12.26l7.49,12.26h-7.49ZM87.84,480.58l-7.67-12.55c2.34.82,4.91,1.56,7.67,2.2v10.36ZM89.52,470.6c1.09.23,2.2.45,3.34.65,1.42.25,2.87.48,4.37.68l-7.71,9.81v-11.14ZM97.53,482.97h-6.83l6.83-8.7v8.7ZM99.22,482.97v-8.7l6.83,8.7h-6.83ZM107.22,481.74l-7.46-9.5c2.41.28,4.9.49,7.46.63v8.86ZM108.91,472.96c2.1.09,4.25.15,6.43.15h1.4l-7.83,8.84v-8.99ZM116.91,482.97h-6.66l6.66-7.52v7.52ZM118.6,482.97v-7.61l7.13,7.61h-7.13ZM126.61,473.23v8.21l-7.81-8.33h17.29l-7.8,8.13v-8.01h-1.69ZM136.3,482.97h-7.33l7.33-7.65v7.65ZM137.98,482.97v-7.61l7.13,7.61h-7.13ZM145.99,481.44l-7.81-8.33h7.81v8.33ZM147.68,473.11h7.41l-7.41,8.26v-8.26ZM148.51,482.97l6.93-7.73.23,7.73h-7.16ZM157.35,482.97l-.24-7.98,7.4,7.98h-7.16ZM165.38,481.42l-7.7-8.31h7.7v8.31ZM167.06,473.11h6.92l-6.92,8.16v-8.16ZM175.07,482.97h-7.23l7.23-8.54v8.54ZM176.75,482.97v-8.44l6.8,8.44h-6.8ZM184.76,481.78l-6.98-8.67h6.98v8.67ZM186.44,473.11h7.49l-7.49,8.78v-8.78ZM194.46,482.97h-6.73l6.88-8.07-.16,8.07ZM196.15,482.97l.16-8.08,6.63,8.08h-6.79ZM204.14,481.78l-7.12-8.67h7.12v8.67ZM205.83,473.11h7.74l-7.74,9.04v-9.04ZM213.84,482.97h-6.49l6.49-7.58v7.58ZM215.52,482.97v-7.62l6.7,7.62h-6.7ZM223.53,481.9l-7.73-8.79h1.3c2.18,0,4.32-.05,6.43-.14v8.94ZM225.21,472.88c2.63-.15,5.18-.37,7.65-.66l-7.65,9.52v-8.87ZM233.22,482.97h-6.83l6.83-8.5v8.5ZM234.9,482.97v-8.45l6.61,8.45h-6.61ZM242.91,482.02l-7.88-10.07c2.75-.37,5.39-.83,7.88-1.35v11.42ZM244.6,470.22c.47-.11.94-.22,1.4-.34,1.96-.49,3.81-1.03,5.54-1.61l-6.94,12.29v-10.34ZM252.61,482.97h-7.44l7.44-13.16v13.16ZM254.3,482.97v-12.33l6.96,12.33h-6.96ZM262.3,481.37l-7.97-14.12c.83-.33,1.63-.67,2.39-1.02,2.17-1.01,4.05-2.11,5.59-3.3v18.44ZM263.98,462.75c1.58,1.27,3.54,2.43,5.83,3.49.63.29,1.3.58,1.98.86l-7.81,12.55v-16.89ZM271.99,482.97h-8.01v-.14l8.01-12.87v13ZM273.67,482.97v-12.75l7.22,12.75h-7.22ZM281.68,480.94l-7.28-12.86c2.23.78,4.67,1.48,7.28,2.09v10.77ZM283.37,470.54c1.17.25,2.36.48,3.59.7,1.4.25,2.83.47,4.3.67l-7.88,9.65v-11.03ZM291.37,482.97h-6.97l6.97-8.54v8.54ZM293.06,482.97v-8.87l6.84,8.87h-6.84ZM301.06,481.72l-7.32-9.49c2.37.27,4.81.49,7.32.63v8.85ZM302.75,472.95c2.18.1,4.41.16,6.67.16h.72l-7.39,8.43v-8.59ZM310.76,482.97h-7.02l7.02-8.01v8.01ZM312.44,482.97v-7.99l6.93,7.99h-6.93ZM320.45,481.63l-7.4-8.53h7.4v8.53ZM322.13,473.11h7.35l-7.35,8.52v-8.52ZM330.14,482.97h-6.94l6.94-8.04v8.04Z"/>
  <path class="cls-1" d="M521.03,451.51h.33l1.5-3.44h.22l1.67-2.11h-4.05v-2.33h.78l.17-1h.61l.17-1.55h-1.46l-1.51-4.82v-5.44h-1.7l-1.43-4.55h-14.49l-2.16-1.72h-23.84v-5.09h.53v-1.46h.51v-.66h-.38c0-.09-.04-.17-.1-.24v-.27c0-.12-.07-.22-.18-.27,0-.03,0-.05,0-.08.02-.03.04-.06.04-.1v-1.61c.15-.06.25-.21.25-.37,0-.22-.17-.39-.38-.4h0c.21,0,.38-.17.38-.39s-.17-.38-.38-.38-.38.17-.38.38c0,.07.02.13.05.19h-3.28v-2.12h.24v-.61c.35-.16.54-.34.54-.54s-.21-.39-.58-.55c-.11-.17-.2-.36-.27-.56-.12-.35-.18-.73-.24-1.06-.21-1.18-.59-2.23-1.67-3.08-.5-.39-1.09-.68-1.46-1.1-.39-.44-.7-4.67-.85-5.57.35-.06.59-.17.59-.3,0-.14-.3-.26-.71-.31,0-.01,0-.03,0-.04.42-.05.72-.17.72-.31,0-.15-.34-.28-.8-.32-.06-.67-.07-1.36-.06-2.04,0-.19,0-.37,0-.56.31-.03.54-.13.54-.25s-.23-.22-.54-.25c0-.72-.02-1.44-.02-2.15l-.2-.63-.19.63c0,.72-.01,1.44-.02,2.15-.31.03-.54.13-.54.25s.23.22.54.25c0,.19,0,.37,0,.56,0,.69,0,1.37-.07,2.04-.46.04-.8.17-.8.32,0,.14.3.27.72.31,0,.01,0,.03,0,.04-.42.05-.71.17-.71.31,0,.13.24.24.59.3-.15.9-.46,5.13-.85,5.57-.37.43-.96.71-1.46,1.1-1.08.85-1.46,1.89-1.67,3.08-.06.34-.12.71-.24,1.06-.07.2-.15.39-.27.56-.37.17-.58.36-.58.55s.2.38.54.54v.61h.24v2.12h-3.28c.03-.06.05-.12.05-.19,0-.21-.17-.38-.38-.38s-.38.17-.38.38.17.38.38.38h0c-.21.01-.38.19-.38.41,0,.17.1.31.25.37v1.61s.01.07.04.1c0,.03,0,.05,0,.08-.1.04-.18.15-.18.27v.27c-.06.06-.09.14-.1.24h-.38v.66h.51v1.46h.53v5.09h-23.84l-2.16,1.72h-14.49l-1.43,4.55h-1.71v5.44l-1.51,4.82h-1.46l.17,1.55h.61l.17,1h.78v2.33h-4.05l1.66,2.11h.22l1.5,3.44h.33v19.58h-3.72l1.66,2.11h.22l1.5,3.44h.33v21.91h-13.65v-36.92h.85v-.67h-.15v-1.11h-.69v-5.35h.48v-.86h-.48v-1.86h.33v-1.11h-.33v-.47h.42v-1.08h-.42v-17.81h.58v-.75h-.58v-4.19h.96v-1.36h-1.25v-1.58h-1.52l-6.86-41.67-.06-17.65c.21-.11.35-.32.35-.56,0-.35-.29-.64-.64-.64s-.64.28-.64.64c0,.25.14.46.35.56l-.64,17.66-8.23,41.66h-1.58v1.58h-1.25v1.36h.96v4.19h-.58v.75h.58v7.16c-.91-.2-1.59-1.01-1.59-1.98h-.48v-.97h-.61v-.39h.18v-.67h-2.12v-.36h.4v-.35h-.4v-.46h.34v-.58h-1.42v-5.05h1.04c.12,0,.22-.1.22-.22s-.1-.22-.22-.22h-1.04v-1.32c0-.13-.11-.23-.24-.23s-.24.11-.24.23v1.32h-1.04c-.12,0-.22.1-.22.22s.1.22.22.22h1.04v5.05h-1.42v.58h.34v.46h-.4v.35h.4v.36h-2.12v.67h.18v.39h-.61v.97h-.48c0,1.12-.91,2.03-2.02,2.03-.1,0-.19,0-.29-.02v-8.38h.38v-1.54h.44v-1.66h-.44v-1.08h.44v-1.5h.65v-1.16h-.88v-2.34h-.58v-3.8h.58v-.86h-.58v-1.03h-2v.25h-12.32v-10.1h.42v-1.26h-.42v-13.49h.42v-.72h-.42v-1.11h.42v-.72h-.42v-2.39h.86v-1.33h.36v-.89h-1.22v-1.89h-.72v-.94h-1.62l-1.3-22.24h.72v-2.27h-2.88l-6.63-47.57c.16-.22.27-.47.27-.77,0-.56-.35-1.03-.83-1.23v-6.44h2.03c.26,0,.47-.21.47-.47s-.21-.47-.47-.47h-2.03v-3.05c0-.28-.22-.5-.5-.5s-.5.22-.5.5v3.05h-2.03c-.26,0-.47.21-.47.47s.21.47.47.47h2.03v6.44c-.49.2-.83.67-.83,1.23,0,.38.16.72.42.96l-8.25,47.38h-2.88v2.27h.72l-1.3,22.24h-1.62v.94h-.72v1.89h-1.22v.89h.36v1.33h.86v2.39h-.42v.72h.42v1.11h-.42v.72h.42v13.49h-.42v1.26h.42v10.1h-12.32v-.25h-2v1.03h-.58v.86h.58v3.8h-.58v2.34h-.87v1.16h.65v1.5h.44v1.08h-.44v1.66h.44v1.54h.38v8.38c-.09.01-.19.02-.29.02-1.12,0-2.03-.91-2.03-2.03h-.48v-.97h-.61v-.39h.18v-.67h-2.12v-.36h.4v-.35h-.4v-.46h.34v-.58h-1.43v-5.05h1.04c.12,0,.22-.1.22-.22s-.1-.22-.22-.22h-1.04v-1.32c0-.13-.11-.23-.24-.23s-.23.11-.23.23v1.32h-1.04c-.12,0-.22.1-.22.22s.1.22.22.22h1.04v5.05h-1.43v.58h.34v.46h-.4v.35h.4v.36h-2.12v.67h.18v.39h-.61v.97h-.48c0,.97-.68,1.78-1.59,1.98v-7.16h.58v-.75h-.58v-4.19h.96v-1.36h-1.25v-1.58h-1.52l-6.9-41.99-.02-17.33c.21-.11.35-.32.35-.56,0-.35-.28-.64-.63-.64s-.64.28-.64.64c0,.25.14.46.35.56l-.59,17.32-8.28,42h-1.58v1.58h-1.25v1.36h.96v4.19h-.58v.75h.58v17.81h-.42v1.08h.42v.47h-.33v1.11h.33v1.86h-.49v.86h.49v5.35h-.69v1.11h-.15v.67h.85v36.92h-13.11v-21.91h.33l1.5-3.44h.22l1.66-2.11h-3.72v-19.58h.33l1.5-3.44h.22l1.66-2.11h-4.05v-2.33h.78l.17-1h.61l.17-1.55h-1.46l-1.51-4.82v-5.44h-1.71l-1.43-4.55h-14.49l-2.16-1.72h-23.84v-5.09h.53v-1.46h.51v-.66h-.38c0-.09-.04-.17-.1-.24v-.27c0-.12-.07-.22-.18-.27,0-.03,0-.05,0-.08.02-.03.04-.06.04-.1v-1.61c.15-.06.25-.21.25-.37,0-.22-.17-.39-.38-.4h0c.21,0,.38-.17.38-.39s-.17-.38-.38-.38-.39.17-.39.38c0,.07.02.13.05.19h-3.28v-2.12h.24v-.61c.35-.16.54-.34.54-.54s-.21-.39-.58-.55c-.11-.17-.2-.36-.27-.56-.12-.35-.18-.73-.24-1.06-.21-1.18-.59-2.23-1.67-3.08-.5-.39-1.09-.68-1.46-1.1-.39-.44-.7-4.67-.85-5.57.35-.06.59-.17.59-.3,0-.14-.3-.26-.71-.31,0-.01,0-.03,0-.04.42-.05.72-.17.72-.31,0-.15-.34-.28-.8-.32-.07-.67-.07-1.36-.07-2.04,0-.19,0-.37,0-.56.31-.03.54-.13.54-.25s-.23-.22-.54-.25c0-.72-.02-1.44-.02-2.15l-.19-.63-.19.63c0,.72-.01,1.44-.02,2.15-.31.03-.55.13-.55.25s.23.22.54.25c0,.19,0,.37,0,.56,0,.69,0,1.37-.07,2.04-.46.04-.8.17-.8.32,0,.14.3.27.72.31,0,.01,0,.03,0,.04-.42.05-.71.17-.71.31,0,.13.24.24.59.3-.15.9-.46,5.13-.85,5.57-.37.43-.96.71-1.46,1.1-1.08.85-1.46,1.89-1.67,3.08-.06.34-.12.71-.24,1.06-.07.2-.15.39-.27.56-.37.17-.58.36-.58.55s.19.38.54.54v.61h.24v2.12h-3.28c.03-.06.05-.12.05-.19,0-.21-.17-.38-.39-.38s-.38.17-.38.38.17.38.38.38h0c-.21.01-.38.19-.38.41,0,.17.1.31.25.37v1.61s.02.07.04.1c0,.03,0,.05,0,.08-.11.04-.18.15-.18.27v.27c-.06.06-.09.14-.1.24h-.38v.66h.51v1.46h.53v5.09h-23.84l-2.16,1.72h-14.49l-1.43,4.55h-1.71v5.44l-1.51,4.82h-1.46l.17,1.55h.61l.17,1h.78v2.33h-4.05l1.67,2.11h.22l1.5,3.44h.33v19.58h-3.72l1.67,2.11h.22l1.5,3.44h.33v21.91h-2v4.49h366.4v-4.49h-2v-21.91h.33l1.5-3.44h.22l1.67-2.11h-3.72v-19.58ZM204.24,416.83v.13h-.4v-.13c0-.12-.07-.22-.18-.27,0-.03,0-.05,0-.08.02-.03.04-.06.04-.1v-1.61c.15-.06.25-.21.25-.37,0,0,0-.01,0-.02h.18s0,.01,0,.02c0,.17.1.31.25.37v1.61s.02.07.04.1c0,.03,0,.05,0,.08-.1.04-.18.15-.18.27ZM205.23,416.83v.13h-.4v-.13c0-.12-.07-.22-.18-.27,0-.03,0-.05,0-.08.02-.03.04-.06.04-.1v-1.61c.15-.06.25-.21.25-.37,0,0,0-.01,0-.02h.18s0,.01,0,.02c0,.17.1.31.25.37v1.61s.02.07.04.1c0,.03,0,.05,0,.08-.1.04-.18.15-.18.27ZM206.22,416.83v.13h-.4v-.13c0-.12-.07-.22-.18-.27,0-.03,0-.05,0-.08.02-.03.04-.06.04-.1v-1.61c.15-.06.25-.21.25-.37,0,0,0-.01,0-.02h.18s0,.01,0,.02c0,.17.1.31.25.37v1.61s.02.07.04.1c0,.03,0,.05,0,.08-.1.04-.18.15-.18.27ZM207.14,416.96h-.34v-.13c0-.12-.07-.22-.18-.27,0-.03,0-.05,0-.08.02-.03.04-.06.04-.1v-1.61c.15-.06.25-.21.25-.37,0,0,0-.01,0-.02h.18s0,.01,0,.02c0,.07.02.13.05.19v2.37ZM217.07,416.83v.13h-.34v-2.37c.03-.06.05-.12.05-.19,0,0,0-.01,0-.02h.18s0,.01,0,.02c0,.17.1.31.25.37v1.61s.02.07.04.1c0,.03,0,.05,0,.08-.11.04-.18.15-.18.27ZM218.05,416.83v.13h-.4v-.13c0-.12-.07-.22-.18-.27,0-.03,0-.05,0-.08.02-.03.04-.06.04-.1v-1.61c.15-.06.25-.21.25-.37,0,0,0-.01,0-.02h.18s0,.01,0,.02c0,.17.1.31.25.37v1.61s.02.07.04.1c0,.03,0,.05,0,.08-.1.04-.18.15-.18.27ZM219.04,416.83v.13h-.4v-.13c0-.12-.07-.22-.18-.27,0-.03,0-.05,0-.08.02-.03.04-.06.04-.1v-1.61c.15-.06.25-.21.25-.37,0,0,0-.01,0-.02h.18s0,.01,0,.02c0,.17.1.31.25.37v1.61s.02.07.04.1c0,.03,0,.05,0,.08-.1.04-.18.15-.18.27ZM220.03,416.96h-.4v-.13c0-.12-.07-.22-.18-.27,0-.03,0-.05,0-.08.02-.03.04-.06.04-.1v-1.61c.15-.06.25-.21.25-.37,0,0,0-.01,0-.02h.18s0,.01,0,.02c0,.17.1.31.25.37v1.61s.02.07.04.1c0,.03,0,.05,0,.08-.1.04-.18.15-.18.27v.13ZM460.03,416.83v.13h-.41v-.13c0-.12-.07-.22-.18-.27,0-.03,0-.05,0-.08.02-.03.04-.06.04-.1v-1.61c.15-.06.25-.21.25-.37,0,0,0-.01,0-.02h.18s0,.01,0,.02c0,.17.1.31.25.37v1.61s.02.07.04.1c0,.03,0,.05,0,.08-.1.04-.18.15-.18.27ZM461.01,416.83v.13h-.4v-.13c0-.12-.07-.22-.18-.27,0-.03,0-.05,0-.08.02-.03.04-.06.04-.1v-1.61c.15-.06.25-.21.25-.37,0,0,0-.01,0-.02h.18s0,.01,0,.02c0,.17.1.31.25.37v1.61s.01.07.04.1c0,.03,0,.05,0,.08-.1.04-.18.15-.18.27ZM462,416.83v.13h-.4v-.13c0-.12-.07-.22-.18-.27,0-.03,0-.05,0-.08.02-.03.04-.06.04-.1v-1.61c.15-.06.25-.21.25-.37,0,0,0-.01,0-.02h.18s0,.01,0,.02c0,.17.1.31.25.37v1.61s.01.07.04.1c0,.03,0,.05,0,.08-.11.04-.18.15-.18.27ZM462.92,416.96h-.34v-.13c0-.12-.07-.22-.18-.27,0-.03,0-.05,0-.08.02-.03.04-.06.04-.1v-1.61c.14-.06.25-.21.25-.37,0,0,0-.01,0-.02h.18s0,.01,0,.02c0,.07.02.13.05.19v2.37ZM472.85,416.83v.13h-.34v-2.37c.03-.06.05-.12.05-.19,0,0,0-.01,0-.02h.18s0,.01,0,.02c0,.17.1.31.25.37v1.61s.02.07.04.1c0,.03,0,.05,0,.08-.1.04-.18.15-.18.27ZM473.84,416.83v.13h-.4v-.13c0-.12-.07-.22-.18-.27,0-.03,0-.05,0-.08.02-.03.04-.06.04-.1v-1.61c.15-.06.25-.21.25-.37,0,0,0-.01,0-.02h.18s0,.01,0,.02c0,.17.1.31.25.37v1.61s.01.07.04.1c0,.03,0,.05,0,.08-.1.04-.18.15-.18.27ZM474.83,416.83v.13h-.4v-.13c0-.12-.07-.22-.18-.27,0-.03,0-.05,0-.08.02-.03.04-.06.04-.1v-1.61c.15-.06.25-.21.25-.37,0,0,0-.01,0-.02h.18s0,.01,0,.02c0,.17.1.31.25.37v1.61s.01.07.04.1c0,.03,0,.05,0,.08-.1.04-.18.15-.18.27ZM475.81,416.96h-.4v-.13c0-.12-.07-.22-.18-.27,0-.03,0-.05,0-.08.02-.03.04-.06.04-.1v-1.61c.15-.06.25-.21.25-.37,0,0,0-.01,0-.02h.18s0,.01,0,.02c0,.17.1.31.25.37v1.61s.01.07.04.1c0,.03,0,.05,0,.08-.1.04-.18.15-.18.27v.13Z"/>
  <path class="cls-3" d="M360.47,478.46v-3.54h-3.57l-5-3.01h-12.94c.04-.06.08-.11.12-.17.02-.02.03-.05.04-.07.02-.01.03-.03.05-.04,0,0,.02,0,.03-.02.41-.06.86-.04,1.25-.02.07,0,.13-.02.19-.05.03,0,.05,0,.08-.02.08-.03.16-.09.2-.19.06-.12.08-.25.11-.37.03-.12.05-.23.11-.33.18-.32.52-.66.83-.88.5-.36,1.16-.69,1.74-.91.46-.18.99-.36,1.44-.61.09-.03.17-.09.26-.13.07-.03.12-.1.16-.16.03-.05.04-.1.03-.15,0,0,0-.01,0-.02h0s0-.05,0-.07c0-.18-.03-.32-.08-.46-.06-.14-.14-.26-.25-.39-.25-.3-.54-.62-.73-.94-.26-.45-.47-.94-.48-1.44v-.03c0-.36.04-.75.24-1,.1-.13.21-.25.33-.36.31-.26.65-.46.97-.71.7-.52,1.31-1.26,1.76-2,.5-.83.61-1.8.74-2.74.07-.5.21-1,.12-1.49.05,0,.11,0,.16,0,.15.04.3.06.45.1.03.01.06.02.09.03.26.08.46.17.68.32.31.21.58.46.9.68.33.23.58.5.79.82.05.08.09.16.14.23.02.04.05.09.07.13.08.15.14.31.18.48.03.13.06.26.1.39.03.15.07.3.1.46.08.37.19.73.3,1.09.07.23.14.5.25.75.1.27.22.54.38.77.12.25.25.5.43.73.09.12.2.23.32.33.45.52,1.19.85,1.76,1.13.51.25,1.01.5,1.54.71.15.06.32.11.5.16.15.05.3.1.45.17.16.07,1.03.35,1.17.29.05-.02.09-.05.13-.08.03,0-.2-.67-.26-.73-.07-.07-.3-.28-.31-.29-.24-.27-.43-.64-.5-1,0-.12,0-.28,0-.43,0,0,0-.02.01-.03.01-.04.03-.08.03-.14,0-.03,0-.06-.02-.09h0s-.05-.05-.08-.07c-.04-.02-.09-.04-.13-.06-.04-.01-.08-.03-.09-.04-.22-.12-.46-.26-.64-.42-.2-.17-.37-.36-.53-.58-.07-.09-.13-.18-.19-.28,0-.02-.02-.05-.03-.07-.01-.04-.03-.07-.04-.1,0,0,0-.01,0-.02,0-.04-.02-.08-.03-.12-.02-.05-.05-.08-.08-.11-.03-.03-.06-.04-.09-.07,0,0,0,0,0,0-.02-.02-.04-.03-.05-.05-.21-.2-.34-.52-.42-.82-.09-.34-.09-.74-.16-1.12-.03-.19-.04-.4-.08-.62-.03-.14-.01-.3-.05-.48-.14-.67-.17-1.37-.31-2.06-.07-.38-.23-.73-.34-1.07-.1-.32-.17-.69-.36-1-.22-.36-.48-.74-.81-1.02-.39-.33-.88-.6-1.38-.74-.47-.13-.95-.32-1.47-.32h0c-.43,0-.79.03-1.2.18-.32.12-.65.3-.88.58-.27.33-.45.69-.7,1.01-.14.18-.33.35-.51.51-.2.13-.36.16-.59.15-.02,0-.04,0-.06-.01-.07-.02-.09-.04-.13-.08-.03-.04-.06-.09-.11-.16-.29-.38-.65-.68-.99-.99-.48-.43-1-.75-1.57-1.03-.52-.26-1.05-.4-1.6-.52-.22-.05-.41-.11-.57-.21-.16-.1-.28-.23-.36-.45-.07-.18-.09-.4-.11-.61-.03-.19-.04-.39-.04-.59h0c0-.3-.02-.59-.06-.88-.08-.52-.12-1.02-.37-1.52-.16-.31-.4-.55-.53-.83-.07-.14-.09-.33-.09-.52,0-.23.03-.46.06-.66.05-.37.2-.77.36-1.12.25-.53.44-1.06.6-1.61.1-.33.16-.65.16-.99,0-.12,0-.25-.03-.37-.03-.18-.07-.37-.09-.54,0-.02,0-.03,0-.05,0-.04,0-.07,0-.11,0-.03,0-.06,0-.1h0c-.03-.21-.13-.42-.19-.6-.05-.14-.08-.29-.15-.45-.06-.11-.14-.21-.22-.3-.08-.09-.17-.18-.23-.27-.08-.11-.12-.2-.14-.3-.02-.09-.03-.2-.03-.34h0c0-.24.06-.44.16-.62.1-.18.25-.34.44-.5.4-.35.67-.83.67-1.36,0-.12-.01-.24-.04-.36-.06-.26-.19-.5-.31-.72-.07-.13-.15-.22-.25-.29-.1-.07-.2-.12-.31-.18-.21-.12-.44-.28-.68-.41-.25-.13-.51-.24-.79-.24-.09,0-.18.01-.27.03-.15.04-.28.15-.38.28-.1.12-.19.27-.24.38-.07.15-.08.31-.1.46,0,.05-.01.07-.02.09l-.02.02s-.04.02-.07.04c-.04.02-.08.04-.13.09-.21.18-.33.42-.46.63-.04.06-.07.11-.1.15-.01.01-.04.04-.07.06-.03.03-.07.06-.09.11-.02.04-.02.07-.02.11,0,.07.02.13.04.18.02.05.03.1.03.14h0c0,.07-.02.13-.05.21-.03.07-.07.16-.07.26v.03c0,.2.08.38.24.5.06.04.12.08.18.12.06.04.11.08.14.11.01.01.02.02.02.03-.02,0-.05.01-.09.02-.05.01-.11.02-.17.07-.09.08-.15.2-.2.32-.05.12-.08.25-.11.34-.07.2-.16.39-.31.5-.08.06-.14.07-.15.07h-.02s-.03-.04-.05-.09c-.02-.05-.05-.11-.08-.17-.07-.13-.14-.24-.22-.36-.17-.22-.31-.47-.43-.72-.08-.16-.15-.31-.15-.46,0-.05,0-.1.03-.15.03-.08.08-.15.15-.22.07-.08.14-.15.21-.24.34-.48.55-.99.74-1.53.15-.4.25-.81.44-1.18.16-.33.39-.62.56-.97.25-.51.6-1.07.6-1.69,0-.03,0-.05,0-.07h0c0-.09-.02-.19-.07-.27-.02-.04-.06-.08-.1-.11-.05-.03-.1-.05-.16-.05h-.01c-.1,0-.2.03-.3.07-.1.04-.19.09-.25.15-.16.13-.33.27-.47.41-.08.08-.18.18-.28.26-.1.08-.21.15-.3.18-.07.02-.14.03-.22.03-.21,0-.46-.06-.69-.06-.03,0-.06,0-.08,0-.24.02-.43.15-.58.3-.15.16-.27.35-.37.52-.13.21-.28.41-.42.62-.12.17-.14.36-.14.54,0,.05,0,.1,0,.15,0,.2.03.43.09.62.06.21.2.35.29.51.05.09.08.25.08.42,0,.22-.04.47-.07.64-.03.18-.11.33-.21.5-.07.12-.17.22-.27.34-.11.11-.22.23-.3.38-.05.09-.08.22-.09.34,0,.1.02.21.1.29.03.04.07.06.11.07.04.01.08.02.11.02.04,0,.07,0,.11,0,.41.2.62.48.83.82.07.18.13.36.18.54.12.44.19,1.01.51,1.41.07.08.16.13.24.17.04.02.07.04.1.06-.04.2-.03.38-.03.56-.13.42-.33.83-.33,1.31h0v.04c0,.08,0,.15,0,.23,0,.05-.01.09-.01.14,0,.03,0,.06,0,.09-.01.16-.02.33-.04.49-.01.11-.02.31-.05.49-.02.09-.04.17-.07.23-.03.06-.06.09-.1.1h-.02s-.03,0-.04-.01c-.03-.02-.06-.06-.1-.13-.05-.09-.09-.22-.12-.34-.03-.12-.05-.22-.07-.28-.06-.18-.12-.36-.17-.54-.03-.23-.07-.46-.14-.67-.1-.29-.2-.63-.39-.87-.31-.9-.71-1.81-1.36-2.44-.1-.15-.21-.28-.33-.4-.01-.02-.03-.04-.04-.05-.11-.14-.24-.3-.4-.41-.18-.13-.36-.27-.54-.4-.17-.13-.36-.2-.53-.31-.55-.34-1.13-.61-1.69-.9-.22-.12-.45-.2-.66-.3-.21-.1-.41-.21-.57-.37-.19-.2-.34-.41-.48-.66-.12-.2-.21-.46-.38-.66l-.07-.09-.06.1c-.13.22-.19.46-.22.69-.03.24-.04.47-.07.7,0,.04-.01.07-.02.08-.03.02-.05.03-.08.04-.03,0-.08,0-.14.01-.11.01-.22.05-.32.07-.32.09-.59.27-.87.42-.54.3-1.19.51-1.69.95-.17.15-.32.36-.43.55-.16.29-.42.48-.71.68-.19.13-.37.27-.55.41-.11.07-.21.15-.32.23-.06.04-.12.08-.17.12-.39.26-.86.46-1.24.76-.13.1-.29.22-.42.37-.13.14-.23.32-.23.54v.04h0c.01.15.07.26.1.38.02.1.02.24.02.36,0,.09,0,.19.02.29.01.1.04.2.1.29.04.05.09.13.16.19.06.07.14.13.23.16.07.02.14.03.21.03.34,0,.69-.2.89-.39.03-.03.07-.07.12-.11.05-.04.1-.06.13-.06h.02s.01.01.02.03h0s-.02.1-.05.16c-.03.06-.07.12-.09.16-.04.07-.09.18-.14.3-.05.12-.09.24-.09.36,0,.08.02.16.07.22.06.07.14.1.24.12.08.01.16.02.24.02.02,0,.04,0,.06,0,.2.59.82.99,1.31,1.33.61.42,1.2.78,1.86,1.02-.37.67-.75,1.34-1.17,1.98-.16.24-.29.48-.46.7-.04.05-.07.1-.11.15-.02.02-.04.04-.06.08,0,0,0,0,0,.01-.13.17-.27.35-.38.54-.08.13-.19.3-.29.49-.03.05-.05.1-.08.16-.03.06-.06.12-.09.19-.17.4-.27.77-.32,1.18-.05.19-.08.37-.12.54-.04.19-.06.37-.06.58,0,.2-.07.44-.07.67,0,0,0,.02,0,.03-.02,0-.04,0-.06,0-.47-.08-.98-.06-1.45-.06-.07,0-.13,0-.2,0-.07,0-.13,0-.2,0-.37,0-.78-.03-1.19-.03-.49,0-.98.05-1.41.27-.32.16-.51.43-.67.72-.15.29-.27.59-.42.84-.17.27-.33.56-.49.84-.13.16-.23.34-.34.51-.06.08-.12.15-.18.22-.14.13-.32.25-.47.37-.14.09-.29.2-.4.34-.13.17-.18.33-.2.48-.01.1-.02.2-.02.32-.02.08-.03.15-.04.23,0,.08-.02.15-.02.23-.03.14-.07.29-.1.43,0,.02,0,.03-.01.05-.01.02-.02.05-.03.08-.14.47-.15,1.27-.03,1.74.03.12.05.26.08.4.02.17.05.33.09.5.04.15.1.34.19.5.05.08.11.15.18.2.44.36.49.04.56,0,.11-.07.18-.18.24-.28.06-.1.12-.2.19-.28.25-.27.53-.53.76-.84.1-.13.15-.26.15-.39,0-.17-.08-.32-.18-.48-.05-.07-.26-.14-.35-.23-.23-.25-.3-.23-.41-.36-.12-.15-.07-.41-.07-.51,0-.03,0-.06.02-.08.02-.03.04-.05.09-.08.06-.04.13-.05.22-.06.09-.01.2-.03.3-.11.1-.08.15-.16.19-.25.04-.09.06-.17.09-.26.15-.44.29-.83.6-1.14.28-.29.59-.56.84-.88.12-.15.24-.3.38-.41.13-.11.28-.18.46-.2.05,0,.1,0,.16,0,.6,0,1.25.33,1.8.56.22.09.42.2.66.27.07.02.12.04.17.05.02.27-.03.53-.08.79-.04.09-.07.19-.08.31-.02.19-.02.37-.03.53,0,.01,0,.03,0,.04,0,.06,0,.12,0,.18-.03.18-.06.36-.09.54-.03.15-.05.3-.06.45-.03.25-.06.51-.09.77-.01.11-.02.23-.03.36-.03.14-.05.26-.05.42,0,.08,0,.16.02.26.03.2.05.35.09.5.05.15.12.28.26.45.08.1.11.19.13.3,0,.02,0,.03,0,.05,0,.05.01.1.03.15.01.1.03.2.08.32.04.1.09.18.15.26.2.33.47.64.74.93.05.14.09.3.19.46.08.13.22.3.37.46.16.16.32.3.48.36.04.01.08.02.12.02.14,0,.25-.08.34-.2.13-.17.22-.43.28-.72.06-.3.09-.63.09-.94,0-.25-.02-.48-.06-.67-.04-.19-.1-.35-.2-.45l-.03-.03h-.04c-.15.03-.25.1-.34.16-.09.06-.17.1-.29.1-.04,0-.08,0-.12-.01-.02,0-.04,0-.06-.01-.12-.04-.22-.11-.33-.19-.04-.09-.08-.14-.12-.19-.04-.05-.06-.09-.06-.17v-.02c0-.07.02-.12.04-.18.02-.06.06-.14.07-.23,0-.03,0-.06,0-.09,0-.15-.05-.29-.1-.41-.03-.22-.09-.44-.16-.62,0-.05,0-.1,0-.16,0-.25-.02-.54-.02-.8,0-.23.02-.46.07-.65.05-.19.18-.38.29-.58.11-.2.22-.41.22-.65,0,0,0,0,.01-.01.17,0,.31-.05.44-.09.15-.05.28-.09.41-.09.12,0,.24.03.4.13.14.1.24.16.36.21.11.04.24.06.42.09.1.01.19.04.27.09.05.07.1.14.16.21,0,.03.01.06.01.1,0,.04,0,.09-.02.15,0,.01,0,.02-.01.03-.13.13-.29.24-.47.33-.08.03-.18.04-.29.11,0,0-.02.01-.02.02-.36.08-1.25.06-.8.62.06.04.36.34.46.46.1.13.21.26.34.34.05.03.09.06.14.07.05.02.1.02.16.02.02,0,.04,0,.06,0,.09,0,.16-.03.2-.06.04-.03.05-.04.09-.05.1-.03.2-.05.28-.05s.15.01.22.05c.07.03.13.09.2.17.05.06.11.13.16.2.04.12.08.24.17.33.16.16.51.2.72.24.22.04.41-.09.42-.32.02-.29.08-.55.17-.81.03-.08.06-.16.09-.24,0,0,0,0,0-.02.06-.14.12-.29.19-.43.05-.11.12-.23.18-.35.07-.1.15-.2.23-.26.02-.02.05-.04.08-.05.16.03.32.05.48.07.04,0,.41.23.61.3.37.13.74.2,1.09.3.6.19,1.17.38,1.83.5.26.05.52.07.77.09.19.03.38.06.57.09.58.09,1.7.06,2.13.39.15.12.31.21.47.29,0,.08.01.17.01.27,0,.44.11.75.22,1.15.21.76.41,1.53.83,2.24.29.48.55.98.84,1.46.06.1.19.25.3.42.06.08.11.16.14.24.04.08.06.15.06.2,0,.03,0,.04-.01.06-.16.09-.32.18-.48.27-.02,0-.03.01-.05.02-.14.06-.27.11-.36.16-.36.22-.73.41-1.11.59-.38.18-.78.35-1.15.5-.45.18-.81.42-1.22.65-.04.02-.07.04-.11.06,0,0,0,0-.01,0-.29.15-.61.25-.9.43-.13.08-.22.2-.28.33-.06.12-.08.18-.09.2,0,0-.01.02-.04.03-.02.02-.06.04-.11.07-.32.19-.65.38-.99.57-.2.12-.39.23-.55.39-.03.03-.05.06-.08.09-.1.06-.15.15-.18.24-.03.03-.05.06-.08.08l-.13.09h-15.09l-5,3.01h-3.57v3.54h-3.41v24.59h60.24v-24.59h-3.41ZM327.39,443.19c-.02.13-.11.24-.23.35-.12.11-.27.21-.39.31-.26.24-.49.51-.72.76-.2.2-.38.46-.51.69-.08.13-.15.27-.23.41-.5-.17-.96-.41-1.42-.72-.44-.3-1.17-.64-1.41-1.17.26-.09.5-.22.7-.36.15-.11.29-.25.43-.36.24-.12.48-.24.72-.35.18-.06.37-.12.56-.18.37-.12.78-.18,1.19-.2.13,0,.26-.02.39-.02.08,0,.16,0,.23.02.09.01.22.04.34.08.12.04.22.1.28.16.03.03.06.09.08.16.02.07.02.15.02.23,0,.07,0,.13-.01.18ZM334.38,471.67c.2-.24.6-.44.91-.48.04,0,.08,0,.12,0,.13,0,.27.02.4.02.09,0,.19-.01.27-.05.09-.04.16-.12.2-.22.07-.19.09-.36.14-.51,0-.03.02-.05.03-.08.1-.15.21-.28.32-.39.31-.22.68-.39,1.03-.59.24-.12.47-.25.7-.39.56-.28,1.17-.51,1.73-.77.15-.07.41-.15.65-.25.12-.05.24-.11.35-.18.1-.07.19-.15.24-.25.03-.07.05-.14.05-.21,0-.13-.04-.26-.1-.38-.05-.12-.11-.23-.14-.32-.29-.75-.5-1.55-.78-2.32-.03-.08-.09-.2-.15-.33-.06-.13-.1-.27-.1-.35,0-.02,0-.04,0-.04h0s0,0,0,0c.01-.04.06-.08.13-.11.07-.03.15-.05.2-.05h.01c.05,0,.08,0,.1,0h0s.02.05.06.09c.09.12.14.28.18.45.04.17.08.35.15.52.15.35.4.64.62.93.52.71.67,1.32.67,2.21h0c0,.36-.1.62-.27.83-.17.21-.43.37-.75.52-.58.26-1.17.55-1.72.89-.22.11-.43.23-.63.37-.19.09-.39.17-.57.3-.07.05-.12.11-.16.16-.04.05-.07.1-.12.13-.03.02-.07.04-.13.05-.06.01-.12.02-.19.05-.24.1-.54.22-.81.38-.2.12-.72.37-1.01.61h-1.79c.04-.08.08-.17.12-.24Z"/>
  <path class="cls-1" d="M481.64,503.04c.27-.62.42-1.3.41-2.02-.05-2.47-.93-4.9-2.66-6.6-1-6.14-8.51-10.59-14.55-9.2-1.12-1.05-2.39-1.88-3.9-2.26-1.94-.5-3.72-.13-5.5.7-1.41.65-2.36,1.96-3.02,3.34-3.91-4.17-9.8-7.01-15.02-4.94-2.98-1.29-6.2-2.29-9.38-1.38-3.52.99-5.16,4.01-5.77,7.27-3.46-.04-6.82.86-9.02,3.34-1.02-.62-2.12-1.14-3.24-1.6-.59-2.94-1.76-5.6-4.46-7.43-2.71-1.86-6.12-1.18-8.99.13-.23-.19-.47-.37-.73-.53-2.61-1.72-6.5-1.81-9.04.12-3.19,2.42-4.08,5.93-3.34,9.73-.85.43-1.58,1.07-2.02,1.95-1.5,2.95-1.99,6.65-.13,9.39h100.36Z"/>
  <path class="cls-1" d="M990.31,503.04c.27-.62.42-1.3.41-2.02-.05-2.47-.93-4.9-2.66-6.6-1-6.14-8.51-10.59-14.55-9.2-1.12-1.05-2.39-1.88-3.9-2.26-1.94-.5-3.72-.13-5.5.7-1.41.65-2.36,1.96-3.02,3.34-3.91-4.17-9.8-7.01-15.02-4.94-2.98-1.29-6.2-2.29-9.38-1.38-3.52.99-5.16,4.01-5.77,7.27-3.46-.04-6.82.86-9.02,3.34-1.02-.62-2.12-1.14-3.24-1.6-.59-2.94-1.76-5.6-4.46-7.43-2.71-1.86-6.12-1.18-8.99.13-.23-.19-.47-.37-.73-.53-2.61-1.72-6.5-1.81-9.04.12-3.19,2.42-4.08,5.93-3.34,9.73-.85.43-1.58,1.07-2.02,1.95-1.5,2.95-1.99,6.65-.13,9.39h100.36Z"/>
  <path class="cls-1" d="M1294.36,503.04c-.27-.62-.42-1.3-.41-2.02.05-2.47.93-4.9,2.66-6.6,1-6.14,8.51-10.59,14.55-9.2,1.12-1.05,2.39-1.88,3.9-2.26,1.94-.5,3.72-.13,5.5.7,1.41.65,2.36,1.96,3.02,3.34,3.91-4.17,9.8-7.01,15.02-4.94,2.98-1.29,6.2-2.29,9.38-1.38,3.52.99,5.16,4.01,5.77,7.27,3.46-.04,6.82.86,9.02,3.34,1.02-.62,2.12-1.14,3.24-1.6.59-2.94,1.76-5.6,4.46-7.43,2.71-1.86,6.12-1.18,8.99.13.23-.19.47-.37.73-.53,2.61-1.72,6.5-1.81,9.04.12,3.19,2.42,4.08,5.93,3.34,9.73.85.43,1.58,1.07,2.02,1.95,1.5,2.95,1.99,6.65.13,9.39h-100.36Z"/>
  <path class="cls-1" d="M626.54,503.04h-91.04c-.11-.17-.25-.32-.34-.5-2.39-2.14-3.16-5.87-2.12-9.31,1.52-4.98,6.05-9.85,11.69-9.8.25,0,.48.05.72.07,3.3-1.27,6.95-1.06,10.37-.21,1.57.4,2.58,1.28,3.11,2.37.63-1.12,1.68-2.02,3.02-2.37,1.92-.5,4.09-.68,6-.04.36.12.69.26,1.01.41,1.36-2.04,3.3-3.65,5.88-4.06.39-.07.78-.08,1.17-.08,3.03-1.79,6.73-1.96,9.94-.04,1.17.71,1.98,1.81,2.31,3.02,1.07.41,1.88.85,2.77,1.66.61.55,1.08,1.27,1.45,1.99.49.95.74,1.92.65,2.94.54-.66,1.19-1.27,1.96-1.84.88-.64,2.01-1.04,3.18-1.24.14-1.57.52-3.11,1.34-4.51,1.39-2.4,4.27-3.84,7.08-3.62,2.54.2,4.68,1.83,4.97,4.34,2.3-.2,4.67.27,6.7,1.32,2.71,1.41,4.07,3.81,4.33,6.41,1.81.62,3.43,1.83,4.44,3.38,1.71,2.58,1.56,5.76.26,8.44-.23.47-.51.89-.82,1.25Z"/>
  <path class="cls-1" d="M1190.07,503.04h-91.04c-.11-.17-.25-.32-.34-.5-2.39-2.14-3.16-5.87-2.12-9.31,1.52-4.98,6.05-9.85,11.69-9.8.25,0,.48.05.72.07,3.3-1.27,6.95-1.06,10.37-.21,1.57.4,2.58,1.28,3.11,2.37.63-1.12,1.68-2.02,3.02-2.37,1.92-.5,4.09-.68,6-.04.36.12.69.26,1.01.41,1.36-2.04,3.3-3.65,5.88-4.06.39-.07.78-.08,1.17-.08,3.03-1.79,6.73-1.96,9.94-.04,1.17.71,1.98,1.81,2.31,3.02,1.07.41,1.88.85,2.77,1.66.61.55,1.08,1.27,1.45,1.99.49.95.74,1.92.65,2.94.54-.66,1.19-1.27,1.95-1.84.88-.64,2.01-1.04,3.18-1.24.14-1.57.52-3.11,1.34-4.51,1.39-2.4,4.27-3.84,7.08-3.62,2.54.2,4.68,1.83,4.97,4.34,2.3-.2,4.67.27,6.7,1.32,2.71,1.41,4.07,3.81,4.33,6.41,1.81.62,3.43,1.83,4.44,3.38,1.71,2.58,1.56,5.76.26,8.44-.23.47-.51.89-.82,1.25Z"/>
  <path class="cls-1" d="M129.34,503.04h91.04c.11-.17.25-.32.34-.5,2.39-2.14,3.16-5.87,2.12-9.31-1.52-4.98-6.05-9.85-11.69-9.8-.25,0-.48.05-.72.07-3.3-1.27-6.95-1.06-10.37-.21-1.57.4-2.58,1.28-3.11,2.37-.63-1.12-1.68-2.02-3.02-2.37-1.92-.5-4.09-.68-6-.04-.36.12-.69.26-1.01.41-1.36-2.04-3.3-3.65-5.88-4.06-.39-.07-.78-.08-1.17-.08-3.03-1.79-6.73-1.96-9.94-.04-1.18.71-1.98,1.81-2.31,3.02-1.07.41-1.88.85-2.77,1.66-.61.55-1.08,1.27-1.45,1.99-.49.95-.74,1.92-.65,2.94-.54-.66-1.19-1.27-1.96-1.84-.88-.64-2.01-1.04-3.18-1.24-.14-1.57-.52-3.11-1.34-4.51-1.39-2.4-4.27-3.84-7.08-3.62-2.54.2-4.68,1.83-4.97,4.34-2.3-.2-4.67.27-6.7,1.32-2.71,1.41-4.07,3.81-4.32,6.41-1.81.62-3.43,1.83-4.44,3.38-1.71,2.58-1.56,5.76-.26,8.44.23.47.51.89.82,1.25Z"/>
  <path class="cls-1" d="M188.63,503.04h91.04c.11-.17.25-.32.34-.5,2.39-2.14,3.16-5.87,2.12-9.31-1.52-4.98-6.05-9.85-11.69-9.8-.25,0-.48.05-.72.07-3.3-1.27-6.95-1.06-10.37-.21-1.57.4-2.58,1.28-3.11,2.37-.63-1.12-1.68-2.02-3.02-2.37-1.92-.5-4.09-.68-6-.04-.36.12-.69.26-1.01.41-1.36-2.04-3.3-3.65-5.88-4.06-.39-.07-.78-.08-1.17-.08-3.03-1.79-6.73-1.96-9.94-.04-1.18.71-1.98,1.81-2.31,3.02-1.07.41-1.88.85-2.77,1.66-.61.55-1.08,1.27-1.45,1.99-.49.95-.74,1.92-.65,2.94-.54-.66-1.19-1.27-1.96-1.84-.88-.64-2.01-1.04-3.18-1.24-.14-1.57-.52-3.11-1.34-4.51-1.39-2.4-4.27-3.84-7.08-3.62-2.54.2-4.68,1.83-4.97,4.34-2.3-.2-4.67.27-6.7,1.32-2.71,1.41-4.07,3.81-4.32,6.41-1.81.62-3.43,1.83-4.44,3.38-1.71,2.58-1.56,5.76-.26,8.44.23.47.51.89.82,1.25Z"/>
  <rect class="cls-1" y="502.78" width="1417.32" height="28.35"/>
</svg>