<svg width="30" height="30" viewBox="0 0 30 30" fill="none" xmlns="http://www.w3.org/2000/svg">
<path d="M16.1859 14.7763C15.8126 14.901 15.4145 14.9702 15 14.9702C14.5855 14.9702 14.1873 14.901 13.8141 14.7763C11.1028 15.2216 9.68384 17.2143 9.68384 19.6324H15H20.3161C20.3161 17.2143 18.8974 15.2216 16.1859 14.7763Z" fill="#FFC6ED"/>
<path d="M15 14.1087C16.6072 14.1087 17.9096 12.8055 17.9096 11.1986V10.3731C17.9096 8.76616 16.6072 7.46344 15 7.46344C13.3928 7.46344 12.0903 8.76616 12.0903 10.3731V11.1986C12.0903 12.8055 13.3928 14.1087 15 14.1087Z" fill="#FFC6ED"/>
<path d="M22.1719 0H7.82707C5.05277 0 2.79492 2.25832 2.79492 5.03314V24.9679C2.79492 27.7427 5.05277 30 7.82707 30H19.8795H20.6515L21.1975 29.455L26.6601 23.9924L27.2051 23.4469V22.675V5.03314C27.2051 2.25832 24.9472 0 22.1719 0ZM25.3416 22.6749H22.5205C21.0626 22.6749 19.8795 23.8575 19.8795 25.3159V28.1365H7.82707C6.07711 28.1365 4.65844 26.7173 4.65844 24.9679V5.03314C4.65844 3.28271 6.07711 1.86346 7.82707 1.86346H22.1719C23.9224 1.86346 25.3416 3.28271 25.3416 5.03314V22.6749H25.3416Z" fill="#FFC6ED"/>
</svg>
