<?xml version="1.0" encoding="UTF-8"?><svg id="a" xmlns="http://www.w3.org/2000/svg" width="2300" height="1100" viewBox="0 0 2300 1100"><path d="M2300,0v1100H0V0h2300Z" fill="#000" stroke-width="0"/><path d="M1603.69,384.99c0-1.13-.91-2.04-2.04-2.04s-2.04.91-2.04,2.04.91,2.04,2.04,2.04,2.04-.91,2.04-2.04Z" fill="#7c7c7c" stroke-width="0"/><path d="M476.07,261.06c0-1.86-1.51-3.37-3.37-3.37-.71,0-1.37.22-1.91.59v5.56c.54.37,1.2.59,1.91.59,1.86,0,3.37-1.51,3.37-3.37Z" fill="#7c7c7c" stroke-width="0"/><circle cx="655.32" cy="574.87" r="1.58" transform="translate(-83.62 112.39) rotate(-9.22)" fill="#7c7c7c" stroke-width="0"/><path d="M345.3,505.18c0,1.61,1.3,2.91,2.91,2.91s2.91-1.3,2.91-2.91-1.3-2.91-2.91-2.91-2.91,1.3-2.91,2.91Z" fill="#7c7c7c" stroke-width="0"/><circle cx="695.14" cy="502.75" r="1.44" fill="#7c7c7c" stroke-width="0"/><path d="M1634.25,891.3c0-1.48-1.2-2.68-2.68-2.68s-2.68,1.2-2.68,2.68,1.2,2.68,2.68,2.68,2.68-1.2,2.68-2.68Z" fill="#7c7c7c" stroke-width="0"/><path d="M529.94,990.39c-1.42,0-2.57,1.15-2.57,2.57s1.15,2.57,2.57,2.57,2.57-1.15,2.57-2.57-1.15-2.57-2.57-2.57Z" fill="#7c7c7c" stroke-width="0"/><circle cx="220.26" cy="853.18" r="2.76" fill="#7c7c7c" stroke-width="0"/><path d="M722.91,605.46c-1.11,0-2.01.9-2.01,2.01s.9,2.01,2.01,2.01,2.01-.9,2.01-2.01-.9-2.01-2.01-2.01Z" fill="#7c7c7c" stroke-width="0"/><path d="M1391.64,534.4c-1.37,0-2.48,1.11-2.48,2.48s1.11,2.48,2.48,2.48,2.48-1.11,2.48-2.48-1.11-2.48-2.48-2.48Z" fill="#7c7c7c" stroke-width="0"/><path d="M1366.78,373.15c0,1.47,1.19,2.66,2.66,2.66s2.66-1.19,2.66-2.66-1.19-2.66-2.66-2.66-2.66,1.19-2.66,2.66Z" fill="#7c7c7c" stroke-width="0"/><circle cx="1749.31" cy="687.66" r="1.75" fill="#7c7c7c" stroke-width="0"/><path d="M807.99,383.37c-1.37,0-2.48.73-2.48,1.62s1.11,1.62,2.48,1.62,2.48-.73,2.48-1.62-1.11-1.62-2.48-1.62Z" fill="#7c7c7c" stroke-width="0"/><path d="M692.96,415.93c-1.21,0-2.19.98-2.19,2.19s.98,2.19,2.19,2.19,2.19-.98,2.19-2.19-.98-2.19-2.19-2.19Z" fill="#7c7c7c" stroke-width="0"/><path d="M1424.35,395.25c-1.21,0-2.19.98-2.19,2.19s.98,2.19,2.19,2.19,2.19-.98,2.19-2.19-.98-2.19-2.19-2.19Z" fill="#7c7c7c" stroke-width="0"/><circle cx="1291.07" cy="830.58" r="1.53" fill="#7c7c7c" stroke-width="0"/><path d="M765.57,533.86c-.71,0-1.28.57-1.28,1.28s.57,1.28,1.28,1.28,1.28-.57,1.28-1.28-.57-1.28-1.28-1.28Z" fill="#7c7c7c" stroke-width="0"/><path d="M843.82,894.99c-1.15,0-2.09.94-2.09,2.09s.94,2.09,2.09,2.09,2.09-.94,2.09-2.09-.94-2.09-2.09-2.09Z" fill="#7c7c7c" stroke-width="0"/><path d="M569.7,690.14c-.93,0-1.68.75-1.68,1.68s.75,1.68,1.68,1.68,1.68-.75,1.68-1.68-.75-1.68-1.68-1.68Z" fill="#7c7c7c" stroke-width="0"/><path d="M1332.43,633.03c1.06,0,1.92-.86,1.92-1.92s-.86-1.92-1.92-1.92-1.92.86-1.92,1.92.86,1.92,1.92,1.92Z" fill="#7c7c7c" stroke-width="0"/><circle cx="603.06" cy="192.79" r="2.72" fill="#7c7c7c" stroke-width="0"/><path d="M590.22,531.03c0-.99-.8-1.79-1.79-1.79s-1.79.8-1.79,1.79.8,1.79,1.79,1.79,1.79-.8,1.79-1.79Z" fill="#7c7c7c" stroke-width="0"/><path d="M1601.65,470.47c-1.25,0-2.26,1.01-2.26,2.26s1.01,2.26,2.26,2.26,2.26-1.01,2.26-2.26-1.01-2.26-2.26-2.26Z" fill="#7c7c7c" stroke-width="0"/><path d="M1273.44,304.64c-1.51,0-2.73,1.22-2.73,2.73s1.22,2.73,2.73,2.73,2.73-1.22,2.73-2.73-1.22-2.73-2.73-2.73Z" fill="#7c7c7c" stroke-width="0"/><path d="M1101.54,288.05c-1.44,0-2.61,1.17-2.61,2.61s1.17,2.61,2.61,2.61,2.61-1.17,2.61-2.61-1.17-2.61-2.61-2.61Z" fill="#7c7c7c" stroke-width="0"/><circle cx="291.1" cy="788.93" r="2.14" fill="#7c7c7c" stroke-width="0"/><path d="M1227.48,735.44c-1.19,0-2.16.97-2.16,2.16s.97,2.16,2.16,2.16,2.16-.97,2.16-2.16-.97-2.16-2.16-2.16Z" fill="#7c7c7c" stroke-width="0"/><path d="M2235.53,561.72c-1.29,0-2.33,1.04-2.33,2.33s1.04,2.33,2.33,2.33,2.33-1.04,2.33-2.33-1.04-2.33-2.33-2.33Z" fill="#7c7c7c" stroke-width="0"/><path d="M2009.54,500.31c0-1.47-1.2-2.67-2.67-2.67s-2.67,1.2-2.67,2.67,1.2,2.67,2.67,2.67,2.67-1.2,2.67-2.67Z" fill="#7c7c7c" stroke-width="0"/><path d="M814.24,367.43c-.99,0-1.78.8-1.78,1.78s.8,1.78,1.78,1.78,1.78-.8,1.78-1.78-.8-1.78-1.78-1.78Z" fill="#7c7c7c" stroke-width="0"/><circle cx="745.01" cy="171.46" r="1.41" fill="#7c7c7c" stroke-width="0"/><path d="M580.52,546.8c0-.8-.34-1.52-.89-2.02v4.05c.54-.5.89-1.22.89-2.02Z" fill="#7c7c7c" stroke-width="0"/><path d="M530.69,567.63c0,1.01.82,1.82,1.82,1.82s1.82-.82,1.82-1.82-.82-1.82-1.82-1.82-1.82.82-1.82,1.82Z" fill="#7c7c7c" stroke-width="0"/><path d="M1121.03,717.49c-1.06,0-1.91.86-1.91,1.91s.86,1.91,1.91,1.91,1.91-.86,1.91-1.91-.86-1.91-1.91-1.91Z" fill="#7c7c7c" stroke-width="0"/><circle cx="321.37" cy="995.53" r="1.92" fill="#7c7c7c" stroke-width="0"/><path d="M628.28,105c-.69,0-1.25.56-1.25,1.25s.56,1.25,1.25,1.25,1.25-.56,1.25-1.25-.56-1.25-1.25-1.25Z" fill="#7c7c7c" stroke-width="0"/><path d="M999.05,947c0-1.23-1-2.23-2.23-2.23s-2.23,1-2.23,2.23,1,2.23,2.23,2.23,2.23-1,2.23-2.23Z" fill="#7c7c7c" stroke-width="0"/><path d="M749.47,791.17c0-1.23-1-2.23-2.23-2.23s-2.23,1-2.23,2.23,1,2.23,2.23,2.23,2.23-1,2.23-2.23Z" fill="#7c7c7c" stroke-width="0"/><circle cx="248.65" cy="302.06" r="2.25" fill="#7c7c7c" stroke-width="0"/><path d="M157.11,696.6c-1.03,0-1.87.84-1.87,1.87s.84,1.87,1.87,1.87,1.87-.84,1.87-1.87-.84-1.87-1.87-1.87Z" fill="#7c7c7c" stroke-width="0"/><circle cx="614.47" cy="264.43" r="1.3" fill="#7c7c7c" stroke-width="0"/><path d="M855.49,584.46c-.85,0-1.54.69-1.54,1.54s.69,1.54,1.54,1.54,1.54-.69,1.54-1.54-.69-1.54-1.54-1.54Z" fill="#7c7c7c" stroke-width="0"/><path d="M580.52,332.91c-1.29,0-2.33,1.04-2.33,2.33s1.04,2.33,2.33,2.33,2.33-1.04,2.33-2.33-1.04-2.33-2.33-2.33Z" fill="#7c7c7c" stroke-width="0"/><circle cx="1104.15" cy="440.76" r="2.35" fill="#7c7c7c" stroke-width="0"/><path d="M945.34,575.25c.72,0,1.3-.58,1.3-1.3s-.58-1.3-1.3-1.3-1.3.58-1.3,1.3.58,1.3,1.3,1.3Z" fill="#7c7c7c" stroke-width="0"/><path d="M1929.42,453.7c0-1.44-1.17-2.61-2.61-2.61s-2.61,1.17-2.61,2.61,1.17,2.61,2.61,2.61,2.61-1.17,2.61-2.61Z" fill="#7c7c7c" stroke-width="0"/><circle cx="1131.37" cy="532.49" r="1.47" fill="#7c7c7c" stroke-width="0"/><path d="M1398.41,313.39c.72,0,1.3-.58,1.3-1.3s-.58-1.3-1.3-1.3-1.3.58-1.3,1.3.58,1.3,1.3,1.3Z" fill="#7c7c7c" stroke-width="0"/><path d="M1260.27,457.65c-.78,0-1.4.63-1.4,1.4s.63,1.4,1.4,1.4c.41,0,.78-.18,1.03-.46v-1.89c-.26-.28-.62-.46-1.03-.46Z" fill="#7c7c7c" stroke-width="0"/><path d="M1186.89,614.68c-.86,0-1.56.7-1.56,1.56s.7,1.56,1.56,1.56,1.56-.7,1.56-1.56-.7-1.56-1.56-1.56Z" fill="#7c7c7c" stroke-width="0"/><path d="M1539.23,290.77c-1.38,0-2.5,1.12-2.5,2.5s1.12,2.5,2.5,2.5,2.5-1.12,2.5-2.5-1.12-2.5-2.5-2.5Z" fill="#7c7c7c" stroke-width="0"/><path d="M814.24,693.51c-1.37,0-2.48,1.11-2.48,2.48s1.11,2.48,2.48,2.48,2.48-1.11,2.48-2.48-1.11-2.48-2.48-2.48Z" fill="#7c7c7c" stroke-width="0"/><circle cx="2141.28" cy="110.23" r="1.77" fill="#7c7c7c" stroke-width="0"/><path d="M727.58,274.56c-1.44,0-2.6,1.16-2.6,2.6s1.16,2.6,2.6,2.6,2.6-1.16,2.6-2.6-1.16-2.6-2.6-2.6Z" fill="#7c7c7c" stroke-width="0"/><path d="M1229.64,939.29c-.87,0-1.57.7-1.57,1.57s.7,1.57,1.57,1.57,1.57-.7,1.57-1.57-.7-1.57-1.57-1.57Z" fill="#7c7c7c" stroke-width="0"/><path d="M1231.21,193.93c-.88,0-1.59.71-1.59,1.59s.71,1.59,1.59,1.59,1.59-.71,1.59-1.59-.71-1.59-1.59-1.59Z" fill="#7c7c7c" stroke-width="0"/><path d="M725.24,394.8c-.73,0-1.32.59-1.32,1.32s.59,1.32,1.32,1.32,1.32-.59,1.32-1.32-.59-1.32-1.32-1.32Z" fill="#7c7c7c" stroke-width="0"/><path d="M692.96,891.3c-1,0-1.81.81-1.81,1.81s.81,1.81,1.81,1.81,1.81-.81,1.81-1.81-.81-1.81-1.81-1.81Z" fill="#7c7c7c" stroke-width="0"/><path d="M196.14,166.12c-1.48,0-2.67,1.2-2.67,2.67s1.2,2.67,2.67,2.67,2.67-1.2,2.67-2.67-1.2-2.67-2.67-2.67Z" fill="#7c7c7c" stroke-width="0"/><circle cx="130.38" cy="337.57" r="2.04" fill="#7c7c7c" stroke-width="0"/><circle cx="455.93" cy="661.57" r="1.83" fill="#7c7c7c" stroke-width="0"/><path d="M101.88,846.93c-1.08,0-1.96.88-1.96,1.96s.88,1.96,1.96,1.96,1.96-.88,1.96-1.96-.88-1.96-1.96-1.96Z" fill="#7c7c7c" stroke-width="0"/><path d="M586.96,601.32c-.79,0-1.43.64-1.43,1.43s.64,1.43,1.43,1.43,1.43-.64,1.43-1.43-.64-1.43-1.43-1.43Z" fill="#7c7c7c" stroke-width="0"/><path d="M807.82,241.57c0-1.28-1.03-2.31-2.31-2.31s-2.31,1.03-2.31,2.31,1.03,2.31,2.31,2.31,2.31-1.03,2.31-2.31Z" fill="#7c7c7c" stroke-width="0"/><path d="M1484.97,811.44c1.49,0,2.7-1.21,2.7-2.7s-1.21-2.7-2.7-2.7-2.7,1.21-2.7,2.7,1.21,2.7,2.7,2.7Z" fill="#7c7c7c" stroke-width="0"/><circle cx="1599.38" cy="139.49" r="1.34" fill="#7c7c7c" stroke-width="0"/><path d="M1011.9,415.32c-1.55,0-2.8,1.25-2.8,2.8s1.25,2.8,2.8,2.8,2.8-1.25,2.8-2.8-1.25-2.8-2.8-2.8Z" fill="#7c7c7c" stroke-width="0"/><path d="M345.88,657.4c-1.29,0-2.34,1.05-2.34,2.34s1.05,2.34,2.34,2.34,2.34-1.05,2.34-2.34-1.05-2.34-2.34-2.34Z" fill="#7c7c7c" stroke-width="0"/><path d="M1355.62,942.61c0-.96-.78-1.75-1.75-1.75s-1.75.78-1.75,1.75.78,1.75,1.75,1.75,1.75-.78,1.75-1.75Z" fill="#7c7c7c" stroke-width="0"/><path d="M1143.68,302.06c-1.43,0-2.58,1.16-2.58,2.58s1.16,2.58,2.58,2.58,2.58-1.16,2.58-2.58-1.16-2.58-2.58-2.58Z" fill="#7c7c7c" stroke-width="0"/><circle cx="431.66" cy="142.48" r="2.24" fill="#7c7c7c" stroke-width="0"/><circle cx="908.66" cy="435.74" r="1.77" fill="#7c7c7c" stroke-width="0"/><path d="M2143.06,687.43c-1.09,0-1.98.88-1.98,1.98s.88,1.98,1.98,1.98,1.98-.88,1.98-1.98-.88-1.98-1.98-1.98Z" fill="#7c7c7c" stroke-width="0"/><path d="M1424.35,217.81c0-1.28-1.04-2.32-2.32-2.32s-2.32,1.04-2.32,2.32,1.04,2.32,2.32,2.32,2.32-1.04,2.32-2.32Z" fill="#7c7c7c" stroke-width="0"/><path d="M2043.24,377.99c1.21,0,2.19-.98,2.19-2.19s-.98-2.19-2.19-2.19-2.19.98-2.19,2.19.98,2.19,2.19,2.19Z" fill="#7c7c7c" stroke-width="0"/><path d="M2146.57,949.23c0-.85-.69-1.53-1.53-1.53s-1.53.69-1.53,1.53.69,1.53,1.53,1.53,1.53-.69,1.53-1.53Z" fill="#7c7c7c" stroke-width="0"/><path d="M1465.4,453.7c-1.48,0-2.68,1.2-2.68,2.68s1.2,2.68,2.68,2.68,2.68-1.2,2.68-2.68-1.2-2.68-2.68-2.68Z" fill="#7c7c7c" stroke-width="0"/><path d="M568.02,853.18c-1.46,0-2.64,1.18-2.64,2.64s1.18,2.63,2.64,2.63,2.63-1.18,2.63-2.63-1.18-2.64-2.63-2.64Z" fill="#7c7c7c" stroke-width="0"/><path d="M287.66,573.03c-1.02,0-1.84.83-1.84,1.84s.83,1.84,1.84,1.84,1.84-.83,1.84-1.84-.83-1.84-1.84-1.84Z" fill="#7c7c7c" stroke-width="0"/><circle cx="454.1" cy="528.9" r="1.37" fill="#7c7c7c" stroke-width="0"/><circle cx="1462.72" cy="894.99" r="2.34" fill="#7c7c7c" stroke-width="0"/><path d="M416.35,337.27c-1.29,0-2.34,1.05-2.34,2.34s1.05,2.34,2.34,2.34,2.34-1.05,2.34-2.34-1.05-2.34-2.34-2.34Z" fill="#7c7c7c" stroke-width="0"/><path d="M387.87,432.25c-.95,0-1.72.77-1.72,1.72s.77,1.72,1.72,1.72,1.72-.77,1.72-1.72-.77-1.72-1.72-1.72Z" fill="#7c7c7c" stroke-width="0"/><path d="M289.38,392.68c-.95,0-1.72.77-1.72,1.72s.77,1.72,1.72,1.72,1.72-.77,1.72-1.72-.77-1.72-1.72-1.72Z" fill="#7c7c7c" stroke-width="0"/><circle cx="128.35" cy="502.75" r="2.44" fill="#7c7c7c" stroke-width="0"/><path d="M910.43,369.21c-.7,0-1.27.57-1.27,1.27s.57,1.27,1.27,1.27,1.27-.57,1.27-1.27-.57-1.27-1.27-1.27Z" fill="#7c7c7c" stroke-width="0"/><path d="M821.46,590.5c-.7,0-1.27.57-1.27,1.27s.57,1.27,1.27,1.27,1.27-.57,1.27-1.27-.57-1.27-1.27-1.27Z" fill="#7c7c7c" stroke-width="0"/><path d="M906.89,459.2c-.7,0-1.27.57-1.27,1.27s.57,1.27,1.27,1.27,1.27-.57,1.27-1.27-.57-1.27-1.27-1.27Z" fill="#7c7c7c" stroke-width="0"/><circle cx="928.62" cy="107.51" r="2.35" fill="#7c7c7c" stroke-width="0"/><path d="M1581.48,715.03c-1.21,0-2.19.98-2.19,2.19s.98,2.19,2.19,2.19,2.19-.98,2.19-2.19-.98-2.19-2.19-2.19Z" fill="#7c7c7c" stroke-width="0"/><circle cx="966.56" cy="541.19" r="1.39" fill="#7c7c7c" stroke-width="0"/><path d="M1149.38,139.33c-.2-.09-.43-.14-.67-.14-.91,0-1.64.74-1.64,1.64s.74,1.64,1.64,1.64c.31,0,.6-.09.84-.23-.35-.43-.57-.98-.57-1.58,0-.49.14-.95.39-1.33Z" fill="#7c7c7c" stroke-width="0"/><path d="M321.38,257.68c0-1.07-.87-1.94-1.94-1.94s-1.94.87-1.94,1.94.87,1.94,1.94,1.94,1.94-.87,1.94-1.94Z" fill="#7c7c7c" stroke-width="0"/><path d="M2125.96,308.09c-1.1,0-2,.9-2,2s.9,2,2,2,2-.9,2-2-.9-2-2-2Z" fill="#7c7c7c" stroke-width="0"/><path d="M923.28,304.73c-1.46,0-2.64,1.18-2.64,2.64s1.18,2.64,2.64,2.64,2.64-1.18,2.64-2.64-1.18-2.64-2.64-2.64Z" fill="#7c7c7c" stroke-width="0"/><path d="M1814.62,80.91c-1.42,0-2.58,1.15-2.58,2.58s1.15,2.58,2.58,2.58,2.58-1.15,2.58-2.58-1.15-2.58-2.58-2.58Z" fill="#7c7c7c" stroke-width="0"/><path d="M1883.92,944.35c-.73,0-1.32.59-1.32,1.32s.59,1.32,1.32,1.32,1.32-.59,1.32-1.32-.59-1.32-1.32-1.32Z" fill="#7c7c7c" stroke-width="0"/><path d="M1723.16,970.07c-.79,0-1.44.64-1.44,1.44s.64,1.44,1.44,1.44,1.44-.64,1.44-1.44-.64-1.44-1.44-1.44Z" fill="#7c7c7c" stroke-width="0"/><path d="M385.71,892.76c-1.19,0-2.16.97-2.16,2.16s.97,2.16,2.16,2.16,2.16-.97,2.16-2.16-.97-2.16-2.16-2.16Z" fill="#7c7c7c" stroke-width="0"/><path d="M1052.72,330.74c-1.19,0-2.16.97-2.16,2.16s.97,2.16,2.16,2.16,2.16-.97,2.16-2.16-.97-2.16-2.16-2.16Z" fill="#7c7c7c" stroke-width="0"/><path d="M1179.68,388.81c-1.54,0-2.79,1.25-2.79,2.79s1.25,2.79,2.79,2.79,2.79-1.25,2.79-2.79-1.25-2.79-2.79-2.79Z" fill="#7c7c7c" stroke-width="0"/><path d="M2068.77,562.02c-1.12,0-2.03.91-2.03,2.03s.91,2.03,2.03,2.03,2.03-.91,2.03-2.03-.91-2.03-2.03-2.03Z" fill="#7c7c7c" stroke-width="0"/><path d="M677.81,751.47c-1.3,0-2.36,1.06-2.36,2.36s1.06,2.36,2.36,2.36,2.36-1.06,2.36-2.36-1.06-2.36-2.36-2.36Z" fill="#7c7c7c" stroke-width="0"/><path d="M1944.33,809.24c-1.21,0-2.19.98-2.19,2.19s.98,2.19,2.19,2.19,2.19-.98,2.19-2.19-.98-2.19-2.19-2.19Z" fill="#7c7c7c" stroke-width="0"/><path d="M1747.38,387.74c-1.07,0-1.93.86-1.93,1.93s.86,1.93,1.93,1.93,1.93-.86,1.93-1.93-.86-1.93-1.93-1.93Z" fill="#7c7c7c" stroke-width="0"/><path d="M1686.22,279.77c0-1.17-.95-2.13-2.13-2.13s-2.13.95-2.13,2.13.95,2.13,2.13,2.13,2.13-.95,2.13-2.13Z" fill="#7c7c7c" stroke-width="0"/><path d="M1210.15,989.09c-.72,0-1.3.58-1.3,1.3s.58,1.3,1.3,1.3,1.3-.58,1.3-1.3-.58-1.3-1.3-1.3Z" fill="#7c7c7c" stroke-width="0"/><circle cx="1106.5" cy="858.45" r="2.15" fill="#7c7c7c" stroke-width="0"/><path d="M1030.91,789.7c-.81,0-1.47.66-1.47,1.47s.66,1.47,1.47,1.47,1.47-.66,1.47-1.47-.66-1.47-1.47-1.47Z" fill="#7c7c7c" stroke-width="0"/><path d="M944.04,731.96c-.75,0-1.35.6-1.35,1.35s.6,1.35,1.35,1.35,1.35-.6,1.35-1.35-.6-1.35-1.35-1.35Z" fill="#7c7c7c" stroke-width="0"/><path d="M842.47,991.61c-.75,0-1.35.6-1.35,1.35s.6,1.35,1.35,1.35,1.35-.6,1.35-1.35-.6-1.35-1.35-1.35Z" fill="#7c7c7c" stroke-width="0"/><path d="M529.94,435.74c-1.38,0-2.51,1.12-2.51,2.51s1.12,2.51,2.51,2.51,2.51-1.12,2.51-2.51-1.12-2.51-2.51-2.51Z" fill="#7c7c7c" stroke-width="0"/><path d="M1776.83,798.63c-1.43,0-2.6,1.16-2.6,2.6s1.16,2.6,2.6,2.6,2.6-1.16,2.6-2.6-1.16-2.6-2.6-2.6Z" fill="#7c7c7c" stroke-width="0"/><path d="M1484.97,605.34c0-1.17-.95-2.13-2.13-2.13s-2.13.95-2.13,2.13.95,2.13,2.13,2.13,2.13-.95,2.13-2.13Z" fill="#7c7c7c" stroke-width="0"/><path d="M1966.36,690.14c0-1.37-1.11-2.48-2.48-2.48s-2.48,1.11-2.48,2.48,1.11,2.48,2.48,2.48,2.48-1.11,2.48-2.48Z" fill="#7c7c7c" stroke-width="0"/><path d="M1749.31,525.72c-1.01,0-1.82.82-1.82,1.82s.82,1.82,1.82,1.82,1.82-.82,1.82-1.82-.82-1.82-1.82-1.82Z" fill="#7c7c7c" stroke-width="0"/><path d="M1178.26,564.78c-.79,0-1.42.64-1.42,1.42s.64,1.42,1.42,1.42,1.42-.64,1.42-1.42-.64-1.42-1.42-1.42Z" fill="#7c7c7c" stroke-width="0"/><path d="M1014.7,661.48c-1.07,0-1.93.86-1.93,1.93s.86,1.93,1.93,1.93,1.93-.86,1.93-1.93-.86-1.93-1.93-1.93Z" fill="#7c7c7c" stroke-width="0"/><path d="M1662.05,580.02c-1.49,0-2.7,1.21-2.7,2.7s1.21,2.7,2.7,2.7,2.7-1.21,2.7-2.7-1.21-2.7-2.7-2.7Z" fill="#7c7c7c" stroke-width="0"/><path d="M1075.34,581.82c-.78,0-1.41.63-1.41,1.41s.63,1.41,1.41,1.41,1.41-.63,1.41-1.41-.63-1.41-1.41-1.41Z" fill="#7c7c7c" stroke-width="0"/><path d="M902.24,631.11c-.78,0-1.41.63-1.41,1.41s.63,1.41,1.41,1.41,1.41-.63,1.41-1.41-.63-1.41-1.41-1.41Z" fill="#7c7c7c" stroke-width="0"/><path d="M488.15,803.66c-1.4,0-2.54,1.14-2.54,2.54s1.14,2.54,2.54,2.54,2.54-1.14,2.54-2.54-1.14-2.54-2.54-2.54Z" fill="#7c7c7c" stroke-width="0"/><path d="M857.09,801.22c-.88,0-1.66.46-2.1,1.15-.25.39-.39.84-.39,1.33,0,.6.21,1.15.57,1.58.46.56,1.15.91,1.92.91,1.37,0,2.49-1.11,2.49-2.49s-1.11-2.49-2.49-2.49Z" fill="#7c7c7c" stroke-width="0"/><path d="M1882.6,580.24c-1.37,0-2.49,1.11-2.49,2.49s1.11,2.49,2.49,2.49,2.49-1.11,2.49-2.49-1.11-2.49-2.49-2.49Z" fill="#7c7c7c" stroke-width="0"/><path d="M1633.86,753.83c-1.26,0-2.29,1.02-2.29,2.29s1.02,2.29,2.29,2.29,2.29-1.03,2.29-2.29-1.02-2.29-2.29-2.29Z" fill="#7c7c7c" stroke-width="0"/><path d="M1018.22,213.9c-.88,0-1.59.71-1.59,1.59s.71,1.59,1.59,1.59,1.59-.71,1.59-1.59-.71-1.59-1.59-1.59Z" fill="#7c7c7c" stroke-width="0"/><path d="M1396.26,733.31c-1.18,0-2.14.96-2.14,2.14s.96,2.14,2.14,2.14,2.14-.96,2.14-2.14-.96-2.14-2.14-2.14Z" fill="#7c7c7c" stroke-width="0"/><circle cx="1351.16" cy="107.51" r="2.72" fill="#7c7c7c" stroke-width="0"/><circle cx="1837.46" cy="190.24" r="2.56" fill="#7c7c7c" stroke-width="0"/><circle cx="1966.64" cy="274.56" r="2.77" fill="#7c7c7c" stroke-width="0"/><circle cx="2099.71" cy="811.44" r="1.74" fill="#7c7c7c" stroke-width="0"/><circle cx="426.13" cy="693.36" r="2.04" fill="#7c7c7c" stroke-width="0"/><path d="M1551.71,817.3c0,1.86,1.51,3.37,3.37,3.37.71,0,1.37-.22,1.91-.59v-5.56c-.54-.37-1.2-.59-1.91-.59-1.86,0-3.37,1.51-3.37,3.37Z" fill="#7c7c7c" stroke-width="0"/><path d="M1372.46,501.91c-.87,0-1.58.71-1.58,1.58s.71,1.58,1.58,1.58,1.58-.71,1.58-1.58-.71-1.58-1.58-1.58Z" fill="#7c7c7c" stroke-width="0"/><circle cx="1679.57" cy="573.17" r="2.91" fill="#7c7c7c" stroke-width="0"/><path d="M1332.64,577.05c.8,0,1.44-.65,1.44-1.44s-.65-1.44-1.44-1.44-1.44.65-1.44,1.44.65,1.44,1.44,1.44Z" fill="#7c7c7c" stroke-width="0"/><path d="M393.53,187.06c0,1.48,1.2,2.68,2.68,2.68s2.68-1.2,2.68-2.68-1.2-2.68-2.68-2.68-2.68,1.2-2.68,2.68Z" fill="#7c7c7c" stroke-width="0"/><path d="M1497.84,87.97c1.42,0,2.57-1.15,2.57-2.57s-1.15-2.57-2.57-2.57-2.57,1.15-2.57,2.57,1.15,2.57,2.57,2.57Z" fill="#7c7c7c" stroke-width="0"/><circle cx="1807.52" cy="225.18" r="2.76" fill="#7c7c7c" stroke-width="0"/><path d="M1304.87,472.9c1.11,0,2.01-.9,2.01-2.01s-.9-2.01-2.01-2.01-2.01.9-2.01,2.01.9,2.01,2.01,2.01Z" fill="#7c7c7c" stroke-width="0"/><circle cx="636.14" cy="541.48" r="2.48" fill="#7c7c7c" stroke-width="0"/><path d="M661,705.21c0-1.47-1.19-2.66-2.66-2.66s-2.66,1.19-2.66,2.66,1.19,2.66,2.66,2.66,2.66-1.19,2.66-2.66Z" fill="#7c7c7c" stroke-width="0"/><path d="M278.47,392.45c.97,0,1.75-.78,1.75-1.75s-.78-1.75-1.75-1.75-1.75.78-1.75,1.75.78,1.75,1.75,1.75Z" fill="#7c7c7c" stroke-width="0"/><ellipse cx="1219.79" cy="693.36" rx="2.48" ry="1.62" fill="#7c7c7c" stroke-width="0"/><circle cx="1334.82" cy="660.24" r="2.19" fill="#7c7c7c" stroke-width="0"/><circle cx="603.44" cy="680.92" r="2.19" fill="#7c7c7c" stroke-width="0"/><path d="M736.71,249.31c.84,0,1.53-.68,1.53-1.53s-.68-1.53-1.53-1.53-1.53.68-1.53,1.53.68,1.53,1.53,1.53Z" fill="#7c7c7c" stroke-width="0"/><path d="M1262.21,544.49c.71,0,1.28-.57,1.28-1.28s-.57-1.28-1.28-1.28-1.28.57-1.28,1.28.57,1.28,1.28,1.28Z" fill="#7c7c7c" stroke-width="0"/><path d="M1183.96,183.37c1.15,0,2.09-.94,2.09-2.09s-.94-2.09-2.09-2.09-2.09.94-2.09,2.09.94,2.09,2.09,2.09Z" fill="#7c7c7c" stroke-width="0"/><path d="M1458.08,388.22c.93,0,1.68-.75,1.68-1.68s-.75-1.68-1.68-1.68-1.68.75-1.68,1.68.75,1.68,1.68,1.68Z" fill="#7c7c7c" stroke-width="0"/><path d="M695.35,445.33c-1.06,0-1.92.86-1.92,1.92s.86,1.92,1.92,1.92,1.92-.86,1.92-1.92-.86-1.92-1.92-1.92Z" fill="#7c7c7c" stroke-width="0"/><circle cx="1424.72" cy="885.57" r="2.72" fill="#7c7c7c" stroke-width="0"/><circle cx="1439.34" cy="547.33" r="1.79" fill="#7c7c7c" stroke-width="0"/><path d="M426.13,607.89c1.25,0,2.26-1.01,2.26-2.26s-1.01-2.26-2.26-2.26-2.26,1.01-2.26,2.26,1.01,2.26,2.26,2.26Z" fill="#7c7c7c" stroke-width="0"/><path d="M754.34,773.72c1.51,0,2.73-1.22,2.73-2.73s-1.22-2.73-2.73-2.73-2.73,1.22-2.73,2.73,1.22,2.73,2.73,2.73Z" fill="#7c7c7c" stroke-width="0"/><path d="M926.24,790.31c1.44,0,2.61-1.17,2.61-2.61s-1.17-2.61-2.61-2.61-2.61,1.17-2.61,2.61,1.17,2.61,2.61,2.61Z" fill="#7c7c7c" stroke-width="0"/><circle cx="1736.68" cy="289.42" r="2.14" fill="#7c7c7c" stroke-width="0"/><circle cx="800.3" cy="340.76" r="2.16" fill="#7c7c7c" stroke-width="0"/><path d="M18.24,578.05c0,1.47,1.2,2.67,2.67,2.67s2.67-1.2,2.67-2.67-1.2-2.67-2.67-2.67-2.67,1.2-2.67,2.67Z" fill="#7c7c7c" stroke-width="0"/><circle cx="1213.54" cy="709.15" r="1.78" fill="#7c7c7c" stroke-width="0"/><path d="M1282.77,908.31c.78,0,1.41-.63,1.41-1.41s-.63-1.41-1.41-1.41-1.41.63-1.41,1.41.63,1.41,1.41,1.41Z" fill="#7c7c7c" stroke-width="0"/><path d="M1447.26,531.55c0,.8.34,1.52.89,2.02v-4.05c-.54.5-.89,1.22-.89,2.02Z" fill="#7c7c7c" stroke-width="0"/><path d="M1497.09,510.73c0-1.01-.82-1.82-1.82-1.82s-1.82.82-1.82,1.82.82,1.82,1.82,1.82,1.82-.82,1.82-1.82Z" fill="#7c7c7c" stroke-width="0"/><path d="M906.75,360.87c1.06,0,1.91-.86,1.91-1.91s-.86-1.91-1.91-1.91-1.91.86-1.91,1.91.86,1.91,1.91,1.91Z" fill="#7c7c7c" stroke-width="0"/><circle cx="1706.41" cy="82.83" r="1.92" fill="#7c7c7c" stroke-width="0"/><path d="M1399.5,973.35c.69,0,1.25-.56,1.25-1.25s-.56-1.25-1.25-1.25-1.25.56-1.25,1.25.56,1.25,1.25,1.25Z" fill="#7c7c7c" stroke-width="0"/><path d="M1028.73,131.36c0,1.23,1,2.23,2.23,2.23s2.23-1,2.23-2.23-1-2.23-2.23-2.23-2.23,1-2.23,2.23Z" fill="#7c7c7c" stroke-width="0"/><path d="M1278.31,287.19c0,1.23,1,2.23,2.23,2.23s2.23-1,2.23-2.23-1-2.23-2.23-2.23-2.23,1-2.23,2.23Z" fill="#7c7c7c" stroke-width="0"/><path d="M1779.13,778.55c1.24,0,2.25-1.01,2.25-2.25s-1.01-2.25-2.25-2.25-2.25,1.01-2.25,2.25,1.01,2.25,2.25,2.25Z" fill="#7c7c7c" stroke-width="0"/><path d="M1870.67,381.76c1.03,0,1.87-.84,1.87-1.87s-.84-1.87-1.87-1.87-1.87.84-1.87,1.87.84,1.87,1.87,1.87Z" fill="#7c7c7c" stroke-width="0"/><circle cx="1413.31" cy="813.93" r="1.3" fill="#7c7c7c" stroke-width="0"/><path d="M1172.29,493.9c.85,0,1.54-.69,1.54-1.54s-.69-1.54-1.54-1.54-1.54.69-1.54,1.54.69,1.54,1.54,1.54Z" fill="#7c7c7c" stroke-width="0"/><path d="M1447.26,745.45c1.29,0,2.33-1.04,2.33-2.33s-1.04-2.33-2.33-2.33-2.33,1.04-2.33,2.33,1.04,2.33,2.33,2.33Z" fill="#7c7c7c" stroke-width="0"/><circle cx="923.63" cy="637.6" r="2.35" fill="#7c7c7c" stroke-width="0"/><path d="M1082.44,503.11c-.72,0-1.3.58-1.3,1.3s.58,1.3,1.3,1.3,1.3-.58,1.3-1.3-.58-1.3-1.3-1.3Z" fill="#7c7c7c" stroke-width="0"/><circle cx="100.97" cy="624.65" r="2.61" fill="#7c7c7c" stroke-width="0"/><circle cx="896.41" cy="545.87" r="1.47" fill="#7c7c7c" stroke-width="0"/><path d="M629.37,764.97c-.72,0-1.3.58-1.3,1.3s.58,1.3,1.3,1.3,1.3-.58,1.3-1.3-.58-1.3-1.3-1.3Z" fill="#7c7c7c" stroke-width="0"/><path d="M767.51,620.71c.78,0,1.4-.63,1.4-1.4s-.63-1.4-1.4-1.4c-.41,0-.78.18-1.03.46v1.89c.26.28.62.46,1.03.46Z" fill="#7c7c7c" stroke-width="0"/><path d="M840.89,463.68c.86,0,1.56-.7,1.56-1.56s-.7-1.56-1.56-1.56-1.56.7-1.56,1.56.7,1.56,1.56,1.56Z" fill="#7c7c7c" stroke-width="0"/><path d="M488.55,787.59c1.38,0,2.5-1.12,2.5-2.5s-1.12-2.5-2.5-2.5-2.5,1.12-2.5,2.5,1.12,2.5,2.5,2.5Z" fill="#7c7c7c" stroke-width="0"/><path d="M1213.54,384.85c1.37,0,2.48-1.11,2.48-2.48s-1.11-2.48-2.48-2.48-2.48,1.11-2.48,2.48,1.11,2.48,2.48,2.48Z" fill="#7c7c7c" stroke-width="0"/><path d="M1300.2,803.79c1.44,0,2.6-1.16,2.6-2.6s-1.16-2.6-2.6-2.6-2.6,1.16-2.6,2.6,1.16,2.6,2.6,2.6Z" fill="#7c7c7c" stroke-width="0"/><path d="M798.14,139.07c.87,0,1.57-.7,1.57-1.57s-.7-1.57-1.57-1.57-1.57.7-1.57,1.57.7,1.57,1.57,1.57Z" fill="#7c7c7c" stroke-width="0"/><path d="M796.57,884.43c.88,0,1.59-.71,1.59-1.59s-.71-1.59-1.59-1.59-1.59.71-1.59,1.59.71,1.59,1.59,1.59Z" fill="#7c7c7c" stroke-width="0"/><path d="M1302.54,683.56c.73,0,1.32-.59,1.32-1.32s-.59-1.32-1.32-1.32-1.32.59-1.32,1.32.59,1.32,1.32,1.32Z" fill="#7c7c7c" stroke-width="0"/><path d="M1334.82,187.06c1,0,1.81-.81,1.81-1.81s-.81-1.81-1.81-1.81-1.81.81-1.81,1.81.81,1.81,1.81,1.81Z" fill="#7c7c7c" stroke-width="0"/><circle cx="1831.64" cy="909.57" r="2.67" fill="#7c7c7c" stroke-width="0"/><circle cx="1897.4" cy="740.79" r="2.04" fill="#7c7c7c" stroke-width="0"/><path d="M1571.85,418.62c1.01,0,1.83-.82,1.83-1.83s-.82-1.83-1.83-1.83-1.83.82-1.83,1.83.82,1.83,1.83,1.83Z" fill="#7c7c7c" stroke-width="0"/><path d="M1925.9,231.43c1.08,0,1.96-.88,1.96-1.96s-.88-1.96-1.96-1.96-1.96.88-1.96,1.96.88,1.96,1.96,1.96Z" fill="#7c7c7c" stroke-width="0"/><circle cx="1440.82" cy="475.61" r="1.43" fill="#7c7c7c" stroke-width="0"/><path d="M1219.96,836.79c0,1.28,1.03,2.31,2.31,2.31s2.31-1.03,2.31-2.31-1.03-2.31-2.31-2.31-2.31,1.03-2.31,2.31Z" fill="#7c7c7c" stroke-width="0"/><path d="M542.81,266.92c-1.49,0-2.7,1.21-2.7,2.7s1.21,2.7,2.7,2.7,2.7-1.21,2.7-2.7-1.21-2.7-2.7-2.7Z" fill="#7c7c7c" stroke-width="0"/><path d="M428.4,940.21c.74,0,1.34-.6,1.34-1.34s-.6-1.34-1.34-1.34-1.34.6-1.34,1.34.6,1.34,1.34,1.34Z" fill="#7c7c7c" stroke-width="0"/><path d="M1015.88,663.04c1.55,0,2.8-1.25,2.8-2.8s-1.25-2.8-2.8-2.8-2.8,1.25-2.8,2.8,1.25,2.8,2.8,2.8Z" fill="#7c7c7c" stroke-width="0"/><path d="M1681.9,420.95c1.29,0,2.34-1.05,2.34-2.34s-1.05-2.34-2.34-2.34-2.34,1.05-2.34,2.34,1.05,2.34,2.34,2.34Z" fill="#7c7c7c" stroke-width="0"/><path d="M672.16,135.75c0,.96.78,1.75,1.75,1.75s1.75-.78,1.75-1.75-.78-1.75-1.75-1.75-1.75.78-1.75,1.75Z" fill="#7c7c7c" stroke-width="0"/><path d="M884.1,776.3c1.43,0,2.58-1.16,2.58-2.58s-1.16-2.58-2.58-2.58-2.58,1.16-2.58,2.58,1.16,2.58,2.58,2.58Z" fill="#7c7c7c" stroke-width="0"/><path d="M1596.12,938.12c1.24,0,2.24-1,2.24-2.24s-1-2.24-2.24-2.24-2.24,1-2.24,2.24,1,2.24,2.24,2.24Z" fill="#7c7c7c" stroke-width="0"/><path d="M1119.12,644.39c.98,0,1.77-.79,1.77-1.77s-.79-1.77-1.77-1.77-1.77.79-1.77,1.77.79,1.77,1.77,1.77Z" fill="#7c7c7c" stroke-width="0"/><circle cx="605.75" cy="860.55" r="2.32" fill="#7c7c7c" stroke-width="0"/><path d="M562.38,624.65c1.48,0,2.68-1.2,2.68-2.68s-1.2-2.68-2.68-2.68-2.68,1.2-2.68,2.68,1.2,2.68,2.68,2.68Z" fill="#7c7c7c" stroke-width="0"/><path d="M1459.76,225.18c1.46,0,2.63-1.18,2.63-2.63s-1.18-2.64-2.63-2.64-2.63,1.18-2.63,2.64,1.18,2.63,2.63,2.63Z" fill="#7c7c7c" stroke-width="0"/><path d="M1740.12,505.33c1.02,0,1.84-.83,1.84-1.84s-.83-1.84-1.84-1.84-1.84.83-1.84,1.84.83,1.84,1.84,1.84Z" fill="#7c7c7c" stroke-width="0"/><path d="M1573.68,550.82c.75,0,1.37-.61,1.37-1.37s-.61-1.37-1.37-1.37-1.37.61-1.37,1.37.61,1.37,1.37,1.37Z" fill="#7c7c7c" stroke-width="0"/><circle cx="565.06" cy="183.37" r="2.34" fill="#7c7c7c" stroke-width="0"/><circle cx="1611.44" cy="738.75" r="2.34" fill="#7c7c7c" stroke-width="0"/><path d="M1639.91,646.1c.95,0,1.72-.77,1.72-1.72s-.77-1.72-1.72-1.72-1.72.77-1.72,1.72.77,1.72,1.72,1.72Z" fill="#7c7c7c" stroke-width="0"/><path d="M1738.4,685.68c.95,0,1.72-.77,1.72-1.72s-.77-1.72-1.72-1.72-1.72.77-1.72,1.72.77,1.72,1.72,1.72Z" fill="#7c7c7c" stroke-width="0"/><circle cx="1899.44" cy="575.61" r="2.44" fill="#7c7c7c" stroke-width="0"/><circle cx="1117.35" cy="707.88" r="1.27" fill="#7c7c7c" stroke-width="0"/><circle cx="1206.32" cy="486.58" r="1.27" transform="translate(-62.5 200.09) rotate(-9.24)" fill="#7c7c7c" stroke-width="0"/><path d="M1120.89,619.16c.7,0,1.27-.57,1.27-1.27s-.57-1.27-1.27-1.27-1.27.57-1.27,1.27.57,1.27,1.27,1.27Z" fill="#7c7c7c" stroke-width="0"/><path d="M1099.16,973.2c1.3,0,2.35-1.05,2.35-2.35s-1.05-2.35-2.35-2.35-2.35,1.05-2.35,2.35,1.05,2.35,2.35,2.35Z" fill="#7c7c7c" stroke-width="0"/><path d="M446.3,363.33c1.21,0,2.19-.98,2.19-2.19s-.98-2.19-2.19-2.19-2.19.98-2.19,2.19.98,2.19,2.19,2.19Z" fill="#7c7c7c" stroke-width="0"/><path d="M1061.22,538.56c.77,0,1.39-.62,1.39-1.39s-.62-1.39-1.39-1.39-1.39.62-1.39,1.39.62,1.39,1.39,1.39Z" fill="#7c7c7c" stroke-width="0"/><path d="M878.4,939.02c.2.09.43.14.67.14.91,0,1.64-.74,1.64-1.64s-.74-1.64-1.64-1.64c-.31,0-.6.09-.84.23.35.43.57.98.57,1.58,0,.49-.14.95-.39,1.33Z" fill="#7c7c7c" stroke-width="0"/><path d="M1706.4,820.68c0,1.07.87,1.94,1.94,1.94s1.94-.87,1.94-1.94-.87-1.94-1.94-1.94-1.94.87-1.94,1.94Z" fill="#7c7c7c" stroke-width="0"/><circle cx="1104.5" cy="770.99" r="2.64" transform="translate(-210.13 477.56) rotate(-22.33)" fill="#7c7c7c" stroke-width="0"/><path d="M213.16,997.45c1.42,0,2.58-1.15,2.58-2.58s-1.15-2.58-2.58-2.58-2.58,1.15-2.58,2.58,1.15,2.58,2.58,2.58Z" fill="#7c7c7c" stroke-width="0"/><path d="M143.86,134.01c.73,0,1.32-.59,1.32-1.32s-.59-1.32-1.32-1.32-1.32.59-1.32,1.32.59,1.32,1.32,1.32Z" fill="#7c7c7c" stroke-width="0"/><path d="M304.62,108.28c.79,0,1.44-.64,1.44-1.44s-.64-1.44-1.44-1.44-1.44.64-1.44,1.44.64,1.44,1.44,1.44Z" fill="#7c7c7c" stroke-width="0"/><path d="M1642.07,185.6c1.19,0,2.16-.97,2.16-2.16s-.97-2.16-2.16-2.16-2.16.97-2.16,2.16.97,2.16,2.16,2.16Z" fill="#7c7c7c" stroke-width="0"/><path d="M975.06,747.61c1.19,0,2.16-.97,2.16-2.16s-.97-2.16-2.16-2.16-2.16.97-2.16,2.16.97,2.16,2.16,2.16Z" fill="#7c7c7c" stroke-width="0"/><path d="M848.1,689.55c1.54,0,2.79-1.25,2.79-2.79s-1.25-2.8-2.79-2.8-2.79,1.25-2.79,2.8,1.25,2.79,2.79,2.79Z" fill="#7c7c7c" stroke-width="0"/><circle cx="1349.97" cy="324.53" r="2.36" fill="#7c7c7c" stroke-width="0"/><path d="M83.45,269.11c1.21,0,2.19-.98,2.19-2.19s-.98-2.19-2.19-2.19-2.19.98-2.19,2.19.98,2.19,2.19,2.19Z" fill="#7c7c7c" stroke-width="0"/><path d="M280.4,690.62c1.07,0,1.93-.86,1.93-1.93s-.86-1.93-1.93-1.93-1.93.86-1.93,1.93.86,1.93,1.93,1.93Z" fill="#7c7c7c" stroke-width="0"/><path d="M341.56,798.59c0,1.17.95,2.13,2.13,2.13s2.13-.95,2.13-2.13-.95-2.13-2.13-2.13-2.13.95-2.13,2.13Z" fill="#7c7c7c" stroke-width="0"/><circle cx="817.63" cy="87.97" r="1.3" fill="#7c7c7c" stroke-width="0"/><path d="M921.28,222.06c1.19,0,2.15-.96,2.15-2.15s-.96-2.15-2.15-2.15-2.15.96-2.15,2.15.96,2.15,2.15,2.15Z" fill="#7c7c7c" stroke-width="0"/><path d="M996.87,288.66c.81,0,1.47-.66,1.47-1.47s-.66-1.47-1.47-1.47-1.47.66-1.47,1.47.66,1.47,1.47,1.47Z" fill="#7c7c7c" stroke-width="0"/><path d="M1083.74,346.4c.75,0,1.35-.6,1.35-1.35s-.6-1.35-1.35-1.35-1.35.6-1.35,1.35.6,1.35,1.35,1.35Z" fill="#7c7c7c" stroke-width="0"/><path d="M1185.31,86.75c.75,0,1.35-.6,1.35-1.35s-.6-1.35-1.35-1.35-1.35.6-1.35,1.35.6,1.35,1.35,1.35Z" fill="#7c7c7c" stroke-width="0"/><path d="M1497.84,642.62c1.38,0,2.51-1.12,2.51-2.51s-1.12-2.51-2.51-2.51-2.51,1.12-2.51,2.51,1.12,2.51,2.51,2.51Z" fill="#7c7c7c" stroke-width="0"/><path d="M250.95,279.73c1.43,0,2.6-1.16,2.6-2.6s-1.16-2.6-2.6-2.6-2.6,1.16-2.6,2.6,1.16,2.6,2.6,2.6Z" fill="#7c7c7c" stroke-width="0"/><path d="M542.81,473.01c0,1.17.95,2.13,2.13,2.13s2.13-.95,2.13-2.13-.95-2.13-2.13-2.13-2.13.95-2.13,2.13Z" fill="#7c7c7c" stroke-width="0"/><path d="M61.42,388.22c0,1.37,1.11,2.48,2.48,2.48s2.48-1.11,2.48-2.48-1.11-2.48-2.48-2.48-2.48,1.11-2.48,2.48Z" fill="#7c7c7c" stroke-width="0"/><path d="M278.47,552.64c1.01,0,1.82-.82,1.82-1.82s-.82-1.82-1.82-1.82-1.82.82-1.82,1.82.82,1.82,1.82,1.82Z" fill="#7c7c7c" stroke-width="0"/><path d="M849.52,513.58c.79,0,1.42-.64,1.42-1.42s-.64-1.42-1.42-1.42-1.42.64-1.42,1.42.64,1.42,1.42,1.42Z" fill="#7c7c7c" stroke-width="0"/><circle cx="1013.08" cy="414.95" r="1.93" fill="#7c7c7c" stroke-width="0"/><path d="M365.73,498.34c1.49,0,2.7-1.21,2.7-2.7s-1.21-2.7-2.7-2.7-2.7,1.21-2.7,2.7,1.21,2.7,2.7,2.7Z" fill="#7c7c7c" stroke-width="0"/><path d="M952.44,496.53c.78,0,1.41-.63,1.41-1.41s-.63-1.41-1.41-1.41-1.41.63-1.41,1.41.63,1.41,1.41,1.41Z" fill="#7c7c7c" stroke-width="0"/><path d="M1125.54,447.25c.78,0,1.41-.63,1.41-1.41s-.63-1.41-1.41-1.41-1.41.63-1.41,1.41.63,1.41,1.41,1.41Z" fill="#7c7c7c" stroke-width="0"/><path d="M1539.63,274.7c1.4,0,2.54-1.14,2.54-2.54s-1.14-2.54-2.54-2.54-2.54,1.14-2.54,2.54,1.14,2.54,2.54,2.54Z" fill="#7c7c7c" stroke-width="0"/><path d="M1170.69,277.14c.88,0,1.66-.46,2.1-1.15.25-.39.39-.84.39-1.33,0-.6-.21-1.15-.57-1.58-.46-.56-1.15-.91-1.92-.91-1.37,0-2.49,1.11-2.49,2.49s1.11,2.49,2.49,2.49Z" fill="#7c7c7c" stroke-width="0"/><path d="M145.19,498.12c1.37,0,2.49-1.11,2.49-2.49s-1.11-2.49-2.49-2.49-2.49,1.11-2.49,2.49,1.11,2.49,2.49,2.49Z" fill="#7c7c7c" stroke-width="0"/><circle cx="393.92" cy="322.24" r="2.29" fill="#7c7c7c" stroke-width="0"/><path d="M1009.56,864.46c.88,0,1.59-.71,1.59-1.59s-.71-1.59-1.59-1.59-1.59.71-1.59,1.59.71,1.59,1.59,1.59Z" fill="#7c7c7c" stroke-width="0"/><circle cx="631.52" cy="342.9" r="2.14" fill="#7c7c7c" stroke-width="0"/><circle cx="676.63" cy="970.85" r="2.72" fill="#7c7c7c" stroke-width="0"/><path d="M190.32,890.68c1.41,0,2.56-1.14,2.56-2.56s-1.14-2.56-2.56-2.56-2.56,1.14-2.56,2.56,1.14,2.56,2.56,2.56Z" fill="#7c7c7c" stroke-width="0"/><path d="M61.14,806.56c1.53,0,2.77-1.24,2.77-2.77s-1.24-2.77-2.77-2.77-2.77,1.24-2.77,2.77,1.24,2.77,2.77,2.77Z" fill="#7c7c7c" stroke-width="0"/><path d="M2012.24,976.73c1.13,0,2.04-.91,2.04-2.04s-.91-2.04-2.04-2.04-2.04.91-2.04,2.04.91,2.04,2.04,2.04Z" fill="#7c7c7c" stroke-width="0"/><path d="M1820.78,28.37c0,.87.71,1.58,1.58,1.58s1.58-.71,1.58-1.58-.71-1.58-1.58-1.58-1.58.71-1.58,1.58Z" fill="#7c7c7c" stroke-width="0"/><path d="M1895.93,68.19c0-.8-.65-1.44-1.44-1.44s-1.44.65-1.44,1.44.65,1.44,1.44,1.44,1.44-.65,1.44-1.44Z" fill="#7c7c7c" stroke-width="0"/><path d="M1505.94,1007.3c1.48,0,2.68-1.2,2.68-2.68s-1.2-2.68-2.68-2.68-2.68,1.2-2.68,2.68,1.2,2.68,2.68,2.68Z" fill="#7c7c7c" stroke-width="0"/><circle cx="1789.76" cy="95.95" r="2.01" fill="#7c7c7c" stroke-width="0"/><path d="M1862.84,764.68c0-1.37-1.11-2.48-2.48-2.48s-2.48,1.11-2.48,2.48,1.11,2.48,2.48,2.48,2.48-1.11,2.48-2.48Z" fill="#7c7c7c" stroke-width="0"/><path d="M2024.09,739.82c-1.47,0-2.66,1.19-2.66,2.66s1.19,2.66,2.66,2.66,2.66-1.19,2.66-2.66-1.19-2.66-2.66-2.66Z" fill="#7c7c7c" stroke-width="0"/><ellipse cx="2012.24" cy="181.04" rx="1.62" ry="2.48" fill="#7c7c7c" stroke-width="0"/><path d="M1981.31,66c0-1.21-.98-2.19-2.19-2.19s-2.19.98-2.19,2.19.98,2.19,2.19,2.19,2.19-.98,2.19-2.19Z" fill="#7c7c7c" stroke-width="0"/><path d="M2001.99,797.39c0-1.21-.98-2.19-2.19-2.19s-2.19.98-2.19,2.19.98,2.19,2.19,2.19,2.19-.98,2.19-2.19Z" fill="#7c7c7c" stroke-width="0"/><circle cx="1566.66" cy="664.12" r="1.53" fill="#7c7c7c" stroke-width="0"/><path d="M1863.37,138.62c0-.71-.57-1.28-1.28-1.28s-1.28.57-1.28,1.28.57,1.28,1.28,1.28,1.28-.57,1.28-1.28Z" fill="#7c7c7c" stroke-width="0"/><path d="M1502.25,216.86c0-1.15-.94-2.09-2.09-2.09s-2.09.94-2.09,2.09.94,2.09,2.09,2.09,2.09-.94,2.09-2.09Z" fill="#7c7c7c" stroke-width="0"/><circle cx="1766.12" cy="705.48" r="1.92" fill="#7c7c7c" stroke-width="0"/><circle cx="1924.5" cy="974.69" r="2.26" fill="#7c7c7c" stroke-width="0"/><path d="M2092.59,646.48c0-1.51-1.22-2.73-2.73-2.73s-2.73,1.22-2.73,2.73,1.22,2.73,2.73,2.73,2.73-1.22,2.73-2.73Z" fill="#7c7c7c" stroke-width="0"/><path d="M2109.19,474.58c0-1.44-1.17-2.61-2.61-2.61s-2.61,1.17-2.61,2.61,1.17,2.61,2.61,2.61,2.61-1.17,2.61-2.61Z" fill="#7c7c7c" stroke-width="0"/><circle cx="1659.64" cy="600.52" r="2.16" fill="#7c7c7c" stroke-width="0"/><circle cx="2028.02" cy="187.29" r="1.78" fill="#7c7c7c" stroke-width="0"/><path d="M2227.18,118.05c0-.78-.63-1.41-1.41-1.41s-1.41.63-1.41,1.41.63,1.41,1.41,1.41,1.41-.63,1.41-1.41Z" fill="#7c7c7c" stroke-width="0"/><path d="M1679.75,494.07c0-1.06-.86-1.91-1.91-1.91s-1.91.86-1.91,1.91.86,1.91,1.91,1.91,1.91-.86,1.91-1.91Z" fill="#7c7c7c" stroke-width="0"/><path d="M2292.23,1.32c0-.69-.56-1.25-1.25-1.25s-1.25.56-1.25,1.25.56,1.25,1.25,1.25,1.25-.56,1.25-1.25Z" fill="#7c7c7c" stroke-width="0"/><path d="M1450.23,372.09c1.23,0,2.23-1,2.23-2.23s-1-2.23-2.23-2.23-2.23,1-2.23,2.23,1,2.23,2.23,2.23Z" fill="#7c7c7c" stroke-width="0"/><path d="M1606.07,122.52c1.23,0,2.23-1,2.23-2.23s-1-2.23-2.23-2.23-2.23,1-2.23,2.23,1,2.23,2.23,2.23Z" fill="#7c7c7c" stroke-width="0"/><circle cx="1811.23" cy="228.53" r="1.54" fill="#7c7c7c" stroke-width="0"/><path d="M1958.83,477.2c0-1.3-1.05-2.35-2.35-2.35s-2.35,1.05-2.35,2.35,1.05,2.35,2.35,2.35,2.35-1.05,2.35-2.35Z" fill="#7c7c7c" stroke-width="0"/><path d="M1821.98,318.39c0,.72.58,1.3,1.3,1.3s1.3-.58,1.3-1.3-.58-1.3-1.3-1.3-1.3.58-1.3,1.3Z" fill="#7c7c7c" stroke-width="0"/><circle cx="1864.75" cy="504.42" r="1.47" fill="#7c7c7c" stroke-width="0"/><path d="M2083.84,771.45c0,.72.58,1.3,1.3,1.3s1.3-.58,1.3-1.3-.58-1.3-1.3-1.3-1.3.58-1.3,1.3Z" fill="#7c7c7c" stroke-width="0"/><path d="M1939.58,633.32c0-.78-.63-1.4-1.4-1.4s-1.4.63-1.4,1.4c0,.41.18.78.46,1.03h1.89c.28-.26.46-.62.46-1.03Z" fill="#7c7c7c" stroke-width="0"/><circle cx="1781" cy="559.93" r="1.56" fill="#7c7c7c" stroke-width="0"/><path d="M2106.46,912.27c0-1.38-1.12-2.5-2.5-2.5s-2.5,1.12-2.5,2.5,1.12,2.5,2.5,2.5,2.5-1.12,2.5-2.5Z" fill="#7c7c7c" stroke-width="0"/><path d="M1703.73,187.29c0-1.37-1.11-2.48-2.48-2.48s-2.48,1.11-2.48,2.48,1.11,2.48,2.48,2.48,2.48-1.11,2.48-2.48Z" fill="#7c7c7c" stroke-width="0"/><path d="M2122.67,100.62c0-1.44-1.16-2.6-2.6-2.6s-2.6,1.16-2.6,2.6,1.16,2.6,2.6,2.6,2.6-1.16,2.6-2.6Z" fill="#7c7c7c" stroke-width="0"/><path d="M1457.94,602.68c0-.87-.7-1.57-1.57-1.57s-1.57.7-1.57,1.57.7,1.57,1.57,1.57,1.57-.7,1.57-1.57Z" fill="#7c7c7c" stroke-width="0"/><path d="M2203.31,604.25c0-.88-.71-1.59-1.59-1.59s-1.59.71-1.59,1.59.71,1.59,1.59,1.59,1.59-.71,1.59-1.59Z" fill="#7c7c7c" stroke-width="0"/><path d="M2002.44,98.29c0-.73-.59-1.32-1.32-1.32s-1.32.59-1.32,1.32.59,1.32,1.32,1.32,1.32-.59,1.32-1.32Z" fill="#7c7c7c" stroke-width="0"/><path d="M1505.94,66c0-1-.81-1.81-1.81-1.81s-1.81.81-1.81,1.81.81,1.81,1.81,1.81,1.81-.81,1.81-1.81Z" fill="#7c7c7c" stroke-width="0"/><path d="M2155.67,180.87c1.28,0,2.31-1.03,2.31-2.31s-1.03-2.31-2.31-2.31-2.31,1.03-2.31,2.31,1.03,2.31,2.31,2.31Z" fill="#7c7c7c" stroke-width="0"/><path d="M1585.8,858.02c0,1.49,1.21,2.7,2.7,2.7s2.7-1.21,2.7-2.7-1.21-2.7-2.7-2.7-2.7,1.21-2.7,2.7Z" fill="#7c7c7c" stroke-width="0"/><circle cx="2257.74" cy="972.43" r="1.34" fill="#7c7c7c" stroke-width="0"/><path d="M1981.92,384.95c0-1.55-1.25-2.8-2.8-2.8s-2.8,1.25-2.8,2.8,1.25,2.8,2.8,2.8,2.8-1.25,2.8-2.8Z" fill="#7c7c7c" stroke-width="0"/><circle cx="1454.63" cy="726.92" r="1.75" fill="#7c7c7c" stroke-width="0"/><path d="M2095.17,516.73c0-1.43-1.16-2.58-2.58-2.58s-2.58,1.16-2.58,2.58,1.16,2.58,2.58,2.58,2.58-1.16,2.58-2.58Z" fill="#7c7c7c" stroke-width="0"/><path d="M1963.26,281.71c0-.98-.79-1.77-1.77-1.77s-1.77.79-1.77,1.77.79,1.77,1.77,1.77,1.77-.79,1.77-1.77Z" fill="#7c7c7c" stroke-width="0"/><circle cx="2179.42" cy="795.07" r="2.32" fill="#7c7c7c" stroke-width="0"/><path d="M1943.53,838.44c0-1.48-1.2-2.68-2.68-2.68s-2.68,1.2-2.68,2.68,1.2,2.68,2.68,2.68,2.68-1.2,2.68-2.68Z" fill="#7c7c7c" stroke-width="0"/><circle cx="1502.25" cy="835.77" r="2.34" fill="#7c7c7c" stroke-width="0"/><path d="M2028.02,283.48c0-.7-.57-1.27-1.27-1.27s-1.27.57-1.27,1.27.57,1.27,1.27,1.27,1.27-.57,1.27-1.27Z" fill="#7c7c7c" stroke-width="0"/><circle cx="1805.46" cy="194.51" r="1.27" fill="#7c7c7c" stroke-width="0"/><path d="M1938.04,279.93c0-.7-.57-1.27-1.27-1.27s-1.27.57-1.27,1.27.57,1.27,1.27,1.27,1.27-.57,1.27-1.27Z" fill="#7c7c7c" stroke-width="0"/><path d="M2292.07,301.67c0-1.3-1.05-2.35-2.35-2.35s-2.35,1.05-2.35,2.35,1.05,2.35,2.35,2.35,2.35-1.05,2.35-2.35Z" fill="#7c7c7c" stroke-width="0"/><path d="M1682.21,954.52c0-1.21-.98-2.19-2.19-2.19s-2.19.98-2.19,2.19.98,2.19,2.19,2.19,2.19-.98,2.19-2.19Z" fill="#7c7c7c" stroke-width="0"/><circle cx="1856.04" cy="339.61" r="1.39" fill="#7c7c7c" stroke-width="0"/><path d="M2257.9,522.43c.09-.2.14-.43.14-.67,0-.91-.74-1.64-1.64-1.64s-1.64.74-1.64,1.64c0,.31.09.6.23.84.43-.35.98-.57,1.58-.57.49,0,.95.14,1.33.39Z" fill="#7c7c7c" stroke-width="0"/><path d="M2092.51,296.33c0-1.46-1.18-2.64-2.64-2.64s-2.64,1.18-2.64,2.64,1.18,2.64,2.64,2.64,2.64-1.18,2.64-2.64Z" fill="#7c7c7c" stroke-width="0"/><path d="M2133.89,394.1c0-1.19-.97-2.16-2.16-2.16s-2.16.97-2.16,2.16.97,2.16,2.16,2.16,2.16-.97,2.16-2.16Z" fill="#7c7c7c" stroke-width="0"/><path d="M2008.43,552.73c0-1.54-1.25-2.8-2.8-2.8s-2.79,1.25-2.79,2.8,1.25,2.79,2.79,2.79,2.8-1.25,2.8-2.79Z" fill="#7c7c7c" stroke-width="0"/><path d="M1645.77,50.86c0-1.3-1.06-2.36-2.36-2.36s-2.36,1.06-2.36,2.36,1.06,2.36,2.36,2.36,2.36-1.06,2.36-2.36Z" fill="#7c7c7c" stroke-width="0"/><path d="M2117.47,1059.26c1.17,0,2.13-.95,2.13-2.13s-.95-2.13-2.13-2.13-2.13.95-2.13,2.13.95,2.13,2.13,2.13Z" fill="#7c7c7c" stroke-width="0"/><circle cx="1406.85" cy="583.19" r="1.3" fill="#7c7c7c" stroke-width="0"/><path d="M1540.93,479.55c0-1.19-.96-2.15-2.15-2.15s-2.15.96-2.15,2.15.96,2.15,2.15,2.15,2.15-.96,2.15-2.15Z" fill="#7c7c7c" stroke-width="0"/><path d="M1607.54,403.96c0-.81-.66-1.47-1.47-1.47s-1.47.66-1.47,1.47.66,1.47,1.47,1.47,1.47-.66,1.47-1.47Z" fill="#7c7c7c" stroke-width="0"/><circle cx="1663.92" cy="317.08" r="1.35" fill="#7c7c7c" stroke-width="0"/><path d="M1405.62,215.51c0-.75-.6-1.35-1.35-1.35s-1.35.6-1.35,1.35.6,1.35,1.35,1.35,1.35-.6,1.35-1.35Z" fill="#7c7c7c" stroke-width="0"/><path d="M1791.89,858.02c1.17,0,2.13-.95,2.13-2.13s-.95-2.13-2.13-2.13-2.13.95-2.13,2.13.95,2.13,2.13,2.13Z" fill="#7c7c7c" stroke-width="0"/><path d="M1832.45,551.31c0-.79-.64-1.42-1.42-1.42s-1.42.64-1.42,1.42.64,1.42,1.42,1.42,1.42-.64,1.42-1.42Z" fill="#7c7c7c" stroke-width="0"/><circle cx="1733.83" cy="387.75" r="1.93" fill="#7c7c7c" stroke-width="0"/><path d="M1817.22,1035.1c0-1.49-1.21-2.7-2.7-2.7s-2.7,1.21-2.7,2.7,1.21,2.7,2.7,2.7,2.7-1.21,2.7-2.7Z" fill="#7c7c7c" stroke-width="0"/><path d="M1815.41,448.38c0-.78-.63-1.41-1.41-1.41s-1.41.63-1.41,1.41.63,1.41,1.41,1.41,1.41-.63,1.41-1.41Z" fill="#7c7c7c" stroke-width="0"/><path d="M1766.12,275.28c0-.78-.63-1.41-1.41-1.41s-1.41.63-1.41,1.41.63,1.41,1.41,1.41,1.41-.63,1.41-1.41Z" fill="#7c7c7c" stroke-width="0"/><path d="M1596.01,230.14c0-.88-.46-1.66-1.15-2.1-.39-.25-.84-.39-1.33-.39-.6,0-1.15.21-1.58.57-.56.46-.91,1.15-.91,1.92,0,1.37,1.11,2.49,2.49,2.49s2.49-1.11,2.49-2.49Z" fill="#7c7c7c" stroke-width="0"/><circle cx="1641.12" cy="1006.91" r="2.29" fill="#7c7c7c" stroke-width="0"/><path d="M2183.34,391.27c0-.88-.71-1.59-1.59-1.59s-1.59.71-1.59,1.59.71,1.59,1.59,1.59,1.59-.71,1.59-1.59Z" fill="#7c7c7c" stroke-width="0"/><circle cx="1661.78" cy="769.31" r="2.14" fill="#7c7c7c" stroke-width="0"/><circle cx="2289.72" cy="724.2" r="2.72" fill="#7c7c7c" stroke-width="0"/><circle cx="1122.14" cy="974.69" r="2.04" fill="#7c7c7c" stroke-width="0"/><circle cx="932.26" cy="28.37" r="1.58" fill="#7c7c7c" stroke-width="0"/><path d="M1005.83,68.19c0-.8-.65-1.44-1.44-1.44s-1.44.65-1.44,1.44.65,1.44,1.44,1.44,1.44-.65,1.44-1.44Z" fill="#7c7c7c" stroke-width="0"/><path d="M615.84,1007.3c1.48,0,2.68-1.2,2.68-2.68s-1.2-2.68-2.68-2.68-2.68,1.2-2.68,2.68,1.2,2.68,2.68,2.68Z" fill="#7c7c7c" stroke-width="0"/><path d="M901.68,95.95c0-1.11-.9-2.01-2.01-2.01s-2.01.9-2.01,2.01.9,2.01,2.01,2.01,2.01-.9,2.01-2.01Z" fill="#7c7c7c" stroke-width="0"/><circle cx="970.25" cy="764.68" r="2.48" fill="#7c7c7c" stroke-width="0"/><path d="M1133.99,739.82c-1.47,0-2.66,1.19-2.66,2.66s1.19,2.66,2.66,2.66,2.66-1.19,2.66-2.66-1.19-2.66-2.66-2.66Z" fill="#7c7c7c" stroke-width="0"/><ellipse cx="1122.14" cy="181.04" rx="1.62" ry="2.48" fill="#7c7c7c" stroke-width="0"/><circle cx="1089.02" cy="66" r="2.19" fill="#7c7c7c" stroke-width="0"/><circle cx="1109.7" cy="797.39" r="2.19" fill="#7c7c7c" stroke-width="0"/><path d="M678.09,664.12c0-.84-.68-1.53-1.53-1.53s-1.53.68-1.53,1.53.68,1.53,1.53,1.53,1.53-.68,1.53-1.53Z" fill="#7c7c7c" stroke-width="0"/><path d="M973.27,138.62c0-.71-.57-1.28-1.28-1.28s-1.28.57-1.28,1.28.57,1.28,1.28,1.28,1.28-.57,1.28-1.28Z" fill="#7c7c7c" stroke-width="0"/><path d="M612.15,216.86c0-1.15-.94-2.09-2.09-2.09s-2.09.94-2.09,2.09.94,2.09,2.09,2.09,2.09-.94,2.09-2.09Z" fill="#7c7c7c" stroke-width="0"/><path d="M874.1,705.48c0,1.06.86,1.92,1.92,1.92s1.92-.86,1.92-1.92-.86-1.92-1.92-1.92-1.92.86-1.92,1.92Z" fill="#7c7c7c" stroke-width="0"/><circle cx="1034.41" cy="974.69" r="2.26" fill="#7c7c7c" stroke-width="0"/><path d="M1202.49,646.48c0-1.51-1.22-2.73-2.73-2.73s-2.73,1.22-2.73,2.73,1.22,2.73,2.73,2.73,2.73-1.22,2.73-2.73Z" fill="#7c7c7c" stroke-width="0"/><path d="M1219.09,474.58c0-1.44-1.17-2.61-2.61-2.61s-2.61,1.17-2.61,2.61,1.17,2.61,2.61,2.61,2.61-1.17,2.61-2.61Z" fill="#7c7c7c" stroke-width="0"/><circle cx="769.54" cy="600.52" r="2.16" fill="#7c7c7c" stroke-width="0"/><circle cx="1137.92" cy="187.29" r="1.78" fill="#7c7c7c" stroke-width="0"/><path d="M1337.09,118.05c0-.78-.63-1.41-1.41-1.41s-1.41.63-1.41,1.41.63,1.41,1.41,1.41,1.41-.63,1.41-1.41Z" fill="#7c7c7c" stroke-width="0"/><path d="M789.65,494.07c0-1.06-.86-1.91-1.91-1.91s-1.91.86-1.91,1.91.86,1.91,1.91,1.91,1.91-.86,1.91-1.91Z" fill="#7c7c7c" stroke-width="0"/><path d="M1402.13,1.32c0-.69-.56-1.25-1.25-1.25s-1.25.56-1.25,1.25.56,1.25,1.25,1.25,1.25-.56,1.25-1.25Z" fill="#7c7c7c" stroke-width="0"/><path d="M560.13,372.09c1.23,0,2.23-1,2.23-2.23s-1-2.23-2.23-2.23-2.23,1-2.23,2.23,1,2.23,2.23,2.23Z" fill="#7c7c7c" stroke-width="0"/><path d="M715.97,122.52c1.23,0,2.23-1,2.23-2.23s-1-2.23-2.23-2.23-2.23,1-2.23,2.23,1,2.23,2.23,2.23Z" fill="#7c7c7c" stroke-width="0"/><circle cx="921.13" cy="228.53" r="1.54" fill="#7c7c7c" stroke-width="0"/><circle cx="1066.38" cy="477.2" r="2.35" fill="#7c7c7c" stroke-width="0"/><path d="M931.88,318.39c0,.72.58,1.3,1.3,1.3s1.3-.58,1.3-1.3-.58-1.3-1.3-1.3-1.3.58-1.3,1.3Z" fill="#7c7c7c" stroke-width="0"/><path d="M976.12,504.42c0-.81-.66-1.47-1.47-1.47s-1.47.66-1.47,1.47.66,1.47,1.47,1.47,1.47-.66,1.47-1.47Z" fill="#7c7c7c" stroke-width="0"/><path d="M1193.74,771.45c0,.72.58,1.3,1.3,1.3s1.3-.58,1.3-1.3-.58-1.3-1.3-1.3-1.3.58-1.3,1.3Z" fill="#7c7c7c" stroke-width="0"/><path d="M1049.48,633.32c0-.78-.63-1.4-1.4-1.4s-1.4.63-1.4,1.4c0,.41.18.78.46,1.03h1.89c.28-.26.46-.62.46-1.03Z" fill="#7c7c7c" stroke-width="0"/><path d="M892.46,559.93c0-.86-.7-1.56-1.56-1.56s-1.56.7-1.56,1.56.7,1.56,1.56,1.56,1.56-.7,1.56-1.56Z" fill="#7c7c7c" stroke-width="0"/><path d="M1216.36,912.27c0-1.38-1.12-2.5-2.5-2.5s-2.5,1.12-2.5,2.5,1.12,2.5,2.5,2.5,2.5-1.12,2.5-2.5Z" fill="#7c7c7c" stroke-width="0"/><path d="M813.63,187.29c0-1.37-1.11-2.48-2.48-2.48s-2.48,1.11-2.48,2.48,1.11,2.48,2.48,2.48,2.48-1.11,2.48-2.48Z" fill="#7c7c7c" stroke-width="0"/><path d="M1232.57,100.62c0-1.44-1.16-2.6-2.6-2.6s-2.6,1.16-2.6,2.6,1.16,2.6,2.6,2.6,2.6-1.16,2.6-2.6Z" fill="#7c7c7c" stroke-width="0"/><path d="M567.84,602.68c0-.87-.7-1.57-1.57-1.57s-1.57.7-1.57,1.57.7,1.57,1.57,1.57,1.57-.7,1.57-1.57Z" fill="#7c7c7c" stroke-width="0"/><path d="M1313.21,604.25c0-.88-.71-1.59-1.59-1.59s-1.59.71-1.59,1.59.71,1.59,1.59,1.59,1.59-.71,1.59-1.59Z" fill="#7c7c7c" stroke-width="0"/><path d="M1112.34,98.29c0-.73-.59-1.32-1.32-1.32s-1.32.59-1.32,1.32.59,1.32,1.32,1.32,1.32-.59,1.32-1.32Z" fill="#7c7c7c" stroke-width="0"/><path d="M615.84,66c0-1-.81-1.81-1.81-1.81s-1.81.81-1.81,1.81.81,1.81,1.81,1.81,1.81-.81,1.81-1.81Z" fill="#7c7c7c" stroke-width="0"/><path d="M1265.57,180.87c1.28,0,2.31-1.03,2.31-2.31s-1.03-2.31-2.31-2.31-2.31,1.03-2.31,2.31,1.03,2.31,2.31,2.31Z" fill="#7c7c7c" stroke-width="0"/><path d="M695.7,858.02c0,1.49,1.21,2.7,2.7,2.7s2.7-1.21,2.7-2.7-1.21-2.7-2.7-2.7-2.7,1.21-2.7,2.7Z" fill="#7c7c7c" stroke-width="0"/><path d="M1368.98,972.43c0-.74-.6-1.34-1.34-1.34s-1.34.6-1.34,1.34.6,1.34,1.34,1.34,1.34-.6,1.34-1.34Z" fill="#7c7c7c" stroke-width="0"/><path d="M1091.82,384.95c0-1.55-1.25-2.8-2.8-2.8s-2.8,1.25-2.8,2.8,1.25,2.8,2.8,2.8,2.8-1.25,2.8-2.8Z" fill="#7c7c7c" stroke-width="0"/><path d="M564.53,728.67c.96,0,1.75-.78,1.75-1.75s-.78-1.75-1.75-1.75-1.75.78-1.75,1.75.78,1.75,1.75,1.75Z" fill="#7c7c7c" stroke-width="0"/><circle cx="1202.49" cy="516.73" r="2.58" fill="#7c7c7c" stroke-width="0"/><path d="M1073.16,281.71c0-.98-.79-1.77-1.77-1.77s-1.77.79-1.77,1.77.79,1.77,1.77,1.77,1.77-.79,1.77-1.77Z" fill="#7c7c7c" stroke-width="0"/><circle cx="1289.32" cy="795.07" r="2.32" fill="#7c7c7c" stroke-width="0"/><path d="M1053.43,838.44c0-1.48-1.2-2.68-2.68-2.68s-2.68,1.2-2.68,2.68,1.2,2.68,2.68,2.68,2.68-1.2,2.68-2.68Z" fill="#7c7c7c" stroke-width="0"/><circle cx="612.15" cy="835.77" r="2.34" fill="#7c7c7c" stroke-width="0"/><circle cx="1136.65" cy="283.48" r="1.27" fill="#7c7c7c" stroke-width="0"/><circle cx="915.36" cy="194.51" r="1.27" fill="#7c7c7c" stroke-width="0"/><path d="M1047.94,279.93c0-.7-.57-1.27-1.27-1.27s-1.27.57-1.27,1.27.57,1.27,1.27,1.27,1.27-.57,1.27-1.27Z" fill="#7c7c7c" stroke-width="0"/><path d="M1401.97,301.67c0-1.3-1.05-2.35-2.35-2.35s-2.35,1.05-2.35,2.35,1.05,2.35,2.35,2.35,2.35-1.05,2.35-2.35Z" fill="#7c7c7c" stroke-width="0"/><path d="M792.11,954.52c0-1.21-.98-2.19-2.19-2.19s-2.19.98-2.19,2.19.98,2.19,2.19,2.19,2.19-.98,2.19-2.19Z" fill="#7c7c7c" stroke-width="0"/><path d="M967.34,339.61c0-.77-.62-1.39-1.39-1.39s-1.39.62-1.39,1.39.62,1.39,1.39,1.39,1.39-.62,1.39-1.39Z" fill="#7c7c7c" stroke-width="0"/><path d="M1367.8,522.43c.09-.2.14-.43.14-.67,0-.91-.74-1.64-1.64-1.64s-1.64.74-1.64,1.64c0,.31.09.6.23.84.43-.35.98-.57,1.58-.57.49,0,.95.14,1.33.39Z" fill="#7c7c7c" stroke-width="0"/><path d="M1202.41,296.33c0-1.46-1.18-2.64-2.64-2.64s-2.64,1.18-2.64,2.64,1.18,2.64,2.64,2.64,2.64-1.18,2.64-2.64Z" fill="#7c7c7c" stroke-width="0"/><circle cx="1174.23" cy="425.76" r="2.16" fill="#7c7c7c" stroke-width="0"/><path d="M1118.33,552.73c0-1.54-1.25-2.8-2.79-2.8s-2.79,1.25-2.79,2.8,1.25,2.79,2.79,2.79,2.79-1.25,2.79-2.79Z" fill="#7c7c7c" stroke-width="0"/><circle cx="753.31" cy="50.86" r="2.36" fill="#7c7c7c" stroke-width="0"/><path d="M1227.37,1059.26c1.17,0,2.13-.95,2.13-2.13s-.95-2.13-2.13-2.13-2.13.95-2.13,2.13.95,2.13,2.13,2.13Z" fill="#7c7c7c" stroke-width="0"/><circle cx="516.75" cy="583.19" r="1.3" fill="#7c7c7c" stroke-width="0"/><path d="M650.84,479.55c0-1.19-.96-2.15-2.15-2.15s-2.15.96-2.15,2.15.96,2.15,2.15,2.15,2.15-.96,2.15-2.15Z" fill="#7c7c7c" stroke-width="0"/><path d="M717.44,403.96c0-.81-.66-1.47-1.47-1.47s-1.47.66-1.47,1.47.66,1.47,1.47,1.47,1.47-.66,1.47-1.47Z" fill="#7c7c7c" stroke-width="0"/><path d="M775.17,317.08c0-.75-.6-1.35-1.35-1.35s-1.35.6-1.35,1.35.6,1.35,1.35,1.35,1.35-.6,1.35-1.35Z" fill="#7c7c7c" stroke-width="0"/><path d="M515.53,215.51c0-.75-.6-1.35-1.35-1.35s-1.35.6-1.35,1.35.6,1.35,1.35,1.35,1.35-.6,1.35-1.35Z" fill="#7c7c7c" stroke-width="0"/><path d="M901.79,858.02c1.17,0,2.13-.95,2.13-2.13s-.95-2.13-2.13-2.13-2.13.95-2.13,2.13.95,2.13,2.13,2.13Z" fill="#7c7c7c" stroke-width="0"/><path d="M942.35,551.31c0-.79-.64-1.42-1.42-1.42s-1.42.64-1.42,1.42.64,1.42,1.42,1.42,1.42-.64,1.42-1.42Z" fill="#7c7c7c" stroke-width="0"/><circle cx="843.73" cy="387.75" r="1.93" fill="#7c7c7c" stroke-width="0"/><path d="M927.12,1035.1c0-1.49-1.21-2.7-2.7-2.7s-2.7,1.21-2.7,2.7,1.21,2.7,2.7,2.7,2.7-1.21,2.7-2.7Z" fill="#7c7c7c" stroke-width="0"/><path d="M925.31,448.38c0-.78-.63-1.41-1.41-1.41s-1.41.63-1.41,1.41.63,1.41,1.41,1.41,1.41-.63,1.41-1.41Z" fill="#7c7c7c" stroke-width="0"/><path d="M876.02,275.28c0-.78-.63-1.41-1.41-1.41s-1.41.63-1.41,1.41.63,1.41,1.41,1.41,1.41-.63,1.41-1.41Z" fill="#7c7c7c" stroke-width="0"/><path d="M705.91,230.14c0-.88-.46-1.66-1.15-2.1-.39-.25-.84-.39-1.33-.39-.6,0-1.15.21-1.58.57-.56.46-.91,1.15-.91,1.92,0,1.37,1.11,2.49,2.49,2.49s2.49-1.11,2.49-2.49Z" fill="#7c7c7c" stroke-width="0"/><circle cx="751.02" cy="1006.91" r="2.29" fill="#7c7c7c" stroke-width="0"/><path d="M1293.24,391.27c0-.88-.71-1.59-1.59-1.59s-1.59.71-1.59,1.59.71,1.59,1.59,1.59,1.59-.71,1.59-1.59Z" fill="#7c7c7c" stroke-width="0"/><circle cx="771.68" cy="769.31" r="2.14" fill="#7c7c7c" stroke-width="0"/><path d="M1399.62,726.92c1.5,0,2.72-1.22,2.72-2.72s-1.22-2.72-2.72-2.72-2.72,1.22-2.72,2.72,1.22,2.72,2.72,2.72Z" fill="#7c7c7c" stroke-width="0"/><path d="M232.04,976.73c1.13,0,2.04-.91,2.04-2.04s-.91-2.04-2.04-2.04-2.04.91-2.04,2.04.91,2.04,2.04,2.04Z" fill="#7c7c7c" stroke-width="0"/><circle cx="42.17" cy="28.37" r="1.58" fill="#7c7c7c" stroke-width="0"/><path d="M115.73,68.19c0-.8-.65-1.44-1.44-1.44s-1.44.65-1.44,1.44.65,1.44,1.44,1.44,1.44-.65,1.44-1.44Z" fill="#7c7c7c" stroke-width="0"/><circle cx="9.57" cy="95.95" r="2.01" fill="#7c7c7c" stroke-width="0"/><path d="M82.64,764.68c0-1.37-1.11-2.48-2.48-2.48s-2.48,1.11-2.48,2.48,1.11,2.48,2.48,2.48,2.48-1.11,2.48-2.48Z" fill="#7c7c7c" stroke-width="0"/><path d="M243.89,739.82c-1.47,0-2.66,1.19-2.66,2.66s1.19,2.66,2.66,2.66,2.66-1.19,2.66-2.66-1.19-2.66-2.66-2.66Z" fill="#7c7c7c" stroke-width="0"/><path d="M233.66,181.04c0-1.37-.73-2.48-1.62-2.48s-1.62,1.11-1.62,2.48.73,2.48,1.62,2.48,1.62-1.11,1.62-2.48Z" fill="#7c7c7c" stroke-width="0"/><path d="M201.11,66c0-1.21-.98-2.19-2.19-2.19s-2.19.98-2.19,2.19.98,2.19,2.19,2.19,2.19-.98,2.19-2.19Z" fill="#7c7c7c" stroke-width="0"/><path d="M221.79,797.39c0-1.21-.98-2.19-2.19-2.19s-2.19.98-2.19,2.19.98,2.19,2.19,2.19,2.19-.98,2.19-2.19Z" fill="#7c7c7c" stroke-width="0"/><path d="M83.17,138.62c0-.71-.57-1.28-1.28-1.28s-1.28.57-1.28,1.28.57,1.28,1.28,1.28,1.28-.57,1.28-1.28Z" fill="#7c7c7c" stroke-width="0"/><circle cx="144.31" cy="974.69" r="2.26" fill="#7c7c7c" stroke-width="0"/><path d="M312.39,646.48c0-1.51-1.22-2.73-2.73-2.73s-2.73,1.22-2.73,2.73,1.22,2.73,2.73,2.73,2.73-1.22,2.73-2.73Z" fill="#7c7c7c" stroke-width="0"/><path d="M328.99,474.58c0-1.44-1.17-2.61-2.61-2.61s-2.61,1.17-2.61,2.61,1.17,2.61,2.61,2.61,2.61-1.17,2.61-2.61Z" fill="#7c7c7c" stroke-width="0"/><path d="M249.61,187.29c0-.99-.8-1.78-1.78-1.78s-1.78.8-1.78,1.78.8,1.78,1.78,1.78,1.78-.8,1.78-1.78Z" fill="#7c7c7c" stroke-width="0"/><path d="M446.99,118.05c0-.78-.63-1.41-1.41-1.41s-1.41.63-1.41,1.41.63,1.41,1.41,1.41,1.41-.63,1.41-1.41Z" fill="#7c7c7c" stroke-width="0"/><path d="M512.03,1.32c0-.69-.56-1.25-1.25-1.25s-1.25.56-1.25,1.25.56,1.25,1.25,1.25,1.25-.56,1.25-1.25Z" fill="#7c7c7c" stroke-width="0"/><path d="M32.57,228.53c0-.85-.69-1.54-1.54-1.54s-1.54.69-1.54,1.54.69,1.54,1.54,1.54,1.54-.69,1.54-1.54Z" fill="#7c7c7c" stroke-width="0"/><circle cx="176.28" cy="477.2" r="2.35" fill="#7c7c7c" stroke-width="0"/><path d="M41.79,318.39c0,.72.58,1.3,1.3,1.3s1.3-.58,1.3-1.3-.58-1.3-1.3-1.3-1.3.58-1.3,1.3Z" fill="#7c7c7c" stroke-width="0"/><circle cx="84.55" cy="504.42" r="1.47" fill="#7c7c7c" stroke-width="0"/><circle cx="304.94" cy="771.45" r="1.3" fill="#7c7c7c" stroke-width="0"/><path d="M159.38,633.32c0-.78-.63-1.4-1.4-1.4s-1.4.63-1.4,1.4c0,.41.18.78.46,1.03h1.89c.28-.26.46-.62.46-1.03Z" fill="#7c7c7c" stroke-width="0"/><path d="M326.27,912.27c0-1.38-1.12-2.5-2.5-2.5s-2.5,1.12-2.5,2.5,1.12,2.5,2.5,2.5,2.5-1.12,2.5-2.5Z" fill="#7c7c7c" stroke-width="0"/><path d="M342.47,100.62c0-1.44-1.16-2.6-2.6-2.6s-2.6,1.16-2.6,2.6,1.16,2.6,2.6,2.6,2.6-1.16,2.6-2.6Z" fill="#7c7c7c" stroke-width="0"/><path d="M423.11,604.25c0-.88-.71-1.59-1.59-1.59s-1.59.71-1.59,1.59.71,1.59,1.59,1.59,1.59-.71,1.59-1.59Z" fill="#7c7c7c" stroke-width="0"/><path d="M222.24,98.29c0-.73-.59-1.32-1.32-1.32s-1.32.59-1.32,1.32.59,1.32,1.32,1.32,1.32-.59,1.32-1.32Z" fill="#7c7c7c" stroke-width="0"/><path d="M375.47,180.87c1.28,0,2.31-1.03,2.31-2.31s-1.03-2.31-2.31-2.31-2.31,1.03-2.31,2.31,1.03,2.31,2.31,2.31Z" fill="#7c7c7c" stroke-width="0"/><circle cx="477.54" cy="972.43" r="1.34" fill="#7c7c7c" stroke-width="0"/><path d="M201.72,384.95c0-1.55-1.25-2.8-2.8-2.8s-2.8,1.25-2.8,2.8,1.25,2.8,2.8,2.8,2.8-1.25,2.8-2.8Z" fill="#7c7c7c" stroke-width="0"/><circle cx="312.39" cy="516.73" r="2.58" fill="#7c7c7c" stroke-width="0"/><path d="M183.07,281.71c0-.98-.79-1.77-1.77-1.77s-1.77.79-1.77,1.77.79,1.77,1.77,1.77,1.77-.79,1.77-1.77Z" fill="#7c7c7c" stroke-width="0"/><path d="M399.23,797.39c1.28,0,2.32-1.04,2.32-2.32s-1.04-2.32-2.32-2.32-2.32,1.04-2.32,2.32,1.04,2.32,2.32,2.32Z" fill="#7c7c7c" stroke-width="0"/><path d="M163.33,838.44c0-1.48-1.2-2.68-2.68-2.68s-2.68,1.2-2.68,2.68,1.2,2.68,2.68,2.68,2.68-1.2,2.68-2.68Z" fill="#7c7c7c" stroke-width="0"/><path d="M247.82,283.48c0-.7-.57-1.27-1.27-1.27s-1.27.57-1.27,1.27.57,1.27,1.27,1.27,1.27-.57,1.27-1.27Z" fill="#7c7c7c" stroke-width="0"/><circle cx="25.26" cy="194.51" r="1.27" fill="#7c7c7c" stroke-width="0"/><path d="M157.84,279.93c0-.7-.57-1.27-1.27-1.27s-1.27.57-1.27,1.27.57,1.27,1.27,1.27,1.27-.57,1.27-1.27Z" fill="#7c7c7c" stroke-width="0"/><circle cx="509.52" cy="301.67" r="2.35" fill="#7c7c7c" stroke-width="0"/><circle cx="75.84" cy="339.61" r="1.39" fill="#7c7c7c" stroke-width="0"/><path d="M477.7,522.43c.09-.2.14-.43.14-.67,0-.91-.74-1.64-1.64-1.64s-1.64.74-1.64,1.64c0,.31.09.6.23.84.43-.35.98-.57,1.58-.57.49,0,.95.14,1.33.39Z" fill="#7c7c7c" stroke-width="0"/><path d="M312.31,296.33c0-1.46-1.18-2.64-2.64-2.64s-2.64,1.18-2.64,2.64,1.18,2.64,2.64,2.64,2.64-1.18,2.64-2.64Z" fill="#7c7c7c" stroke-width="0"/><path d="M286.29,425.76c0-1.19-.97-2.16-2.16-2.16s-2.16.97-2.16,2.16.97,2.16,2.16,2.16,2.16-.97,2.16-2.16Z" fill="#7c7c7c" stroke-width="0"/><path d="M228.23,552.73c0-1.54-1.25-2.8-2.8-2.8s-2.79,1.25-2.79,2.8,1.25,2.79,2.79,2.79,2.8-1.25,2.8-2.79Z" fill="#7c7c7c" stroke-width="0"/><path d="M337.27,1059.26c1.17,0,2.13-.95,2.13-2.13s-.95-2.13-2.13-2.13-2.13.95-2.13,2.13.95,2.13,2.13,2.13Z" fill="#7c7c7c" stroke-width="0"/><path d="M11.69,858.02c1.17,0,2.13-.95,2.13-2.13s-.95-2.13-2.13-2.13-2.13.95-2.13,2.13.95,2.13,2.13,2.13Z" fill="#7c7c7c" stroke-width="0"/><path d="M52.25,551.31c0-.79-.64-1.42-1.42-1.42s-1.42.64-1.42,1.42.64,1.42,1.42,1.42,1.42-.64,1.42-1.42Z" fill="#7c7c7c" stroke-width="0"/><path d="M37.02,1035.1c0-1.49-1.21-2.7-2.7-2.7s-2.7,1.21-2.7,2.7,1.21,2.7,2.7,2.7,2.7-1.21,2.7-2.7Z" fill="#7c7c7c" stroke-width="0"/><path d="M35.21,448.38c0-.78-.63-1.41-1.41-1.41s-1.41.63-1.41,1.41.63,1.41,1.41,1.41,1.41-.63,1.41-1.41Z" fill="#7c7c7c" stroke-width="0"/><path d="M403.14,391.27c0-.88-.71-1.59-1.59-1.59s-1.59.71-1.59,1.59.71,1.59,1.59,1.59,1.59-.71,1.59-1.59Z" fill="#7c7c7c" stroke-width="0"/><circle cx="509.52" cy="724.2" r="2.72" fill="#7c7c7c" stroke-width="0"/><path d="M220.26,339.04l.11,1.79c.16,2.49,2.18,4.48,4.72,4.64l1.83.11-1.83.11c-2.54.15-4.57,2.14-4.72,4.64l-.11,1.79-.11-1.79c-.16-2.49-2.18-4.48-4.72-4.64l-1.83-.11,1.83-.11c2.54-.15,4.57-2.14,4.72-4.64l.11-1.79Z" fill="#7c7c7c" stroke-width="0"/><path d="M278.47,132.84l.17,2.64c.23,3.68,3.22,6.61,6.96,6.83l2.69.16-2.69.16c-3.74.23-6.73,3.16-6.96,6.83l-.17,2.64-.17-2.64c-.23-3.68-3.22-6.61-6.96-6.83l-2.69-.16,2.69-.16c3.74-.23,6.73-3.16,6.96-6.83l.17-2.64Z" fill="#7c7c7c" stroke-width="0"/><path d="M485.61,403.38l.17,2.64c.23,3.68,3.22,6.61,6.96,6.83l2.69.16-2.69.16c-3.74.23-6.73,3.16-6.96,6.83l-.17,2.64-.17-2.64c-.23-3.68-3.22-6.61-6.96-6.83l-2.69-.16,2.69-.16c3.74-.23,6.73-3.16,6.96-6.83l.17-2.64Z" fill="#7c7c7c" stroke-width="0"/><path d="M778.32,252.6l.25,3.93c.34,5.46,4.78,9.81,10.34,10.15l4,.24-4,.24c-5.56.34-10,4.69-10.34,10.15l-.25,3.93-.25-3.93c-.34-5.46-4.78-9.81-10.34-10.15l-4-.24,4-.24c5.56-.34,10-4.69,10.34-10.15l.25-3.93Z" fill="#7c7c7c" stroke-width="0"/><path d="M1758.02,103.53l.17,2.64c.23,3.68,3.22,6.61,6.96,6.83l2.69.16-2.69.16c-3.74.23-6.73,3.16-6.96,6.83l-.17,2.64-.17-2.64c-.23-3.68-3.22-6.61-6.96-6.83l-2.69-.16,2.69-.16c3.74-.23,6.73-3.16,6.96-6.83l.17-2.64Z" fill="#7c7c7c" stroke-width="0"/><path d="M959.43,450.94l.17,2.64c.23,3.68,3.22,6.61,6.96,6.83l2.69.16-2.69.16c-3.74.23-6.73,3.16-6.96,6.83l-.17,2.64-.17-2.64c-.23-3.68-3.22-6.61-6.96-6.83l-2.69-.16,2.69-.16c3.74-.23,6.73-3.16,6.96-6.83l.17-2.64Z" fill="#7c7c7c" stroke-width="0"/><path d="M1366.78,259.98l.17,2.64c.23,3.68,3.22,6.61,6.96,6.83l2.69.16-2.69.16c-3.74.23-6.73,3.16-6.96,6.83l-.17,2.64-.17-2.64c-.23-3.68-3.22-6.61-6.96-6.83l-2.69-.16,2.69-.16c3.74-.23,6.73-3.16,6.96-6.83l.17-2.64Z" fill="#7c7c7c" stroke-width="0"/><path d="M1575.97,511.58l.17,2.64c.23,3.68,3.22,6.61,6.96,6.83l2.69.16-2.69.16c-3.74.23-6.73,3.16-6.96,6.83l-.17,2.64-.17-2.64c-.23-3.68-3.22-6.61-6.96-6.83l-2.69-.16,2.69-.16c3.74-.23,6.73-3.16,6.96-6.83l.17-2.64Z" fill="#7c7c7c" stroke-width="0"/><path d="M1973.92,445.43l.17,2.64c.23,3.68,3.22,6.61,6.96,6.83l2.69.16-2.69.16c-3.74.23-6.73,3.16-6.96,6.83l-.17,2.64-.17-2.64c-.23-3.68-3.22-6.61-6.96-6.83l-2.69-.16,2.69-.16c3.74-.23,6.73-3.16,6.96-6.83l.17-2.64Z" fill="#7c7c7c" stroke-width="0"/><path d="M2047.8,251.17l.09,1.36c.12,1.9,1.66,3.41,3.59,3.52l1.39.08-1.39.08c-1.93.12-3.47,1.63-3.59,3.52l-.09,1.36-.09-1.36c-.12-1.9-1.66-3.41-3.59-3.52l-1.39-.08,1.39-.08c1.93-.12,3.47-1.63,3.59-3.52l.09-1.36Z" fill="#7c7c7c" stroke-width="0"/><path d="M98.76,457.15l.09,1.36c.12,1.9,1.66,3.41,3.59,3.52l1.39.08-1.39.08c-1.93.12-3.47,1.63-3.59,3.52l-.09,1.36-.09-1.36c-.12-1.9-1.66-3.41-3.59-3.52l-1.39-.08,1.39-.08c1.93-.12,3.47-1.63,3.59-3.52l.09-1.36Z" fill="#7c7c7c" stroke-width="0"/><path d="M1059.73,234.8l.09,1.36c.12,1.9,1.66,3.41,3.59,3.52l1.39.08-1.39.08c-1.93.12-3.47,1.63-3.59,3.52l-.09,1.36-.09-1.36c-.12-1.9-1.66-3.41-3.59-3.52l-1.39-.08,1.39-.08c1.93-.12,3.47-1.63,3.59-3.52l.09-1.36Z" fill="#7c7c7c" stroke-width="0"/><path d="M122.14,595.55l.09,1.36c.12,1.9,1.66,3.41,3.59,3.52l1.39.08-1.39.08c-1.93.12-3.47,1.63-3.59,3.52l-.09,1.36-.09-1.36c-.12-1.9-1.66-3.41-3.59-3.52l-1.39-.08,1.39-.08c1.93-.12,3.47-1.63,3.59-3.52l.09-1.36Z" fill="#7c7c7c" stroke-width="0"/></svg>