<?xml version="1.0" encoding="UTF-8"?>
<svg xmlns="http://www.w3.org/2000/svg" xmlns:xlink="http://www.w3.org/1999/xlink" version="1.1" viewBox="0 0 1308.6 186.3">
  <defs>
    <style>
      .cls-1 {
        opacity: .4;
      }

      .cls-1, .cls-2, .cls-3, .cls-4, .cls-5, .cls-6, .cls-7, .cls-8, .cls-9, .cls-10, .cls-11, .cls-12, .cls-13, .cls-14, .cls-15, .cls-16, .cls-17, .cls-18, .cls-19, .cls-20, .cls-21, .cls-22, .cls-23, .cls-24, .cls-25, .cls-26, .cls-27, .cls-28, .cls-29, .cls-30, .cls-31, .cls-32, .cls-33, .cls-34, .cls-35, .cls-36, .cls-37, .cls-38, .cls-39, .cls-40, .cls-41, .cls-42, .cls-43, .cls-44, .cls-45, .cls-46, .cls-47, .cls-48, .cls-49, .cls-50, .cls-51, .cls-52, .cls-53, .cls-54, .cls-55, .cls-56, .cls-57, .cls-58, .cls-59, .cls-60, .cls-61, .cls-62, .cls-63, .cls-64, .cls-65, .cls-66, .cls-67, .cls-68, .cls-69, .cls-70, .cls-71, .cls-72, .cls-73, .cls-74, .cls-75, .cls-76, .cls-77, .cls-78, .cls-79, .cls-80, .cls-81, .cls-82, .cls-83, .cls-84, .cls-85, .cls-86, .cls-87, .cls-88, .cls-89, .cls-90, .cls-91, .cls-92, .cls-93, .cls-94, .cls-95, .cls-96, .cls-97, .cls-98, .cls-99, .cls-100, .cls-101, .cls-102, .cls-103, .cls-104, .cls-105, .cls-106, .cls-107, .cls-108, .cls-109, .cls-110, .cls-111, .cls-112, .cls-113, .cls-114, .cls-115, .cls-116, .cls-117, .cls-118, .cls-119, .cls-120, .cls-121, .cls-122, .cls-123, .cls-124, .cls-125, .cls-126, .cls-127, .cls-128, .cls-129, .cls-130, .cls-131, .cls-132, .cls-133, .cls-134, .cls-135, .cls-136, .cls-137, .cls-138, .cls-139, .cls-140, .cls-141, .cls-142, .cls-143, .cls-144, .cls-145, .cls-146, .cls-147, .cls-148, .cls-149, .cls-150, .cls-151, .cls-152, .cls-153, .cls-154, .cls-155, .cls-156, .cls-157, .cls-158, .cls-159, .cls-160, .cls-161, .cls-162, .cls-163, .cls-164, .cls-165, .cls-166, .cls-167, .cls-168, .cls-169, .cls-170, .cls-171, .cls-172, .cls-173 {
        stroke-width: 0px;
      }

      .cls-1, .cls-2, .cls-3, .cls-5, .cls-7, .cls-8, .cls-10, .cls-11, .cls-12, .cls-16, .cls-17, .cls-18, .cls-88, .cls-89, .cls-90, .cls-92, .cls-93, .cls-95, .cls-96, .cls-97, .cls-98, .cls-99, .cls-100, .cls-102, .cls-103, .cls-104, .cls-105, .cls-106, .cls-107, .cls-111, .cls-113, .cls-114, .cls-115, .cls-116, .cls-117, .cls-118, .cls-119, .cls-120, .cls-121, .cls-122, .cls-123, .cls-124, .cls-125, .cls-126, .cls-128, .cls-129, .cls-130, .cls-133, .cls-134, .cls-136, .cls-146, .cls-147, .cls-148, .cls-149, .cls-150, .cls-152, .cls-153, .cls-155, .cls-156, .cls-158, .cls-159, .cls-160, .cls-162, .cls-163, .cls-164, .cls-165, .cls-167, .cls-168, .cls-169, .cls-170, .cls-171, .cls-172 {
        fill: #fff;
      }

      .cls-2 {
        opacity: .2;
      }

      .cls-3 {
        opacity: .8;
      }

      .cls-4, .cls-6, .cls-9, .cls-13, .cls-15, .cls-91, .cls-94, .cls-101, .cls-108, .cls-109, .cls-110, .cls-112, .cls-127, .cls-131, .cls-132, .cls-135, .cls-145, .cls-151, .cls-154, .cls-157, .cls-161, .cls-173 {
        fill: #87d0cb;
      }

      .cls-4, .cls-17 {
        opacity: .8;
      }

      .cls-5, .cls-154 {
        opacity: .2;
      }

      .cls-6, .cls-148 {
        opacity: .9;
      }

      .cls-7 {
        opacity: .8;
      }

      .cls-8 {
        opacity: 0;
      }

      .cls-174, .cls-175, .cls-176 {
        mix-blend-mode: overlay;
      }

      .cls-174, .cls-177 {
        opacity: .5;
      }

      .cls-10 {
        opacity: .4;
      }

      .cls-11 {
        opacity: .4;
      }

      .cls-12 {
        opacity: .2;
      }

      .cls-175 {
        opacity: .2;
      }

      .cls-13, .cls-162 {
        opacity: .9;
      }

      .cls-14 {
        fill: url(#linear-gradient);
      }

      .cls-15, .cls-133 {
        opacity: 0;
      }

      .cls-16, .cls-173 {
        opacity: .7;
      }

      .cls-18 {
        opacity: .7;
      }

      .cls-19 {
        fill: url(#linear-gradient-38);
      }

      .cls-20 {
        fill: url(#linear-gradient-33);
      }

      .cls-21 {
        fill: url(#linear-gradient-29);
      }

      .cls-22 {
        fill: url(#linear-gradient-32);
      }

      .cls-23 {
        fill: url(#linear-gradient-30);
      }

      .cls-24 {
        fill: url(#linear-gradient-31);
      }

      .cls-25 {
        fill: url(#linear-gradient-36);
      }

      .cls-26 {
        fill: url(#linear-gradient-39);
      }

      .cls-27 {
        fill: url(#linear-gradient-34);
      }

      .cls-28 {
        fill: url(#linear-gradient-37);
      }

      .cls-29 {
        fill: url(#linear-gradient-35);
      }

      .cls-30 {
        fill: url(#linear-gradient-28);
      }

      .cls-31 {
        fill: url(#linear-gradient-25);
      }

      .cls-32 {
        fill: url(#linear-gradient-11);
      }

      .cls-33 {
        fill: url(#linear-gradient-12);
      }

      .cls-34 {
        fill: url(#linear-gradient-13);
      }

      .cls-35 {
        fill: url(#linear-gradient-10);
      }

      .cls-36 {
        fill: url(#linear-gradient-17);
      }

      .cls-37 {
        fill: url(#linear-gradient-16);
      }

      .cls-38 {
        fill: url(#linear-gradient-19);
      }

      .cls-39 {
        fill: url(#linear-gradient-15);
      }

      .cls-40 {
        fill: url(#linear-gradient-23);
      }

      .cls-41 {
        fill: url(#linear-gradient-21);
      }

      .cls-42 {
        fill: url(#linear-gradient-18);
      }

      .cls-43 {
        fill: url(#linear-gradient-14);
      }

      .cls-44 {
        fill: url(#linear-gradient-22);
      }

      .cls-45 {
        fill: url(#linear-gradient-20);
      }

      .cls-46 {
        fill: url(#linear-gradient-27);
      }

      .cls-47 {
        fill: url(#linear-gradient-24);
      }

      .cls-48 {
        fill: url(#linear-gradient-26);
      }

      .cls-49 {
        fill: url(#linear-gradient-45);
      }

      .cls-50 {
        fill: url(#linear-gradient-46);
      }

      .cls-51 {
        fill: url(#linear-gradient-44);
      }

      .cls-52 {
        fill: url(#linear-gradient-48);
      }

      .cls-53 {
        fill: url(#linear-gradient-49);
      }

      .cls-54 {
        fill: url(#linear-gradient-47);
      }

      .cls-55 {
        fill: url(#linear-gradient-42);
      }

      .cls-56 {
        fill: url(#linear-gradient-43);
      }

      .cls-57 {
        fill: url(#linear-gradient-40);
      }

      .cls-58 {
        fill: url(#linear-gradient-41);
      }

      .cls-59 {
        fill: url(#linear-gradient-59);
      }

      .cls-60 {
        fill: url(#linear-gradient-57);
      }

      .cls-61 {
        fill: url(#linear-gradient-58);
      }

      .cls-62 {
        fill: url(#linear-gradient-55);
      }

      .cls-63 {
        fill: url(#linear-gradient-56);
      }

      .cls-64 {
        fill: url(#linear-gradient-53);
      }

      .cls-65 {
        fill: url(#linear-gradient-51);
      }

      .cls-66 {
        fill: url(#linear-gradient-52);
      }

      .cls-67 {
        fill: url(#linear-gradient-50);
      }

      .cls-68 {
        fill: url(#linear-gradient-54);
      }

      .cls-69 {
        fill: url(#linear-gradient-60);
      }

      .cls-70 {
        fill: url(#linear-gradient-61);
      }

      .cls-71 {
        fill: url(#linear-gradient-62);
      }

      .cls-72 {
        fill: url(#linear-gradient-65);
      }

      .cls-73 {
        fill: url(#linear-gradient-78);
      }

      .cls-74 {
        fill: url(#linear-gradient-77);
      }

      .cls-75 {
        fill: url(#linear-gradient-75);
      }

      .cls-76 {
        fill: url(#linear-gradient-76);
      }

      .cls-77 {
        fill: url(#linear-gradient-74);
      }

      .cls-78 {
        fill: url(#linear-gradient-67);
      }

      .cls-79 {
        fill: url(#linear-gradient-68);
      }

      .cls-80 {
        fill: url(#linear-gradient-66);
      }

      .cls-81 {
        fill: url(#linear-gradient-63);
      }

      .cls-82 {
        fill: url(#linear-gradient-69);
      }

      .cls-83 {
        fill: url(#linear-gradient-64);
      }

      .cls-84 {
        fill: url(#linear-gradient-71);
      }

      .cls-85 {
        fill: url(#linear-gradient-72);
      }

      .cls-86 {
        fill: url(#linear-gradient-70);
      }

      .cls-87 {
        fill: url(#linear-gradient-73);
      }

      .cls-88 {
        opacity: .6;
      }

      .cls-89 {
        opacity: 0;
      }

      .cls-90 {
        opacity: 0;
      }

      .cls-91, .cls-119 {
        opacity: .5;
      }

      .cls-92, .cls-135 {
        opacity: .7;
      }

      .cls-93 {
        opacity: .7;
      }

      .cls-94, .cls-169 {
        opacity: 0;
      }

      .cls-95, .cls-145 {
        opacity: .3;
      }

      .cls-96 {
        opacity: .3;
      }

      .cls-97 {
        opacity: .7;
      }

      .cls-98 {
        opacity: .3;
      }

      .cls-99 {
        opacity: .6;
      }

      .cls-100, .cls-127 {
        opacity: .6;
      }

      .cls-101, .cls-111 {
        opacity: .6;
      }

      .cls-102 {
        opacity: .6;
      }

      .cls-103, .cls-131 {
        opacity: .3;
      }

      .cls-104 {
        opacity: .6;
      }

      .cls-105, .cls-132 {
        opacity: .1;
      }

      .cls-106 {
        opacity: .6;
      }

      .cls-107 {
        opacity: .3;
      }

      .cls-108, .cls-124 {
        opacity: .5;
      }

      .cls-109, .cls-123 {
        opacity: .2;
      }

      .cls-110, .cls-171 {
        opacity: 0;
      }

      .cls-112, .cls-129 {
        opacity: 1;
      }

      .cls-113, .cls-151 {
        opacity: .4;
      }

      .cls-114 {
        opacity: .2;
      }

      .cls-115 {
        opacity: .3;
      }

      .cls-116 {
        opacity: .5;
      }

      .cls-117 {
        opacity: .5;
      }

      .cls-118 {
        opacity: .5;
      }

      .cls-120 {
        opacity: .1;
      }

      .cls-121 {
        opacity: .3;
      }

      .cls-122 {
        opacity: .1;
      }

      .cls-125 {
        opacity: 1;
      }

      .cls-126 {
        opacity: 1;
      }

      .cls-178 {
        opacity: .6;
      }

      .cls-128 {
        opacity: .9;
      }

      .cls-130 {
        opacity: .5;
      }

      .cls-134 {
        opacity: .9;
      }

      .cls-136 {
        opacity: 0;
      }

      .cls-137 {
        fill: url(#linear-gradient-4);
      }

      .cls-138 {
        fill: url(#linear-gradient-2);
      }

      .cls-139 {
        fill: url(#linear-gradient-3);
      }

      .cls-140 {
        fill: url(#linear-gradient-8);
      }

      .cls-141 {
        fill: url(#linear-gradient-9);
      }

      .cls-142 {
        fill: url(#linear-gradient-7);
      }

      .cls-143 {
        fill: url(#linear-gradient-5);
      }

      .cls-144 {
        fill: url(#linear-gradient-6);
      }

      .cls-146 {
        opacity: .9;
      }

      .cls-147 {
        opacity: .5;
      }

      .cls-149 {
        opacity: .9;
      }

      .cls-179 {
        isolation: isolate;
      }

      .cls-150 {
        opacity: .8;
      }

      .cls-152 {
        opacity: .7;
      }

      .cls-153 {
        opacity: .5;
      }

      .cls-155 {
        opacity: .7;
      }

      .cls-156 {
        opacity: .2;
      }

      .cls-157, .cls-167 {
        opacity: .8;
      }

      .cls-158 {
        opacity: .8;
      }

      .cls-159 {
        opacity: .4;
      }

      .cls-161, .cls-168 {
        opacity: .4;
      }

      .cls-163 {
        opacity: .8;
      }

      .cls-164 {
        opacity: 0;
      }

      .cls-165 {
        opacity: .2;
      }

      .cls-166 {
        fill: #04c4d9;
      }

      .cls-170 {
        opacity: .9;
      }

      .cls-172 {
        opacity: .4;
      }
    </style>
    <linearGradient id="linear-gradient" x1="748.2" y1="85" x2="1300.3" y2="85" gradientUnits="userSpaceOnUse">
      <stop offset="0" stop-color="#d9a0ca"/>
      <stop offset="0" stop-color="#cf9bc8"/>
      <stop offset="0" stop-color="#b691c3"/>
      <stop offset=".2" stop-color="#8c7fba"/>
      <stop offset=".2" stop-color="#5367af"/>
      <stop offset=".3" stop-color="#395caa"/>
      <stop offset=".6" stop-color="#049dbf"/>
      <stop offset=".9" stop-color="#04c4d9"/>
      <stop offset="1" stop-color="#55d9d9"/>
    </linearGradient>
    <linearGradient id="linear-gradient-2" x1="899.1" y1="42.4" x2="901" y2="42.4" gradientUnits="userSpaceOnUse">
      <stop offset="0" stop-color="#e1bbd8"/>
      <stop offset=".4" stop-color="#a0bcd2"/>
      <stop offset="1" stop-color="#3ec0c9"/>
    </linearGradient>
    <linearGradient id="linear-gradient-3" x1="873.6" y1="74" x2="875.5" y2="74" xlink:href="#linear-gradient-2"/>
    <linearGradient id="linear-gradient-4" x1="966.8" y1="79.6" x2="967.9" y2="79.6" xlink:href="#linear-gradient-2"/>
    <linearGradient id="linear-gradient-5" x1="950.1" y1="60.1" x2="950.6" y2="60.1" xlink:href="#linear-gradient-2"/>
    <linearGradient id="linear-gradient-6" x1="912" y1="25.2" x2="912.5" y2="25.2" xlink:href="#linear-gradient-2"/>
    <linearGradient id="linear-gradient-7" x1="940.7" y1="25.8" x2="941.2" y2="25.8" xlink:href="#linear-gradient-2"/>
    <linearGradient id="linear-gradient-8" x1="936.2" y1="47.3" x2="936.8" y2="47.3" xlink:href="#linear-gradient-2"/>
    <linearGradient id="linear-gradient-9" x1="866.6" y1="67.1" x2="867.1" y2="67.1" xlink:href="#linear-gradient-2"/>
    <linearGradient id="linear-gradient-10" x1="868.8" y1="86" x2="869.3" y2="86" xlink:href="#linear-gradient-2"/>
    <linearGradient id="linear-gradient-11" x1="902.7" y1="49" x2="903.2" y2="49" xlink:href="#linear-gradient-2"/>
    <linearGradient id="linear-gradient-12" x1="902.1" y1="76.9" x2="902.6" y2="76.9" xlink:href="#linear-gradient-2"/>
    <linearGradient id="linear-gradient-13" x1="881.2" y1="72.6" x2="881.7" y2="72.6" xlink:href="#linear-gradient-2"/>
    <linearGradient id="linear-gradient-14" x1="905.4" y1="43.2" x2="905.7" y2="43.2" xlink:href="#linear-gradient-2"/>
    <linearGradient id="linear-gradient-15" x1="904.1" y1="31.9" x2="904.4" y2="31.9" xlink:href="#linear-gradient-2"/>
    <linearGradient id="linear-gradient-16" x1="884" y1="53.9" x2="884.3" y2="53.9" xlink:href="#linear-gradient-2"/>
    <linearGradient id="linear-gradient-17" x1="884.4" y1="37.4" x2="884.7" y2="37.4" xlink:href="#linear-gradient-2"/>
    <linearGradient id="linear-gradient-18" x1="896.7" y1="39.9" x2="897" y2="39.9" xlink:href="#linear-gradient-2"/>
    <linearGradient id="linear-gradient-19" x1="894.8" y1="128.4" x2="895.6" y2="128.4" xlink:href="#linear-gradient-2"/>
    <linearGradient id="linear-gradient-20" x1="905.7" y1="141.6" x2="906.3" y2="141.6" xlink:href="#linear-gradient-2"/>
    <linearGradient id="linear-gradient-21" x1="925.2" y1="139.4" x2="925.8" y2="139.4" xlink:href="#linear-gradient-2"/>
    <linearGradient id="linear-gradient-22" x1="887.1" y1="104.4" x2="887.6" y2="104.4" xlink:href="#linear-gradient-2"/>
    <linearGradient id="linear-gradient-23" x1="915.8" y1="105" x2="916.4" y2="105" xlink:href="#linear-gradient-2"/>
    <linearGradient id="linear-gradient-24" x1="911.4" y1="126.6" x2="911.9" y2="126.6" xlink:href="#linear-gradient-2"/>
    <linearGradient id="linear-gradient-25" x1="874.6" y1="113.5" x2="874.9" y2="113.5" xlink:href="#linear-gradient-2"/>
    <linearGradient id="linear-gradient-26" x1="885.8" y1="112.2" x2="886.2" y2="112.2" xlink:href="#linear-gradient-2"/>
    <linearGradient id="linear-gradient-27" x1="863.9" y1="92.1" x2="864.2" y2="92.1" xlink:href="#linear-gradient-2"/>
    <linearGradient id="linear-gradient-28" x1="880.4" y1="92.5" x2="880.7" y2="92.5" xlink:href="#linear-gradient-2"/>
    <linearGradient id="linear-gradient-29" x1="877.9" y1="104.8" x2="878.2" y2="104.8" xlink:href="#linear-gradient-2"/>
    <linearGradient id="linear-gradient-30" x1="974.9" y1="94.6" x2="975.7" y2="94.6" xlink:href="#linear-gradient-2"/>
    <linearGradient id="linear-gradient-31" x1="876.6" y1="115.5" x2="878.4" y2="115.5" xlink:href="#linear-gradient-2"/>
    <linearGradient id="linear-gradient-32" x1="947.6" y1="93.4" x2="948.4" y2="93.4" xlink:href="#linear-gradient-2"/>
    <linearGradient id="linear-gradient-33" x1="947.7" y1="48.4" x2="949.6" y2="48.4" xlink:href="#linear-gradient-2"/>
    <linearGradient id="linear-gradient-34" x1="968.4" y1="76.2" x2="969.2" y2="76.2" xlink:href="#linear-gradient-2"/>
    <linearGradient id="linear-gradient-35" x1="901.3" y1="72" x2="902.1" y2="72" xlink:href="#linear-gradient-2"/>
    <linearGradient id="linear-gradient-36" x1="917.1" y1="132.3" x2="917.5" y2="132.3" gradientTransform="translate(229.3 -488.7) rotate(33.9)" xlink:href="#linear-gradient-2"/>
    <linearGradient id="linear-gradient-37" x1="925.7" y1="125" x2="926.1" y2="125" gradientTransform="translate(226.8 -494.9) rotate(33.9)" xlink:href="#linear-gradient-2"/>
    <linearGradient id="linear-gradient-38" x1="896.3" y1="120.5" x2="896.7" y2="120.5" gradientTransform="translate(219.2 -479.1) rotate(33.9)" xlink:href="#linear-gradient-2"/>
    <linearGradient id="linear-gradient-39" x1="915" y1="123.3" x2="915.4" y2="123.3" gradientTransform="translate(224.2 -489.4) rotate(33.9)" xlink:href="#linear-gradient-2"/>
    <linearGradient id="linear-gradient-40" x1="877.6" y1="93.4" x2="878.4" y2="93.4" xlink:href="#linear-gradient-2"/>
    <linearGradient id="linear-gradient-41" x1="891.4" y1="105.3" x2="892.2" y2="105.3" xlink:href="#linear-gradient-2"/>
    <linearGradient id="linear-gradient-42" x1="950.8" y1="85.3" x2="951.1" y2="85.3" xlink:href="#linear-gradient-2"/>
    <linearGradient id="linear-gradient-43" x1="949.5" y1="74.1" x2="949.8" y2="74.1" xlink:href="#linear-gradient-2"/>
    <linearGradient id="linear-gradient-44" x1="929.3" y1="96.1" x2="929.7" y2="96.1" xlink:href="#linear-gradient-2"/>
    <linearGradient id="linear-gradient-45" x1="965.9" y1="124.2" x2="966.2" y2="124.2" xlink:href="#linear-gradient-2"/>
    <linearGradient id="linear-gradient-46" x1="964.6" y1="113" x2="964.9" y2="113" xlink:href="#linear-gradient-2"/>
    <linearGradient id="linear-gradient-47" x1="944.5" y1="134.9" x2="944.8" y2="134.9" xlink:href="#linear-gradient-2"/>
    <linearGradient id="linear-gradient-48" x1="944.8" y1="118.4" x2="945.1" y2="118.4" xlink:href="#linear-gradient-2"/>
    <linearGradient id="linear-gradient-49" x1="957.2" y1="121" x2="957.5" y2="121" xlink:href="#linear-gradient-2"/>
    <linearGradient id="linear-gradient-50" x1="953.2" y1="109.4" x2="953.5" y2="109.4" xlink:href="#linear-gradient-2"/>
    <linearGradient id="linear-gradient-51" x1="951.9" y1="98.1" x2="952.2" y2="98.1" xlink:href="#linear-gradient-2"/>
    <linearGradient id="linear-gradient-52" x1="931.8" y1="120.1" x2="932.1" y2="120.1" xlink:href="#linear-gradient-2"/>
    <linearGradient id="linear-gradient-53" x1="932.1" y1="103.6" x2="932.5" y2="103.6" xlink:href="#linear-gradient-2"/>
    <linearGradient id="linear-gradient-54" x1="944.5" y1="106.1" x2="944.8" y2="106.1" xlink:href="#linear-gradient-2"/>
    <linearGradient id="linear-gradient-55" x1="959.1" y1="38.9" x2="959.3" y2="38.9" gradientTransform="translate(293.6 -652.9) rotate(43.8)" xlink:href="#linear-gradient-2"/>
    <linearGradient id="linear-gradient-56" x1="953.9" y1="34.6" x2="954.2" y2="34.6" xlink:href="#linear-gradient-2"/>
    <linearGradient id="linear-gradient-57" x1="954.3" y1="52.2" x2="954.5" y2="52.2" gradientTransform="translate(302.4 -646.7) rotate(43.9)" xlink:href="#linear-gradient-2"/>
    <linearGradient id="linear-gradient-58" x1="947.7" y1="45" x2="947.9" y2="45" gradientTransform="translate(295.5 -644.1) rotate(43.9)" xlink:href="#linear-gradient-2"/>
    <linearGradient id="linear-gradient-59" x1="954" y1="41" x2="954.3" y2="41" gradientTransform="translate(292.4 -647.6) rotate(43.7)" xlink:href="#linear-gradient-2"/>
    <linearGradient id="linear-gradient-60" x1="976.1" y1="60.3" x2="976.3" y2="60.3" gradientTransform="translate(313.2 -658.7) rotate(43.8)" xlink:href="#linear-gradient-2"/>
    <linearGradient id="linear-gradient-61" x1="970.9" y1="56" x2="971.2" y2="56" xlink:href="#linear-gradient-2"/>
    <linearGradient id="linear-gradient-62" x1="971.3" y1="73.6" x2="971.5" y2="73.6" gradientTransform="translate(321.9 -652.5) rotate(43.9)" xlink:href="#linear-gradient-2"/>
    <linearGradient id="linear-gradient-63" x1="964.7" y1="66.4" x2="964.9" y2="66.4" xlink:href="#linear-gradient-2"/>
    <linearGradient id="linear-gradient-64" x1="971" y1="62.4" x2="971.3" y2="62.4" xlink:href="#linear-gradient-2"/>
    <linearGradient id="linear-gradient-65" x1="941" y1="41.7" x2="941.3" y2="41.7" xlink:href="#linear-gradient-2"/>
    <linearGradient id="linear-gradient-66" x1="939.7" y1="30.5" x2="940.1" y2="30.5" xlink:href="#linear-gradient-2"/>
    <linearGradient id="linear-gradient-67" x1="919.6" y1="52.4" x2="919.9" y2="52.4" xlink:href="#linear-gradient-2"/>
    <linearGradient id="linear-gradient-68" x1="920" y1="35.9" x2="920.3" y2="35.9" xlink:href="#linear-gradient-2"/>
    <linearGradient id="linear-gradient-69" x1="932.4" y1="38.5" x2="932.7" y2="38.5" xlink:href="#linear-gradient-2"/>
    <linearGradient id="linear-gradient-70" x1="947.3" y1="110" x2="947.6" y2="110" xlink:href="#linear-gradient-2"/>
    <linearGradient id="linear-gradient-71" x1="936" y1="111.3" x2="936.3" y2="111.3" xlink:href="#linear-gradient-2"/>
    <linearGradient id="linear-gradient-72" x1="958" y1="131.4" x2="958.3" y2="131.4" xlink:href="#linear-gradient-2"/>
    <linearGradient id="linear-gradient-73" x1="941.4" y1="131.1" x2="941.8" y2="131.1" xlink:href="#linear-gradient-2"/>
    <linearGradient id="linear-gradient-74" x1="935.7" y1="121.9" x2="945.8" y2="121.9" xlink:href="#linear-gradient-2"/>
    <linearGradient id="linear-gradient-75" x1="960.7" y1="71.3" x2="964" y2="71.3" xlink:href="#linear-gradient-2"/>
    <linearGradient id="linear-gradient-76" x1="880.6" y1="85.4" x2="893.9" y2="85.4" xlink:href="#linear-gradient-2"/>
    <linearGradient id="linear-gradient-77" x1="908.6" y1="74.5" x2="947.5" y2="74.5" xlink:href="#linear-gradient-2"/>
    <linearGradient id="linear-gradient-78" x1="907.9" y1="49.7" x2="915.3" y2="49.7" xlink:href="#linear-gradient-2"/>
  </defs>
  <g class="cls-179">
    <g id="Layer_1" data-name="Layer 1">
      <g>
        <g>
          <path class="cls-160" d="M12.8,144c-1.3,0-2.3-.4-3.2-1.3-.9-.9-1.3-2-1.3-3.2V30.3c0-1.3.4-2.3,1.3-3.2s2-1.3,3.2-1.3,2.3.4,3.2,1.3c.9.9,1.3,2,1.3,3.2v50h70.5V30.3c0-1.3.4-2.3,1.3-3.2s2-1.3,3.2-1.3,2.3.4,3.2,1.3c.9.9,1.3,2,1.3,3.2v109.1c0,1.3-.4,2.3-1.3,3.2-.9.9-2,1.3-3.2,1.3s-2.3-.4-3.2-1.3c-.9-.9-1.3-2-1.3-3.2v-50H17.4v50c0,1.3-.4,2.3-1.3,3.2-.9.9-2,1.3-3.2,1.3Z"/>
          <path class="cls-160" d="M172.6,25.8c16.3,0,30.3,5.8,41.8,17.3,11.5,11.6,17.3,25.5,17.3,41.8s-5.8,30.3-17.3,41.8c-11.6,11.5-25.5,17.3-41.8,17.3s-30.3-5.8-41.8-17.3c-11.5-11.6-17.3-25.5-17.3-41.8s5.8-30.3,17.3-41.8c11.6-11.5,25.5-17.3,41.8-17.3ZM172.6,134.9c13.8,0,25.6-4.9,35.4-14.6,9.8-9.8,14.6-21.6,14.6-35.4s-4.9-25.6-14.6-35.4c-9.8-9.8-21.6-14.6-35.4-14.6s-25.6,4.9-35.4,14.6c-9.8,9.8-14.6,21.6-14.6,35.4s4.9,25.6,14.6,35.4c9.8,9.8,21.6,14.6,35.4,14.6Z"/>
          <path class="cls-160" d="M249,32.2c-.5-1.2-.5-2.3,0-3.5.4-1.2,1.2-2,2.4-2.6,1.2-.5,2.3-.5,3.5,0,1.2.4,2,1.2,2.6,2.4l43.6,99.5,17.9-41.1c.8-1.8,2.1-2.8,4.1-2.8h.2c1.9,0,3.3.9,4.1,2.6l19.1,41.6,43.6-99.9c.5-1.2,1.3-2,2.5-2.4,1.2-.5,2.4-.5,3.5,0,1.2.6,2,1.4,2.5,2.6.4,1.2.4,2.3,0,3.5l-47.8,109.1c-.8,1.8-2.1,2.7-4.1,2.7s-3.3-.9-4.1-2.6l-19.2-41.6-18,41.5c-.8,1.8-2.1,2.7-4.1,2.7s-3.4-.9-4.2-2.7l-47.7-109.1Z"/>
          <path class="cls-160" d="M478.4,141.9c-.9,1.4-2.2,2.1-3.8,2.1h-59.1c-1.3,0-2.3-.4-3.2-1.3-.9-.9-1.3-2-1.3-3.2s.4-2.3,1.3-3.2c.9-.9,2-1.3,3.2-1.3h52.2l-40.8-93.2-43.6,99.6c-.8,1.8-2.2,2.7-4.2,2.7s-1.2-.1-1.8-.4c-1.2-.5-2-1.3-2.4-2.5-.4-1.2-.4-2.3,0-3.5l47.7-109.1c.8-1.8,2.2-2.7,4.2-2.7s3.4.9,4.1,2.7l47.8,109.1c.7,1.5.5,2.9-.4,4.3Z"/>
          <path class="cls-160" d="M500.9,144c-1.3,0-2.3-.4-3.2-1.3-.9-.9-1.3-2-1.3-3.2v-43.5c0-1.3.4-2.3,1.3-3.2s2-1.3,3.2-1.3h42c7.8,0,14.4-2.8,20-8.3,5.5-5.6,8.3-12.2,8.3-20s-2.8-14.5-8.3-20c-5.6-5.5-12.2-8.3-20-8.3h-42c-1.3,0-2.3-.4-3.2-1.3-.9-.9-1.3-2-1.3-3.2s.4-2.3,1.3-3.2c.9-.9,2-1.3,3.2-1.3h42c10.3,0,19.1,3.6,26.4,10.9,7.3,7.3,11,16.1,11,26.5s-3.2,17.9-9.6,25c-6.4,7.1-14.3,11.1-23.6,12.2l33.3,36.1c.8.9,1.2,2,1.2,3.2,0,1.3-.5,2.3-1.4,3.1-.9.8-1.9,1.2-3.1,1.2s-2.4-.5-3.3-1.5l-38.8-42h-29.4v38.9c0,1.3-.4,2.3-1.3,3.2-.9.9-2,1.3-3.2,1.3Z"/>
          <path class="cls-160" d="M689,84.9c0,16.3-5.8,30.3-17.3,41.8-11.6,11.5-25.5,17.3-41.8,17.3h-27.3c-1.3,0-2.3-.4-3.2-1.3-.9-.9-1.3-2-1.3-3.2s.4-2.3,1.3-3.2,2-1.3,3.2-1.3h27.3c13.8,0,25.6-4.9,35.4-14.6,9.8-9.8,14.6-21.6,14.6-35.4s-4.9-25.6-14.6-35.4c-9.8-9.8-21.6-14.6-35.4-14.6h-27.3c-1.3,0-2.3-.4-3.2-1.3-.9-.9-1.3-2-1.3-3.2s.4-2.3,1.3-3.2c.9-.9,2-1.3,3.2-1.3h27.3c16.3,0,30.3,5.8,41.8,17.3,11.5,11.6,17.3,25.5,17.3,41.8Z"/>
          <path class="cls-160" d="M706.1,135.2c0-6.3,4.2-10.7,10.2-10.7s10,4.4,10,10.7-3.9,10.7-10.2,10.7-10-4.6-10-10.7Z"/>
        </g>
        <g>
          <g>
            <path class="cls-166" d="M807.7,144.5c-16.4,0-30.5-5.8-42.1-17.4s-17.4-25.6-17.4-42.1,5.8-30.5,17.4-42.2,25.6-17.4,42.1-17.4,30.5,5.8,42.2,17.4,2.2,3.3,2.2,5.4-.7,3.9-2.2,5.3c-1.5,1.5-3.3,2.2-5.4,2.2s-3.9-.7-5.3-2.2c-8.7-8.6-19.2-12.9-31.5-12.9s-22.7,4.3-31.4,12.9c-8.6,8.7-12.9,19.2-12.9,31.5s4.3,22.7,12.9,31.4c8.7,8.6,19.1,12.9,31.4,12.9s22.8-4.3,31.5-12.9c1.4-1.5,3.2-2.2,5.3-2.2s3.9.7,5.4,2.2c1.5,1.4,2.2,3.2,2.2,5.3s-.7,3.9-2.2,5.4c-11.6,11.6-25.7,17.4-42.2,17.4Z"/>
            <path class="cls-166" d="M923.2,144.5c-16.4,0-30.5-5.8-42.1-17.4s-17.4-25.6-17.4-42.1,5.8-30.5,17.4-42.2,25.6-17.4,42.1-17.4,30.5,5.8,42.2,17.4,17.4,25.7,17.4,42.2-5.8,30.5-17.4,42.1-25.7,17.4-42.2,17.4ZM923.2,40.6c-12.2,0-22.7,4.3-31.4,13s-12.9,19.1-12.9,31.4,4.3,22.7,12.9,31.4c8.7,8.6,19.1,12.9,31.4,12.9s22.7-4.3,31.4-12.9,13-19.1,13-31.4-4.3-22.7-13-31.4c-8.6-8.7-19.1-13-31.4-13Z"/>
            <path class="cls-166" d="M1092.6,85c0,16.4-5.8,30.5-17.4,42.1s-25.7,17.4-42.2,17.4h-26c-2.1,0-3.9-.7-5.3-2.2-1.5-1.4-2.2-3.2-2.2-5.3s.7-3.9,2.2-5.4c1.4-1.5,3.2-2.2,5.3-2.2h26c12.3,0,22.7-4.3,31.4-12.9s13-19.1,13-31.4-4.3-22.7-13-31.4c-8.6-8.7-19.1-13-31.4-13h-26c-2.1,0-3.9-.7-5.3-2.2-1.5-1.5-2.2-3.3-2.2-5.4s.7-3.8,2.2-5.3c1.4-1.5,3.2-2.2,5.3-2.2h26c16.5,0,30.5,5.8,42.2,17.4s17.4,25.7,17.4,42.2Z"/>
            <path class="cls-166" d="M1188.2,25.4c2.1,0,3.9.7,5.4,2.2s2.2,3.3,2.2,5.3-.7,3.9-2.2,5.4-3.3,2.2-5.4,2.2h-71.5c-2.1,0-3.9-.7-5.3-2.2-1.5-1.5-2.2-3.3-2.2-5.4s.7-3.8,2.2-5.3c1.4-1.5,3.2-2.2,5.3-2.2h71.5ZM1188.2,77.4c2.1,0,3.9.7,5.4,2.2s2.2,3.3,2.2,5.4-.7,3.8-2.2,5.3-3.3,2.2-5.4,2.2h-71.5c-2.1,0-3.9-.7-5.3-2.2-1.5-1.5-2.2-3.3-2.2-5.3s.7-3.9,2.2-5.4c1.4-1.5,3.2-2.2,5.3-2.2h71.5ZM1195.8,137c0,2.1-.7,3.9-2.2,5.3-1.5,1.5-3.3,2.2-5.4,2.2h-71.5c-2.1,0-3.9-.7-5.3-2.2-1.5-1.4-2.2-3.2-2.2-5.3s.7-3.9,2.2-5.4c1.4-1.5,3.2-2.2,5.3-2.2h71.5c2.1,0,3.9.7,5.4,2.2s2.2,3.3,2.2,5.4Z"/>
            <path class="cls-166" d="M1266.6,129.3c5.1,0,9.4-1.8,13-5.4s5.4-7.9,5.4-12.9-1.8-9.4-5.4-13c-3.6-3.6-7.9-5.4-13-5.4h-20.7c-9.2,0-17.1-3.3-23.7-9.9-6.6-6.5-9.9-14.4-9.9-23.7s3.3-17.1,9.9-23.7c6.5-6.6,14.4-9.9,23.7-9.9h20.7c9.2,0,17.2,3.3,23.7,9.9,6.6,6.5,9.9,14.4,9.9,23.7s-.7,3.9-2.2,5.4-3.3,2.2-5.4,2.2-3.9-.7-5.3-2.2c-1.5-1.5-2.2-3.3-2.2-5.4,0-5-1.8-9.4-5.4-12.9-3.6-3.6-7.9-5.4-13-5.4h-20.7c-5,0-9.4,1.8-12.9,5.4s-5.4,7.9-5.4,12.9,1.8,9.4,5.4,13c3.6,3.6,7.9,5.4,12.9,5.4h20.7c9.2,0,17.2,3.3,23.7,9.9,6.6,6.5,9.9,14.4,9.9,23.7s-3.3,17.1-9.9,23.7c-6.6,6.6-14.5,9.9-23.7,9.9h-20.7c-9.2,0-17.1-3.3-23.7-9.9-6.6-6.5-9.9-14.4-9.9-23.7s.7-3.9,2.2-5.4c1.4-1.5,3.2-2.2,5.3-2.2s3.9.7,5.4,2.2,2.2,3.3,2.2,5.4c0,5,1.8,9.4,5.4,12.9,3.6,3.6,7.9,5.4,12.9,5.4h20.7Z"/>
          </g>
          <g>
            <path class="cls-14" d="M807.7,144.5c-16.4,0-30.5-5.8-42.1-17.4s-17.4-25.6-17.4-42.1,5.8-30.5,17.4-42.2,25.6-17.4,42.1-17.4,30.5,5.8,42.2,17.4,2.2,3.3,2.2,5.4-.7,3.9-2.2,5.3c-1.5,1.5-3.3,2.2-5.4,2.2s-3.9-.7-5.3-2.2c-8.7-8.6-19.2-12.9-31.5-12.9s-22.7,4.3-31.4,12.9c-8.6,8.7-12.9,19.2-12.9,31.5s4.3,22.7,12.9,31.4c8.7,8.6,19.1,12.9,31.4,12.9s22.8-4.3,31.5-12.9c1.4-1.5,3.2-2.2,5.3-2.2s3.9.7,5.4,2.2c1.5,1.4,2.2,3.2,2.2,5.3s-.7,3.9-2.2,5.4c-11.6,11.6-25.7,17.4-42.2,17.4Z"/>
            <path class="cls-14" d="M923.2,144.5c-16.4,0-30.5-5.8-42.1-17.4s-17.4-25.6-17.4-42.1,5.8-30.5,17.4-42.2,25.6-17.4,42.1-17.4,30.5,5.8,42.2,17.4,17.4,25.7,17.4,42.2-5.8,30.5-17.4,42.1-25.7,17.4-42.2,17.4ZM923.2,40.6c-12.2,0-22.7,4.3-31.4,13s-12.9,19.1-12.9,31.4,4.3,22.7,12.9,31.4c8.7,8.6,19.1,12.9,31.4,12.9s22.7-4.3,31.4-12.9,13-19.1,13-31.4-4.3-22.7-13-31.4c-8.6-8.7-19.1-13-31.4-13Z"/>
            <path class="cls-14" d="M1092.6,85c0,16.4-5.8,30.5-17.4,42.1s-25.7,17.4-42.2,17.4h-26c-2.1,0-3.9-.7-5.3-2.2-1.5-1.4-2.2-3.2-2.2-5.3s.7-3.9,2.2-5.4c1.4-1.5,3.2-2.2,5.3-2.2h26c12.3,0,22.7-4.3,31.4-12.9s13-19.1,13-31.4-4.3-22.7-13-31.4c-8.6-8.7-19.1-13-31.4-13h-26c-2.1,0-3.9-.7-5.3-2.2-1.5-1.5-2.2-3.3-2.2-5.4s.7-3.8,2.2-5.3c1.4-1.5,3.2-2.2,5.3-2.2h26c16.5,0,30.5,5.8,42.2,17.4s17.4,25.7,17.4,42.2Z"/>
            <path class="cls-14" d="M1188.2,25.4c2.1,0,3.9.7,5.4,2.2s2.2,3.3,2.2,5.3-.7,3.9-2.2,5.4-3.3,2.2-5.4,2.2h-71.5c-2.1,0-3.9-.7-5.3-2.2-1.5-1.5-2.2-3.3-2.2-5.4s.7-3.8,2.2-5.3c1.4-1.5,3.2-2.2,5.3-2.2h71.5ZM1188.2,77.4c2.1,0,3.9.7,5.4,2.2s2.2,3.3,2.2,5.4-.7,3.8-2.2,5.3-3.3,2.2-5.4,2.2h-71.5c-2.1,0-3.9-.7-5.3-2.2-1.5-1.5-2.2-3.3-2.2-5.3s.7-3.9,2.2-5.4c1.4-1.5,3.2-2.2,5.3-2.2h71.5ZM1195.8,137c0,2.1-.7,3.9-2.2,5.3-1.5,1.5-3.3,2.2-5.4,2.2h-71.5c-2.1,0-3.9-.7-5.3-2.2-1.5-1.4-2.2-3.2-2.2-5.3s.7-3.9,2.2-5.4c1.4-1.5,3.2-2.2,5.3-2.2h71.5c2.1,0,3.9.7,5.4,2.2s2.2,3.3,2.2,5.4Z"/>
            <path class="cls-14" d="M1266.6,129.3c5.1,0,9.4-1.8,13-5.4s5.4-7.9,5.4-12.9-1.8-9.4-5.4-13c-3.6-3.6-7.9-5.4-13-5.4h-20.7c-9.2,0-17.1-3.3-23.7-9.9-6.6-6.5-9.9-14.4-9.9-23.7s3.3-17.1,9.9-23.7c6.5-6.6,14.4-9.9,23.7-9.9h20.7c9.2,0,17.2,3.3,23.7,9.9,6.6,6.5,9.9,14.4,9.9,23.7s-.7,3.9-2.2,5.4-3.3,2.2-5.4,2.2-3.9-.7-5.3-2.2c-1.5-1.5-2.2-3.3-2.2-5.4,0-5-1.8-9.4-5.4-12.9-3.6-3.6-7.9-5.4-13-5.4h-20.7c-5,0-9.4,1.8-12.9,5.4s-5.4,7.9-5.4,12.9,1.8,9.4,5.4,13c3.6,3.6,7.9,5.4,12.9,5.4h20.7c9.2,0,17.2,3.3,23.7,9.9,6.6,6.5,9.9,14.4,9.9,23.7s-3.3,17.1-9.9,23.7c-6.6,6.6-14.5,9.9-23.7,9.9h-20.7c-9.2,0-17.1-3.3-23.7-9.9-6.6-6.5-9.9-14.4-9.9-23.7s.7-3.9,2.2-5.4c1.4-1.5,3.2-2.2,5.3-2.2s3.9.7,5.4,2.2,2.2,3.3,2.2,5.4c0,5,1.8,9.4,5.4,12.9,3.6,3.6,7.9,5.4,12.9,5.4h20.7Z"/>
          </g>
        </g>
        <g>
          <image width="125" height="125" transform="translate(860.3 21.6)" xlink:href="howco-logo-1.png"/>
          <g class="cls-176">
            <circle class="cls-15" cx="974.9" cy="93.6" r="2.7"/>
            <circle class="cls-94" cx="974.9" cy="93.6" r="2.7" transform="translate(593.9 995.8) rotate(-72.6)"/>
            <circle class="cls-110" cx="974.9" cy="93.6" r="2.6" transform="translate(719.7 1039.2) rotate(-80.4)"/>
            <circle class="cls-132" cx="974.9" cy="93.6" r="2.5" transform="translate(770.6 1051.5) rotate(-83.4)"/>
            <circle class="cls-154" cx="974.9" cy="93.6" r="2.5" transform="translate(797.4 1056.8) rotate(-85)"/>
            <path class="cls-109" d="M977.3,93.6c0,1.3-1.1,2.4-2.4,2.4s-2.4-1.1-2.4-2.4,1.1-2.4,2.4-2.4,2.4,1.1,2.4,2.4Z"/>
            <path class="cls-131" d="M977.2,93.6c0,1.3-1.1,2.4-2.4,2.4s-2.4-1.1-2.4-2.4,1.1-2.4,2.4-2.4,2.4,1.1,2.4,2.4Z"/>
            <path class="cls-145" d="M977.2,93.6c0,1.3-1,2.3-2.3,2.3s-2.3-1-2.3-2.3,1-2.3,2.3-2.3,2.3,1,2.3,2.3Z"/>
            <path class="cls-151" d="M977.1,93.6c0,1.2-1,2.2-2.2,2.2s-2.2-1-2.2-2.2,1-2.2,2.2-2.2,2.2,1,2.2,2.2Z"/>
            <path class="cls-161" d="M977,93.6c0,1.2-1,2.2-2.2,2.2s-2.2-1-2.2-2.2,1-2.2,2.2-2.2,2.2,1,2.2,2.2Z"/>
            <path class="cls-108" d="M977,93.6c0,1.2-.9,2.1-2.1,2.1s-2.1-.9-2.1-2.1.9-2.1,2.1-2.1,2.1.9,2.1,2.1Z"/>
            <path class="cls-91" d="M976.9,93.6c0,1.1-.9,2-2,2s-2-.9-2-2,.9-2,2-2,2,.9,2,2Z"/>
            <path class="cls-127" d="M976.8,93.6c0,1.1-.9,2-2,2s-2-.9-2-2,.9-2,2-2,2,.9,2,2Z"/>
            <path class="cls-101" d="M976.8,93.6c0,1-.8,1.9-1.9,1.9s-1.9-.8-1.9-1.9.8-1.9,1.9-1.9,1.9.8,1.9,1.9Z"/>
            <path class="cls-135" d="M976.7,93.6c0,1-.8,1.8-1.8,1.8s-1.8-.8-1.8-1.8.8-1.8,1.8-1.8,1.8.8,1.8,1.8Z"/>
            <path class="cls-173" d="M976.7,93.6c0,1-.8,1.8-1.8,1.8s-1.8-.8-1.8-1.8.8-1.8,1.8-1.8,1.8.8,1.8,1.8Z"/>
            <path class="cls-157" d="M976.6,93.6c0,.9-.8,1.7-1.7,1.7s-1.7-.8-1.7-1.7.8-1.7,1.7-1.7,1.7.8,1.7,1.7Z"/>
            <path class="cls-4" d="M976.5,93.6c0,.9-.7,1.6-1.6,1.6s-1.6-.7-1.6-1.6.7-1.6,1.6-1.6,1.6.7,1.6,1.6Z"/>
            <path class="cls-13" d="M976.5,93.6c0,.9-.7,1.6-1.6,1.6s-1.6-.7-1.6-1.6.7-1.6,1.6-1.6,1.6.7,1.6,1.6Z"/>
            <path class="cls-6" d="M976.4,93.6c0,.8-.7,1.5-1.5,1.5s-1.5-.7-1.5-1.5.7-1.5,1.5-1.5,1.5.7,1.5,1.5Z"/>
            <path class="cls-112" d="M976.3,93.6c0,.8-.6,1.4-1.4,1.4s-1.4-.6-1.4-1.4.6-1.4,1.4-1.4,1.4.6,1.4,1.4Z"/>
            <path class="cls-9" d="M976.3,93.6c0,.8-.6,1.4-1.4,1.4s-1.4-.6-1.4-1.4.6-1.4,1.4-1.4,1.4.6,1.4,1.4Z"/>
          </g>
          <g class="cls-174">
            <path class="cls-15" d="M977.6,93.6c0,1.5-1.2,2.7-2.7,2.7s-2.7-1.2-2.7-2.7,1.2-2.7,2.7-2.7,2.7,1.2,2.7,2.7Z"/>
            <path class="cls-94" d="M977.6,93.6c0,1.5-1.2,2.7-2.7,2.7s-2.7-1.2-2.7-2.7,1.2-2.7,2.7-2.7,2.7,1.2,2.7,2.7Z"/>
            <path class="cls-110" d="M977.5,93.6c0,1.4-1.2,2.6-2.6,2.6s-2.6-1.2-2.6-2.6,1.2-2.6,2.6-2.6,2.6,1.2,2.6,2.6Z"/>
            <path class="cls-132" d="M977.4,93.6c0,1.4-1.1,2.5-2.5,2.5s-2.5-1.1-2.5-2.5,1.1-2.5,2.5-2.5,2.5,1.1,2.5,2.5Z"/>
            <path class="cls-154" d="M977.4,93.6c0,1.4-1.1,2.5-2.5,2.5s-2.5-1.1-2.5-2.5,1.1-2.5,2.5-2.5,2.5,1.1,2.5,2.5Z"/>
            <path class="cls-109" d="M977.3,93.6c0,1.3-1.1,2.4-2.4,2.4s-2.4-1.1-2.4-2.4,1.1-2.4,2.4-2.4,2.4,1.1,2.4,2.4Z"/>
            <path class="cls-131" d="M977.2,93.6c0,1.3-1.1,2.4-2.4,2.4s-2.4-1.1-2.4-2.4,1.1-2.4,2.4-2.4,2.4,1.1,2.4,2.4Z"/>
            <path class="cls-145" d="M977.2,93.6c0,1.3-1,2.3-2.3,2.3s-2.3-1-2.3-2.3,1-2.3,2.3-2.3,2.3,1,2.3,2.3Z"/>
            <path class="cls-151" d="M977.1,93.6c0,1.2-1,2.2-2.2,2.2s-2.2-1-2.2-2.2,1-2.2,2.2-2.2,2.2,1,2.2,2.2Z"/>
            <path class="cls-161" d="M977,93.6c0,1.2-1,2.2-2.2,2.2s-2.2-1-2.2-2.2,1-2.2,2.2-2.2,2.2,1,2.2,2.2Z"/>
            <path class="cls-108" d="M977,93.6c0,1.2-.9,2.1-2.1,2.1s-2.1-.9-2.1-2.1.9-2.1,2.1-2.1,2.1.9,2.1,2.1Z"/>
            <path class="cls-91" d="M976.9,93.6c0,1.1-.9,2-2,2s-2-.9-2-2,.9-2,2-2,2,.9,2,2Z"/>
            <path class="cls-127" d="M976.8,93.6c0,1.1-.9,2-2,2s-2-.9-2-2,.9-2,2-2,2,.9,2,2Z"/>
            <path class="cls-101" d="M976.8,93.6c0,1-.8,1.9-1.9,1.9s-1.9-.8-1.9-1.9.8-1.9,1.9-1.9,1.9.8,1.9,1.9Z"/>
            <path class="cls-135" d="M976.7,93.6c0,1-.8,1.8-1.8,1.8s-1.8-.8-1.8-1.8.8-1.8,1.8-1.8,1.8.8,1.8,1.8Z"/>
            <path class="cls-173" d="M976.7,93.6c0,1-.8,1.8-1.8,1.8s-1.8-.8-1.8-1.8.8-1.8,1.8-1.8,1.8.8,1.8,1.8Z"/>
            <path class="cls-157" d="M976.6,93.6c0,.9-.8,1.7-1.7,1.7s-1.7-.8-1.7-1.7.8-1.7,1.7-1.7,1.7.8,1.7,1.7Z"/>
            <path class="cls-4" d="M976.5,93.6c0,.9-.7,1.6-1.6,1.6s-1.6-.7-1.6-1.6.7-1.6,1.6-1.6,1.6.7,1.6,1.6Z"/>
            <path class="cls-13" d="M976.5,93.6c0,.9-.7,1.6-1.6,1.6s-1.6-.7-1.6-1.6.7-1.6,1.6-1.6,1.6.7,1.6,1.6Z"/>
            <path class="cls-6" d="M976.4,93.6c0,.8-.7,1.5-1.5,1.5s-1.5-.7-1.5-1.5.7-1.5,1.5-1.5,1.5.7,1.5,1.5Z"/>
            <path class="cls-112" d="M976.3,93.6c0,.8-.6,1.4-1.4,1.4s-1.4-.6-1.4-1.4.6-1.4,1.4-1.4,1.4.6,1.4,1.4Z"/>
            <path class="cls-9" d="M976.3,93.6c0,.8-.6,1.4-1.4,1.4s-1.4-.6-1.4-1.4.6-1.4,1.4-1.4,1.4.6,1.4,1.4Z"/>
          </g>
          <g class="cls-176">
            <path class="cls-15" d="M923.2,129.8c0,1.5-1.2,2.7-2.7,2.7s-2.7-1.2-2.7-2.7,1.2-2.7,2.7-2.7,2.7,1.2,2.7,2.7Z"/>
            <path class="cls-94" d="M923.2,129.8c0,1.5-1.2,2.7-2.7,2.7s-2.7-1.2-2.7-2.7,1.2-2.7,2.7-2.7,2.7,1.2,2.7,2.7Z"/>
            <path class="cls-110" d="M923.1,129.8c0,1.4-1.2,2.6-2.6,2.6s-2.6-1.2-2.6-2.6,1.2-2.6,2.6-2.6,2.6,1.2,2.6,2.6Z"/>
            <path class="cls-132" d="M923,129.8c0,1.4-1.1,2.5-2.5,2.5s-2.5-1.1-2.5-2.5,1.1-2.5,2.5-2.5,2.5,1.1,2.5,2.5Z"/>
            <path class="cls-154" d="M923,129.8c0,1.4-1.1,2.5-2.5,2.5s-2.5-1.1-2.5-2.5,1.1-2.5,2.5-2.5,2.5,1.1,2.5,2.5Z"/>
            <path class="cls-109" d="M922.9,129.8c0,1.3-1.1,2.4-2.4,2.4s-2.4-1.1-2.4-2.4,1.1-2.4,2.4-2.4,2.4,1.1,2.4,2.4Z"/>
            <path class="cls-131" d="M922.9,129.8c0,1.3-1.1,2.4-2.4,2.4s-2.4-1.1-2.4-2.4,1.1-2.4,2.4-2.4,2.4,1.1,2.4,2.4Z"/>
            <path class="cls-145" d="M922.8,129.8c0,1.3-1,2.3-2.3,2.3s-2.3-1-2.3-2.3,1-2.3,2.3-2.3,2.3,1,2.3,2.3Z"/>
            <path class="cls-151" d="M922.7,129.8c0,1.2-1,2.2-2.2,2.2s-2.2-1-2.2-2.2,1-2.2,2.2-2.2,2.2,1,2.2,2.2Z"/>
            <path class="cls-161" d="M922.7,129.8c0,1.2-1,2.2-2.2,2.2s-2.2-1-2.2-2.2,1-2.2,2.2-2.2,2.2,1,2.2,2.2Z"/>
            <path class="cls-108" d="M922.6,129.8c0,1.2-.9,2.1-2.1,2.1s-2.1-.9-2.1-2.1.9-2.1,2.1-2.1,2.1.9,2.1,2.1Z"/>
            <path class="cls-91" d="M922.5,129.8c0,1.1-.9,2-2,2s-2-.9-2-2,.9-2,2-2,2,.9,2,2Z"/>
            <path class="cls-127" d="M922.5,129.8c0,1.1-.9,2-2,2s-2-.9-2-2,.9-2,2-2,2,.9,2,2Z"/>
            <path class="cls-101" d="M922.4,129.8c0,1-.8,1.9-1.9,1.9s-1.9-.8-1.9-1.9.8-1.9,1.9-1.9,1.9.8,1.9,1.9Z"/>
            <path class="cls-135" d="M922.3,129.8c0,1-.8,1.8-1.8,1.8s-1.8-.8-1.8-1.8.8-1.8,1.8-1.8,1.8.8,1.8,1.8Z"/>
            <path class="cls-173" d="M922.3,129.8c0,1-.8,1.8-1.8,1.8s-1.8-.8-1.8-1.8.8-1.8,1.8-1.8,1.8.8,1.8,1.8Z"/>
            <path class="cls-157" d="M922.2,129.8c0,.9-.8,1.7-1.7,1.7s-1.7-.8-1.7-1.7.8-1.7,1.7-1.7,1.7.8,1.7,1.7Z"/>
            <path class="cls-4" d="M922.1,129.8c0,.9-.7,1.6-1.6,1.6s-1.6-.7-1.6-1.6.7-1.6,1.6-1.6,1.6.7,1.6,1.6Z"/>
            <path class="cls-13" d="M922.1,129.8c0,.9-.7,1.6-1.6,1.6s-1.6-.7-1.6-1.6.7-1.6,1.6-1.6,1.6.7,1.6,1.6Z"/>
            <path class="cls-6" d="M922,129.8c0,.8-.7,1.5-1.5,1.5s-1.5-.7-1.5-1.5.7-1.5,1.5-1.5,1.5.7,1.5,1.5Z"/>
            <path class="cls-112" d="M921.9,129.8c0,.8-.6,1.4-1.4,1.4s-1.4-.6-1.4-1.4.6-1.4,1.4-1.4,1.4.6,1.4,1.4Z"/>
            <path class="cls-9" d="M921.9,129.8c0,.8-.6,1.4-1.4,1.4s-1.4-.6-1.4-1.4.6-1.4,1.4-1.4,1.4.6,1.4,1.4Z"/>
          </g>
          <g class="cls-176">
            <circle class="cls-133" cx="924.7" cy="81" r="29.1" transform="translate(784.9 998.6) rotate(-86.4)"/>
            <circle class="cls-169" cx="924.7" cy="81" r="28.5" transform="translate(786.2 998.8) rotate(-86.4)"/>
            <circle class="cls-171" cx="924.7" cy="81" r="27.8" transform="translate(787.5 999) rotate(-86.5)"/>
            <circle class="cls-105" cx="924.7" cy="81" r="27.1" transform="translate(788.9 999.2) rotate(-86.6)"/>
            <circle class="cls-5" cx="924.7" cy="81" r="26.4" transform="translate(790.3 999.4) rotate(-86.7)"/>
            <circle class="cls-123" cx="924.7" cy="81" r="25.7" transform="translate(791.8 999.6) rotate(-86.8)"/>
            <circle class="cls-103" cx="924.7" cy="81" r="25" transform="translate(793.3 999.9) rotate(-86.9)"/>
            <circle class="cls-95" cx="924.7" cy="81" r="24.3" transform="translate(794.9 1000.1) rotate(-87)"/>
            <circle class="cls-113" cx="924.7" cy="81" r="23.6" transform="translate(796.6 1000.3) rotate(-87.1)"/>
            <circle class="cls-168" cx="924.7" cy="81" r="22.9" transform="translate(798.3 1000.6) rotate(-87.2)"/>
            <circle class="cls-124" cx="924.7" cy="81" r="22.2" transform="translate(800.1 1000.8) rotate(-87.3)"/>
            <circle class="cls-119" cx="924.7" cy="81" r="21.5" transform="translate(802 1001.1) rotate(-87.4)"/>
            <circle class="cls-100" cx="924.7" cy="81" r="20.8" transform="translate(804 1001.3) rotate(-87.5)"/>
            <circle class="cls-111" cx="924.7" cy="81" r="20.1" transform="translate(806.1 1001.6) rotate(-87.7)"/>
            <circle class="cls-92" cx="924.7" cy="81" r="19.4" transform="translate(808.4 1001.9) rotate(-87.8)"/>
            <circle class="cls-16" cx="924.7" cy="81" r="18.7" transform="translate(810.7 1002.2) rotate(-88)"/>
            <circle class="cls-167" cx="924.7" cy="81" r="18" transform="translate(813.1 1002.5) rotate(-88.1)"/>
            <circle class="cls-17" cx="924.7" cy="81" r="17.4" transform="translate(815.7 1002.8) rotate(-88.3)"/>
            <circle class="cls-162" cx="924.7" cy="81" r="16.7" transform="translate(818.4 1003.1) rotate(-88.4)"/>
            <circle class="cls-148" cx="924.7" cy="81" r="16" transform="translate(821.3 1003.4) rotate(-88.6)"/>
            <path class="cls-129" d="M939.9,81c0,8.4-6.8,15.3-15.3,15.3s-15.3-6.8-15.3-15.3,6.8-15.3,15.3-15.3,15.3,6.8,15.3,15.3Z"/>
            <path class="cls-160" d="M939.2,81c0,8-6.5,14.6-14.6,14.6s-14.6-6.5-14.6-14.6,6.5-14.6,14.6-14.6,14.6,6.5,14.6,14.6Z"/>
          </g>
          <g class="cls-175">
            <path class="cls-133" d="M932.8,81.4c0,9.1-7.4,16.5-16.5,16.5s-16.5-7.4-16.5-16.5,7.4-16.5,16.5-16.5,16.5,7.4,16.5,16.5Z"/>
            <path class="cls-169" d="M932.4,81.4c0,8.9-7.2,16.1-16.1,16.1s-16.1-7.2-16.1-16.1,7.2-16.1,16.1-16.1,16.1,7.2,16.1,16.1Z"/>
            <path class="cls-171" d="M932.1,81.4c0,8.7-7,15.7-15.7,15.7s-15.7-7-15.7-15.7,7-15.7,15.7-15.7,15.7,7,15.7,15.7Z"/>
            <path class="cls-105" d="M931.7,81.4c0,8.5-6.8,15.3-15.3,15.3s-15.3-6.8-15.3-15.3,6.9-15.3,15.3-15.3,15.3,6.9,15.3,15.3Z"/>
            <path class="cls-5" d="M931.3,81.4c0,8.2-6.7,14.9-14.9,14.9s-14.9-6.7-14.9-14.9,6.7-14.9,14.9-14.9,14.9,6.7,14.9,14.9Z"/>
            <path class="cls-123" d="M930.9,81.4c0,8-6.5,14.5-14.5,14.5s-14.5-6.5-14.5-14.5,6.5-14.5,14.5-14.5,14.5,6.5,14.5,14.5Z"/>
            <path class="cls-103" d="M930.5,81.4c0,7.8-6.3,14.1-14.1,14.1s-14.1-6.3-14.1-14.1,6.3-14.1,14.1-14.1,14.1,6.3,14.1,14.1Z"/>
            <path class="cls-95" d="M930.1,81.4c0,7.6-6.1,13.7-13.7,13.7s-13.7-6.1-13.7-13.7,6.1-13.7,13.7-13.7,13.7,6.1,13.7,13.7Z"/>
            <path class="cls-113" d="M929.7,81.4c0,7.4-6,13.3-13.3,13.3s-13.3-6-13.3-13.3,6-13.3,13.3-13.3,13.3,6,13.3,13.3Z"/>
            <path class="cls-168" d="M929.3,81.4c0,7.2-5.8,12.9-12.9,12.9s-12.9-5.8-12.9-12.9,5.8-12.9,12.9-12.9,12.9,5.8,12.9,12.9Z"/>
            <path class="cls-124" d="M928.9,81.4c0,6.9-5.6,12.6-12.6,12.6s-12.6-5.6-12.6-12.6,5.6-12.6,12.6-12.6,12.6,5.6,12.6,12.6Z"/>
            <path class="cls-119" d="M928.5,81.4c0,6.7-5.4,12.2-12.2,12.2s-12.2-5.4-12.2-12.2,5.4-12.2,12.2-12.2,12.2,5.4,12.2,12.2Z"/>
            <path class="cls-100" d="M928.1,81.4c0,6.5-5.3,11.8-11.8,11.8s-11.8-5.3-11.8-11.8,5.3-11.8,11.8-11.8,11.8,5.3,11.8,11.8Z"/>
            <path class="cls-111" d="M927.7,81.4c0,6.3-5.1,11.4-11.4,11.4s-11.4-5.1-11.4-11.4,5.1-11.4,11.4-11.4,11.4,5.1,11.4,11.4Z"/>
            <path class="cls-92" d="M927.3,81.4c0,6.1-4.9,11-11,11s-11-4.9-11-11,4.9-11,11-11,11,4.9,11,11Z"/>
            <path class="cls-16" d="M927,81.4c0,5.9-4.7,10.6-10.6,10.6s-10.6-4.7-10.6-10.6,4.7-10.6,10.6-10.6,10.6,4.7,10.6,10.6Z"/>
            <path class="cls-167" d="M926.6,81.4c0,5.6-4.6,10.2-10.2,10.2s-10.2-4.6-10.2-10.2,4.6-10.2,10.2-10.2,10.2,4.6,10.2,10.2Z"/>
            <path class="cls-17" d="M926.2,81.4c0,5.4-4.4,9.8-9.8,9.8s-9.8-4.4-9.8-9.8,4.4-9.8,9.8-9.8,9.8,4.4,9.8,9.8Z"/>
            <path class="cls-162" d="M925.8,81.4c0,5.2-4.2,9.4-9.4,9.4s-9.4-4.2-9.4-9.4,4.2-9.4,9.4-9.4,9.4,4.2,9.4,9.4Z"/>
            <path class="cls-148" d="M925.4,81.4c0,5-4,9-9,9s-9-4-9-9,4-9,9-9,9,4,9,9Z"/>
            <path class="cls-129" d="M925,81.4c0,4.8-3.9,8.6-8.6,8.6s-8.6-3.9-8.6-8.6,3.9-8.6,8.6-8.6,8.6,3.9,8.6,8.6Z"/>
            <path class="cls-160" d="M924.6,81.4c0,4.6-3.7,8.2-8.2,8.2s-8.2-3.7-8.2-8.2,3.7-8.2,8.2-8.2,8.2,3.7,8.2,8.2Z"/>
          </g>
          <g class="cls-176">
            <path class="cls-15" d="M905.4,94.7c0,6.5-5.3,11.7-11.7,11.7s-11.7-5.3-11.7-11.7,5.3-11.7,11.7-11.7,11.7,5.3,11.7,11.7Z"/>
            <path class="cls-94" d="M905.2,94.7c0,6.3-5.1,11.5-11.5,11.5s-11.5-5.1-11.5-11.5,5.1-11.5,11.5-11.5,11.5,5.1,11.5,11.5Z"/>
            <path class="cls-110" d="M904.9,94.7c0,6.2-5,11.2-11.2,11.2s-11.2-5-11.2-11.2,5-11.2,11.2-11.2,11.2,5,11.2,11.2Z"/>
            <path class="cls-132" d="M904.6,94.7c0,6-4.9,10.9-10.9,10.9s-10.9-4.9-10.9-10.9,4.9-10.9,10.9-10.9,10.9,4.9,10.9,10.9Z"/>
            <path class="cls-154" d="M904.3,94.7c0,5.9-4.8,10.6-10.6,10.6s-10.6-4.8-10.6-10.6,4.8-10.6,10.6-10.6,10.6,4.8,10.6,10.6Z"/>
            <path class="cls-109" d="M904,94.7c0,5.7-4.6,10.3-10.3,10.3s-10.3-4.6-10.3-10.3,4.6-10.3,10.3-10.3,10.3,4.6,10.3,10.3Z"/>
            <path class="cls-131" d="M903.8,94.7c0,5.6-4.5,10.1-10.1,10.1s-10.1-4.5-10.1-10.1,4.5-10.1,10.1-10.1,10.1,4.5,10.1,10.1Z"/>
            <path class="cls-145" d="M903.5,94.7c0,5.4-4.4,9.8-9.8,9.8s-9.8-4.4-9.8-9.8,4.4-9.8,9.8-9.8,9.8,4.4,9.8,9.8Z"/>
            <path class="cls-151" d="M903.2,94.7c0,5.2-4.3,9.5-9.5,9.5s-9.5-4.3-9.5-9.5,4.3-9.5,9.5-9.5,9.5,4.3,9.5,9.5Z"/>
            <path class="cls-161" d="M902.9,94.7c0,5.1-4.1,9.2-9.2,9.2s-9.2-4.1-9.2-9.2,4.1-9.2,9.2-9.2,9.2,4.1,9.2,9.2Z"/>
            <path class="cls-108" d="M902.6,94.7c0,4.9-4,8.9-8.9,8.9s-8.9-4-8.9-8.9,4-8.9,8.9-8.9,8.9,4,8.9,8.9Z"/>
            <path class="cls-91" d="M902.4,94.7c0,4.8-3.9,8.7-8.7,8.7s-8.7-3.9-8.7-8.7,3.9-8.7,8.7-8.7,8.7,3.9,8.7,8.7Z"/>
            <circle class="cls-127" cx="893.7" cy="94.7" r="8.4" transform="translate(768.5 984.7) rotate(-88)"/>
            <circle class="cls-101" cx="893.7" cy="94.7" r="8.1" transform="translate(774 985.4) rotate(-88.4)"/>
            <circle class="cls-135" cx="893.7" cy="94.7" r="7.8" transform="translate(780 986.2) rotate(-88.8)"/>
            <circle class="cls-173" cx="893.7" cy="94.7" r="7.5" transform="translate(786.3 987) rotate(-89.2)"/>
            <path class="cls-157" d="M901,94.7c0,4-3.3,7.3-7.3,7.3s-7.3-3.3-7.3-7.3,3.3-7.3,7.3-7.3,7.3,3.3,7.3,7.3Z"/>
            <path class="cls-4" d="M900.7,94.7c0,3.9-3.1,7-7,7s-7-3.1-7-7,3.1-7,7-7,7,3.1,7,7Z"/>
            <path class="cls-13" d="M900.4,94.7c0,3.7-3,6.7-6.7,6.7s-6.7-3-6.7-6.7,3-6.7,6.7-6.7,6.7,3,6.7,6.7Z"/>
            <path class="cls-6" d="M900.1,94.7c0,3.5-2.9,6.4-6.4,6.4s-6.4-2.9-6.4-6.4,2.9-6.4,6.4-6.4,6.4,2.9,6.4,6.4Z"/>
            <path class="cls-112" d="M899.8,94.7c0,3.4-2.8,6.1-6.1,6.1s-6.1-2.8-6.1-6.1,2.8-6.1,6.1-6.1,6.1,2.8,6.1,6.1Z"/>
            <path class="cls-9" d="M899.6,94.7c0,3.2-2.6,5.9-5.9,5.9s-5.9-2.6-5.9-5.9,2.6-5.9,5.9-5.9,5.9,2.6,5.9,5.9Z"/>
          </g>
          <g>
            <path class="cls-160" d="M909.7,116.5c.1.4-.1.9-.6,1-.4.1-.9-.1-1-.6-.1-.4.1-.9.6-1,.4-.1.9.1,1,.6Z"/>
            <path class="cls-126" d="M910.3,116.1c.1.4-.1.9-.6,1-.4.1-.9-.1-1-.6-.1-.4.1-.9.6-1,.4-.1.9.1,1,.6Z"/>
            <path class="cls-125" d="M910.9,115.6c.1.4-.1.9-.6,1-.4.1-.9-.1-1-.6-.1-.4.1-.9.6-1,.4-.1.9.1,1,.6Z"/>
            <path class="cls-128" d="M911.4,115.2c.1.4-.1.9-.6,1-.4.1-.9-.1-1-.6-.1-.4.1-.9.6-1,.4-.1.9.1,1,.6Z"/>
            <path class="cls-146" d="M912,114.8c.1.4-.1.8-.6,1-.4.1-.9-.1-1-.5-.1-.4.1-.9.6-1,.4-.1.9.1,1,.5Z"/>
            <path class="cls-149" d="M912.6,114.3c.1.4-.1.8-.5,1-.4.1-.8-.1-1-.5-.1-.4.1-.8.5-1,.4-.1.8.1,1,.5Z"/>
            <path class="cls-134" d="M913.1,113.9c.1.4-.1.8-.5,1-.4.1-.8-.1-1-.5-.1-.4.1-.8.5-1,.4-.1.8.1,1,.5Z"/>
            <path class="cls-170" d="M913.7,113.5c.1.4-.1.8-.5.9-.4.1-.8-.1-.9-.5-.1-.4.1-.8.5-.9.4-.1.8.1.9.5Z"/>
            <path class="cls-163" d="M914.3,113c.1.4-.1.8-.5.9-.4.1-.8-.1-.9-.5-.1-.4.1-.8.5-.9.4-.1.8.1.9.5Z"/>
            <path class="cls-150" d="M914.9,112.6c.1.4-.1.8-.5.9-.4.1-.8-.1-.9-.5-.1-.4.1-.8.5-.9.4-.1.8.1.9.5Z"/>
            <path class="cls-158" d="M915.4,112.2c.1.4-.1.8-.5.9-.4.1-.8-.1-.9-.5-.1-.4.1-.8.5-.9.4-.1.8.1.9.5Z"/>
            <path class="cls-3" d="M916,111.7c.1.4-.1.8-.5.9-.4.1-.8-.1-.9-.5-.1-.4.1-.8.5-.9.4-.1.8.1.9.5Z"/>
            <path class="cls-7" d="M916.6,111.3c.1.4-.1.8-.5.9-.4.1-.8-.1-.9-.5-.1-.4.1-.8.5-.9.4-.1.8.1.9.5Z"/>
            <path class="cls-155" d="M917.2,110.8c.1.4-.1.8-.5.9-.4.1-.8-.1-.9-.5-.1-.4.1-.8.5-.9.4-.1.8.1.9.5Z"/>
            <path class="cls-152" d="M917.7,110.4c.1.4-.1.8-.5.9-.4.1-.8-.1-.9-.5-.1-.4.1-.8.5-.9.4-.1.8.1.9.5Z"/>
            <path class="cls-18" d="M918.3,110c.1.4-.1.8-.5.9-.4.1-.8-.1-.9-.5-.1-.4.1-.8.5-.9.4-.1.8.1.9.5Z"/>
            <path class="cls-97" d="M918.9,109.5c.1.4-.1.8-.5.9-.4.1-.8-.1-.9-.5-.1-.4.1-.8.5-.9.4-.1.8.1.9.5Z"/>
            <path class="cls-93" d="M919.5,109.1c.1.4-.1.8-.5.9-.4.1-.8-.1-.9-.5-.1-.4.1-.8.5-.9.4-.1.8.1.9.5Z"/>
            <path class="cls-88" d="M920,108.7c.1.4-.1.8-.5.9-.4.1-.8-.1-.9-.5-.1-.4.1-.8.5-.9.4-.1.8.1.9.5Z"/>
            <path class="cls-106" d="M920.6,108.2c.1.4-.1.8-.5.9-.4.1-.8-.1-.9-.5-.1-.4.1-.8.5-.9.4-.1.8.1.9.5Z"/>
            <path class="cls-104" d="M921.2,107.8c.1.4-.1.8-.5.9-.4.1-.8-.1-.9-.5-.1-.4.1-.8.5-.9.4-.1.8.1.9.5Z"/>
            <path class="cls-102" d="M921.8,107.4c.1.4-.1.8-.5.9-.4.1-.8-.1-.9-.5-.1-.4.1-.8.5-.9.4-.1.8.1.9.5Z"/>
            <path class="cls-99" d="M922.3,106.9c.1.4-.1.8-.5.9-.4.1-.8-.1-.9-.5-.1-.4.1-.8.5-.9.4-.1.8.1.9.5Z"/>
            <path class="cls-117" d="M922.9,106.5c.1.4-.1.7-.5.9-.4.1-.8-.1-.9-.5-.1-.4.1-.8.5-.9.4-.1.8.1.9.5Z"/>
            <path class="cls-118" d="M923.5,106.1c.1.4-.1.7-.5.8-.4.1-.7-.1-.8-.5,0-.4.1-.7.5-.8.4-.1.7.1.8.5Z"/>
            <path class="cls-116" d="M924,105.6c0,.4-.1.7-.5.8-.4,0-.7-.1-.8-.5,0-.4.1-.7.5-.8.4,0,.7.1.8.5Z"/>
            <path class="cls-130" d="M924.6,105.2c0,.4-.1.7-.5.8-.4,0-.7-.1-.8-.5,0-.4.1-.7.5-.8.4,0,.7.1.8.5Z"/>
            <path class="cls-153" d="M925.2,104.7c0,.4-.1.7-.5.8-.4,0-.7-.1-.8-.5,0-.4.1-.7.5-.8.4,0,.7.1.8.5Z"/>
            <path class="cls-147" d="M925.8,104.3c0,.4-.1.7-.5.8-.4,0-.7-.1-.8-.5,0-.4.1-.7.5-.8.4,0,.7.1.8.5Z"/>
            <path class="cls-172" d="M926.3,103.9c0,.4-.1.7-.5.8-.4,0-.7-.1-.8-.5,0-.4.1-.7.5-.8.4,0,.7.1.8.5Z"/>
            <path class="cls-159" d="M926.9,103.4c0,.4-.1.7-.5.8-.4,0-.7-.1-.8-.5,0-.4.1-.7.5-.8.4,0,.7.1.8.5Z"/>
            <path class="cls-1" d="M927.5,103c0,.3-.1.7-.5.8-.3,0-.7-.1-.8-.5,0-.3.1-.7.5-.8.3,0,.7.1.8.5Z"/>
            <path class="cls-11" d="M928.1,102.6c0,.3-.1.7-.5.8-.3,0-.7-.1-.8-.5,0-.3.1-.7.5-.8.3,0,.7.1.8.5Z"/>
            <path class="cls-10" d="M928.6,102.1c0,.3-.1.7-.5.8-.3,0-.7-.1-.8-.5,0-.3.1-.7.5-.8.3,0,.7.1.8.5Z"/>
            <path class="cls-96" d="M929.2,101.7c0,.3-.1.7-.4.8-.3,0-.7-.1-.8-.4,0-.3.1-.7.4-.8.3,0,.7.1.8.4Z"/>
            <path class="cls-107" d="M929.8,101.3c0,.3-.1.7-.4.8-.3,0-.7-.1-.8-.4,0-.3.1-.7.4-.8.3,0,.7.1.8.4Z"/>
            <path class="cls-98" d="M930.4,100.8c0,.3-.1.7-.4.8-.3,0-.7-.1-.8-.4,0-.3.1-.7.4-.8.3,0,.7.1.8.4Z"/>
            <path class="cls-121" d="M930.9,100.4c0,.3-.1.7-.4.8-.3,0-.7-.1-.8-.4,0-.3.1-.7.4-.8.3,0,.7.1.8.4Z"/>
            <path class="cls-115" d="M931.5,100c0,.3-.1.7-.4.8-.3,0-.7-.1-.8-.4,0-.3.1-.7.4-.8.3,0,.7.1.8.4Z"/>
            <path class="cls-156" d="M932.1,99.5c0,.3-.1.7-.4.8-.3,0-.7-.1-.8-.4,0-.3.1-.7.4-.8.3,0,.7.1.8.4Z"/>
            <path class="cls-165" d="M932.7,99.1c0,.3-.1.7-.4.7-.3,0-.7-.1-.8-.4,0-.3.1-.7.4-.7.3,0,.7.1.8.4Z"/>
            <path class="cls-2" d="M933.2,98.7c0,.3-.1.7-.4.7-.3,0-.7-.1-.7-.4,0-.3.1-.7.4-.7.3,0,.7.1.7.4Z"/>
            <path class="cls-12" d="M933.8,98.2c0,.3-.1.7-.4.7-.3,0-.7-.1-.7-.4,0-.3.1-.7.4-.7.3,0,.7.1.7.4Z"/>
            <path class="cls-114" d="M934.4,97.8c0,.3,0,.6-.4.7-.3,0-.6,0-.7-.4,0-.3.1-.6.4-.7.3,0,.6,0,.7.4Z"/>
            <path class="cls-120" d="M934.9,97.3c0,.3,0,.6-.4.7-.3,0-.6,0-.7-.4,0-.3,0-.6.4-.7.3,0,.6,0,.7.4Z"/>
            <path class="cls-122" d="M935.5,96.9c0,.3,0,.6-.4.7-.3,0-.6,0-.7-.4,0-.3,0-.6.4-.7.3,0,.6,0,.7.4Z"/>
            <path class="cls-164" d="M936.1,96.5c0,.3,0,.6-.4.7-.3,0-.6,0-.7-.4,0-.3,0-.6.4-.7.3,0,.6,0,.7.4Z"/>
            <path class="cls-136" d="M936.7,96c0,.3,0,.6-.4.7-.3,0-.6,0-.7-.4,0-.3,0-.6.4-.7.3,0,.6,0,.7.4Z"/>
            <path class="cls-90" d="M937.2,95.6c0,.3,0,.6-.4.7-.3,0-.6,0-.7-.4,0-.3,0-.6.4-.7.3,0,.6,0,.7.4Z"/>
            <path class="cls-8" d="M937.8,95.2c0,.3,0,.6-.4.7-.3,0-.6,0-.7-.4,0-.3,0-.6.4-.7.3,0,.6,0,.7.4Z"/>
            <path class="cls-89" d="M938.4,94.7c0,.3,0,.6-.4.7-.3,0-.6,0-.7-.4,0-.3,0-.6.4-.7.3,0,.6,0,.7.4Z"/>
            <path class="cls-133" d="M939,94.3c0,.3,0,.6-.4.7-.3,0-.6,0-.7-.4,0-.3,0-.6.4-.7.3,0,.6,0,.7.4Z"/>
          </g>
          <g class="cls-177">
            <path class="cls-160" d="M937.1,107.4c0,.3,0,.6-.4.7-.3,0-.6,0-.7-.4,0-.3,0-.6.4-.7.3,0,.6,0,.7.4Z"/>
            <path class="cls-126" d="M937.5,107c0,.3,0,.6-.4.7-.3,0-.6,0-.7-.4,0-.3,0-.6.4-.7.3,0,.6,0,.7.4Z"/>
            <path class="cls-125" d="M937.8,106.7c0,.3,0,.6-.4.7-.3,0-.6,0-.7-.4,0-.3,0-.6.4-.7.3,0,.6,0,.7.4Z"/>
            <path class="cls-128" d="M938.2,106.4c0,.3,0,.6-.4.7-.3,0-.6,0-.7-.4,0-.3,0-.6.4-.7.3,0,.6,0,.7.4Z"/>
            <path class="cls-146" d="M938.6,106.1c0,.3,0,.6-.4.7-.3,0-.6,0-.7-.4,0-.3,0-.6.4-.7.3,0,.6,0,.7.4Z"/>
            <path class="cls-149" d="M939,105.8c0,.3,0,.6-.4.7-.3,0-.6,0-.7-.4,0-.3,0-.6.4-.7.3,0,.6,0,.7.4Z"/>
            <path class="cls-134" d="M939.4,105.5c0,.3,0,.6-.4.7-.3,0-.6,0-.7-.4,0-.3,0-.6.4-.7.3,0,.6,0,.7.4Z"/>
            <path class="cls-170" d="M939.8,105.2c0,.3,0,.6-.4.7-.3,0-.6,0-.7-.4,0-.3,0-.6.4-.7.3,0,.6,0,.7.4Z"/>
            <path class="cls-163" d="M940.2,104.9c0,.3,0,.6-.4.7-.3,0-.6,0-.7-.4,0-.3,0-.6.4-.7.3,0,.6,0,.7.4Z"/>
            <path class="cls-150" d="M940.6,104.5c0,.3,0,.6-.4.7-.3,0-.6,0-.7-.4,0-.3,0-.6.4-.7.3,0,.6,0,.7.4Z"/>
            <path class="cls-158" d="M941,104.2c0,.3,0,.6-.3.7-.3,0-.6,0-.7-.3,0-.3,0-.6.3-.7.3,0,.6,0,.7.4Z"/>
            <path class="cls-3" d="M941.3,103.9c0,.3,0,.6-.3.6-.3,0-.6,0-.6-.3,0-.3,0-.6.3-.7.3,0,.6,0,.6.3Z"/>
            <path class="cls-7" d="M941.7,103.6c0,.3,0,.6-.3.6-.3,0-.6,0-.6-.3,0-.3,0-.6.3-.6.3,0,.6,0,.6.3Z"/>
            <path class="cls-155" d="M942.1,103.3c0,.3,0,.6-.3.6-.3,0-.6,0-.6-.3,0-.3,0-.6.3-.6.3,0,.6,0,.6.3Z"/>
            <path class="cls-152" d="M942.5,103c0,.3,0,.6-.3.6-.3,0-.6,0-.6-.3,0-.3,0-.6.3-.6.3,0,.6,0,.6.3Z"/>
            <path class="cls-18" d="M942.9,102.7c0,.3,0,.6-.3.6-.3,0-.6,0-.6-.3,0-.3,0-.6.3-.6.3,0,.6,0,.6.3Z"/>
            <path class="cls-97" d="M943.3,102.3c0,.3,0,.5-.3.6-.3,0-.5,0-.6-.3,0-.3,0-.5.3-.6.3,0,.5,0,.6.3Z"/>
            <path class="cls-93" d="M943.7,102c0,.3,0,.5-.3.6-.3,0-.5,0-.6-.3,0-.3,0-.5.3-.6.3,0,.5,0,.6.3Z"/>
            <path class="cls-88" d="M944.1,101.7c0,.3,0,.5-.3.6-.3,0-.5,0-.6-.3,0-.3,0-.5.3-.6.3,0,.5,0,.6.3Z"/>
            <path class="cls-106" d="M944.5,101.4c0,.3,0,.5-.3.6-.3,0-.5,0-.6-.3,0-.3,0-.5.3-.6.3,0,.5,0,.6.3Z"/>
            <path class="cls-104" d="M944.9,101.1c0,.3,0,.5-.3.6-.3,0-.5,0-.6-.3,0-.3,0-.5.3-.6.3,0,.5,0,.6.3Z"/>
            <path class="cls-102" d="M945.2,100.8c0,.3,0,.5-.3.6-.3,0-.5,0-.6-.3,0-.3,0-.5.3-.6.3,0,.5,0,.6.3Z"/>
            <path class="cls-99" d="M945.6,100.5c0,.3,0,.5-.3.6-.3,0-.5,0-.6-.3,0-.3,0-.5.3-.6.3,0,.5,0,.6.3Z"/>
            <path class="cls-117" d="M946,100.2c0,.3,0,.5-.3.6-.3,0-.5,0-.6-.3,0-.3,0-.5.3-.6.3,0,.5,0,.6.3Z"/>
            <path class="cls-118" d="M946.4,99.8c0,.3,0,.5-.3.6-.3,0-.5,0-.6-.3,0-.3,0-.5.3-.6.3,0,.5,0,.6.3Z"/>
            <path class="cls-116" d="M946.8,99.5c0,.3,0,.5-.3.6-.3,0-.5,0-.6-.3,0-.3,0-.5.3-.6.3,0,.5,0,.6.3Z"/>
            <path class="cls-130" d="M947.2,99.2c0,.2,0,.5-.3.6-.2,0-.5,0-.6-.3,0-.2,0-.5.3-.6.2,0,.5,0,.6.3Z"/>
            <path class="cls-153" d="M947.6,98.9c0,.2,0,.5-.3.6-.2,0-.5,0-.6-.3,0-.2,0-.5.3-.6.2,0,.5,0,.6.3Z"/>
            <path class="cls-147" d="M948,98.6c0,.2,0,.5-.3.6-.2,0-.5,0-.6-.3,0-.2,0-.5.3-.6.2,0,.5,0,.6.3Z"/>
            <path class="cls-172" d="M948.4,98.3c0,.2,0,.5-.3.6-.2,0-.5,0-.6-.3,0-.2,0-.5.3-.6.2,0,.5,0,.6.3Z"/>
            <path class="cls-159" d="M948.7,98c0,.2,0,.5-.3.6-.2,0-.5,0-.6-.3,0-.2,0-.5.3-.6.2,0,.5,0,.6.3Z"/>
            <path class="cls-1" d="M949.1,97.7c0,.2,0,.5-.3.6-.2,0-.5,0-.6-.3,0-.2,0-.5.3-.6.2,0,.5,0,.6.3Z"/>
            <path class="cls-11" d="M949.5,97.3c0,.2,0,.5-.3.6-.2,0-.5,0-.6-.3,0-.2,0-.5.3-.6.2,0,.5,0,.6.3Z"/>
            <path class="cls-10" d="M949.9,97c0,.2,0,.5-.3.6-.2,0-.5,0-.6-.3,0-.2,0-.5.3-.6.2,0,.5,0,.6.3Z"/>
            <path class="cls-96" d="M950.3,96.7c0,.2,0,.5-.3.6-.2,0-.5,0-.6-.3,0-.2,0-.5.3-.6.2,0,.5,0,.6.3Z"/>
            <path class="cls-107" d="M950.7,96.4c0,.2,0,.5-.3.5-.2,0-.5,0-.5-.3,0-.2,0-.5.3-.5.2,0,.5,0,.5.3Z"/>
            <path class="cls-98" d="M951.1,96.1c0,.2,0,.5-.3.5-.2,0-.5,0-.5-.3s0-.5.3-.5c.2,0,.5,0,.5.3Z"/>
            <path class="cls-121" d="M951.5,95.8c0,.2,0,.5-.3.5-.2,0-.5,0-.5-.3s0-.5.3-.5c.2,0,.5,0,.5.3Z"/>
            <path class="cls-115" d="M951.9,95.5c0,.2,0,.5-.3.5-.2,0-.5,0-.5-.3s0-.5.3-.5c.2,0,.5,0,.5.3Z"/>
            <path class="cls-156" d="M952.3,95.1c0,.2,0,.5-.3.5-.2,0-.5,0-.5-.3s0-.5.3-.5c.2,0,.5,0,.5.3Z"/>
            <path class="cls-165" d="M952.6,94.8c0,.2,0,.5-.3.5-.2,0-.5,0-.5-.3s0-.5.3-.5c.2,0,.5,0,.5.3Z"/>
            <path class="cls-2" d="M953,94.5c0,.2,0,.5-.3.5-.2,0-.5,0-.5-.3s0-.5.3-.5c.2,0,.5,0,.5.3Z"/>
            <path class="cls-12" d="M953.4,94.2c0,.2,0,.5-.3.5-.2,0-.5,0-.5-.3s0-.5.3-.5c.2,0,.5,0,.5.3Z"/>
            <path class="cls-114" d="M953.8,93.9c0,.2,0,.4-.3.5-.2,0-.4,0-.5-.3s0-.4.3-.5c.2,0,.4,0,.5.3Z"/>
            <path class="cls-120" d="M954.2,93.6c0,.2,0,.4-.3.5-.2,0-.4,0-.5-.3s0-.4.3-.5c.2,0,.4,0,.5.3Z"/>
            <path class="cls-122" d="M954.6,93.3c0,.2,0,.4-.3.5-.2,0-.4,0-.5-.3s0-.4.3-.5c.2,0,.4,0,.5.3Z"/>
            <path class="cls-164" d="M955,93c0,.2,0,.4-.3.5-.2,0-.4,0-.5-.3s0-.4.3-.5c.2,0,.4,0,.5.3Z"/>
            <path class="cls-136" d="M955.4,92.6c0,.2,0,.4-.3.5-.2,0-.4,0-.5-.3s0-.4.3-.5c.2,0,.4,0,.5.3Z"/>
            <path class="cls-90" d="M955.8,92.3c0,.2,0,.4-.3.5-.2,0-.4,0-.5-.3s0-.4.3-.5c.2,0,.4,0,.5.3Z"/>
            <path class="cls-8" d="M956.1,92c0,.2,0,.4-.3.5-.2,0-.4,0-.5-.3s0-.4.3-.5c.2,0,.4,0,.5.3Z"/>
            <path class="cls-89" d="M956.5,91.7c0,.2,0,.4-.3.5-.2,0-.4,0-.5-.3s0-.4.3-.5c.2,0,.4,0,.5.3Z"/>
            <path class="cls-133" d="M956.9,91.4c0,.2,0,.4-.3.5-.2,0-.4,0-.5-.3,0-.2,0-.4.3-.5.2,0,.4,0,.5.3Z"/>
          </g>
          <g class="cls-178">
            <path class="cls-160" d="M905.9,135.9c0,.1,0,.2-.2.3-.1,0-.2,0-.3-.2,0-.1,0-.2.2-.3.1,0,.2,0,.3.2Z"/>
            <path class="cls-126" d="M906,135.8c0,.1,0,.2-.2.3-.1,0-.2,0-.3-.2,0-.1,0-.2.2-.3s.2,0,.3.2Z"/>
            <path class="cls-125" d="M906.2,135.7c0,.1,0,.2-.2.3-.1,0-.2,0-.3-.2,0-.1,0-.2.2-.3s.2,0,.3.2Z"/>
            <path class="cls-128" d="M906.3,135.6c0,.1,0,.2-.2.3-.1,0-.2,0-.3-.2,0-.1,0-.2.2-.3s.2,0,.3.2Z"/>
            <path class="cls-146" d="M906.5,135.4c0,.1,0,.2-.2.3-.1,0-.2,0-.3-.2,0-.1,0-.2.2-.3s.2,0,.3.2Z"/>
            <path class="cls-149" d="M906.7,135.3c0,.1,0,.2-.2.3-.1,0-.2,0-.3-.2,0-.1,0-.2.2-.3s.2,0,.3.2Z"/>
            <path class="cls-134" d="M906.8,135.2c0,.1,0,.2-.2.3-.1,0-.2,0-.3-.2,0-.1,0-.2.2-.3s.2,0,.3.2Z"/>
            <path class="cls-170" d="M907,135.1c0,.1,0,.2-.2.2-.1,0-.2,0-.2-.2,0-.1,0-.2.2-.2s.2,0,.2.2Z"/>
            <path class="cls-163" d="M907.1,135c0,.1,0,.2-.2.2-.1,0-.2,0-.2-.1,0-.1,0-.2.2-.2s.2,0,.2.2Z"/>
            <path class="cls-150" d="M907.3,134.9c0,.1,0,.2-.1.2-.1,0-.2,0-.2-.1,0-.1,0-.2.1-.2s.2,0,.2.1Z"/>
            <path class="cls-158" d="M907.4,134.8c0,.1,0,.2-.1.2-.1,0-.2,0-.2-.1,0-.1,0-.2.1-.2s.2,0,.2.1Z"/>
            <path class="cls-3" d="M907.6,134.7c0,.1,0,.2-.1.2-.1,0-.2,0-.2-.1,0-.1,0-.2.1-.2s.2,0,.2.1Z"/>
            <path class="cls-7" d="M907.7,134.5c0,.1,0,.2-.1.2-.1,0-.2,0-.2-.1,0-.1,0-.2.1-.2s.2,0,.2.1Z"/>
            <path class="cls-155" d="M907.9,134.4c0,.1,0,.2-.1.2-.1,0-.2,0-.2-.1,0-.1,0-.2.1-.2s.2,0,.2.1Z"/>
            <path class="cls-152" d="M908.1,134.3c0,.1,0,.2-.1.2-.1,0-.2,0-.2-.1,0-.1,0-.2.1-.2.1,0,.2,0,.2.1Z"/>
            <path class="cls-18" d="M908.2,134.2c0,.1,0,.2-.1.2-.1,0-.2,0-.2-.1,0-.1,0-.2.1-.2.1,0,.2,0,.2.1Z"/>
            <path class="cls-97" d="M908.4,134.1c0,.1,0,.2-.1.2-.1,0-.2,0-.2-.1,0-.1,0-.2.1-.2.1,0,.2,0,.2.1Z"/>
            <path class="cls-93" d="M908.5,134c0,.1,0,.2-.1.2-.1,0-.2,0-.2-.1,0-.1,0-.2.1-.2.1,0,.2,0,.2.1Z"/>
            <path class="cls-88" d="M908.7,133.9c0,.1,0,.2-.1.2-.1,0-.2,0-.2-.1,0-.1,0-.2.1-.2.1,0,.2,0,.2.1Z"/>
            <path class="cls-106" d="M908.8,133.8c0,.1,0,.2-.1.2-.1,0-.2,0-.2-.1,0-.1,0-.2.1-.2.1,0,.2,0,.2.1Z"/>
            <path class="cls-104" d="M909,133.6c0,.1,0,.2-.1.2-.1,0-.2,0-.2-.1,0-.1,0-.2.1-.2.1,0,.2,0,.2.1Z"/>
            <path class="cls-102" d="M909.2,133.5c0,.1,0,.2-.1.2-.1,0-.2,0-.2-.1,0-.1,0-.2.1-.2.1,0,.2,0,.2.1Z"/>
            <path class="cls-99" d="M909.3,133.4c0,0,0,.2-.1.2-.1,0-.2,0-.2-.1,0-.1,0-.2.1-.2,0,0,.2,0,.2.1Z"/>
            <path class="cls-117" d="M909.5,133.3c0,0,0,.2-.1.2,0,0-.2,0-.2-.1,0,0,0-.2.1-.2,0,0,.2,0,.2.1Z"/>
            <path class="cls-118" d="M909.6,133.2c0,0,0,.2-.1.2,0,0-.2,0-.2-.1,0,0,0-.2.1-.2,0,0,.2,0,.2.1Z"/>
            <path class="cls-116" d="M909.8,133.1c0,0,0,.2-.1.2,0,0-.2,0-.2-.1,0,0,0-.2.1-.2,0,0,.2,0,.2.1Z"/>
            <path class="cls-130" d="M909.9,133c0,0,0,.2-.1.2,0,0-.2,0-.2-.1,0,0,0-.2.1-.2,0,0,.2,0,.2.1Z"/>
            <path class="cls-153" d="M910.1,132.9c0,0,0,.2-.1.2,0,0-.2,0-.2-.1,0,0,0-.2.1-.2,0,0,.2,0,.2.1Z"/>
            <path class="cls-147" d="M910.3,132.7c0,0,0,.2-.1.2,0,0-.2,0-.2-.1,0,0,0-.2.1-.2,0,0,.2,0,.2.1Z"/>
            <path class="cls-172" d="M910.4,132.6c0,0,0,.2-.1.2,0,0-.2,0-.2-.1,0,0,0-.2.1-.2,0,0,.2,0,.2.1Z"/>
            <path class="cls-159" d="M910.6,132.5c0,0,0,.2-.1.2,0,0-.2,0-.2-.1,0,0,0-.2.1-.2,0,0,.2,0,.2.1Z"/>
            <path class="cls-1" d="M910.7,132.4c0,0,0,.2-.1.2,0,0-.2,0-.2-.1,0,0,0-.2.1-.2,0,0,.2,0,.2.1Z"/>
            <path class="cls-11" d="M910.9,132.3c0,0,0,.2-.1.2,0,0-.2,0-.2-.1,0,0,0-.2.1-.2,0,0,.2,0,.2.1Z"/>
            <path class="cls-10" d="M911,132.2c0,0,0,.2-.1.2,0,0-.2,0-.2-.1s0-.2.1-.2c0,0,.2,0,.2.1Z"/>
            <path class="cls-96" d="M911.2,132.1c0,0,0,.2-.1.2,0,0-.2,0-.2-.1s0-.2.1-.2c0,0,.2,0,.2.1Z"/>
            <path class="cls-107" d="M911.3,132c0,0,0,.2-.1.2,0,0-.2,0-.2-.1s0-.2.1-.2c0,0,.2,0,.2.1Z"/>
            <path class="cls-98" d="M911.5,131.9c0,0,0,.2-.1.2,0,0-.2,0-.2-.1s0-.2.1-.2c0,0,.2,0,.2.1Z"/>
            <path class="cls-121" d="M911.7,131.7c0,0,0,.2-.1.2,0,0-.2,0-.2-.1s0-.2.1-.2c0,0,.2,0,.2.1Z"/>
            <path class="cls-115" d="M911.8,131.6c0,0,0,.2-.1.2,0,0-.2,0-.2-.1s0-.2.1-.2c0,0,.2,0,.2.1Z"/>
            <path class="cls-156" d="M912,131.5c0,0,0,.2-.1.2,0,0-.2,0-.2-.1s0-.2.1-.2c0,0,.2,0,.2.1Z"/>
            <path class="cls-165" d="M912.1,131.4c0,0,0,.2-.1.2,0,0-.2,0-.2-.1s0-.2.1-.2c0,0,.2,0,.2.1Z"/>
            <path class="cls-2" d="M912.3,131.3c0,0,0,.2-.1.2,0,0-.2,0-.2-.1s0-.2.1-.2c0,0,.2,0,.2.1Z"/>
            <path class="cls-12" d="M912.4,131.2c0,0,0,.2-.1.2,0,0-.2,0-.2-.1s0-.2.1-.2c0,0,.2,0,.2.1Z"/>
            <path class="cls-114" d="M912.6,131.1c0,0,0,.2-.1.2,0,0-.2,0-.2-.1s0-.2.1-.2c0,0,.2,0,.2.1Z"/>
            <path class="cls-120" d="M912.8,131c0,0,0,.2-.1.2,0,0-.2,0-.2-.1s0-.2.1-.2c0,0,.2,0,.2.1Z"/>
            <path class="cls-122" d="M912.9,130.8c0,0,0,.2-.1.2,0,0-.2,0-.2-.1s0-.2.1-.2c0,0,.2,0,.2.1Z"/>
            <path class="cls-164" d="M913.1,130.7c0,0,0,.2-.1.2,0,0-.2,0-.2-.1s0-.2.1-.2c0,0,.2,0,.2.1Z"/>
            <path class="cls-136" d="M913.2,130.6c0,0,0,.2-.1.2,0,0-.2,0-.2-.1s0-.2.1-.2c0,0,.2,0,.2.1Z"/>
            <path class="cls-90" d="M913.4,130.5c0,0,0,.2-.1.2,0,0-.2,0-.2-.1s0-.2.1-.2c0,0,.2,0,.2.1Z"/>
            <path class="cls-8" d="M913.5,130.4c0,0,0,.2-.1.2s-.2,0-.2-.1,0-.2.1-.2c0,0,.2,0,.2.1Z"/>
            <path class="cls-89" d="M913.7,130.3c0,0,0,.2-.1.2s-.2,0-.2-.1,0-.2.1-.2c0,0,.2,0,.2.1Z"/>
            <path class="cls-133" d="M913.8,130.2c0,0,0,.2-.1.2,0,0-.2,0-.2-.1,0,0,0-.2.1-.2,0,0,.2,0,.2.1Z"/>
          </g>
          <g class="cls-178">
            <path class="cls-160" d="M931.7,44.1c0,.2,0,.5-.3.6s-.5,0-.6-.3c0-.2,0-.5.3-.6.2,0,.5,0,.6.3Z"/>
            <path class="cls-126" d="M932,43.8c0,.2,0,.5-.3.6-.2,0-.5,0-.6-.3,0-.2,0-.5.3-.6.2,0,.5,0,.6.3Z"/>
            <path class="cls-125" d="M932.3,43.6c0,.2,0,.5-.3.5-.2,0-.5,0-.5-.3,0-.2,0-.5.3-.5.2,0,.5,0,.5.3Z"/>
            <path class="cls-128" d="M932.7,43.4c0,.2,0,.5-.3.5-.2,0-.5,0-.5-.3,0-.2,0-.5.3-.5.2,0,.5,0,.5.3Z"/>
            <path class="cls-146" d="M933,43.1c0,.2,0,.5-.3.5-.2,0-.5,0-.5-.3,0-.2,0-.5.3-.5.2,0,.5,0,.5.3Z"/>
            <path class="cls-149" d="M933.3,42.9c0,.2,0,.5-.3.5-.2,0-.5,0-.5-.3,0-.2,0-.5.3-.5.2,0,.5,0,.5.3Z"/>
            <path class="cls-134" d="M933.7,42.6c0,.2,0,.5-.3.5-.2,0-.5,0-.5-.3,0-.2,0-.5.3-.5.2,0,.5,0,.5.3Z"/>
            <path class="cls-170" d="M934,42.4c0,.2,0,.5-.3.5-.2,0-.5,0-.5-.3,0-.2,0-.5.3-.5.2,0,.5,0,.5.3Z"/>
            <path class="cls-163" d="M934.3,42.2c0,.2,0,.5-.3.5-.2,0-.5,0-.5-.3,0-.2,0-.5.3-.5.2,0,.5,0,.5.3Z"/>
            <path class="cls-150" d="M934.7,41.9c0,.2,0,.5-.3.5-.2,0-.5,0-.5-.3,0-.2,0-.5.3-.5.2,0,.5,0,.5.3Z"/>
            <path class="cls-158" d="M935,41.7c0,.2,0,.5-.3.5-.2,0-.5,0-.5-.3,0-.2,0-.5.3-.5.2,0,.5,0,.5.3Z"/>
            <path class="cls-3" d="M935.3,41.4c0,.2,0,.5-.3.5-.2,0-.5,0-.5-.3,0-.2,0-.5.3-.5.2,0,.5,0,.5.3Z"/>
            <path class="cls-7" d="M935.7,41.2c0,.2,0,.5-.3.5-.2,0-.5,0-.5-.3,0-.2,0-.5.3-.5.2,0,.5,0,.5.3Z"/>
            <path class="cls-155" d="M936,41c0,.2,0,.5-.3.5-.2,0-.5,0-.5-.3,0-.2,0-.5.3-.5.2,0,.5,0,.5.3Z"/>
            <path class="cls-152" d="M936.3,40.7c0,.2,0,.5-.3.5-.2,0-.5,0-.5-.3,0-.2,0-.5.3-.5.2,0,.5,0,.5.3Z"/>
            <path class="cls-18" d="M936.7,40.5c0,.2,0,.4-.3.5-.2,0-.4,0-.5-.3,0-.2,0-.5.3-.5.2,0,.4,0,.5.3Z"/>
            <path class="cls-97" d="M937,40.2c0,.2,0,.4-.3.5-.2,0-.4,0-.5-.3,0-.2,0-.4.3-.5.2,0,.4,0,.5.3Z"/>
            <path class="cls-93" d="M937.3,40c0,.2,0,.4-.3.5-.2,0-.4,0-.5-.3,0-.2,0-.4.3-.5.2,0,.4,0,.5.3Z"/>
            <path class="cls-88" d="M937.7,39.8c0,.2,0,.4-.3.5-.2,0-.4,0-.5-.3,0-.2,0-.4.3-.5.2,0,.4,0,.5.3Z"/>
            <path class="cls-106" d="M938,39.5c0,.2,0,.4-.3.5-.2,0-.4,0-.5-.3,0-.2,0-.4.3-.5.2,0,.4,0,.5.3Z"/>
            <path class="cls-104" d="M938.3,39.3c0,.2,0,.4-.3.5-.2,0-.4,0-.5-.3,0-.2,0-.4.3-.5.2,0,.4,0,.5.3Z"/>
            <path class="cls-102" d="M938.7,39c0,.2,0,.4-.3.5-.2,0-.4,0-.5-.3,0-.2,0-.4.3-.5.2,0,.4,0,.5.3Z"/>
            <path class="cls-99" d="M939,38.8c0,.2,0,.4-.3.5-.2,0-.4,0-.5-.3,0-.2,0-.4.3-.5.2,0,.4,0,.5.3Z"/>
            <path class="cls-117" d="M939.3,38.6c0,.2,0,.4-.3.5-.2,0-.4,0-.5-.3,0-.2,0-.4.3-.5.2,0,.4,0,.5.3Z"/>
            <path class="cls-118" d="M939.7,38.3c0,.2,0,.4-.3.5-.2,0-.4,0-.5-.3,0-.2,0-.4.3-.5.2,0,.4,0,.5.3Z"/>
            <path class="cls-116" d="M940,38.1c0,.2,0,.4-.3.5-.2,0-.4,0-.5-.3,0-.2,0-.4.3-.5.2,0,.4,0,.5.3Z"/>
            <path class="cls-130" d="M940.3,37.8c0,.2,0,.4-.3.5-.2,0-.4,0-.5-.3,0-.2,0-.4.3-.5.2,0,.4,0,.5.3Z"/>
            <path class="cls-153" d="M940.7,37.6c0,.2,0,.4-.3.5-.2,0-.4,0-.5-.3,0-.2,0-.4.3-.5.2,0,.4,0,.5.3Z"/>
            <path class="cls-147" d="M941,37.4c0,.2,0,.4-.3.5-.2,0-.4,0-.5-.3,0-.2,0-.4.3-.5.2,0,.4,0,.5.3Z"/>
            <path class="cls-172" d="M941.3,37.1c0,.2,0,.4-.3.5-.2,0-.4,0-.5-.3,0-.2,0-.4.3-.5.2,0,.4,0,.5.3Z"/>
            <path class="cls-159" d="M941.7,36.9c0,.2,0,.4-.3.5-.2,0-.4,0-.5-.3,0-.2,0-.4.3-.5.2,0,.4,0,.5.3Z"/>
            <path class="cls-1" d="M942,36.6c0,.2,0,.4-.3.5s-.4,0-.5-.3c0-.2,0-.4.3-.5.2,0,.4,0,.5.3Z"/>
            <path class="cls-11" d="M942.3,36.4c0,.2,0,.4-.3.4s-.4,0-.4-.3c0-.2,0-.4.3-.4.2,0,.4,0,.4.3Z"/>
            <path class="cls-10" d="M942.7,36.2c0,.2,0,.4-.3.4s-.4,0-.4-.3,0-.4.3-.4c.2,0,.4,0,.4.3Z"/>
            <path class="cls-96" d="M943,35.9c0,.2,0,.4-.3.4s-.4,0-.4-.3,0-.4.3-.4c.2,0,.4,0,.4.3Z"/>
            <path class="cls-107" d="M943.3,35.7c0,.2,0,.4-.3.4s-.4,0-.4-.3,0-.4.3-.4c.2,0,.4,0,.4.3Z"/>
            <path class="cls-98" d="M943.7,35.4c0,.2,0,.4-.3.4s-.4,0-.4-.3,0-.4.3-.4c.2,0,.4,0,.4.3Z"/>
            <path class="cls-121" d="M944,35.2c0,.2,0,.4-.3.4s-.4,0-.4-.3,0-.4.3-.4c.2,0,.4,0,.4.3Z"/>
            <path class="cls-115" d="M944.3,35c0,.2,0,.4-.3.4s-.4,0-.4-.3,0-.4.3-.4c.2,0,.4,0,.4.3Z"/>
            <path class="cls-156" d="M944.7,34.7c0,.2,0,.4-.3.4s-.4,0-.4-.3,0-.4.3-.4c.2,0,.4,0,.4.3Z"/>
            <path class="cls-165" d="M945,34.5c0,.2,0,.4-.3.4s-.4,0-.4-.3,0-.4.3-.4c.2,0,.4,0,.4.3Z"/>
            <path class="cls-2" d="M945.3,34.2c0,.2,0,.4-.3.4s-.4,0-.4-.3,0-.4.3-.4c.2,0,.4,0,.4.3Z"/>
            <path class="cls-12" d="M945.7,34c0,.2,0,.4-.3.4s-.4,0-.4-.3,0-.4.3-.4c.2,0,.4,0,.4.3Z"/>
            <path class="cls-114" d="M946,33.8c0,.2,0,.4-.2.4s-.4,0-.4-.2,0-.4.2-.4c.2,0,.4,0,.4.2Z"/>
            <path class="cls-120" d="M946.3,33.5c0,.2,0,.4-.2.4s-.4,0-.4-.2,0-.4.2-.4c.2,0,.4,0,.4.2Z"/>
            <path class="cls-122" d="M946.7,33.3c0,.2,0,.4-.2.4s-.4,0-.4-.2,0-.4.2-.4c.2,0,.4,0,.4.2Z"/>
            <path class="cls-164" d="M947,33c0,.2,0,.4-.2.4s-.4,0-.4-.2,0-.4.2-.4c.2,0,.4,0,.4.2Z"/>
            <path class="cls-136" d="M947.3,32.8c0,.2,0,.4-.2.4s-.4,0-.4-.2,0-.4.2-.4c.2,0,.4,0,.4.2Z"/>
            <path class="cls-90" d="M947.7,32.6c0,.2,0,.4-.2.4s-.4,0-.4-.2,0-.4.2-.4c.2,0,.4,0,.4.2Z"/>
            <path class="cls-8" d="M948,32.3c0,.2,0,.3-.2.4s-.3,0-.4-.2,0-.3.2-.4c.2,0,.3,0,.4.2Z"/>
            <path class="cls-89" d="M948.4,32.1c0,.2,0,.3-.2.4s-.3,0-.4-.2,0-.3.2-.4c.2,0,.3,0,.4.2Z"/>
            <path class="cls-133" d="M948.7,31.8c0,.2,0,.3-.2.4-.2,0-.3,0-.4-.2,0-.2,0-.3.2-.4.2,0,.3,0,.4.2Z"/>
          </g>
        </g>
        <g>
          <rect class="cls-138" x="899.1" y="41.5" width="1.8" height="1.8"/>
          <rect class="cls-139" x="873.6" y="73" width="1.9" height="1.9"/>
          <rect class="cls-137" x="966.8" y="79.1" width="1.1" height="1.1"/>
          <rect class="cls-143" x="950.1" y="59.9" width=".5" height=".5"/>
          <rect class="cls-144" x="912" y="24.9" width=".5" height=".5"/>
          <rect class="cls-142" x="940.7" y="25.6" width=".5" height=".5"/>
          <rect class="cls-140" x="936.2" y="47.1" width=".5" height=".5"/>
          <rect class="cls-141" x="866.6" y="66.8" width=".5" height=".5"/>
          <rect class="cls-35" x="868.8" y="85.7" width=".5" height=".5"/>
          <rect class="cls-32" x="902.7" y="48.8" width=".5" height=".5"/>
          <rect class="cls-33" x="902.1" y="76.6" width=".5" height=".5"/>
          <rect class="cls-34" x="881.2" y="72.3" width=".5" height=".5"/>
          <rect class="cls-43" x="905.4" y="43" width=".3" height=".3"/>
          <rect class="cls-39" x="904.1" y="31.8" width=".3" height=".3"/>
          <rect class="cls-37" x="884" y="53.7" width=".3" height=".3"/>
          <rect class="cls-36" x="884.4" y="37.2" width=".3" height=".3"/>
          <rect class="cls-42" x="896.7" y="39.8" width=".3" height=".3"/>
          <rect class="cls-38" x="894.8" y="128" width=".8" height=".8"/>
          <rect class="cls-45" x="905.7" y="141.3" width=".5" height=".5"/>
          <rect class="cls-41" x="925.2" y="139.1" width=".5" height=".5"/>
          <rect class="cls-44" x="887.1" y="104.1" width=".5" height=".5"/>
          <rect class="cls-40" x="915.8" y="104.8" width=".5" height=".5"/>
          <rect class="cls-47" x="911.4" y="126.3" width=".5" height=".5"/>
          <rect class="cls-31" x="874.6" y="113.4" width=".3" height=".3"/>
          <rect class="cls-48" x="885.8" y="112.1" width=".3" height=".3"/>
          <rect class="cls-46" x="863.9" y="91.9" width=".3" height=".3"/>
          <rect class="cls-30" x="880.4" y="92.3" width=".3" height=".3"/>
          <rect class="cls-21" x="877.9" y="104.7" width=".3" height=".3"/>
          <rect class="cls-23" x="974.9" y="94.2" width=".8" height=".8"/>
          <rect class="cls-24" x="876.6" y="114.6" width="1.7" height="1.7"/>
          <rect class="cls-22" x="947.6" y="93" width=".8" height=".8"/>
          <rect class="cls-20" x="947.7" y="47.4" width="1.9" height="1.9"/>
          <rect class="cls-27" x="968.4" y="75.8" width=".8" height=".8"/>
          <rect class="cls-29" x="901.3" y="71.6" width=".8" height=".8"/>
          <rect class="cls-25" x="917.2" y="132.1" width=".3" height=".3" transform="translate(81.9 533.6) rotate(-33.9)"/>
          <rect class="cls-28" x="925.8" y="124.8" width=".3" height=".3" transform="translate(87.5 537.3) rotate(-33.9)"/>
          <rect class="cls-19" x="896.3" y="120.3" width=".3" height=".3" transform="translate(85 520) rotate(-33.9)"/>
          <rect class="cls-26" x="915" y="123.1" width=".3" height=".3" transform="translate(86.8 531.3) rotate(-33.9)"/>
          <rect class="cls-57" x="877.6" y="93" width=".8" height=".8"/>
          <rect class="cls-58" x="891.4" y="104.9" width=".8" height=".8"/>
          <rect class="cls-55" x="950.8" y="85.2" width=".3" height=".3"/>
          <rect class="cls-56" x="949.5" y="74" width=".3" height=".3"/>
          <rect class="cls-51" x="929.3" y="95.9" width=".3" height=".3"/>
          <rect class="cls-49" x="965.9" y="124.1" width=".3" height=".3"/>
          <rect class="cls-50" x="964.6" y="112.8" width=".3" height=".3"/>
          <rect class="cls-54" x="944.5" y="134.8" width=".3" height=".3"/>
          <rect class="cls-52" x="944.8" y="118.3" width=".3" height=".3"/>
          <rect class="cls-53" x="957.2" y="120.8" width=".3" height=".3"/>
          <rect class="cls-67" x="953.2" y="109.2" width=".3" height=".3"/>
          <rect class="cls-65" x="951.9" y="98" width=".3" height=".3"/>
          <rect class="cls-66" x="931.8" y="119.9" width=".3" height=".3"/>
          <rect class="cls-64" x="932.1" y="103.4" width=".3" height=".3"/>
          <rect class="cls-68" x="944.5" y="106" width=".3" height=".3"/>
          <rect class="cls-62" x="959.1" y="38.8" width=".2" height=".2" transform="translate(239.8 674.5) rotate(-43.8)"/>
          <polygon class="cls-63" points="954.2 34.6 954 34.5 953.9 34.6 954 34.7 954.2 34.6"/>
          <rect class="cls-60" x="954.3" y="52.1" width=".2" height=".2" transform="translate(230 675.8) rotate(-43.9)"/>
          <rect class="cls-61" x="947.7" y="44.9" width=".2" height=".2" transform="translate(233.1 669.2) rotate(-43.9)"/>
          <rect class="cls-59" x="954.1" y="40.9" width=".2" height=".2" transform="translate(235.7 670.3) rotate(-43.7)"/>
          <rect class="cls-69" x="976.1" y="60.2" width=".2" height=".2" transform="translate(229.8 692.3) rotate(-43.8)"/>
          <polygon class="cls-70" points="971.2 56 971 55.9 970.9 56 971 56.1 971.2 56"/>
          <rect class="cls-71" x="971.3" y="73.5" width=".2" height=".2" transform="translate(219.9 693.5) rotate(-43.9)"/>
          <polygon class="cls-81" points="964.7 66.4 964.8 66.5 964.9 66.4 964.8 66.3 964.7 66.4"/>
          <polygon class="cls-83" points="971 62.4 971.1 62.5 971.3 62.4 971.1 62.3 971 62.4"/>
          <rect class="cls-72" x="941" y="41.6" width=".3" height=".3"/>
          <rect class="cls-80" x="939.7" y="30.3" width=".3" height=".3"/>
          <rect class="cls-78" x="919.6" y="52.3" width=".3" height=".3"/>
          <rect class="cls-79" x="920" y="35.8" width=".3" height=".3"/>
          <rect class="cls-82" x="932.4" y="38.3" width=".3" height=".3"/>
          <rect class="cls-86" x="947.3" y="109.9" width=".3" height=".3"/>
          <rect class="cls-84" x="936" y="111.1" width=".3" height=".3"/>
          <rect class="cls-85" x="958" y="131.3" width=".3" height=".3"/>
          <rect class="cls-87" x="941.4" y="130.9" width=".3" height=".3"/>
          <path class="cls-77" d="M945.7,120.8s0,0,0,0c0,0,0,0,0,0-.1-.6-.4-1.2-.7-1.7,0,0,0,0,0,0-.2-.2-.4-.5-.6-.7,0,0,0,0,0,0-.4-.4-.8-.7-1.3-.9,0,0,0,0,0,0,0,0-.2,0-.3-.1,0,0-.1,0-.2,0-.3-.1-.5-.2-.8-.3,0,0-.1,0-.2,0-.3,0-.6,0-.9,0-2.8,0-5,2.3-5,5s0,.2,0,.3c0,0,0,0,0,0,0,1.1.5,2.1,1.2,2.9,0,0,0,0,0,0,0,0,0,0,.1.1.1.1.2.2.3.3,0,0,0,0,.1.1h0c.3.3.7.5,1.1.7,0,0,0,0,0,0,0,0,0,0,0,0,0,0,.1,0,.2,0,.3.1.5.2.8.2,0,0,0,0,.1,0,.3,0,.6,0,.9,0,2.8,0,5-2.3,5-5s0-.6,0-.9c0,0,0-.1,0-.2Z"/>
          <path class="cls-75" d="M962.3,69.6c-.9,0-1.6.7-1.6,1.6s.7,1.6,1.6,1.6,1.6-.7,1.6-1.6-.7-1.6-1.6-1.6Z"/>
          <circle class="cls-76" cx="887.3" cy="85.4" r="6.7"/>
          <path class="cls-74" d="M946.9,79.4c0-.2.1-.5.2-.7,0,0,0-.2,0-.3.1-.5.2-1.1.3-1.7,0-.1,0-.3,0-.4,0-.6,0-1.2,0-1.8,0-2.6-.5-5.2-1.5-7.5,0,0,0,0,0,0,0,0,0,0,0,0,0-.2-.2-.4-.2-.5-.2-.3-.3-.7-.5-1-.1-.2-.2-.4-.4-.7-.2-.3-.3-.6-.5-.8,0-.1-.2-.3-.3-.4.6-.9.9-1.9.9-3.1,0-3.1-2.5-5.6-5.6-5.6s-2.9.6-3.9,1.6c-.1,0-.2,0-.4-.1-.3-.1-.7-.3-1.1-.4-.2,0-.4-.1-.7-.2-.4-.1-.7-.2-1.1-.3-.2,0-.4-.1-.7-.1,0,0-.1,0-.2,0,0,0,0,0,0,0-1.1-.2-2.3-.3-3.5-.3-6.8,0-12.8,3.5-16.2,8.8,0,0,0,0,0,0,0,.1-.1.2-.2.3-.2.4-.5.8-.7,1.2,0,0,0,0,0,0-.7,1.4-1.3,2.9-1.7,4.4,0,.2-.1.4-.2.6,0,0,0,0,0,0,0,.3-.1.6-.2,1,0,0,0,0,0,0,0,.2,0,.4,0,.7,0,.2,0,.4,0,.6,0,.6,0,1.2,0,1.8s0,1.3,0,1.9c0,.3,0,.6.1.9,0,.3,0,.7.1,1,0,.4.2.7.3,1.1,0,.2.1.5.2.7.1.4.3.7.4,1.1,0,.2.1.4.2.5,0,0,0,0,0,0,0,.2.1.3.2.5,0,0,0,0,0,0,0,.1.1.2.2.3.2.5.4.9.7,1.4,0,.2.2.3.3.5.2.4.5.8.8,1.2.1.2.2.3.3.5.3.4.6.7.9,1.1.1.2.3.3.4.4.3.3.6.7.9,1,0,0,.1.1.2.2,0,0,0,0,0,0,.6.5,1.1,1,1.7,1.4,0,0,0,0,0,0,0,0,.2.1.2.2.4.3.7.5,1.1.7.2.1.4.2.6.3.4.2.8.4,1.2.6.2,0,.4.2.6.3.4.2.9.4,1.4.5.2,0,.3.1.5.2.6.2,1.1.3,1.7.5,0,0,.2,0,.2,0,0,0,0,0,0,0,1.3.3,2.6.4,4,.4,6.2,0,11.7-2.9,15.2-7.4,0,0,0,0,0,0,.3-.3.5-.7.8-1.1.1-.2.2-.3.3-.5.2-.3.4-.6.6-.9,0-.2.2-.3.3-.5.2-.4.4-.8.6-1.2,0,0,0,0,0,0,.4-1,.8-2,1-3,0,0,0,0,0,0Z"/>
          <path class="cls-73" d="M911.6,53.5c2.1,0,3.7-1.7,3.7-3.7s-1.7-3.7-3.7-3.7-3.7,1.7-3.7,3.7,1.7,3.7,3.7,3.7Z"/>
        </g>
      </g>
    </g>
  </g>
</svg>