<?xml version="1.0" encoding="UTF-8"?>
<svg id="Layer_2" data-name="Layer 2" xmlns="http://www.w3.org/2000/svg" viewBox="0 0 723.15 659.28">
  <defs>
    <style>
      .cls-1 {
        stroke-width: 0px;
      }
    </style>
  </defs>
  <g id="Layer_1-2" data-name="Layer 1">
    <g>
      <path class="cls-1" d="M504.57,221.31l-66.6-66.6c-1.08-1.09-2.01-2.27-2.79-3.52-9.75,10.86-35.19,44.17-161.78,170.76C160.25,435.1,5.88,565.58,5.88,565.58c-8.59,7.31-7.66,21.25,2.07,30.97l54.78,54.78c9.73,9.73,23.67,10.66,30.98,2.07,0,0,130.48-154.37,243.62-267.51,126.58-126.58,159.9-152.04,170.76-161.78-1.26-.8-2.44-1.72-3.52-2.8Z"/>
      <path class="cls-1" d="M464.54,119.3l-16.67,16.67c-2.43,2.43-2.43,6.41,0,8.84l66.6,66.6c2.43,2.43,6.41,2.43,8.84,0l16.67-16.67c22.94-22.94,52.5-17.69,72.67,2.48,20.17,20.17,13.73,32.15,19.53,37.95,5.8,5.8,26.53,26.53,29.57,29.57,3.04,3.04,24.55-11.28,37.12-23.86,12.57-12.57,26.9-34.08,23.86-37.12-3.04-3.04-23.76-23.76-29.57-29.57-5.8-5.8-17.78.64-37.95-19.53-20.17-20.17-10.5-47.35-21.19-58.03-10.69-10.68-39.52-39.52-57.94-57.94-69.64-69.64-228.54-27.73-247.14-9.12-14,14,5.16,11.79,11.79,11.79,13.45,0,107.59-10.32,141.85,23.95,19.9,19.9-18.05,53.98-18.05,53.98Z"/>
    </g>
  </g>
</svg>