<?xml version="1.0" encoding="UTF-8"?>
<svg id="Layer_2" data-name="Layer 2" xmlns="http://www.w3.org/2000/svg" viewBox="0 0 299.17 276.25">
  <defs>
    <style>
      .cls-1 {
        fill: #2b2b2b;
      }

      .cls-1, .cls-2 {
        stroke-width: 0px;
      }

      .cls-2 {
        fill: #fff;
      }
    </style>
  </defs>
  <g id="NETWORK_2" data-name="NETWORK 2">
    <path class="cls-1" d="M225.8,275.3h-16.62c-5.03,0-9.12-4.09-9.12-9.12v-25.54h-73.63v-1.81h73.63v-6.43c0-2.2,1.79-3.99,3.99-3.99h7.69c1.2,0,2.18-.98,2.18-2.18v-10.1c0-1.2-.98-2.18-2.18-2.18h-4.68c-2.2,0-3.99-1.79-3.99-3.99v-9.88c0-2.2,1.79-3.99,3.99-3.99h11.91c1.2,0,2.18-.98,2.18-2.18v-71.01c0-1.2-.98-2.18-2.18-2.18h-1.06c-1.2,0-2.18.98-2.18,2.18v27.06c0,2.2-1.79,3.99-3.99,3.99h-82.4c-2.2,0-3.99-1.79-3.99-3.99v-1.78c0-2.2,1.79-3.99,3.99-3.99h24.03c3.16,0,5.72-2.57,5.72-5.72v-4.34c0-3.27,2.66-5.93,5.93-5.93h14.79c1.2,0,2.18-.98,2.18-2.18v-37.78c0-1.96,1.6-3.56,3.56-3.56h26.19c1.2,0,2.18-.98,2.18-2.18v-30.03c0-1.2-.98-2.18-2.18-2.18h-53.93c-1.62,0-2.94-1.32-2.94-2.94v-3.31c0-1.62,1.32-2.94,2.94-2.94h10.55c1.2,0,2.18-.98,2.18-2.18V12.45h1.81v26.48c0,2.2-1.79,3.99-3.99,3.99h-10.55c-.62,0-1.13.51-1.13,1.13v3.31c0,.62.51,1.13,1.13,1.13h53.93c2.2,0,3.99,1.79,3.99,3.99v30.03c0,2.2-1.79,3.99-3.99,3.99h-26.19c-.97,0-1.75.79-1.75,1.75v37.78c0,2.2-1.79,3.99-3.99,3.99h-14.79c-2.27,0-4.12,1.85-4.12,4.12v4.34c0,4.15-3.38,7.53-7.53,7.53h-24.03c-1.2,0-2.18.98-2.18,2.18v1.78c0,1.2.98,2.18,2.18,2.18h82.4c1.2,0,2.18-.98,2.18-2.18v-27.06c0-2.2,1.79-3.99,3.99-3.99h1.06c2.2,0,3.99,1.79,3.99,3.99v71.01c0,2.2-1.79,3.99-3.99,3.99h-11.91c-1.2,0-2.18.98-2.18,2.18v9.88c0,1.2.98,2.18,2.18,2.18h4.68c2.2,0,3.99,1.79,3.99,3.99v10.1c0,2.2-1.79,3.99-3.99,3.99h-7.69c-1.2,0-2.18.98-2.18,2.18v6.43h23.93c5.03,0,9.12,4.09,9.12,9.12v18.23c0,5.03-4.09,9.12-9.12,9.12ZM201.87,240.65v25.54c0,4.03,3.28,7.31,7.31,7.31h16.62c4.03,0,7.31-3.28,7.31-7.31v-18.23c0-4.03-3.28-7.31-7.31-7.31h-23.93Z"/>
    <path class="cls-1" d="M242.88,199.38h-4.89c-2.2,0-3.99-1.79-3.99-3.99v-99.88c0-2.08-1.69-3.77-3.77-3.77h-24.78c-1.2,0-2.18.98-2.18,2.18v9.27c0,2.2-1.79,3.99-3.99,3.99h-8.29c-2.2,0-3.99-1.79-3.99-3.99v-5.17c0-2.2,1.79-3.99,3.99-3.99h3.07c1.2,0,2.18-.98,2.18-2.18v-6.25h1.81v6.25c0,2.2-1.79,3.99-3.99,3.99h-3.07c-1.2,0-2.18.98-2.18,2.18v5.17c0,1.2.98,2.18,2.18,2.18h8.29c1.2,0,2.18-.98,2.18-2.18v-9.27c0-2.2,1.79-3.99,3.99-3.99h24.78c3.07,0,5.57,2.5,5.57,5.57v99.88c0,1.2.98,2.18,2.18,2.18h4.89v1.81Z"/>
    <path class="cls-1" d="M189.67,194.5h-7.53c-3.07,0-5.57-2.5-5.57-5.57v-59.82h1.81v59.82c0,2.08,1.69,3.77,3.77,3.77h7.53c2.08,0,3.77-1.69,3.77-3.77v-35.87h1.81v35.87c0,3.07-2.5,5.57-5.57,5.57Z"/>
    <path class="cls-1" d="M236.64,174.97h-79.41c-2.74,0-4.97-2.23-4.97-4.97v-66.44c0-1.87,1.52-3.39,3.39-3.39h7.89c1.87,0,3.39,1.52,3.39,3.39v3.36c0,1.53,1.25,2.78,2.78,2.78h13.18v.6h-13.18c-1.87,0-3.39-1.52-3.39-3.38v-3.36c0-1.54-1.25-2.78-2.78-2.78h-7.89c-1.54,0-2.78,1.25-2.78,2.78v66.44c0,2.41,1.96,4.37,4.37,4.37h79.41c1.54,0,2.78-1.25,2.78-2.78v-41.1c0-5.7,4.64-10.34,10.34-10.34v.6c-5.37,0-9.74,4.37-9.74,9.74v41.1c0,1.87-1.52,3.39-3.39,3.39Z"/>
    <path class="cls-1" d="M263.32,161.65h-61.69c-1.87,0-3.39-1.52-3.39-3.39v-10.24c0-1.87,1.52-3.39,3.39-3.39h2.06c1.54,0,2.78-1.25,2.78-2.78v-43.31h12.72c2.73,0,4.95-2.22,4.95-4.95V19.56h.6v74.03c0,3.06-2.49,5.55-5.55,5.55h-12.12v42.71c0,1.87-1.52,3.39-3.39,3.39h-2.06c-1.53,0-2.78,1.25-2.78,2.78v10.24c0,1.54,1.25,2.78,2.78,2.78h61.69v.6Z"/>
    <path class="cls-1" d="M186.2,153.05h-.6v-30.15c0-1.54-1.25-2.78-2.78-2.78h-41.13c-1.87,0-3.39-1.52-3.39-3.38v-34.44c0-1.87,1.52-3.38,3.39-3.38h29.38c1.53,0,2.78-1.25,2.78-2.78v-13.7h.6v13.7c0,1.87-1.52,3.39-3.39,3.39h-29.38c-1.53,0-2.78,1.25-2.78,2.78v34.44c0,1.53,1.25,2.78,2.78,2.78h41.13c1.87,0,3.39,1.52,3.39,3.39v30.15Z"/>
    <path class="cls-1" d="M159.99,100.48h-.6v-27.22c0-1.54-1.25-2.78-2.78-2.78h-73.28v-.6h73.28c1.87,0,3.39,1.52,3.39,3.39v27.22Z"/>
    <path class="cls-1" d="M242.88,65.86h-20.16c-1.87,0-3.39-1.52-3.39-3.39v-16.27c0-1.54-1.25-2.78-2.78-2.78h-16.42c-1.87,0-3.39-1.52-3.39-3.38v-7.16c0-1.54-1.25-2.78-2.78-2.78h-4.98c-1.54,0-2.78,1.25-2.78,2.78v16.51h-.6v-16.51c0-1.87,1.52-3.39,3.39-3.39h4.98c1.87,0,3.39,1.52,3.39,3.39v7.16c0,1.53,1.25,2.78,2.78,2.78h16.42c1.87,0,3.39,1.52,3.39,3.39v16.27c0,1.54,1.25,2.78,2.78,2.78h20.16v.6Z"/>
    <path class="cls-1" d="M206.62,79.51h-8.06v-.6h8.06c1.54,0,2.78-1.25,2.78-2.78v-18.25c0-1.54-1.25-2.78-2.78-2.78h-59.73c-2.41,0-4.37,1.96-4.37,4.37v14.33h-.6v-14.33c0-2.74,2.23-4.97,4.97-4.97h59.73c1.87,0,3.39,1.52,3.39,3.39v18.25c0,1.87-1.52,3.39-3.39,3.39Z"/>
    <path class="cls-1" d="M182.2,219.77h-.42v-93.23c0-.97,1.45-1.72,3.3-1.72h13.01c1.72,0,2.87-.67,2.87-1.3v-6.23c0-2.51,4.06-4.54,9.04-4.54h9.34v.42h-9.34c-4.75,0-8.62,1.85-8.62,4.12v6.23c0,.97-1.45,1.72-3.3,1.72h-13.01c-1.72,0-2.87.67-2.87,1.3v93.23Z"/>
    <rect class="cls-1" x="110.44" y="62.13" width="99.27" height=".6"/>
    <rect class="cls-1" x="50.33" y="83.37" width="109.36" height="1.81"/>
    <rect class="cls-1" x="41.1" y="186.14" width="136.37" height="1.12"/>
    <rect class="cls-1" x="96.75" y="178.31" width="80.71" height="1.12"/>
    <rect class="cls-1" x="112.24" y="165.92" width="65.22" height="1.81"/>
    <polygon class="cls-1" points="272.87 224.35 271.75 224.35 271.75 205.41 81.62 205.41 81.62 204.29 272.87 204.29 272.87 224.35"/>
    <path class="cls-1" d="M299.17,235.11h-136.91c-1.96,0-3.56-1.6-3.56-3.56v-14.4c0-.97-.79-1.76-1.75-1.76h-37.61c-.97,0-1.75.79-1.75,1.76v1.91c0,1.96-1.6,3.56-3.56,3.56H3.3v-1.81h110.71c.97,0,1.75-.79,1.75-1.75v-1.91c0-1.96,1.6-3.56,3.56-3.56h37.61c1.96,0,3.56,1.6,3.56,3.56v14.4c0,.97.79,1.75,1.75,1.75h136.91v1.81Z"/>
    <polygon class="cls-1" points="241.71 27.41 102.23 27.41 102.23 26.91 241.21 26.91 241.21 1.6 278.44 1.6 278.44 2.1 241.71 2.1 241.71 27.41"/>
    <rect class="cls-1" x="197.05" y="35.66" width="102.13" height="1.12"/>
    <rect class="cls-1" x="106.47" y="134.89" width="100.04" height=".84"/>
    <path class="cls-1" d="M135.46,135.31h-.84v-2.88c0-1.6-1.3-2.9-2.9-2.9h-57.18v-.84h57.18c2.06,0,3.74,1.68,3.74,3.74v2.88Z"/>
    <path class="cls-1" d="M123.27,120.24h-42.96c-1.12,0-2.04-.91-2.04-2.04v-5.05c0-1.12.91-2.04,2.04-2.04h30.88c1.03,0,1.87-.84,1.87-1.87v-3.2c0-.53-.43-.96-.96-.96h-34.47v-.84h34.47c.99,0,1.8.81,1.8,1.8v3.2c0,1.49-1.21,2.7-2.71,2.7h-30.88c-.66,0-1.2.54-1.2,1.2v5.05c0,.66.54,1.2,1.2,1.2h42.96c.86,0,1.55-.7,1.55-1.55v-1.45c0-1.14.93-2.08,2.08-2.08h55.96v.84h-55.96c-.68,0-1.24.55-1.24,1.24v1.45c0,1.32-1.07,2.39-2.39,2.39Z"/>
    <rect class="cls-1" x="100.66" y="93.68" width=".42" height="10.98"/>
    <path class="cls-1" d="M119.65,204.46c0-1.02.83-1.85,1.85-1.85s1.85.83,1.85,1.85-.83,1.85-1.85,1.85-1.85-.83-1.85-1.85Z"/>
    <path class="cls-1" d="M94.9,178.87c0-1.02.83-1.85,1.85-1.85s1.85.83,1.85,1.85-.83,1.85-1.85,1.85-1.85-.83-1.85-1.85Z"/>
    <path class="cls-1" d="M184.1,135.14c0-1.02.83-1.85,1.85-1.85s1.85.83,1.85,1.85-.83,1.85-1.85,1.85-1.85-.83-1.85-1.85Z"/>
    <path class="cls-1" d="M204.89,135.14c0-1.02.83-1.85,1.85-1.85s1.85.83,1.85,1.85-.83,1.85-1.85,1.85-1.85-.83-1.85-1.85Z"/>
    <path class="cls-1" d="M99.02,104.66c0-1.02.83-1.85,1.85-1.85s1.85.83,1.85,1.85-.83,1.85-1.85,1.85-1.85-.83-1.85-1.85Z"/>
    <circle class="cls-1" cx="88.1" cy="129.11" r="1.85"/>
    <path class="cls-1" d="M148.86,186.7c0-1.02.83-1.85,1.85-1.85s1.85.83,1.85,1.85-.83,1.85-1.85,1.85-1.85-.83-1.85-1.85Z"/>
    <path class="cls-1" d="M211.69,274.4c0-1.02.83-1.85,1.85-1.85s1.85.83,1.85,1.85-.83,1.85-1.85,1.85-1.85-.83-1.85-1.85Z"/>
    <path class="cls-1" d="M182.24,234.2c0-1.02.83-1.85,1.85-1.85s1.85.83,1.85,1.85-.83,1.85-1.85,1.85-1.85-.83-1.85-1.85Z"/>
    <path class="cls-1" d="M141.15,214.49c0-1.02.83-1.85,1.85-1.85s1.85.83,1.85,1.85-.83,1.85-1.85,1.85-1.85-.83-1.85-1.85Z"/>
    <path class="cls-1" d="M241.03,65.62c0-1.02.83-1.85,1.85-1.85s1.85.83,1.85,1.85-.83,1.85-1.85,1.85-1.85-.83-1.85-1.85Z"/>
    <path class="cls-1" d="M222.58,19.56c0-1.02.83-1.85,1.85-1.85s1.85.83,1.85,1.85-.83,1.85-1.85,1.85-1.85-.83-1.85-1.85Z"/>
    <circle class="cls-1" cx="278.44" cy="1.85" r="1.85"/>
    <path class="cls-1" d="M239.66,1.85c0-1.02.83-1.85,1.85-1.85s1.85.83,1.85,1.85-.83,1.85-1.85,1.85-1.85-.83-1.85-1.85Z"/>
    <circle class="cls-1" cx="241.52" cy="27.16" r="1.85"/>
    <path class="cls-1" d="M184.1,153.05c0-1.02.83-1.85,1.85-1.85s1.85.83,1.85,1.85-.83,1.85-1.85,1.85-1.85-.83-1.85-1.85Z"/>
    <path class="cls-1" d="M222.58,65.62c0-1.02.83-1.85,1.85-1.85s1.85.83,1.85,1.85-.83,1.85-1.85,1.85-1.85-.83-1.85-1.85Z"/>
    <path class="cls-1" d="M195.2,36.22c0-1.02.83-1.85,1.85-1.85s1.85.83,1.85,1.85-.83,1.85-1.85,1.85-1.85-.83-1.85-1.85Z"/>
    <path class="cls-1" d="M207.85,62.43c0-1.02.83-1.85,1.85-1.85s1.85.83,1.85,1.85-.83,1.85-1.85,1.85-1.85-.83-1.85-1.85Z"/>
    <path class="cls-1" d="M190.63,62.43c0-1.02.83-1.85,1.85-1.85s1.85.83,1.85,1.85-.83,1.85-1.85,1.85-1.85-.83-1.85-1.85Z"/>
    <path class="cls-1" d="M195.2,85.81c0-1.02.83-1.85,1.85-1.85s1.85.83,1.85,1.85-.83,1.85-1.85,1.85-1.85-.83-1.85-1.85Z"/>
    <path class="cls-1" d="M181.01,114.87c0-1.02.83-1.85,1.85-1.85s1.85.83,1.85,1.85-.83,1.85-1.85,1.85-1.85-.83-1.85-1.85Z"/>
    <path class="cls-1" d="M150.71,114.87c0-1.02.83-1.85,1.85-1.85s1.85.83,1.85,1.85-.83,1.85-1.85,1.85-1.85-.83-1.85-1.85Z"/>
    <path class="cls-1" d="M150.71,135.31c0-1.02.83-1.85,1.85-1.85s1.85.83,1.85,1.85-.83,1.85-1.85,1.85-1.85-.83-1.85-1.85Z"/>
    <g>
      <path class="cls-2" d="M197.05,234.42c0-2.14,1.73-3.87,3.87-3.87s3.87,1.73,3.87,3.87-1.73,3.87-3.87,3.87-3.87-1.73-3.87-3.87Z"/>
      <path class="cls-1" d="M200.91,238.6c-2.3,0-4.18-1.87-4.18-4.18s1.87-4.17,4.18-4.17,4.18,1.87,4.18,4.17-1.87,4.18-4.18,4.18ZM200.91,230.87c-1.96,0-3.56,1.6-3.56,3.56s1.6,3.56,3.56,3.56,3.56-1.6,3.56-3.56-1.6-3.56-3.56-3.56Z"/>
    </g>
    <g>
      <circle class="cls-2" cx="138.6" cy="84.27" r="1.53"/>
      <path class="cls-1" d="M138.6,86.09c-1,0-1.81-.81-1.81-1.81s.81-1.81,1.81-1.81,1.81.81,1.81,1.81-.81,1.81-1.81,1.81ZM138.6,83.02c-.69,0-1.25.56-1.25,1.25s.56,1.25,1.25,1.25,1.25-.56,1.25-1.25-.56-1.25-1.25-1.25Z"/>
    </g>
    <g>
      <circle class="cls-2" cx="159.69" cy="100.48" r="1.53"/>
      <path class="cls-1" d="M159.69,102.29c-1,0-1.81-.81-1.81-1.81s.81-1.81,1.81-1.81,1.81.81,1.81,1.81-.81,1.81-1.81,1.81ZM159.69,99.23c-.69,0-1.25.56-1.25,1.25s.56,1.25,1.25,1.25,1.25-.56,1.25-1.25-.56-1.25-1.25-1.25Z"/>
    </g>
    <g>
      <circle class="cls-2" cx="77.62" cy="104.66" r="1.53"/>
      <path class="cls-1" d="M77.62,106.47c-1,0-1.81-.81-1.81-1.81s.81-1.81,1.81-1.81,1.81.81,1.81,1.81-.81,1.81-1.81,1.81ZM77.62,103.41c-.69,0-1.25.56-1.25,1.25s.56,1.25,1.25,1.25,1.25-.56,1.25-1.25-.56-1.25-1.25-1.25Z"/>
    </g>
    <g>
      <circle class="cls-2" cx="100.87" cy="93.68" r="1.53"/>
      <path class="cls-1" d="M100.87,95.5c-1,0-1.81-.81-1.81-1.81s.81-1.81,1.81-1.81,1.81.81,1.81,1.81-.81,1.81-1.81,1.81ZM100.87,92.43c-.69,0-1.25.56-1.25,1.25s.56,1.25,1.25,1.25,1.25-.56,1.25-1.25-.56-1.25-1.25-1.25Z"/>
    </g>
    <g>
      <circle class="cls-2" cx="74.54" cy="129.11" r="1.53"/>
      <path class="cls-1" d="M74.54,130.92c-1,0-1.81-.81-1.81-1.81s.81-1.81,1.81-1.81,1.81.81,1.81,1.81-.81,1.81-1.81,1.81ZM74.54,127.86c-.69,0-1.25.56-1.25,1.25s.56,1.25,1.25,1.25,1.25-.56,1.25-1.25-.56-1.25-1.25-1.25Z"/>
    </g>
    <g>
      <circle class="cls-2" cx="182.86" cy="110" r="1.53"/>
      <path class="cls-1" d="M182.86,111.81c-1,0-1.81-.81-1.81-1.81s.81-1.81,1.81-1.81,1.81.81,1.81,1.81-.81,1.81-1.81,1.81ZM182.86,108.74c-.69,0-1.25.56-1.25,1.25s.56,1.25,1.25,1.25,1.25-.56,1.25-1.25-.56-1.25-1.25-1.25Z"/>
    </g>
    <g>
      <circle class="cls-2" cx="152.56" cy="119.82" r="1.53"/>
      <path class="cls-1" d="M152.56,121.63c-1,0-1.81-.81-1.81-1.81s.81-1.81,1.81-1.81,1.81.81,1.81,1.81-.81,1.81-1.81,1.81ZM152.56,118.56c-.69,0-1.25.56-1.25,1.25s.56,1.25,1.25,1.25,1.25-.56,1.25-1.25-.56-1.25-1.25-1.25Z"/>
    </g>
    <g>
      <path class="cls-2" d="M149.64,145.17c0-1.62,1.31-2.92,2.93-2.92s2.92,1.31,2.92,2.92-1.31,2.92-2.92,2.92-2.93-1.31-2.93-2.92Z"/>
      <path class="cls-1" d="M152.56,148.64c-1.91,0-3.46-1.55-3.46-3.46s1.55-3.46,3.46-3.46,3.46,1.55,3.46,3.46-1.55,3.46-3.46,3.46ZM152.56,142.78c-1.32,0-2.39,1.07-2.39,2.39s1.07,2.39,2.39,2.39,2.39-1.07,2.39-2.39-1.07-2.39-2.39-2.39Z"/>
    </g>
    <g>
      <path class="cls-2" d="M174.54,153.05c0-1.62,1.31-2.92,2.92-2.92s2.92,1.31,2.92,2.92-1.31,2.92-2.92,2.92-2.92-1.31-2.92-2.92Z"/>
      <path class="cls-1" d="M177.47,156.51c-1.91,0-3.46-1.55-3.46-3.46s1.55-3.46,3.46-3.46,3.46,1.55,3.46,3.46-1.55,3.46-3.46,3.46ZM177.47,150.66c-1.32,0-2.39,1.07-2.39,2.39s1.07,2.39,2.39,2.39,2.39-1.07,2.39-2.39-1.07-2.39-2.39-2.39Z"/>
    </g>
    <g>
      <path class="cls-2" d="M174.54,166.82c0-1.62,1.31-2.92,2.92-2.92s2.92,1.31,2.92,2.92-1.31,2.92-2.92,2.92-2.92-1.31-2.92-2.92Z"/>
      <path class="cls-1" d="M177.47,170.28c-1.91,0-3.46-1.55-3.46-3.46s1.55-3.46,3.46-3.46,3.46,1.55,3.46,3.46-1.55,3.46-3.46,3.46ZM177.47,164.43c-1.32,0-2.39,1.07-2.39,2.39s1.07,2.39,2.39,2.39,2.39-1.07,2.39-2.39-1.07-2.39-2.39-2.39Z"/>
    </g>
    <g>
      <path class="cls-2" d="M269.35,204.85c0-1.62,1.31-2.92,2.92-2.92s2.92,1.31,2.92,2.92-1.31,2.93-2.92,2.93-2.92-1.31-2.92-2.93Z"/>
      <path class="cls-1" d="M272.28,208.31c-1.91,0-3.46-1.55-3.46-3.46s1.55-3.46,3.46-3.46,3.46,1.55,3.46,3.46-1.55,3.46-3.46,3.46ZM272.28,202.46c-1.32,0-2.39,1.07-2.39,2.39s1.07,2.39,2.39,2.39,2.39-1.07,2.39-2.39-1.07-2.39-2.39-2.39Z"/>
    </g>
    <g>
      <path class="cls-2" d="M149.64,166.82c0-1.62,1.31-2.92,2.93-2.92s2.92,1.31,2.92,2.92-1.31,2.92-2.92,2.92-2.93-1.31-2.93-2.92Z"/>
      <path class="cls-1" d="M152.56,170.28c-1.91,0-3.46-1.55-3.46-3.46s1.55-3.46,3.46-3.46,3.46,1.55,3.46,3.46-1.55,3.46-3.46,3.46ZM152.56,164.43c-1.32,0-2.39,1.07-2.39,2.39s1.07,2.39,2.39,2.39,2.39-1.07,2.39-2.39-1.07-2.39-2.39-2.39Z"/>
    </g>
    <g>
      <path class="cls-2" d="M38.17,186.7c0-1.62,1.31-2.92,2.93-2.92s2.92,1.31,2.92,2.92-1.31,2.92-2.92,2.92-2.93-1.31-2.93-2.92Z"/>
      <path class="cls-1" d="M41.1,190.16c-1.91,0-3.46-1.55-3.46-3.46s1.55-3.46,3.46-3.46,3.46,1.55,3.46,3.46-1.55,3.46-3.46,3.46ZM41.1,184.31c-1.32,0-2.39,1.07-2.39,2.39s1.07,2.39,2.39,2.39,2.39-1.07,2.39-2.39-1.07-2.39-2.39-2.39Z"/>
    </g>
    <g>
      <path class="cls-2" d="M78.69,204.85c0-1.62,1.31-2.92,2.92-2.92s2.92,1.31,2.92,2.92-1.31,2.93-2.92,2.93-2.92-1.31-2.92-2.93Z"/>
      <path class="cls-1" d="M81.62,208.31c-1.91,0-3.46-1.55-3.46-3.46s1.55-3.46,3.46-3.46,3.46,1.55,3.46,3.46-1.55,3.46-3.46,3.46ZM81.62,202.46c-1.32,0-2.39,1.07-2.39,2.39s1.07,2.39,2.39,2.39,2.39-1.07,2.39-2.39-1.07-2.39-2.39-2.39Z"/>
    </g>
    <g>
      <path class="cls-2" d="M191.35,174.72c0-1.62,1.31-2.92,2.92-2.92s2.92,1.31,2.92,2.92-1.31,2.92-2.92,2.92-2.92-1.31-2.92-2.92Z"/>
      <path class="cls-1" d="M194.27,178.18c-1.91,0-3.46-1.55-3.46-3.46s1.55-3.46,3.46-3.46,3.46,1.55,3.46,3.46-1.55,3.46-3.46,3.46ZM194.27,172.33c-1.32,0-2.39,1.07-2.39,2.39s1.07,2.39,2.39,2.39,2.39-1.07,2.39-2.39-1.07-2.39-2.39-2.39Z"/>
    </g>
    <g>
      <path class="cls-2" d="M179.06,204.85c0-1.62,1.31-2.92,2.92-2.92s2.93,1.31,2.93,2.92-1.31,2.93-2.93,2.93-2.92-1.31-2.92-2.93Z"/>
      <path class="cls-1" d="M181.98,208.31c-1.91,0-3.46-1.55-3.46-3.46s1.55-3.46,3.46-3.46,3.46,1.55,3.46,3.46-1.55,3.46-3.46,3.46ZM181.98,202.46c-1.32,0-2.39,1.07-2.39,2.39s1.07,2.39,2.39,2.39,2.39-1.07,2.39-2.39-1.07-2.39-2.39-2.39Z"/>
    </g>
    <g>
      <path class="cls-2" d="M231.09,256.35c0-1.62,1.31-2.92,2.92-2.92s2.92,1.31,2.92,2.92-1.31,2.93-2.92,2.93-2.92-1.31-2.92-2.93Z"/>
      <path class="cls-1" d="M234.01,259.81c-1.91,0-3.46-1.55-3.46-3.46s1.55-3.46,3.46-3.46,3.46,1.55,3.46,3.46-1.55,3.46-3.46,3.46ZM234.01,253.96c-1.32,0-2.39,1.07-2.39,2.39s1.07,2.39,2.39,2.39,2.39-1.07,2.39-2.39-1.07-2.39-2.39-2.39Z"/>
    </g>
    <g>
      <path class="cls-2" d="M200.66,204.85c0-1.62,1.31-2.92,2.92-2.92s2.92,1.31,2.92,2.92-1.31,2.93-2.92,2.93-2.92-1.31-2.92-2.93Z"/>
      <path class="cls-1" d="M203.59,208.31c-1.91,0-3.46-1.55-3.46-3.46s1.55-3.46,3.46-3.46,3.46,1.55,3.46,3.46-1.55,3.46-3.46,3.46ZM203.59,202.46c-1.32,0-2.39,1.07-2.39,2.39s1.07,2.39,2.39,2.39,2.39-1.07,2.39-2.39-1.07-2.39-2.39-2.39Z"/>
    </g>
    <g>
      <path class="cls-2" d="M157.14,84.27c0-1.62,1.31-2.92,2.92-2.92s2.92,1.31,2.92,2.92-1.31,2.92-2.92,2.92-2.92-1.31-2.92-2.92Z"/>
      <path class="cls-1" d="M160.07,87.73c-1.91,0-3.46-1.55-3.46-3.46s1.55-3.46,3.46-3.46,3.46,1.55,3.46,3.46-1.55,3.46-3.46,3.46ZM160.07,81.88c-1.32,0-2.39,1.07-2.39,2.39s1.07,2.39,2.39,2.39,2.39-1.07,2.39-2.39-1.07-2.39-2.39-2.39Z"/>
    </g>
    <g>
      <path class="cls-2" d="M103.55,135.31c0-1.62,1.31-2.92,2.92-2.92s2.92,1.31,2.92,2.92-1.31,2.93-2.92,2.93-2.92-1.31-2.92-2.93Z"/>
      <path class="cls-1" d="M106.47,138.77c-1.91,0-3.46-1.55-3.46-3.46s1.55-3.46,3.46-3.46,3.46,1.55,3.46,3.46-1.55,3.46-3.46,3.46ZM106.47,132.92c-1.32,0-2.39,1.07-2.39,2.39s1.07,2.39,2.39,2.39,2.39-1.07,2.39-2.39-1.07-2.39-2.39-2.39Z"/>
    </g>
    <g>
      <path class="cls-2" d="M47.52,84.27c0-1.62,1.31-2.92,2.92-2.92s2.92,1.31,2.92,2.92-1.31,2.92-2.92,2.92-2.92-1.31-2.92-2.92Z"/>
      <path class="cls-1" d="M50.44,87.57c-1.82,0-3.3-1.48-3.3-3.3s1.48-3.3,3.3-3.3,3.3,1.48,3.3,3.3-1.48,3.3-3.3,3.3ZM50.44,81.72c-1.41,0-2.55,1.14-2.55,2.55s1.14,2.55,2.55,2.55,2.55-1.14,2.55-2.55-1.14-2.55-2.55-2.55Z"/>
    </g>
    <g>
      <circle class="cls-2" cx="198.55" cy="79.21" r="2.92"/>
      <path class="cls-1" d="M198.55,82.51c-1.82,0-3.3-1.48-3.3-3.3s1.48-3.3,3.3-3.3,3.3,1.48,3.3,3.3-1.48,3.3-3.3,3.3ZM198.55,76.66c-1.41,0-2.55,1.14-2.55,2.55s1.14,2.55,2.55,2.55,2.55-1.14,2.55-2.55-1.14-2.55-2.55-2.55Z"/>
    </g>
    <g>
      <path class="cls-2" d="M109.32,166.36c0-1.62,1.31-2.92,2.92-2.92s2.92,1.31,2.92,2.92-1.31,2.92-2.92,2.92-2.92-1.31-2.92-2.92Z"/>
      <path class="cls-1" d="M112.24,169.66c-1.82,0-3.3-1.48-3.3-3.3s1.48-3.3,3.3-3.3,3.3,1.48,3.3,3.3-1.48,3.3-3.3,3.3ZM112.24,163.81c-1.41,0-2.55,1.14-2.55,2.55s1.14,2.55,2.55,2.55,2.55-1.14,2.55-2.55-1.14-2.55-2.55-2.55Z"/>
    </g>
    <g>
      <circle class="cls-2" cx="181.98" cy="219.77" r="2.92"/>
      <path class="cls-1" d="M181.98,223.07c-1.82,0-3.3-1.48-3.3-3.3s1.48-3.3,3.3-3.3,3.3,1.48,3.3,3.3-1.48,3.3-3.3,3.3ZM181.98,217.22c-1.41,0-2.55,1.14-2.55,2.55s1.14,2.55,2.55,2.55,2.55-1.14,2.55-2.55-1.14-2.55-2.55-2.55Z"/>
    </g>
    <g>
      <path class="cls-2" d="M219.34,174.72c0-1.62,1.31-2.92,2.92-2.92s2.92,1.31,2.92,2.92-1.31,2.92-2.92,2.92-2.92-1.31-2.92-2.92Z"/>
      <path class="cls-1" d="M222.27,178.02c-1.82,0-3.3-1.48-3.3-3.3s1.48-3.3,3.3-3.3,3.3,1.48,3.3,3.3-1.48,3.3-3.3,3.3ZM222.27,172.17c-1.41,0-2.55,1.14-2.55,2.55s1.14,2.55,2.55,2.55,2.55-1.14,2.55-2.55-1.14-2.55-2.55-2.55Z"/>
    </g>
    <g>
      <path class="cls-2" d="M239.96,198.48c0-1.62,1.31-2.92,2.92-2.92s2.92,1.31,2.92,2.92-1.31,2.92-2.92,2.92-2.92-1.31-2.92-2.92Z"/>
      <path class="cls-1" d="M242.88,201.78c-1.82,0-3.3-1.48-3.3-3.3s1.48-3.3,3.3-3.3,3.3,1.48,3.3,3.3-1.48,3.3-3.3,3.3ZM242.88,195.93c-1.41,0-2.55,1.14-2.55,2.55s1.14,2.55,2.55,2.55,2.55-1.14,2.55-2.55-1.14-2.55-2.55-2.55Z"/>
    </g>
    <g>
      <path class="cls-2" d="M260.4,161.35c0-1.62,1.31-2.92,2.92-2.92s2.92,1.31,2.92,2.92-1.31,2.92-2.92,2.92-2.92-1.31-2.92-2.92Z"/>
      <path class="cls-1" d="M263.32,164.65c-1.82,0-3.3-1.48-3.3-3.3s1.48-3.3,3.3-3.3,3.3,1.48,3.3,3.3-1.48,3.3-3.3,3.3ZM263.32,158.8c-1.41,0-2.55,1.14-2.55,2.55s1.14,2.55,2.55,2.55,2.55-1.14,2.55-2.55-1.14-2.55-2.55-2.55Z"/>
    </g>
    <g>
      <path class="cls-2" d="M269.35,224.35c0-1.62,1.31-2.92,2.92-2.92s2.92,1.31,2.92,2.92-1.31,2.92-2.92,2.92-2.92-1.31-2.92-2.92Z"/>
      <path class="cls-1" d="M272.28,227.65c-1.82,0-3.3-1.48-3.3-3.3s1.48-3.3,3.3-3.3,3.3,1.48,3.3,3.3-1.48,3.3-3.3,3.3ZM272.28,221.8c-1.41,0-2.55,1.14-2.55,2.55s1.14,2.55,2.55,2.55,2.55-1.14,2.55-2.55-1.14-2.55-2.55-2.55Z"/>
    </g>
    <g>
      <path class="cls-2" d="M216.42,113.02c0-1.62,1.31-2.92,2.92-2.92s2.92,1.31,2.92,2.92-1.31,2.93-2.92,2.93-2.92-1.31-2.92-2.93Z"/>
      <path class="cls-1" d="M219.34,116.32c-1.82,0-3.3-1.48-3.3-3.3s1.48-3.3,3.3-3.3,3.3,1.48,3.3,3.3-1.48,3.3-3.3,3.3ZM219.34,110.47c-1.41,0-2.55,1.14-2.55,2.55s1.14,2.55,2.55,2.55,2.55-1.14,2.55-2.55-1.14-2.55-2.55-2.55Z"/>
    </g>
    <g>
      <path class="cls-2" d="M246.84,119.82c0-1.62,1.31-2.92,2.92-2.92s2.92,1.31,2.92,2.92-1.31,2.92-2.92,2.92-2.92-1.31-2.92-2.92Z"/>
      <path class="cls-1" d="M249.77,123.12c-1.82,0-3.3-1.48-3.3-3.3s1.48-3.3,3.3-3.3,3.3,1.48,3.3,3.3-1.48,3.3-3.3,3.3ZM249.77,117.27c-1.41,0-2.55,1.14-2.55,2.55s1.14,2.55,2.55,2.55,2.55-1.14,2.55-2.55-1.14-2.55-2.55-2.55Z"/>
    </g>
    <g>
      <path class="cls-2" d="M139.29,74.15c0-1.62,1.31-2.92,2.92-2.92s2.92,1.31,2.92,2.92-1.31,2.92-2.92,2.92-2.92-1.31-2.92-2.92Z"/>
      <path class="cls-1" d="M142.22,77.45c-1.82,0-3.3-1.48-3.3-3.3s1.48-3.3,3.3-3.3,3.3,1.48,3.3,3.3-1.48,3.3-3.3,3.3ZM142.22,71.6c-1.41,0-2.55,1.14-2.55,2.55s1.14,2.55,2.55,2.55,2.55-1.14,2.55-2.55-1.14-2.55-2.55-2.55Z"/>
    </g>
    <g>
      <path class="cls-2" d="M.37,221.42c0-1.62,1.31-2.92,2.92-2.92s2.92,1.31,2.92,2.92-1.31,2.92-2.92,2.92-2.92-1.31-2.92-2.92Z"/>
      <path class="cls-1" d="M3.3,224.72c-1.82,0-3.3-1.48-3.3-3.3s1.48-3.3,3.3-3.3,3.3,1.48,3.3,3.3-1.48,3.3-3.3,3.3ZM3.3,218.87c-1.41,0-2.55,1.14-2.55,2.55s1.14,2.55,2.55,2.55,2.55-1.14,2.55-2.55-1.14-2.55-2.55-2.55Z"/>
    </g>
    <g>
      <path class="cls-2" d="M139.29,62.43c0-1.62,1.31-2.92,2.92-2.92s2.92,1.31,2.92,2.92-1.31,2.92-2.92,2.92-2.92-1.31-2.92-2.92Z"/>
      <path class="cls-1" d="M142.22,65.89c-1.91,0-3.46-1.55-3.46-3.46s1.55-3.46,3.46-3.46,3.46,1.55,3.46,3.46-1.55,3.46-3.46,3.46ZM142.22,60.04c-1.32,0-2.39,1.07-2.39,2.39s1.07,2.39,2.39,2.39,2.39-1.07,2.39-2.39-1.07-2.39-2.39-2.39Z"/>
    </g>
    <g>
      <path class="cls-2" d="M109.32,62.43c0-1.62,1.31-2.92,2.92-2.92s2.92,1.31,2.92,2.92-1.31,2.92-2.92,2.92-2.92-1.31-2.92-2.92Z"/>
      <path class="cls-1" d="M112.24,65.89c-1.91,0-3.46-1.55-3.46-3.46s1.55-3.46,3.46-3.46,3.46,1.55,3.46,3.46-1.55,3.46-3.46,3.46ZM112.24,60.04c-1.32,0-2.39,1.07-2.39,2.39s1.07,2.39,2.39,2.39,2.39-1.07,2.39-2.39-1.07-2.39-2.39-2.39Z"/>
    </g>
    <g>
      <circle class="cls-2" cx="83.32" cy="70.29" r="2.92"/>
      <path class="cls-1" d="M83.32,73.75c-1.91,0-3.46-1.55-3.46-3.46s1.55-3.46,3.46-3.46,3.46,1.55,3.46,3.46-1.55,3.46-3.46,3.46ZM83.32,67.9c-1.32,0-2.39,1.07-2.39,2.39s1.07,2.39,2.39,2.39,2.39-1.07,2.39-2.39-1.07-2.39-2.39-2.39Z"/>
    </g>
    <g>
      <path class="cls-2" d="M99.3,27.16c0-1.62,1.31-2.92,2.92-2.92s2.92,1.31,2.92,2.92-1.31,2.92-2.92,2.92-2.92-1.31-2.92-2.92Z"/>
      <path class="cls-1" d="M102.23,30.62c-1.91,0-3.46-1.55-3.46-3.46s1.55-3.46,3.46-3.46,3.46,1.55,3.46,3.46-1.55,3.46-3.46,3.46ZM102.23,24.77c-1.32,0-2.39,1.07-2.39,2.39s1.07,2.39,2.39,2.39,2.39-1.07,2.39-2.39-1.07-2.39-2.39-2.39Z"/>
    </g>
    <g>
      <path class="cls-2" d="M168.3,12.6c0-1.62,1.31-2.92,2.92-2.92s2.92,1.31,2.92,2.92-1.31,2.92-2.92,2.92-2.92-1.31-2.92-2.92Z"/>
      <path class="cls-1" d="M171.23,16.06c-1.91,0-3.46-1.55-3.46-3.46s1.55-3.46,3.46-3.46,3.46,1.55,3.46,3.46-1.55,3.46-3.46,3.46ZM171.23,10.21c-1.32,0-2.39,1.07-2.39,2.39s1.07,2.39,2.39,2.39,2.39-1.07,2.39-2.39-1.07-2.39-2.39-2.39Z"/>
    </g>
    <g>
      <path class="cls-2" d="M182.98,48.92c0-1.62,1.31-2.93,2.92-2.93s2.92,1.31,2.92,2.93-1.31,2.92-2.92,2.92-2.92-1.31-2.92-2.92Z"/>
      <path class="cls-1" d="M185.9,52.38c-1.91,0-3.46-1.55-3.46-3.46s1.55-3.46,3.46-3.46,3.46,1.55,3.46,3.46-1.55,3.46-3.46,3.46ZM185.9,46.53c-1.32,0-2.39,1.07-2.39,2.39s1.07,2.39,2.39,2.39,2.39-1.07,2.39-2.39-1.07-2.39-2.39-2.39Z"/>
    </g>
    <path class="cls-1" d="M199.04,234.42c0-1.03.84-1.87,1.87-1.87s1.87.84,1.87,1.87-.84,1.87-1.87,1.87-1.87-.84-1.87-1.87Z"/>
    <g>
      <path class="cls-2" d="M218.4,161.35c0-2.14,1.73-3.87,3.87-3.87s3.87,1.73,3.87,3.87-1.73,3.87-3.87,3.87-3.87-1.73-3.87-3.87Z"/>
      <path class="cls-1" d="M222.27,165.53c-2.3,0-4.18-1.87-4.18-4.18s1.87-4.18,4.18-4.18,4.18,1.87,4.18,4.18-1.87,4.18-4.18,4.18ZM222.27,157.8c-1.96,0-3.56,1.6-3.56,3.56s1.6,3.56,3.56,3.56,3.56-1.6,3.56-3.56-1.6-3.56-3.56-3.56Z"/>
    </g>
    <circle class="cls-1" cx="222.27" cy="161.35" r="1.87"/>
    <g>
      <g>
        <path class="cls-2" d="M170.29,62.43c0-2.14,1.73-3.87,3.87-3.87s3.87,1.73,3.87,3.87-1.73,3.87-3.87,3.87-3.87-1.73-3.87-3.87Z"/>
        <path class="cls-1" d="M174.15,66.61c-2.3,0-4.18-1.87-4.18-4.18s1.87-4.18,4.18-4.18,4.18,1.87,4.18,4.18-1.87,4.18-4.18,4.18ZM174.15,58.88c-1.96,0-3.56,1.6-3.56,3.56s1.6,3.56,3.56,3.56,3.56-1.6,3.56-3.56-1.6-3.56-3.56-3.56Z"/>
      </g>
      <circle class="cls-1" cx="174.15" cy="62.43" r="1.87"/>
    </g>
    <g>
      <g>
        <g>
          <path class="cls-1" d="M220.56,90.77c0-2.14,1.73-3.87,3.87-3.87s3.87,1.73,3.87,3.87-1.73,3.87-3.87,3.87-3.87-1.73-3.87-3.87Z"/>
          <path class="cls-1" d="M224.43,94.95c-2.3,0-4.18-1.87-4.18-4.18s1.87-4.18,4.18-4.18,4.18,1.87,4.18,4.18-1.87,4.18-4.18,4.18ZM224.43,87.21c-1.96,0-3.56,1.6-3.56,3.56s1.6,3.56,3.56,3.56,3.56-1.6,3.56-3.56-1.6-3.56-3.56-3.56Z"/>
        </g>
        <path class="cls-1" d="M222.56,90.77c0-1.03.84-1.87,1.87-1.87s1.87.84,1.87,1.87-.84,1.87-1.87,1.87-1.87-.84-1.87-1.87Z"/>
      </g>
      <g>
        <g>
          <path class="cls-2" d="M220.56,90.77c0-2.14,1.73-3.87,3.87-3.87s3.87,1.73,3.87,3.87-1.73,3.87-3.87,3.87-3.87-1.73-3.87-3.87Z"/>
          <path class="cls-1" d="M224.43,94.95c-2.3,0-4.18-1.87-4.18-4.18s1.87-4.18,4.18-4.18,4.18,1.87,4.18,4.18-1.87,4.18-4.18,4.18ZM224.43,87.21c-1.96,0-3.56,1.6-3.56,3.56s1.6,3.56,3.56,3.56,3.56-1.6,3.56-3.56-1.6-3.56-3.56-3.56Z"/>
        </g>
        <path class="cls-1" d="M222.56,90.77c0-1.03.84-1.87,1.87-1.87s1.87.84,1.87,1.87-.84,1.87-1.87,1.87-1.87-.84-1.87-1.87Z"/>
      </g>
    </g>
    <g>
      <g>
        <g>
          <path class="cls-1" d="M220.56,36.22c0-2.14,1.73-3.87,3.87-3.87s3.87,1.73,3.87,3.87-1.73,3.87-3.87,3.87-3.87-1.73-3.87-3.87Z"/>
          <path class="cls-1" d="M224.43,40.4c-2.3,0-4.18-1.87-4.18-4.18s1.87-4.18,4.18-4.18,4.18,1.87,4.18,4.18-1.87,4.18-4.18,4.18ZM224.43,32.67c-1.96,0-3.56,1.6-3.56,3.56s1.6,3.56,3.56,3.56,3.56-1.6,3.56-3.56-1.6-3.56-3.56-3.56Z"/>
        </g>
        <circle class="cls-1" cx="224.43" cy="36.22" r="1.87"/>
      </g>
      <g>
        <g>
          <path class="cls-2" d="M220.56,36.22c0-2.14,1.73-3.87,3.87-3.87s3.87,1.73,3.87,3.87-1.73,3.87-3.87,3.87-3.87-1.73-3.87-3.87Z"/>
          <path class="cls-1" d="M224.43,40.4c-2.3,0-4.18-1.87-4.18-4.18s1.87-4.18,4.18-4.18,4.18,1.87,4.18,4.18-1.87,4.18-4.18,4.18ZM224.43,32.67c-1.96,0-3.56,1.6-3.56,3.56s1.6,3.56,3.56,3.56,3.56-1.6,3.56-3.56-1.6-3.56-3.56-3.56Z"/>
        </g>
        <circle class="cls-1" cx="224.43" cy="36.22" r="1.87"/>
      </g>
    </g>
    <g>
      <g>
        <path class="cls-2" d="M126.37,186.7c0-2.14,1.73-3.87,3.87-3.87s3.87,1.73,3.87,3.87-1.73,3.87-3.87,3.87-3.87-1.73-3.87-3.87Z"/>
        <path class="cls-1" d="M130.24,190.88c-2.3,0-4.18-1.87-4.18-4.18s1.87-4.18,4.18-4.18,4.18,1.87,4.18,4.18-1.87,4.18-4.18,4.18ZM130.24,183.15c-1.96,0-3.56,1.6-3.56,3.56s1.6,3.56,3.56,3.56,3.56-1.6,3.56-3.56-1.6-3.56-3.56-3.56Z"/>
      </g>
      <path class="cls-1" d="M128.37,186.7c0-1.03.84-1.87,1.87-1.87s1.87.84,1.87,1.87-.84,1.87-1.87,1.87-1.87-.84-1.87-1.87Z"/>
    </g>
    <g>
      <g>
        <path class="cls-2" d="M122.51,239.47c0-2.14,1.73-3.87,3.87-3.87s3.87,1.73,3.87,3.87-1.73,3.87-3.87,3.87-3.87-1.73-3.87-3.87Z"/>
        <path class="cls-1" d="M126.37,243.65c-2.3,0-4.18-1.87-4.18-4.18s1.87-4.18,4.18-4.18,4.18,1.87,4.18,4.18-1.87,4.18-4.18,4.18ZM126.37,235.91c-1.96,0-3.56,1.6-3.56,3.56s1.6,3.56,3.56,3.56,3.56-1.6,3.56-3.56-1.6-3.56-3.56-3.56Z"/>
      </g>
      <path class="cls-1" d="M124.5,239.47c0-1.03.84-1.87,1.87-1.87s1.87.84,1.87,1.87-.84,1.87-1.87,1.87-1.87-.84-1.87-1.87Z"/>
    </g>
  </g>
</svg>