<?xml version="1.0" encoding="UTF-8"?>
<svg id="Layer_2" data-name="Layer 2" xmlns="http://www.w3.org/2000/svg" xmlns:xlink="http://www.w3.org/1999/xlink" viewBox="0 0 286.99 280.21">
  <defs>
    <style>
      .cls-1 {
        clip-path: url(#clippath);
      }

      .cls-2, .cls-3, .cls-4 {
        stroke-width: 0px;
      }

      .cls-2, .cls-5 {
        fill: none;
      }

      .cls-3 {
        fill: #2b2b2b;
      }

      .cls-4 {
        fill: #fff;
      }

      .cls-5 {
        stroke: #2b2b2b;
        stroke-miterlimit: 10;
        stroke-width: .5px;
      }
    </style>
    <clipPath id="clippath">
      <circle class="cls-2" cx="140.23" cy="139.93" r="139.93" transform="translate(-57.87 140.14) rotate(-45)"/>
    </clipPath>
  </defs>
  <g id="SPHERE_2" data-name="SPHERE 2">
    <g class="cls-1">
      <path class="cls-3" d="M191.76,274.57l-.81-.59.58-.8c7.22-9.9,16.19-22.22,3.83-75.29-7.37-31.67-16.77-61.94-27.93-89.99-.58-1.45-.92-2.32-1.06-2.72l.95-.32c.12.37.49,1.28,1.04,2.66,11.18,28.09,20.59,58.42,27.98,90.13,12.46,53.52,3.34,66.04-4,76.11l-.58.8Z"/>
      <path class="cls-3" d="M195.07,194.11l-.43-1.18c24.5-8.87,53.54-25.33,69.05-39.13l.83.93c-15.61,13.89-44.82,30.45-69.45,39.37Z"/>
      <path class="cls-3" d="M172.72,273.39l-.07-.24c41.94-11.87,54.15-22.21,72.11-39.47l.17.18c-17.99,17.29-30.22,27.65-72.22,39.53Z"/>
      <path class="cls-3" d="M164.91,173.25s-1.63.48-4.68,1.39c-1.53.45-3.41,1.01-5.62,1.66-1.11.33-2.3.68-3.57,1.05-.63.19-1.29.38-1.96.58l-.25.07-.12.03h-.07s-.13.04-.13.04l-.53.1c-.39.02-.9.05-1.31-.03l-.63-.14c-.21-.05-.4-.16-.6-.24l-.3-.13s0,.01-.12-.07l-.06-.04-.12-.08-.48-.34c-.72-.65-1.25-1.42-1.51-2.33-.42-1.59-.86-3.26-1.32-4.99l-.17-.65-.04-.16c.02.06-.03-.07-.04-.1l-.12-.32c-.16-.26-.34-.56-.66-.75-.29-.21-.64-.34-1.01-.36-.18-.03-.36,0-.55.03-.19.03-.46.1-.68.15-1.88.44-3.83.9-5.85,1.37-.5.12-1.01.24-1.52.36l-.77.18-.19.05-.1.02s.05-.02-.04.01l-.38.13c-.79.29-1.41,1.04-1.58,1.95-.06.18-.02.44-.04.65.06.23.05.41.15.7.16.54.31,1.07.47,1.62l.24.82c.04.16.07.21.13.47l.08.42c.08.7-.03,1.46-.36,2.06-.03.06,0,.04-.09.16l-.06.09-.12.18-.13.18-.2.2c-.27.3-.57.48-.87.66-.69.32-1.25.4-1.82.56-1.16.28-2.31.63-3.51.87-1.21.25-2.42.51-3.66.77-.44.03-.6.09-1.06.03-.42-.02-.76-.15-1.11-.26-.68-.3-1.28-.79-1.71-1.4l-.29-.49c-.08-.17-.13-.35-.2-.53-.13-.36-.17-.64-.26-.96-.16-.62-.32-1.25-.48-1.88-.32-1.26-.64-2.53-.97-3.82-.32-1.27-.65-2.54-.98-3.83l-.17-.48c-.06-.15-.14-.23-.2-.35-.05-.11-.14-.22-.24-.33-.1-.1-.17-.23-.29-.31-.42-.4-.97-.62-1.53-.73-.14-.01-.29-.04-.43-.05l-.43.03c-.3.02-.67.1-1,.14-.68.11-1.37.21-2.06.32-1.38.21-2.77.43-4.17.64-2.81.41-5.66.84-8.55,1.26-2.9.39-5.83.79-8.81,1.19-2.99.28-6.03.71-9.09.82-3.06.18-6.15.35-9.28.53-3.14.09-6.3.18-9.5.27l-2.34.07c-.46.03-.66.09-.95.24-.14.07-.29.14-.41.26l-.19.15c.04-.06-.04.05-.06.07l-.1.12c-.86.99-.59,2.69.37,3.66.49.48,1.14.8,1.82.88.32.05.73.04,1.14.04h1.22c1.63-.02,3.26-.03,4.9-.04,3.28,0,6.56-.19,9.86-.28.85-.02,1.6-.08,2.53-.06,1.01.05,1.93.55,2.55,1.3.16.19.3.38.41.61.13.21.21.44.28.67.15.46.21.83.31,1.24l.58,2.44c1.56,6.49,3.22,13.03,5.06,19.53,1.86,6.49,3.78,13.02,6.4,19.23,2.72,6.22,5.22,12.57,8.35,18.52l.56,1.13.28.57.14.28c.1.22.09.22.14.37.17.74-.12,1.31-.62,1.69-.28.2-.59.27-.88.28h-.63s-1.27.02-1.27.02c-.29-.02-.42-.01-.68-.05-.25-.05-.51-.09-.72-.18-.9-.31-1.71-.92-2.22-1.73-.26-.43-.42-.82-.59-1.19l-.52-1.15-1.04-2.29c-.69-1.53-1.39-3.05-2.08-4.57-.69-1.52-1.38-3.04-2.07-4.56l-.26-.57c-.06-.14-.18-.36-.27-.53-.2-.35-.35-.78-.6-1.07-.23-.31-.44-.63-.68-.93l-.82-.85c-1.17-1.05-2.6-1.81-4.12-2.18-.76-.22-1.54-.24-2.33-.29h-2.5c-1.78,0-3.58-1.15-4.31-2.81-.67-1.51-1.32-2.97-1.94-4.48-.64-1.49-1.22-3-1.8-4.51-.31-.74-.54-1.52-.8-2.28l-.39-1.14-.18-.53c-.07-.18-.14-.4-.22-.49-.3-.54-.91-.96-1.55-1.07-.29-.04-.73-.04-1.12-.05l-1.19-.03c-1.59-.05-3.16-.12-4.73-.21-3.13-.21-6.23-.46-9.28-.92-.77-.09-1.52-.25-2.28-.38-.75-.15-1.51-.25-2.25-.45-.75-.19-1.51-.37-2.25-.56l-.53-.19c-.19-.08-.38-.19-.57-.28-.36-.21-.69-.45-.99-.73-.6-.56-1.07-1.26-1.35-2.02-.28-.79-.4-1.46-.6-2.19-.37-1.43-.74-2.85-1.1-4.27-.39-1.41-.69-2.83-.98-4.24-.29-1.41-.59-2.82-.88-4.21-.29-1.39-.58-2.77-.86-4.14-.15-.67-.28-1.4-.43-2.01-.16-.58-.5-1.08-.96-1.46-.48-.39-1.01-.52-1.71-.68-.66-.16-1.32-.32-1.97-.49-1.31-.35-2.61-.67-3.89-1.05-1.27-.39-2.55-.72-3.78-1.19-.6-.21-1.2-.42-1.79-.63-.2-.07-.22-.02-.3-.03-.09.03-.19.05-.27.11.02-.05-.26.19-.26.22-.05.05-.1.15-.15.26-.04.2.06.55.12.85l.19.93c.13.62.26,1.23.38,1.84.27,1.22.54,2.42.8,3.61.55,2.37,1.1,4.69,1.68,6.93,1.16,4.49,2.35,8.73,3.66,12.65,1.27,3.93,2.66,7.54,4.14,10.78.39.8.78,1.58,1.16,2.35.19.38.38.76.56,1.14l.14.28.06.13.03.09c.04.19,0,.34-.07.44-.05.07-.04.08-.17.18-.03.02-.02.02-.09.05-.18.08-.32.06-.44.02-.06-.02-.13-.06-.16-.09l-.06-.05-.12-.09c-.65-.5-1.3-.97-1.92-1.51-.15-.15-.31-.21-.46-.44-.1-.17-.22-.31-.31-.5-.19-.35-.39-.71-.55-1.04-1.33-2.68-2.37-5.12-3.21-7.3-.38-1.15-.93-1.62-1.84-2.17-.83-.5-1.55-1.08-2.2-1.56-.64-.5-1.14-1.01-1.6-1.42-.24-.2-.43-.41-.58-.62-.16-.2-.31-.39-.44-.55-.52-.65-.79-.98-.79-.98l.3-.23s.29.3.86.89c.53.61,1.44,1.41,2.67,2.37.65.44,1.33.96,2.2,1.44.23.14.4.23.65.4.25.15.47.34.68.56.2.21.41.53.53.77l.17.38.16.43c.79,2.15,1.78,4.62,3,7.3.15.35.31.65.47.97.07.16.19.32.29.48.05.1.27.23.4.34.58.47,1.24.93,1.91,1.4l.13.09.06.04s-.01-.02-.02-.02c-.02,0-.06-.02-.13.02-.01.01.03-.02.05-.03-.09.06-.05.03-.07.06-.01.02-.04.06,0,.14,0,0-.01-.04-.02-.06.04.09,0-.01,0-.01l-.14-.28c-.18-.38-.37-.76-.56-1.15-.38-.78-.76-1.57-1.16-2.38-1.47-3.28-2.84-6.93-4.1-10.88-.69-1.96-1.22-4.03-1.85-6.14-.65-2.1-1.17-4.31-1.78-6.55-.58-2.25-1.12-4.57-1.68-6.95-.26-1.19-.53-2.4-.8-3.62-.26-1.25-.53-2.52-.79-3.8-.06-.22-.11-.47-.02-.8.05-.19.08-.24.11-.32l.07-.1c.17-.18.14-.12.23-.18.12-.07.24-.14.37-.16.14-.01.28-.01.4-.01.3.03.6.15.7.21.62.22,1.24.44,1.87.66,1.2.45,2.47.79,3.73,1.17,1.26.38,2.56.69,3.86,1.04.66.16,1.31.32,1.98.48.62.13,1.46.35,2.05.85.61.48,1.07,1.18,1.28,1.94.18.74.3,1.37.45,2.07.29,1.36.57,2.74.86,4.12.29,1.38.58,2.78.88,4.18.28,1.41.58,2.82.98,4.23.37,1.41.74,2.84,1.11,4.27.19.69.35,1.49.58,2.1.24.63.62,1.2,1.12,1.66.24.23.53.43.81.6.15.07.28.15.44.22l.53.19c.71.17,1.43.35,2.15.52.72.2,1.47.3,2.22.44.75.13,1.49.29,2.25.37,3.01.45,6.09.7,9.2.9,1.56.09,3.12.16,4.69.21l1.18.03c.4.01.76,0,1.26.06.92.17,1.76.71,2.23,1.57.15.23.19.4.27.59l.2.6.38,1.13c.26.75.49,1.51.8,2.25.58,1.49,1.15,2.99,1.79,4.47.61,1.48,1.28,2.98,1.93,4.45.61,1.33,1.98,2.24,3.5,2.24h2.43c.85.05,1.73.08,2.56.32,1.68.41,3.25,1.24,4.55,2.41l.91.94c.28.34.53.72.79,1.08.28.36.41.74.62,1.1.1.2.18.34.29.58l.26.57c.69,1.51,1.38,3.03,2.08,4.55.69,1.52,1.39,3.05,2.08,4.57l1.05,2.29.52,1.15c.18.39.34.77.53,1.07.38.62,1,1.08,1.69,1.32.59.25,1.5.16,2.34.16h.63c.13-.02.24-.05.31-.1.2-.1.27-.43.26-.53,0-.05-.1-.25-.08-.22l-.14-.29-.28-.57-.57-1.14c-3.19-6.03-5.67-12.35-8.4-18.57-2.66-6.31-4.59-12.85-6.46-19.36-1.85-6.52-3.52-13.06-5.09-19.57l-.58-2.44c-.1-.39-.18-.85-.3-1.18-.05-.17-.1-.33-.2-.48-.07-.16-.17-.3-.29-.43-.43-.54-1.1-.88-1.75-.91-.73-.02-1.64.04-2.44.06-3.32.09-6.63.28-9.91.29-1.64.01-3.27.02-4.9.03h-1.22c-.4,0-.8.03-1.29-.04-.92-.11-1.81-.54-2.47-1.2l-.45-.53c-.13-.19-.23-.4-.35-.6-.19-.41-.37-.97-.38-1.33l-.04-.3c-.03-.2,0-.25,0-.39.02-.24.03-.48.11-.71.06-.23.13-.46.27-.69l.19-.34.19-.23.1-.12c.05-.06.02-.04.14-.16l.28-.23c.18-.16.39-.28.6-.38.42-.23,1.01-.34,1.35-.35.81-.03,1.63-.05,2.44-.08,3.17-.09,6.32-.19,9.44-.28,3.12-.18,6.22-.36,9.28-.54,3.07-.11,6.04-.54,9.02-.82,2.96-.4,5.89-.8,8.78-1.19,2.89-.43,5.73-.85,8.53-1.27,1.4-.22,2.79-.43,4.17-.65.69-.11,1.38-.21,2.06-.32.35-.05.66-.12,1.05-.15l.6-.04c.2,0,.4.04.59.07.78.14,1.54.47,2.12,1.01.16.11.27.29.41.43.13.14.26.3.36.49.1.18.23.38.29.54l.17.48c.39,1.41.68,2.63,1.02,3.94.33,1.28.65,2.56.97,3.82.16.63.32,1.26.48,1.88.08.3.15.66.25.9.05.12.08.25.14.37l.2.34c.3.42.71.76,1.19.97.25.07.5.17.72.17.16.07.63-.01.8-.02,1.21-.26,2.4-.51,3.58-.76,1.18-.24,2.35-.59,3.5-.87.57-.15,1.19-.29,1.57-.47.2-.13.4-.25.53-.39.12-.05.38-.49.44-.58.1-.21.19-.42.22-.65.04-.12.04-.22.03-.31,0-.11.04-.17,0-.33l-.08-.42-.1-.35-.24-.82c-.16-.54-.32-1.08-.47-1.62-.08-.24-.13-.63-.19-.93.01-.33-.03-.65.06-.99.23-1.24,1.12-2.42,2.36-2.85l.38-.13s.13-.04.15-.05l.1-.02.19-.05.77-.18c.51-.12,1.02-.24,1.52-.36,2.01-.48,3.96-.94,5.85-1.38.25-.05.45-.12.73-.16.29-.05.58-.09.87-.05.58.03,1.15.24,1.61.57.48.3.84.79,1.11,1.33l.12.32c.03.08.02.05.08.22l.04.16.17.65c.46,1.73.9,3.38,1.32,4.96.19.68.63,1.25,1.04,1.67l.48.34.12.08.06.04c-.08-.05,0,0,0,0l.22.1c.15.06.29.15.45.18l.47.1c.16.05.3.03.44.04.15,0,.27.03.44,0l.53-.1.13-.02h.07c-.1.01,0-.02,0-.02l.25-.08c.67-.2,1.33-.39,1.96-.58,1.27-.38,2.46-.73,3.56-1.06,2.21-.66,4.1-1.22,5.62-1.67,3.05-.91,4.68-1.39,4.68-1.39l.36,1.2Z"/>
      <path class="cls-3" d="M108.29,145.86s.15.56.43,1.61c.14.53.32,1.18.52,1.94.05.19.1.39.16.59l.04.16.02.1v.04s.02.08.02.08c.02.11.04.22.05.33.05.2.02.57,0,.86-.04.3-.12.58-.2.87-.15.28-.22.56-.46.84l-.25.32c-.11.12-.25.24-.39.36-.27.27-.58.39-.88.57-.32.11-.71.25-.99.29-1.2.25-2.5.52-3.89.81-2.8.51-5.95,1.14-9.41,1.63-3.45.58-7.21,1.01-11.19,1.49-1.99.28-4.04.39-6.14.59-2.1.16-4.23.4-6.42.51-2.18.1-4.4.21-6.65.31-1.12.05-2.25.1-3.39.15-1.14,0-2.28,0-3.43.01-2.29,0-4.61.02-6.93.02-1.16.03-2.32-.04-3.49-.1l-3.49-.16c-2.3-.1-4.71-.23-6.92-.29l-.43.02c-.13.02-.22.06-.34.09-.22.03-.44.16-.65.27-.23.1-.39.3-.59.44-.1.13-.37.43-.47.63-.18.38-.38.87-.34,1.37-.02.23.02.51.05.8l.09.85c.52,4.55.93,9.05,1.64,13.33.32,2.14.63,4.24.93,6.3.4,1.96,2.09,3.26,4,3.34.99.12,1.97.25,2.93.37l.36.05.2.03.18.03c.22.02.5.11.77.21.51.21.96.5,1.33.89.38.37.65.84.84,1.32.18.52.25.94.35,1.39.2.89.39,1.75.58,2.61s.38,1.68.56,2.5c.09.41.18.81.27,1.21l.04.35c.01.1-.01.27-.03.41-.06.28-.14.51-.29.72l-.11.16-.03.04-.06.06-.06.05c-.08.07-.12.13-.24.2-.12.07-.24.14-.37.2l-.36.1c-.54.07-.89-.04-1.26-.07-.37-.05-.74-.09-1.1-.14-.2-.03-.32-.03-.58-.09-.18-.05-.34-.07-.53-.14-1.56-.5-2.54-1.77-2.91-3.05-.34-1.16-.62-2.3-.93-3.21-.32-.82-1.01-1.38-1.64-1.64-.33-.12-.64-.18-.95-.21-.33-.03-.64-.05-.91-.07-1.09-.08-1.67-.13-1.67-.13l.06-.77s.58.04,1.67.12c.27.02.58.04.91.07.35.03.77.1,1.18.26.81.33,1.66,1,2.1,2.09.78,1.87.69,4.91,3.3,5.74.15.05.34.08.51.13.09.03.33.05.5.07.36.05.73.09,1.1.14.86.11,1.26.21,1.7-.38.09-.1.13-.27.16-.38,0-.07.04-.09.02-.19l-.02-.15s-.02-.15,0-.1c-.09-.4-.18-.8-.27-1.21-.19-.81-.37-1.65-.57-2.5s-.39-1.72-.59-2.6c-.1-.44-.2-.92-.32-1.27-.15-.37-.36-.73-.65-1.02-.58-.63-1.34-.86-2.32-.94-.96-.12-1.94-.24-2.93-.36-.47-.05-1.05-.13-1.57-.32-.52-.19-1.03-.45-1.45-.82-.23-.17-.43-.37-.61-.59-.2-.2-.35-.45-.5-.68-.17-.22-.26-.53-.39-.79-.11-.27-.15-.51-.23-.77-.32-2.09-.64-4.23-.98-6.41-.73-4.32-1.15-8.81-1.68-13.36l-.1-.85c-.03-.28-.08-.56-.06-.91,0-.16,0-.33.01-.49l.11-.48c.04-.32.24-.64.39-.95.19-.31.31-.43.57-.75.26-.2.49-.46.79-.6.29-.15.58-.32.94-.39.17-.04.35-.1.51-.11l.43-.02c2.42.06,4.66.18,7,.27l3.48.15c1.16.05,2.32.12,3.47.08,2.31-.02,4.62-.03,6.9-.05,1.14,0,2.28-.02,3.41-.02,1.13-.06,2.26-.11,3.38-.16,2.24-.11,4.45-.22,6.62-.33,2.17-.12,4.3-.36,6.39-.53,2.08-.2,4.13-.32,6.11-.6,3.96-.49,7.71-.93,11.14-1.52,3.45-.5,6.57-1.13,9.35-1.65,1.39-.3,2.68-.57,3.88-.83.33-.06.49-.15.74-.22.19-.13.44-.22.56-.36.07-.07.15-.12.23-.2l.24-.33c.12-.12.18-.37.28-.53.05-.19.11-.4.13-.57-.02-.19.06-.29,0-.54-.02-.11-.04-.22-.05-.33v-.08s-.02-.04-.02-.04c-.01-.06.01.06,0,.04v-.02s-.05-.16-.05-.16c-.06-.2-.11-.4-.16-.59-.21-.76-.38-1.41-.53-1.94-.29-1.05-.44-1.61-.44-1.61l1.21-.33Z"/>
      <path class="cls-3" d="M67.21,209.73c-.5,0-.99,0-1.46,0h-1.23v-1.25h1.23c11.72.02,33.57.02,48.2-3.49,1.4-.33,2.27-1.74,1.95-3.14-.44-1.89-1.09-4.62-1.73-6.92-.52-1.87-2.36-3.05-4.28-2.76-4.79.74-15.1,2.19-30.31,3.55l-.11-1.24c15.18-1.36,25.45-2.8,30.23-3.54,2.54-.4,4.99,1.18,5.68,3.66.64,2.32,1.3,5.07,1.74,6.97.48,2.06-.81,4.15-2.87,4.64-14.18,3.4-34.96,3.52-47.03,3.52Z"/>
      <path class="cls-3" d="M73.66,205.8c-2.33,0-4.43-1.5-5.16-3.74-.98-2.98-2.25-7.15-2.8-10.04-.21-1.11-1.21-1.93-2.33-1.85-1.44.06-3.9.14-7.44.13-4.48,0-8.35-3.21-9.22-7.61-.63-3.19-1.11-6.41-1.44-9.56l.5-.05c.32,3.14.81,6.34,1.43,9.52.82,4.17,4.49,7.2,8.73,7.21,3.54.01,5.99-.07,7.42-.13,1.35-.07,2.59.91,2.85,2.26.54,2.87,1.81,7.01,2.78,9.98.7,2.13,2.75,3.52,5,3.39,48.59-3.06,84.07-12.52,100.91-17.9,5.01-1.6,7.85-7,6.32-12.03-3.27-10.78-8.03-26.3-11.58-37.51l.48-.15c3.55,11.21,8.31,26.73,11.58,37.52,1.6,5.29-1.38,10.97-6.65,12.65-16.85,5.38-52.39,14.86-101.03,17.92-.12,0-.23.01-.34.01Z"/>
      <path class="cls-3" d="M84.11,228.06c-11.86,0-21.96-.88-26.88-1.4-2.41-.25-4.45-1.81-5.32-4.07-.67-1.73-1.4-3.7-1.88-5.04-.12-.34-.06-.72.17-1,.23-.28.58-.43.95-.38.6.08,1.32.16,2.14.23.41.05.82-.14,1.07-.47.25-.33.32-.76.18-1.16-.52-1.43-1.22-3.45-1.89-5.4-.65-1.88-1.26-3.67-1.74-4.97l.24-.09c.48,1.31,1.09,3.09,1.74,4.98.67,1.95,1.36,3.97,1.89,5.4.17.47.09.99-.21,1.39-.31.4-.79.6-1.29.57-.83-.07-1.55-.15-2.15-.23-.27-.04-.55.07-.72.29-.17.21-.22.51-.13.76.49,1.34,1.21,3.3,1.88,5.03.84,2.17,2.8,3.66,5.11,3.91,7.52.79,27.12,2.42,46.62.48.94-.09,1.79-.64,2.27-1.45.48-.81.54-1.82.17-2.68-3.67-8.52-10.83-28.64-17.42-67.65-.22-1.29-1.4-2.17-2.71-1.99-4.53.62-16.5,2.11-29.79,2.68-2.23.1-4.42-.75-6.02-2.31-1.6-1.57-2.48-3.75-2.42-5.98,0-.28.02-.57.03-.87h.25c-.01.31-.02.59-.03.87-.06,2.16.8,4.27,2.35,5.8,1.55,1.52,3.67,2.33,5.83,2.24,13.28-.58,25.24-2.07,29.77-2.68,1.43-.19,2.75.77,2.99,2.2,6.6,38.98,13.74,59.08,17.41,67.59.41.94.34,2.03-.18,2.91-.52.88-1.44,1.47-2.46,1.57-6.75.67-13.52.92-19.79.92Z"/>
      <path class="cls-3" d="M112.94,269.52c-4.95,0-9.37-.23-13.12-.67l.06-.5c37.35,4.35,146.62-12.67,171.4-76.84l.47.18c-13.45,34.82-50.99,54.04-80.11,64.02-28.7,9.84-58.24,13.81-78.7,13.81Z"/>
      <path class="cls-3" d="M167.5,278.77s-.46-.36-1.27-.99c-.41-.29-.89-.74-1.45-1.21-.29-.23-.55-.52-.84-.81-.29-.29-.61-.58-.88-.95-.14-.18-.29-.36-.44-.54-.08-.11-.13-.14-.24-.32-.05-.12-.11-.17-.16-.34-.21-.65-.03-1.28.43-1.73.12-.12.26-.18.4-.27.14-.05.32-.11.44-.14.25-.05.51-.1.77-.15.52-.11,1.05-.22,1.58-.33,1.08-.21,2.18-.47,3.3-.73,1.12-.27,2.27-.48,3.39-.81,1.13-.31,2.25-.62,3.36-.92,1.1-.33,2.16-.72,3.19-1.06.26-.09.51-.17.77-.26l.38-.13.29-.19c.14-.06.16-.15.22-.22.05-.07.12-.13.14-.24.03-.1.08-.19.1-.28v-.3c-.1-.94-.26-1.93-.39-2.78-.26-1.73-.57-3.15-.77-4.15-.27-.93-.42-1.46-.42-1.46l1.14-.41s.12.61.33,1.67c.07.51.15,1.14.24,1.85.1.71.16,1.52.27,2.39.1.89.21,1.79.28,2.85l-.03.46c-.04.15-.11.29-.17.44-.04.15-.17.28-.28.4-.12.12-.24.27-.35.31-.14.07-.18.11-.39.22l-.39.12c-.26.08-.52.17-.78.25-1.05.33-2.13.71-3.24,1.03-1.12.29-2.25.59-3.39.88-2.27.58-4.55,1.14-6.69,1.62-.54.12-1.06.24-1.58.35-.26.06-.51.12-.76.18-.13.03-.19.07-.29.1-.07.06-.17.1-.22.17-.27.24-.33.72-.23.96,0,.06.1.19.15.28l.19.22c.15.17.29.33.43.49.26.33.59.59.87.86.29.26.56.51.85.71.57.41,1.02.78,1.47,1.05.87.55,1.36.86,1.36.86l-.7.99Z"/>
      <path class="cls-3" d="M146.52,276.32c-18.12-17.15-28.02-48.31-33.94-66.93-.34-1.06-.66-2.08-.97-3.05l.24-.08c.31.97.63,1.99.97,3.05,5.91,18.6,15.8,49.72,33.87,66.82l-.17.18Z"/>
      <path class="cls-3" d="M149.51,279.43c-19.2-1.05-40.06-54.09-45.08-72.25l.24-.07c2.79,10.09,9.43,27.81,17.41,42.85,6.9,13.02,17.27,28.66,27.45,29.21v.25Z"/>
      <path class="cls-3" d="M131.94,257.49l-.06-.5c29.99-3.66,51.05-10.79,70.05-17.77l.17.47c-19.03,6.99-40.12,14.13-70.16,17.8Z"/>
      <path class="cls-3" d="M194.7,257.19l-.08-.24c14.11-4.79,29.57-12.7,42.44-21.7,10.43-7.3,23.92-18.67,28.96-31.4l.23.09c-5.06,12.79-18.59,24.2-29.05,31.52-12.88,9.01-28.37,16.93-42.5,21.73Z"/>
      <polygon class="cls-3" points="282.24 248.15 282.21 247.9 286.96 247.27 286.99 247.52 282.24 248.15"/>
      <path class="cls-3" d="M260.96,210.58l-.22-.11c5.56-11,8.82-24.44,8.94-29.52h.25c-.12,5.12-3.39,18.61-8.97,29.64Z"/>
      <path class="cls-3" d="M274.97,181.11s-.34.8-.99,2.29c-.31.75-.7,1.68-1.15,2.77-.45,1.09-1.08,2.31-1.72,3.7-.39.66-.8,1.35-1.23,2.08-.44.72-.85,1.51-1.43,2.23-.55.74-1.12,1.51-1.71,2.31-.3.4-.58.82-.92,1.21-.34.38-.69.78-1.04,1.17-2.74,3.25-6.18,6.6-10.04,10.11-1.97,1.71-4.03,3.49-6.15,5.33l-.05.04c-.1.07-.06.04-.1.06,0,.01-.14.07-.25.09-.19.02-.35,0-.52-.11l-.06-.04s-.08-.07-.12-.12c-.08-.09-.09-.16-.13-.24-.02-.07-.03-.2-.03-.24v-.13c0-.16,0-.38.01-.55l.03-.54c.09-.78.33-1.5.67-2.19.34-.69.83-1.31,1.41-1.83.56-.51,1.13-.96,1.7-1.45,2.28-1.93,4.62-3.91,7.01-5.94.29-.25.62-.51.87-.76l.85-.83c.51-.58,1.02-1.15,1.45-1.81.88-1.29,1.6-2.72,2.04-4.25.49-1.53.5-3.14.88-4.82.4-1.66,1.13-3.24,2.19-4.6,1.05-1.39,2.45-2.39,3.39-3.74.98-1.32,1.61-2.9,1.92-4.53.09-.41.1-.83.16-1.24l.07-1.28.14-2.57c.11-1.72.13-3.44.19-5.17l.07-2.59-.02-2.6c-.04-1.73,0-3.47-.09-5.2l-.38-5.18-.05-.67-.02-.65-.02-.65.1-.68.1-.68.21-.64.22-.64c.09-.2.21-.4.32-.59.84-1.55,1.89-2.92,2.69-4.44.78-1.52,1.76-2.94,2.18-4.57.22-.78.3-1.62.28-2.44-.03-.82-.16-1.66-.29-2.5-.25-1.67-.52-3.33-.82-4.98-.6-3.29-1.25-6.54-2.07-9.68-.18-.79-.44-1.56-.65-2.34-.21-.78-.44-1.54-.72-2.29l-.39-1.13-.19-.56s-.04-.13-.04-.1c-.03-.04-.06-.08-.1-.12-.07-.09-.15-.02-.19-.02-.16.05-.21.08-.27.07-.04,0-.12,0-.13.02,0,.01,0,.02,0,.02,0-.02-.04.04-.06.04-.02.05-.02.02-.08.11l-.14.26-.29.51c-1.54,2.76-3.28,5.34-5.14,7.71-1.83,2.4-3.91,4.49-6,6.41-.55.45-1.1.9-1.64,1.34l-.81.66c-.27.17-.25.19-.57.3-.26.1-.49.1-.72.11-.11,0-.23-.03-.34-.05l-.09-.02s-.16-.05-.13-.04l-.12-.05c-.12-.03-.39-.2-.58-.36-.34-.3-.54-.79-.64-1.05-.24-.64-.51-1.18-.71-1.89-.41-1.53.27-3.11,1.37-3.96.95-.8,1.89-1.59,2.79-2.35l.17-.14.12-.12c.1-.1.23-.21.29-.31.13-.18.26-.37.36-.61.2-.45.31-.94.27-1.42-.04-.5-.16-.89-.4-1.42-.22-.5-.43-1-.64-1.48-.82-1.95-1.65-3.75-2.38-5.42-.72-1.68-1.43-3.2-2.08-4.58-.65-1.37-1.19-2.61-1.72-3.66-.53-1.05-.99-1.94-1.36-2.66-.74-1.45-1.13-2.22-1.13-2.22l.67-.37s.41.77,1.17,2.21c.38.72.85,1.61,1.4,2.66.55,1.05,1.12,2.28,1.79,3.65,1.34,2.73,2.89,6.1,4.56,9.99.21.49.42.98.64,1.48.22.46.46,1.14.49,1.76.05.65-.1,1.3-.36,1.91-.13.3-.32.59-.55.88-.11.14-.21.22-.31.33-.07.07-.07.08-.19.19l-.17.14c-.91.77-1.84,1.55-2.79,2.36-.44.37-.75.77-.94,1.29-.19.5-.21,1.07-.09,1.57.14.55.46,1.2.69,1.8.14.36.21.5.37.66.08.04.07.09.27.16l.12.05c.07.03-.03,0,0,0h.04s.16.03.16.03c.11-.01.22-.01.28-.04.02.04.31-.16.33-.17l.79-.64c.53-.43,1.06-.87,1.59-1.3,2.04-1.88,4.06-3.92,5.85-6.28,1.82-2.33,3.52-4.85,5.02-7.57l.28-.52.14-.26c.04-.08.17-.26.27-.37.14-.1.23-.21.43-.28.09-.04.19-.07.28-.09.09-.02.11-.01.17-.02.34-.06.67.13.85.38.34.63.36.89.52,1.29l.39,1.14c.28.76.51,1.53.72,2.31.21.78.47,1.55.65,2.35.83,3.16,1.48,6.41,2.09,9.72.3,1.65.57,3.32.82,5,.13.84.26,1.67.29,2.56.02.87-.06,1.75-.3,2.62-.44,1.7-1.44,3.16-2.23,4.69-.8,1.53-1.86,2.93-2.67,4.42-.1.18-.21.36-.3.55l-.2.59-.2.59-.09.61-.09.61.02.65.02.65.04.63.39,5.21c.1,1.74.06,3.48.1,5.22l.02,2.61-.07,2.6c-.06,1.73-.06,3.47-.17,5.18l-.13,2.58-.07,1.28c-.05.44-.07.88-.16,1.31-.32,1.72-.98,3.39-2.02,4.79-1.01,1.44-2.42,2.45-3.38,3.75-1,1.29-1.69,2.8-2.06,4.36-.35,1.55-.37,3.27-.87,4.86-.46,1.6-1.2,3.1-2.12,4.45-.44.68-.99,1.31-1.53,1.92l-.85.83c-.31.3-.6.52-.9.79-2.39,2.03-4.72,4.02-7,5.96-.56.48-1.15.96-1.68,1.44-.51.46-.94,1.02-1.25,1.63-.31.6-.51,1.28-.59,1.91l-.03.53c-.01.18,0,.32,0,.51.02.28-.03.09.01.16-.02,0,0,0-.01,0-.02,0-.06.04,0,0,0,0,.08-.05.01,0l.05-.04c2.13-1.83,4.18-3.59,6.15-5.29,3.86-3.48,7.29-6.79,10.03-10,.35-.39.7-.78,1.04-1.16.33-.39.61-.8.91-1.19.59-.79,1.15-1.55,1.7-2.28.58-.71.98-1.49,1.42-2.19.43-.71.84-1.39,1.23-2.04.65-1.36,1.29-2.55,1.75-3.64.47-1.08.87-2.01,1.19-2.75.66-1.49,1.02-2.28,1.02-2.28l.41.18Z"/>
      <path class="cls-3" d="M268.55,193.69l-.23-.09c2.08-5.42,4.1-16.39,4.63-21.86,0-.05-.02-.1-.07-.12-.05-.02-.1,0-.14.04-1.99,2.49-8.94,10.97-15,15.54-.32.24-.76.28-1.11.09-.36-.18-.57-.56-.56-.96.19-4.75.41-16.81-1.53-26.12-.33-1.6.28-3.28,1.56-4.29,2.65-2.09,7.56-6.04,10.6-9,1.43-1.39,2.06-3.4,1.67-5.37-.59-2.98-1.68-8.25-2.43-10.05l.23-.1c.72,1.73,1.72,6.44,2.44,10.1.4,2.05-.25,4.14-1.75,5.59-3.05,2.96-7.96,6.92-10.62,9.02-1.21.95-1.78,2.54-1.47,4.04,1.94,9.34,1.72,21.42,1.53,26.19-.01.3.16.59.43.73.27.14.6.11.85-.07,6.04-4.55,12.97-13.01,14.96-15.49.1-.13.27-.17.43-.11.15.06.24.21.23.38-.54,5.49-2.56,16.49-4.65,21.93Z"/>
      <path class="cls-3" d="M236.42,154.13l-.13-.21c27.82-17.43,31.93-24.21,36.71-32.07.46-.76.93-1.53,1.42-2.31l.21.13c-.49.78-.96,1.55-1.42,2.31-4.79,7.88-8.92,14.68-36.79,32.15Z"/>
      <path class="cls-3" d="M220.58,127.72l-.11-.22c57.05-29.1,48.94-46.17,42.43-59.88-1.1-2.31-2.13-4.49-2.82-6.64l.24-.08c.69,2.13,1.72,4.3,2.81,6.6,6.56,13.81,14.73,31-42.54,60.21Z"/>
      <path class="cls-3" d="M265.71,103.64l-.2-.14c8.59-12.11,4.23-21.29.38-29.38-1.1-2.31-2.13-4.49-2.82-6.63l.24-.08c.69,2.13,1.72,4.3,2.81,6.6,3.87,8.16,8.27,17.4-.41,29.63Z"/>
      <path class="cls-3" d="M276.27,118.08s-.02,0-.03,0c-.19-.01-.34-.14-.39-.32-.7-2.79-2.52-9.8-4.2-14.52-.06-.18-.24-.31-.43-.31-.2,0-.37.11-.45.29-.48,1.16-1.21,2.84-1.99,4.23-.2.36-.6.57-1.02.54-.42-.04-.78-.31-.92-.71-1.14-3.19-1.96-5.45-2.5-6.94-.12-.33-.39-.56-.73-.63-.34-.07-.69.04-.92.29-.13.14-.27.29-.42.43-.89.9-1.14,2.23-.64,3.39,1.33,3.09,3.75,8.83,5.01,12.5l-.24.08c-1.26-3.66-3.67-9.39-5-12.48-.54-1.25-.27-2.69.69-3.66.14-.14.28-.29.41-.43.3-.31.73-.45,1.16-.36.42.09.77.38.92.79.54,1.48,1.36,3.75,2.51,6.94.11.3.38.51.7.54.32.03.63-.14.79-.42.78-1.38,1.5-3.05,1.98-4.2.11-.27.39-.44.68-.45.3,0,.56.2.66.48,1.69,4.74,3.5,11.75,4.21,14.55.02.07.08.13.16.13.09,0,.15-.04.17-.11.95-2.51.88-6.1.84-8.02v-.17s.25,0,.25,0v.17c.04,1.94.12,5.56-.86,8.12-.06.17-.22.27-.39.27Z"/>
      <path class="cls-3" d="M239,210.55l-.13-.21c31.01-19.41,36.48-35.77,36.53-35.93,2.43-9.36,2.38-23.19,2.34-25.86,0-.45.1-.9.32-1.3.17-.32.36-.69.55-1.09.8-1.68,1.16-3.56,1.03-5.43-1.9-28.02-7.34-39.29-13.1-51.22-.92-1.91-1.87-3.88-2.81-5.92l.23-.1c.93,2.04,1.88,4.01,2.8,5.91,5.77,11.95,11.22,23.24,13.12,51.31.13,1.92-.24,3.84-1.06,5.56-.19.41-.38.78-.56,1.1-.19.36-.29.77-.29,1.18.04,2.68.09,16.54-2.35,25.93-.02.05-1.36,4.19-6.53,10.67-4.77,5.98-13.86,15.23-30.1,25.4Z"/>
      <path class="cls-3" d="M272.26,175.13l-.14-.21c.66-.44,1.42-1.29,2.27-2.54,1.24-1.82,1.9-3.96,1.91-6.17,0-.56,0-1.14.01-1.73.04-3.68,1.17-7.2,3.28-10.19l.41-.59.2.14-.41.59c-2.08,2.95-3.2,6.43-3.24,10.05,0,.59-.01,1.17-.01,1.73-.01,2.26-.69,4.44-1.95,6.31-.86,1.27-1.65,2.14-2.33,2.6Z"/>
      <path class="cls-3" d="M255.23,151.39c-.72-2.38-2.14-8.32-2.93-11.65-.5-2.13.33-4.32,2.12-5.58,10.6-7.46,15.84-15.9,17.61-19.18.16-.3.48-.48.83-.44.34.04.62.28.71.61,1.23,4.46,2.59,11.29,3.29,14.97.29,1.53-.08,3.13-1.03,4.37l-.72.94-.2-.15.72-.94c.9-1.18,1.26-2.7.99-4.17-.7-3.68-2.06-10.51-3.29-14.96-.06-.23-.26-.4-.5-.43-.24-.02-.47.09-.58.31-1.77,3.3-7.04,11.77-17.68,19.27-1.71,1.2-2.5,3.29-2.02,5.32.78,3.33,2.21,9.26,2.92,11.63l-.24.07Z"/>
      <path class="cls-3" d="M254.99,216.48c-.07,0-.13-.02-.19-.06-.13-.09-.18-.26-.12-.4,7.95-19.18,8.08-37.73,7.76-44.81-.07-1.64.57-3.22,1.77-4.33.71-.66,1.57-1.45,2.58-2.34.23-.21.56-.26.85-.13.28.13.47.41.47.72v4.05c0,.15.09.29.23.34.14.06.3.01.4-.1,1.14-1.29,2.79-3.36,3.77-4.6l.2.16c-.98,1.24-2.63,3.32-3.78,4.61-.17.19-.44.25-.68.17-.24-.09-.39-.32-.39-.57v-4.05c0-.21-.12-.4-.32-.49-.19-.08-.42-.05-.58.09-1,.9-1.87,1.68-2.57,2.34-1.14,1.06-1.76,2.57-1.69,4.14.31,7.1.18,25.68-7.78,44.91-.02.04,0,.08.03.1.03.02.08.02.11,0,1.2-1.14,3.81-3.7,7.71-8.02l.19.17c-3.91,4.33-6.52,6.89-7.73,8.03-.06.06-.15.09-.23.09Z"/>
      <path class="cls-3" d="M221.63,210.09c-.26,0-.52-.07-.75-.21-.41-.25-.66-.69-.67-1.17l-.08-3.02c-.02-.83.42-1.59,1.15-1.98,4.16-2.2,14.42-7.68,19.95-10.96,1.07-.63,1.69-1.79,1.61-3.03l-.11-1.86c-.01-.19-.12-.36-.29-.44-.16-.08-.37-.08-.53.02-3.53,2.19-12.84,7.83-23.15,12.81l-.22-.45c10.29-4.97,19.59-10.6,23.11-12.78.31-.19.7-.21,1.02-.04.32.17.54.5.56.86l.11,1.86c.08,1.43-.63,2.76-1.86,3.49-5.54,3.28-15.81,8.77-19.97,10.97-.56.3-.9.88-.89,1.52l.08,3.02c0,.31.17.59.44.76.26.16.59.18.87.05,9.65-4.51,22.47-12.93,26.16-15.4.69-.46,1.09-1.23,1.07-2.06l-.02-.58c-.03-1.18.52-2.29,1.49-2.97,10.49-7.43,15.67-13.51,20.25-18.87.46-.54.91-1.07,1.36-1.59l.38.33c-.45.52-.9,1.06-1.36,1.59-4.59,5.38-9.8,11.48-20.34,18.95-.83.59-1.3,1.54-1.27,2.55l.02.58c.03,1-.45,1.93-1.29,2.49-3.7,2.48-16.54,10.91-26.23,15.43-.19.09-.4.13-.6.13Z"/>
      <path class="cls-3" d="M234.76,191.4c-.12-2.56-.47-6.1-.93-7.82l.24-.07c.47,1.73.82,5.29.94,7.87h-.25Z"/>
      <path class="cls-3" d="M218.24,170.89l-.11-.23c23.25-10.93,37.45-22.5,42.48-26.97.42-.37,1.01-.49,1.54-.3.53.19.91.66,1,1.22.96,6.34,2.2,17.86,2.2,21.42h-.25c0-3.54-1.24-15.05-2.19-21.38-.07-.47-.39-.86-.84-1.02-.44-.16-.94-.06-1.29.25-5.04,4.47-19.27,16.06-42.54,27.01Z"/>
      <path class="cls-3" d="M274.48,159.16c-.08,0-.16-.01-.24-.04-.33-.1-.55-.4-.56-.74-.04-1.26-.09-3.07-.12-4.54-.03-1.59.47-3.16,1.42-4.42.61-.81.89-1.8.81-2.8-.13-1.54-.4-4.3-.68-5.54l.49-.11c.28,1.2.53,3.72.69,5.61.1,1.12-.22,2.24-.9,3.14-.89,1.18-1.36,2.64-1.33,4.11.03,1.47.08,3.28.12,4.54,0,.13.09.24.21.28.12.04.26,0,.33-.11.22-.3.44-.61.65-.93,1.12-1.64,1.69-3.65,1.6-5.64-.08-1.68-.18-3.75-.26-5.47-.1-2.12.32-4.26,1.23-6.2,1.94-4.13,2.22-7.08,2.22-7.11l.5.04c-.01.12-.29,3.06-2.27,7.28-.87,1.86-1.28,3.92-1.18,5.96.09,1.73.19,3.8.26,5.47.1,2.1-.5,4.21-1.69,5.95-.22.32-.44.63-.66.94-.15.21-.4.33-.65.33Z"/>
      <path class="cls-3" d="M238.73,227.42l-.26-.43c11.68-7.03,23.83-20.13,25.46-24.01l.46.19c-1.65,3.93-13.9,17.16-25.66,24.24Z"/>
      <path class="cls-3" d="M217.99,218.14l-.11-.22c18.89-9.18,30.58-17.68,34.73-20.91.27-.21.65-.25.96-.09.31.16.5.48.49.83-.03.99-.08,1.77-.12,2.29l-.25-.02c.05-.52.09-1.29.12-2.28,0-.25-.13-.49-.35-.6-.22-.11-.5-.09-.69.07-4.16,3.24-15.86,11.75-34.77,20.94Z"/>
      <path class="cls-3" d="M261.68,209.75l-.2-.15c4.63-6.07,9.49-26.64,9.7-31.18h.25c-.21,4.57-5.09,25.23-9.75,31.33Z"/>
      <path class="cls-3" d="M67.91,258.44c-16.5-11.28-28.26-33.13-31.47-39.55-.21-.42-.15-.93.16-1.28.31-.36.8-.49,1.25-.33,6.77,2.31,13.5,3.5,13.56,3.51l-.04.25c-.07-.01-6.81-1.2-13.6-3.52-.35-.12-.74-.02-.98.26s-.3.68-.13,1.01c3.2,6.41,14.94,28.22,31.39,39.46l-.14.21Z"/>
      <path class="cls-3" d="M69.07,236.42s-.09,0-.13,0c-3.37-.41-11.91-1.54-18.38-3.1-2.47-.6-4.52-2.26-5.62-4.56-2.24-4.71-6.29-13.37-8.27-18.52-.51-1.33-1.64-2.34-3.02-2.69l-5.75-1.48.06-.24,5.75,1.48c1.46.38,2.65,1.44,3.19,2.85,1.97,5.14,6.02,13.8,8.26,18.5,1.06,2.23,3.05,3.84,5.45,4.42,6.46,1.56,14.98,2.68,18.35,3.09.31.04.61-.1.79-.37.17-.26.18-.6.02-.87-4.49-7.58-10.27-23.71-12.55-30.29-.19-.56-.09-1.17.26-1.64.36-.47.93-.72,1.51-.69,5.83.37,17.18.2,22.44-.08v.25c-5.25.28-16.62.45-22.45.08-.51-.04-.99.19-1.29.59-.31.4-.39.93-.22,1.4,2.27,6.58,8.05,22.69,12.53,30.25.21.35.2.79-.02,1.13-.2.31-.53.49-.89.49Z"/>
      <path class="cls-3" d="M112.91,251.75c-7.18-12.24-16.47-34.76-18.43-43.29l.24-.06c1.96,8.51,11.23,30.99,18.4,43.21l-.22.13Z"/>
      <path class="cls-3" d="M83.27,244.83c-20.19-1.23-25.52-3.15-33.58-6.07l-1.77-.64.25-.71,1.77.64c8,2.89,13.29,4.8,33.37,6.03l-.05.75Z"/>
      <path class="cls-3" d="M90.8,270.76c-29.03-12.86-44.26-42.84-48.24-51.72l.22-.13v.03c3.98,8.86,19.17,38.77,48.12,51.6l-.1.23Z"/>
      <path class="cls-3" d="M43.58,229.15l-.25-.05c-1-.2-2.04-.41-2.95-.8-6.32-2.71-8.62-7.85-11.28-13.8-.31-.68-.62-1.38-.94-2.09-6.93-15.14-9.69-28.64-10.55-33.74-.07-.42.09-.84.41-1.11.32-.27.77-.34,1.16-.2,2.33.87,5.08,1.53,6.97,1.93,1.35.29,2.4,1.39,2.62,2.75.48,2.95,1.37,7.08,1.38,7.12l-.24.05s-.9-4.17-1.38-7.13c-.2-1.26-1.18-2.28-2.42-2.54-1.9-.4-4.66-1.07-7.01-1.94-.31-.12-.66-.06-.92.15-.25.21-.38.54-.32.87.86,5.09,3.61,18.56,10.53,33.67.32.71.64,1.41.94,2.09,2.64,5.9,4.92,11,11.15,13.67.88.38,1.86.57,2.9.78l.25.05-.05.24Z"/>
      <path class="cls-3" d="M51.93,245.36c-6.12-6.69-26.49-31.31-31.37-67.23l.25-.03c4.87,35.85,25.19,60.42,31.3,67.1l-.18.17Z"/>
      <path class="cls-3" d="M47.31,240.06c-2.42-.99-5.79-3-10.02-5.97l.14-.2c4.22,2.97,7.57,4.97,9.98,5.95l-.09.23Z"/>
      <path class="cls-3" d="M20.71,208.12c-.24-.21-.49-.42-.75-.64-1.84-1.55-3.92-3.31-5.66-7.03-1.73-3.7-3.84-9.12-4.74-11.44-.12-.32-.22-.57-.29-.74l-.33-.84.54.71s2.41,3.15,3.61,4.33c-1.03-2.44-5.36-13.46-6.08-28.03-.03-.54-.31-1.05-.76-1.36-.32-.22-.69-.47-1.03-.71-.49-.34-.8-.9-.83-1.5-.4-7.93-1.22-35.04,4.72-50.92l.09-.23.61.92c.73-2.55,6.64-22.93,11.56-30.18.35-.51,1-.72,1.59-.51.86.32,2.5.92,3.82,1.35.78.26,1.64-.11,1.99-.86,1.03-2.18,3.57-7.57,4.83-10.42.46-1.04,1.52-1.68,2.66-1.6,5.79.4,27.98.85,70.7-10.04l.06.24c-42.75,10.9-64.98,10.45-70.77,10.05-1.04-.08-2,.51-2.41,1.46-1.26,2.85-3.8,8.24-4.83,10.43-.41.86-1.4,1.28-2.3.99-1.32-.43-2.96-1.03-3.83-1.35-.48-.17-1.01,0-1.29.41-5.2,7.66-11.54,30.14-11.6,30.37l-.07.26-.64-.96c-5.83,15.87-5.01,42.71-4.62,50.59.03.52.3,1.01.72,1.3.34.24.71.49,1.03.71.51.35.84.93.87,1.55.82,16.42,6.23,28.32,6.28,28.44l.19.42-.38-.26c-.73-.51-2.61-2.86-3.54-4.05.91,2.35,3,7.7,4.7,11.35,1.71,3.67,3.77,5.41,5.59,6.94.26.22.51.43.75.64l-.16.19Z"/>
      <path class="cls-3" d="M20.73,113.17l-.25-.05c2.6-13.36,11.54-35.55,11.63-35.77l.04-.09.1.02c7.79,1.44,25.58-.72,33.18-1.64l.9-.11.03.25-.9.11c-7.58.92-25.28,3.07-33.16,1.66-.64,1.6-9.07,22.74-11.58,35.63Z"/>
      <path class="cls-3" d="M16.31,164.96c-1.32-10.38-.07-30.35.35-36.22.04-.53.3-1.01.72-1.33.42-.32.96-.43,1.48-.31,2.59.58,6.36,1.07,8.38,1.31.35.04.7-.06.97-.28.27-.22.44-.55.47-.9l.47-5.45c.04-.48.28-.94.65-1.25.37-.31.86-.46,1.35-.41,5.66.59,14.71.39,26.18-.59l.02.25c-11.48.98-20.55,1.19-26.23.59-.41-.04-.84.08-1.16.35-.32.27-.53.66-.57,1.07l-.47,5.45c-.04.42-.24.81-.57,1.07-.32.26-.75.38-1.16.34-2.02-.24-5.8-.73-8.4-1.31-.44-.1-.91,0-1.27.27-.36.27-.59.69-.62,1.14-.42,5.87-1.67,25.81-.35,36.17l-.25.03Z"/>
      <path class="cls-3" d="M74.6,191.9c-1.55,0-2.87-1.13-3.11-2.67l-.19-1.28c-.26-1.69-1.79-2.93-3.5-2.82-8.13.53-21.38-.29-26.69-.67-1.19-.08-2.14-.97-2.31-2.15l-1.3-9.16c-.34-2.36-2.23-4.2-4.6-4.47-14.93-1.67-21.86-5.68-27.19-9.3l.14-.21c5.3,3.6,12.2,7.59,27.08,9.26,2.49.28,4.47,2.2,4.82,4.68l1.3,9.16c.15,1.07,1.01,1.86,2.08,1.94,5.31.38,18.54,1.2,26.66.67,1.84-.12,3.49,1.21,3.77,3.03l.19,1.28c.21,1.42,1.43,2.46,2.86,2.46.04,0,.07,0,.11,0,2.21-.08,5.37-.25,7.89-.54.57-.07,1.09-.38,1.42-.85.33-.47.44-1.07.31-1.63-1.58-6.59-6.9-30.17-8.78-56.84l.25-.02c1.88,26.66,7.19,50.22,8.77,56.8.15.63.03,1.3-.34,1.83-.37.53-.95.88-1.6.96-2.53.3-5.7.46-7.91.54-.04,0-.08,0-.12,0Z"/>
      <path class="cls-3" d="M71.31,248.69c-2.55-.34-8.37-1.65-12.22-2.74l.21-.72c3.82,1.09,9.6,2.38,12.11,2.72l-.1.74Z"/>
      <path class="cls-3" d="M25.96,191.59s-.4-1.88-1.09-5.18c-.18-.82-.37-1.73-.59-2.73-.05-.25-.11-.5-.16-.76l-.08-.39-.13-.33c-.09-.31-.28-.38-.38-.54-.15-.13-.31-.31-.51-.41l-.31-.14c-.13-.06-.28-.09-.43-.14-.29-.09-.58-.18-.88-.27-.6-.18-1.21-.36-1.83-.61-1.25-.46-2.57-.92-3.88-1.57-.66-.3-1.34-.61-2.02-.93-.65-.38-1.32-.77-2-1.17-.67-.42-1.38-.76-2.05-1.25-.32-.24-.65-.48-.97-.72-.31-.28-.62-.56-.94-.84-1.2-1.18-2.28-2.54-3.09-4.11-.81-1.56-1.36-3.29-1.64-5.1-.54-3.57-.92-7.3-1.13-11.08-.25-3.79-.27-7.64-.21-11.49.12-3.85.34-7.7.75-11.47.38-3.77.94-7.47,1.59-11.02.36-1.77.67-3.52,1.05-5.21.41-1.69.82-3.34,1.21-4.95.4-1.6.9-3.14,1.33-4.63.22-.75.43-1.48.64-2.2.23-.72.48-1.41.71-2.09.47-1.37.92-2.67,1.35-3.92.43-1.25.94-2.39,1.37-3.48.88-2.18,1.62-4.08,2.37-5.6,1.42-3.06,2.24-4.8,2.24-4.8l.22.11s-.82,1.74-2.25,4.79c-.75,1.51-1.5,3.41-2.38,5.58-.43,1.09-.94,2.23-1.37,3.47-.43,1.24-.89,2.55-1.36,3.91-.23.68-.49,1.37-.72,2.09-.21.72-.43,1.45-.65,2.2-.42,1.5-.91,3.03-1.31,4.63-.39,1.61-.78,3.26-1.19,4.94-.38,1.69-.68,3.44-1.04,5.21-.64,3.55-1.18,7.24-1.55,11-.4,3.76-.6,7.61-.71,11.45-.05,3.84-.01,7.69.24,11.47.23,3.78.61,7.48,1.17,11.04.28,1.76.83,3.44,1.62,4.96.79,1.52,1.88,2.83,3.05,3.94.3.27.6.53.9.79.33.23.67.47.99.7.64.44,1.38.77,2.04,1.15.68.37,1.35.73,2,1.08.69.29,1.36.57,2.02.85,1.3.6,2.61,1.01,3.84,1.42.61.22,1.23.38,1.83.54.3.08.6.16.89.24.15.04.29.07.43.13l.5.2c.18.05.3.19.44.29.13.12.29.2.39.36.22.31.41.66.43.91l.12.44.07.39c.05.26.1.51.14.76.19,1,.36,1.91.51,2.74.63,3.31.99,5.2.99,5.2l-.63.12Z"/>
      <path class="cls-3" d="M11.14,83.99s-.21.58-.61,1.67c-.37,1.09-.95,2.7-1.29,4.8-.15,1.05-.25,2.24-.04,3.47.11.61.28,1.24.59,1.82.15.31.32.55.55.86.1.15.21.29.31.51.08.21.13.41.14.63.03.43-.05.84-.11,1.25-.1.42-.24.76-.36,1.15-.24.76-.49,1.54-.74,2.35-.5,1.61-.99,3.32-1.49,5.1-1.97,7.13-3.9,15.59-4.88,24.79-.12,1.15-.25,2.31-.32,3.48-.09,1.17-.17,2.35-.2,3.54-.02.59-.05,1.18-.07,1.77.01.3.02.6.05.9.05.28.09.56.16.84.31,1.12.92,2.13,1.7,2.94.2.2.38.41.61.58.21.19.42.37.67.55.48.38.95.76,1.4,1.16.22.2.47.44.6.48.19.09.43.1.66.03.02,0,.14-.06.17-.08.04-.03.09-.05.13-.1.09-.08.17-.18.22-.29.06-.11.08-.24.1-.36l.02-.46c.13-2.46.25-4.92.38-7.39.1-2.47.17-4.94.22-7.4.02-.29-.03-.64.15-1.02.16-.36.55-.71,1.04-.72.12,0,.25.01.36.05.06.02.12.04.17.07.08.04-.01,0,.01,0l.05.02s.08.04.09.04c0,0-.01,0-.02,0-.01,0,.03.03.05.04l.05.02c.05-.02-.04.05-.01.03l.06-.02c.1-.03.11-.04.13-.03.06-.04.11-.09.12-.24.11-1.22.26-2.43.4-3.65.61-4.84,1.5-9.55,2.4-14.1.48-2.27.95-4.5,1.5-6.66.27-1.08.54-2.15.81-3.21.07-.28.12-.5.22-.82.03-.12.09-.28.18-.46.09-.15.17-.31.3-.44.44-.6,1.48-.84,2.13-.3.22.16.31.33.4.51.04.11.06.15.11.32v.21c.06.44-.06.76-.15,1.03-.17.5-.33.99-.49,1.48-.31.98-.61,1.95-.9,2.9-.57,1.91-1.08,3.77-1.54,5.56-.46,1.79-.86,3.52-1.24,5.17-.32,1.66-.62,3.23-.9,4.71-.24,1.48-.46,2.87-.67,4.16-.2,1.29-.32,2.48-.47,3.54-.07.54-.13,1.04-.19,1.52-.04.47-.18.95-.06,1.29.12.37.37.62.57.81.2.2.41.32.61.4.2.07.37.1.52.1.12,0,.38.04.51.05.3.04.45.05.45.05l-.33,1.79s-.15-.05-.43-.15c-.16-.05-.35-.12-.58-.2-.28-.1-.58-.26-.88-.5-.29-.24-.57-.55-.76-.95-.19-.4-.24-.89-.21-1.36.08-.94.23-1.82.37-2.92.15-1.07.29-2.26.5-3.55.22-1.29.46-2.68.71-4.16.57-2.96,1.25-6.29,2.09-9.9.43-1.81.9-3.68,1.44-5.61.28-.96.56-1.94.85-2.93.15-.49.31-.99.47-1.49.08-.22.03-.44-.08-.51l-.14-.16s-.07-.01-.1-.01c-.06-.02-.17-.05-.17-.02-.24-.03-.47-.2-.88-.14-.1,0-.19.07-.27.12-.06.05-.14.11-.19.26-.08.19-.14.5-.22.75-.28,1.05-.56,2.11-.85,3.19-.57,2.15-1.07,4.37-1.59,6.63-.24,1.13-.48,2.27-.72,3.42-.2,1.16-.4,2.32-.6,3.5-.38,2.35-.71,4.74-1,7.15-.13,1.2-.26,2.41-.36,3.64,0,.15-.05.41-.17.61-.08.13-.17.23-.21.27l-.04.05s-.13.08-.11.08l-.17.09c-.13.04-.24.08-.41.07-.08,0-.17-.02-.25-.04-.07-.02-.08-.03-.12-.05l-.05-.02s-.13-.07-.09-.05c-.01,0-.02-.02-.04-.03-.03-.01-.05-.04-.08-.05-.12-.08-.36-.14-.55.01-.21.14-.17.45-.19.76-.13,2.46-.25,4.92-.33,7.39-.06,2.47-.12,4.94-.17,7.4v.46c-.02.18-.04.36-.11.53-.07.17-.16.33-.28.47-.06.07-.13.14-.21.21-.09.07-.11.08-.22.15-.33.19-.74.27-1.14.19-.48-.11-.69-.31-.97-.46-.55-.31-1.05-.68-1.52-1.06-.48-.37-.99-.84-1.37-1.36-.79-1.04-1.29-2.25-1.51-3.49-.05-.31-.08-.63-.12-.94l-.02-.9c.03-.61.06-1.21.09-1.81.04-1.19.14-2.38.24-3.55.08-1.18.22-2.34.35-3.49.53-4.61,1.32-9.03,2.18-13.19.86-4.16,1.82-8.07,2.8-11.64.5-1.79.99-3.5,1.49-5.11.25-.81.5-1.59.74-2.36.12-.37.27-.77.34-1.11.09-.36,0-.73-.15-1.03-.06-.15-.15-.3-.22-.43-.05-.12-.15-.28-.25-.43-.19-.28-.42-.63-.57-.97-.32-.68-.49-1.38-.58-2.05-.17-1.35-.02-2.58.18-3.65.44-2.15,1.08-3.74,1.49-4.83.44-1.07.67-1.65.67-1.65l.23.09Z"/>
      <path class="cls-3" d="M40.5,114.48c-7.26,0-15.03-.5-23.17-1.83l.04-.25c22.33,3.66,41.79,1.01,56.01-.92.83-.11,1.65-.22,2.46-.33l.03.25c-.8.11-1.62.22-2.46.33-9.05,1.23-20.22,2.75-32.91,2.75Z"/>
      <path class="cls-3" d="M26.54,128.28h-.25c.1-2.15,1.6-12.66,2.24-17.08.18-1.25,1.3-2.12,2.55-1.98,4.67.52,12.25.39,15.01.18l.02.25c-2.76.21-10.37.34-15.05-.18-1.11-.12-2.12.65-2.28,1.76-.64,4.42-2.14,14.92-2.24,17.05Z"/>
      <path class="cls-3" d="M42.09,134.66c-9.16,0-18.95-.66-25.52-2.51l.07-.24c9.06,2.55,24.26,2.83,35.46,2.25v.25c-3.09.16-6.5.26-10.01.26Z"/>
      <path class="cls-3" d="M34.59,142.4c-6.53,0-17.48-1.87-22.86-3.93l.09-.23c5.48,2.1,16.76,4,23.2,3.91v.25c-.14,0-.28,0-.43,0Z"/>
      <path class="cls-3" d="M15.75,160.15s-.7-.29-1.93-.79c-.62-.26-1.37-.58-2.23-.95-.88-.4-1.83-1.12-2.51-2.13-.71-1-1.05-2.32-1.08-3.67,0-1.34.05-2.69.1-4.12.11-2.85.27-5.89.47-8.92.43-6.06.92-12.13,1.7-16.64.1-.56.19-1.1.32-1.61.11-.51.23-.99.37-1.44.14-.48.3-.82.19-1.17-.09-.35-.36-.58-.53-.64-.27-.07-.51-.14-.71-.19-.25-.06-.46-.14-.63-.19-.34-.12-.51-.19-.51-.19l.32-.95s.19.04.52.15c.17.06.38.12.62.22.12.05.25.1.39.15.07.03.15.06.22.09.12.05.23.12.32.21.36.35.44.83.45,1.28,0,.23,0,.45-.06.7-.06.21-.13.43-.2.65-.14.43-.26.9-.37,1.41-.12.5-.22,1.04-.32,1.59-.4,2.23-.72,4.87-1.01,7.7-.29,2.83-.53,5.86-.7,8.89-.18,3.03-.31,6.07-.39,8.91-.03,1.41-.08,2.81-.05,4.09.09,1.26.6,2.37,1.21,3.22.64.87,1.42,1.43,2.23,1.77.85.33,1.6.62,2.21.86,1.24.49,1.94.77,1.94.77l-.38.93Z"/>
      <path class="cls-3" d="M60.6,83.51s-1.63.13-4.47.35c-.72.04-1.51.09-2.37.14-.84.06-1.84.07-2.74.2-.52.03-.93.2-1.39.32-.23.06-.45.21-.67.31-.23.11-.46.22-.66.38-.89.54-1.63,1.41-2.15,2.43-.29.5-.42,1.08-.59,1.65-.12.62-.24,1.26-.37,1.91-.25,1.29-.5,2.63-.74,4.01-.25,1.38-.5,2.79-.76,4.24l-.05.27-.07.3-.13.54c-.17.37-.31.82-.57,1.14-.44.71-1.09,1.28-1.84,1.69-.74.44-1.65.57-2.48.6-.78,0-1.56-.01-2.34-.02-1.57-.02-3.16-.13-4.76-.24-.34,0-.94-.07-1.37-.4-.22-.15-.36-.32-.53-.57l-.14-.27c-.04-.13-.09-.26-.12-.4-.1-.51.07-1.02.18-1.37l.34-1.17c.46-1.56.86-3.13,1.38-4.69.5-1.56,1-3.12,1.5-4.68l.05-.15s-.03.09,0,.02v-.04s.03-.07.03-.07c.01-.09.07-.23.04-.26-.01-.05,0-.09-.01-.15-.02-.06-.04-.13-.05-.19-.07-.22-.36-.49-.52-.54-.12-.06-.23-.06-.37-.09l-.6-.02-1.2-.04c-1.61-.09-3.23-.17-4.81-.4-.79-.1-1.58-.18-2.36-.38-.69-.15-1.38-.3-2.06-.45-.07-.03-.17-.02-.29-.04-.12-.01-.25.01-.33.1-.1.09-.15.15-.24.32l-.25.51c-.32.68-.59,1.37-.85,2.06-.53,1.37-1.04,2.71-1.52,4.02-.96,2.62-1.84,5.12-2.58,7.44-.78,2.31-1.38,4.47-1.95,6.36-.52,1.91-.94,3.59-1.29,4.97-.58,2.79-.92,4.38-.92,4.38l-.25-.04s.32-1.6.88-4.4c.34-1.39.75-3.07,1.22-5,.54-1.91,1.09-4.09,1.83-6.42.7-2.34,1.52-4.86,2.44-7.51.45-1.33.93-2.68,1.44-4.07.25-.7.52-1.38.74-2.1.11-.55.56-1.96,1.84-2.12.15-.02.41-.01.48,0l.14.03.21.05.54.14,1.08.28c.72.22,1.48.33,2.24.45,1.52.29,3.08.43,4.67.58l1.2.09.6.05c.26.04.55.09.79.22.57.3.85.67,1.06,1.21.07.26.12.54.08.86,0,.18-.05.23-.07.34l-.06.2-.05.14c-.55,1.51-1.1,3.04-1.66,4.56-.55,1.52-.98,3.1-1.48,4.64l-.35,1.16c-.13.42-.2.71-.13,1,.02.06.04.12.05.18l.15.26c.07.06.19.22.32.27.23.14.47.18.92.15,1.6-.05,3.2-.1,4.77-.06.79.02,1.57.04,2.34.06.71,0,1.37-.04,1.98-.36.6-.29,1.17-.69,1.53-1.26.23-.26.31-.55.47-.84l.15-.53c.02-.07.06-.21.06-.23l.05-.27c.28-1.44.56-2.85.83-4.23.27-1.37.53-2.71.76-4.01.12-.65.24-1.28.35-1.91.18-.65.33-1.3.64-1.87,1.12-2.35,3.39-3.78,5.49-4.05,2.05-.26,3.7-.39,5.13-.55,1.41-.16,2.52-.35,3.28-.45.76-.11,1.16-.17,1.16-.17l.15,1.47Z"/>
      <path class="cls-3" d="M32.31,103.47l-.24-.06c2.39-9.75,6.15-20.22,8.17-25.6l.23.09c-2.02,5.37-5.77,15.83-8.16,25.57Z"/>
      <path class="cls-3" d="M37.48,103.39l-.24-.06c2.5-10.2,5.31-19.77,7.5-25.6l.23.09c-2.19,5.82-4.99,15.38-7.5,25.57Z"/>
      <path class="cls-3" d="M2.43,145.62c-.22,0-.42-.12-.52-.31-.93-1.73-2.01-4.82-1.9-9.69h.25c-.11,4.82.96,7.87,1.87,9.57.07.14.23.21.38.17.15-.04.26-.17.26-.33.13-4.87,1.49-16.62,2.07-21.44.12-.98-.09-1.94-.59-2.78-.42-.71-.82-1.54-1.2-2.47-.37-.92-.5-1.92-.36-2.91,1.02-7.35,4.61-18.31,4.87-19.1l-1.34-3.38.23-.09,1.37,3.47v.04c-.05.12-3.84,11.53-4.89,19.1-.13.94-.01,1.91.35,2.78.37.92.77,1.74,1.19,2.43.53.89.74,1.91.62,2.94-.58,4.82-1.95,16.56-2.07,21.42,0,.27-.2.5-.46.56-.05.01-.09.02-.14.02Z"/>
      <path class="cls-3" d="M20.09,194.76c-1.4-.59-3.4-1.76-4.84-2.63-1.04-.63-1.77-1.63-2.06-2.81-.4-1.62-.96-3.85-1.31-5.24-.07-.28.03-.57.25-.75.23-.18.54-.21.79-.07l1.21.63c.23.12.51.09.71-.06.2-.16.3-.42.24-.67-.86-3.69-2.08-10.36-2.73-14-.08-.44.08-.88.42-1.16.34-.28.81-.36,1.22-.2,1.58.6,3.73,1.37,4.88,1.78.35.12.74.06,1.03-.16.3-.23.46-.58.43-.95-.26-3.63-.88-12.14-1.04-18.06h.25c.16,5.9.77,14.41,1.04,18.04.03.46-.16.89-.53,1.17-.36.28-.84.35-1.27.2-1.15-.41-3.31-1.18-4.88-1.78-.33-.12-.7-.06-.97.16-.27.22-.4.58-.34.92.65,3.64,1.87,10.3,2.73,13.99.08.35-.05.71-.33.93-.28.22-.66.25-.98.09l-1.21-.63c-.17-.09-.37-.07-.52.05-.15.12-.21.31-.17.49.35,1.39.91,3.61,1.32,5.24.28,1.11.97,2.06,1.95,2.65,1.42.87,3.41,2.02,4.8,2.61l-.1.23Z"/>
      <path class="cls-3" d="M102.48,5.02s.15.04.41.17c.26.14.61.4.99.82.75.85,1.6,2.3,2.43,4.24.21.48.41,1,.62,1.55l.08.21s.02.05.04.12l.03.11c.04.13.07.3.07.49,0,.35-.1.71-.32.99-.07.13-.24.28-.38.4-.15.1-.31.21-.49.27-.35.13-.65.18-.99.28-.66.17-1.35.35-2.06.53-2.84.73-6.06,1.47-9.6,2.16-3.54.7-7.41,1.32-11.56,1.6-.52.03-1.04.07-1.57.1-.45.04-1.03.07-1.53.13-.47.13-.96.16-1.43.37l-.73.25c-.24.09-.46.23-.69.34-1.84,1.03-3.75,2.24-5.54,3.57-.9.68-1.81,1.34-2.71,2.04-.88.72-1.77,1.45-2.66,2.18l-1.34,1.1c-.44.38-.86.79-1.29,1.18-.85.79-1.71,1.59-2.57,2.4-.19.19-.48.41-.6.59,0,.05-.04.11,0,.19v.03c-.03-.07,0,0,0,0l.06.1s.02.02.06.04c.06.06.46.03.74.03h.89c1.19-.04,2.37-.07,3.56-.15,1.19-.06,2.38-.15,3.57-.26,1.19-.09,2.38-.23,3.56-.38,4.75-.55,9.47-1.35,14.03-2.49l.43-.1.21-.05h.05s.15-.04.11-.03h.11c.08-.04.48,0,.64.07.22.09.34.17.56.4l.12.18c.04.07.1.21.13.32.06.23.07.43.02.65-.09.39-.19.59-.28.89-.38,1.11-.77,2.21-1.08,3.31-.32,1.1-.67,2.19-.97,3.29-.28,1.1-.57,2.2-.85,3.28-.6,2.16-.99,4.34-1.47,6.44-.5,2.1-.8,4.2-1.17,6.22-.78,4.04-1.17,7.92-1.66,11.47-.27,1.78-.36,3.5-.52,5.13-.14,1.63-.28,3.18-.4,4.63-.31,2.9-.31,5.45-.43,7.54-.18,4.19-.28,6.58-.28,6.58l-1-.02s.11-2.4.3-6.6c.13-2.1.13-4.66.45-7.57.13-1.46.27-3.01.41-4.65.16-1.64.26-3.36.53-5.15.5-3.57.9-7.46,1.7-11.52.37-2.03.68-4.13,1.19-6.25.49-2.11.88-4.3,1.49-6.47.28-1.09.57-2.19.86-3.3.3-1.11.66-2.21.99-3.32.32-1.12.71-2.22,1.09-3.32.08-.26.22-.6.26-.78.03-.07,0-.17,0-.22-.02-.03.01-.03-.02-.09l-.12-.18c.04.06-.05-.02-.06-.03-.03-.03-.07-.03-.11-.05-.04-.03-.06-.02-.08-.03-.01,0-.02-.01-.03-.02h-.11s-.11.02-.11.02c-.07.01.03,0,0,0h-.05s-.22.06-.22.06l-.43.1c-4.61,1.14-9.37,1.93-14.15,2.47-1.2.12-2.4.24-3.6.31-1.2.09-2.4.16-3.6.19-1.2.06-2.4.06-3.59.07h-.89s-.45-.02-.45-.02c-.11,0-.38,0-.57-.12-.09-.04-.2-.16-.27-.24l-.06-.1s0,.01-.04-.09l-.02-.08c-.07-.2-.02-.45.1-.66.23-.29.44-.42.67-.64.88-.79,1.76-1.58,2.63-2.37.44-.39.86-.79,1.31-1.16l1.37-1.08c.91-.72,1.81-1.43,2.71-2.14.91-.69,1.85-1.34,2.76-2,.91-.67,1.79-1.35,2.7-1.97.92-.62,1.76-1.3,2.72-1.85.93-.6,1.99-.91,3.05-1.16,1.05-.15,2.12-.19,3.13-.24,4.1-.21,7.97-.77,11.5-1.4,3.54-.62,6.77-1.32,9.61-2,.71-.17,1.4-.34,2.06-.5.65-.17,1.36-.25,1.7-.8.39-.5.34-1.16.12-1.68-.19-.55-.38-1.07-.57-1.55-.76-1.95-1.57-3.41-2.29-4.27-.37-.43-.71-.7-.96-.84-.26-.13-.4-.18-.4-.18Z"/>
      <path class="cls-3" d="M98.87,4.27s.11,0,.33.03c.22.02.54.03.97.1.86.09,2.09.35,3.62.79,1.52.47,3.31,1.21,5.27,2.23,1.96,1.04,4.04,2.4,6.23,4.02,2.12,1.69,4.4,3.57,6.57,5.8,2.22,2.17,4.39,4.64,6.57,7.23,1.06,1.34,2.12,2.64,3.2,4.09.05.1.11.18.16.29l.12.37c.06.25.06.49.05.74l-.07.36c-.04.18-.09.22-.13.34-.06.19-.25.41-.41.61-.34.34-.86.58-1.26.68l-1.27.4c-3.38,1.07-6.84,2.13-10.31,3.13-3.46,1.03-6.95,1.97-10.38,2.89-3.43.92-6.84,1.72-10.14,2.46-3.29.78-6.51,1.41-9.55,2-.76.15-1.51.3-2.25.44-.74.12-1.48.24-2.2.36-1.44.24-2.83.47-4.17.69-1.35.21-2.61.4-3.61,1.04-1.02.61-1.8,1.48-2.28,2.41-.48.93-.68,1.95-.95,2.86-.25.92-.49,1.76-.7,2.52-.83,3.05-1.3,4.79-1.3,4.79l-.48-.13s.48-1.74,1.33-4.78c.21-.76.44-1.6.69-2.52.27-.9.45-1.93.98-2.96.52-1.01,1.35-1.95,2.45-2.61,1.1-.71,2.48-.9,3.78-1.13,1.33-.24,2.71-.49,4.15-.75.72-.13,1.44-.26,2.18-.4.74-.16,1.48-.32,2.24-.48,3.03-.65,6.23-1.31,9.51-2.12,1.64-.4,3.32-.77,5-1.21,1.68-.44,3.39-.87,5.11-1.29,3.44-.88,6.93-1.78,10.4-2.75,3.48-.95,6.94-1.94,10.34-2.96l1.27-.38c.46-.11.75-.28,1.05-.54.53-.57.67-1.45.22-2.12-1-1.34-2.11-2.71-3.14-4.03-2.17-2.58-4.32-5.04-6.52-7.21-2.16-2.22-4.41-4.09-6.51-5.77-2.16-1.61-4.22-2.97-6.16-3.99-1.94-1-3.71-1.72-5.2-2.17-1.5-.43-2.71-.67-3.53-.76-.41-.06-.74-.07-.95-.09-.22-.02-.33-.03-.33-.03l.04-.5Z"/>
      <path class="cls-3" d="M100.86,4.65s.64.03,1.84.09c1.2.07,2.96.17,5.19.39,2.23.21,4.94.52,8.02,1.02,3.08.5,6.55,1.18,10.25,2.24,1.86.51,3.75,1.18,5.68,1.95.95.43,1.93.82,2.87,1.35l.72.38.18.09s.03,0,.12.07l.08.06c.11.09.21.14.32.3.44.55.46,1.28.12,1.84-.18.31-.44.5-.75.64-.29.12-.53.19-.8.28-.53.18-1.06.36-1.59.55-1.07.37-2.15.74-3.24,1.11-1.09.38-2.2.75-3.31,1.14-1.11.39-2.24.78-3.4,1.09-2.31.67-4.65,1.35-7.03,2.04-2.38.66-4.79,1.33-7.22,2.01l-1.83.51c-.14.04-.33.09-.43.13-.14.06-.32.09-.42.17-.22.12-.47.3-.64.52-.37.43-.56,1.01-.51,1.58l.2,1.89.24,1.9c.02.17.05.29.05.5,0,.16.03.31,0,.49-.03.37-.13.71-.28,1.02-.3.63-.85,1.15-1.5,1.42-.34.14-.66.21-.96.28l-.93.22c-2.49.6-4.98,1.19-7.46,1.79-2.49.53-4.99,1-7.48,1.43-2.48.44-4.95.87-7.38,1.3-1.22.21-2.43.42-3.63.63l-.89.16c-.3.06-.59.13-.85.23-.53.21-1.03.53-1.44.93-.83.8-1.19,1.97-1.72,3.02-.49,1.07-.97,2.14-1.45,3.19-.23.52-.48,1.06-.77,1.56-.34.5-.71.96-1.16,1.34-.88.77-1.98,1.27-3.11,1.43-4.37.6-8.51,1.04-12.35,1.26-3.84.21-7.39.23-10.53-.23-1.56-.25-3.04-.59-4.3-1.32-.61-.38-1.18-.87-1.51-1.53-.31-.65-.39-1.38-.25-1.99.23-1.24.82-2.15,1.33-2.88.51-.75,1.03-1.3,1.43-1.77.85-.87,1.31-1.34,1.31-1.34l.74.79s-.45.44-1.29,1.26c-.39.44-.9.95-1.39,1.63-.5.66-1.03,1.49-1.24,2.46-.12.48-.06.98.13,1.45.22.47.65.87,1.16,1.21,1.06.67,2.48,1.03,3.99,1.28,3.04.49,6.56.52,10.38.35,3.82-.17,7.96-.56,12.32-1.11,1.05-.14,2.06-.59,2.89-1.29.42-.34.77-.77,1.08-1.21.3-.48.53-.98.77-1.52.49-1.05.98-2.1,1.48-3.17.24-.54.49-1.07.74-1.62.25-.55.59-1.09,1.04-1.53.45-.44.98-.78,1.57-1.03.3-.13.6-.21.89-.27l.91-.18c1.19-.24,2.4-.48,3.61-.72,2.42-.48,4.87-.96,7.34-1.45,2.46-.52,4.97-.91,7.46-1.42,2.49-.56,4.98-1.12,7.48-1.69l.94-.21c.32-.07.63-.13.88-.24.53-.21.98-.63,1.24-1.14.13-.26.21-.54.24-.81.03-.13,0-.31,0-.47,0-.11-.03-.31-.04-.45l-.21-1.9-.23-1.9c-.07-.7.16-1.42.6-1.96.22-.28.49-.5.82-.67.17-.11.3-.13.46-.19.2-.07.32-.1.48-.15l1.81-.53c2.41-.71,4.81-1.42,7.17-2.11,2.37-.67,4.72-1.33,7.02-1.98,1.16-.3,2.29-.68,3.4-1.06,1.12-.37,2.22-.75,3.32-1.11s2.18-.73,3.25-1.09c.53-.18,1.07-.36,1.59-.53.26-.09.55-.17.77-.27.2-.09.39-.24.49-.41.25-.37.2-.91-.03-1.22-.02-.08-.16-.17-.26-.25l-.08-.06s-.04-.02-.06-.03l-.18-.09-.7-.37c-.92-.52-1.89-.92-2.82-1.35-1.91-.77-3.78-1.45-5.62-1.98-3.67-1.08-7.12-1.78-10.19-2.3-3.07-.52-5.77-.84-7.99-1.07-2.22-.23-3.98-.35-5.17-.43-1.2-.06-1.84-.1-1.84-.1v-.25Z"/>
      <path class="cls-3" d="M44.34,60.94c-7.5,0-12.21-1.22-13.81-3.69-1.18-1.82-.6-4.19,1.73-7.06l.19.16c-2.25,2.77-2.83,5.04-1.71,6.76,1.44,2.23,6.54,4.58,22.61,3.14,15-1.35,36.3-5.7,63.31-12.93l.06.24c-33,8.83-57.9,13.38-72.38,13.38Z"/>
      <path class="cls-3" d="M101.14,45.52l-.07-.24c19.74-5.37,84.19-23.77,85.04-35.25.13-1.73-1.28-3.25-4.18-4.52l.1-.23c3.01,1.31,4.46,2.92,4.33,4.77-.85,11.64-65.45,30.09-85.22,35.47Z"/>
      <path class="cls-3" d="M37.01,94.74c-2.02,0-3.95-.03-5.17-.1l.03-.5c2.84.16,9.5.09,12.27,0l.02.5c-1.59.05-4.45.1-7.15.1Z"/>
      <path class="cls-3" d="M216.33,252.75l-.2-.46c9.17-4.08,24.01-13.86,34.92-25.69l.37.34c-10.95,11.89-25.86,21.71-35.08,25.81Z"/>
    </g>
    <path class="cls-3" d="M262.17,68.17s.99,2.08,2.84,5.99c.46.98.98,2.07,1.55,3.27.58,1.2,1.06,2.57,1.66,4.01,1.13,2.92,2.63,6.21,3.79,10.08.63,1.92,1.3,3.93,1.99,6.05.6,2.14,1.16,4.41,1.78,6.76.3,1.18.63,2.37.92,3.61.24,1.24.48,2.51.73,3.8.25,1.29.5,2.6.75,3.94.12.67.27,1.34.37,2.02.09.69.17,1.38.26,2.08,1.62,11.11,2.14,23.92.4,37.66-.51,3.42-.88,6.94-1.71,10.45-.37,1.76-.74,3.54-1.11,5.34-.49,1.77-.98,3.55-1.48,5.35-.25.9-.5,1.8-.75,2.71-.24.91-.6,1.79-.89,2.69-.62,1.79-1.25,3.6-1.88,5.42-.64,1.82-1.47,3.58-2.2,5.39-.77,1.8-1.47,3.64-2.4,5.4-.88,1.78-1.77,3.56-2.67,5.36-.91,1.79-1.99,3.51-2.99,5.28-.51.88-1.02,1.76-1.53,2.65-.51.89-1.12,1.72-1.68,2.58-1.14,1.71-2.29,3.44-3.44,5.17-4.93,6.72-10.4,13.27-16.6,19.32-6.27,5.97-13.09,11.58-20.52,16.52-7.48,4.85-15.46,9.11-23.84,12.66-8.45,3.39-17.25,6.03-26.27,7.88-9.05,1.74-18.27,2.53-27.53,2.62-18.48-.03-36.94-3.85-53.7-10.91-16.78-7.05-31.83-17.32-44.14-29.5-12.34-12.17-21.92-26.21-28.63-40.57-.8-1.81-1.66-3.59-2.4-5.4-.72-1.82-1.43-3.63-2.13-5.42-1.26-3.64-2.51-7.23-3.45-10.84-1.96-7.2-3.42-14.29-4.14-21.18-.77-6.88-1.14-13.52-.86-19.83.15-3.15.12-6.22.53-9.19.16-1.49.31-2.95.47-4.39.08-.72.15-1.44.23-2.15.08-.71.23-1.4.35-2.1,1.6-11.15,4.64-20.54,7.42-28.09.74-1.87,1.45-3.65,2.11-5.32.31-.84.69-1.63,1.05-2.39.36-.76.71-1.49,1.05-2.2.67-1.41,1.3-2.72,1.87-3.92.54-1.22,1.2-2.23,1.71-3.18,2.11-3.77,3.24-5.78,3.24-5.78,0,0-1.12,2.02-3.21,5.79-.5.96-1.16,1.97-1.69,3.19-.57,1.2-1.18,2.51-1.85,3.93-.33.71-.68,1.44-1.04,2.2-.37.76-.74,1.54-1.04,2.39-.65,1.67-1.35,3.45-2.09,5.32-2.74,7.56-5.72,16.95-7.27,28.09-.11.69-.26,1.39-.33,2.09-.07.71-.14,1.42-.22,2.14-.15,1.44-.29,2.9-.44,4.38-.4,2.95-.35,6.04-.48,9.18-.18,3.15-.02,6.36.06,9.67.04,1.65.23,3.31.34,5,.06.84.13,1.69.2,2.54.07.85.21,1.7.31,2.56.73,6.87,2.2,13.93,4.16,21.1.95,3.6,2.2,7.17,3.46,10.8.71,1.79,1.42,3.59,2.13,5.4.74,1.8,1.6,3.57,2.4,5.38,6.72,14.31,16.29,28.27,28.6,40.38,12.28,12.11,27.28,22.31,43.99,29.29,16.7,7.01,35.05,10.77,53.46,10.77,9.18-.08,18.38-.84,27.38-2.56,8.98-1.82,17.74-4.44,26.16-7.8,8.35-3.51,16.3-7.74,23.75-12.56,7.4-4.9,14.2-10.48,20.46-16.41,6.19-6.02,11.65-12.53,16.57-19.22,1.15-1.73,2.3-3.44,3.44-5.15.56-.86,1.17-1.69,1.68-2.57.51-.88,1.02-1.76,1.53-2.64,1-1.77,2.08-3.47,2.99-5.26.9-1.79,1.79-3.57,2.67-5.34.93-1.74,1.63-3.58,2.41-5.37.73-1.81,1.57-3.56,2.21-5.37.63-1.81,1.26-3.61,1.89-5.4.3-.9.66-1.77.9-2.68.25-.9.5-1.8.75-2.7.5-1.79,1-3.57,1.49-5.33.38-1.79.75-3.56,1.12-5.32.84-3.5,1.22-7.01,1.73-10.42,1.75-13.7,1.3-26.47-.26-37.57-.08-.7-.17-1.39-.25-2.07-.1-.68-.24-1.35-.36-2.02-.25-1.33-.49-2.65-.73-3.94-.24-1.29-.48-2.55-.71-3.8-.28-1.23-.61-2.43-.9-3.61-.61-2.35-1.15-4.62-1.74-6.76-.69-2.12-1.34-4.14-1.96-6.06-1.14-3.87-2.62-7.16-3.74-10.09-.59-1.45-1.07-2.82-1.64-4.02-.56-1.2-1.08-2.29-1.53-3.27-1.83-3.91-2.81-6-2.81-6Z"/>
    <g>
      <g>
        <path class="cls-4" d="M104.56,146.53c-.19-1.97,1.2-3.8,3.18-4.01,2.07-.21,3.8,1.42,3.8,3.55,0,2.01-1.57,3.61-3.45,3.67-1.81.06-3.36-1.35-3.54-3.21Z"/>
        <path class="cls-3" d="M107.99,149.99c-1.91,0-3.5-1.48-3.69-3.44-.21-2.14,1.32-4.06,3.41-4.28,2.25-.23,4.08,1.53,4.08,3.8,0,2.1-1.65,3.86-3.69,3.92h-.11ZM108.11,142.75c-.11,0-.22,0-.34.02-1.81.19-3.14,1.86-2.96,3.74.16,1.7,1.53,2.99,3.19,2.99h.1c1.77-.06,3.2-1.59,3.2-3.42s-1.4-3.32-3.19-3.32Z"/>
      </g>
      <path class="cls-3" d="M106.36,146.41c-.06-.9.59-1.71,1.48-1.78.91-.07,1.67.64,1.7,1.57.02.91-.67,1.67-1.54,1.71-.85.04-1.58-.62-1.64-1.5Z"/>
    </g>
    <g>
      <g>
        <path class="cls-4" d="M75,158.25c-.06-1.62,1.13-3.17,2.83-3.53,1.92-.41,3.83.8,4.03,2.81.21,2.09-1.51,3.83-3.59,3.81-1.83-.02-3.21-1.42-3.28-3.09Z"/>
        <path class="cls-3" d="M78.31,161.59h-.03c-1.9-.02-3.45-1.48-3.52-3.33-.07-1.77,1.23-3.4,3.03-3.78.26-.06.53-.08.8-.08,1.86,0,3.35,1.31,3.53,3.11.11,1.03-.22,2.03-.93,2.81-.73.81-1.78,1.27-2.88,1.27ZM78.58,154.89c-.23,0-.47.02-.7.07-1.56.33-2.69,1.74-2.64,3.27.06,1.58,1.39,2.84,3.03,2.85l.03.25v-.25c.96,0,1.87-.4,2.51-1.11.61-.67.89-1.53.8-2.42-.16-1.54-1.43-2.66-3.04-2.66Z"/>
      </g>
      <path class="cls-3" d="M76.58,158.08c-.04-.79.55-1.51,1.37-1.64.86-.13,1.66.45,1.73,1.31.07.88-.63,1.65-1.53,1.7-.84.05-1.53-.58-1.57-1.37Z"/>
    </g>
    <g>
      <g>
        <path class="cls-4" d="M32.48,142.27c0-1.89.94-3.42,2.09-3.42s2.09,1.53,2.09,3.42-.94,3.42-2.09,3.42-2.09-1.53-2.09-3.42Z"/>
        <path class="cls-3" d="M34.57,145.94c-1.31,0-2.34-1.61-2.34-3.67s1.03-3.67,2.34-3.67,2.34,1.61,2.34,3.67-1.03,3.67-2.34,3.67ZM34.57,139.1c-1,0-1.84,1.45-1.84,3.17s.84,3.17,1.84,3.17,1.84-1.45,1.84-3.17-.84-3.17-1.84-3.17Z"/>
      </g>
      <path class="cls-3" d="M33.62,142.27c0-.86.43-1.56.95-1.56s.95.7.95,1.56-.43,1.56-.95,1.56-.95-.7-.95-1.56Z"/>
    </g>
    <g>
      <g>
        <path class="cls-4" d="M43.05,172.83c-.03-1.93,1.13-3.24,2.6-2.94,1.47.3,2.69,2.11,2.72,4.03.03,1.93-1.13,3.24-2.6,2.94-1.47-.3-2.69-2.11-2.72-4.03Z"/>
        <path class="cls-3" d="M46.18,177.15c-.15,0-.31-.02-.46-.05-1.58-.32-2.89-2.24-2.92-4.27-.02-1.04.31-1.98.89-2.58.54-.55,1.26-.77,2.01-.62,1.57.32,2.89,2.24,2.92,4.27.02,1.04-.31,1.98-.89,2.57-.43.44-.96.66-1.54.66ZM45.23,170.09c-.45,0-.86.18-1.19.52-.49.5-.76,1.31-.75,2.21.03,1.81,1.16,3.51,2.52,3.79.58.12,1.13-.05,1.55-.48.49-.5.76-1.31.75-2.21-.03-1.81-1.16-3.51-2.52-3.79-.12-.03-.24-.04-.36-.04Z"/>
      </g>
      <path class="cls-3" d="M44.5,173.12c-.02-.88.51-1.48,1.18-1.34.67.14,1.22.96,1.24,1.84s-.51,1.48-1.18,1.34-1.22-.96-1.24-1.84Z"/>
    </g>
    <g>
      <g>
        <path class="cls-4" d="M73.27,111.38c0-1.98,1.22-3.63,2.73-3.7,1.51-.07,2.73,1.48,2.73,3.46s-1.22,3.63-2.73,3.7c-1.51.07-2.73-1.48-2.73-3.46Z"/>
        <path class="cls-3" d="M75.91,115.09c-1.62,0-2.89-1.63-2.89-3.71s1.33-3.88,2.97-3.95h.1c1.62,0,2.89,1.63,2.89,3.71s-1.33,3.88-2.97,3.95h-.1ZM76.09,107.93h-.08c-1.38.06-2.49,1.61-2.49,3.45s1.05,3.21,2.39,3.21h.08c1.38-.06,2.49-1.61,2.49-3.45s-1.05-3.21-2.39-3.21Z"/>
      </g>
      <path class="cls-3" d="M74.75,111.31c0-.9.56-1.65,1.25-1.68.69-.03,1.25.68,1.25,1.57s-.56,1.65-1.25,1.68c-.69.03-1.25-.68-1.25-1.57Z"/>
    </g>
    <g>
      <g>
        <path class="cls-4" d="M93.73,193.17c-.07-1.86,1.4-3.24,3.32-3.06,1.97.18,3.61,1.93,3.63,3.86.02,1.91-1.56,3.22-3.47,2.96-1.87-.25-3.41-1.93-3.48-3.76Z"/>
        <path class="cls-3" d="M97.69,197.21c-.17,0-.34-.01-.52-.04-2-.27-3.62-2.03-3.69-4-.03-.91.28-1.75.88-2.37.68-.7,1.65-1.05,2.72-.95,2.11.2,3.84,2.04,3.86,4.11,0,.89-.31,1.71-.9,2.31-.6.61-1.43.94-2.34.94ZM96.72,190.34c-.78,0-1.5.29-2,.81-.5.52-.76,1.23-.74,2,.06,1.71,1.52,3.28,3.26,3.52.95.13,1.83-.15,2.43-.76.5-.5.76-1.19.76-1.95-.02-1.79-1.58-3.44-3.4-3.62-.1,0-.21-.01-.31-.01Z"/>
      </g>
      <path class="cls-3" d="M95.56,193.38c-.02-.85.66-1.47,1.53-1.38.88.09,1.62.88,1.63,1.75.01.86-.69,1.47-1.56,1.36-.86-.11-1.58-.88-1.6-1.72Z"/>
    </g>
    <g>
      <g>
        <path class="cls-4" d="M76.26,194.77c-.16-1.74,1.08-3.05,2.8-2.94,1.74.11,3.34,1.64,3.54,3.44.21,1.82-1.09,3.18-2.88,3.01-1.76-.17-3.29-1.74-3.45-3.51Z"/>
        <path class="cls-3" d="M80.01,198.54c-.11,0-.21,0-.32-.01-1.86-.17-3.51-1.85-3.68-3.73-.08-.89.18-1.72.73-2.32.57-.63,1.4-.95,2.33-.89,1.86.12,3.56,1.76,3.77,3.66.1.92-.14,1.76-.7,2.38-.53.59-1.29.92-2.14.92ZM78.86,192.07c-.69,0-1.31.26-1.75.74-.45.5-.67,1.19-.6,1.94.15,1.66,1.6,3.13,3.23,3.28.82.08,1.55-.19,2.04-.74.46-.51.66-1.22.57-1.99-.19-1.67-1.67-3.11-3.31-3.22-.06,0-.12,0-.18,0Z"/>
      </g>
      <path class="cls-3" d="M77.95,194.9c-.08-.8.49-1.4,1.28-1.35.79.06,1.51.76,1.6,1.57.09.82-.5,1.43-1.3,1.36-.8-.07-1.51-.78-1.58-1.59Z"/>
    </g>
    <g>
      <g>
        <path class="cls-4" d="M66.15,212.51h-.07c-1.7-.04-3.43-1.6-3.86-3.49-.2-.89-.07-1.71.38-2.31.37-.5.92-.79,1.57-.84,1.49-.12,3.23,1.15,3.91,2.85.43,1.08.39,2.13-.11,2.87-.4.58-1.04.91-1.82.91ZM64.35,206.37s-.1,0-.15,0c-.5.04-.92.26-1.2.64-.36.48-.46,1.16-.29,1.9.38,1.64,1.92,3.06,3.38,3.1h.06c.61,0,1.1-.24,1.4-.69.4-.59.43-1.49.06-2.41-.58-1.45-1.98-2.54-3.27-2.54Z"/>
        <path class="cls-4" d="M64.04,209.13c-.2-.73.15-1.33.79-1.36.65-.03,1.39.53,1.66,1.29.28.8-.08,1.48-.8,1.48-.7,0-1.44-.65-1.65-1.41Z"/>
      </g>
      <g>
        <path class="cls-3" d="M66.15,212.51h-.07c-1.7-.04-3.43-1.6-3.86-3.49-.2-.89-.07-1.71.38-2.31.37-.5.92-.79,1.57-.84,1.49-.12,3.23,1.15,3.91,2.85.43,1.08.39,2.13-.11,2.87-.4.58-1.04.91-1.82.91ZM64.35,206.37s-.1,0-.15,0c-.5.04-.92.26-1.2.64-.36.48-.46,1.16-.29,1.9.38,1.64,1.92,3.06,3.38,3.1h.06c.61,0,1.1-.24,1.4-.69.4-.59.43-1.49.06-2.41-.58-1.45-1.98-2.54-3.27-2.54Z"/>
        <path class="cls-3" d="M64.04,209.13c-.2-.73.15-1.33.79-1.36.65-.03,1.39.53,1.66,1.29.28.8-.08,1.48-.8,1.48-.7,0-1.44-.65-1.65-1.41Z"/>
      </g>
      <g>
        <path class="cls-5" d="M66.15,212.51h-.07c-1.7-.04-3.43-1.6-3.86-3.49-.2-.89-.07-1.71.38-2.31.37-.5.92-.79,1.57-.84,1.49-.12,3.23,1.15,3.91,2.85.43,1.08.39,2.13-.11,2.87-.4.58-1.04.91-1.82.91ZM64.35,206.37s-.1,0-.15,0c-.5.04-.92.26-1.2.64-.36.48-.46,1.16-.29,1.9.38,1.64,1.92,3.06,3.38,3.1h.06c.61,0,1.1-.24,1.4-.69.4-.59.43-1.49.06-2.41-.58-1.45-1.98-2.54-3.27-2.54Z"/>
        <path class="cls-5" d="M64.04,209.13c-.2-.73.15-1.33.79-1.36.65-.03,1.39.53,1.66,1.29.28.8-.08,1.48-.8,1.48-.7,0-1.44-.65-1.65-1.41Z"/>
      </g>
    </g>
    <g>
      <path class="cls-4" d="M55.14,119.78c.05-2.01,1.22-3.66,2.62-3.69s2.48,1.58,2.42,3.59c-.05,2.01-1.22,3.66-2.62,3.69-1.39.03-2.48-1.58-2.42-3.59Z"/>
      <path class="cls-3" d="M57.53,123.61c-.58,0-1.12-.25-1.58-.71-.7-.71-1.09-1.89-1.06-3.13.06-2.14,1.34-3.9,2.86-3.93h0c.62,0,1.17.25,1.62.71.7.71,1.09,1.89,1.06,3.13-.06,2.14-1.34,3.9-2.86,3.94h-.04ZM57.8,116.34c-1.29.03-2.35,1.57-2.4,3.45-.03,1.11.31,2.15.92,2.77.36.37.78.56,1.22.56v.25l.03-.25c1.26-.03,2.32-1.57,2.37-3.45.03-1.11-.31-2.15-.92-2.77-.36-.37-.78-.56-1.22-.56Z"/>
    </g>
    <g>
      <path class="cls-4" d="M75.81,90.67c.05-1.85,1.22-3.37,2.62-3.39s2.48,1.45,2.42,3.29c-.05,1.85-1.22,3.37-2.62,3.39s-2.48-1.45-2.42-3.29Z"/>
      <path class="cls-3" d="M78.2,94.21c-.61,0-1.19-.25-1.65-.74-.66-.67-1.01-1.7-.98-2.82.06-1.97,1.34-3.61,2.86-3.64h0c.66,0,1.23.25,1.7.74.66.67,1.01,1.7.98,2.82-.06,1.97-1.34,3.61-2.86,3.64h-.04ZM78.46,87.52c-1.29.02-2.36,1.44-2.4,3.15-.03.98.28,1.88.84,2.45.37.38.82.58,1.3.58v.25l.03-.25c1.26-.02,2.32-1.44,2.37-3.15.03-.98-.28-1.88-.84-2.45-.37-.38-.82-.58-1.3-.58Z"/>
    </g>
    <g>
      <path class="cls-4" d="M105.41,58.47c-.03-1.61.91-2.87,2.09-2.83,1.18.05,2.17,1.39,2.19,2.99.03,1.61-.91,2.87-2.09,2.83-1.18-.05-2.17-1.39-2.19-2.99Z"/>
      <path class="cls-3" d="M107.66,61.71h-.07c-1.31-.05-2.4-1.5-2.44-3.24-.02-.98.3-1.88.87-2.46.4-.41.89-.62,1.41-.62h.07c1.31.05,2.4,1.5,2.43,3.24.02.98-.3,1.88-.87,2.46-.4.41-.89.62-1.41.62ZM107.48,55.9c-.43,0-.79.16-1.1.47-.47.48-.75,1.27-.73,2.1.03,1.47.9,2.71,1.95,2.75l.05.25v-.25c.38,0,.75-.16,1.05-.47.47-.48.75-1.27.73-2.1-.03-1.47-.9-2.71-1.95-2.75h0Z"/>
    </g>
    <g>
      <path class="cls-4" d="M115.53,47.33c-.03-1.26.89-2.25,2.06-2.22,1.16.04,2.13,1.09,2.16,2.35.03,1.26-.89,2.25-2.06,2.22-1.16-.04-2.13-1.09-2.16-2.35Z"/>
      <path class="cls-3" d="M117.75,50.05h-.07c-1.36-.04-2.49-1.26-2.52-2.72-.02-.73.24-1.41.73-1.91.44-.45,1.02-.7,1.64-.7,1.43.04,2.56,1.26,2.59,2.72.02.73-.24,1.41-.73,1.91-.44.45-1.02.7-1.65.7ZM117.57,45.49c-.46,0-.86.17-1.15.47-.34.35-.52.83-.51,1.36.02,1.06.83,1.95,1.79,1.98l.05.38v-.38c.42,0,.81-.17,1.11-.47.34-.35.52-.84.51-1.36-.02-1.06-.83-1.95-1.79-1.98h0Z"/>
    </g>
    <g>
      <path class="cls-4" d="M63.67,74.28c1.17-3.21,3.56-5.23,5.35-4.51,1.79.72,2.29,3.9,1.13,7.11-1.17,3.21-3.56,5.23-5.35,4.51-1.79-.72-2.29-3.9-1.13-7.11Z"/>
      <path class="cls-3" d="M65.56,81.79c-.3,0-.58-.05-.85-.16-1.91-.77-2.48-4.1-1.27-7.42,1.03-2.84,3.02-4.82,4.82-4.82.3,0,.58.05.85.16,1.91.77,2.48,4.1,1.27,7.42-1.03,2.84-3.02,4.82-4.83,4.82ZM68.26,69.88c-1.58,0-3.41,1.89-4.36,4.49-1.12,3.08-.68,6.12.99,6.79.21.08.43.13.67.13,1.58,0,3.41-1.89,4.36-4.49,1.12-3.08.68-6.12-.99-6.79-.21-.08-.43-.13-.67-.13Z"/>
    </g>
    <path class="cls-3" d="M66.32,78.93c-.17,0-.34-.03-.5-.1-1.04-.46-1.35-2.29-.7-4.17.54-1.57,1.6-2.67,2.57-2.67.17,0,.34.04.5.1,1.04.46,1.35,2.29.7,4.17-.54,1.57-1.6,2.67-2.57,2.67ZM67.69,72.48c-.75,0-1.63.98-2.09,2.33-.55,1.59-.35,3.21.43,3.56.76.33,1.86-.73,2.39-2.27.54-1.59.35-3.21-.43-3.55-.09-.04-.19-.06-.3-.06Z"/>
    <g>
      <path class="cls-4" d="M45.42,108.93c.33-1.71,1.35-3.04,2.35-3.19,1.04-.15,1.88,1,1.83,2.81-.05,2.13-1.26,4.17-2.62,4.19-1.3.02-1.94-1.83-1.55-3.81Z"/>
      <path class="cls-3" d="M46.96,112.99c-.47,0-.89-.21-1.22-.6-.62-.75-.84-2.1-.57-3.51.35-1.8,1.42-3.22,2.55-3.39.49-.07.95.1,1.32.47.53.55.82,1.49.8,2.59-.06,2.34-1.4,4.42-2.87,4.44h-.02ZM47.95,105.97s-.1,0-.15.01c-.9.13-1.84,1.45-2.14,2.99-.24,1.25-.06,2.46.46,3.1.23.28.51.42.83.42v.25l.02-.25c1.19-.02,2.33-1.9,2.38-3.95.02-.97-.22-1.78-.66-2.23-.22-.23-.47-.34-.74-.34Z"/>
    </g>
    <g>
      <path class="cls-4" d="M215.95,170.7c.14-1.48,1.31-2.68,2.6-2.68s2.23,1.2,2.09,2.68-1.31,2.68-2.6,2.68-2.23-1.2-2.09-2.68Z"/>
      <path class="cls-3" d="M218.03,173.75c-.67,0-1.3-.28-1.75-.78-.53-.59-.79-1.43-.71-2.3.16-1.66,1.49-3.01,2.98-3.01.67,0,1.3.28,1.75.78.53.59.79,1.43.71,2.31-.16,1.66-1.49,3.01-2.98,3.01ZM218.55,168.4c-1.11,0-2.11,1.05-2.23,2.34-.06.67.12,1.3.51,1.73.31.34.74.54,1.2.54,1.1,0,2.1-1.05,2.23-2.34.06-.67-.12-1.3-.51-1.73-.31-.35-.74-.54-1.2-.54Z"/>
    </g>
    <g>
      <path class="cls-4" d="M238.59,153.86c-.11,1.53-1.1,2.77-2.23,2.77s-1.95-1.24-1.84-2.77,1.1-2.77,2.23-2.77,1.95,1.24,1.84,2.77Z"/>
      <path class="cls-3" d="M236.37,157c-.54,0-1.04-.23-1.44-.65-.56-.6-.85-1.52-.78-2.52.12-1.75,1.26-3.12,2.6-3.12.54,0,1.04.23,1.44.65.56.6.85,1.52.78,2.52-.12,1.75-1.26,3.12-2.6,3.12ZM236.76,151.46c-.91,0-1.76,1.11-1.85,2.42-.05.78.16,1.51.58,1.96.18.19.47.41.89.41.91,0,1.76-1.11,1.85-2.42.05-.78-.16-1.51-.58-1.95-.18-.19-.47-.41-.89-.41Z"/>
    </g>
    <g>
      <path class="cls-4" d="M255.02,142.27c.15,1.53-.63,2.92-1.73,3.1-1.11.19-2.13-.9-2.28-2.42s.63-2.92,1.73-3.1c1.11-.19,2.13.9,2.28,2.42Z"/>
      <path class="cls-3" d="M253.04,145.77c-1.21,0-2.24-1.2-2.4-2.78-.17-1.75.73-3.29,2.04-3.51,1.33-.23,2.54,1.04,2.71,2.76.17,1.75-.73,3.29-2.04,3.51-.1.02-.21.03-.31.03ZM253,140.2c-.06,0-.12,0-.19.02-.9.15-1.55,1.39-1.42,2.7.13,1.29.94,2.25,1.84,2.09.9-.15,1.55-1.39,1.42-2.7-.12-1.2-.83-2.11-1.65-2.11Z"/>
    </g>
    <path class="cls-3" d="M257.28,152.19c-.08,1.58-.96,2.87-1.98,2.88-1.01.01-1.77-1.26-1.7-2.84.08-1.58.96-2.87,1.98-2.88,1.01-.01,1.77,1.26,1.7,2.84Z"/>
    <path class="cls-3" d="M275.91,135.9c.04,1.56-.32,2.85-.8,2.88-.49.03-.91-1.2-.96-2.76-.04-1.56.32-2.85.8-2.88.49-.03.91,1.2.96,2.76Z"/>
    <g>
      <path class="cls-4" d="M218.13,128c-.3-1.48.45-2.88,1.68-3.13s2.47.75,2.77,2.23-.45,2.88-1.68,3.13-2.47-.75-2.77-2.23Z"/>
      <path class="cls-3" d="M220.53,130.64c-1.3,0-2.46-1.08-2.76-2.56-.16-.8-.05-1.61.3-2.28.37-.69.97-1.15,1.67-1.29,1.46-.3,2.88.86,3.22,2.52.18.89.02,1.81-.44,2.5-.37.56-.92.94-1.54,1.07-.15.03-.3.05-.46.05ZM220.2,125.21c-.1,0-.2,0-.31.03-.48.1-.9.42-1.16.91-.28.51-.36,1.14-.23,1.77.25,1.24,1.3,2.14,2.33,1.93.43-.09.79-.34,1.06-.75.35-.53.47-1.24.33-1.94-.23-1.12-1.1-1.96-2.03-1.96Z"/>
    </g>
    <g>
      <path class="cls-4" d="M248.75,93.99c-.56-1.35-.46-2.63.22-2.87.68-.24,1.68.66,2.24,2.01.56,1.35.46,2.63-.22,2.87-.68.24-1.68-.66-2.24-2.01Z"/>
      <path class="cls-3" d="M250.75,96.4c-.83,0-1.8-.94-2.35-2.27-.42-1.03-.51-2.07-.21-2.72.14-.32.37-.54.66-.64.87-.31,2.07.68,2.71,2.21.42,1.03.51,2.07.21,2.72-.14.32-.37.54-.66.64-.11.04-.23.06-.36.06ZM249.2,91.45s-.07,0-.11.02c-.09.03-.17.11-.22.24-.17.38-.17,1.19.22,2.13.5,1.22,1.37,1.92,1.77,1.8.09-.03.17-.11.22-.24.17-.38.17-1.19-.22-2.13-.46-1.12-1.22-1.81-1.66-1.81Z"/>
    </g>
    <g>
      <path class="cls-4" d="M265.64,117.06c-.25-1.4-.02-2.66.5-2.8.52-.14,1.14.88,1.38,2.28.25,1.4.02,2.66-.5,2.8-.52.14-1.14-.88-1.38-2.28Z"/>
      <path class="cls-3" d="M266.92,119.73c-.83,0-1.43-1.31-1.66-2.61-.24-1.39-.11-2.99.77-3.22.06-.02.13-.03.2-.03.83,0,1.43,1.31,1.66,2.61.24,1.39.11,2.99-.77,3.22-.06.02-.13.03-.2.03ZM266.23,114.62c-.16.04-.48.92-.22,2.37.23,1.31.74,1.99.92,1.99.18-.05.47-.94.22-2.37-.23-1.31-.75-1.99-.92-1.99Z"/>
    </g>
    <g>
      <path class="cls-4" d="M263.22,153.49c.11-1.5.74-2.72,1.4-2.72s1.1,1.22.98,2.72c-.11,1.5-.74,2.72-1.4,2.72s-1.1-1.22-.98-2.72Z"/>
      <path class="cls-3" d="M264.21,156.59c-.27,0-.52-.12-.73-.35-.48-.51-.72-1.58-.62-2.78.11-1.49.77-3.07,1.77-3.07.27,0,.52.12.73.35.48.51.71,1.58.62,2.78-.11,1.49-.77,3.07-1.77,3.07ZM264.62,151.15c-.34,0-.92.95-1.02,2.37-.08,1.11.16,1.92.43,2.21.07.07.13.11.18.11.34,0,.92-.95,1.02-2.37.08-1.11-.16-1.92-.43-2.21-.06-.07-.13-.11-.18-.11Z"/>
    </g>
    <g>
      <path class="cls-4" d="M253.97,161.7c-.08-.86.3-1.56.85-1.56s1.06.7,1.14,1.56c.08.86-.3,1.56-.85,1.56s-1.06-.7-1.14-1.56Z"/>
      <path class="cls-3" d="M255.12,163.51c-.69,0-1.3-.78-1.39-1.79-.06-.61.09-1.17.4-1.51.19-.21.43-.32.7-.32.69,0,1.3.78,1.39,1.79.06.6-.09,1.17-.4,1.51-.19.21-.43.32-.7.32ZM254.83,160.39c-.12,0-.23.05-.33.16-.21.23-.32.66-.27,1.12.07.79.53,1.33.89,1.33.12,0,.23-.05.33-.16.21-.23.32-.66.27-1.12-.07-.79-.53-1.33-.89-1.33Z"/>
    </g>
    <g>
      <path class="cls-4" d="M264.57,165.86c.16-.69.63-1.13,1.06-.99.43.14.64.81.49,1.5-.16.69-.63,1.13-1.06.99s-.64-.81-.49-1.5Z"/>
      <path class="cls-3" d="M265.22,167.64c-.08,0-.16-.01-.24-.04-.55-.18-.84-.97-.65-1.79.19-.83.81-1.36,1.38-1.17.55.18.84.97.65,1.79-.16.71-.63,1.21-1.14,1.21ZM265.47,165.1c-.23,0-.53.31-.65.82-.14.6.06,1.12.32,1.21.24.08.6-.23.73-.81.14-.6-.06-1.12-.32-1.21-.03,0-.05-.01-.08-.01Z"/>
    </g>
    <g>
      <path class="cls-4" d="M232.98,183.21c.07-.77.61-1.4,1.21-1.4s1.03.62.96,1.4c-.07.77-.61,1.4-1.21,1.4s-1.03-.62-.96-1.4Z"/>
      <path class="cls-3" d="M233.94,184.86c-.31,0-.6-.13-.82-.37-.29-.32-.43-.79-.39-1.3.08-.91.72-1.62,1.46-1.62.31,0,.6.13.82.37.29.32.43.79.39,1.3-.08.91-.72,1.62-1.46,1.62ZM234.19,182.06c-.46,0-.9.54-.96,1.17-.03.36.06.7.26.91.09.1.24.21.45.21.46,0,.9-.54.96-1.17.03-.36-.06-.7-.26-.91-.09-.1-.24-.21-.45-.21Z"/>
    </g>
    <g>
      <path class="cls-4" d="M217.42,199.87c.03-.85.65-1.53,1.38-1.53s1.28.69,1.25,1.53c-.03.85-.65,1.53-1.38,1.53s-1.28-.69-1.25-1.53Z"/>
      <path class="cls-3" d="M218.67,201.65c-.38,0-.74-.16-1.02-.44-.33-.34-.5-.83-.48-1.35.04-.98.77-1.77,1.62-1.77.38,0,.74.16,1.02.44.33.34.5.83.48,1.35-.04.98-.77,1.77-1.62,1.77ZM218.79,198.59c-.59,0-1.1.58-1.12,1.29-.02.38.11.74.34.98.18.19.41.29.66.29.59,0,1.1-.58,1.12-1.29.02-.38-.11-.74-.34-.98-.18-.19-.41-.29-.66-.29Z"/>
    </g>
    <g>
      <path class="cls-4" d="M216.85,217.93c.03-.74.62-1.34,1.31-1.34s1.22.6,1.19,1.34c-.03.74-.62,1.34-1.31,1.34s-1.22-.6-1.19-1.34Z"/>
      <path class="cls-3" d="M218.04,219.52c-.39,0-.75-.16-1.02-.44-.29-.3-.44-.73-.42-1.17.04-.87.74-1.58,1.56-1.58.39,0,.75.16,1.02.44.29.3.44.73.42,1.17-.04.87-.74,1.58-1.56,1.58ZM218.17,216.84c-.56,0-1.03.5-1.06,1.11-.01.3.09.6.28.8.17.18.41.28.65.28.56,0,1.03-.5,1.06-1.11.01-.3-.09-.6-.28-.8-.17-.18-.41-.28-.65-.28Z"/>
    </g>
    <g>
      <path class="cls-4" d="M237.26,210.65c.64-1.17,1.74-2.12,2.47-2.12s.79.95.16,2.12c-.64,1.17-1.74,2.12-2.47,2.12s-.79-.95-.16-2.12Z"/>
      <path class="cls-3" d="M237.42,213.02c-.31,0-.56-.13-.7-.38-.27-.46-.15-1.25.32-2.12.69-1.26,1.87-2.26,2.69-2.26.31,0,.56.13.7.38.27.46.15,1.25-.32,2.12-.69,1.26-1.87,2.26-2.69,2.26ZM239.73,208.77c-.56,0-1.6.8-2.25,1.99-.43.79-.48,1.38-.33,1.62.03.06.1.13.27.13.56,0,1.6-.8,2.25-1.99.43-.79.48-1.38.33-1.62-.03-.06-.1-.13-.27-.13Z"/>
    </g>
    <g>
      <path class="cls-4" d="M258.7,199.96c.35-1.16,1.22-2.1,1.95-2.1s1.03.94.68,2.1c-.35,1.16-1.22,2.1-1.95,2.1s-1.03-.94-.68-2.1Z"/>
      <path class="cls-3" d="M259.37,202.31c-.31,0-.59-.14-.78-.4-.33-.45-.38-1.21-.13-2.03.39-1.28,1.35-2.28,2.19-2.28.31,0,.59.14.78.4.33.45.38,1.21.13,2.03-.39,1.28-1.35,2.28-2.19,2.28ZM260.65,198.11c-.54,0-1.36.77-1.71,1.93-.2.66-.18,1.27.06,1.59.43.58,1.64-.24,2.09-1.73.2-.66.18-1.27-.06-1.59-.1-.13-.22-.2-.38-.2Z"/>
    </g>
    <g>
      <path class="cls-4" d="M255.2,213.14c.61-1.12,1.43-1.9,1.83-1.74.4.16.24,1.19-.37,2.31s-1.43,1.9-1.83,1.74c-.4-.16-.24-1.19.37-2.31Z"/>
      <path class="cls-3" d="M254.94,215.72c-.07,0-.14-.01-.21-.04-.1-.04-.24-.13-.32-.35-.17-.47.04-1.36.56-2.32.57-1.05,1.53-2.1,2.14-1.85.1.04.24.13.32.35.17.47-.04,1.36-.56,2.32-.51.94-1.31,1.89-1.94,1.89ZM256.94,211.63c-.28,0-.94.57-1.52,1.63-.48.89-.63,1.63-.53,1.91l.06.06c.26,0,.92-.57,1.5-1.63.48-.89.63-1.63.53-1.91-.01-.03-.02-.05-.03-.05h0Z"/>
    </g>
    <g>
      <path class="cls-4" d="M265.84,195.97c.42-1.09,1.11-1.89,1.55-1.78.44.11.45,1.08.04,2.17s-1.11,1.89-1.55,1.78-.45-1.08-.04-2.17Z"/>
      <path class="cls-3" d="M265.96,198.4s-.1,0-.15-.02c-.12-.03-.28-.11-.4-.33-.23-.44-.16-1.27.19-2.18.39-1.01,1.18-2.1,1.84-1.93.12.03.28.11.4.33.23.44.16,1.28-.19,2.18-.36.94-1.04,1.95-1.7,1.95ZM267.33,194.44c-.27,0-.85.58-1.25,1.62-.33.86-.34,1.52-.21,1.77.02.04.05.07.07.08h.02c.25,0,.83-.58,1.23-1.62.33-.86.34-1.52.21-1.77-.02-.04-.05-.07-.07-.08h0Z"/>
    </g>
    <path class="cls-3" d="M239.36,227.42c.78-1.19,1.09-2.36.7-2.62-.39-.26-1.34.5-2.12,1.69-.78,1.19-1.09,2.36-.7,2.62.39.26,1.34-.5,2.12-1.69Z"/>
    <g>
      <path class="cls-4" d="M50.56,220.84c-.25-.78-.1-1.41.33-1.41s.98.63,1.23,1.41c.25.78.1,1.41-.33,1.41s-.98-.63-1.23-1.41Z"/>
      <path class="cls-3" d="M51.79,222.49c-.63,0-1.23-.81-1.47-1.58-.2-.61-.18-1.15.05-1.47.12-.17.31-.27.51-.27.63,0,1.23.81,1.47,1.58.2.61.18,1.16-.05,1.47-.12.17-.31.26-.51.26ZM50.88,219.68s-.08.02-.11.06c-.11.15-.14.52.02,1.02.25.76.75,1.23,1,1.23.03,0,.07,0,.11-.06.11-.15.14-.52-.02-1.02-.25-.76-.75-1.23-1-1.23Z"/>
    </g>
    <g>
      <path class="cls-4" d="M42.84,229.08c-.42-.68-.5-1.32-.18-1.42.32-.1.92.37,1.34,1.05s.5,1.32.18,1.42c-.32.1-.92-.37-1.34-1.05Z"/>
      <path class="cls-3" d="M44.09,230.4c-.5,0-1.09-.59-1.46-1.18-.36-.58-.49-1.13-.37-1.47.06-.16.17-.27.32-.32.5-.16,1.22.5,1.62,1.16.36.58.49,1.13.37,1.47-.06.16-.17.27-.32.32-.05.02-.11.03-.17.03ZM42.75,227.9c-.07.06-.06.47.3,1.05.38.62.84.95,1.03.95.01,0,.02,0,.02,0,.05-.06.04-.46-.32-1.05-.38-.62-.84-.95-1.03-.95Z"/>
    </g>
    <g>
      <path class="cls-4" d="M27.24,205.97c-.31-.98-.22-1.8.21-1.83.43-.03,1.03.75,1.34,1.73s.22,1.8-.21,1.83c-.43.03-1.03-.75-1.34-1.73Z"/>
      <path class="cls-3" d="M28.56,207.95c-.63,0-1.26-.96-1.56-1.91-.26-.8-.26-1.53-.01-1.89.11-.16.27-.25.45-.26h0c.66,0,1.3.96,1.6,1.9.26.8.26,1.53.01,1.89-.11.16-.27.25-.45.26h-.04ZM27.47,204.39s-.04,0-.07.05c-.13.19-.15.75.08,1.46.31.96.84,1.56,1.08,1.56v.25-.25s.04,0,.07-.05c.13-.19.15-.75-.08-1.46-.3-.95-.84-1.56-1.08-1.56Z"/>
    </g>
    <path class="cls-3" d="M35.1,190.48c.58,1.54.36,3.06-.5,3.4-.86.34-2.02-.64-2.6-2.18-.58-1.54-.36-3.06.5-3.4.86-.34,2.02.64,2.6,2.18Z"/>
    <path class="cls-3" d="M48.91,184.32c.37.92.13,1.88-.53,2.14-.66.26-1.5-.28-1.87-1.2-.37-.92-.13-1.88.53-2.14s1.5.28,1.87,1.2Z"/>
    <path class="cls-3" d="M70.36,202.21c.4.88.16,1.79-.58,2-.76.22-1.68-.42-2.02-1.37-.32-.89.02-1.7.72-1.85.68-.14,1.5.38,1.88,1.21Z"/>
    <path class="cls-3" d="M85.6,208.29c.58,1.09.08,2.25-1.12,2.6-1.19.35-2.63-.26-3.2-1.35-.58-1.09-.08-2.25,1.12-2.6,1.19-.35,2.63.26,3.2,1.35Z"/>
    <path class="cls-3" d="M96.06,208.27c.18.85-.36,1.54-1.21,1.54-.85,0-1.69-.69-1.88-1.54-.18-.85.36-1.54,1.21-1.54.85,0,1.69.69,1.88,1.54Z"/>
    <path class="cls-3" d="M101.15,203.31c.18.85-.36,1.54-1.21,1.54-.85,0-1.69-.69-1.88-1.54-.18-.85.36-1.54,1.21-1.54.85,0,1.69.69,1.88,1.54Z"/>
    <path class="cls-3" d="M106.19,207.15c.18.85-.36,1.54-1.21,1.54-.85,0-1.69-.69-1.88-1.54-.18-.85.36-1.54,1.21-1.54.85,0,1.69.69,1.88,1.54Z"/>
    <path class="cls-3" d="M113.06,206.19c.18.85-.36,1.54-1.21,1.54-.85,0-1.69-.69-1.88-1.54-.18-.85.36-1.54,1.21-1.54.85,0,1.69.69,1.88,1.54Z"/>
    <path class="cls-3" d="M111.71,252.83c-1.38-.71-2-1.89-1.4-2.64.6-.75,2.2-.78,3.58-.07,1.38.71,2,1.89,1.4,2.64s-2.2.78-3.58.07Z"/>
    <path class="cls-3" d="M172.76,274.01c-.86.16-1.57-.08-1.58-.54,0-.46.69-.96,1.55-1.12s1.57.08,1.58.54c0,.46-.69.96-1.55,1.12Z"/>
    <path class="cls-3" d="M131.53,267.14c-.21-.39.16-.74.82-.78.66-.04,1.36.24,1.57.62.21.39-.16.74-.82.78-.66.04-1.36-.24-1.57-.62Z"/>
    <path class="cls-3" d="M145.25,275.93c-.24-.25.1-.49.76-.53.66-.04,1.39.13,1.63.38.24.25-.1.49-.76.53-.66.04-1.39-.13-1.63-.38Z"/>
    <path class="cls-3" d="M126.43,260.61c-.26-.49.21-.94,1.05-.99s1.73.3,1.99.79-.21.94-1.05.99-1.73-.3-1.99-.79Z"/>
    <path class="cls-3" d="M131.53,257.3c-.12-.22.09-.42.47-.44s.77.13.89.35c.12.22-.09.42-.47.44s-.77-.13-.89-.35Z"/>
    <path class="cls-3" d="M138.19,267.61c-.12-.22.09-.42.47-.44s.77.13.89.35c.12.22-.09.42-.47.44s-.77-.13-.89-.35Z"/>
    <ellipse class="cls-3" cx="128.1" cy="250.02" rx="1.01" ry="1.85" transform="translate(-138.38 338.94) rotate(-81.32)"/>
    <path class="cls-3" d="M84.62,244.39c.92,1.04.84,1.89-.18,1.89s-2.59-.84-3.51-1.89c-.92-1.04-.84-1.89.18-1.89s2.59.84,3.51,1.89Z"/>
    <path class="cls-3" d="M73.31,248.33c.92,1.04.84,1.89-.18,1.89s-2.59-.84-3.51-1.89c-.92-1.04-.84-1.89.18-1.89s2.59.84,3.51,1.89Z"/>
    <path class="cls-3" d="M69.03,258.44c.39.44.35.8-.07.8s-1.09-.36-1.48-.8c-.39-.44-.35-.8.07-.8s1.09.36,1.48.8Z"/>
    <path class="cls-3" d="M53.08,245.24c.52.63.47,1.14-.1,1.14s-1.45-.51-1.97-1.14c-.52-.63-.47-1.14.1-1.14s1.45.51,1.97,1.14Z"/>
    <path class="cls-3" d="M38.24,234.5c.28.51.12.67-.36.36s-1.08-.99-1.36-1.5c-.28-.51-.12-.67.36-.36s1.08.99,1.36,1.5Z"/>
    <path class="cls-3" d="M41.33,218.37c.36.86.13,1.52-.53,1.47s-1.47-.79-1.84-1.66c-.36-.86-.13-1.52.53-1.47.65.05,1.47.79,1.84,1.66Z"/>
    <path class="cls-3" d="M21.09,207.92c.44.85.62,1.56.39,1.59-.23.03-.78-.64-1.22-1.49-.44-.85-.62-1.56-.39-1.59.23-.03.78.64,1.22,1.49Z"/>
    <path class="cls-3" d="M92.02,227.8c.19.73-.35,1.33-1.21,1.33s-1.7-.6-1.89-1.33c-.19-.73.35-1.33,1.21-1.33s1.7.6,1.89,1.33Z"/>
    <path class="cls-3" d="M85.83,227.8c.19.73-.35,1.33-1.21,1.33s-1.7-.6-1.89-1.33c-.19-.73.35-1.33,1.21-1.33s1.7.6,1.89,1.33Z"/>
    <path class="cls-3" d="M78.62,169.93c-.15-1.05.63-1.9,1.74-1.9s2.12.85,2.27,1.9c.15,1.05-.63,1.9-1.74,1.9s-2.12-.85-2.27-1.9Z"/>
    <path class="cls-3" d="M87.44,157.18c-.15-1.05.63-1.9,1.74-1.9s2.12.85,2.27,1.9c.15,1.05-.63,1.9-1.74,1.9s-2.12-.85-2.27-1.9Z"/>
    <path class="cls-3" d="M77.17,131.99c0,1.09-.67,1.97-1.5,1.97s-1.5-.88-1.5-1.97.67-1.97,1.5-1.97,1.5.88,1.5,1.97Z"/>
    <path class="cls-3" d="M57.29,159.68c0,1.09-.67,1.97-1.5,1.97s-1.5-.88-1.5-1.97.67-1.97,1.5-1.97,1.5.88,1.5,1.97Z"/>
    <path class="cls-3" d="M49.6,146.62c0,1.09-.67,1.97-1.5,1.97s-1.5-.88-1.5-1.97.67-1.97,1.5-1.97,1.5.88,1.5,1.97Z"/>
    <path class="cls-3" d="M33.88,168.36c0,1.09-.67,1.97-1.5,1.97s-1.5-.88-1.5-1.97.67-1.97,1.5-1.97,1.5.88,1.5,1.97Z"/>
    <path class="cls-3" d="M6.25,159.23c.04.93-.12,1.69-.36,1.69s-.48-.76-.52-1.69.12-1.69.36-1.69.48.76.52,1.69Z"/>
    <path class="cls-3" d="M53.66,134.25c-.05,1.09-.76,1.94-1.59,1.9-.83-.04-1.46-.95-1.41-2.04.05-1.09.76-1.94,1.59-1.9.83.04,1.46.95,1.41,2.04Z"/>
    <path class="cls-3" d="M20.33,150.44c0,.98-.39,1.77-.88,1.77s-.87-.79-.87-1.77.39-1.77.87-1.77.88.79.88,1.77Z"/>
    <path class="cls-3" d="M12.43,138.29c-.04.97-.39,1.75-.77,1.73s-.65-.82-.6-1.8c.04-.97.39-1.75.77-1.73.38.02.65.82.6,1.8Z"/>
    <path class="cls-3" d="M33.01,103.39c-.16.99-.66,1.78-1.12,1.76-.46-.02-.7-.84-.54-1.83.16-.99.66-1.78,1.12-1.76.46.02.7.84.54,1.83Z"/>
    <path class="cls-3" d="M38.2,103.39c-.16.99-.66,1.78-1.12,1.76-.46-.02-.7-.84-.54-1.83.16-.99.66-1.78,1.12-1.76.46.02.7.84.54,1.83Z"/>
    <path class="cls-3" d="M35.54,94.48c-.26.94-.85,1.69-1.3,1.67-.46-.02-.61-.8-.35-1.74.26-.94.85-1.69,1.3-1.67.46.02.61.8.35,1.74Z"/>
    <path class="cls-3" d="M41.21,77.91c-.37.91-1.03,1.58-1.48,1.51-.45-.07-.52-.86-.15-1.77.37-.9,1.03-1.58,1.48-1.51.45.07.52.86.15,1.77Z"/>
    <path class="cls-3" d="M45.67,77.88c-.37.91-1.03,1.58-1.48,1.51-.45-.07-.52-.86-.15-1.77.37-.91,1.03-1.58,1.48-1.51.45.07.52.86.15,1.77Z"/>
    <path class="cls-3" d="M40.38,94.55c-.26.94-.85,1.69-1.3,1.67-.46-.02-.61-.8-.35-1.74.26-.94.85-1.69,1.3-1.67.46.02.61.8.35,1.74Z"/>
    <path class="cls-3" d="M61.41,82.78c-.22,1.03-.86,1.88-1.43,1.91-.57.03-.85-.78-.62-1.8.22-1.03.86-1.88,1.43-1.91s.85.78.62,1.8Z"/>
    <path class="cls-3" d="M102.42,44.99c-.1,1.02-.65,1.84-1.22,1.84s-.95-.83-.84-1.84c.1-1.02.65-1.84,1.22-1.84s.95.83.84,1.84Z"/>
    <path class="cls-3" d="M146.12,32.03c.7.85.75,1.64.1,1.75-.65.12-1.74-.47-2.45-1.32-.7-.85-.75-1.64-.1-1.75s1.74.47,2.45,1.32Z"/>
    <path class="cls-3" d="M162.57,25.55c.84.71,1.03,1.48.41,1.71-.62.23-1.8-.16-2.64-.87-.84-.71-1.03-1.48-.41-1.71.62-.23,1.8.16,2.64.87Z"/>
    <path class="cls-3" d="M169.01,22.55c.91.62,1.17,1.37.58,1.66-.59.29-1.8.02-2.71-.6-.91-.62-1.17-1.37-.58-1.66.59-.29,1.8-.02,2.71.6Z"/>
    <path class="cls-3" d="M171.73,21.08c.86.61,1.18,1.33.72,1.6-.46.28-1.53,0-2.39-.6-.86-.61-1.18-1.33-.72-1.6s1.53,0,2.39.6Z"/>
    <g>
      <path class="cls-4" d="M161.52,172.32c.02-1.93,1.6-3.48,3.52-3.45,1.92.03,3.46,1.62,3.44,3.55-.02,1.93-1.6,3.48-3.52,3.45-1.92-.03-3.46-1.62-3.44-3.55Z"/>
      <path class="cls-3" d="M165.01,176.13h-.06c-2.06-.03-3.71-1.74-3.68-3.81.02-2.04,1.69-3.69,3.72-3.69,2.11.03,3.77,1.74,3.74,3.8-.02,2.04-1.69,3.7-3.72,3.7ZM165.04,169.13c-1.8,0-3.24,1.44-3.27,3.2-.02,1.79,1.41,3.27,3.19,3.3l.05.25v-.25c1.75,0,3.2-1.44,3.22-3.2.02-1.79-1.41-3.27-3.19-3.3h0Z"/>
    </g>
    <path class="cls-3" d="M191.8,193.52c.23-1.34,1.5-2.62,2.96-2.96,1.61-.37,3.01.49,2.97,2.07-.05,1.72-1.74,3.32-3.56,3.42-1.63.09-2.61-1.09-2.36-2.53Z"/>
    <ellipse class="cls-3" cx="169.74" cy="138.09" rx="1.88" ry="2"/>
    <g>
      <path class="cls-4" d="M163.75,106.05c-.83-2.01-.13-4.13,1.56-4.73,1.69-.6,3.73.54,4.55,2.54.83,2.01.13,4.13-1.56,4.73-1.69.6-3.73-.54-4.56-2.54Z"/>
      <path class="cls-3" d="M167.36,109.01c-1.59,0-3.14-1.15-3.84-2.86-.47-1.15-.49-2.39-.04-3.4.35-.79.97-1.38,1.75-1.66.33-.12.67-.18,1.03-.18,1.59,0,3.14,1.15,3.84,2.86.47,1.15.49,2.39.04,3.4-.35.79-.97,1.38-1.75,1.66-.33.12-.67.18-1.03.18ZM166.26,101.41c-.3,0-.59.05-.86.15-.65.23-1.16.71-1.46,1.39-.39.88-.38,1.98.05,3,.62,1.5,2.01,2.55,3.38,2.55.3,0,.59-.05.86-.15.65-.23,1.16-.71,1.46-1.39.39-.88.38-1.98-.05-3.01-.62-1.5-2.01-2.55-3.38-2.55Z"/>
    </g>
    <path class="cls-3" d="M165.35,105.48c-.4-.96-.06-1.97.75-2.26.81-.29,1.78.26,2.18,1.22.4.96.06,1.97-.75,2.26s-1.78-.26-2.18-1.22Z"/>
    <g>
      <path class="cls-4" d="M177.77,257.77c0-.62,1.01-1.4,2.25-1.73,1.24-.33,2.25-.1,2.25.52s-1.01,1.4-2.25,1.73c-1.24.33-2.25.1-2.25-.52Z"/>
      <path class="cls-3" d="M178.96,258.7c-.89,0-1.44-.35-1.44-.92,0-.75,1.05-1.6,2.44-1.97.39-.11.78-.16,1.13-.16.89,0,1.44.35,1.44.92,0,.75-1.05,1.6-2.44,1.97-.39.11-.78.16-1.13.16ZM181.08,256.14c-.3,0-.65.05-1,.14-1.22.33-2.06,1.05-2.06,1.49,0,.29.47.42.94.42.3,0,.65-.05,1-.14,1.22-.33,2.06-1.05,2.06-1.49,0-.29-.47-.42-.94-.42Z"/>
    </g>
    <g>
      <path class="cls-4" d="M192.69,257.99c-.1-.61.76-1.54,1.94-2.08,1.17-.53,2.2-.47,2.3.14s-.76,1.54-1.94,2.08c-1.17.53-2.2.47-2.3-.14Z"/>
      <path class="cls-3" d="M193.56,258.74c-.62,0-1.04-.27-1.11-.71-.12-.74.77-1.75,2.08-2.34.54-.25,1.09-.38,1.54-.38.62,0,1.04.27,1.11.71.12.74-.77,1.75-2.08,2.34-.54.25-1.09.38-1.54.38ZM196.06,255.8c-.38,0-.85.12-1.33.34-1.15.52-1.86,1.37-1.79,1.81.04.27.45.3.62.3.38,0,.85-.12,1.33-.34,1.15-.52,1.86-1.37,1.79-1.81-.04-.27-.45-.3-.62-.3Z"/>
    </g>
    <g>
      <path class="cls-4" d="M213.99,254.08c-.15-.6.63-1.6,1.75-2.23s2.16-.65,2.31-.05-.63,1.6-1.75,2.23-2.16.65-2.31.05Z"/>
      <path class="cls-3" d="M214.74,254.77c-.53,0-.9-.23-1-.63-.19-.73.62-1.81,1.87-2.51.6-.34,1.19-.52,1.68-.52.53,0,.9.23,1,.63.19.73-.62,1.81-1.88,2.51-.6.34-1.19.52-1.68.52ZM217.3,251.61c-.39,0-.92.17-1.43.45-1.1.62-1.74,1.52-1.63,1.95.05.21.31.25.51.25.39,0,.92-.17,1.43-.45,1.1-.62,1.74-1.52,1.64-1.95-.05-.21-.31-.25-.51-.25Z"/>
    </g>
    <g>
      <path class="cls-4" d="M69.21,57.78c.5-1.58,1.66-2.85,2.58-2.84.92.01,1.26,1.3.76,2.88-.5,1.58-1.66,2.85-2.58,2.84-.92-.01-1.26-1.3-.76-2.88Z"/>
      <path class="cls-3" d="M69.98,60.92h-.02c-.37,0-.68-.17-.89-.47-.42-.58-.46-1.61-.1-2.74.54-1.69,1.77-3.01,2.81-3.01.38,0,.69.17.91.47.42.58.46,1.61.1,2.74-.54,1.69-1.77,3.01-2.81,3.01ZM71.79,55.2c-.81,0-1.88,1.22-2.34,2.66-.3.95-.29,1.85.03,2.29.13.18.29.26.5.27v.25s0-.25,0-.25c.8,0,1.87-1.22,2.33-2.66.3-.95.29-1.85-.03-2.29-.13-.18-.29-.26-.5-.27Z"/>
    </g>
    <path class="cls-3" d="M70.33,57.8c.17-.52.54-.93.85-.93s.41.43.25.95-.54.93-.85.93-.41-.43-.25-.95Z"/>
    <g>
      <path class="cls-4" d="M52.42,204.14c.41,1.18-.02,2.14-.96,2.14s-2.03-.96-2.44-2.14c-.41-1.18.02-2.14.96-2.14s2.03.96,2.44,2.14Z"/>
      <path class="cls-3" d="M51.46,206.65c-1.1,0-2.33-1.05-2.79-2.39-.27-.79-.22-1.54.14-2.05.27-.38.69-.58,1.18-.58,1.1,0,2.33,1.05,2.79,2.39.27.79.22,1.54-.14,2.05-.27.38-.69.58-1.18.58ZM49.98,202.38c-.25,0-.44.09-.56.27-.22.3-.23.82-.04,1.37.35,1.02,1.31,1.88,2.08,1.88.25,0,.44-.09.56-.27.22-.3.23-.82.04-1.37-.35-1.02-1.31-1.88-2.08-1.88Z"/>
    </g>
  </g>
</svg>