<?xml version="1.0" encoding="UTF-8"?>
<svg id="Layer_2" data-name="Layer 2" xmlns="http://www.w3.org/2000/svg" xmlns:xlink="http://www.w3.org/1999/xlink" viewBox="0 0 276.25 276.12">
  <defs>
    <style>
      .cls-1 {
        clip-path: url(#clippath);
      }

      .cls-2 {
        fill: none;
      }

      .cls-2, .cls-3 {
        stroke-width: 0px;
      }
    </style>
    <clipPath id="clippath">
      <circle class="cls-2" cx="138.12" cy="138" r="138"/>
    </clipPath>
  </defs>
  <g id="SPHERE_1" data-name="SPHERE 1">
    <g class="cls-1">
      <path class="cls-3" d="M226.77,226.7l-.19-.16c12.44-14.29,19.44-27.6,20.37-29.43-3.35.47-40.96,5.64-65.95,5.8v-.25c26.02-.17,65.75-5.78,66.15-5.83l.23-.03-.1.21c-.07.14-7.16,14.36-20.52,29.69Z"/>
      <path class="cls-3" d="M249.09,195.22l-.17-.19.1-.08c7.48-6.63,21.39-18.96,25.37-35.02l.24.06c-3.99,16.13-17.95,28.5-25.44,35.15l-.09.08Z"/>
      <path class="cls-3" d="M226.87,185.03h-.25c.21-14.59-2.3-34.52-7.9-62.72l.25-.05c5.61,28.22,8.12,48.16,7.9,62.77Z"/>
      <path class="cls-3" d="M172.7,202.4l-.13-.21c14.4-8.55,43.13-31.71,68.02-57.81l.18.17c-24.9,26.12-53.65,49.3-68.07,57.85Z"/>
      <path class="cls-3" d="M172.91,202.63l.25-.29c1.22-1.41,2.56-2.96,4.01-4.63,22.88-26.3,70.48-81.03,65.21-132.4l.25-.03c2.28,22.16-5.21,47.71-22.24,75.93-14.17,23.48-31.54,43.44-43.03,56.65-1.35,1.55-2.61,3-3.76,4.34,20.52-5.01,52.41-17.77,52.73-17.9l.05-.02.05.03c.78.4,19.06,9.7,22.12,12.18.55.18,7.82,2.52,10.25,4.93,1.06-2.05,12.34-24.04,15.57-42.48l.25.04c-3.38,19.3-15.56,42.47-15.68,42.7l-.08.16-.12-.13c-2.29-2.45-10.2-4.97-10.28-4.99l-.04-.02c-2.91-2.38-20.96-11.59-22.05-12.14-1.49.6-32.96,13.13-53.09,17.98l-.38.09Z"/>
      <path class="cls-3" d="M240.89,146.32c-9.45-35.96-30.4-69.46-51.63-100.31l.21-.14c13.88,20.16,23.55,35.66,31.36,50.28,9.45,17.66,16.09,34.05,20.31,50.11l-.24.06Z"/>
      <path class="cls-3" d="M248.38,196.6c-.14-7.21-1.04-31.97-6.86-48.14l.23-.08c5.84,16.2,6.74,41.01,6.88,48.22h-.25Z"/>
      <path class="cls-3" d="M241.61,227.53l-.21-.14c15-21.77,23.4-50.53,22.48-76.92h.25c.93,26.44-7.49,55.25-22.52,77.07Z"/>
      <path class="cls-3" d="M258.96,201.67l-.23-.1c25.22-59.71-3.54-115.94-17.07-137.34l.21-.13c6.36,10.06,17.89,30.85,23.61,57.02,6.22,28.49,4.03,55.59-6.51,80.55Z"/>
      <path class="cls-3" d="M275.01,159.6c-3.34-5.15-7.02-7.12-10.57-9.03l.12-.22-.06.11.06-.11c3.58,1.92,7.29,3.91,10.66,9.11l-.21.14Z"/>
      <path class="cls-3" d="M264.42,149.97l-.1-.23c7.21-3.18,9.63-6.75,11.97-10.2l.21-.3.21.14-.21.3c-2.36,3.48-4.8,7.08-12.08,10.29Z"/>
      <path class="cls-3" d="M263.15,150.16c-1.65-1.1-7.94-3.92-11.19-4.89l.07-.24c3.26.98,9.59,3.81,11.26,4.92l-.14.21Z"/>
      <path class="cls-3" d="M263.5,149.19c-1.16-9.64-3.73-19.84-7.86-31.15l.23-.09c4.14,11.34,6.71,21.55,7.87,31.21l-.25.03Z"/>
      <path class="cls-3" d="M263.51,146.92c-1.19-35.81-8.61-52.41-16.47-69.99-.42-.94-.84-1.88-1.26-2.83l.23-.1c.42.95.84,1.89,1.26,2.83,7.87,17.6,15.31,34.23,16.5,70.09h-.25Z"/>
      <path class="cls-3" d="M263.51,146.92c-1.3-39.26-11.15-63.07-20.61-81.2l.22-.12c9.48,18.15,19.34,42,20.64,81.3h-.25Z"/>
      <path class="cls-3" d="M274.63,159.97l-.25-.03c3.68-34.9-14.65-72.54-54.46-111.9l.18-.18c6.57,6.49,21.95,21.69,34.71,41.77,15.51,24.41,22.18,48.07,19.83,70.33Z"/>
      <path class="cls-3" d="M274.97,159.63l-.25-.02c2.39-32.04-8.83-57.92-18.67-73.99-11.88-19.42-26.77-32.77-36.26-37.39l.11-.22c9.52,4.64,24.45,18.02,36.36,37.48,9.85,16.1,21.1,42.03,18.71,74.14Z"/>
      <path class="cls-3" d="M269.39,97.66c-5.02-16.91-21.55-29.51-26.94-32.59l.12-.22c3.1,1.77,8.58,5.79,13.84,11.29,6.5,6.8,11.07,14.22,13.22,21.45l-.24.07Z"/>
      <path class="cls-3" d="M273.22,168.3c-1.15-9.28,1.8-19.54,3.01-22.23l.23.1c-1.2,2.67-4.13,12.87-2.99,22.1l-.25.03Z"/>
      <path class="cls-3" d="M226.38,184.41l-.08-.24c7.94-2.59,24.16-9.42,29.49-11.66,5.67-2.39,16.21-6.83,19.94-14.44l.22.11c-3.76,7.7-14.37,12.16-20.06,14.56-5.33,2.25-21.56,9.08-29.51,11.67Z"/>
      <path class="cls-3" d="M248.62,195.84l-.23-.1.7-1.64c6.7-15.61,11.54-26.9,14.43-44.05-1.49-.38-17.3-4.35-21.71-5.14l.04-.25c4.62.82,21.67,5.12,21.84,5.17l.11.03-.02.11c-2.9,17.24-7.75,28.56-14.47,44.22l-.71,1.64Z"/>
      <path class="cls-3" d="M225.91,184.73l-.14-.21c13.98-9.55,32.62-26.54,37.63-34.3l.21.14c-5.03,7.78-23.7,24.81-37.7,34.37Z"/>
      <path class="cls-3" d="M171.88,204.33l-.24-.08c19.67-60.01,25.47-113.06,17.25-157.69l.25-.04c8.23,44.67,2.43,97.76-17.25,157.81Z"/>
      <path class="cls-3" d="M172.36,202.99l-.2-.15c17.68-23.22,37.33-56.95,46.73-80.22l.23.09c-9.41,23.29-29.08,57.05-46.77,80.28Z"/>
      <path class="cls-3" d="M162.52,130.91l-.03-.25c.47-.06,47.21-6.15,54.74-8l.06.24c-7.54,1.86-54.29,7.94-54.76,8Z"/>
      <path class="cls-3" d="M240.29,144.37c-9.91-12.11-47.27-46.25-57.98-55.36l.16-.19c10.72,9.11,48.1,43.27,58.02,55.39l-.19.16Z"/>
      <path class="cls-3" d="M219.09,122.14l-.16-.19c19.84-16.28,31.5-33.24,33.71-49.05l.25.03c-2.22,15.87-13.9,32.88-33.79,49.2Z"/>
      <path class="cls-3" d="M241.25,141.69l-.24-.06c9.83-38.55,5.67-59.86,1-76.81l.24-.07c4.68,16.98,8.84,38.33-1,76.94Z"/>
      <path class="cls-3" d="M259,201.69l-.24-.06c3.33-13.8-3.3-28.4-3.37-28.54l-.02-.03v-.04c.87-5.42-3.45-27.48-3.49-27.71-.13-7.08-3.48-19.26-8.12-36.12l.24-.07c4.65,16.87,8,29.06,8.13,36.16.04.2,4.35,22.21,3.5,27.73.36.81,6.63,15.12,3.37,28.67Z"/>
      <path class="cls-3" d="M255.67,172.84l-.24-.07c2.22-5.5,5.57-13.78,8.15-22.65,9.07-19.59,7.57-39.26,5.64-52.35l.25-.04c1.93,13.12,3.43,32.84-5.66,52.47-2.58,8.86-5.92,17.15-8.14,22.63Z"/>
      <path class="cls-3" d="M268.27,90.71c-8.04-19.26-29.98-32.8-48.19-42.44l.12-.22c18.25,9.66,40.23,23.23,48.31,42.56l-.23.1Z"/>
      <path class="cls-3" d="M65.37,132.91l-.06-.24c78.08-18.24,131.12-32.03,157.65-41,25.83-8.73,32.49-16.12,34.17-19.75.84-1.83.6-3.03.38-3.58l.23-.09c.24.59.5,1.86-.38,3.78-1.69,3.67-8.4,11.13-34.32,19.89-26.54,8.97-79.59,22.76-157.68,41Z"/>
      <path class="cls-3" d="M127.04,78.66l-.06-.24c4.26-1.08,10.05-2.49,16.76-4.13,24.16-5.89,60.68-14.79,77.73-20.87,9.74-3.47,15.1-6.69,15.94-9.58.47-1.61-.5-2.84-1.27-3.83-.18-.23-.35-.45-.48-.65l.21-.14c.13.19.3.41.47.63.77.98,1.82,2.32,1.31,4.06-.87,3.01-6.14,6.2-16.1,9.75-17.07,6.08-53.59,14.99-77.76,20.88-6.71,1.64-12.5,3.05-16.75,4.12Z"/>
      <path class="cls-3" d="M189.5,45.83l-.24-.08c6.38-18.51,1.83-27.36-2.85-33l.19-.16c4.35,5.25,9.39,14.4,2.9,33.25Z"/>
      <path class="cls-3" d="M187.89,45.71c-4.24-10.2-16-27.68-26.09-36.45l.16-.19c10.12,8.79,21.91,26.32,26.16,36.55l-.23.1Z"/>
      <path class="cls-3" d="M218.16,47.75c-5.64-.66-59.06-3.51-70.32-3.83v-.25c11.27.33,64.71,3.17,70.35,3.83l-.03.25Z"/>
      <path class="cls-3" d="M241.62,64.9c-11.72-6.03-42.08-15.97-52.81-18.66l.06-.24c10.74,2.68,41.13,12.64,52.86,18.68l-.12.22Z"/>
      <path class="cls-3" d="M242.06,65.01c-6.22-12.1-18.66-25.66-27.48-34.8l.18-.17c8.83,9.16,21.29,22.73,27.52,34.86l-.22.11Z"/>
      <path class="cls-3" d="M182.08,89.22l-.15-.2c12.57-9.34,30.47-27.78,37.46-41.29l.22.12c-7.01,13.54-24.94,32.02-37.54,41.38Z"/>
      <path class="cls-3" d="M162.79,130.51l-.22-.12c.16-.3,16.21-30.63,20.16-42.48,3.95-11.86,5.66-33.33,5.83-41.3h.25c-.17,7.99-1.88,29.49-5.84,41.38-3.96,11.87-20.01,42.21-20.17,42.52Z"/>
      <path class="cls-3" d="M100.55,155.16l-.09-.23c9.77-3.63,35.34-13.32,61.74-24.75,18.18-9.48,35.88-20.76,49.82-31.76,15.64-12.34,26.06-23.9,30.12-33.42l.23.1c-4.08,9.56-14.52,21.15-30.19,33.52-13.95,11.01-31.66,22.3-49.86,31.79-26.42,11.43-52,21.12-61.76,24.76Z"/>
      <path class="cls-3" d="M172.63,201.05c-.05-.54-5.3-54.16-9.75-68.98l.24-.07c4.45,14.84,9.7,68.48,9.75,69.02l-.25.02Z"/>
      <path class="cls-3" d="M160.46,128.9c-.51-.23-50.89-22.84-62.02-30.26l.14-.21c11.11,7.41,61.47,30.01,61.98,30.24l-.1.23Z"/>
      <path class="cls-3" d="M97.13,95.3c-1.4-17.44-2.66-37.56,0-55.62,1.5-10.19,4.16-18.6,7.89-24.99,4.35-7.45,10.3-12.42,17.7-14.76l.08.24c-32.2,10.22-27.62,67.56-25.41,95.12l-.25.02Z"/>
      <path class="cls-3" d="M99.39,154.57c-12.21-51.33-14.53-91.49-6.91-119.34C99.66,8.98,113.57,1.97,119.22.17l.08.24c-5.61,1.79-19.42,8.76-26.57,34.88-7.61,27.82-5.29,67.93,6.91,119.22l-.24.06Z"/>
      <path class="cls-3" d="M257.26,116.55l-.17-.18c10.28-9.6,10.92-12.71,11.82-17.01.1-.46.2-.93.31-1.43l.24.06c-.11.49-.21.97-.31,1.42-.91,4.34-1.56,7.48-11.9,17.14Z"/>
      <path class="cls-3" d="M243.87,109.59l-.23-.1c8.62-19,9.09-26.83,8.82-36.61h.25c.27,9.81-.21,17.66-8.84,36.72Z"/>
      <path class="cls-3" d="M276.38,143.29h-.25c.25-20.41-4.56-37.74-6.86-46.08l-.13-.48.24-.07.13.48c2.31,8.34,7.12,25.7,6.87,46.14Z"/>
      <path class="cls-3" d="M276.64,140.59c-5.91-14.53-18.4-20.62-18.52-20.68-.04-.01-1.28-.44-3.27-2.01-.58-.46-1.28-1.06-2.1-1.76-2.02-1.74-4.79-4.11-8.23-6.48l.14-.21c3.45,2.38,6.22,4.76,8.25,6.5.81.7,1.52,1.3,2.09,1.76,1.96,1.55,3.2,1.98,3.21,1.98.14.07,12.71,6.2,18.66,20.82l-.23.09Z"/>
      <path class="cls-3" d="M274.76,161.17l-.25-.02c3.56-45.4-11.72-70.97-19.93-84.71-.74-1.23-1.43-2.4-2.05-3.46l.22-.12c.62,1.07,1.31,2.23,2.05,3.46,8.22,13.76,23.53,39.38,19.97,84.86Z"/>
      <path class="cls-3" d="M265.38,147.33l-.23-.09c10.04-27.23,8.39-35.52,7.07-42.17-.16-.82-.32-1.59-.45-2.39l.25-.04c.13.79.29,1.57.45,2.38,1.33,6.69,2.99,15.01-7.08,42.31Z"/>
      <path class="cls-3" d="M268.93,96.55c-2.53-6.05-9.94-17.22-16.51-23.58l.17-.18c6.6,6.38,14.03,17.59,16.57,23.67l-.23.1Z"/>
      <path class="cls-3" d="M269.6,98.34c-4.73-10.61-17.48-25.52-25.29-31.26l.15-.2c7.83,5.76,20.62,20.72,25.37,31.36l-.23.1Z"/>
      <path class="cls-3" d="M246.14,73.84l-.05-.25c1.5-.28,5.14-.94,6.49-.98v.25c-1.33.03-4.95.69-6.45.98Z"/>
      <path class="cls-3" d="M226.42,68s-4.52-4.75-7.58-6.1l-.09-.04.02-.1c.01-.08,1.24-8.06.5-14.84l.25-.03c.7,6.41-.35,13.89-.49,14.81,3.11,1.42,7.53,6.07,7.58,6.11l-.18.17Z"/>
      <path class="cls-3" d="M218.75,122.82l-.2-.15c21.46-27.97,23.55-46.43,23.25-57.88h.25c.29,11.48-1.8,30-23.31,58.03Z"/>
      <path class="cls-3" d="M184.71,251.38l-.16-.19c6.31-5.33,14.88-14.24,25.49-26.49l.19.16c-10.61,12.25-19.2,21.18-25.51,26.51Z"/>
      <path class="cls-3" d="M134.8,278.16l-.08-.24c25.42-8.72,57-48.56,57.32-48.96l.2.15c-.32.4-31.94,40.3-57.43,49.04Z"/>
      <path class="cls-3" d="M185.23,251.93c-.7-1.25-9.83-7.44-15.79-11.29l.14-.21c5.15,3.33,15.09,9.98,15.87,11.38l-.22.12Z"/>
      <path class="cls-3" d="M142.59,253.76l-.17-.18c7.91-7.41,30.39-31.5,30.62-31.74l.18.17c-.23.24-22.72,24.34-30.63,31.76Z"/>
      <polygon class="cls-3" points="138.53 253.74 122.45 231.88 145.19 218.18 145.32 218.4 122.82 231.95 138.73 253.59 138.53 253.74"/>
      <path class="cls-3" d="M122.38,272.05c-.47-6.37,5.03-23.66,7.67-31.97l.46-1.45c2.39-7.54,19.1-52.7,23.63-64.38l.35-.91-.11.97c-3.95,34.48-13.04,77.83-13.13,78.26l-.25-.05c.09-.43,9-42.95,13.01-77.26-4.98,12.95-20.94,56.1-23.27,63.45l-.46,1.45c-2.64,8.29-8.13,25.55-7.66,31.88l-.25.02Z"/>
      <path class="cls-3" d="M162.72,273.16l-.1-.23c10.3-4.99,6.88-32.51,6.85-32.79v-.02s3.58-18.35,3.58-18.35l.25.05-3.58,18.31c.05.42.88,7.24.48,14.55-.34,6.26-1.67,14.04-5.92,17.48,3.68-1.89,12.83-7.64,20.29-21.02l.22.12c-9.58,17.17-21.94,21.84-22.07,21.89Z"/>
      <path class="cls-3" d="M137.78,276.54l-.04-.25c21.1-3.7,63.1-40.46,72.3-51.83l.2.16c-9.22,11.39-51.3,48.21-72.45,51.92Z"/>
      <path class="cls-3" d="M162.14,273.11c-.46-1.95-9.54-8.55-16.17-13.36-2.23-1.62-4.15-3.01-5.41-3.98l.15-.2c1.25.97,3.17,2.36,5.4,3.98,6.66,4.84,15.79,11.46,16.27,13.51l-.24.06Z"/>
      <rect class="cls-3" x="140.69" y="247.25" width="30.72" height=".25" transform="translate(-98.3 102.97) rotate(-28.17)"/>
      <polygon class="cls-3" points="105.56 270.9 105.46 270.67 136.63 257.51 136.73 257.73 110.23 270.9 110.12 270.68 132.98 259.32 105.56 270.9"/>
      <path class="cls-3" d="M97.6,266.35c-2.24,0-4.23-.09-5.93-.27l.03-.25c18.36,1.98,70.45-7.39,91.45-14.16l.08.24c-19.07,6.15-63.76,14.44-85.62,14.44Z"/>
      <path class="cls-3" d="M151,273.89c-16.9,0-42.06-2.38-58.94-7.65l.07-.24c20.87,6.52,54.42,8.61,69.29,7.25l.02.25c-2.86.26-6.42.4-10.44.4Z"/>
      <path class="cls-3" d="M135.52,277.08l-.02-.25c10.12-.93,27.23-25.47,33.49-36.52l.22.12c-4.23,7.47-22.35,35.6-33.68,36.65Z"/>
      <path class="cls-3" d="M136.96,280.41l-.24-.08c.84-2.52,2.6-15.79,3.24-21.89l.25.03c-.64,6.11-2.41,19.41-3.26,21.94Z"/>
      <path class="cls-3" d="M127.39,276.07c-.55-1.92,5.27-9.91,10.4-16.65.32-.43.59-.78.79-1.04l.2.15c-.19.26-.46.61-.79,1.04-2.71,3.56-10.94,14.39-10.36,16.44l-.24.07Z"/>
      <path class="cls-3" d="M122.99,271.81l-.13-.21c.38-.24,38.23-24.23,44.81-30.57l.17.18c-6.6,6.35-44.47,30.36-44.85,30.6Z"/>
      <path class="cls-3" d="M122.43,272.38l-.17-.18c1.38-1.31,13.06-12.23,15.42-14.17l.16.19c-2.36,1.94-14.03,12.85-15.41,14.16Z"/>
      <path class="cls-3" d="M143.09,255.75v-.25c3.97,0,28.9-2.1,40.81-4.33l.05.25c-11.92,2.23-36.88,4.34-40.86,4.34Z"/>
      <path class="cls-3" d="M144.38,254.41l-.09-.23c4.36-1.59,43.24-15.93,64.31-28.74l.13.21c-21.09,12.83-59.99,27.17-64.36,28.76Z"/>
      <path class="cls-3" d="M142.56,274.15l-.1-.23c21.8-9.41,53.65-34.78,67.34-48.72l.18.17c-13.7,13.95-45.59,39.35-67.41,48.78Z"/>
      <path class="cls-3" d="M135.97,276.53c-.2-.06-20.49-6.1-27.93-13.91l.18-.17c7.39,7.76,27.62,13.78,27.82,13.84l-.07.24Z"/>
      <path class="cls-3" d="M129.2,276.32c-.17-.09-4.29-2.12-5.63-3.87l.2-.15c1.3,1.71,5.5,3.78,5.54,3.8l-.11.22Z"/>
      <path class="cls-3" d="M131.23,277.04c-7.69-1.97-18.42-8.89-22.07-14.24l.21-.14c3.63,5.31,14.28,12.18,21.93,14.14l-.06.24Z"/>
      <path class="cls-3" d="M107.85,261.68c-3.37-3.89-7.59-8.85-8.57-10.39l.21-.13c.76,1.19,3.8,4.87,8.55,10.36l-.19.16Z"/>
      <path class="cls-3" d="M106.41,261.61l-.19-.25c-5.79-7.71-7.66-10.62-8.2-11.71l.22-.11c.54,1.08,2.39,3.97,8.18,11.67l.19.25-.2.15Z"/>
      <path class="cls-3" d="M109.86,270.82c-2.99-2.69-10.18-10.03-12.23-20.07l.25-.05c2.03,9.97,9.17,17.26,12.15,19.93l-.17.19Z"/>
      <path class="cls-3" d="M136.16,255.25c-5.84-.93-28.87-4.89-36.52-7.09l.07-.24c7.63,2.19,30.65,6.15,36.48,7.08l-.04.25Z"/>
      <path class="cls-3" d="M125.32,250.28c-14.68,0-53.47-5.48-69.97-10-8.85-2.42-15.92-4.84-17.39-5.51l.1-.23c1.47.67,8.52,3.07,17.36,5.49,17.24,4.72,58.82,10.49,71.75,9.95v.25c-.56.02-1.18.03-1.85.03Z"/>
      <path class="cls-3" d="M109.38,265.74c-27.81-10.72-70.39-44.95-76.48-53.96l.21-.14c6.07,8.99,48.58,43.16,76.36,53.87l-.09.23Z"/>
      <path class="cls-3" d="M70.21,256.17h-.05s-1.7-.12-2.19-.09l-.02-.25c.46-.04,1.9.06,2.18.08,5.57-4.17,24.22-11,27.91-12.32l.08.24c-3.69,1.33-22.39,8.17-27.88,12.32l-.04.03Z"/>
      <path class="cls-3" d="M110.07,266.16c-17.07-2.44-38.97-6.6-46.39-12.61-5.09-4.11-6.63-4.83-7.99-5.47-.72-.33-1.39-.65-2.51-1.44l.14-.2c1.1.78,1.76,1.09,2.47,1.42,1.37.64,2.93,1.37,8.04,5.5,7.38,5.97,29.24,10.12,46.27,12.56l-.04.25Z"/>
      <path class="cls-3" d="M116.48,273.74c-14.08-3.86-33.82-17.17-54.18-36.51-18.87-17.93-34.19-37.24-39.98-50.39l.23-.1c5.78,13.12,21.08,32.4,39.93,50.31,20.33,19.32,40.04,32.6,54.08,36.45l-.07.24Z"/>
      <path class="cls-3" d="M128.79,250.4c-19.56-9-49.22-24.66-50.15-25.16-1.1-.13-36.56-4.54-54.35-13.68-.07-.06-4.93-4.11-10.21-11.71l.21-.14c5.26,7.56,10.1,11.6,10.14,11.64,17.92,9.2,53.91,13.6,54.27,13.64h.04c.28.17,30.38,16.08,50.16,25.18l-.1.23Z"/>
      <path class="cls-3" d="M97.8,244.24c-.3-.11-30.58-10.86-33.68-12.51-.3-.11-31.94-11.77-39.87-20.19l.18-.17c7.89,8.38,39.47,20.02,39.79,20.13,2.62,1.38,25.19,9.49,33.67,12.5l-.08.24Z"/>
      <path class="cls-3" d="M43.25,239.21c-7.79-8.48-9.18-19.09-4.12-31.55,4-9.85,10.78-17.77,13.34-20.75.17-.2.32-.38.45-.52l.19.16c-.12.15-.28.32-.45.53-2.55,2.97-9.32,10.88-13.3,20.69-5.02,12.36-3.65,22.89,4.08,31.29l-.18.17Z"/>
      <path class="cls-3" d="M32.88,211.33l-.24-.08c2.13-6.12,16.08-22.33,21.47-25.73l.13.21c-5.36,3.38-19.25,19.51-21.37,25.6Z"/>
      <path class="cls-3" d="M24.46,210.58l-.23-.09c3.08-7.97,16.4-17.85,27.48-23.65l.12.22c-11.03,5.78-24.3,15.6-27.36,23.52Z"/>
      <path class="cls-3" d="M71.5,250.79c-9.54-9.52-19.33-25.14-26.84-42.85-8.02-18.9-12.68-38.25-13.11-54.48h.25c.93,35.24,21.37,78.69,39.88,97.16l-.18.18Z"/>
      <path class="cls-3" d="M78.61,224.16c-20.88-3.8-35.78-7.71-44.28-11.63l.1-.23c8.48,3.91,23.36,7.82,44.22,11.62l-.04.25Z"/>
      <path class="cls-3" d="M31.97,211.16c-10.95-4.01-14.98-8.88-17.93-12.44-.42-.51-.82-.99-1.21-1.43l.19-.17c.39.44.79.93,1.21,1.44,2.93,3.53,6.94,8.37,17.82,12.36l-.09.23Z"/>
      <path class="cls-3" d="M46.37,239.76l-.23-.1c1.83-4.11,17.91-10.37,31.07-14.9l.08.24c-18.54,6.38-29.52,11.62-30.93,14.77Z"/>
      <path class="cls-3" d="M43.79,232.54c-3.11,0-5.81-.11-7.46-.38l.04-.25c5.25.86,21.17.04,26.8-.5l.02.25c-3.87.37-12.6.88-19.4.88Z"/>
      <path class="cls-3" d="M35.78,231.33l-.04-.25c.34-.05,34.4-5.02,40.41-6.41l.06.24c-6.02,1.4-40.08,6.37-40.43,6.42Z"/>
      <path class="cls-3" d="M48.67,243.75c-1.85-2.02-2.75-4.08-2.66-6.13.15-3.52,3.18-6.3,5-7.95.18-.17.35-.32.51-.47l.17.18c-.16.15-.33.3-.51.47-1.78,1.63-4.77,4.36-4.91,7.78-.09,1.98.79,3.98,2.59,5.95l-.18.17Z"/>
      <path class="cls-3" d="M69.43,248.79c-7.43,0-16.1-2.26-19.21-3.39l.08-.24c3.06,1.11,12.26,3.49,19.71,3.37v.25c-.19,0-.38,0-.58,0Z"/>
      <path class="cls-3" d="M97.42,243.54c-9.72-9.89-17.93-19.74-18.01-19.84l.19-.16c.08.1,8.28,9.94,17.99,19.83l-.18.17Z"/>
      <path class="cls-3" d="M77.58,221.79c-4.79-5.76-20.26-26.68-23.76-33.44l.22-.12c3.5,6.74,18.95,27.64,23.74,33.39l-.19.16Z"/>
      <path class="cls-3" d="M12.4,199.23c-.96-1.56-1.17-3.15-.62-4.72,1.73-4.95,10.32-8.09,10.69-8.22h.04c2.84,0,28.74-.5,29-.51v.25c-.26,0-26.02.5-28.98.5-.47.17-8.86,3.33-10.52,8.06-.52,1.49-.32,3.01.6,4.5l-.21.13Z"/>
      <path class="cls-3" d="M21.12,196.96c-5.93,0-8.67-.36-8.86-1.14l.24-.06c.11.46,1.88,1,9.69.95.22,0,.4,0,.53,0v.25c-.13,0-.31,0-.52,0-.37,0-.72,0-1.07,0Z"/>
      <path class="cls-3" d="M38.37,205.21c-3.38-.33-20.51-2.26-25.46-8.38l.19-.16c4.89,6.04,21.92,7.96,25.29,8.29l-.02.25Z"/>
      <path class="cls-3" d="M28.97,224.04c-1.04-1.64-2.61-5.89-3.87-9.31-.48-1.3-.89-2.43-1.21-3.21l.23-.09c.31.78.73,1.91,1.21,3.21,1.25,3.41,2.81,7.65,3.84,9.27l-.21.13Z"/>
      <path class="cls-3" d="M31.87,223.48c-1.32-.13-4.62-.7-6.77-3.3l.19-.16c2.09,2.52,5.32,3.08,6.6,3.2l-.02.25Z"/>
      <path class="cls-3" d="M33.33,228.83c-.74-2.29-1.31-4.99-1.32-5.01l.25-.05s.57,2.71,1.31,4.99l-.24.08Z"/>
      <path class="cls-3" d="M31.03,221.8c-3.46-4.82-6.54-9.58-6.57-9.63l-1.57-2.95c-.12-.22-11.86-22.4-13.93-30.74l.24-.06c2.06,8.31,13.79,30.46,13.91,30.68l1.56,2.94s3.1,4.79,6.55,9.61l-.2.15Z"/>
      <path class="cls-3" d="M26.84,198.3c-4.49-4.06-15.12-15.64-18.44-21.45l.22-.12c3.31,5.79,13.91,17.33,18.39,21.39l-.17.19Z"/>
      <path class="cls-3" d="M22.47,185.13l-.25-.02c.68-10.83,6.19-26.27,8.01-30.38l.23.1c-1.82,4.09-7.31,19.49-7.99,30.29Z"/>
      <path class="cls-3" d="M44.55,238.26c-14.26-13.4-22.17-43.44-22.1-49.53h.25c-.07,6.07,7.82,36,22.02,49.35l-.17.18Z"/>
      <path class="cls-3" d="M70.73,250.49c-5.26-1.36-16.23-5.01-23.95-10.1l.14-.21c7.69,5.07,18.63,8.71,23.88,10.07l-.06.24Z"/>
      <path class="cls-3" d="M70.03,256.15c-7.45-4.54-21.48-13.82-24.85-16.85l.17-.19c3.02,2.72,14.64,10.48,22.37,15.31-2.33-1.78-5.73-4.53-6.81-6.15l.21-.14c1.64,2.45,8.98,7.75,9.05,7.8l-.14.21Z"/>
      <path class="cls-3" d="M86.28,265.81c-2.8-1.61-12.13-8.87-13.31-13.91l.24-.06c1.16,4.97,10.41,12.15,13.19,13.75l-.12.22Z"/>
      <path class="cls-3" d="M69.85,250.23c-7.42-5.03-14.03-10.29-14.09-10.34-.19-.2-17.57-19.02-21.61-25.95l.22-.13c4.03,6.91,21.39,25.71,21.57,25.9.05.04,6.65,5.29,14.06,10.31l-.14.21Z"/>
      <path class="cls-3" d="M60.17,248.21c-6.93-7.08-19.69-21.2-27.27-36.28l.22-.11c7.56,15.05,20.31,29.15,27.23,36.22l-.18.17Z"/>
      <path class="cls-3" d="M43.47,219.99c-6.27,0-12.63-.34-18.85-1.15l.03-.25c22.06,2.88,45.74-.19,61.73-3.27,18.69-3.6,36.36-9.1,46.1-14.35l.12.22c-9.76,5.26-27.45,10.77-46.17,14.38-11.49,2.22-26.97,4.43-42.96,4.43Z"/>
      <path class="cls-3" d="M70.36,248.79c-5.67-1.21-18.7-6.02-24.03-8.89l.12-.22c5.32,2.86,18.31,7.66,23.97,8.86l-.05.24Z"/>
      <path class="cls-3" d="M28.77,131.84c-9.62-20.41-12.96-38.89-9.95-54.92,2.48-13.2,8.58-21.54,12.22-26.52.31-.42.6-.81.86-1.18l.2.15c-.26.37-.55.76-.86,1.19-7.37,10.08-24.63,33.69-2.25,81.19l-.23.11Z"/>
      <path class="cls-3" d="M30.26,129.31l-.25-.04c2.94-19.07,8-36.94,15.06-53.09,7.12-16.31,16.32-31.02,27.35-43.72l.19.16c-22.14,25.5-36.39,58.03-42.35,96.69Z"/>
      <path class="cls-3" d="M33.96,56.39l-.16-.19c6.86-5.69,21-15.13,37.15-23.39l.11.22c-16.13,8.25-30.26,17.68-37.1,23.36Z"/>
      <path class="cls-3" d="M34.19,55.28l-.2-.14c7.25-10.31,19.78-22.42,35.28-34.11l.15.2c-15.48,11.68-27.98,23.77-35.22,34.06Z"/>
      <path class="cls-3" d="M28.51,131.45c-8.64-28.42-2.55-48.58,1.48-61.93,1.57-5.19,2.8-9.28,2.52-12.09-.56-5.61.98-8.87,4.65-14.04l.2.14c-3.63,5.12-5.16,8.34-4.6,13.87.29,2.86-.95,6.98-2.53,12.19-4.02,13.32-10.1,33.44-1.48,61.78l-.24.07Z"/>
      <path class="cls-3" d="M73.78,164.06c-12.52-7.26-31.37-19.78-43.18-29.68l.16-.19c11.8,9.89,30.64,22.4,43.15,29.65l-.12.22Z"/>
      <path class="cls-3" d="M26.79,131.57c-.07-.03-6.88-2.89-13.15-7.7-8.33-6.38-11.93-13.28-10.42-19.94l.24.06c-1.88,8.29,4.58,15.28,10.33,19.68,6.25,4.79,13.03,7.65,13.1,7.67l-.1.23Z"/>
      <path class="cls-3" d="M1.5,107.96l-.23-.09c3.07-7.85,10.25-13.59,21.33-17.07l.08.24c-11.01,3.46-18.13,9.15-21.17,16.93Z"/>
      <path class="cls-3" d="M29.62,131.09l-.22-.11c3.59-7.19,12.43-19.54,27.01-37.77l.2.16c-14.57,18.22-23.4,30.56-26.99,37.73Z"/>
      <path class="cls-3" d="M29.34,152.36c-5.6-.38-16.11-1.64-20.75-2.62l-.29-.06.25-.16c.08-.05,1.93-1.25,3.35-1.12l-.02.25c-1.02-.09-2.36.6-2.92.92,4.78.97,14.93,2.18,20.41,2.55l-.02.25Z"/>
      <path class="cls-3" d="M50.9,204.11c-12.11-18.41-20.01-56.14-21.52-67.8l.25-.03c1.51,11.65,9.4,49.33,21.48,67.7l-.21.14Z"/>
      <path class="cls-3" d="M52.97,185.58c-10.89-3.04-24.53-9.27-36.51-16.67-.89-.2-15.58-3.55-16.45-11.1l.25-.03c.85,7.45,16.12,10.86,16.28,10.89l.04.02c11.96,7.39,25.6,13.62,36.47,16.65l-.07.24Z"/>
      <path class="cls-3" d="M9.98,189.67c-3.06-7.14,2.36-16.64,5.94-20.14l.17.18c-3.54,3.46-8.9,12.83-5.89,19.86l-.23.1Z"/>
      <path class="cls-3" d="M6.47,180.88c-.6-6.33,5.62-9.78,8.96-11.63.39-.22.73-.41,1.02-.58l.13.21c-.29.17-.63.36-1.02.58-3.29,1.82-9.42,5.22-8.83,11.38l-.25.02Z"/>
      <path class="cls-3" d="M7.09,181.92c-.04-1.25.35-3.97.84-5.26l.23.09c-.49,1.26-.87,3.93-.83,5.16h-.25Z"/>
      <path class="cls-3" d="M72.3,251.51c-15.48-13.08-27.92-26.82-38.04-42-11.93-17.88-20.6-38.02-25.77-59.86-4.62-19.52-4.16-39.39,1.38-59.06,4.51-16,11.15-27.65,14.72-33.91.51-.9.96-1.68,1.31-2.33l.22.12c-.35.65-.8,1.43-1.31,2.33-6.65,11.67-26.88,47.17-16.07,92.79,9.54,40.26,30.39,73.54,63.73,101.73l-.16.19Z"/>
      <path class="cls-3" d="M109.4,266.08c-18.34-4.35-45.81-14.22-62.79-25.6l.14-.21c16.96,11.36,44.39,21.22,62.71,25.57l-.06.24Z"/>
      <path class="cls-3" d="M87.87,266.9c-5.01-2.55-9.81-5.12-17.77-10.84l.15-.2c7.95,5.71,12.73,8.28,17.73,10.82l-.11.22Z"/>
      <path class="cls-3" d="M78.9,262.19c-9.37-5.67-25.78-17.15-31.24-23.76l.19-.16c5.44,6.59,21.82,18.04,31.18,23.7l-.13.21Z"/>
      <path class="cls-3" d="M59.97,247.41c-7.82-2.42-27.12-21.71-41.59-50.26-7.84-15.47-12.97-31.09-15.26-46.4-2.72-18.23-1.29-35.62,4.26-51.66l.24.08c-12.95,37.41-1.17,73.87,10.98,97.87,14.43,28.49,33.66,47.73,41.44,50.14l-.07.24Z"/>
      <path class="cls-3" d="M7.22,172.97c-.21-2.02-.48-4.18-.77-6.47-1.39-10.98-3.13-24.64-.42-42.54,3.2-21.19,11.83-43.01,26.38-66.73l.21.13C-.34,111.08,3.89,144.41,6.69,166.46c.29,2.29.57,4.45.77,6.48l-.25.03Z"/>
      <path class="cls-3" d="M16.3,167.98l-.25-.05c1.84-9.56,8.51-26.7,12.68-34.04l.22.12c-4.16,7.32-10.81,24.43-12.65,33.96Z"/>
      <path class="cls-3" d="M7.97,174.3h-.25c.86-15.52,15.17-33.71,19.53-38.92l.19.16c-4.35,5.19-18.61,23.34-19.47,38.76Z"/>
      <path class="cls-3" d="M7,174.21c-2.36-2.27-4.06-4.9-4.78-7.39l.24-.07c.71,2.45,2.39,5.03,4.72,7.28l-.17.18Z"/>
      <path class="cls-3" d="M6.73,173.02c-1.93-3.43-4.9-10.45-6.09-14.44l.24-.07c1.19,3.98,4.15,10.98,6.07,14.39l-.22.12Z"/>
      <path class="cls-3" d="M5.06,168.34c-.94-2.04-4.22-11.5-4.92-13.85l.24-.07c.78,2.61,4.03,11.9,4.91,13.82l-.23.1Z"/>
      <path class="cls-3" d="M7.45,182.13c-.45-1.76-1.23-6.26-2.38-13.76l.25-.04c1.15,7.49,1.92,11.99,2.37,13.74l-.24.06Z"/>
      <path class="cls-3" d="M6.64,171.2c-1.79-5.75-4.17-14.35-4.19-14.44l.24-.07c.02.09,2.4,8.69,4.19,14.43l-.24.07Z"/>
      <path class="cls-3" d="M8.39,176.75c-6.91-16.28-7.02-25.83-7.15-37.92l-.02-1.88h.25s.02,1.88.02,1.88c.14,12.06.24,21.59,7.13,37.82l-.23.1Z"/>
      <path class="cls-3" d="M15.88,168.06c-3.34-25.4-.72-53.93,7.01-76.31l.24.08c-7.71,22.34-10.33,50.83-6.99,76.19l-.25.03Z"/>
      <path class="cls-3" d="M38.27,205.21c-6.37-16.84-7.3-47.14-7.38-50.54h.25c.08,3.39,1.01,33.65,7.37,50.45l-.23.09Z"/>
      <path class="cls-3" d="M15.81,166.92c-1.34-3.2-3.11-12.91-3.87-17.06-.09-.5-.17-.92-.22-1.22l.25-.05c.06.3.13.71.22,1.22.76,4.14,2.52,13.84,3.85,17.01l-.23.1Z"/>
      <path class="cls-3" d="M16.89,170.09c-.14-.31-.39-.88-.73-1.63-1.96-4.38-6.54-14.62-8.03-18.88l.24-.08c1.49,4.25,6.07,14.49,8.02,18.86.34.75.59,1.32.73,1.63l-.23.1Z"/>
      <path class="cls-3" d="M.05,149.63c-.24-6,2-10.78,3.36-12.66l.2.15c-1.34,1.85-3.54,6.58-3.31,12.5H.05Z"/>
      <path class="cls-3" d="M2.31,156.24c-1.27-4.36.04-11.93.81-16.44.14-.84.27-1.56.35-2.11l.25.04c-.08.55-.21,1.28-.35,2.11-.77,4.5-2.07,12.03-.82,16.33l-.24.07Z"/>
      <path class="cls-3" d="M7.98,175.92C-.39,157.33.62,130.21.63,129.95h.25c-.01.28-1.02,27.33,7.32,45.87l-.23.1Z"/>
      <path class="cls-3" d="M92.07,266.25c-6.17-1.13-18.81-6.64-24.46-10.18l.13-.21c5.63,3.54,18.23,9.03,24.37,10.15l-.04.25Z"/>
    </g>
    <path class="cls-3" d="M138.12,276.12c-18.65,0-36.74-3.65-53.76-10.85-16.45-6.96-31.22-16.92-43.9-29.6s-22.64-27.46-29.6-43.9C3.65,174.73,0,156.65,0,138s3.83-37.62,11.38-55c7.3-16.79,17.71-31.77,30.96-44.52l.17.18C15.26,64.9.25,100.18.25,138c0,76.02,61.85,137.88,137.88,137.88,13.04,0,25.95-1.82,38.36-5.41l.07.24c-12.43,3.59-25.36,5.41-38.43,5.41Z"/>
    <path class="cls-3" d="M232.64,238.73l-.17-.18c27.67-25.97,43.53-62.62,43.53-100.54,0-42.87-19.43-82.56-53.32-108.91l.15-.2c16.26,12.64,29.71,29.03,38.9,47.4,9.63,19.26,14.52,40.02,14.52,61.71,0,19.42-3.95,38.19-11.74,55.81-7.52,17.02-18.25,32.13-31.87,44.92Z"/>
    <path class="cls-3" d="M211.73,225.21c-1.19,1.48-2.93,2.16-3.7,1.43-.71-.67-.22-2.22.93-3.41,1.06-1.1,2.42-1.61,3.17-1.19.8.44.68,1.83-.4,3.17Z"/>
    <path class="cls-3" d="M194.82,229.37c-1.24,1.19-2.96,1.52-3.83.74-.88-.78-.59-2.39.65-3.58s2.96-1.52,3.83-.74c.88.78.59,2.39-.65,3.58Z"/>
    <path class="cls-3" d="M174.94,223.26c-1.27,1.17-3.17,1.35-4.24.4-1.07-.95-.91-2.66.35-3.83,1.27-1.17,3.17-1.35,4.24-.4,1.07.95.91,2.66-.35,3.83Z"/>
    <path class="cls-3" d="M181.46,255.64c-1.05,0-1.86-.29-2.36-.84-.4-.44-.57-1.04-.49-1.72.18-1.57,1.63-3.47,3.77-4.94,1.89-1.3,4.05-2.08,5.77-2.08,1.05,0,1.86.29,2.36.84.4.44.57,1.03.49,1.72-.18,1.57-1.63,3.47-3.77,4.94-1.89,1.3-4.05,2.08-5.77,2.08ZM188.15,246.31c-1.67,0-3.78.76-5.63,2.04-2.08,1.44-3.49,3.26-3.66,4.77-.07.62.07,1.13.42,1.52.45.49,1.2.76,2.17.76,1.67,0,3.78-.76,5.63-2.04,2.08-1.44,3.49-3.26,3.66-4.77.07-.62-.07-1.13-.42-1.52-.45-.49-1.2-.76-2.17-.76Z"/>
    <path class="cls-3" d="M185.76,251.91c-1.25.88-2.68,1.18-3.19.67-.51-.52.09-1.65,1.34-2.54s2.68-1.18,3.19-.67c.51.52-.09,1.65-1.34,2.54Z"/>
    <path class="cls-3" d="M171.05,241.53c-1.22,1.05-2.91,1.22-3.79.44-.83-.74-.65-2.11.42-3.12,1.1-1.05,2.79-1.38,3.78-.68,1.04.73.85,2.27-.41,3.36Z"/>
    <path class="cls-3" d="M140.26,259.71c-3.25.03-5.77-1.79-5.62-4.07.14-2.28,2.89-4.16,6.14-4.19,3.25-.03,5.77,1.79,5.62,4.07-.14,2.28-2.89,4.16-6.14,4.19Z"/>
    <path class="cls-3" d="M129.38,252.63c-1.73,0-3.29-1.1-3.48-2.47-.19-1.37,1.06-2.48,2.79-2.48,1.73,0,3.29,1.1,3.48,2.47.19,1.37-1.06,2.48-2.79,2.48Z"/>
    <path class="cls-3" d="M129.32,254.08c-3.06,0-5.77-1.86-6.04-4.15-.11-.93.18-1.81.84-2.55.95-1.08,2.53-1.71,4.32-1.73h.07c3.06,0,5.77,1.86,6.04,4.15.11.93-.18,1.81-.84,2.55-.95,1.08-2.53,1.71-4.32,1.73h-.07ZM128.5,245.91h-.07c-1.69.02-3.24.63-4.13,1.64-.61.69-.87,1.5-.77,2.35.25,2.16,2.85,3.92,5.79,3.92h.07c1.69-.02,3.24-.63,4.13-1.64.61-.69.87-1.5.77-2.35-.25-2.16-2.85-3.92-5.79-3.92Z"/>
    <path class="cls-3" d="M162.35,273.38c-1.17.34-2.15.49-2.19.32-.04-.16.87-.58,2.04-.92,1.17-.34,2.15-.49,2.19-.32.04.16-.87.58-2.04.92Z"/>
    <path class="cls-3" d="M143.89,273.78c.03.31-.56.63-1.32.71s-1.41-.11-1.44-.42c-.03-.31.56-.63,1.32-.71.76-.08,1.41.11,1.44.42Z"/>
    <path class="cls-3" d="M125.01,274.06c-.89,0-1.89-.14-2.9-.39-2.93-.75-5.04-2.25-4.79-3.43.15-.74,1.2-1.17,2.79-1.17.89,0,1.89.14,2.9.39,2.93.75,5.04,2.25,4.79,3.43-.15.74-1.2,1.17-2.79,1.17ZM120.11,269.31c-1.44,0-2.42.37-2.54.97-.21,1.01,1.9,2.45,4.61,3.14.99.25,1.97.38,2.84.38,1.44,0,2.42-.37,2.54-.97.21-1.01-1.9-2.45-4.61-3.14-.99-.25-1.97-.38-2.84-.38Z"/>
    <path class="cls-3" d="M125.27,272.51c-.13.51-1.4.6-2.84.21-1.44-.39-2.51-1.11-2.38-1.62.13-.51,1.4-.6,2.84-.22,1.44.39,2.51,1.11,2.38,1.62Z"/>
    <path class="cls-3" d="M119.84,274.85c-.84,0-2.09-.18-3.42-.48-1.48-.34-4.25-1.16-4.11-1.83.05-.23.38-.34,1.05-.34.84,0,2.09.18,3.43.48,1.48.34,4.25,1.16,4.11,1.83-.05.23-.38.34-1.05.34ZM113.34,272.46c-.73,0-.8.14-.8.14-.04.2,1.3.93,3.92,1.53,1.3.3,2.56.48,3.37.48.73,0,.8-.14.8-.14.04-.2-1.3-.93-3.92-1.53-1.3-.3-2.56-.48-3.37-.48Z"/>
    <path class="cls-3" d="M119.38,274.14c-.07.25-1.31.17-2.75-.18-1.45-.35-2.57-.83-2.49-1.08.07-.25,1.3-.17,2.75.18,1.45.35,2.57.83,2.49,1.08Z"/>
    <path class="cls-3" d="M142.72,216.3c.03-2.43,2.4-4.41,5.28-4.41,2.88,0,5.19,1.97,5.16,4.41-.03,2.43-2.4,4.41-5.28,4.41-2.88,0-5.19-1.97-5.16-4.41Z"/>
    <path class="cls-3" d="M147.37,225.25h-.05c-2.89-.01-5.6-1.13-7.44-3.06-1.58-1.67-2.39-3.82-2.28-6.05.25-4.97,4.99-9.01,10.56-9.01h.05c2.89.01,5.6,1.13,7.44,3.06,1.58,1.67,2.39,3.82,2.28,6.05-.25,4.97-4.99,9.01-10.56,9.01ZM148.17,207.37c-5.44,0-10.07,3.94-10.31,8.78-.11,2.16.68,4.24,2.21,5.86,1.79,1.88,4.43,2.97,7.26,2.98h.05c5.44,0,10.07-3.94,10.31-8.78.11-2.16-.68-4.24-2.21-5.86-1.79-1.89-4.43-2.97-7.26-2.98h-.05Z"/>
    <path class="cls-3" d="M119.72,231.86c.02-1.36,1.34-2.47,2.96-2.47s2.91,1.1,2.89,2.47c-.02,1.36-1.34,2.47-2.96,2.47s-2.91-1.1-2.89-2.47Z"/>
    <path class="cls-3" d="M129.92,200.95c.02-1.44,1.27-2.61,2.79-2.63,1.53-.02,2.75,1.13,2.73,2.57-.02,1.44-1.27,2.61-2.79,2.63-1.53.02-2.75-1.13-2.73-2.57Z"/>
    <path class="cls-3" d="M150.54,173.79c.25-1.89,2.08-3.29,4.08-3.13,2.01.16,3.43,1.83,3.18,3.72-.25,1.89-2.08,3.29-4.08,3.13-2.01-.16-3.43-1.83-3.18-3.72Z"/>
    <path class="cls-3" d="M108.43,270.19c.11-.24.95-.13,1.87.25.92.38,1.58.88,1.47,1.13-.11.24-.95.13-1.87-.25-.92-.38-1.58-.88-1.47-1.13Z"/>
    <path class="cls-3" d="M104,269.98c.11-.23,1.15-.02,2.13.38.82.34,1.38.73,1.37.92-.01.2-.65.17-1.55-.13-1.1-.36-2.07-.93-1.95-1.17Z"/>
    <path class="cls-3" d="M109.98,265.17c1.01.49,1.58,1.14,1.35,1.49-.22.34-1.19.3-2.23-.14-1.13-.47-1.92-1.22-1.66-1.63.26-.41,1.44-.26,2.53.27Z"/>
    <path class="cls-3" d="M111.22,267.57c-.7,0-1.55-.19-2.39-.53-1.37-.56-2.45-1.42-2.68-2.14-.08-.25-.06-.48.06-.68.21-.33.66-.5,1.33-.5.83,0,1.91.28,2.89.75,1.18.57,2.02,1.33,2.2,1.97.07.24.04.45-.07.63-.2.31-.68.49-1.33.49ZM107.54,263.98c-.56,0-.96.14-1.12.38-.08.13-.09.29-.04.47.21.64,1.25,1.46,2.54,1.99.81.33,1.62.51,2.29.51.56,0,.97-.14,1.12-.37.08-.12.09-.26.04-.43-.16-.57-.97-1.28-2.07-1.81-.94-.46-1.98-.73-2.78-.73Z"/>
    <path class="cls-3" d="M108.72,261.55c.9.56,1.27,1.22,1,1.59-.28.37-1.2.41-2.24.02-1.33-.5-2.35-1.48-1.9-2.04.45-.56,2-.27,3.14.44Z"/>
    <path class="cls-3" d="M92.23,265.63c1.14.56,1.97,1.18,1.85,1.39-.12.21-1.14-.07-2.28-.63-1.14-.56-1.97-1.18-1.85-1.39.12-.21,1.14.07,2.28.63Z"/>
    <path class="cls-3" d="M87.7,265.77c2.71,1.21,4.81,2.37,4.69,2.58-.12.21-2.41-.6-5.12-1.82-2.71-1.21-4.81-2.37-4.69-2.58.12-.21,2.41.6,5.12,1.82Z"/>
    <path class="cls-3" d="M79.51,262.1c.7.35,1.25.73,1.23.85-.02.12-.61-.07-1.31-.42-.7-.35-1.25-.73-1.23-.85.02-.12.61.07,1.31.42Z"/>
    <path class="cls-3" d="M73.64,250.48c1.84,1.43,2.9,2.91,2.49,3.4-.42.51-2.26-.13-4.24-1.53-2.16-1.53-3.59-3.32-3.02-3.85.56-.52,2.76.43,4.77,1.98Z"/>
    <path class="cls-3" d="M70.91,248.41c.77.6,1.21,1.21,1.03,1.42-.18.21-.94-.05-1.76-.64-.9-.64-1.49-1.38-1.25-1.6.23-.22,1.15.18,1.98.82Z"/>
    <path class="cls-3" d="M77.36,255.73c-1.27,0-3.57-1.07-5.86-2.72-2.81-2.03-4.82-4.31-4.9-5.56-.02-.28.06-.5.23-.66.18-.17.45-.25.81-.25,1.43,0,4.19,1.39,6.72,3.39,2.32,1.84,3.9,3.75,4.02,4.87.03.26-.03.48-.16.64-.17.2-.46.31-.85.31ZM67.63,246.78c-.29,0-.5.06-.63.19-.12.11-.17.26-.15.46.07,1.16,2.09,3.42,4.8,5.37,2.25,1.63,4.5,2.68,5.71,2.68.32,0,.54-.07.66-.22.09-.11.12-.26.1-.45-.11-1.04-1.68-2.93-3.92-4.7-2.48-1.96-5.18-3.34-6.56-3.34Z"/>
    <path class="cls-3" d="M94.03,250.06c-3.02-1.99-4.38-4.89-3.21-6.55,1.14-1.62,4.38-1.58,7.39.16,3.18,1.83,5.01,4.89,3.88,6.77-1.16,1.93-4.85,1.72-8.05-.38Z"/>
    <path class="cls-3" d="M66.42,235.19c-1.19,0-2.81-.91-4.13-2.33-1.8-1.93-2.47-4.16-1.51-5.07.27-.26.63-.39,1.09-.39,1.09,0,2.54.75,3.79,1.97,1.98,1.91,2.84,4.31,1.93,5.35-.27.31-.68.47-1.18.47ZM61.87,227.65c-.39,0-.7.11-.92.32-.84.8-.16,2.92,1.52,4.72,1.27,1.36,2.82,2.25,3.95,2.25.43,0,.76-.13.99-.39.81-.92-.07-3.21-1.92-5-1.21-1.17-2.59-1.9-3.62-1.9Z"/>
    <path class="cls-3" d="M48.72,207.93c-1.77-2.61-1.94-5.56-.49-6.68,1.42-1.1,3.98-.12,5.82,2.27,1.95,2.53,2.44,5.74.95,7.06-1.53,1.36-4.4.12-6.28-2.65Z"/>
    <path class="cls-3" d="M51.09,187.47c-1.26-1.98-1.23-4.29-.03-5.23,1.18-.93,3.14-.28,4.46,1.52,1.4,1.9,1.61,4.4.36,5.52-1.28,1.14-3.47.29-4.8-1.8Z"/>
    <path class="cls-3" d="M55.14,192.17c-1.91,0-4.07-1.44-5.49-3.68-1.99-3.13-1.99-6.8-.01-8.37.57-.45,1.28-.69,2.06-.69,1.75,0,3.71,1.19,5.11,3.09,2.28,3.09,2.53,7.05.55,8.81-.61.54-1.38.83-2.23.83ZM51.7,179.69c-.73,0-1.37.21-1.9.63-1.85,1.46-1.82,5.06.07,8.04,1.38,2.16,3.45,3.56,5.28,3.56.79,0,1.5-.26,2.06-.77,1.88-1.68,1.62-5.48-.59-8.48-1.36-1.85-3.24-2.99-4.91-2.99Z"/>
    <path class="cls-3" d="M62.98,232.27c-1.16-1.24-1.58-2.66-1-3.22.57-.54,1.92-.1,3.1,1.04,1.24,1.2,1.84,2.75,1.27,3.4-.59.67-2.13.1-3.36-1.22Z"/>
    <path class="cls-3" d="M77.19,226.8c-1.75-1.4-2.48-3.66-1.54-4.94.91-1.24,2.99-.96,4.57.51,1.49,1.39,2.04,3.39,1.29,4.57-.77,1.2-2.67,1.18-4.32-.14Z"/>
    <path class="cls-3" d="M54.24,232.32c-.86,0-2.22-.85-3.47-2.18-1.65-1.75-2.44-3.63-1.79-4.27.14-.14.34-.22.6-.22.84,0,2.18.82,3.4,2.09,1.65,1.72,2.48,3.61,1.91,4.3-.15.18-.36.27-.64.27ZM49.58,225.91c-.18,0-.32.05-.42.14-.47.47.14,2.16,1.8,3.93,1.18,1.25,2.5,2.1,3.29,2.1.2,0,.35-.06.45-.18.43-.52-.23-2.24-1.9-3.97-1.16-1.21-2.45-2.02-3.21-2.02Z"/>
    <path class="cls-3" d="M31.79,212.58c-1.53-2.37-2.22-4.69-1.57-5.19.64-.49,2.35.94,3.85,3.22,1.52,2.31,2.28,4.68,1.68,5.27-.62.6-2.4-.88-3.96-3.29Z"/>
    <path class="cls-3" d="M27.14,200.5c-1.08-1.99-1.37-3.94-.67-4.38.69-.43,2.08.76,3.14,2.67,1.07,1.94,1.43,3.93.76,4.44-.68.52-2.14-.71-3.23-2.73Z"/>
    <path class="cls-3" d="M20.96,187.09c-.87-2.03-.97-3.96-.24-4.34.72-.37,1.98.89,2.85,2.84.88,1.97,1.03,3.95.32,4.4-.72.46-2.05-.85-2.93-2.91Z"/>
    <path class="cls-3" d="M14.82,169.09c-.51-2.11-.28-3.95.46-4.33.72-.37,1.77.75,2.42,2.68.73,2.17.71,4.59-.15,5.15-.89.58-2.15-1.12-2.73-3.5Z"/>
    <path class="cls-3" d="M7.29,175.82c-.89-3.03-1.13-5.58-.55-5.62.56-.03,1.67,2.28,2.47,5.1.78,2.75,1.02,5.11.55,5.35-.5.25-1.6-1.88-2.46-4.83Z"/>
    <path class="cls-3" d="M37.79,205.99c-.61-.92-.79-1.94-.43-2.3.36-.35,1.13.08,1.73.95.61.89.83,1.93.48,2.32-.36.4-1.16-.04-1.78-.97Z"/>
    <path class="cls-3" d="M22.31,197.28c-.55-.92-.76-1.86-.48-2.12.28-.25.93.26,1.47,1.14.55.89.79,1.86.52,2.14-.27.29-.95-.23-1.51-1.16Z"/>
    <path class="cls-3" d="M6.79,182.2c-.34-1-.38-1.97-.1-2.18.27-.2.76.41,1.09,1.37.34.98.4,1.97.13,2.21-.27.25-.78-.38-1.13-1.4Z"/>
    <path class="cls-3" d="M9.79,189.61c-.34-1-.38-1.97-.1-2.18.27-.2.76.41,1.09,1.37.34.98.4,1.97.13,2.21-.27.25-.78-.38-1.13-1.4Z"/>
    <path class="cls-3" d="M31.26,206.32c-1.47,0-3.63-2.1-5.25-5.11-1.99-3.7-2.48-7.32-1.11-8.26.21-.14.46-.22.73-.22,1.44,0,3.56,2.03,5.17,4.94,2.01,3.64,2.57,7.31,1.29,8.36-.23.19-.51.28-.83.28ZM25.63,192.98c-.22,0-.42.06-.59.17-1.23.84-.68,4.47,1.19,7.93,1.58,2.93,3.65,4.98,5.03,4.98.26,0,.48-.08.67-.23,1.18-.96.57-4.57-1.35-8.05-1.56-2.83-3.6-4.81-4.95-4.81Z"/>
    <path class="cls-3" d="M31.81,223.94c-1.49-1.92-2.47-3.64-2.2-3.85.26-.21,1.63,1.1,3.08,2.95,1.47,1.88,2.5,3.64,2.28,3.93-.22.29-1.65-1.08-3.16-3.03Z"/>
    <path class="cls-3" d="M51.3,229.53c-.72-.75-1.07-1.58-.78-1.86s1.07.07,1.78.78c.72.72,1.1,1.57.83,1.88-.27.32-1.09-.04-1.83-.8Z"/>
    <path class="cls-3" d="M55.26,240.79c-1.49-1.42-2.3-2.9-1.84-3.32.45-.41,1.97.34,3.42,1.7,1.47,1.38,2.35,2.89,1.94,3.36-.42.48-2-.3-3.51-1.74Z"/>
    <path class="cls-3" d="M60.23,248.2c-1.09-.95-1.77-1.88-1.52-2.1.24-.21,1.28.34,2.35,1.25,1.08.92,1.79,1.88,1.58,2.13-.21.26-1.3-.32-2.41-1.28Z"/>
    <path class="cls-3" d="M64.44,251.23c-.84,0-2.84-1.14-4.85-2.76-1.97-1.59-3.36-3.18-3.37-3.87,0-.16.07-.26.12-.31.08-.07.2-.11.36-.11.83,0,2.78,1.11,4.76,2.69,2.04,1.64,3.47,3.26,3.46,3.96,0,.17-.08.26-.14.31-.08.06-.2.09-.34.09ZM56.7,244.43c-.09,0-.16.02-.19.05-.02.02-.04.05-.04.12.01.51,1.16,1.97,3.28,3.68,1.94,1.57,3.91,2.7,4.69,2.7.08,0,.15-.01.19-.04.02-.01.05-.04.05-.12,0-.51-1.17-2-3.36-3.76-1.91-1.53-3.84-2.64-4.61-2.64Z"/>
    <path class="cls-3" d="M45.81,239.78c-1.43-1.35-2.35-2.49-2.07-2.55.28-.06,1.68,1,3.13,2.37,1.47,1.39,2.42,2.56,2.12,2.6-.31.04-1.73-1.05-3.18-2.42Z"/>
    <path class="cls-3" d="M52.26,246c-1.87-1.49-3.21-2.78-3.01-2.9.21-.12,1.9,1.01,3.81,2.52,1.93,1.53,3.31,2.86,3.07,2.96-.24.09-1.98-1.07-3.87-2.58Z"/>
    <path class="cls-3" d="M70.54,255.88c.72.48,1.17.96,1.07,1.09-.11.14-.76-.11-1.52-.58-.83-.52-1.43-1.1-1.28-1.24.15-.14.95.21,1.73.73Z"/>
    <path class="cls-3" d="M68.32,255.87c1.13.7,1.94,1.34,1.89,1.49-.05.15-.98-.24-2.15-.94-1.29-.76-2.33-1.55-2.23-1.71.1-.15,1.26.39,2.49,1.15Z"/>
    <path class="cls-3" d="M47.61,238.34c-.69-.68-1.12-1.26-.97-1.31.15-.05.84.47,1.54,1.16.71.7,1.16,1.3.99,1.34-.16.04-.87-.5-1.56-1.19Z"/>
    <path class="cls-3" d="M23.67,211.63c-1.13-1.81-1.72-3.44-1.34-3.66.37-.22,1.55.99,2.65,2.73,1.11,1.76,1.75,3.44,1.41,3.73-.35.3-1.58-.97-2.72-2.8Z"/>
    <path class="cls-3" d="M72.06,166.76c-.9-2.32-.03-4.86,1.95-5.67s4.32.4,5.22,2.72c.9,2.32.03,4.86-1.95,5.67-1.98.81-4.32-.4-5.22-2.72Z"/>
    <path class="cls-3" d="M25.77,132.97c.04-3.18,1.67-5.78,3.64-5.8s3.53,2.54,3.49,5.72c-.04,3.18-1.67,5.78-3.64,5.8-1.97.02-3.53-2.54-3.49-5.72Z"/>
    <path class="cls-3" d="M21.44,90.69c.62-2.1,1.96-3.84,3.01-3.9,1.04-.06,1.39,1.59.77,3.69-.62,2.1-1.96,3.84-3.01,3.9-1.04.06-1.39-1.59-.77-3.69Z"/>
    <path class="cls-3" d="M31.46,57.55c1.25-1.79,2.72-3.2,3.28-3.15.56.05,0,1.54-1.26,3.33-1.25,1.79-2.72,3.2-3.28,3.15-.56-.05,0-1.54,1.26-3.33Z"/>
    <path class="cls-3" d="M71.46,31.33c1.34-1.29,3.11-2.19,3.91-1.87.87.35.11,1.93-1.59,3.36-1.53,1.28-3.11,1.82-3.62,1.34-.47-.44.09-1.66,1.31-2.83Z"/>
    <path class="cls-3" d="M70.28,19.9c1.55-1.08,3.32-2.01,3.86-1.99.58.03-.61,1.17-2.51,2.41-1.71,1.12-3.19,1.79-3.43,1.6-.23-.17.67-1.04,2.09-2.02Z"/>
    <path class="cls-3" d="M7,99.06c.6-2.1,1.42-4.01,1.82-4.26.4-.25.24,1.25-.36,3.35s-1.42,4.01-1.82,4.26c-.4.25-.24-1.25.36-3.35Z"/>
    <path class="cls-3" d="M5.84,105.55c-.07,0-.18-.02-.27-.14-.49-.65.14-3.9.93-6.65,1.01-3.52,2.31-6.46,3.03-6.83.07-.03.13-.05.19-.05.07,0,.18.02.26.14.45.58-.01,3.21-.59,5.47-.9,3.48-2.43,7.53-3.35,8.01-.07.03-.13.05-.2.05ZM9.72,92.18s-.02,0-.05.02c-.55.28-1.81,2.91-2.88,6.65-1,3.48-1.28,5.98-.98,6.39.04.06.04.04.1,0,.73-.38,2.23-4.03,3.2-7.82.77-2.98.91-4.88.65-5.22-.02-.02-.03-.02-.03-.02Z"/>
    <path class="cls-3" d="M53.45,91.79c1.11-2.08,3.2-3.07,4.68-2.22,1.48.85,1.77,3.22.66,5.3-1.11,2.08-3.2,3.07-4.68,2.22s-1.77-3.22-.66-5.3Z"/>
    <path class="cls-3" d="M29.85,149.83c-1.95,0-3.84-.87-5.46-2.51-3.05-3.09-4.82-8.46-4.74-14.37.13-9.4,4.96-17.13,10.76-17.22h.11c1.95,0,3.84.87,5.45,2.51,3.05,3.09,4.82,8.46,4.74,14.37-.13,9.4-4.96,17.13-10.76,17.22h-.11ZM30.53,115.98h-.11c-5.67.1-10.39,7.71-10.52,16.98-.08,5.84,1.67,11.14,4.67,14.19,1.57,1.59,3.4,2.43,5.28,2.43h.11c5.67-.1,10.39-7.71,10.52-16.98.08-5.84-1.67-11.14-4.67-14.19-1.57-1.59-3.4-2.43-5.28-2.43Z"/>
    <path class="cls-3" d="M28.59,153.01c-.41-2.36.4-4.51,1.8-4.79,1.4-.28,2.87,1.41,3.28,3.78.41,2.36-.4,4.51-1.8,4.79-1.4.28-2.87-1.41-3.28-3.78Z"/>
    <path class="cls-3" d="M32.19,161.6c-2.91,0-5.7-3.45-6.49-8.02-.86-5,.96-9.56,4.06-10.17.23-.05.47-.07.71-.07,2.91,0,5.7,3.45,6.49,8.02.86,5-.96,9.56-4.06,10.17-.23.05-.47.07-.71.07ZM30.48,143.59c-.22,0-.44.02-.66.06-2.97.59-4.7,5.02-3.87,9.89.77,4.45,3.45,7.81,6.24,7.81.22,0,.44-.02.66-.07,2.97-.59,4.7-5.02,3.87-9.89-.77-4.45-3.45-7.81-6.24-7.81Z"/>
    <path class="cls-3" d="M9.5,158.85c-1.78,0-3.53-4.05-3.99-9.22-.47-5.38.6-9.76,2.44-9.97,1.83-.22,3.66,3.91,4.12,9.22.47,5.38-.6,9.76-2.44,9.97-.05,0-.09,0-.14,0ZM8.09,139.84s-.08,0-.12,0c-1.7.2-2.72,4.58-2.26,9.76.45,5.1,2.23,9.24,3.91,9.04,1.7-.2,2.72-4.58,2.26-9.76-.44-4.99-2.14-9.05-3.79-9.05Z"/>
    <path class="cls-3" d="M7.86,149.55c-.11-1.14.12-2.12.51-2.17.39-.05.8.83.91,1.98.11,1.14-.12,2.12-.51,2.17-.39.05-.8-.83-.91-1.98Z"/>
    <path class="cls-3" d="M3.18,136.71c.02-1.07.21-1.93.43-1.93s.38.86.36,1.93c-.02,1.07-.21,1.93-.43,1.93s-.38-.86-.36-1.93Z"/>
    <path class="cls-3" d="M.31,130.39c.03-1.13.27-2.23.54-2.33.29-.1.44.95.35,2.19-.08,1.09-.33,1.89-.56,1.88-.21,0-.36-.74-.33-1.74Z"/>
    <path class="cls-3" d="M1.09,136.69c0-.95.1-1.7.23-1.77.13-.07.27.59.3,1.58.04,1.11-.07,2.14-.24,2.16-.16.02-.29-.91-.3-1.97Z"/>
    <path class="cls-3" d="M2.16,156.05c-.11-.98-.03-1.77.17-1.75.2.02.45.83.56,1.81.11.98.03,1.77-.17,1.75-.2-.02-.45-.83-.56-1.81Z"/>
    <path class="cls-3" d="M3.06,160.93h0c-.49-.03-.96-2.87-1.15-4.77-.21-2.05-.26-4.31.06-4.66.04-.05.09-.06.12-.06.49.03.96,2.87,1.16,4.77.21,2.05.26,4.3-.06,4.66-.04.05-.09.06-.12.06ZM2.08,151.58s-.02.01-.02.02c-.22.24-.29,2.01-.02,4.56.3,2.86.8,4.64,1.03,4.65v.07s0-.07,0-.07c0,0,.02-.01.02-.02.22-.24.29-2.01.02-4.56-.3-2.86-.8-4.64-1.03-4.65h0Z"/>
    <path class="cls-3" d="M4.88,168.18c-.22-1.12-.24-2.02-.03-2.01.21.01.55.93.78,2.05.22,1.12.24,2.02.03,2.01-.21-.01-.55-.93-.78-2.05Z"/>
    <path class="cls-3" d="M10.99,148.42c-.11-1.14.18-2.11.65-2.15.47-.05.94.85,1.05,1.99.11,1.14-.18,2.11-.65,2.15-.47.05-.94-.85-1.05-1.99Z"/>
    <path class="cls-3" d="M161.5,202.78c.52-5.8,5.7-10.41,11.56-10.5,7.19-.11,10.96,4.46,10.44,10.26-.52,5.8-6.45,10.74-12.31,10.74s-10.21-4.7-9.69-10.5Z"/>
    <path class="cls-3" d="M251.7,197.17c2.22-4.51,2.46-8.94.54-9.89-1.92-.95-5.28,1.95-7.51,6.46s-2.46,8.94-.54,9.89c1.92.95,5.28-1.95,7.51-6.46Z"/>
    <g>
      <path class="cls-3" d="M228.49,185.79c1.07-2.2.7-4.58-.81-5.32-1.52-.74-3.61.45-4.68,2.65-1.07,2.2-.7,4.58.81,5.32,1.52.74,3.61-.45,4.68-2.65Z"/>
      <path class="cls-3" d="M224.78,188.78h0c-.37,0-.71-.08-1.03-.23-1.58-.77-1.97-3.23-.87-5.48.85-1.76,2.39-2.94,3.82-2.94.37,0,.71.08,1.03.23,1.58.77,1.97,3.23.87,5.48-.85,1.76-2.39,2.94-3.82,2.94ZM226.7,180.38c-1.34,0-2.78,1.12-3.6,2.8-1.04,2.13-.7,4.45.76,5.15.28.14.59.21.92.21,1.34,0,2.78-1.12,3.6-2.8,1.04-2.13.7-4.45-.76-5.15-.28-.14-.59-.21-.92-.21Z"/>
    </g>
    <g>
      <path class="cls-3" d="M273.86,163.15c.67-3.67,1.2-7.39,1.58-11.16-.75,3.06-1.45,7.02-1.58,11.16Z"/>
      <path class="cls-3" d="M273.98,163.18l-.25-.03c.14-4.49.94-8.56,1.58-11.19l.25.04c-.37,3.7-.9,7.46-1.58,11.17ZM275.08,154.13c-.4,1.96-.79,4.36-.99,6.98.39-2.32.72-4.66.99-6.98Z"/>
    </g>
    <path class="cls-3" d="M233.34,144.5c0-5.13,2.79-9.48,6.32-9.71,3.62-.24,6.62,3.91,6.62,9.28s-3,9.72-6.62,9.72-6.32-4.16-6.32-9.29Z"/>
    <path class="cls-3" d="M239.16,157.68c-5.01,0-8.94-5.69-8.94-12.96s3.92-13.32,8.93-13.8c.21-.02.41-.03.62-.03,5.01,0,8.93,5.69,8.93,12.96,0,7.63-4.28,13.83-9.54,13.83ZM239.77,131.14c-.2,0-.4,0-.6.03-4.8.46-8.7,6.54-8.7,13.55s3.9,12.71,8.69,12.71c5.12,0,9.29-6.09,9.29-13.58s-3.81-12.71-8.68-12.71Z"/>
    <path class="cls-3" d="M250.55,145.07c0-1.3.59-2.34,1.32-2.34s1.32,1.05,1.32,2.34-.59,2.34-1.32,2.34-1.32-1.05-1.32-2.34Z"/>
    <path class="cls-3" d="M251.78,150.13c-1.61,0-2.91-2.27-2.91-5.06s1.31-5.06,2.91-5.06,2.91,2.27,2.91,5.06-1.31,5.06-2.91,5.06ZM251.78,140.24c-1.47,0-2.67,2.16-2.67,4.83s1.2,4.83,2.67,4.83,2.68-2.16,2.68-4.83-1.2-4.83-2.68-4.83Z"/>
    <path class="cls-3" d="M262.59,161.42c-.64,0-1.24-.29-1.77-.87-1.6-1.74-2.4-5.8-2.02-10.35.51-6.18,3.03-11.2,5.63-11.2.64,0,1.24.29,1.77.87,1.6,1.74,2.4,5.8,2.02,10.35-.51,6.18-3.04,11.2-5.63,11.2ZM264.43,139.25c-2.46,0-4.87,4.92-5.37,10.97-.37,4.48.4,8.46,1.96,10.16.48.52,1.02.79,1.58.79,2.46,0,4.87-4.92,5.37-10.97.37-4.48-.4-8.46-1.96-10.16-.48-.52-1.02-.79-1.58-.79Z"/>
    <path class="cls-3" d="M261.32,150.32c.26-3.15,1.52-5.7,2.81-5.69,1.3,0,2.14,2.55,1.88,5.7-.26,3.15-1.52,5.7-2.81,5.69s-2.14-2.55-1.88-5.7Z"/>
    <path class="cls-3" d="M256.45,172.71c-.26,1.14-.96,2.04-1.56,2.02-.6-.02-.88-.96-.62-2.09.26-1.14.96-2.04,1.56-2.02.6.02.88.96.62,2.09Z"/>
    <path class="cls-3" d="M259.15,201.83c-.57,1.12-1.16,1.95-1.33,1.87s.15-1.06.72-2.18,1.16-1.95,1.33-1.87-.15,1.06-.72,2.18Z"/>
    <path class="cls-3" d="M251.94,118.54c-.7-3.87.3-7.33,2.24-7.75,1.94-.41,4.08,2.38,4.78,6.25s-.3,7.33-2.24,7.75c-1.94.41-4.08-2.38-4.78-6.25Z"/>
    <path class="cls-3" d="M242.63,109.82c-.37-1.29-.12-2.5.56-2.7.68-.19,1.53.7,1.9,1.99.37,1.29.12,2.5-.56,2.7-.68.19-1.53-.7-1.9-1.99Z"/>
    <path class="cls-3" d="M269.9,97.48c.52,2.03.73,3.73.46,3.8-.27.07-.91-1.52-1.43-3.55-.52-2.03-.73-3.73-.46-3.8.27-.07.91,1.52,1.43,3.55Z"/>
    <path class="cls-3" d="M215.07,122.68c-.26-2.6,1.29-4.72,3.44-4.65,2.12.07,3.91,2.24,4.04,4.77.12,2.44-1.38,4.36-3.36,4.36s-3.86-1.97-4.11-4.48Z"/>
    <path class="cls-3" d="M219.07,131.05c-3.71,0-6.97-3.66-7.27-8.16-.17-2.53.61-4.91,2.12-6.53,1.21-1.29,2.82-1.98,4.49-1.93,3.7.12,6.89,3.86,7.1,8.34.1,2.14-.47,4.17-1.62,5.72-1.16,1.56-2.77,2.47-4.55,2.56-.09,0-.18,0-.27,0ZM218.23,114.69c-1.54,0-3,.66-4.12,1.85-1.47,1.57-2.21,3.88-2.05,6.34.29,4.37,3.43,7.92,7.01,7.92.09,0,.17,0,.26,0,1.7-.08,3.25-.95,4.36-2.45,1.11-1.5,1.67-3.48,1.57-5.56-.21-4.35-3.29-7.98-6.86-8.09-.06,0-.12,0-.18,0Z"/>
    <path class="cls-3" d="M243.38,63.34c1.97,2.84,2.87,5.85,1.83,6.47-1.04.61-3.47-1.48-5.27-4.42-1.65-2.68-2.17-5.11-1.29-5.64.88-.52,2.93,1,4.73,3.59Z"/>
    <path class="cls-3" d="M245.36,74.08c-.57-1.08-.73-2.12-.36-2.32.37-.2,1.14.52,1.71,1.6.57,1.08.73,2.12.36,2.32-.37.2-1.14-.52-1.71-1.6Z"/>
    <path class="cls-3" d="M251.94,72.8c-.54-1.03-.7-1.89-.41-2.02.29-.12.94.5,1.51,1.46.63,1.06.94,2.15.62,2.34-.32.2-1.12-.65-1.72-1.78Z"/>
    <path class="cls-3" d="M158.24,130.33c0-2.62,2.12-4.74,4.74-4.74s4.74,2.12,4.74,4.74-2.12,4.74-4.74,4.74-4.74-2.12-4.74-4.74Z"/>
    <path class="cls-3" d="M95.74,155.08c0-2.62,1.99-4.74,4.45-4.74s4.45,2.12,4.45,4.74-1.99,4.74-4.45,4.74-4.45-2.12-4.45-4.74Z"/>
    <path class="cls-3" d="M93.05,98.48c.17-2.29,2.03-4.32,4.27-4.59,2.34-.29,4.29,1.42,4.26,3.91-.04,2.58-2.17,4.81-4.65,4.89-2.36.08-4.04-1.84-3.87-4.21Z"/>
    <path class="cls-3" d="M63.09,132.75c0-1.45.99-2.67,2.22-2.72,1.23-.05,2.22,1.1,2.22,2.55s-.99,2.67-2.22,2.72c-1.23.05-2.22-1.1-2.22-2.55Z"/>
    <path class="cls-3" d="M125.26,77.96c0-1.68,1.39-3.06,3.07-3.08s3.05,1.33,3.04,3.01c0,1.68-1.39,3.06-3.08,3.08-1.69.02-3.05-1.33-3.04-3.01Z"/>
    <path class="cls-3" d="M145.62,44.25c-.16-1.84,1.24-3.32,3.13-3.32s3.56,1.49,3.73,3.32c.16,1.84-1.24,3.32-3.13,3.32s-3.56-1.49-3.73-3.32Z"/>
    <path class="cls-3" d="M185.19,12.69c-2.08-1.22-3.39-2.34-3.18-2.65.2-.31,1.89.23,4.04,1.36,2.53,1.33,4.71,2.93,4.42,3.34-.28.41-2.84-.61-5.28-2.05Z"/>
    <path class="cls-3" d="M161.36,9.91c-1.28-.61-2.21-1.61-1.91-2.17.3-.56,1.68-.34,2.93.4,1.1.66,1.68,1.5,1.42,1.93-.26.43-1.3.37-2.43-.17Z"/>
    <path class="cls-3" d="M226.01,226.03c.76-.94,1.69-1.46,2.08-1.17.39.3.09,1.3-.67,2.24-.76.94-1.69,1.46-2.08,1.17-.39-.3-.09-1.3.67-2.24Z"/>
    <path class="cls-3" d="M241.09,226.58c1.4-1.68,2.73-2.88,2.97-2.67.24.2-.7,1.73-2.1,3.41-1.4,1.68-2.73,2.88-2.97,2.67s.7-1.73,2.1-3.41Z"/>
    <path class="cls-3" d="M178.07,88.66c-.28-2.42,1.43-4.38,3.82-4.38s4.56,1.96,4.84,4.38c.28,2.42-1.43,4.38-3.82,4.38s-4.56-1.96-4.84-4.38Z"/>
    <path class="cls-3" d="M218.13,48.69c-1.45-1.61-2.11-3.4-1.51-4.03.61-.63,2.3.12,3.79,1.72,1.53,1.64,2.27,3.52,1.61,4.16-.65.64-2.41-.21-3.89-1.86Z"/>
    <path class="cls-3" d="M218.27,62.39c-.82-.98-1.08-2.14-.6-2.62.48-.48,1.55-.11,2.39.86.87.99,1.17,2.21.66,2.7-.51.49-1.61.06-2.45-.94Z"/>
    <path class="cls-3" d="M225.18,68.42c-.7-1.01-.87-2.2-.39-2.68.48-.48,1.46-.08,2.18.92.75,1.02.95,2.27.43,2.77-.51.49-1.52.03-2.23-1Z"/>
    <path class="cls-3" d="M186.46,48.44c-2.13-2.16-2.68-4.95-1.23-6.23s4.35-.56,6.48,1.61c2.13,2.16,2.68,4.96,1.23,6.23-1.45,1.28-4.35.56-6.48-1.61Z"/>
    <path class="cls-3" d="M213.33,30.36c-1.61-1.4-2.66-2.82-2.35-3.18.31-.36,1.87.48,3.47,1.88,1.61,1.4,2.66,2.82,2.35,3.18-.31.36-1.87-.48-3.47-1.88Z"/>
    <path class="cls-3" d="M194.65,60.43c-4.32,0-9.45-2.52-13.41-6.58-6.13-6.29-7.82-14.28-3.86-18.21,1.39-1.37,3.35-2.1,5.7-2.1,4.11,0,8.89,2.22,12.77,5.93,4.13,3.94,6.6,8.86,6.63,13.16.01,2.34-.74,4.32-2.16,5.71-1.39,1.36-3.35,2.08-5.66,2.08ZM183.07,33.79c-2.27,0-4.18.7-5.52,2.03-3.8,3.76-2.07,11.78,3.86,17.86,3.91,4.01,8.98,6.5,13.23,6.5,2.24,0,4.14-.69,5.49-2.01,1.38-1.34,2.1-3.26,2.09-5.53-.02-4.17-2.53-9.15-6.55-12.98-3.84-3.67-8.55-5.86-12.6-5.86Z"/>
    <path class="cls-3" d="M241.77,210.24h0c-.54,0-1.03-.11-1.48-.33-3.48-1.71-3.05-9.73.96-17.88,3.42-6.95,8.51-11.99,12.11-11.99.54,0,1.03.11,1.48.33,1.7.84,2.54,3.17,2.34,6.57-.19,3.36-1.36,7.38-3.3,11.31-3.42,6.95-8.51,11.99-12.11,11.99ZM253.36,180.28c-3.5,0-8.5,4.99-11.88,11.85-3.95,8.02-4.43,15.89-1.07,17.54.41.2.87.3,1.37.3h0c3.5,0,8.5-4.99,11.88-11.85,1.92-3.9,3.08-7.88,3.27-11.21.19-3.29-.59-5.54-2.2-6.33-.41-.2-.87-.3-1.37-.3Z"/>
    <path class="cls-3" d="M238.74,215.73h0c-.74,0-1.42-.15-2.03-.45-4.84-2.38-4.2-13.61,1.42-25.03,4.8-9.76,11.93-16.85,16.94-16.85.74,0,1.42.15,2.03.45,4.84,2.38,4.2,13.61-1.42,25.03-4.81,9.76-11.93,16.85-16.94,16.85ZM255.07,173.66c-4.92,0-11.95,7.03-16.71,16.71-5.56,11.3-6.25,22.37-1.54,24.69.58.28,1.22.43,1.92.43,4.92,0,11.95-7.03,16.71-16.71,5.56-11.3,6.25-22.37,1.54-24.69-.58-.28-1.22-.43-1.92-.43Z"/>
    <path class="cls-3" d="M223.53,193.8h0c-.8,0-1.56-.17-2.25-.51-1.7-.82-2.83-2.55-3.18-4.86-.35-2.29.1-4.9,1.28-7.32,1.9-3.92,5.32-6.55,8.5-6.55.8,0,1.56.17,2.25.51,1.7.82,2.83,2.55,3.18,4.86.35,2.29-.1,4.9-1.28,7.32-1.9,3.92-5.32,6.55-8.49,6.55ZM227.87,174.81c-3.08,0-6.41,2.58-8.27,6.41-1.16,2.38-1.6,4.93-1.26,7.18.34,2.23,1.42,3.89,3.04,4.68.66.32,1.38.48,2.14.48,3.09,0,6.41-2.58,8.27-6.41,1.16-2.38,1.6-4.93,1.26-7.18-.34-2.23-1.42-3.89-3.04-4.68-.66-.32-1.38-.48-2.14-.48Z"/>
    <path class="cls-3" d="M224.3,190.87h0c-.54,0-1.05-.11-1.51-.34-2.33-1.13-2.9-4.77-1.28-8.12,1.27-2.61,3.54-4.36,5.66-4.36.54,0,1.05.11,1.51.34,1.14.55,1.89,1.71,2.13,3.25.23,1.53-.07,3.26-.85,4.87-1.27,2.61-3.54,4.36-5.66,4.36ZM227.18,178.29c-2.03,0-4.21,1.7-5.44,4.22-1.56,3.22-1.04,6.72,1.16,7.79.43.21.9.31,1.4.31,2.03,0,4.21-1.7,5.44-4.22.76-1.57,1.06-3.25.83-4.73-.22-1.46-.93-2.55-1.99-3.06-.43-.21-.9-.31-1.4-.31Z"/>
    <path class="cls-3" d="M256.86,205.83s-.08,0-.11-.03c-.71-.36,1.29-4.34,1.37-4.5.93-1.83,2.17-3.8,2.71-3.8.04,0,.08,0,.11.03.04.02.1.07.13.17.19.57-.65,2.65-1.51,4.34-.93,1.83-2.17,3.8-2.71,3.8ZM260.83,197.75c-.25,0-1.29,1.31-2.48,3.66-1.25,2.47-1.62,3.99-1.48,4.17.26,0,1.3-1.31,2.49-3.66,1.26-2.49,1.63-4.02,1.48-4.17Z"/>
    <path class="cls-3" d="M218.68,34.64c-1.06,0-3.47-1.45-5.85-3.53-2.56-2.22-4.89-5.02-4.19-5.84.11-.12.28-.19.5-.19,1.06,0,3.47,1.45,5.85,3.53,2.56,2.22,4.89,5.02,4.19,5.84-.11.12-.28.19-.5.19ZM209.14,25.33c-.15,0-.26.04-.32.11-.44.5,1.16,2.88,4.16,5.49,2.31,2.01,4.71,3.47,5.7,3.47.15,0,.26-.04.32-.11.44-.5-1.16-2.88-4.16-5.49-2.31-2.01-4.71-3.47-5.7-3.47Z"/>
    <path class="cls-3" d="M99.48,244.39c-.24.61-1.23.8-2.22.42-.99-.38-1.6-1.19-1.37-1.8.24-.61,1.23-.8,2.22-.42.99.38,1.6,1.19,1.37,1.8Z"/>
  </g>
</svg>